<?xml version="1.0" encoding="UTF-8" standalone="no"?>
<!DOCTYPE svg PUBLIC "-//W3C//DTD SVG 1.1//EN"
 "http://www.w3.org/Graphics/SVG/1.1/DTD/svg11.dtd">
<!-- Generated by graphviz version 2.43.0 (0)
 -->
<!-- Title: compute_and_aggregate Pages: 1 -->
<svg width="1300pt" height="516pt"
 viewBox="0.00 0.00 1300.04 516.00" xmlns="http://www.w3.org/2000/svg" xmlns:xlink="http://www.w3.org/1999/xlink">
<g id="graph0" class="graph" transform="scale(1 1) rotate(0) translate(4 512)">
<title>compute_and_aggregate</title>
<polygon fill="white" stroke="transparent" points="-4,4 -4,-512 1296.04,-512 1296.04,4 -4,4"/>
<g id="clust1" class="cluster">
<title>cluster_0</title>
<polygon fill="dimgray" stroke="black" points="8,-8 8,-500 1284.04,-500 1284.04,-8 8,-8"/>
</g>
<g id="clust2" class="cluster">
<title>cluster_net_0</title>
<polygon fill="white" stroke="black" points="235,-116 235,-492 1276.04,-492 1276.04,-116 235,-116"/>
</g>
<g id="clust3" class="cluster">
<title>cluster_1</title>
<polygon fill="white" stroke="black" points="1066.74,-124 1066.74,-484 1268.04,-484 1268.04,-124 1066.74,-124"/>
</g>
<g id="clust4" class="cluster">
<title>cluster_2</title>
<polygon fill="yellow" stroke="black" points="365.75,-208 365.75,-484 812.75,-484 812.75,-208 365.75,-208"/>
</g>
<!-- n0_condition -->
<g id="node1" class="node">
<title>n0_condition</title>
<polygon fill="white" stroke="black" points="16,-447 16,-483 207,-483 207,-447 16,-447"/>
<text text-anchor="middle" x="111.5" y="-461.3" font-family="Times,serif" font-size="14.00">compute_and_aggregate</text>
</g>
<!-- n0_port_0 -->
<g id="node2" class="node">
<title>n0_port_0</title>
<polygon fill="white" stroke="black" points="202.3,-397.33 111.5,-420.43 20.7,-397.33 20.79,-359.96 202.21,-359.96 202.3,-397.33"/>
<text text-anchor="middle" x="111.5" y="-390.8" font-family="Times,serif" font-size="14.00">task_trigger</text>
<text text-anchor="middle" x="111.5" y="-375.8" font-family="Times,serif" font-size="14.00">control</text>
</g>
<!-- n0_place_0 -->
<g id="node4" class="node">
<title>n0_place_0</title>
<ellipse fill="white" stroke="black" cx="290.38" cy="-387" rx="47.25" ry="26.74"/>
<text text-anchor="middle" x="290.38" y="-390.8" font-family="Times,serif" font-size="14.00">trigger</text>
<text text-anchor="middle" x="290.38" y="-375.8" font-family="Times,serif" font-size="14.00">control</text>
</g>
<!-- n0_port_0&#45;&gt;n0_place_0 -->
<g id="edge6" class="edge">
<title>n0_port_0&#45;&gt;n0_place_0</title>
<path fill="none" stroke="black" stroke-dasharray="1,5" d="M202.49,-387C216.49,-387 230.43,-387 242.92,-387"/>
</g>
<!-- n0_port_1 -->
<g id="node3" class="node">
<title>n0_port_1</title>
<polygon fill="white" stroke="black" points="464.28,-47.74 589.25,-15.85 714.23,-47.74 714.11,-99.33 464.4,-99.33 464.28,-47.74"/>
<text text-anchor="middle" x="589.25" y="-73.3" font-family="Times,serif" font-size="14.00">aggregated_value</text>
<text text-anchor="middle" x="589.25" y="-58.3" font-family="Times,serif" font-size="14.00">unsigned int</text>
<text text-anchor="middle" x="589.25" y="-43.3" font-family="Times,serif" font-size="14.00">0U</text>
</g>
<!-- n0_place_2 -->
<g id="node6" class="node">
<title>n0_place_2</title>
<ellipse fill="white" stroke="black" cx="939.75" cy="-219" rx="74.91" ry="37.45"/>
<text text-anchor="middle" x="939.75" y="-230.3" font-family="Times,serif" font-size="14.00">global_sum</text>
<text text-anchor="middle" x="939.75" y="-215.3" font-family="Times,serif" font-size="14.00">unsigned int</text>
<text text-anchor="middle" x="939.75" y="-200.3" font-family="Times,serif" font-size="14.00">0U</text>
</g>
<!-- n0_port_1&#45;&gt;n0_place_2 -->
<g id="edge7" class="edge">
<title>n0_port_1&#45;&gt;n0_place_2</title>
<path fill="none" stroke="black" stroke-dasharray="1,5" d="M673.28,-99.41C738.31,-128.7 826.94,-168.63 883.52,-194.12"/>
</g>
<!-- n2_port_0 -->
<g id="node13" class="node">
<title>n2_port_0</title>
<polygon fill="white" stroke="black" points="647.87,-397.33 589.25,-420.43 530.63,-397.33 530.69,-359.96 647.82,-359.96 647.87,-397.33"/>
<text text-anchor="middle" x="589.25" y="-390.8" font-family="Times,serif" font-size="14.00">in</text>
<text text-anchor="middle" x="589.25" y="-375.8" font-family="Times,serif" font-size="14.00">control</text>
</g>
<!-- n0_place_0&#45;&gt;n2_port_0 -->
<g id="edge5" class="edge">
<title>n0_place_0&#45;&gt;n2_port_0</title>
<path fill="none" stroke="black" d="M337.76,-387C386.74,-387 464.44,-387 520.32,-387"/>
<polygon fill="black" stroke="black" points="520.48,-390.5 530.48,-387 520.48,-383.5 520.48,-390.5"/>
</g>
<!-- n0_place_1 -->
<g id="node5" class="node">
<title>n0_place_1</title>
<ellipse fill="white" stroke="black" cx="939.75" cy="-345" rx="98.99" ry="26.74"/>
<text text-anchor="middle" x="939.75" y="-348.8" font-family="Times,serif" font-size="14.00">computed_values</text>
<text text-anchor="middle" x="939.75" y="-333.8" font-family="Times,serif" font-size="14.00">unsigned int</text>
</g>
<!-- n1_port_0 -->
<g id="node8" class="node">
<title>n1_port_0</title>
<polygon fill="white" stroke="black" points="1260.18,-397.33 1167.39,-420.43 1074.59,-397.33 1074.68,-359.96 1260.1,-359.96 1260.18,-397.33"/>
<text text-anchor="middle" x="1167.39" y="-390.8" font-family="Times,serif" font-size="14.00">i</text>
<text text-anchor="middle" x="1167.39" y="-375.8" font-family="Times,serif" font-size="14.00">unsigned int</text>
</g>
<!-- n0_place_1&#45;&gt;n1_port_0 -->
<g id="edge3" class="edge">
<title>n0_place_1&#45;&gt;n1_port_0</title>
<path fill="none" stroke="black" d="M1021.89,-360.1C1035.75,-362.68 1050.3,-365.39 1064.61,-368.06"/>
<polygon fill="black" stroke="black" points="1064,-371.5 1074.47,-369.89 1065.28,-364.62 1064,-371.5"/>
</g>
<!-- n1_port_1 -->
<g id="node9" class="node">
<title>n1_port_1</title>
<polygon fill="white" stroke="black" points="1260.18,-313.33 1167.39,-336.43 1074.59,-313.33 1074.68,-275.96 1260.1,-275.96 1260.18,-313.33"/>
<text text-anchor="middle" x="1167.39" y="-306.8" font-family="Times,serif" font-size="14.00">S</text>
<text text-anchor="middle" x="1167.39" y="-291.8" font-family="Times,serif" font-size="14.00">unsigned int</text>
</g>
<!-- n0_place_2&#45;&gt;n1_port_1 -->
<g id="edge2" class="edge">
<title>n0_place_2&#45;&gt;n1_port_1</title>
<path fill="none" stroke="black" d="M1000.33,-241.18C1025.91,-250.7 1056.22,-261.99 1083.91,-272.29"/>
<polygon fill="black" stroke="black" points="1082.98,-275.68 1093.58,-275.89 1085.43,-269.12 1082.98,-275.68"/>
</g>
<!-- n1_condition -->
<g id="node7" class="node">
<title>n1_condition</title>
<polygon fill="white" stroke="black" points="1081.89,-439 1081.89,-475 1252.89,-475 1252.89,-439 1081.89,-439"/>
<text text-anchor="middle" x="1167.39" y="-453.3" font-family="Times,serif" font-size="14.00">aggregate_value_sum</text>
</g>
<!-- n1_port_2 -->
<g id="node10" class="node">
<title>n1_port_2</title>
<polygon fill="white" stroke="black" points="1074.59,-208.67 1167.39,-185.57 1260.18,-208.67 1260.1,-246.04 1074.68,-246.04 1074.59,-208.67"/>
<text text-anchor="middle" x="1167.39" y="-222.8" font-family="Times,serif" font-size="14.00">S</text>
<text text-anchor="middle" x="1167.39" y="-207.8" font-family="Times,serif" font-size="14.00">unsigned int</text>
</g>
<!-- n1_port_2&#45;&gt;n0_place_2 -->
<g id="edge1" class="edge">
<title>n1_port_2&#45;&gt;n0_place_2</title>
<path fill="none" stroke="black" d="M1074.42,-219C1058.18,-219 1041.36,-219 1025.34,-219"/>
<polygon fill="black" stroke="black" points="1024.94,-215.5 1014.94,-219 1024.94,-222.5 1024.94,-215.5"/>
</g>
<!-- n1_expression -->
<g id="node11" class="node">
<title>n1_expression</title>
<polygon fill="white" stroke="transparent" points="1251.39,-168 1083.39,-168 1083.39,-132 1251.39,-132 1251.39,-168"/>
<text text-anchor="middle" x="1167.39" y="-146.3" font-family="Times,serif" font-size="14.00">${S} := ${S} + ${i}</text>
</g>
<!-- n2_condition -->
<g id="node12" class="node">
<title>n2_condition</title>
<polygon fill="white" stroke="black" points="550.25,-439 550.25,-475 628.25,-475 628.25,-439 550.25,-439"/>
<text text-anchor="middle" x="589.25" y="-453.3" font-family="Times,serif" font-size="14.00">compute</text>
</g>
<!-- n2_port_1 -->
<g id="node14" class="node">
<title>n2_port_1</title>
<polygon fill="white" stroke="black" points="496.46,-292.67 589.25,-269.57 682.05,-292.67 681.96,-330.04 496.54,-330.04 496.46,-292.67"/>
<text text-anchor="middle" x="589.25" y="-306.8" font-family="Times,serif" font-size="14.00">out</text>
<text text-anchor="middle" x="589.25" y="-291.8" font-family="Times,serif" font-size="14.00">unsigned int</text>
</g>
<!-- n2_port_1&#45;&gt;n0_place_1 -->
<g id="edge4" class="edge">
<title>n2_port_1&#45;&gt;n0_place_1</title>
<path fill="none" stroke="black" d="M682.27,-314.09C730.47,-319.9 789.57,-327.02 838.88,-332.96"/>
<polygon fill="black" stroke="black" points="838.58,-336.45 848.93,-334.18 839.42,-329.5 838.58,-336.45"/>
</g>
<!-- n2_modcall -->
<g id="node15" class="node">
<title>n2_modcall</title>
<polygon fill="white" stroke="black" points="804.75,-252 373.75,-252 373.75,-216 804.75,-216 804.75,-252"/>
<text text-anchor="middle" x="589.25" y="-230.3" font-family="Times,serif" font-size="14.00">compute_random_value.print_and_return_a_random_value</text>
</g>
</g>
</svg>
