<?xml version="1.0" encoding="UTF-8" standalone="no"?>
<!DOCTYPE svg PUBLIC "-//W3C//DTD SVG 1.1//EN"
 "http://www.w3.org/Graphics/SVG/1.1/DTD/svg11.dtd">
<!-- Generated by graphviz version 2.43.0 (0)
 -->
<!-- Title: feynman Pages: 1 -->
<svg width="1722pt" height="1226pt"
 viewBox="0.00 0.00 1722.29 1226.00" xmlns="http://www.w3.org/2000/svg" xmlns:xlink="http://www.w3.org/1999/xlink">
<g id="graph0" class="graph" transform="scale(1 1) rotate(0) translate(4 1222)">
<title>feynman</title>
<polygon fill="white" stroke="transparent" points="-4,4 -4,-1222 1718.29,-1222 1718.29,4 -4,4"/>
<g id="clust1" class="cluster">
<title>cluster_0</title>
<polygon fill="dimgray" stroke="black" points="8,-8 8,-1210 1706.29,-1210 1706.29,-8 8,-8"/>
</g>
<g id="clust2" class="cluster">
<title>cluster_net_0</title>
<polygon fill="white" stroke="black" points="147.14,-90 147.14,-1202 1698.29,-1202 1698.29,-90 147.14,-90"/>
</g>
<g id="clust3" class="cluster">
<title>cluster_1</title>
<polygon fill="yellow" stroke="black" points="1402.03,-98 1402.03,-542 1578.85,-542 1578.85,-98 1402.03,-98"/>
</g>
<g id="clust4" class="cluster">
<title>cluster_2</title>
<polygon fill="yellow" stroke="black" points="1039.1,-571 1039.1,-1015 1215.92,-1015 1215.92,-571 1039.1,-571"/>
</g>
<g id="clust5" class="cluster">
<title>cluster_3</title>
<polygon fill="yellow" stroke="black" points="1039.1,-119 1039.1,-563 1215.92,-563 1215.92,-119 1039.1,-119"/>
</g>
<g id="clust6" class="cluster">
<title>cluster_4</title>
<polygon fill="yellow" stroke="black" points="676.17,-834 676.17,-1194 852.99,-1194 852.99,-834 676.17,-834"/>
</g>
<g id="clust7" class="cluster">
<title>cluster_5</title>
<polygon fill="yellow" stroke="black" points="676.17,-466 676.17,-826 852.99,-826 852.99,-466 676.17,-466"/>
</g>
<g id="clust8" class="cluster">
<title>cluster_6</title>
<polygon fill="yellow" stroke="black" points="676.17,-98 676.17,-458 852.99,-458 852.99,-98 676.17,-98"/>
</g>
<g id="clust9" class="cluster">
<title>cluster_7</title>
<polygon fill="yellow" stroke="black" points="313.24,-550 313.24,-994 490.07,-994 490.07,-550 313.24,-550"/>
</g>
<!-- n0_condition -->
<g id="node1" class="node">
<title>n0_condition</title>
<polygon fill="white" stroke="black" points="28.57,-1057 28.57,-1093 106.57,-1093 106.57,-1057 28.57,-1057"/>
<text text-anchor="middle" x="67.57" y="-1071.3" font-family="Times,serif" font-size="14.00">feynman</text>
</g>
<!-- n0_port_0 -->
<g id="node2" class="node">
<title>n0_port_0</title>
<polygon fill="white" stroke="black" points="119.2,-907.33 67.57,-930.43 15.93,-907.33 15.98,-869.96 119.16,-869.96 119.2,-907.33"/>
<text text-anchor="middle" x="67.57" y="-900.8" font-family="Times,serif" font-size="14.00">input</text>
<text text-anchor="middle" x="67.57" y="-885.8" font-family="Times,serif" font-size="14.00">string</text>
</g>
<!-- n0_place_3 -->
<g id="node14" class="node">
<title>n0_place_3</title>
<ellipse fill="white" stroke="black" cx="220.19" cy="-897" rx="41.94" ry="26.74"/>
<text text-anchor="middle" x="220.19" y="-900.8" font-family="Times,serif" font-size="14.00">input</text>
<text text-anchor="middle" x="220.19" y="-885.8" font-family="Times,serif" font-size="14.00">string</text>
</g>
<!-- n0_port_0&#45;&gt;n0_place_3 -->
<g id="edge26" class="edge">
<title>n0_port_0&#45;&gt;n0_place_3</title>
<path fill="none" stroke="black" stroke-dasharray="1,5" d="M119.14,-897C138.29,-897 159.83,-897 178.01,-897"/>
</g>
<!-- n0_port_1 -->
<g id="node3" class="node">
<title>n0_port_1</title>
<polygon fill="white" stroke="black" points="119.2,-823.33 67.57,-846.43 15.93,-823.33 15.98,-785.96 119.16,-785.96 119.2,-823.33"/>
<text text-anchor="middle" x="67.57" y="-816.8" font-family="Times,serif" font-size="14.00">P0</text>
<text text-anchor="middle" x="67.57" y="-801.8" font-family="Times,serif" font-size="14.00">string</text>
</g>
<!-- n0_place_2 -->
<g id="node15" class="node">
<title>n0_place_2</title>
<ellipse fill="white" stroke="black" cx="220.19" cy="-813" rx="41.94" ry="26.74"/>
<text text-anchor="middle" x="220.19" y="-816.8" font-family="Times,serif" font-size="14.00">P0</text>
<text text-anchor="middle" x="220.19" y="-801.8" font-family="Times,serif" font-size="14.00">string</text>
</g>
<!-- n0_port_1&#45;&gt;n0_place_2 -->
<g id="edge27" class="edge">
<title>n0_port_1&#45;&gt;n0_place_2</title>
<path fill="none" stroke="black" stroke-dasharray="1,5" d="M119.14,-813C138.29,-813 159.83,-813 178.01,-813"/>
</g>
<!-- n0_port_2 -->
<g id="node4" class="node">
<title>n0_port_2</title>
<polygon fill="white" stroke="black" points="1438.81,-38.67 1490.44,-15.57 1542.08,-38.67 1542.03,-76.04 1438.86,-76.04 1438.81,-38.67"/>
<text text-anchor="middle" x="1490.44" y="-52.8" font-family="Times,serif" font-size="14.00">result</text>
<text text-anchor="middle" x="1490.44" y="-37.8" font-family="Times,serif" font-size="14.00">string</text>
</g>
<!-- n0_place_1 -->
<g id="node16" class="node">
<title>n0_place_1</title>
<ellipse fill="white" stroke="black" cx="1648.57" cy="-159" rx="41.94" ry="26.74"/>
<text text-anchor="middle" x="1648.57" y="-162.8" font-family="Times,serif" font-size="14.00">P_41</text>
<text text-anchor="middle" x="1648.57" y="-147.8" font-family="Times,serif" font-size="14.00">string</text>
</g>
<!-- n0_port_2&#45;&gt;n0_place_1 -->
<g id="edge28" class="edge">
<title>n0_port_2&#45;&gt;n0_place_1</title>
<path fill="none" stroke="black" stroke-dasharray="1,5" d="M1542.33,-72.13C1554.68,-78.57 1567.57,-86.01 1578.85,-94 1596.14,-106.25 1613.45,-122.66 1626.38,-135.92"/>
</g>
<!-- n0_place_12 -->
<g id="node5" class="node">
<title>n0_place_12</title>
<ellipse fill="white" stroke="black" cx="1308.98" cy="-445" rx="65.11" ry="37.45"/>
<text text-anchor="middle" x="1308.98" y="-456.3" font-family="Times,serif" font-size="14.00">control_41</text>
<text text-anchor="middle" x="1308.98" y="-441.3" font-family="Times,serif" font-size="14.00">control</text>
<text text-anchor="middle" x="1308.98" y="-426.3" font-family="Times,serif" font-size="14.00">[]</text>
</g>
<!-- n1_port_0 -->
<g id="node22" class="node">
<title>n1_port_0</title>
<polygon fill="white" stroke="black" points="1570.77,-455.33 1490.44,-478.43 1410.12,-455.33 1410.2,-417.96 1570.69,-417.96 1570.77,-455.33"/>
<text text-anchor="middle" x="1490.44" y="-448.8" font-family="Times,serif" font-size="14.00">control_41</text>
<text text-anchor="middle" x="1490.44" y="-433.8" font-family="Times,serif" font-size="14.00">control</text>
</g>
<!-- n0_place_12&#45;&gt;n1_port_0 -->
<g id="edge4" class="edge">
<title>n0_place_12&#45;&gt;n1_port_0</title>
<path fill="none" stroke="black" d="M1374.26,-445C1382.58,-445 1391.21,-445 1399.84,-445"/>
<polygon fill="black" stroke="black" points="1399.95,-448.5 1409.95,-445 1399.95,-441.5 1399.95,-448.5"/>
</g>
<!-- n0_place_11 -->
<g id="node6" class="node">
<title>n0_place_11</title>
<ellipse fill="white" stroke="black" cx="946.05" cy="-918" rx="65.11" ry="37.45"/>
<text text-anchor="middle" x="946.05" y="-929.3" font-family="Times,serif" font-size="14.00">control_32</text>
<text text-anchor="middle" x="946.05" y="-914.3" font-family="Times,serif" font-size="14.00">control</text>
<text text-anchor="middle" x="946.05" y="-899.3" font-family="Times,serif" font-size="14.00">[]</text>
</g>
<!-- n2_port_0 -->
<g id="node28" class="node">
<title>n2_port_0</title>
<polygon fill="white" stroke="black" points="1207.84,-928.33 1127.51,-951.43 1047.19,-928.33 1047.27,-890.96 1207.76,-890.96 1207.84,-928.33"/>
<text text-anchor="middle" x="1127.51" y="-921.8" font-family="Times,serif" font-size="14.00">control_32</text>
<text text-anchor="middle" x="1127.51" y="-906.8" font-family="Times,serif" font-size="14.00">control</text>
</g>
<!-- n0_place_11&#45;&gt;n2_port_0 -->
<g id="edge8" class="edge">
<title>n0_place_11&#45;&gt;n2_port_0</title>
<path fill="none" stroke="black" d="M1011.33,-918C1019.65,-918 1028.28,-918 1036.91,-918"/>
<polygon fill="black" stroke="black" points="1037.02,-921.5 1047.02,-918 1037.02,-914.5 1037.02,-921.5"/>
</g>
<!-- n0_place_10 -->
<g id="node7" class="node">
<title>n0_place_10</title>
<ellipse fill="white" stroke="black" cx="946.05" cy="-382" rx="65.11" ry="37.45"/>
<text text-anchor="middle" x="946.05" y="-393.3" font-family="Times,serif" font-size="14.00">control_31</text>
<text text-anchor="middle" x="946.05" y="-378.3" font-family="Times,serif" font-size="14.00">control</text>
<text text-anchor="middle" x="946.05" y="-363.3" font-family="Times,serif" font-size="14.00">[]</text>
</g>
<!-- n3_port_0 -->
<g id="node34" class="node">
<title>n3_port_0</title>
<polygon fill="white" stroke="black" points="1207.84,-392.33 1127.51,-415.43 1047.19,-392.33 1047.27,-354.96 1207.76,-354.96 1207.84,-392.33"/>
<text text-anchor="middle" x="1127.51" y="-385.8" font-family="Times,serif" font-size="14.00">control_31</text>
<text text-anchor="middle" x="1127.51" y="-370.8" font-family="Times,serif" font-size="14.00">control</text>
</g>
<!-- n0_place_10&#45;&gt;n3_port_0 -->
<g id="edge12" class="edge">
<title>n0_place_10&#45;&gt;n3_port_0</title>
<path fill="none" stroke="black" d="M1011.33,-382C1019.65,-382 1028.28,-382 1036.91,-382"/>
<polygon fill="black" stroke="black" points="1037.02,-385.5 1047.02,-382 1037.02,-378.5 1037.02,-385.5"/>
</g>
<!-- n0_place_9 -->
<g id="node8" class="node">
<title>n0_place_9</title>
<ellipse fill="white" stroke="black" cx="583.12" cy="-1097" rx="65.11" ry="37.45"/>
<text text-anchor="middle" x="583.12" y="-1108.3" font-family="Times,serif" font-size="14.00">control_23</text>
<text text-anchor="middle" x="583.12" y="-1093.3" font-family="Times,serif" font-size="14.00">control</text>
<text text-anchor="middle" x="583.12" y="-1078.3" font-family="Times,serif" font-size="14.00">[]</text>
</g>
<!-- n4_port_0 -->
<g id="node40" class="node">
<title>n4_port_0</title>
<polygon fill="white" stroke="black" points="844.91,-1107.33 764.58,-1130.43 684.26,-1107.33 684.34,-1069.96 844.83,-1069.96 844.91,-1107.33"/>
<text text-anchor="middle" x="764.58" y="-1100.8" font-family="Times,serif" font-size="14.00">control_23</text>
<text text-anchor="middle" x="764.58" y="-1085.8" font-family="Times,serif" font-size="14.00">control</text>
</g>
<!-- n0_place_9&#45;&gt;n4_port_0 -->
<g id="edge15" class="edge">
<title>n0_place_9&#45;&gt;n4_port_0</title>
<path fill="none" stroke="black" d="M648.4,-1097C656.72,-1097 665.35,-1097 673.98,-1097"/>
<polygon fill="black" stroke="black" points="674.09,-1100.5 684.09,-1097 674.09,-1093.5 674.09,-1100.5"/>
</g>
<!-- n0_place_8 -->
<g id="node9" class="node">
<title>n0_place_8</title>
<ellipse fill="white" stroke="black" cx="583.12" cy="-729" rx="65.11" ry="37.45"/>
<text text-anchor="middle" x="583.12" y="-740.3" font-family="Times,serif" font-size="14.00">control_22</text>
<text text-anchor="middle" x="583.12" y="-725.3" font-family="Times,serif" font-size="14.00">control</text>
<text text-anchor="middle" x="583.12" y="-710.3" font-family="Times,serif" font-size="14.00">[]</text>
</g>
<!-- n5_port_0 -->
<g id="node45" class="node">
<title>n5_port_0</title>
<polygon fill="white" stroke="black" points="844.91,-739.33 764.58,-762.43 684.26,-739.33 684.34,-701.96 844.83,-701.96 844.91,-739.33"/>
<text text-anchor="middle" x="764.58" y="-732.8" font-family="Times,serif" font-size="14.00">control_22</text>
<text text-anchor="middle" x="764.58" y="-717.8" font-family="Times,serif" font-size="14.00">control</text>
</g>
<!-- n0_place_8&#45;&gt;n5_port_0 -->
<g id="edge18" class="edge">
<title>n0_place_8&#45;&gt;n5_port_0</title>
<path fill="none" stroke="black" d="M648.4,-729C656.72,-729 665.35,-729 673.98,-729"/>
<polygon fill="black" stroke="black" points="674.09,-732.5 684.09,-729 674.09,-725.5 674.09,-732.5"/>
</g>
<!-- n0_place_7 -->
<g id="node10" class="node">
<title>n0_place_7</title>
<ellipse fill="white" stroke="black" cx="946.05" cy="-835" rx="41.94" ry="26.74"/>
<text text-anchor="middle" x="946.05" y="-838.8" font-family="Times,serif" font-size="14.00">P_23</text>
<text text-anchor="middle" x="946.05" y="-823.8" font-family="Times,serif" font-size="14.00">string</text>
</g>
<!-- n2_port_2 -->
<g id="node30" class="node">
<title>n2_port_2</title>
<polygon fill="white" stroke="black" points="1179.15,-844.33 1127.51,-867.43 1075.88,-844.33 1075.93,-806.96 1179.1,-806.96 1179.15,-844.33"/>
<text text-anchor="middle" x="1127.51" y="-837.8" font-family="Times,serif" font-size="14.00">P_23</text>
<text text-anchor="middle" x="1127.51" y="-822.8" font-family="Times,serif" font-size="14.00">string</text>
</g>
<!-- n0_place_7&#45;&gt;n2_port_2 -->
<g id="edge6" class="edge">
<title>n0_place_7&#45;&gt;n2_port_2</title>
<path fill="none" stroke="black" d="M987.77,-834.77C1010.78,-834.64 1039.99,-834.48 1065.66,-834.34"/>
<polygon fill="black" stroke="black" points="1065.7,-837.84 1075.68,-834.28 1065.66,-830.84 1065.7,-837.84"/>
</g>
<!-- n0_place_6 -->
<g id="node11" class="node">
<title>n0_place_6</title>
<ellipse fill="white" stroke="black" cx="946.05" cy="-561" rx="41.94" ry="26.74"/>
<text text-anchor="middle" x="946.05" y="-564.8" font-family="Times,serif" font-size="14.00">P_22</text>
<text text-anchor="middle" x="946.05" y="-549.8" font-family="Times,serif" font-size="14.00">string</text>
</g>
<!-- n2_port_1 -->
<g id="node29" class="node">
<title>n2_port_1</title>
<polygon fill="white" stroke="black" points="1179.15,-760.33 1127.51,-783.43 1075.88,-760.33 1075.93,-722.96 1179.1,-722.96 1179.15,-760.33"/>
<text text-anchor="middle" x="1127.51" y="-753.8" font-family="Times,serif" font-size="14.00">P_22</text>
<text text-anchor="middle" x="1127.51" y="-738.8" font-family="Times,serif" font-size="14.00">string</text>
</g>
<!-- n0_place_6&#45;&gt;n2_port_1 -->
<g id="edge7" class="edge">
<title>n0_place_6&#45;&gt;n2_port_1</title>
<path fill="none" stroke="black" stroke-dasharray="5,2" d="M957.81,-586.94C972.21,-618.99 1000.5,-673.48 1039.1,-708 1047.27,-715.3 1056.93,-721.61 1066.81,-726.95"/>
<polygon fill="black" stroke="black" points="1065.39,-730.16 1075.89,-731.59 1068.57,-723.92 1065.39,-730.16"/>
</g>
<!-- n3_port_2 -->
<g id="node36" class="node">
<title>n3_port_2</title>
<polygon fill="white" stroke="black" points="1179.15,-476.33 1127.51,-499.43 1075.88,-476.33 1075.93,-438.96 1179.1,-438.96 1179.15,-476.33"/>
<text text-anchor="middle" x="1127.51" y="-469.8" font-family="Times,serif" font-size="14.00">P_22</text>
<text text-anchor="middle" x="1127.51" y="-454.8" font-family="Times,serif" font-size="14.00">string</text>
</g>
<!-- n0_place_6&#45;&gt;n3_port_2 -->
<g id="edge10" class="edge">
<title>n0_place_6&#45;&gt;n3_port_2</title>
<path fill="none" stroke="black" stroke-dasharray="5,2" d="M977.49,-543.23C995.31,-532.97 1018.32,-519.97 1039.1,-509 1052.71,-501.82 1067.69,-494.31 1081.35,-487.61"/>
<polygon fill="black" stroke="black" points="1083.1,-490.65 1090.56,-483.12 1080.03,-484.36 1083.1,-490.65"/>
</g>
<!-- n0_place_5 -->
<g id="node12" class="node">
<title>n0_place_5</title>
<ellipse fill="white" stroke="black" cx="583.12" cy="-277" rx="65.11" ry="37.45"/>
<text text-anchor="middle" x="583.12" y="-288.3" font-family="Times,serif" font-size="14.00">control_21</text>
<text text-anchor="middle" x="583.12" y="-273.3" font-family="Times,serif" font-size="14.00">control</text>
<text text-anchor="middle" x="583.12" y="-258.3" font-family="Times,serif" font-size="14.00">[]</text>
</g>
<!-- n6_port_0 -->
<g id="node50" class="node">
<title>n6_port_0</title>
<polygon fill="white" stroke="black" points="844.91,-287.33 764.58,-310.43 684.26,-287.33 684.34,-249.96 844.83,-249.96 844.91,-287.33"/>
<text text-anchor="middle" x="764.58" y="-280.8" font-family="Times,serif" font-size="14.00">control_21</text>
<text text-anchor="middle" x="764.58" y="-265.8" font-family="Times,serif" font-size="14.00">control</text>
</g>
<!-- n0_place_5&#45;&gt;n6_port_0 -->
<g id="edge21" class="edge">
<title>n0_place_5&#45;&gt;n6_port_0</title>
<path fill="none" stroke="black" d="M648.4,-277C656.72,-277 665.35,-277 673.98,-277"/>
<polygon fill="black" stroke="black" points="674.09,-280.5 684.09,-277 674.09,-273.5 674.09,-280.5"/>
</g>
<!-- n0_place_4 -->
<g id="node13" class="node">
<title>n0_place_4</title>
<ellipse fill="white" stroke="black" cx="1308.98" cy="-362" rx="41.94" ry="26.74"/>
<text text-anchor="middle" x="1308.98" y="-365.8" font-family="Times,serif" font-size="14.00">P_32</text>
<text text-anchor="middle" x="1308.98" y="-350.8" font-family="Times,serif" font-size="14.00">string</text>
</g>
<!-- n1_port_3 -->
<g id="node24" class="node">
<title>n1_port_3</title>
<polygon fill="white" stroke="black" points="1542.08,-371.33 1490.44,-394.43 1438.81,-371.33 1438.86,-333.96 1542.03,-333.96 1542.08,-371.33"/>
<text text-anchor="middle" x="1490.44" y="-364.8" font-family="Times,serif" font-size="14.00">P_32</text>
<text text-anchor="middle" x="1490.44" y="-349.8" font-family="Times,serif" font-size="14.00">string</text>
</g>
<!-- n0_place_4&#45;&gt;n1_port_3 -->
<g id="edge2" class="edge">
<title>n0_place_4&#45;&gt;n1_port_3</title>
<path fill="none" stroke="black" d="M1350.7,-361.77C1373.71,-361.64 1402.92,-361.48 1428.59,-361.34"/>
<polygon fill="black" stroke="black" points="1428.63,-364.84 1438.61,-361.28 1428.59,-357.84 1428.63,-364.84"/>
</g>
<!-- n7_port_2 -->
<g id="node57" class="node">
<title>n7_port_2</title>
<polygon fill="white" stroke="black" points="453.29,-907.33 401.65,-930.43 350.02,-907.33 350.07,-869.96 453.24,-869.96 453.29,-907.33"/>
<text text-anchor="middle" x="401.65" y="-900.8" font-family="Times,serif" font-size="14.00">input</text>
<text text-anchor="middle" x="401.65" y="-885.8" font-family="Times,serif" font-size="14.00">string</text>
</g>
<!-- n0_place_3&#45;&gt;n7_port_2 -->
<g id="edge23" class="edge">
<title>n0_place_3&#45;&gt;n7_port_2</title>
<path fill="none" stroke="black" d="M261.91,-897C284.92,-897 314.13,-897 339.8,-897"/>
<polygon fill="black" stroke="black" points="339.82,-900.5 349.82,-897 339.82,-893.5 339.82,-900.5"/>
</g>
<!-- n7_port_1 -->
<g id="node56" class="node">
<title>n7_port_1</title>
<polygon fill="white" stroke="black" points="453.29,-823.33 401.65,-846.43 350.02,-823.33 350.07,-785.96 453.24,-785.96 453.29,-823.33"/>
<text text-anchor="middle" x="401.65" y="-816.8" font-family="Times,serif" font-size="14.00">P0</text>
<text text-anchor="middle" x="401.65" y="-801.8" font-family="Times,serif" font-size="14.00">string</text>
</g>
<!-- n0_place_2&#45;&gt;n7_port_1 -->
<g id="edge24" class="edge">
<title>n0_place_2&#45;&gt;n7_port_1</title>
<path fill="none" stroke="black" d="M261.91,-813C284.92,-813 314.13,-813 339.8,-813"/>
<polygon fill="black" stroke="black" points="339.82,-816.5 349.82,-813 339.82,-809.5 339.82,-816.5"/>
</g>
<!-- n0_place_0 -->
<g id="node17" class="node">
<title>n0_place_0</title>
<ellipse fill="white" stroke="black" cx="946.05" cy="-256" rx="41.94" ry="26.74"/>
<text text-anchor="middle" x="946.05" y="-259.8" font-family="Times,serif" font-size="14.00">P_21</text>
<text text-anchor="middle" x="946.05" y="-244.8" font-family="Times,serif" font-size="14.00">string</text>
</g>
<!-- n3_port_1 -->
<g id="node35" class="node">
<title>n3_port_1</title>
<polygon fill="white" stroke="black" points="1179.15,-308.33 1127.51,-331.43 1075.88,-308.33 1075.93,-270.96 1179.1,-270.96 1179.15,-308.33"/>
<text text-anchor="middle" x="1127.51" y="-301.8" font-family="Times,serif" font-size="14.00">P_21</text>
<text text-anchor="middle" x="1127.51" y="-286.8" font-family="Times,serif" font-size="14.00">string</text>
</g>
<!-- n0_place_0&#45;&gt;n3_port_1 -->
<g id="edge11" class="edge">
<title>n0_place_0&#45;&gt;n3_port_1</title>
<path fill="none" stroke="black" d="M985.55,-265.01C1008.93,-270.48 1039.29,-277.59 1065.84,-283.8"/>
<polygon fill="black" stroke="black" points="1065.27,-287.26 1075.81,-286.13 1066.87,-280.45 1065.27,-287.26"/>
</g>
<!-- n0_place_13 -->
<g id="node18" class="node">
<title>n0_place_13</title>
<ellipse fill="white" stroke="black" cx="583.12" cy="-645" rx="41.94" ry="26.74"/>
<text text-anchor="middle" x="583.12" y="-648.8" font-family="Times,serif" font-size="14.00">P_11</text>
<text text-anchor="middle" x="583.12" y="-633.8" font-family="Times,serif" font-size="14.00">string</text>
</g>
<!-- n4_port_1 -->
<g id="node41" class="node">
<title>n4_port_1</title>
<polygon fill="white" stroke="black" points="816.22,-1023.33 764.58,-1046.43 712.95,-1023.33 713,-985.96 816.17,-985.96 816.22,-1023.33"/>
<text text-anchor="middle" x="764.58" y="-1016.8" font-family="Times,serif" font-size="14.00">P_11</text>
<text text-anchor="middle" x="764.58" y="-1001.8" font-family="Times,serif" font-size="14.00">string</text>
</g>
<!-- n0_place_13&#45;&gt;n4_port_1 -->
<g id="edge14" class="edge">
<title>n0_place_13&#45;&gt;n4_port_1</title>
<path fill="none" stroke="black" stroke-dasharray="5,2" d="M619.43,-658.34C630.4,-664.23 641.38,-672.31 648.17,-683 717.15,-791.54 602.51,-865.58 676.17,-971 683.1,-980.92 693.03,-988.58 703.73,-994.47"/>
<polygon fill="black" stroke="black" points="702.34,-997.68 712.85,-999.01 705.46,-991.42 702.34,-997.68"/>
</g>
<!-- n5_port_1 -->
<g id="node46" class="node">
<title>n5_port_1</title>
<polygon fill="white" stroke="black" points="816.22,-655.33 764.58,-678.43 712.95,-655.33 713,-617.96 816.17,-617.96 816.22,-655.33"/>
<text text-anchor="middle" x="764.58" y="-648.8" font-family="Times,serif" font-size="14.00">P_11</text>
<text text-anchor="middle" x="764.58" y="-633.8" font-family="Times,serif" font-size="14.00">string</text>
</g>
<!-- n0_place_13&#45;&gt;n5_port_1 -->
<g id="edge17" class="edge">
<title>n0_place_13&#45;&gt;n5_port_1</title>
<path fill="none" stroke="black" stroke-dasharray="5,2" d="M624.84,-645C647.85,-645 677.06,-645 702.73,-645"/>
<polygon fill="black" stroke="black" points="702.75,-648.5 712.75,-645 702.75,-641.5 702.75,-648.5"/>
</g>
<!-- n6_port_1 -->
<g id="node51" class="node">
<title>n6_port_1</title>
<polygon fill="white" stroke="black" points="816.22,-371.33 764.58,-394.43 712.95,-371.33 713,-333.96 816.17,-333.96 816.22,-371.33"/>
<text text-anchor="middle" x="764.58" y="-364.8" font-family="Times,serif" font-size="14.00">P_11</text>
<text text-anchor="middle" x="764.58" y="-349.8" font-family="Times,serif" font-size="14.00">string</text>
</g>
<!-- n0_place_13&#45;&gt;n6_port_1 -->
<g id="edge20" class="edge">
<title>n0_place_13&#45;&gt;n6_port_1</title>
<path fill="none" stroke="black" stroke-dasharray="5,2" d="M587.82,-618.13C595.78,-569.72 618.69,-467.05 676.17,-404 685.71,-393.54 698.35,-385.32 711.05,-379"/>
<polygon fill="black" stroke="black" points="712.66,-382.11 720.26,-374.73 709.72,-375.76 712.66,-382.11"/>
</g>
<!-- n0_place_14 -->
<g id="node19" class="node">
<title>n0_place_14</title>
<ellipse fill="white" stroke="black" cx="220.19" cy="-729" rx="65.11" ry="37.45"/>
<text text-anchor="middle" x="220.19" y="-740.3" font-family="Times,serif" font-size="14.00">control_11</text>
<text text-anchor="middle" x="220.19" y="-725.3" font-family="Times,serif" font-size="14.00">control</text>
<text text-anchor="middle" x="220.19" y="-710.3" font-family="Times,serif" font-size="14.00">[]</text>
</g>
<!-- n7_port_0 -->
<g id="node55" class="node">
<title>n7_port_0</title>
<polygon fill="white" stroke="black" points="481.98,-739.33 401.65,-762.43 321.33,-739.33 321.41,-701.96 481.9,-701.96 481.98,-739.33"/>
<text text-anchor="middle" x="401.65" y="-732.8" font-family="Times,serif" font-size="14.00">control_11</text>
<text text-anchor="middle" x="401.65" y="-717.8" font-family="Times,serif" font-size="14.00">control</text>
</g>
<!-- n0_place_14&#45;&gt;n7_port_0 -->
<g id="edge25" class="edge">
<title>n0_place_14&#45;&gt;n7_port_0</title>
<path fill="none" stroke="black" d="M285.47,-729C293.79,-729 302.42,-729 311.05,-729"/>
<polygon fill="black" stroke="black" points="311.16,-732.5 321.16,-729 311.16,-725.5 311.16,-732.5"/>
</g>
<!-- n0_place_15 -->
<g id="node20" class="node">
<title>n0_place_15</title>
<ellipse fill="white" stroke="black" cx="1308.98" cy="-235" rx="41.94" ry="26.74"/>
<text text-anchor="middle" x="1308.98" y="-238.8" font-family="Times,serif" font-size="14.00">P_31</text>
<text text-anchor="middle" x="1308.98" y="-223.8" font-family="Times,serif" font-size="14.00">string</text>
</g>
<!-- n1_port_2 -->
<g id="node23" class="node">
<title>n1_port_2</title>
<polygon fill="white" stroke="black" points="1542.08,-287.33 1490.44,-310.43 1438.81,-287.33 1438.86,-249.96 1542.03,-249.96 1542.08,-287.33"/>
<text text-anchor="middle" x="1490.44" y="-280.8" font-family="Times,serif" font-size="14.00">P_31</text>
<text text-anchor="middle" x="1490.44" y="-265.8" font-family="Times,serif" font-size="14.00">string</text>
</g>
<!-- n0_place_15&#45;&gt;n1_port_2 -->
<g id="edge3" class="edge">
<title>n0_place_15&#45;&gt;n1_port_2</title>
<path fill="none" stroke="black" d="M1348.48,-244.01C1371.86,-249.48 1402.22,-256.59 1428.77,-262.8"/>
<polygon fill="black" stroke="black" points="1428.2,-266.26 1438.74,-265.13 1429.8,-259.45 1428.2,-266.26"/>
</g>
<!-- n1_condition -->
<g id="node21" class="node">
<title>n1_condition</title>
<polygon fill="white" stroke="black" points="1463.44,-497 1463.44,-533 1517.44,-533 1517.44,-497 1463.44,-497"/>
<text text-anchor="middle" x="1490.44" y="-511.3" font-family="Times,serif" font-size="14.00">T_41</text>
</g>
<!-- n1_port_1 -->
<g id="node25" class="node">
<title>n1_port_1</title>
<polygon fill="white" stroke="black" points="1438.81,-182.67 1490.44,-159.57 1542.08,-182.67 1542.03,-220.04 1438.86,-220.04 1438.81,-182.67"/>
<text text-anchor="middle" x="1490.44" y="-196.8" font-family="Times,serif" font-size="14.00">P_41</text>
<text text-anchor="middle" x="1490.44" y="-181.8" font-family="Times,serif" font-size="14.00">string</text>
</g>
<!-- n1_port_1&#45;&gt;n0_place_1 -->
<g id="edge1" class="edge">
<title>n1_port_1&#45;&gt;n0_place_1</title>
<path fill="none" stroke="black" d="M1541.27,-182.15C1559.72,-178.13 1580.6,-173.58 1598.94,-169.59"/>
<polygon fill="black" stroke="black" points="1599.81,-172.98 1608.84,-167.44 1598.32,-166.14 1599.81,-172.98"/>
</g>
<!-- n1_modcall -->
<g id="node26" class="node">
<title>n1_modcall</title>
<polygon fill="white" stroke="black" points="1554.44,-142 1426.44,-142 1426.44,-106 1554.44,-106 1554.44,-142"/>
<text text-anchor="middle" x="1490.44" y="-120.3" font-family="Times,serif" font-size="14.00">feynman.f_T_41</text>
</g>
<!-- n2_condition -->
<g id="node27" class="node">
<title>n2_condition</title>
<polygon fill="white" stroke="black" points="1100.51,-970 1100.51,-1006 1154.51,-1006 1154.51,-970 1100.51,-970"/>
<text text-anchor="middle" x="1127.51" y="-984.3" font-family="Times,serif" font-size="14.00">T_32</text>
</g>
<!-- n2_port_3 -->
<g id="node31" class="node">
<title>n2_port_3</title>
<polygon fill="white" stroke="black" points="1075.88,-655.67 1127.51,-632.57 1179.15,-655.67 1179.1,-693.04 1075.93,-693.04 1075.88,-655.67"/>
<text text-anchor="middle" x="1127.51" y="-669.8" font-family="Times,serif" font-size="14.00">P_32</text>
<text text-anchor="middle" x="1127.51" y="-654.8" font-family="Times,serif" font-size="14.00">string</text>
</g>
<!-- n2_port_3&#45;&gt;n0_place_4 -->
<g id="edge5" class="edge">
<title>n2_port_3&#45;&gt;n0_place_4</title>
<path fill="none" stroke="black" d="M1174.93,-653.64C1190.3,-647.26 1206,-637.81 1215.92,-624 1274.75,-542.18 1188.25,-482.99 1243.92,-399 1248.87,-391.54 1255.87,-385.4 1263.45,-380.41"/>
<polygon fill="black" stroke="black" points="1265.67,-383.16 1272.51,-375.07 1262.12,-377.13 1265.67,-383.16"/>
</g>
<!-- n2_modcall -->
<g id="node32" class="node">
<title>n2_modcall</title>
<polygon fill="white" stroke="black" points="1191.51,-615 1063.51,-615 1063.51,-579 1191.51,-579 1191.51,-615"/>
<text text-anchor="middle" x="1127.51" y="-593.3" font-family="Times,serif" font-size="14.00">feynman.f_T_32</text>
</g>
<!-- n3_condition -->
<g id="node33" class="node">
<title>n3_condition</title>
<polygon fill="white" stroke="black" points="1100.51,-518 1100.51,-554 1154.51,-554 1154.51,-518 1100.51,-518"/>
<text text-anchor="middle" x="1127.51" y="-532.3" font-family="Times,serif" font-size="14.00">T_31</text>
</g>
<!-- n3_port_3 -->
<g id="node37" class="node">
<title>n3_port_3</title>
<polygon fill="white" stroke="black" points="1075.88,-203.67 1127.51,-180.57 1179.15,-203.67 1179.1,-241.04 1075.93,-241.04 1075.88,-203.67"/>
<text text-anchor="middle" x="1127.51" y="-217.8" font-family="Times,serif" font-size="14.00">P_31</text>
<text text-anchor="middle" x="1127.51" y="-202.8" font-family="Times,serif" font-size="14.00">string</text>
</g>
<!-- n3_port_3&#45;&gt;n0_place_15 -->
<g id="edge9" class="edge">
<title>n3_port_3&#45;&gt;n0_place_15</title>
<path fill="none" stroke="black" d="M1179.46,-219.96C1203.94,-222.83 1233.19,-226.25 1257.6,-229.11"/>
<polygon fill="black" stroke="black" points="1257.4,-232.61 1267.74,-230.29 1258.21,-225.65 1257.4,-232.61"/>
</g>
<!-- n3_modcall -->
<g id="node38" class="node">
<title>n3_modcall</title>
<polygon fill="white" stroke="black" points="1191.51,-163 1063.51,-163 1063.51,-127 1191.51,-127 1191.51,-163"/>
<text text-anchor="middle" x="1127.51" y="-141.3" font-family="Times,serif" font-size="14.00">feynman.f_T_31</text>
</g>
<!-- n4_condition -->
<g id="node39" class="node">
<title>n4_condition</title>
<polygon fill="white" stroke="black" points="737.58,-1149 737.58,-1185 791.58,-1185 791.58,-1149 737.58,-1149"/>
<text text-anchor="middle" x="764.58" y="-1163.3" font-family="Times,serif" font-size="14.00">T_23</text>
</g>
<!-- n4_port_2 -->
<g id="node42" class="node">
<title>n4_port_2</title>
<polygon fill="white" stroke="black" points="712.95,-918.67 764.58,-895.57 816.22,-918.67 816.17,-956.04 713,-956.04 712.95,-918.67"/>
<text text-anchor="middle" x="764.58" y="-932.8" font-family="Times,serif" font-size="14.00">P_23</text>
<text text-anchor="middle" x="764.58" y="-917.8" font-family="Times,serif" font-size="14.00">string</text>
</g>
<!-- n4_port_2&#45;&gt;n0_place_7 -->
<g id="edge13" class="edge">
<title>n4_port_2&#45;&gt;n0_place_7</title>
<path fill="none" stroke="black" d="M802,-912.16C817.79,-904.69 836.43,-895.65 852.99,-887 870.57,-877.83 889.7,-867.14 905.94,-857.85"/>
<polygon fill="black" stroke="black" points="907.72,-860.86 914.64,-852.85 904.23,-854.8 907.72,-860.86"/>
</g>
<!-- n4_modcall -->
<g id="node43" class="node">
<title>n4_modcall</title>
<polygon fill="white" stroke="black" points="828.58,-878 700.58,-878 700.58,-842 828.58,-842 828.58,-878"/>
<text text-anchor="middle" x="764.58" y="-856.3" font-family="Times,serif" font-size="14.00">feynman.f_T_23</text>
</g>
<!-- n5_condition -->
<g id="node44" class="node">
<title>n5_condition</title>
<polygon fill="white" stroke="black" points="737.58,-781 737.58,-817 791.58,-817 791.58,-781 737.58,-781"/>
<text text-anchor="middle" x="764.58" y="-795.3" font-family="Times,serif" font-size="14.00">T_22</text>
</g>
<!-- n5_port_2 -->
<g id="node47" class="node">
<title>n5_port_2</title>
<polygon fill="white" stroke="black" points="712.95,-550.67 764.58,-527.57 816.22,-550.67 816.17,-588.04 713,-588.04 712.95,-550.67"/>
<text text-anchor="middle" x="764.58" y="-564.8" font-family="Times,serif" font-size="14.00">P_22</text>
<text text-anchor="middle" x="764.58" y="-549.8" font-family="Times,serif" font-size="14.00">string</text>
</g>
<!-- n5_port_2&#45;&gt;n0_place_6 -->
<g id="edge16" class="edge">
<title>n5_port_2&#45;&gt;n0_place_6</title>
<path fill="none" stroke="black" d="M816.53,-561C840.83,-561 869.83,-561 894.13,-561"/>
<polygon fill="black" stroke="black" points="894.23,-564.5 904.23,-561 894.23,-557.5 894.23,-564.5"/>
</g>
<!-- n5_modcall -->
<g id="node48" class="node">
<title>n5_modcall</title>
<polygon fill="white" stroke="black" points="828.58,-510 700.58,-510 700.58,-474 828.58,-474 828.58,-510"/>
<text text-anchor="middle" x="764.58" y="-488.3" font-family="Times,serif" font-size="14.00">feynman.f_T_22</text>
</g>
<!-- n6_condition -->
<g id="node49" class="node">
<title>n6_condition</title>
<polygon fill="white" stroke="black" points="737.58,-413 737.58,-449 791.58,-449 791.58,-413 737.58,-413"/>
<text text-anchor="middle" x="764.58" y="-427.3" font-family="Times,serif" font-size="14.00">T_21</text>
</g>
<!-- n6_port_2 -->
<g id="node52" class="node">
<title>n6_port_2</title>
<polygon fill="white" stroke="black" points="712.95,-182.67 764.58,-159.57 816.22,-182.67 816.17,-220.04 713,-220.04 712.95,-182.67"/>
<text text-anchor="middle" x="764.58" y="-196.8" font-family="Times,serif" font-size="14.00">P_21</text>
<text text-anchor="middle" x="764.58" y="-181.8" font-family="Times,serif" font-size="14.00">string</text>
</g>
<!-- n6_port_2&#45;&gt;n0_place_0 -->
<g id="edge19" class="edge">
<title>n6_port_2&#45;&gt;n0_place_0</title>
<path fill="none" stroke="black" d="M816.53,-210.88C842.6,-220.04 874.09,-231.09 899.37,-239.96"/>
<polygon fill="black" stroke="black" points="898.48,-243.36 909.08,-243.37 900.8,-236.76 898.48,-243.36"/>
</g>
<!-- n6_modcall -->
<g id="node53" class="node">
<title>n6_modcall</title>
<polygon fill="white" stroke="black" points="828.58,-142 700.58,-142 700.58,-106 828.58,-106 828.58,-142"/>
<text text-anchor="middle" x="764.58" y="-120.3" font-family="Times,serif" font-size="14.00">feynman.f_T_21</text>
</g>
<!-- n7_condition -->
<g id="node54" class="node">
<title>n7_condition</title>
<polygon fill="white" stroke="black" points="374.65,-949 374.65,-985 428.65,-985 428.65,-949 374.65,-949"/>
<text text-anchor="middle" x="401.65" y="-963.3" font-family="Times,serif" font-size="14.00">T_11</text>
</g>
<!-- n7_port_3 -->
<g id="node58" class="node">
<title>n7_port_3</title>
<polygon fill="white" stroke="black" points="350.02,-634.67 401.65,-611.57 453.29,-634.67 453.24,-672.04 350.07,-672.04 350.02,-634.67"/>
<text text-anchor="middle" x="401.65" y="-648.8" font-family="Times,serif" font-size="14.00">P_11</text>
<text text-anchor="middle" x="401.65" y="-633.8" font-family="Times,serif" font-size="14.00">string</text>
</g>
<!-- n7_port_3&#45;&gt;n0_place_13 -->
<g id="edge22" class="edge">
<title>n7_port_3&#45;&gt;n0_place_13</title>
<path fill="none" stroke="black" d="M453.6,-645C477.9,-645 506.9,-645 531.2,-645"/>
<polygon fill="black" stroke="black" points="531.3,-648.5 541.3,-645 531.3,-641.5 531.3,-648.5"/>
</g>
<!-- n7_modcall -->
<g id="node59" class="node">
<title>n7_modcall</title>
<polygon fill="white" stroke="black" points="465.65,-594 337.65,-594 337.65,-558 465.65,-558 465.65,-594"/>
<text text-anchor="middle" x="401.65" y="-572.3" font-family="Times,serif" font-size="14.00">feynman.f_T_11</text>
</g>
</g>
</svg>
