<?xml version="1.0" encoding="UTF-8" standalone="no"?>
<!DOCTYPE svg PUBLIC "-//W3C//DTD SVG 1.1//EN"
 "http://www.w3.org/Graphics/SVG/1.1/DTD/svg11.dtd">
<!-- Generated by graphviz version 2.43.0 (0)
 -->
<!-- Title: feynman Pages: 1 -->
<svg width="1955pt" height="964pt"
 viewBox="0.00 0.00 1955.42 964.00" xmlns="http://www.w3.org/2000/svg" xmlns:xlink="http://www.w3.org/1999/xlink">
<g id="graph0" class="graph" transform="scale(1 1) rotate(0) translate(4 960)">
<title>feynman</title>
<polygon fill="white" stroke="transparent" points="-4,4 -4,-960 1951.42,-960 1951.42,4 -4,4"/>
<g id="clust1" class="cluster">
<title>cluster_0</title>
<polygon fill="dimgray" stroke="black" points="8,-8 8,-948 1939.42,-948 1939.42,-8 8,-8"/>
</g>
<g id="clust2" class="cluster">
<title>cluster_net_0</title>
<polygon fill="white" stroke="black" points="159.37,-16 159.37,-940 1931.42,-940 1931.42,-16 159.37,-16"/>
</g>
<g id="clust3" class="cluster">
<title>cluster_1</title>
<polygon fill="yellow" stroke="black" points="1830.42,-560 1830.42,-920 1923.42,-920 1923.42,-560 1830.42,-560"/>
</g>
<g id="clust4" class="cluster">
<title>cluster_2</title>
<polygon fill="yellow" stroke="black" points="1540.89,-24 1540.89,-468 1674.01,-468 1674.01,-24 1540.89,-24"/>
</g>
<g id="clust5" class="cluster">
<title>cluster_3</title>
<polygon fill="yellow" stroke="black" points="1088.51,-501 1088.51,-861 1367.51,-861 1367.51,-501 1088.51,-501"/>
</g>
<g id="clust6" class="cluster">
<title>cluster_4</title>
<polygon fill="yellow" stroke="black" points="653.92,-563 653.92,-839 893.92,-839 893.92,-563 653.92,-563"/>
</g>
<g id="clust7" class="cluster">
<title>cluster_5</title>
<polygon fill="yellow" stroke="black" points="1540.89,-476 1540.89,-920 1674.01,-920 1674.01,-476 1540.89,-476"/>
</g>
<g id="clust8" class="cluster">
<title>cluster_6</title>
<polygon fill="yellow" stroke="black" points="288.71,-572 288.71,-932 477.71,-932 477.71,-572 288.71,-572"/>
</g>
<!-- n0_condition -->
<g id="node1" class="node">
<title>n0_condition</title>
<polygon fill="white" stroke="black" points="34.69,-895 34.69,-931 112.69,-931 112.69,-895 34.69,-895"/>
<text text-anchor="middle" x="73.69" y="-909.3" font-family="Times,serif" font-size="14.00">feynman</text>
</g>
<!-- n0_port_0 -->
<g id="node2" class="node">
<title>n0_port_0</title>
<polygon fill="white" stroke="black" points="131.56,-845.33 73.69,-868.43 15.81,-845.33 15.87,-807.96 131.5,-807.96 131.56,-845.33"/>
<text text-anchor="middle" x="73.69" y="-838.8" font-family="Times,serif" font-size="14.00">degree</text>
<text text-anchor="middle" x="73.69" y="-823.8" font-family="Times,serif" font-size="14.00">int</text>
</g>
<!-- n0_place_0 -->
<g id="node4" class="node">
<title>n0_place_0</title>
<ellipse fill="white" stroke="black" cx="214.04" cy="-835" rx="46.84" ry="26.74"/>
<text text-anchor="middle" x="214.04" y="-838.8" font-family="Times,serif" font-size="14.00">degree</text>
<text text-anchor="middle" x="214.04" y="-823.8" font-family="Times,serif" font-size="14.00">int</text>
</g>
<!-- n0_port_0&#45;&gt;n0_place_0 -->
<g id="edge20" class="edge">
<title>n0_port_0&#45;&gt;n0_place_0</title>
<path fill="none" stroke="black" stroke-dasharray="1,5" d="M131.76,-835C143.52,-835 155.76,-835 167.07,-835"/>
</g>
<!-- n0_port_1 -->
<g id="node3" class="node">
<title>n0_port_1</title>
<polygon fill="white" stroke="black" points="118.34,-761.33 73.69,-784.43 29.03,-761.33 29.08,-723.96 118.3,-723.96 118.34,-761.33"/>
<text text-anchor="middle" x="73.69" y="-754.8" font-family="Times,serif" font-size="14.00">edge</text>
<text text-anchor="middle" x="73.69" y="-739.8" font-family="Times,serif" font-size="14.00">int</text>
</g>
<!-- n0_place_2 -->
<g id="node6" class="node">
<title>n0_place_2</title>
<ellipse fill="white" stroke="black" cx="214.04" cy="-751" rx="36.12" ry="26.74"/>
<text text-anchor="middle" x="214.04" y="-754.8" font-family="Times,serif" font-size="14.00">edge</text>
<text text-anchor="middle" x="214.04" y="-739.8" font-family="Times,serif" font-size="14.00">int</text>
</g>
<!-- n0_port_1&#45;&gt;n0_place_2 -->
<g id="edge21" class="edge">
<title>n0_port_1&#45;&gt;n0_place_2</title>
<path fill="none" stroke="black" stroke-dasharray="1,5" d="M118.46,-751C137.62,-751 159.8,-751 177.86,-751"/>
</g>
<!-- n6_port_0 -->
<g id="node41" class="node">
<title>n6_port_0</title>
<polygon fill="white" stroke="black" points="414.64,-845.33 383.21,-868.43 351.78,-845.33 351.81,-807.96 414.61,-807.96 414.64,-845.33"/>
<text text-anchor="middle" x="383.21" y="-838.8" font-family="Times,serif" font-size="14.00">d</text>
<text text-anchor="middle" x="383.21" y="-823.8" font-family="Times,serif" font-size="14.00">int</text>
</g>
<!-- n0_place_0&#45;&gt;n6_port_0 -->
<g id="edge18" class="edge">
<title>n0_place_0&#45;&gt;n6_port_0</title>
<path fill="none" stroke="black" d="M260.72,-835C286.01,-835 317.18,-835 341.61,-835"/>
<polygon fill="black" stroke="black" points="341.63,-838.5 351.63,-835 341.63,-831.5 341.63,-838.5"/>
</g>
<!-- n0_place_1 -->
<g id="node5" class="node">
<title>n0_place_1</title>
<ellipse fill="white" stroke="black" cx="991.21" cy="-758" rx="69.09" ry="26.74"/>
<text text-anchor="middle" x="991.21" y="-761.8" font-family="Times,serif" font-size="14.00">branchtype</text>
<text text-anchor="middle" x="991.21" y="-746.8" font-family="Times,serif" font-size="14.00">string</text>
</g>
<!-- n3_port_0 -->
<g id="node26" class="node">
<title>n3_port_0</title>
<polygon fill="white" stroke="black" points="1279.65,-774.33 1228.01,-797.43 1176.38,-774.33 1176.42,-736.96 1279.6,-736.96 1279.65,-774.33"/>
<text text-anchor="middle" x="1228.01" y="-767.8" font-family="Times,serif" font-size="14.00">a</text>
<text text-anchor="middle" x="1228.01" y="-752.8" font-family="Times,serif" font-size="14.00">string</text>
</g>
<!-- n0_place_1&#45;&gt;n3_port_0 -->
<g id="edge9" class="edge">
<title>n0_place_1&#45;&gt;n3_port_0</title>
<path fill="none" stroke="black" d="M1060.44,-759.74C1093.8,-760.6 1133.61,-761.61 1165.95,-762.44"/>
<polygon fill="black" stroke="black" points="1166.09,-765.94 1176.17,-762.7 1166.27,-758.95 1166.09,-765.94"/>
</g>
<!-- n6_port_1 -->
<g id="node42" class="node">
<title>n6_port_1</title>
<polygon fill="white" stroke="black" points="414.64,-761.33 383.21,-784.43 351.78,-761.33 351.81,-723.96 414.61,-723.96 414.64,-761.33"/>
<text text-anchor="middle" x="383.21" y="-754.8" font-family="Times,serif" font-size="14.00">n</text>
<text text-anchor="middle" x="383.21" y="-739.8" font-family="Times,serif" font-size="14.00">int</text>
</g>
<!-- n0_place_2&#45;&gt;n6_port_1 -->
<g id="edge19" class="edge">
<title>n0_place_2&#45;&gt;n6_port_1</title>
<path fill="none" stroke="black" d="M250.49,-751C277.09,-751 313.56,-751 341.38,-751"/>
<polygon fill="black" stroke="black" points="341.58,-754.5 351.58,-751 341.58,-747.5 341.58,-754.5"/>
</g>
<!-- n0_place_3 -->
<g id="node7" class="node">
<title>n0_place_3</title>
<ellipse fill="white" stroke="black" cx="1752.22" cy="-125" rx="27" ry="26.74"/>
<text text-anchor="middle" x="1752.22" y="-128.8" font-family="Times,serif" font-size="14.00">R</text>
<text text-anchor="middle" x="1752.22" y="-113.8" font-family="Times,serif" font-size="14.00">int</text>
</g>
<!-- n1_port_2 -->
<g id="node16" class="node">
<title>n1_port_2</title>
<polygon fill="white" stroke="black" points="1908.35,-665.33 1876.92,-688.43 1845.49,-665.33 1845.52,-627.96 1908.32,-627.96 1908.35,-665.33"/>
<text text-anchor="middle" x="1876.92" y="-658.8" font-family="Times,serif" font-size="14.00">r</text>
<text text-anchor="middle" x="1876.92" y="-643.8" font-family="Times,serif" font-size="14.00">int</text>
</g>
<!-- n0_place_3&#45;&gt;n1_port_2 -->
<g id="edge2" class="edge">
<title>n0_place_3&#45;&gt;n1_port_2</title>
<path fill="none" stroke="black" d="M1758.51,-151.17C1768.1,-199.03 1788.59,-303.95 1802.42,-393 1817.55,-490.4 1785.26,-525.39 1830.42,-613 1832.53,-617.09 1835.2,-620.98 1838.19,-624.63"/>
<polygon fill="black" stroke="black" points="1835.82,-627.22 1845.16,-632.22 1840.97,-622.49 1835.82,-627.22"/>
</g>
<!-- n0_place_4 -->
<g id="node8" class="node">
<title>n0_place_4</title>
<ellipse fill="white" stroke="black" cx="565.81" cy="-692" rx="60.21" ry="26.74"/>
<text text-anchor="middle" x="565.81" y="-695.8" font-family="Times,serif" font-size="14.00">d_vectors</text>
<text text-anchor="middle" x="565.81" y="-680.8" font-family="Times,serif" font-size="14.00">string</text>
</g>
<!-- n4_port_0 -->
<g id="node31" class="node">
<title>n4_port_0</title>
<polygon fill="white" stroke="black" points="825.55,-752.33 773.92,-775.43 722.28,-752.33 722.33,-714.96 825.51,-714.96 825.55,-752.33"/>
<text text-anchor="middle" x="773.92" y="-745.8" font-family="Times,serif" font-size="14.00">v</text>
<text text-anchor="middle" x="773.92" y="-730.8" font-family="Times,serif" font-size="14.00">string</text>
</g>
<!-- n0_place_4&#45;&gt;n4_port_0 -->
<g id="edge12" class="edge">
<title>n0_place_4&#45;&gt;n4_port_0</title>
<path fill="none" stroke="black" d="M619.09,-704.68C647.48,-711.57 682.73,-720.12 712.32,-727.3"/>
<polygon fill="black" stroke="black" points="711.58,-730.72 722.12,-729.68 713.23,-723.92 711.58,-730.72"/>
</g>
<!-- n0_place_5 -->
<g id="node9" class="node">
<title>n0_place_5</title>
<ellipse fill="white" stroke="black" cx="991.21" cy="-680" rx="41.94" ry="26.74"/>
<text text-anchor="middle" x="991.21" y="-683.8" font-family="Times,serif" font-size="14.00">graph</text>
<text text-anchor="middle" x="991.21" y="-668.8" font-family="Times,serif" font-size="14.00">string</text>
</g>
<!-- n3_port_1 -->
<g id="node27" class="node">
<title>n3_port_1</title>
<polygon fill="white" stroke="black" points="1279.65,-690.33 1228.01,-713.43 1176.38,-690.33 1176.42,-652.96 1279.6,-652.96 1279.65,-690.33"/>
<text text-anchor="middle" x="1228.01" y="-683.8" font-family="Times,serif" font-size="14.00">G</text>
<text text-anchor="middle" x="1228.01" y="-668.8" font-family="Times,serif" font-size="14.00">string</text>
</g>
<!-- n0_place_5&#45;&gt;n3_port_1 -->
<g id="edge10" class="edge">
<title>n0_place_5&#45;&gt;n3_port_1</title>
<path fill="none" stroke="black" d="M1033.11,-680C1069.89,-680 1124.41,-680 1166.28,-680"/>
<polygon fill="black" stroke="black" points="1166.36,-683.5 1176.36,-680 1166.36,-676.5 1166.36,-683.5"/>
</g>
<!-- n0_place_6 -->
<g id="node10" class="node">
<title>n0_place_6</title>
<ellipse fill="white" stroke="black" cx="1752.22" cy="-429" rx="50.41" ry="26.74"/>
<text text-anchor="middle" x="1752.22" y="-432.8" font-family="Times,serif" font-size="14.00">left_init</text>
<text text-anchor="middle" x="1752.22" y="-417.8" font-family="Times,serif" font-size="14.00">control</text>
</g>
<!-- n5_port_1 -->
<g id="node36" class="node">
<title>n5_port_1</title>
<polygon fill="white" stroke="black" points="1666.07,-665.33 1607.45,-688.43 1548.83,-665.33 1548.89,-627.96 1666.02,-627.96 1666.07,-665.33"/>
<text text-anchor="middle" x="1607.45" y="-658.8" font-family="Times,serif" font-size="14.00">s</text>
<text text-anchor="middle" x="1607.45" y="-643.8" font-family="Times,serif" font-size="14.00">control</text>
</g>
<!-- n0_place_6&#45;&gt;n5_port_1 -->
<g id="edge16" class="edge">
<title>n0_place_6&#45;&gt;n5_port_1</title>
<path fill="none" stroke="black" d="M1745.37,-455.72C1735.89,-494.09 1714.03,-565.41 1674.01,-613 1671.61,-615.86 1668.96,-618.59 1666.15,-621.19"/>
<polygon fill="black" stroke="black" points="1663.76,-618.62 1658.38,-627.74 1668.28,-623.97 1663.76,-618.62"/>
</g>
<!-- n0_place_7 -->
<g id="node11" class="node">
<title>n0_place_7</title>
<ellipse fill="white" stroke="black" cx="1454.2" cy="-797" rx="27" ry="26.74"/>
<text text-anchor="middle" x="1454.2" y="-800.8" font-family="Times,serif" font-size="14.00">fey</text>
<text text-anchor="middle" x="1454.2" y="-785.8" font-family="Times,serif" font-size="14.00">int</text>
</g>
<!-- n2_port_0 -->
<g id="node20" class="node">
<title>n2_port_0</title>
<polygon fill="white" stroke="black" points="1638.88,-381.33 1607.45,-404.43 1576.02,-381.33 1576.05,-343.96 1638.85,-343.96 1638.88,-381.33"/>
<text text-anchor="middle" x="1607.45" y="-374.8" font-family="Times,serif" font-size="14.00">a</text>
<text text-anchor="middle" x="1607.45" y="-359.8" font-family="Times,serif" font-size="14.00">int</text>
</g>
<!-- n0_place_7&#45;&gt;n2_port_0 -->
<g id="edge7" class="edge">
<title>n0_place_7&#45;&gt;n2_port_0</title>
<path fill="none" stroke="black" d="M1458.53,-770.32C1468.53,-693.39 1500.14,-472.91 1540.89,-414 1548.15,-403.51 1558.89,-394.93 1569.58,-388.28"/>
<polygon fill="black" stroke="black" points="1571.56,-391.17 1578.47,-383.14 1568.06,-385.11 1571.56,-391.17"/>
</g>
<!-- n5_port_0 -->
<g id="node35" class="node">
<title>n5_port_0</title>
<polygon fill="white" stroke="black" points="1638.88,-833.33 1607.45,-856.43 1576.02,-833.33 1576.05,-795.96 1638.85,-795.96 1638.88,-833.33"/>
<text text-anchor="middle" x="1607.45" y="-826.8" font-family="Times,serif" font-size="14.00">a</text>
<text text-anchor="middle" x="1607.45" y="-811.8" font-family="Times,serif" font-size="14.00">int</text>
</g>
<!-- n0_place_7&#45;&gt;n5_port_0 -->
<g id="edge15" class="edge">
<title>n0_place_7&#45;&gt;n5_port_0</title>
<path fill="none" stroke="black" d="M1480.86,-801.41C1504.18,-805.42 1538.96,-811.4 1566.02,-816.05"/>
<polygon fill="black" stroke="black" points="1565.52,-819.52 1575.97,-817.76 1566.71,-812.62 1565.52,-819.52"/>
</g>
<!-- n0_place_8 -->
<g id="node12" class="node">
<title>n0_place_8</title>
<ellipse fill="white" stroke="black" cx="1454.2" cy="-429" rx="58.88" ry="37.45"/>
<text text-anchor="middle" x="1454.2" y="-440.3" font-family="Times,serif" font-size="14.00">right_init</text>
<text text-anchor="middle" x="1454.2" y="-425.3" font-family="Times,serif" font-size="14.00">control</text>
<text text-anchor="middle" x="1454.2" y="-410.3" font-family="Times,serif" font-size="14.00">[]</text>
</g>
<!-- n2_port_1 -->
<g id="node21" class="node">
<title>n2_port_1</title>
<polygon fill="white" stroke="black" points="1666.07,-297.33 1607.45,-320.43 1548.83,-297.33 1548.89,-259.96 1666.02,-259.96 1666.07,-297.33"/>
<text text-anchor="middle" x="1607.45" y="-290.8" font-family="Times,serif" font-size="14.00">s</text>
<text text-anchor="middle" x="1607.45" y="-275.8" font-family="Times,serif" font-size="14.00">control</text>
</g>
<!-- n0_place_8&#45;&gt;n2_port_1 -->
<g id="edge6" class="edge">
<title>n0_place_8&#45;&gt;n2_port_1</title>
<path fill="none" stroke="black" d="M1480.01,-395.29C1496.05,-374.78 1518.12,-348.81 1540.89,-329 1547.63,-323.13 1555.27,-317.49 1562.88,-312.36"/>
<polygon fill="black" stroke="black" points="1565.29,-314.97 1571.76,-306.58 1561.47,-309.1 1565.29,-314.97"/>
</g>
<!-- n0_place_9 -->
<g id="node13" class="node">
<title>n0_place_9</title>
<ellipse fill="white" stroke="black" cx="1752.22" cy="-739" rx="27" ry="26.74"/>
<text text-anchor="middle" x="1752.22" y="-742.8" font-family="Times,serif" font-size="14.00">L</text>
<text text-anchor="middle" x="1752.22" y="-727.8" font-family="Times,serif" font-size="14.00">int</text>
</g>
<!-- n1_port_1 -->
<g id="node15" class="node">
<title>n1_port_1</title>
<polygon fill="white" stroke="black" points="1908.35,-749.33 1876.92,-772.43 1845.49,-749.33 1845.52,-711.96 1908.32,-711.96 1908.35,-749.33"/>
<text text-anchor="middle" x="1876.92" y="-742.8" font-family="Times,serif" font-size="14.00">l</text>
<text text-anchor="middle" x="1876.92" y="-727.8" font-family="Times,serif" font-size="14.00">int</text>
</g>
<!-- n0_place_9&#45;&gt;n1_port_1 -->
<g id="edge3" class="edge">
<title>n0_place_9&#45;&gt;n1_port_1</title>
<path fill="none" stroke="black" d="M1779.24,-739C1795.43,-739 1816.59,-739 1834.99,-739"/>
<polygon fill="black" stroke="black" points="1835.16,-742.5 1845.16,-739 1835.16,-735.5 1835.16,-742.5"/>
</g>
<!-- n1_condition -->
<g id="node14" class="node">
<title>n1_condition</title>
<polygon fill="white" stroke="black" points="1842.42,-875 1842.42,-911 1911.42,-911 1911.42,-875 1842.42,-875"/>
<text text-anchor="middle" x="1876.92" y="-889.3" font-family="Times,serif" font-size="14.00">Reduce</text>
</g>
<!-- n1_port_0 -->
<g id="node17" class="node">
<title>n1_port_0</title>
<polygon fill="white" stroke="black" points="1845.49,-812.67 1876.92,-789.57 1908.35,-812.67 1908.32,-850.04 1845.52,-850.04 1845.49,-812.67"/>
<text text-anchor="middle" x="1876.92" y="-826.8" font-family="Times,serif" font-size="14.00">s</text>
<text text-anchor="middle" x="1876.92" y="-811.8" font-family="Times,serif" font-size="14.00">int</text>
</g>
<!-- n1_port_0&#45;&gt;n0_place_7 -->
<g id="edge1" class="edge">
<title>n1_port_0&#45;&gt;n0_place_7</title>
<path fill="none" stroke="black" d="M1845.27,-847.29C1784.41,-892.35 1645.22,-979.46 1540.89,-924 1504.55,-904.68 1480.83,-862.31 1467.75,-831.82"/>
<polygon fill="black" stroke="black" points="1470.92,-830.3 1463.88,-822.38 1464.44,-832.96 1470.92,-830.3"/>
</g>
<!-- n1_modcall -->
<g id="node18" class="node">
<title>n1_modcall</title>
<polygon fill="white" stroke="black" points="1915.42,-604 1838.42,-604 1838.42,-568 1915.42,-568 1915.42,-604"/>
<text text-anchor="middle" x="1876.92" y="-582.3" font-family="Times,serif" font-size="14.00">sum.add</text>
</g>
<!-- n2_condition -->
<g id="node19" class="node">
<title>n2_condition</title>
<polygon fill="white" stroke="black" points="1580.45,-423 1580.45,-459 1634.45,-459 1634.45,-423 1580.45,-423"/>
<text text-anchor="middle" x="1607.45" y="-437.3" font-family="Times,serif" font-size="14.00">RHS</text>
</g>
<!-- n2_port_2 -->
<g id="node22" class="node">
<title>n2_port_2</title>
<polygon fill="white" stroke="black" points="1576.02,-108.67 1607.45,-85.57 1638.88,-108.67 1638.85,-146.04 1576.05,-146.04 1576.02,-108.67"/>
<text text-anchor="middle" x="1607.45" y="-122.8" font-family="Times,serif" font-size="14.00">a</text>
<text text-anchor="middle" x="1607.45" y="-107.8" font-family="Times,serif" font-size="14.00">int</text>
</g>
<!-- n2_port_2&#45;&gt;n0_place_3 -->
<g id="edge4" class="edge">
<title>n2_port_2&#45;&gt;n0_place_3</title>
<path fill="none" stroke="black" d="M1639.08,-120.29C1661.25,-121.22 1691.3,-122.48 1714.71,-123.47"/>
<polygon fill="black" stroke="black" points="1714.81,-126.97 1724.95,-123.9 1715.11,-119.98 1714.81,-126.97"/>
</g>
<!-- n2_port_3 -->
<g id="node23" class="node">
<title>n2_port_3</title>
<polygon fill="white" stroke="black" points="1548.83,-192.67 1607.45,-169.57 1666.07,-192.67 1666.02,-230.04 1548.89,-230.04 1548.83,-192.67"/>
<text text-anchor="middle" x="1607.45" y="-206.8" font-family="Times,serif" font-size="14.00">s</text>
<text text-anchor="middle" x="1607.45" y="-191.8" font-family="Times,serif" font-size="14.00">control</text>
</g>
<!-- n2_port_3&#45;&gt;n0_place_6 -->
<g id="edge5" class="edge">
<title>n2_port_3&#45;&gt;n0_place_6</title>
<path fill="none" stroke="black" d="M1658.38,-230.26C1664.1,-234.69 1669.49,-239.62 1674.01,-245 1710.83,-288.78 1732.27,-352.64 1742.85,-392.46"/>
<polygon fill="black" stroke="black" points="1739.5,-393.46 1745.37,-402.28 1746.28,-391.72 1739.5,-393.46"/>
</g>
<!-- n2_modcall -->
<g id="node24" class="node">
<title>n2_modcall</title>
<polygon fill="white" stroke="black" points="1652.95,-68 1561.95,-68 1561.95,-32 1652.95,-32 1652.95,-68"/>
<text text-anchor="middle" x="1607.45" y="-46.3" font-family="Times,serif" font-size="14.00">token.plus</text>
</g>
<!-- n3_condition -->
<g id="node25" class="node">
<title>n3_condition</title>
<polygon fill="white" stroke="black" points="1161.01,-816 1161.01,-852 1295.01,-852 1295.01,-816 1161.01,-816"/>
<text text-anchor="middle" x="1228.01" y="-830.3" font-family="Times,serif" font-size="14.00">feynman_degree</text>
</g>
<!-- n3_port_2 -->
<g id="node28" class="node">
<title>n3_port_2</title>
<polygon fill="white" stroke="black" points="1196.58,-585.67 1228.01,-562.57 1259.44,-585.67 1259.41,-623.04 1196.61,-623.04 1196.58,-585.67"/>
<text text-anchor="middle" x="1228.01" y="-599.8" font-family="Times,serif" font-size="14.00">s</text>
<text text-anchor="middle" x="1228.01" y="-584.8" font-family="Times,serif" font-size="14.00">int</text>
</g>
<!-- n3_port_2&#45;&gt;n0_place_7 -->
<g id="edge8" class="edge">
<title>n3_port_2&#45;&gt;n0_place_7</title>
<path fill="none" stroke="black" d="M1259.7,-598.55C1290.07,-602.51 1336.39,-612.55 1367.51,-638 1406.9,-670.21 1430.78,-725.46 1442.99,-761.6"/>
<polygon fill="black" stroke="black" points="1439.71,-762.83 1446.13,-771.26 1446.36,-760.66 1439.71,-762.83"/>
</g>
<!-- n3_modcall -->
<g id="node29" class="node">
<title>n3_modcall</title>
<polygon fill="white" stroke="black" points="1359.51,-545 1096.51,-545 1096.51,-509 1359.51,-509 1359.51,-545"/>
<text text-anchor="middle" x="1228.01" y="-523.3" font-family="Times,serif" font-size="14.00">feynman.feynman_integral_degree</text>
</g>
<!-- n4_condition -->
<g id="node30" class="node">
<title>n4_condition</title>
<polygon fill="white" stroke="black" points="720.42,-794 720.42,-830 827.42,-830 827.42,-794 720.42,-794"/>
<text text-anchor="middle" x="773.92" y="-808.3" font-family="Times,serif" font-size="14.00">Combination</text>
</g>
<!-- n4_port_1 -->
<g id="node32" class="node">
<title>n4_port_1</title>
<polygon fill="white" stroke="black" points="722.28,-647.67 773.92,-624.57 825.55,-647.67 825.51,-685.04 722.33,-685.04 722.28,-647.67"/>
<text text-anchor="middle" x="773.92" y="-661.8" font-family="Times,serif" font-size="14.00">vec</text>
<text text-anchor="middle" x="773.92" y="-646.8" font-family="Times,serif" font-size="14.00">string</text>
</g>
<!-- n4_port_1&#45;&gt;n0_place_1 -->
<g id="edge11" class="edge">
<title>n4_port_1&#45;&gt;n0_place_1</title>
<path fill="none" stroke="black" d="M825.62,-673.37C847.09,-680.52 872.12,-689.72 893.92,-700 899.43,-702.6 922.49,-716.47 944.66,-730"/>
<polygon fill="black" stroke="black" points="943.05,-733.11 953.4,-735.34 946.7,-727.14 943.05,-733.11"/>
</g>
<!-- n4_modcall -->
<g id="node33" class="node">
<title>n4_modcall</title>
<polygon fill="white" stroke="black" points="885.92,-607 661.92,-607 661.92,-571 885.92,-571 885.92,-607"/>
<text text-anchor="middle" x="773.92" y="-585.3" font-family="Times,serif" font-size="14.00">Combination_vector.partition</text>
</g>
<!-- n5_condition -->
<g id="node34" class="node">
<title>n5_condition</title>
<polygon fill="white" stroke="black" points="1580.45,-875 1580.45,-911 1634.45,-911 1634.45,-875 1580.45,-875"/>
<text text-anchor="middle" x="1607.45" y="-889.3" font-family="Times,serif" font-size="14.00">LHS</text>
</g>
<!-- n5_port_2 -->
<g id="node37" class="node">
<title>n5_port_2</title>
<polygon fill="white" stroke="black" points="1576.02,-728.67 1607.45,-705.57 1638.88,-728.67 1638.85,-766.04 1576.05,-766.04 1576.02,-728.67"/>
<text text-anchor="middle" x="1607.45" y="-742.8" font-family="Times,serif" font-size="14.00">a</text>
<text text-anchor="middle" x="1607.45" y="-727.8" font-family="Times,serif" font-size="14.00">int</text>
</g>
<!-- n5_port_2&#45;&gt;n0_place_9 -->
<g id="edge13" class="edge">
<title>n5_port_2&#45;&gt;n0_place_9</title>
<path fill="none" stroke="black" d="M1639.08,-739C1661.25,-739 1691.3,-739 1714.71,-739"/>
<polygon fill="black" stroke="black" points="1714.95,-742.5 1724.95,-739 1714.95,-735.5 1714.95,-742.5"/>
</g>
<!-- n5_port_3 -->
<g id="node38" class="node">
<title>n5_port_3</title>
<polygon fill="white" stroke="black" points="1548.83,-560.67 1607.45,-537.57 1666.07,-560.67 1666.02,-598.04 1548.89,-598.04 1548.83,-560.67"/>
<text text-anchor="middle" x="1607.45" y="-574.8" font-family="Times,serif" font-size="14.00">s</text>
<text text-anchor="middle" x="1607.45" y="-559.8" font-family="Times,serif" font-size="14.00">control</text>
</g>
<!-- n5_port_3&#45;&gt;n0_place_8 -->
<g id="edge14" class="edge">
<title>n5_port_3&#45;&gt;n0_place_8</title>
<path fill="none" stroke="black" d="M1571.76,-551.42C1561.38,-544.88 1550.27,-537.16 1540.89,-529 1520.97,-511.67 1501.58,-489.62 1486.3,-470.64"/>
<polygon fill="black" stroke="black" points="1488.97,-468.37 1480.01,-462.71 1483.49,-472.72 1488.97,-468.37"/>
</g>
<!-- n5_modcall -->
<g id="node39" class="node">
<title>n5_modcall</title>
<polygon fill="white" stroke="black" points="1657.95,-520 1556.95,-520 1556.95,-484 1657.95,-484 1657.95,-520"/>
<text text-anchor="middle" x="1607.45" y="-498.3" font-family="Times,serif" font-size="14.00">token.count</text>
</g>
<!-- n6_condition -->
<g id="node40" class="node">
<title>n6_condition</title>
<polygon fill="white" stroke="black" points="343.71,-887 343.71,-923 422.71,-923 422.71,-887 343.71,-887"/>
<text text-anchor="middle" x="383.21" y="-901.3" font-family="Times,serif" font-size="14.00">partition</text>
</g>
<!-- n6_port_2 -->
<g id="node43" class="node">
<title>n6_port_2</title>
<polygon fill="white" stroke="black" points="331.57,-656.67 383.21,-633.57 434.85,-656.67 434.8,-694.04 331.62,-694.04 331.57,-656.67"/>
<text text-anchor="middle" x="383.21" y="-670.8" font-family="Times,serif" font-size="14.00">v</text>
<text text-anchor="middle" x="383.21" y="-655.8" font-family="Times,serif" font-size="14.00">string</text>
</g>
<!-- n6_port_2&#45;&gt;n0_place_4 -->
<g id="edge17" class="edge">
<title>n6_port_2&#45;&gt;n0_place_4</title>
<path fill="none" stroke="black" d="M435,-674.03C454.55,-676.74 477.17,-679.87 498,-682.75"/>
<polygon fill="black" stroke="black" points="497.67,-686.24 508.06,-684.14 498.63,-679.31 497.67,-686.24"/>
</g>
<!-- n6_modcall -->
<g id="node44" class="node">
<title>n6_modcall</title>
<polygon fill="white" stroke="black" points="469.71,-616 296.71,-616 296.71,-580 469.71,-580 469.71,-616"/>
<text text-anchor="middle" x="383.21" y="-594.3" font-family="Times,serif" font-size="14.00">Sum_degree.sum_deg</text>
</g>
</g>
</svg>
