<?xml version="1.0" encoding="UTF-8" standalone="no"?>
<!DOCTYPE svg PUBLIC "-//W3C//DTD SVG 1.1//EN"
 "http://www.w3.org/Graphics/SVG/1.1/DTD/svg11.dtd">
<!-- Generated by graphviz version 2.43.0 (0)
 -->
<!-- Title: feynman_deg Pages: 1 -->
<svg width="1927pt" height="590pt"
 viewBox="0.00 0.00 1927.50 590.00" xmlns="http://www.w3.org/2000/svg" xmlns:xlink="http://www.w3.org/1999/xlink">
<g id="graph0" class="graph" transform="scale(1 1) rotate(0) translate(4 586)">
<title>feynman_deg</title>
<polygon fill="white" stroke="transparent" points="-4,4 -4,-586 1923.5,-586 1923.5,4 -4,4"/>
<g id="clust1" class="cluster">
<title>cluster_0</title>
<polygon fill="dimgray" stroke="black" points="8,-8 8,-574 1911.5,-574 1911.5,-8 8,-8"/>
</g>
<g id="clust2" class="cluster">
<title>cluster_net_0</title>
<polygon fill="white" stroke="black" points="159.37,-116 159.37,-492 1903.5,-492 1903.5,-116 159.37,-116"/>
</g>
<g id="clust3" class="cluster">
<title>cluster_1</title>
<polygon fill="yellow" stroke="black" points="1674.97,-124 1674.97,-484 1895.5,-484 1895.5,-124 1674.97,-124"/>
</g>
<g id="clust4" class="cluster">
<title>cluster_2</title>
<polygon fill="yellow" stroke="black" points="1114.51,-124 1114.51,-484 1453.51,-484 1453.51,-124 1114.51,-124"/>
</g>
<g id="clust5" class="cluster">
<title>cluster_3</title>
<polygon fill="yellow" stroke="black" points="699.92,-166 699.92,-442 919.92,-442 919.92,-166 699.92,-166"/>
</g>
<g id="clust6" class="cluster">
<title>cluster_4</title>
<polygon fill="yellow" stroke="black" points="288.71,-124 288.71,-484 523.71,-484 523.71,-124 288.71,-124"/>
</g>
<!-- n0_condition -->
<g id="node1" class="node">
<title>n0_condition</title>
<polygon fill="white" stroke="black" points="18.19,-484 18.19,-520 129.19,-520 129.19,-484 18.19,-484"/>
<text text-anchor="middle" x="73.69" y="-498.3" font-family="Times,serif" font-size="14.00">feynman_deg</text>
</g>
<!-- n0_port_0 -->
<g id="node2" class="node">
<title>n0_port_0</title>
<polygon fill="white" stroke="black" points="131.56,-397.33 73.69,-420.43 15.81,-397.33 15.87,-359.96 131.5,-359.96 131.56,-397.33"/>
<text text-anchor="middle" x="73.69" y="-390.8" font-family="Times,serif" font-size="14.00">degree</text>
<text text-anchor="middle" x="73.69" y="-375.8" font-family="Times,serif" font-size="14.00">int</text>
</g>
<!-- n0_place_0 -->
<g id="node6" class="node">
<title>n0_place_0</title>
<ellipse fill="white" stroke="black" cx="214.04" cy="-387" rx="46.84" ry="26.74"/>
<text text-anchor="middle" x="214.04" y="-390.8" font-family="Times,serif" font-size="14.00">degree</text>
<text text-anchor="middle" x="214.04" y="-375.8" font-family="Times,serif" font-size="14.00">int</text>
</g>
<!-- n0_port_0&#45;&gt;n0_place_0 -->
<g id="edge12" class="edge">
<title>n0_port_0&#45;&gt;n0_place_0</title>
<path fill="none" stroke="black" stroke-dasharray="1,5" d="M131.76,-387C143.52,-387 155.76,-387 167.07,-387"/>
</g>
<!-- n0_port_1 -->
<g id="node3" class="node">
<title>n0_port_1</title>
<polygon fill="white" stroke="black" points="105.12,-313.33 73.69,-336.43 42.26,-313.33 42.29,-275.96 105.09,-275.96 105.12,-313.33"/>
<text text-anchor="middle" x="73.69" y="-306.8" font-family="Times,serif" font-size="14.00">N</text>
<text text-anchor="middle" x="73.69" y="-291.8" font-family="Times,serif" font-size="14.00">int</text>
</g>
<!-- n0_place_1 -->
<g id="node7" class="node">
<title>n0_place_1</title>
<ellipse fill="white" stroke="black" cx="214.04" cy="-303" rx="27" ry="26.74"/>
<text text-anchor="middle" x="214.04" y="-306.8" font-family="Times,serif" font-size="14.00">N</text>
<text text-anchor="middle" x="214.04" y="-291.8" font-family="Times,serif" font-size="14.00">int</text>
</g>
<!-- n0_port_1&#45;&gt;n0_place_1 -->
<g id="edge13" class="edge">
<title>n0_port_1&#45;&gt;n0_place_1</title>
<path fill="none" stroke="black" stroke-dasharray="1,5" d="M105.39,-303C129.75,-303 163.45,-303 186.62,-303"/>
</g>
<!-- n0_port_2 -->
<g id="node4" class="node">
<title>n0_port_2</title>
<polygon fill="white" stroke="black" points="861.55,-543.33 809.92,-566.43 758.28,-543.33 758.33,-505.96 861.51,-505.96 861.55,-543.33"/>
<text text-anchor="middle" x="809.92" y="-536.8" font-family="Times,serif" font-size="14.00">graph</text>
<text text-anchor="middle" x="809.92" y="-521.8" font-family="Times,serif" font-size="14.00">list</text>
</g>
<!-- n0_place_6 -->
<g id="node12" class="node">
<title>n0_place_6</title>
<ellipse fill="white" stroke="black" cx="1017.21" cy="-422" rx="41.94" ry="26.74"/>
<text text-anchor="middle" x="1017.21" y="-425.8" font-family="Times,serif" font-size="14.00">graph</text>
<text text-anchor="middle" x="1017.21" y="-410.8" font-family="Times,serif" font-size="14.00">list</text>
</g>
<!-- n0_port_2&#45;&gt;n0_place_6 -->
<g id="edge14" class="edge">
<title>n0_port_2&#45;&gt;n0_place_6</title>
<path fill="none" stroke="black" stroke-dasharray="1,5" d="M861.14,-505.85C899.72,-484.99 951.8,-456.83 984.71,-439.04"/>
</g>
<!-- n0_port_3 -->
<g id="node5" class="node">
<title>n0_port_3</title>
<polygon fill="white" stroke="black" points="1181.99,-47.74 1284.01,-15.85 1386.04,-47.74 1385.94,-99.33 1182.08,-99.33 1181.99,-47.74"/>
<text text-anchor="middle" x="1284.01" y="-73.3" font-family="Times,serif" font-size="14.00">sum</text>
<text text-anchor="middle" x="1284.01" y="-58.3" font-family="Times,serif" font-size="14.00">unsigned long</text>
<text text-anchor="middle" x="1284.01" y="-43.3" font-family="Times,serif" font-size="14.00">0UL</text>
</g>
<!-- n0_place_3 -->
<g id="node9" class="node">
<title>n0_place_3</title>
<ellipse fill="white" stroke="black" cx="1564.24" cy="-219" rx="82.96" ry="37.45"/>
<text text-anchor="middle" x="1564.24" y="-230.3" font-family="Times,serif" font-size="14.00">sum</text>
<text text-anchor="middle" x="1564.24" y="-215.3" font-family="Times,serif" font-size="14.00">unsigned long</text>
<text text-anchor="middle" x="1564.24" y="-200.3" font-family="Times,serif" font-size="14.00">0UL</text>
</g>
<!-- n0_port_3&#45;&gt;n0_place_3 -->
<g id="edge15" class="edge">
<title>n0_port_3&#45;&gt;n0_place_3</title>
<path fill="none" stroke="black" stroke-dasharray="1,5" d="M1385.97,-89.35C1408.96,-97.57 1432.72,-107.74 1453.51,-120 1482.91,-137.33 1511.38,-163.38 1531.95,-184.4"/>
</g>
<!-- n4_port_0 -->
<g id="node28" class="node">
<title>n4_port_0</title>
<polygon fill="white" stroke="black" points="437.64,-397.33 406.21,-420.43 374.78,-397.33 374.81,-359.96 437.61,-359.96 437.64,-397.33"/>
<text text-anchor="middle" x="406.21" y="-390.8" font-family="Times,serif" font-size="14.00">d</text>
<text text-anchor="middle" x="406.21" y="-375.8" font-family="Times,serif" font-size="14.00">int</text>
</g>
<!-- n0_place_0&#45;&gt;n4_port_0 -->
<g id="edge10" class="edge">
<title>n0_place_0&#45;&gt;n4_port_0</title>
<path fill="none" stroke="black" d="M261.08,-387C292.64,-387 334.13,-387 364.49,-387"/>
<polygon fill="black" stroke="black" points="364.73,-390.5 374.73,-387 364.73,-383.5 364.73,-390.5"/>
</g>
<!-- n4_port_1 -->
<g id="node29" class="node">
<title>n4_port_1</title>
<polygon fill="white" stroke="black" points="437.64,-313.33 406.21,-336.43 374.78,-313.33 374.81,-275.96 437.61,-275.96 437.64,-313.33"/>
<text text-anchor="middle" x="406.21" y="-306.8" font-family="Times,serif" font-size="14.00">n</text>
<text text-anchor="middle" x="406.21" y="-291.8" font-family="Times,serif" font-size="14.00">int</text>
</g>
<!-- n0_place_1&#45;&gt;n4_port_1 -->
<g id="edge11" class="edge">
<title>n0_place_1&#45;&gt;n4_port_1</title>
<path fill="none" stroke="black" d="M241.08,-303C272.98,-303 327.35,-303 364.72,-303"/>
<polygon fill="black" stroke="black" points="364.77,-306.5 374.77,-303 364.77,-299.5 364.77,-306.5"/>
</g>
<!-- n0_place_2 -->
<g id="node8" class="node">
<title>n0_place_2</title>
<ellipse fill="white" stroke="black" cx="1017.21" cy="-282" rx="69.09" ry="26.74"/>
<text text-anchor="middle" x="1017.21" y="-285.8" font-family="Times,serif" font-size="14.00">branchtype</text>
<text text-anchor="middle" x="1017.21" y="-270.8" font-family="Times,serif" font-size="14.00">list</text>
</g>
<!-- n2_port_0 -->
<g id="node19" class="node">
<title>n2_port_0</title>
<polygon fill="white" stroke="black" points="1318.19,-313.33 1284.01,-336.43 1249.84,-313.33 1249.87,-275.96 1318.15,-275.96 1318.19,-313.33"/>
<text text-anchor="middle" x="1284.01" y="-306.8" font-family="Times,serif" font-size="14.00">a</text>
<text text-anchor="middle" x="1284.01" y="-291.8" font-family="Times,serif" font-size="14.00">list</text>
</g>
<!-- n0_place_2&#45;&gt;n2_port_0 -->
<g id="edge5" class="edge">
<title>n0_place_2&#45;&gt;n2_port_0</title>
<path fill="none" stroke="black" d="M1085.38,-287.33C1133.83,-291.17 1197.81,-296.24 1239.67,-299.56"/>
<polygon fill="black" stroke="black" points="1239.56,-303.06 1249.81,-300.37 1240.11,-296.09 1239.56,-303.06"/>
</g>
<!-- n1_port_1 -->
<g id="node15" class="node">
<title>n1_port_1</title>
<polygon fill="white" stroke="black" points="1887.26,-313.33 1785.24,-336.43 1683.21,-313.33 1683.31,-275.96 1887.16,-275.96 1887.26,-313.33"/>
<text text-anchor="middle" x="1785.24" y="-306.8" font-family="Times,serif" font-size="14.00">sum</text>
<text text-anchor="middle" x="1785.24" y="-291.8" font-family="Times,serif" font-size="14.00">unsigned long</text>
</g>
<!-- n0_place_3&#45;&gt;n1_port_1 -->
<g id="edge2" class="edge">
<title>n0_place_3&#45;&gt;n1_port_1</title>
<path fill="none" stroke="black" d="M1628,-243.07C1651.64,-252.14 1678.87,-262.59 1703.91,-272.19"/>
<polygon fill="black" stroke="black" points="1702.79,-275.51 1713.38,-275.82 1705.3,-268.97 1702.79,-275.51"/>
</g>
<!-- n0_place_4 -->
<g id="node10" class="node">
<title>n0_place_4</title>
<ellipse fill="white" stroke="black" cx="1564.24" cy="-344" rx="82.96" ry="26.74"/>
<text text-anchor="middle" x="1564.24" y="-347.8" font-family="Times,serif" font-size="14.00">fey_out</text>
<text text-anchor="middle" x="1564.24" y="-332.8" font-family="Times,serif" font-size="14.00">unsigned long</text>
</g>
<!-- n1_port_0 -->
<g id="node14" class="node">
<title>n1_port_0</title>
<polygon fill="white" stroke="black" points="1887.26,-397.33 1785.24,-420.43 1683.21,-397.33 1683.31,-359.96 1887.16,-359.96 1887.26,-397.33"/>
<text text-anchor="middle" x="1785.24" y="-390.8" font-family="Times,serif" font-size="14.00">s</text>
<text text-anchor="middle" x="1785.24" y="-375.8" font-family="Times,serif" font-size="14.00">unsigned long</text>
</g>
<!-- n0_place_4&#45;&gt;n1_port_0 -->
<g id="edge3" class="edge">
<title>n0_place_4&#45;&gt;n1_port_0</title>
<path fill="none" stroke="black" d="M1635.44,-357.78C1647.38,-360.13 1660.05,-362.61 1672.75,-365.11"/>
<polygon fill="black" stroke="black" points="1672.44,-368.62 1682.93,-367.11 1673.79,-361.75 1672.44,-368.62"/>
</g>
<!-- n0_place_5 -->
<g id="node11" class="node">
<title>n0_place_5</title>
<ellipse fill="white" stroke="black" cx="611.81" cy="-282" rx="60.21" ry="26.74"/>
<text text-anchor="middle" x="611.81" y="-285.8" font-family="Times,serif" font-size="14.00">d_vectors</text>
<text text-anchor="middle" x="611.81" y="-270.8" font-family="Times,serif" font-size="14.00">list</text>
</g>
<!-- n3_port_0 -->
<g id="node24" class="node">
<title>n3_port_0</title>
<polygon fill="white" stroke="black" points="844.09,-355.33 809.92,-378.43 775.74,-355.33 775.78,-317.96 844.06,-317.96 844.09,-355.33"/>
<text text-anchor="middle" x="809.92" y="-348.8" font-family="Times,serif" font-size="14.00">v</text>
<text text-anchor="middle" x="809.92" y="-333.8" font-family="Times,serif" font-size="14.00">list</text>
</g>
<!-- n0_place_5&#45;&gt;n3_port_0 -->
<g id="edge8" class="edge">
<title>n0_place_5&#45;&gt;n3_port_0</title>
<path fill="none" stroke="black" d="M661.04,-297.49C693.17,-307.82 735.03,-321.26 766,-331.21"/>
<polygon fill="black" stroke="black" points="765.06,-334.59 775.65,-334.31 767.2,-327.92 765.06,-334.59"/>
</g>
<!-- n2_port_1 -->
<g id="node20" class="node">
<title>n2_port_1</title>
<polygon fill="white" stroke="black" points="1318.19,-397.33 1284.01,-420.43 1249.84,-397.33 1249.87,-359.96 1318.15,-359.96 1318.19,-397.33"/>
<text text-anchor="middle" x="1284.01" y="-390.8" font-family="Times,serif" font-size="14.00">G</text>
<text text-anchor="middle" x="1284.01" y="-375.8" font-family="Times,serif" font-size="14.00">list</text>
</g>
<!-- n0_place_6&#45;&gt;n2_port_1 -->
<g id="edge6" class="edge">
<title>n0_place_6&#45;&gt;n2_port_1</title>
<path fill="none" stroke="black" stroke-dasharray="5,2" d="M1058.14,-416.72C1107.07,-410.25 1189.66,-399.34 1239.97,-392.69"/>
<polygon fill="black" stroke="black" points="1240.43,-396.16 1249.89,-391.38 1239.51,-389.22 1240.43,-396.16"/>
</g>
<!-- n1_condition -->
<g id="node13" class="node">
<title>n1_condition</title>
<polygon fill="white" stroke="black" points="1750.74,-439 1750.74,-475 1819.74,-475 1819.74,-439 1750.74,-439"/>
<text text-anchor="middle" x="1785.24" y="-453.3" font-family="Times,serif" font-size="14.00">Reduce</text>
</g>
<!-- n1_port_2 -->
<g id="node16" class="node">
<title>n1_port_2</title>
<polygon fill="white" stroke="black" points="1683.21,-208.67 1785.24,-185.57 1887.26,-208.67 1887.16,-246.04 1683.31,-246.04 1683.21,-208.67"/>
<text text-anchor="middle" x="1785.24" y="-222.8" font-family="Times,serif" font-size="14.00">sum</text>
<text text-anchor="middle" x="1785.24" y="-207.8" font-family="Times,serif" font-size="14.00">unsigned long</text>
</g>
<!-- n1_port_2&#45;&gt;n0_place_3 -->
<g id="edge1" class="edge">
<title>n1_port_2&#45;&gt;n0_place_3</title>
<path fill="none" stroke="black" d="M1683.23,-219C1674.53,-219 1665.76,-219 1657.14,-219"/>
<polygon fill="black" stroke="black" points="1657.1,-215.5 1647.1,-219 1657.1,-222.5 1657.1,-215.5"/>
</g>
<!-- n1_modcall -->
<g id="node17" class="node">
<title>n1_modcall</title>
<polygon fill="white" stroke="black" points="1871.24,-168 1699.24,-168 1699.24,-132 1871.24,-132 1871.24,-168"/>
<text text-anchor="middle" x="1785.24" y="-146.3" font-family="Times,serif" font-size="14.00">feynman_module.plus</text>
</g>
<!-- n2_condition -->
<g id="node18" class="node">
<title>n2_condition</title>
<polygon fill="white" stroke="black" points="1217.01,-439 1217.01,-475 1351.01,-475 1351.01,-439 1217.01,-439"/>
<text text-anchor="middle" x="1284.01" y="-453.3" font-family="Times,serif" font-size="14.00">feynman_degree</text>
</g>
<!-- n2_port_2 -->
<g id="node21" class="node">
<title>n2_port_2</title>
<polygon fill="white" stroke="black" points="1181.99,-208.67 1284.01,-185.57 1386.04,-208.67 1385.94,-246.04 1182.08,-246.04 1181.99,-208.67"/>
<text text-anchor="middle" x="1284.01" y="-222.8" font-family="Times,serif" font-size="14.00">s</text>
<text text-anchor="middle" x="1284.01" y="-207.8" font-family="Times,serif" font-size="14.00">unsigned long</text>
</g>
<!-- n2_port_2&#45;&gt;n0_place_4 -->
<g id="edge4" class="edge">
<title>n2_port_2&#45;&gt;n0_place_4</title>
<path fill="none" stroke="black" d="M1386.23,-237.2C1408.98,-243.2 1432.57,-250.99 1453.51,-261 1480.72,-274.01 1507.78,-294.37 1528.22,-311.67"/>
<polygon fill="black" stroke="black" points="1526.13,-314.49 1535.99,-318.37 1530.7,-309.19 1526.13,-314.49"/>
</g>
<!-- n2_modcall -->
<g id="node22" class="node">
<title>n2_modcall</title>
<polygon fill="white" stroke="black" points="1445.51,-168 1122.51,-168 1122.51,-132 1445.51,-132 1445.51,-168"/>
<text text-anchor="middle" x="1284.01" y="-146.3" font-family="Times,serif" font-size="14.00">feynman_module.feynman_integral_degree</text>
</g>
<!-- n3_condition -->
<g id="node23" class="node">
<title>n3_condition</title>
<polygon fill="white" stroke="black" points="756.42,-397 756.42,-433 863.42,-433 863.42,-397 756.42,-397"/>
<text text-anchor="middle" x="809.92" y="-411.3" font-family="Times,serif" font-size="14.00">Combination</text>
</g>
<!-- n3_port_1 -->
<g id="node25" class="node">
<title>n3_port_1</title>
<polygon fill="white" stroke="black" points="774.25,-250.67 809.92,-227.57 845.59,-250.67 845.56,-288.04 774.28,-288.04 774.25,-250.67"/>
<text text-anchor="middle" x="809.92" y="-264.8" font-family="Times,serif" font-size="14.00">vec</text>
<text text-anchor="middle" x="809.92" y="-249.8" font-family="Times,serif" font-size="14.00">list</text>
</g>
<!-- n3_port_1&#45;&gt;n0_place_2 -->
<g id="edge7" class="edge">
<title>n3_port_1&#45;&gt;n0_place_2</title>
<path fill="none" stroke="black" d="M845.95,-262.57C871.65,-265.2 907.62,-268.88 939.9,-272.18"/>
<path fill="none" stroke="transparent" d="M845.74,-264.56C871.45,-267.19 907.42,-270.87 939.7,-274.17"/>
<path fill="none" stroke="black" d="M845.54,-266.55C871.24,-269.18 907.22,-272.86 939.5,-276.16"/>
<polygon fill="black" stroke="black" points="939.73,-277.69 950.03,-275.23 940.44,-270.73 939.73,-277.69"/>
</g>
<!-- n3_modcall -->
<g id="node26" class="node">
<title>n3_modcall</title>
<polygon fill="white" stroke="black" points="911.92,-210 707.92,-210 707.92,-174 911.92,-174 911.92,-210"/>
<text text-anchor="middle" x="809.92" y="-188.3" font-family="Times,serif" font-size="14.00">feynman_module.partition</text>
</g>
<!-- n4_condition -->
<g id="node27" class="node">
<title>n4_condition</title>
<polygon fill="white" stroke="black" points="366.71,-439 366.71,-475 445.71,-475 445.71,-439 366.71,-439"/>
<text text-anchor="middle" x="406.21" y="-453.3" font-family="Times,serif" font-size="14.00">partition</text>
</g>
<!-- n4_port_2 -->
<g id="node30" class="node">
<title>n4_port_2</title>
<polygon fill="white" stroke="black" points="372.04,-208.67 406.21,-185.57 440.39,-208.67 440.35,-246.04 372.07,-246.04 372.04,-208.67"/>
<text text-anchor="middle" x="406.21" y="-222.8" font-family="Times,serif" font-size="14.00">v</text>
<text text-anchor="middle" x="406.21" y="-207.8" font-family="Times,serif" font-size="14.00">list</text>
</g>
<!-- n4_port_2&#45;&gt;n0_place_5 -->
<g id="edge9" class="edge">
<title>n4_port_2&#45;&gt;n0_place_5</title>
<path fill="none" stroke="black" d="M440.97,-227.35C471.15,-236.69 516.39,-250.69 552.68,-261.92"/>
<path fill="none" stroke="transparent" d="M440.38,-229.26C470.55,-238.6 515.8,-252.6 552.09,-263.83"/>
<path fill="none" stroke="black" d="M439.78,-231.17C469.96,-240.51 515.21,-254.51 551.49,-265.74"/>
<polygon fill="black" stroke="black" points="551.48,-267.3 562.06,-266.92 553.54,-260.62 551.48,-267.3"/>
</g>
<!-- n4_modcall -->
<g id="node31" class="node">
<title>n4_modcall</title>
<polygon fill="white" stroke="black" points="515.71,-168 296.71,-168 296.71,-132 515.71,-132 515.71,-168"/>
<text text-anchor="middle" x="406.21" y="-146.3" font-family="Times,serif" font-size="14.00">feynman_module.gen_block_</text>
</g>
</g>
</svg>
