<?xml version="1.0" encoding="UTF-8" standalone="no"?>
<!DOCTYPE svg PUBLIC "-//W3C//DTD SVG 1.1//EN"
 "http://www.w3.org/Graphics/SVG/1.1/DTD/svg11.dtd">
<!-- Generated by graphviz version 2.43.0 (0)
 -->
<!-- Title: feynman_deg Pages: 1 -->
<svg width="3577pt" height="1196pt"
 viewBox="0.00 0.00 3577.20 1196.00" xmlns="http://www.w3.org/2000/svg" xmlns:xlink="http://www.w3.org/1999/xlink">
<g id="graph0" class="graph" transform="scale(1 1) rotate(0) translate(4 1192)">
<title>feynman_deg</title>
<polygon fill="white" stroke="transparent" points="-4,4 -4,-1192 3573.2,-1192 3573.2,4 -4,4"/>
<g id="clust1" class="cluster">
<title>cluster_0</title>
<polygon fill="dimgray" stroke="black" points="8,-8 8,-1180 3561.2,-1180 3561.2,-8 8,-8"/>
</g>
<g id="clust2" class="cluster">
<title>cluster_net_0</title>
<polygon fill="white" stroke="black" points="159.37,-90 159.37,-1014 3553.2,-1014 3553.2,-90 159.37,-90"/>
</g>
<g id="clust3" class="cluster">
<title>cluster_1</title>
<polygon fill="yellow" stroke="black" points="3223.03,-240 3223.03,-516 3421.03,-516 3421.03,-240 3223.03,-240"/>
</g>
<g id="clust4" class="cluster">
<title>cluster_2</title>
<polygon fill="yellow" stroke="black" points="2748.97,-466 2748.97,-936 3060.97,-936 3060.97,-466 2748.97,-466"/>
</g>
<g id="clust5" class="cluster">
<title>cluster_3</title>
<polygon fill="yellow" stroke="black" points="2794.71,-98 2794.71,-458 3015.23,-458 3015.23,-98 2794.71,-98"/>
</g>
<g id="clust6" class="cluster">
<title>cluster_4</title>
<polygon fill="yellow" stroke="black" points="2323.24,-98 2323.24,-542 2511.24,-542 2511.24,-98 2323.24,-98"/>
</g>
<g id="clust7" class="cluster">
<title>cluster_5</title>
<polygon fill="yellow" stroke="black" points="1978.04,-110 1978.04,-554 2159.04,-554 2159.04,-110 1978.04,-110"/>
</g>
<g id="clust8" class="cluster">
<title>cluster_6</title>
<polygon fill="yellow" stroke="black" points="1457.16,-556 1457.16,-1000 1796.16,-1000 1796.16,-556 1457.16,-556"/>
</g>
<g id="clust9" class="cluster">
<title>cluster_7</title>
<polygon fill="yellow" stroke="black" points="1042.57,-593 1042.57,-869 1262.57,-869 1262.57,-593 1042.57,-593"/>
</g>
<g id="clust10" class="cluster">
<title>cluster_8</title>
<polygon fill="yellow" stroke="black" points="1969.54,-562 1969.54,-1006 2167.54,-1006 2167.54,-562 1969.54,-562"/>
</g>
<g id="clust11" class="cluster">
<title>cluster_9</title>
<polygon fill="yellow" stroke="black" points="631.36,-646 631.36,-1006 866.36,-1006 866.36,-646 631.36,-646"/>
</g>
<g id="clust12" class="cluster">
<title>cluster_10</title>
<polygon fill="yellow" stroke="black" points="288.71,-730 288.71,-1006 470.71,-1006 470.71,-730 288.71,-730"/>
</g>
<!-- n0_condition -->
<g id="node1" class="node">
<title>n0_condition</title>
<polygon fill="white" stroke="black" points="18.19,-1048 18.19,-1084 129.19,-1084 129.19,-1048 18.19,-1048"/>
<text text-anchor="middle" x="73.69" y="-1062.3" font-family="Times,serif" font-size="14.00">feynman_deg</text>
</g>
<!-- n0_port_0 -->
<g id="node2" class="node">
<title>n0_port_0</title>
<polygon fill="white" stroke="black" points="131.56,-919.33 73.69,-942.43 15.81,-919.33 15.87,-881.96 131.5,-881.96 131.56,-919.33"/>
<text text-anchor="middle" x="73.69" y="-912.8" font-family="Times,serif" font-size="14.00">degree</text>
<text text-anchor="middle" x="73.69" y="-897.8" font-family="Times,serif" font-size="14.00">int</text>
</g>
<!-- n0_place_8 -->
<g id="node12" class="node">
<title>n0_place_8</title>
<ellipse fill="white" stroke="black" cx="214.04" cy="-909" rx="46.84" ry="26.74"/>
<text text-anchor="middle" x="214.04" y="-912.8" font-family="Times,serif" font-size="14.00">degree</text>
<text text-anchor="middle" x="214.04" y="-897.8" font-family="Times,serif" font-size="14.00">int</text>
</g>
<!-- n0_port_0&#45;&gt;n0_place_8 -->
<g id="edge33" class="edge">
<title>n0_port_0&#45;&gt;n0_place_8</title>
<path fill="none" stroke="black" stroke-dasharray="1,5" d="M131.76,-909C143.52,-909 155.76,-909 167.07,-909"/>
</g>
<!-- n0_port_1 -->
<g id="node3" class="node">
<title>n0_port_1</title>
<polygon fill="white" stroke="black" points="1190.24,-1149.33 1152.57,-1172.43 1114.9,-1149.33 1114.94,-1111.96 1190.2,-1111.96 1190.24,-1149.33"/>
<text text-anchor="middle" x="1152.57" y="-1142.8" font-family="Times,serif" font-size="14.00">deg</text>
<text text-anchor="middle" x="1152.57" y="-1127.8" font-family="Times,serif" font-size="14.00">int</text>
</g>
<!-- n0_place_10 -->
<g id="node10" class="node">
<title>n0_place_10</title>
<ellipse fill="white" stroke="black" cx="1359.87" cy="-941" rx="30.31" ry="26.74"/>
<text text-anchor="middle" x="1359.87" y="-944.8" font-family="Times,serif" font-size="14.00">deg</text>
<text text-anchor="middle" x="1359.87" y="-929.8" font-family="Times,serif" font-size="14.00">int</text>
</g>
<!-- n0_port_1&#45;&gt;n0_place_10 -->
<g id="edge34" class="edge">
<title>n0_port_1&#45;&gt;n0_place_10</title>
<path fill="none" stroke="black" stroke-dasharray="1,5" d="M1190.25,-1131.23C1212.99,-1124.97 1241.74,-1114.29 1262.57,-1097 1305.8,-1061.12 1335.19,-1000.56 1349.28,-966.41"/>
</g>
<!-- n0_port_2 -->
<g id="node4" class="node">
<title>n0_port_2</title>
<polygon fill="white" stroke="black" points="2519.27,-1065.33 2417.24,-1088.43 2315.22,-1065.33 2315.31,-1027.96 2519.17,-1027.96 2519.27,-1065.33"/>
<text text-anchor="middle" x="2417.24" y="-1058.8" font-family="Times,serif" font-size="14.00">total</text>
<text text-anchor="middle" x="2417.24" y="-1043.8" font-family="Times,serif" font-size="14.00">unsigned long</text>
</g>
<!-- n0_place_15 -->
<g id="node23" class="node">
<title>n0_place_15</title>
<ellipse fill="white" stroke="black" cx="2638.24" cy="-896" rx="82.96" ry="26.74"/>
<text text-anchor="middle" x="2638.24" y="-899.8" font-family="Times,serif" font-size="14.00">total</text>
<text text-anchor="middle" x="2638.24" y="-884.8" font-family="Times,serif" font-size="14.00">unsigned long</text>
</g>
<!-- n0_port_2&#45;&gt;n0_place_15 -->
<g id="edge35" class="edge">
<title>n0_port_2&#45;&gt;n0_place_15</title>
<path fill="none" stroke="black" stroke-dasharray="1,5" d="M2502.07,-1027.87C2508.13,-1024.86 2514.01,-1021.57 2519.51,-1018 2559.72,-991.84 2596.45,-949.53 2617.84,-922.25"/>
</g>
<!-- n0_port_3 -->
<g id="node5" class="node">
<title>n0_port_3</title>
<polygon fill="white" stroke="black" points="411.14,-1065.33 379.71,-1088.43 348.28,-1065.33 348.31,-1027.96 411.11,-1027.96 411.14,-1065.33"/>
<text text-anchor="middle" x="379.71" y="-1058.8" font-family="Times,serif" font-size="14.00">N</text>
<text text-anchor="middle" x="379.71" y="-1043.8" font-family="Times,serif" font-size="14.00">int</text>
</g>
<!-- n0_place_12 -->
<g id="node8" class="node">
<title>n0_place_12</title>
<ellipse fill="white" stroke="black" cx="551.04" cy="-944" rx="27" ry="26.74"/>
<text text-anchor="middle" x="551.04" y="-947.8" font-family="Times,serif" font-size="14.00">N</text>
<text text-anchor="middle" x="551.04" y="-932.8" font-family="Times,serif" font-size="14.00">int</text>
</g>
<!-- n0_port_3&#45;&gt;n0_place_12 -->
<g id="edge36" class="edge">
<title>n0_port_3&#45;&gt;n0_place_12</title>
<path fill="none" stroke="black" stroke-dasharray="1,5" d="M411.25,-1041.87C429.14,-1033.66 451.85,-1022.33 470.71,-1010 492.61,-995.69 515.33,-976.24 530.81,-962.16"/>
</g>
<!-- n0_port_4 -->
<g id="node6" class="node">
<title>n0_port_4</title>
<polygon fill="white" stroke="black" points="1204.21,-1065.33 1152.57,-1088.43 1100.93,-1065.33 1100.98,-1027.96 1204.16,-1027.96 1204.21,-1065.33"/>
<text text-anchor="middle" x="1152.57" y="-1058.8" font-family="Times,serif" font-size="14.00">graph</text>
<text text-anchor="middle" x="1152.57" y="-1043.8" font-family="Times,serif" font-size="14.00">list</text>
</g>
<!-- n0_place_16 -->
<g id="node24" class="node">
<title>n0_place_16</title>
<ellipse fill="white" stroke="black" cx="1359.87" cy="-844" rx="41.94" ry="26.74"/>
<text text-anchor="middle" x="1359.87" y="-847.8" font-family="Times,serif" font-size="14.00">graph</text>
<text text-anchor="middle" x="1359.87" y="-832.8" font-family="Times,serif" font-size="14.00">list</text>
</g>
<!-- n0_port_4&#45;&gt;n0_place_16 -->
<g id="edge37" class="edge">
<title>n0_port_4&#45;&gt;n0_place_16</title>
<path fill="none" stroke="black" stroke-dasharray="1,5" d="M1177.03,-1027.68C1203.7,-997.02 1248.94,-946.17 1290.57,-905 1304.47,-891.25 1320.78,-876.63 1333.98,-865.15"/>
</g>
<!-- n0_port_5 -->
<g id="node7" class="node">
<title>n0_port_5</title>
<polygon fill="white" stroke="black" points="3262.67,-38.67 3322.03,-15.57 3381.4,-38.67 3381.35,-76.04 3262.72,-76.04 3262.67,-38.67"/>
<text text-anchor="middle" x="3322.03" y="-52.8" font-family="Times,serif" font-size="14.00">answer</text>
<text text-anchor="middle" x="3322.03" y="-37.8" font-family="Times,serif" font-size="14.00">string</text>
</g>
<!-- n0_place_6 -->
<g id="node14" class="node">
<title>n0_place_6</title>
<ellipse fill="white" stroke="black" cx="3497.12" cy="-159" rx="48.17" ry="26.74"/>
<text text-anchor="middle" x="3497.12" y="-162.8" font-family="Times,serif" font-size="14.00">answer</text>
<text text-anchor="middle" x="3497.12" y="-147.8" font-family="Times,serif" font-size="14.00">string</text>
</g>
<!-- n0_port_5&#45;&gt;n0_place_6 -->
<g id="edge38" class="edge">
<title>n0_port_5&#45;&gt;n0_place_6</title>
<path fill="none" stroke="black" stroke-dasharray="1,5" d="M3365.82,-76.19C3396.45,-95.66 3437.01,-121.44 3464.69,-139.03"/>
</g>
<!-- n9_port_1 -->
<g id="node70" class="node">
<title>n9_port_1</title>
<polygon fill="white" stroke="black" points="780.29,-919.33 748.86,-942.43 717.43,-919.33 717.46,-881.96 780.26,-881.96 780.29,-919.33"/>
<text text-anchor="middle" x="748.86" y="-912.8" font-family="Times,serif" font-size="14.00">n</text>
<text text-anchor="middle" x="748.86" y="-897.8" font-family="Times,serif" font-size="14.00">int</text>
</g>
<!-- n0_place_12&#45;&gt;n9_port_1 -->
<g id="edge30" class="edge">
<title>n0_place_12&#45;&gt;n9_port_1</title>
<path fill="none" stroke="black" stroke-dasharray="5,2" d="M578.04,-939.35C611.09,-933.45 668.48,-923.19 707.3,-916.25"/>
<polygon fill="black" stroke="black" points="708.01,-919.68 717.24,-914.47 706.78,-912.79 708.01,-919.68"/>
</g>
<!-- n0_place_11 -->
<g id="node9" class="node">
<title>n0_place_11</title>
<ellipse fill="white" stroke="black" cx="2237.26" cy="-729" rx="41.94" ry="26.74"/>
<text text-anchor="middle" x="2237.26" y="-732.8" font-family="Times,serif" font-size="14.00">L</text>
<text text-anchor="middle" x="2237.26" y="-717.8" font-family="Times,serif" font-size="14.00">string</text>
</g>
<!-- n2_port_2 -->
<g id="node32" class="node">
<title>n2_port_2</title>
<polygon fill="white" stroke="black" points="2964.34,-739.33 2904.97,-762.43 2845.6,-739.33 2845.66,-701.96 2964.28,-701.96 2964.34,-739.33"/>
<text text-anchor="middle" x="2904.97" y="-732.8" font-family="Times,serif" font-size="14.00">answer</text>
<text text-anchor="middle" x="2904.97" y="-717.8" font-family="Times,serif" font-size="14.00">string</text>
</g>
<!-- n0_place_11&#45;&gt;n2_port_2 -->
<g id="edge4" class="edge">
<title>n0_place_11&#45;&gt;n2_port_2</title>
<path fill="none" stroke="black" d="M2279.4,-729C2390.44,-729 2697.13,-729 2835.12,-729"/>
<polygon fill="black" stroke="black" points="2835.16,-732.5 2845.16,-729 2835.16,-725.5 2835.16,-732.5"/>
</g>
<!-- n4_port_1 -->
<g id="node41" class="node">
<title>n4_port_1</title>
<polygon fill="white" stroke="black" points="2468.88,-455.33 2417.24,-478.43 2365.61,-455.33 2365.66,-417.96 2468.83,-417.96 2468.88,-455.33"/>
<text text-anchor="middle" x="2417.24" y="-448.8" font-family="Times,serif" font-size="14.00">l</text>
<text text-anchor="middle" x="2417.24" y="-433.8" font-family="Times,serif" font-size="14.00">string</text>
</g>
<!-- n0_place_11&#45;&gt;n4_port_1 -->
<g id="edge13" class="edge">
<title>n0_place_11&#45;&gt;n4_port_1</title>
<path fill="none" stroke="black" d="M2239.7,-701.89C2243.68,-653.1 2258.66,-549.84 2314.98,-488 2326.43,-475.43 2342.16,-466.4 2357.81,-459.97"/>
<polygon fill="black" stroke="black" points="2359.4,-463.11 2367.51,-456.3 2356.92,-456.57 2359.4,-463.11"/>
</g>
<!-- n6_port_0 -->
<g id="node53" class="node">
<title>n6_port_0</title>
<polygon fill="white" stroke="black" points="1664.33,-913.33 1626.66,-936.43 1589,-913.33 1589.03,-875.96 1664.29,-875.96 1664.33,-913.33"/>
<text text-anchor="middle" x="1626.66" y="-906.8" font-family="Times,serif" font-size="14.00">deg</text>
<text text-anchor="middle" x="1626.66" y="-891.8" font-family="Times,serif" font-size="14.00">int</text>
</g>
<!-- n0_place_10&#45;&gt;n6_port_0 -->
<g id="edge21" class="edge">
<title>n0_place_10&#45;&gt;n6_port_0</title>
<path fill="none" stroke="black" stroke-dasharray="5,2" d="M1389.96,-936.82C1435.53,-930.29 1524.14,-917.57 1578.79,-909.73"/>
<polygon fill="black" stroke="black" points="1579.51,-913.16 1588.91,-908.27 1578.51,-906.23 1579.51,-913.16"/>
</g>
<!-- n0_place_9 -->
<g id="node11" class="node">
<title>n0_place_9</title>
<ellipse fill="white" stroke="black" cx="1359.87" cy="-693" rx="69.09" ry="26.74"/>
<text text-anchor="middle" x="1359.87" y="-696.8" font-family="Times,serif" font-size="14.00">branchtype</text>
<text text-anchor="middle" x="1359.87" y="-681.8" font-family="Times,serif" font-size="14.00">list</text>
</g>
<!-- n6_port_1 -->
<g id="node54" class="node">
<title>n6_port_1</title>
<polygon fill="white" stroke="black" points="1660.84,-745.33 1626.66,-768.43 1592.49,-745.33 1592.52,-707.96 1660.81,-707.96 1660.84,-745.33"/>
<text text-anchor="middle" x="1626.66" y="-738.8" font-family="Times,serif" font-size="14.00">a</text>
<text text-anchor="middle" x="1626.66" y="-723.8" font-family="Times,serif" font-size="14.00">list</text>
</g>
<!-- n0_place_9&#45;&gt;n6_port_1 -->
<g id="edge19" class="edge">
<title>n0_place_9&#45;&gt;n6_port_1</title>
<path fill="none" stroke="black" d="M1424.29,-703.06C1473.06,-710.79 1539.14,-721.28 1582.09,-728.09"/>
<polygon fill="black" stroke="black" points="1581.79,-731.58 1592.22,-729.69 1582.89,-724.67 1581.79,-731.58"/>
</g>
<!-- n10_port_0 -->
<g id="node74" class="node">
<title>n10_port_0</title>
<polygon fill="white" stroke="black" points="411.14,-919.33 379.71,-942.43 348.28,-919.33 348.31,-881.96 411.11,-881.96 411.14,-919.33"/>
<text text-anchor="middle" x="379.71" y="-912.8" font-family="Times,serif" font-size="14.00">d</text>
<text text-anchor="middle" x="379.71" y="-897.8" font-family="Times,serif" font-size="14.00">int</text>
</g>
<!-- n0_place_8&#45;&gt;n10_port_0 -->
<g id="edge32" class="edge">
<title>n0_place_8&#45;&gt;n10_port_0</title>
<path fill="none" stroke="black" d="M261.07,-909C285.26,-909 314.64,-909 337.99,-909"/>
<polygon fill="black" stroke="black" points="338.26,-912.5 348.26,-909 338.26,-905.5 338.26,-912.5"/>
</g>
<!-- n0_place_7 -->
<g id="node13" class="node">
<title>n0_place_7</title>
<ellipse fill="white" stroke="black" cx="954.47" cy="-751" rx="60.21" ry="26.74"/>
<text text-anchor="middle" x="954.47" y="-754.8" font-family="Times,serif" font-size="14.00">d_vectors</text>
<text text-anchor="middle" x="954.47" y="-739.8" font-family="Times,serif" font-size="14.00">list</text>
</g>
<!-- n7_port_0 -->
<g id="node59" class="node">
<title>n7_port_0</title>
<polygon fill="white" stroke="black" points="1186.75,-782.33 1152.57,-805.43 1118.4,-782.33 1118.43,-744.96 1186.71,-744.96 1186.75,-782.33"/>
<text text-anchor="middle" x="1152.57" y="-775.8" font-family="Times,serif" font-size="14.00">v</text>
<text text-anchor="middle" x="1152.57" y="-760.8" font-family="Times,serif" font-size="14.00">list</text>
</g>
<!-- n0_place_7&#45;&gt;n7_port_0 -->
<g id="edge23" class="edge">
<title>n0_place_7&#45;&gt;n7_port_0</title>
<path fill="none" stroke="black" d="M1012.98,-757.16C1043.34,-760.41 1080,-764.34 1107.99,-767.33"/>
<polygon fill="black" stroke="black" points="1107.95,-770.85 1118.26,-768.43 1108.69,-763.89 1107.95,-770.85"/>
</g>
<!-- n0_place_5 -->
<g id="node15" class="node">
<title>n0_place_5</title>
<ellipse fill="white" stroke="black" cx="2638.24" cy="-361" rx="82.96" ry="37.45"/>
<text text-anchor="middle" x="2638.24" y="-372.3" font-family="Times,serif" font-size="14.00">counter_total</text>
<text text-anchor="middle" x="2638.24" y="-357.3" font-family="Times,serif" font-size="14.00">unsigned long</text>
<text text-anchor="middle" x="2638.24" y="-342.3" font-family="Times,serif" font-size="14.00">0UL</text>
</g>
<!-- n2_port_1 -->
<g id="node31" class="node">
<title>n2_port_1</title>
<polygon fill="white" stroke="black" points="3006.99,-655.33 2904.97,-678.43 2802.94,-655.33 2803.04,-617.96 3006.9,-617.96 3006.99,-655.33"/>
<text text-anchor="middle" x="2904.97" y="-648.8" font-family="Times,serif" font-size="14.00">counter_total</text>
<text text-anchor="middle" x="2904.97" y="-633.8" font-family="Times,serif" font-size="14.00">unsigned long</text>
</g>
<!-- n0_place_5&#45;&gt;n2_port_1 -->
<g id="edge5" class="edge">
<title>n0_place_5&#45;&gt;n2_port_1</title>
<path fill="none" stroke="black" d="M2645.88,-398.54C2657.32,-451.96 2685.89,-549.35 2748.97,-603 2761.84,-613.95 2777.3,-622.07 2793.41,-628.08"/>
<polygon fill="black" stroke="black" points="2792.36,-631.42 2802.95,-631.38 2794.65,-624.81 2792.36,-631.42"/>
</g>
<!-- n3_port_1 -->
<g id="node37" class="node">
<title>n3_port_1</title>
<polygon fill="white" stroke="black" points="3006.99,-287.33 2904.97,-310.43 2802.94,-287.33 2803.04,-249.96 3006.9,-249.96 3006.99,-287.33"/>
<text text-anchor="middle" x="2904.97" y="-280.8" font-family="Times,serif" font-size="14.00">counter_total</text>
<text text-anchor="middle" x="2904.97" y="-265.8" font-family="Times,serif" font-size="14.00">unsigned long</text>
</g>
<!-- n0_place_5&#45;&gt;n3_port_1 -->
<g id="edge8" class="edge">
<title>n0_place_5&#45;&gt;n3_port_1</title>
<path fill="none" stroke="black" d="M2700.65,-336.24C2716.3,-330.28 2733.16,-324.15 2748.97,-319 2773.08,-311.14 2799.63,-303.56 2823.84,-297.06"/>
<polygon fill="black" stroke="black" points="2824.93,-300.39 2833.7,-294.44 2823.13,-293.63 2824.93,-300.39"/>
</g>
<!-- n0_place_4 -->
<g id="node16" class="node">
<title>n0_place_4</title>
<ellipse fill="white" stroke="black" cx="3142" cy="-490" rx="53.07" ry="26.74"/>
<text text-anchor="middle" x="3142" y="-493.8" font-family="Times,serif" font-size="14.00">fey_sum</text>
<text text-anchor="middle" x="3142" y="-478.8" font-family="Times,serif" font-size="14.00">string</text>
</g>
<!-- n1_port_0 -->
<g id="node26" class="node">
<title>n1_port_0</title>
<polygon fill="white" stroke="black" points="3381.4,-429.33 3322.03,-452.43 3262.67,-429.33 3262.72,-391.96 3381.35,-391.96 3381.4,-429.33"/>
<text text-anchor="middle" x="3322.03" y="-422.8" font-family="Times,serif" font-size="14.00">answer</text>
<text text-anchor="middle" x="3322.03" y="-407.8" font-family="Times,serif" font-size="14.00">string</text>
</g>
<!-- n0_place_4&#45;&gt;n1_port_0 -->
<g id="edge2" class="edge">
<title>n0_place_4&#45;&gt;n1_port_0</title>
<path fill="none" stroke="black" d="M3184.29,-473.53C3209.75,-463.38 3242.59,-450.28 3269.71,-439.47"/>
<polygon fill="black" stroke="black" points="3271.05,-442.7 3279.04,-435.75 3268.45,-436.2 3271.05,-442.7"/>
</g>
<!-- n0_place_3 -->
<g id="node17" class="node">
<title>n0_place_3</title>
<ellipse fill="white" stroke="black" cx="1882.85" cy="-374" rx="50.41" ry="37.45"/>
<text text-anchor="middle" x="1882.85" y="-385.3" font-family="Times,serif" font-size="14.00">left_init</text>
<text text-anchor="middle" x="1882.85" y="-370.3" font-family="Times,serif" font-size="14.00">control</text>
<text text-anchor="middle" x="1882.85" y="-355.3" font-family="Times,serif" font-size="14.00">[]</text>
</g>
<!-- n8_port_1 -->
<g id="node64" class="node">
<title>n8_port_1</title>
<polygon fill="white" stroke="black" points="2127.16,-835.33 2068.54,-858.43 2009.92,-835.33 2009.98,-797.96 2127.11,-797.96 2127.16,-835.33"/>
<text text-anchor="middle" x="2068.54" y="-828.8" font-family="Times,serif" font-size="14.00">s</text>
<text text-anchor="middle" x="2068.54" y="-813.8" font-family="Times,serif" font-size="14.00">control</text>
</g>
<!-- n0_place_3&#45;&gt;n8_port_1 -->
<g id="edge27" class="edge">
<title>n0_place_3&#45;&gt;n8_port_1</title>
<path fill="none" stroke="black" d="M1891.75,-411.08C1902.92,-463.58 1923.93,-562.59 1941.54,-647 1954.14,-707.41 1930.52,-735.19 1969.54,-783 1977.8,-793.11 1988.94,-800.84 2000.75,-806.73"/>
<polygon fill="black" stroke="black" points="1999.33,-809.93 2009.88,-810.89 2002.23,-803.56 1999.33,-809.93"/>
</g>
<!-- n0_place_2 -->
<g id="node18" class="node">
<title>n0_place_2</title>
<ellipse fill="white" stroke="black" cx="2638.24" cy="-193" rx="47.25" ry="26.74"/>
<text text-anchor="middle" x="2638.24" y="-196.8" font-family="Times,serif" font-size="14.00">ns</text>
<text text-anchor="middle" x="2638.24" y="-181.8" font-family="Times,serif" font-size="14.00">control</text>
</g>
<!-- n3_port_0 -->
<g id="node36" class="node">
<title>n3_port_0</title>
<polygon fill="white" stroke="black" points="2963.59,-203.33 2904.97,-226.43 2846.35,-203.33 2846.4,-165.96 2963.53,-165.96 2963.59,-203.33"/>
<text text-anchor="middle" x="2904.97" y="-196.8" font-family="Times,serif" font-size="14.00">ns</text>
<text text-anchor="middle" x="2904.97" y="-181.8" font-family="Times,serif" font-size="14.00">control</text>
</g>
<!-- n0_place_2&#45;&gt;n3_port_0 -->
<g id="edge9" class="edge">
<title>n0_place_2&#45;&gt;n3_port_0</title>
<path fill="none" stroke="black" d="M2685.65,-193C2727.24,-193 2788.76,-193 2835.9,-193"/>
<polygon fill="black" stroke="black" points="2836.04,-196.5 2846.04,-193 2836.04,-189.5 2836.04,-196.5"/>
</g>
<!-- n0_place_1 -->
<g id="node19" class="node">
<title>n0_place_1</title>
<ellipse fill="white" stroke="black" cx="1882.85" cy="-683" rx="58.88" ry="26.74"/>
<text text-anchor="middle" x="1882.85" y="-686.8" font-family="Times,serif" font-size="14.00">right_init</text>
<text text-anchor="middle" x="1882.85" y="-671.8" font-family="Times,serif" font-size="14.00">control</text>
</g>
<!-- n5_port_1 -->
<g id="node48" class="node">
<title>n5_port_1</title>
<polygon fill="white" stroke="black" points="2127.16,-467.33 2068.54,-490.43 2009.92,-467.33 2009.98,-429.96 2127.11,-429.96 2127.16,-467.33"/>
<text text-anchor="middle" x="2068.54" y="-460.8" font-family="Times,serif" font-size="14.00">s</text>
<text text-anchor="middle" x="2068.54" y="-445.8" font-family="Times,serif" font-size="14.00">control</text>
</g>
<!-- n0_place_1&#45;&gt;n5_port_1 -->
<g id="edge16" class="edge">
<title>n0_place_1&#45;&gt;n5_port_1</title>
<path fill="none" stroke="black" d="M1889.99,-656.18C1900.21,-617.06 1924.22,-544.22 1969.54,-500 1980.61,-489.2 1994.85,-480.87 2009.02,-474.56"/>
<polygon fill="black" stroke="black" points="2010.41,-477.77 2018.29,-470.69 2007.71,-471.31 2010.41,-477.77"/>
</g>
<!-- n0_place_0 -->
<g id="node20" class="node">
<title>n0_place_0</title>
<ellipse fill="white" stroke="black" cx="2237.26" cy="-325" rx="41.94" ry="26.74"/>
<text text-anchor="middle" x="2237.26" y="-328.8" font-family="Times,serif" font-size="14.00">R</text>
<text text-anchor="middle" x="2237.26" y="-313.8" font-family="Times,serif" font-size="14.00">string</text>
</g>
<!-- n4_port_3 -->
<g id="node42" class="node">
<title>n4_port_3</title>
<polygon fill="white" stroke="black" points="2468.88,-371.33 2417.24,-394.43 2365.61,-371.33 2365.66,-333.96 2468.83,-333.96 2468.88,-371.33"/>
<text text-anchor="middle" x="2417.24" y="-364.8" font-family="Times,serif" font-size="14.00">r</text>
<text text-anchor="middle" x="2417.24" y="-349.8" font-family="Times,serif" font-size="14.00">string</text>
</g>
<!-- n0_place_0&#45;&gt;n4_port_3 -->
<g id="edge12" class="edge">
<title>n0_place_0&#45;&gt;n4_port_3</title>
<path fill="none" stroke="black" d="M2277.32,-332.9C2300.18,-337.52 2329.53,-343.46 2355.36,-348.68"/>
<polygon fill="black" stroke="black" points="2354.94,-352.17 2365.44,-350.72 2356.33,-345.31 2354.94,-352.17"/>
</g>
<!-- n0_place_13 -->
<g id="node21" class="node">
<title>n0_place_13</title>
<ellipse fill="white" stroke="black" cx="1882.85" cy="-248" rx="48.17" ry="26.74"/>
<text text-anchor="middle" x="1882.85" y="-251.8" font-family="Times,serif" font-size="14.00">fey_out</text>
<text text-anchor="middle" x="1882.85" y="-236.8" font-family="Times,serif" font-size="14.00">string</text>
</g>
<!-- n5_port_0 -->
<g id="node47" class="node">
<title>n5_port_0</title>
<polygon fill="white" stroke="black" points="2120.18,-215.33 2068.54,-238.43 2016.91,-215.33 2016.96,-177.96 2120.13,-177.96 2120.18,-215.33"/>
<text text-anchor="middle" x="2068.54" y="-208.8" font-family="Times,serif" font-size="14.00">a</text>
<text text-anchor="middle" x="2068.54" y="-193.8" font-family="Times,serif" font-size="14.00">string</text>
</g>
<!-- n0_place_13&#45;&gt;n5_port_0 -->
<g id="edge17" class="edge">
<title>n0_place_13&#45;&gt;n5_port_0</title>
<path fill="none" stroke="black" d="M1927.39,-237.81C1951.75,-232.11 1982.46,-224.92 2008.91,-218.72"/>
<polygon fill="black" stroke="black" points="2009.89,-222.09 2018.82,-216.4 2008.29,-215.28 2009.89,-222.09"/>
</g>
<!-- n8_port_0 -->
<g id="node63" class="node">
<title>n8_port_0</title>
<polygon fill="white" stroke="black" points="2120.18,-667.33 2068.54,-690.43 2016.91,-667.33 2016.96,-629.96 2120.13,-629.96 2120.18,-667.33"/>
<text text-anchor="middle" x="2068.54" y="-660.8" font-family="Times,serif" font-size="14.00">a</text>
<text text-anchor="middle" x="2068.54" y="-645.8" font-family="Times,serif" font-size="14.00">string</text>
</g>
<!-- n0_place_13&#45;&gt;n8_port_0 -->
<g id="edge26" class="edge">
<title>n0_place_13&#45;&gt;n8_port_0</title>
<path fill="none" stroke="black" d="M1906.02,-271.58C1918.7,-286.56 1933.62,-307.01 1941.54,-328 1964.18,-387.95 1931.71,-563.28 1969.54,-615 1978.87,-627.75 1992.86,-636.66 2007.37,-642.88"/>
<polygon fill="black" stroke="black" points="2006.36,-646.24 2016.94,-646.6 2008.89,-639.72 2006.36,-646.24"/>
</g>
<!-- n0_place_14 -->
<g id="node22" class="node">
<title>n0_place_14</title>
<ellipse fill="white" stroke="black" cx="551.04" cy="-825" rx="52.15" ry="26.74"/>
<text text-anchor="middle" x="551.04" y="-828.8" font-family="Times,serif" font-size="14.00">degrees</text>
<text text-anchor="middle" x="551.04" y="-813.8" font-family="Times,serif" font-size="14.00">int</text>
</g>
<!-- n9_port_0 -->
<g id="node69" class="node">
<title>n9_port_0</title>
<polygon fill="white" stroke="black" points="780.29,-835.33 748.86,-858.43 717.43,-835.33 717.46,-797.96 780.26,-797.96 780.29,-835.33"/>
<text text-anchor="middle" x="748.86" y="-828.8" font-family="Times,serif" font-size="14.00">i</text>
<text text-anchor="middle" x="748.86" y="-813.8" font-family="Times,serif" font-size="14.00">int</text>
</g>
<!-- n0_place_14&#45;&gt;n9_port_0 -->
<g id="edge29" class="edge">
<title>n0_place_14&#45;&gt;n9_port_0</title>
<path fill="none" stroke="black" d="M603.49,-825C635.82,-825 676.96,-825 707.05,-825"/>
<polygon fill="black" stroke="black" points="707.19,-828.5 717.19,-825 707.19,-821.5 707.19,-828.5"/>
</g>
<!-- n2_port_0 -->
<g id="node30" class="node">
<title>n2_port_0</title>
<polygon fill="white" stroke="black" points="3006.99,-823.33 2904.97,-846.43 2802.94,-823.33 2803.04,-785.96 3006.9,-785.96 3006.99,-823.33"/>
<text text-anchor="middle" x="2904.97" y="-816.8" font-family="Times,serif" font-size="14.00">total</text>
<text text-anchor="middle" x="2904.97" y="-801.8" font-family="Times,serif" font-size="14.00">unsigned long</text>
</g>
<!-- n0_place_15&#45;&gt;n2_port_0 -->
<g id="edge6" class="edge">
<title>n0_place_15&#45;&gt;n2_port_0</title>
<path fill="none" stroke="black" stroke-dasharray="5,2" d="M2692.52,-875.62C2710.37,-869.05 2730.43,-861.94 2748.97,-856 2773.74,-848.06 2801,-840.21 2825.66,-833.43"/>
<polygon fill="black" stroke="black" points="2826.61,-836.8 2835.33,-830.79 2824.77,-830.05 2826.61,-836.8"/>
</g>
<!-- n6_port_2 -->
<g id="node55" class="node">
<title>n6_port_2</title>
<polygon fill="white" stroke="black" points="1660.84,-829.33 1626.66,-852.43 1592.49,-829.33 1592.52,-791.96 1660.81,-791.96 1660.84,-829.33"/>
<text text-anchor="middle" x="1626.66" y="-822.8" font-family="Times,serif" font-size="14.00">G</text>
<text text-anchor="middle" x="1626.66" y="-807.8" font-family="Times,serif" font-size="14.00">list</text>
</g>
<!-- n0_place_16&#45;&gt;n6_port_2 -->
<g id="edge20" class="edge">
<title>n0_place_16&#45;&gt;n6_port_2</title>
<path fill="none" stroke="black" stroke-dasharray="5,2" d="M1401.37,-840.18C1450.2,-835.57 1531.93,-827.85 1582.09,-823.11"/>
<polygon fill="black" stroke="black" points="1582.66,-826.58 1592.29,-822.15 1582.01,-819.61 1582.66,-826.58"/>
</g>
<!-- n1_condition -->
<g id="node25" class="node">
<title>n1_condition</title>
<polygon fill="white" stroke="black" points="3264.03,-471 3264.03,-507 3380.03,-507 3380.03,-471 3264.03,-471"/>
<text text-anchor="middle" x="3322.03" y="-485.3" font-family="Times,serif" font-size="14.00">Quasimodular</text>
</g>
<!-- n1_port_1 -->
<g id="node27" class="node">
<title>n1_port_1</title>
<polygon fill="white" stroke="black" points="3262.67,-324.67 3322.03,-301.57 3381.4,-324.67 3381.35,-362.04 3262.72,-362.04 3262.67,-324.67"/>
<text text-anchor="middle" x="3322.03" y="-338.8" font-family="Times,serif" font-size="14.00">answer</text>
<text text-anchor="middle" x="3322.03" y="-323.8" font-family="Times,serif" font-size="14.00">string</text>
</g>
<!-- n1_port_1&#45;&gt;n0_place_6 -->
<g id="edge1" class="edge">
<title>n1_port_1&#45;&gt;n0_place_6</title>
<path fill="none" stroke="black" d="M3372.27,-321.11C3389.13,-314.59 3407.2,-305.44 3421.03,-293 3450.78,-266.24 3471.45,-224.82 3483.47,-195.12"/>
<polygon fill="black" stroke="black" points="3486.83,-196.12 3487.21,-185.53 3480.31,-193.57 3486.83,-196.12"/>
</g>
<!-- n1_modcall -->
<g id="node28" class="node">
<title>n1_modcall</title>
<polygon fill="white" stroke="black" points="3413.03,-284 3231.03,-284 3231.03,-248 3413.03,-248 3413.03,-284"/>
<text text-anchor="middle" x="3322.03" y="-262.3" font-family="Times,serif" font-size="14.00">feynman_module.Quasi</text>
</g>
<!-- n2_condition -->
<g id="node29" class="node">
<title>n2_condition</title>
<polygon fill="white" stroke="black" points="2756.97,-865 2756.97,-927 3052.97,-927 3052.97,-865 2756.97,-865"/>
<text text-anchor="middle" x="2904.97" y="-911.8" font-family="Times,serif" font-size="14.00">transition7</text>
<polyline fill="none" stroke="black" points="2756.97,-904 3052.97,-904 "/>
<text text-anchor="middle" x="2904.97" y="-888.8" font-family="Times,serif" font-size="14.00">((${counter_total} &#45; 1UL) == ${total})</text>
</g>
<!-- n2_port_3 -->
<g id="node33" class="node">
<title>n2_port_3</title>
<polygon fill="white" stroke="black" points="2845.6,-550.67 2904.97,-527.57 2964.34,-550.67 2964.28,-588.04 2845.66,-588.04 2845.6,-550.67"/>
<text text-anchor="middle" x="2904.97" y="-564.8" font-family="Times,serif" font-size="14.00">answer</text>
<text text-anchor="middle" x="2904.97" y="-549.8" font-family="Times,serif" font-size="14.00">string</text>
</g>
<!-- n2_port_3&#45;&gt;n0_place_4 -->
<g id="edge3" class="edge">
<title>n2_port_3&#45;&gt;n0_place_4</title>
<path fill="none" stroke="black" d="M2957.95,-548.07C2988.19,-540.25 3026.94,-529.75 3060.97,-519 3070.17,-516.09 3079.89,-512.78 3089.26,-509.46"/>
<polygon fill="black" stroke="black" points="3090.63,-512.68 3098.86,-506.01 3088.26,-506.1 3090.63,-512.68"/>
</g>
<!-- n2_modcall -->
<g id="node34" class="node">
<title>n2_modcall</title>
<polygon fill="white" stroke="black" points="2991.47,-510 2818.47,-510 2818.47,-474 2991.47,-474 2991.47,-510"/>
<text text-anchor="middle" x="2904.97" y="-488.3" font-family="Times,serif" font-size="14.00">feynman_module.final</text>
</g>
<!-- n3_condition -->
<g id="node35" class="node">
<title>n3_condition</title>
<polygon fill="white" stroke="black" points="2857.47,-413 2857.47,-449 2952.47,-449 2952.47,-413 2857.47,-413"/>
<text text-anchor="middle" x="2904.97" y="-427.3" font-family="Times,serif" font-size="14.00">transition6</text>
</g>
<!-- n3_port_2 -->
<g id="node38" class="node">
<title>n3_port_2</title>
<polygon fill="white" stroke="black" points="2802.94,-350.67 2904.97,-327.57 3006.99,-350.67 3006.9,-388.04 2803.04,-388.04 2802.94,-350.67"/>
<text text-anchor="middle" x="2904.97" y="-364.8" font-family="Times,serif" font-size="14.00">counter_total</text>
<text text-anchor="middle" x="2904.97" y="-349.8" font-family="Times,serif" font-size="14.00">unsigned long</text>
</g>
<!-- n3_port_2&#45;&gt;n0_place_5 -->
<g id="edge7" class="edge">
<title>n3_port_2&#45;&gt;n0_place_5</title>
<path fill="none" stroke="black" d="M2802.81,-361C2779.3,-361 2754.4,-361 2731.31,-361"/>
<polygon fill="black" stroke="black" points="2731.19,-357.5 2721.19,-361 2731.19,-364.5 2731.19,-357.5"/>
</g>
<!-- n3_modcall -->
<g id="node39" class="node">
<title>n3_modcall</title>
<polygon fill="white" stroke="black" points="3005.47,-142 2804.47,-142 2804.47,-106 3005.47,-106 3005.47,-142"/>
<text text-anchor="middle" x="2904.97" y="-120.3" font-family="Times,serif" font-size="14.00">feynman_module.control1</text>
</g>
<!-- n4_condition -->
<g id="node40" class="node">
<title>n4_condition</title>
<polygon fill="white" stroke="black" points="2382.74,-497 2382.74,-533 2451.74,-533 2451.74,-497 2382.74,-497"/>
<text text-anchor="middle" x="2417.24" y="-511.3" font-family="Times,serif" font-size="14.00">Reduce</text>
</g>
<!-- n4_port_0 -->
<g id="node43" class="node">
<title>n4_port_0</title>
<polygon fill="white" stroke="black" points="2365.61,-266.67 2417.24,-243.57 2468.88,-266.67 2468.83,-304.04 2365.66,-304.04 2365.61,-266.67"/>
<text text-anchor="middle" x="2417.24" y="-280.8" font-family="Times,serif" font-size="14.00">s</text>
<text text-anchor="middle" x="2417.24" y="-265.8" font-family="Times,serif" font-size="14.00">string</text>
</g>
<!-- n4_port_0&#45;&gt;n0_place_13 -->
<g id="edge11" class="edge">
<title>n4_port_0&#45;&gt;n0_place_13</title>
<path fill="none" stroke="black" d="M2373.85,-262.95C2355.12,-255.86 2333.25,-246.35 2314.98,-235 2241.03,-189.05 2249.05,-136.62 2167.54,-106 2085.17,-75.05 2046.18,-62.74 1969.54,-106 1929.72,-128.48 1906.33,-177.72 1894.31,-211.87"/>
<polygon fill="black" stroke="black" points="1890.94,-210.9 1891.07,-221.5 1897.57,-213.13 1890.94,-210.9"/>
</g>
<!-- n4_port_2 -->
<g id="node44" class="node">
<title>n4_port_2</title>
<polygon fill="white" stroke="black" points="2358.62,-182.67 2417.24,-159.57 2475.86,-182.67 2475.81,-220.04 2358.68,-220.04 2358.62,-182.67"/>
<text text-anchor="middle" x="2417.24" y="-196.8" font-family="Times,serif" font-size="14.00">ns</text>
<text text-anchor="middle" x="2417.24" y="-181.8" font-family="Times,serif" font-size="14.00">control</text>
</g>
<!-- n4_port_2&#45;&gt;n0_place_2 -->
<g id="edge10" class="edge">
<title>n4_port_2&#45;&gt;n0_place_2</title>
<path fill="none" stroke="black" d="M2476.07,-193C2508.31,-193 2548.32,-193 2580.4,-193"/>
<polygon fill="black" stroke="black" points="2580.52,-196.5 2590.52,-193 2580.52,-189.5 2580.52,-196.5"/>
</g>
<!-- n4_modcall -->
<g id="node45" class="node">
<title>n4_modcall</title>
<polygon fill="white" stroke="black" points="2503.24,-142 2331.24,-142 2331.24,-106 2503.24,-106 2503.24,-142"/>
<text text-anchor="middle" x="2417.24" y="-120.3" font-family="Times,serif" font-size="14.00">feynman_module.plus</text>
</g>
<!-- n5_condition -->
<g id="node46" class="node">
<title>n5_condition</title>
<polygon fill="white" stroke="black" points="2041.54,-509 2041.54,-545 2095.54,-545 2095.54,-509 2041.54,-509"/>
<text text-anchor="middle" x="2068.54" y="-523.3" font-family="Times,serif" font-size="14.00">RHS</text>
</g>
<!-- n5_port_2 -->
<g id="node49" class="node">
<title>n5_port_2</title>
<polygon fill="white" stroke="black" points="2016.91,-278.67 2068.54,-255.57 2120.18,-278.67 2120.13,-316.04 2016.96,-316.04 2016.91,-278.67"/>
<text text-anchor="middle" x="2068.54" y="-292.8" font-family="Times,serif" font-size="14.00">a</text>
<text text-anchor="middle" x="2068.54" y="-277.8" font-family="Times,serif" font-size="14.00">string</text>
</g>
<!-- n5_port_2&#45;&gt;n0_place_0 -->
<g id="edge14" class="edge">
<title>n5_port_2&#45;&gt;n0_place_0</title>
<path fill="none" stroke="black" d="M2120.47,-300C2141.78,-304.6 2166.45,-309.93 2187.52,-314.48"/>
<polygon fill="black" stroke="black" points="2187.04,-317.95 2197.55,-316.64 2188.52,-311.11 2187.04,-317.95"/>
</g>
<!-- n5_port_3 -->
<g id="node50" class="node">
<title>n5_port_3</title>
<polygon fill="white" stroke="black" points="2009.92,-362.67 2068.54,-339.57 2127.16,-362.67 2127.11,-400.04 2009.98,-400.04 2009.92,-362.67"/>
<text text-anchor="middle" x="2068.54" y="-376.8" font-family="Times,serif" font-size="14.00">s</text>
<text text-anchor="middle" x="2068.54" y="-361.8" font-family="Times,serif" font-size="14.00">control</text>
</g>
<!-- n5_port_3&#45;&gt;n0_place_3 -->
<g id="edge15" class="edge">
<title>n5_port_3&#45;&gt;n0_place_3</title>
<path fill="none" stroke="black" d="M2009.7,-373.31C1988.55,-373.43 1964.59,-373.56 1943.29,-373.68"/>
<polygon fill="black" stroke="black" points="1943.06,-370.18 1933.08,-373.73 1943.1,-377.18 1943.06,-370.18"/>
</g>
<!-- n5_modcall -->
<g id="node51" class="node">
<title>n5_modcall</title>
<polygon fill="white" stroke="black" points="2151.04,-154 1986.04,-154 1986.04,-118 2151.04,-118 2151.04,-154"/>
<text text-anchor="middle" x="2068.54" y="-132.3" font-family="Times,serif" font-size="14.00">feynman_module.rhs</text>
</g>
<!-- n6_condition -->
<g id="node52" class="node">
<title>n6_condition</title>
<polygon fill="white" stroke="black" points="1559.66,-955 1559.66,-991 1693.66,-991 1693.66,-955 1559.66,-955"/>
<text text-anchor="middle" x="1626.66" y="-969.3" font-family="Times,serif" font-size="14.00">feynman_degree</text>
</g>
<!-- n6_port_3 -->
<g id="node56" class="node">
<title>n6_port_3</title>
<polygon fill="white" stroke="black" points="1575.03,-640.67 1626.66,-617.57 1678.3,-640.67 1678.25,-678.04 1575.08,-678.04 1575.03,-640.67"/>
<text text-anchor="middle" x="1626.66" y="-654.8" font-family="Times,serif" font-size="14.00">s</text>
<text text-anchor="middle" x="1626.66" y="-639.8" font-family="Times,serif" font-size="14.00">string</text>
</g>
<!-- n6_port_3&#45;&gt;n0_place_13 -->
<g id="edge18" class="edge">
<title>n6_port_3&#45;&gt;n0_place_13</title>
<path fill="none" stroke="black" d="M1678.31,-652.84C1716.62,-651.28 1767.37,-642.3 1796.16,-609 1837.21,-561.53 1801.94,-386.69 1824.16,-328 1830.8,-310.46 1842.32,-293.29 1853.33,-279.38"/>
<polygon fill="black" stroke="black" points="1856.08,-281.54 1859.7,-271.59 1850.66,-277.11 1856.08,-281.54"/>
</g>
<!-- n6_modcall -->
<g id="node57" class="node">
<title>n6_modcall</title>
<polygon fill="white" stroke="black" points="1788.16,-600 1465.16,-600 1465.16,-564 1788.16,-564 1788.16,-600"/>
<text text-anchor="middle" x="1626.66" y="-578.3" font-family="Times,serif" font-size="14.00">feynman_module.feynman_integral_degree</text>
</g>
<!-- n7_condition -->
<g id="node58" class="node">
<title>n7_condition</title>
<polygon fill="white" stroke="black" points="1099.07,-824 1099.07,-860 1206.07,-860 1206.07,-824 1099.07,-824"/>
<text text-anchor="middle" x="1152.57" y="-838.3" font-family="Times,serif" font-size="14.00">Combination</text>
</g>
<!-- n7_port_1 -->
<g id="node60" class="node">
<title>n7_port_1</title>
<polygon fill="white" stroke="black" points="1116.9,-677.67 1152.57,-654.57 1188.24,-677.67 1188.21,-715.04 1116.93,-715.04 1116.9,-677.67"/>
<text text-anchor="middle" x="1152.57" y="-691.8" font-family="Times,serif" font-size="14.00">vec</text>
<text text-anchor="middle" x="1152.57" y="-676.8" font-family="Times,serif" font-size="14.00">list</text>
</g>
<!-- n7_port_1&#45;&gt;n0_place_9 -->
<g id="edge22" class="edge">
<title>n7_port_1&#45;&gt;n0_place_9</title>
<path fill="none" stroke="black" d="M1188.44,-686.85C1213.63,-687.46 1248.68,-688.32 1280.45,-689.09"/>
<path fill="none" stroke="transparent" d="M1188.4,-688.85C1213.58,-689.46 1248.63,-690.32 1280.4,-691.09"/>
<path fill="none" stroke="black" d="M1188.35,-690.85C1213.53,-691.46 1248.58,-692.31 1280.35,-693.09"/>
<polygon fill="black" stroke="black" points="1280.5,-694.59 1290.59,-691.34 1280.67,-687.59 1280.5,-694.59"/>
</g>
<!-- n7_modcall -->
<g id="node61" class="node">
<title>n7_modcall</title>
<polygon fill="white" stroke="black" points="1254.57,-637 1050.57,-637 1050.57,-601 1254.57,-601 1254.57,-637"/>
<text text-anchor="middle" x="1152.57" y="-615.3" font-family="Times,serif" font-size="14.00">feynman_module.partition</text>
</g>
<!-- n8_condition -->
<g id="node62" class="node">
<title>n8_condition</title>
<polygon fill="white" stroke="black" points="2041.54,-961 2041.54,-997 2095.54,-997 2095.54,-961 2041.54,-961"/>
<text text-anchor="middle" x="2068.54" y="-975.3" font-family="Times,serif" font-size="14.00">LHS</text>
</g>
<!-- n8_port_2 -->
<g id="node65" class="node">
<title>n8_port_2</title>
<polygon fill="white" stroke="black" points="2016.91,-730.67 2068.54,-707.57 2120.18,-730.67 2120.13,-768.04 2016.96,-768.04 2016.91,-730.67"/>
<text text-anchor="middle" x="2068.54" y="-744.8" font-family="Times,serif" font-size="14.00">a</text>
<text text-anchor="middle" x="2068.54" y="-729.8" font-family="Times,serif" font-size="14.00">string</text>
</g>
<!-- n8_port_2&#45;&gt;n0_place_11 -->
<g id="edge24" class="edge">
<title>n8_port_2&#45;&gt;n0_place_11</title>
<path fill="none" stroke="black" d="M2120.47,-737.33C2141.11,-735.85 2164.9,-734.14 2185.53,-732.65"/>
<polygon fill="black" stroke="black" points="2185.96,-736.13 2195.68,-731.92 2185.45,-729.15 2185.96,-736.13"/>
</g>
<!-- n8_port_3 -->
<g id="node66" class="node">
<title>n8_port_3</title>
<polygon fill="white" stroke="black" points="2009.92,-898.67 2068.54,-875.57 2127.16,-898.67 2127.11,-936.04 2009.98,-936.04 2009.92,-898.67"/>
<text text-anchor="middle" x="2068.54" y="-912.8" font-family="Times,serif" font-size="14.00">s</text>
<text text-anchor="middle" x="2068.54" y="-897.8" font-family="Times,serif" font-size="14.00">control</text>
</g>
<!-- n8_port_3&#45;&gt;n0_place_1 -->
<g id="edge25" class="edge">
<title>n8_port_3&#45;&gt;n0_place_1</title>
<path fill="none" stroke="black" d="M2017.53,-895.57C2000.69,-889.11 1982.83,-879.88 1969.54,-867 1927.33,-826.07 1903.74,-760.33 1892.43,-719.5"/>
<polygon fill="black" stroke="black" points="1895.77,-718.45 1889.82,-709.69 1889.01,-720.26 1895.77,-718.45"/>
</g>
<!-- n8_modcall -->
<g id="node67" class="node">
<title>n8_modcall</title>
<polygon fill="white" stroke="black" points="2159.54,-606 1977.54,-606 1977.54,-570 2159.54,-570 2159.54,-606"/>
<text text-anchor="middle" x="2068.54" y="-584.3" font-family="Times,serif" font-size="14.00">feynman_module.count</text>
</g>
<!-- n9_condition -->
<g id="node68" class="node">
<title>n9_condition</title>
<polygon fill="white" stroke="black" points="709.36,-961 709.36,-997 788.36,-997 788.36,-961 709.36,-961"/>
<text text-anchor="middle" x="748.86" y="-975.3" font-family="Times,serif" font-size="14.00">partition</text>
</g>
<!-- n9_port_2 -->
<g id="node71" class="node">
<title>n9_port_2</title>
<polygon fill="white" stroke="black" points="714.69,-730.67 748.86,-707.57 783.04,-730.67 783,-768.04 714.72,-768.04 714.69,-730.67"/>
<text text-anchor="middle" x="748.86" y="-744.8" font-family="Times,serif" font-size="14.00">v</text>
<text text-anchor="middle" x="748.86" y="-729.8" font-family="Times,serif" font-size="14.00">list</text>
</g>
<!-- n9_port_2&#45;&gt;n0_place_7 -->
<g id="edge28" class="edge">
<title>n9_port_2&#45;&gt;n0_place_7</title>
<path fill="none" stroke="black" d="M783.13,-740.63C810.39,-741.97 849.95,-743.91 884.1,-745.59"/>
<path fill="none" stroke="transparent" d="M783.03,-742.63C810.29,-743.97 849.85,-745.91 884,-747.59"/>
<path fill="none" stroke="black" d="M782.93,-744.63C810.2,-745.97 849.76,-747.91 883.9,-749.59"/>
<polygon fill="black" stroke="black" points="884.24,-751.1 894.4,-748.1 884.59,-744.11 884.24,-751.1"/>
</g>
<!-- n9_modcall -->
<g id="node72" class="node">
<title>n9_modcall</title>
<polygon fill="white" stroke="black" points="858.36,-690 639.36,-690 639.36,-654 858.36,-654 858.36,-690"/>
<text text-anchor="middle" x="748.86" y="-668.3" font-family="Times,serif" font-size="14.00">feynman_module.gen_block_</text>
</g>
<!-- n10_condition -->
<g id="node73" class="node">
<title>n10_condition</title>
<polygon fill="white" stroke="black" points="328.71,-961 328.71,-997 430.71,-997 430.71,-961 328.71,-961"/>
<text text-anchor="middle" x="379.71" y="-975.3" font-family="Times,serif" font-size="14.00">degrees_fey</text>
</g>
<!-- n10_port_1 -->
<g id="node75" class="node">
<title>n10_port_1</title>
<polygon fill="white" stroke="black" points="345.54,-814.67 379.71,-791.57 413.89,-814.67 413.85,-852.04 345.57,-852.04 345.54,-814.67"/>
<text text-anchor="middle" x="379.71" y="-828.8" font-family="Times,serif" font-size="14.00">v</text>
<text text-anchor="middle" x="379.71" y="-813.8" font-family="Times,serif" font-size="14.00">list</text>
</g>
<!-- n10_port_1&#45;&gt;n0_place_14 -->
<g id="edge31" class="edge">
<title>n10_port_1&#45;&gt;n0_place_14</title>
<path fill="none" stroke="black" d="M414.16,-823C435.34,-823 463.37,-823 488.46,-823"/>
<path fill="none" stroke="transparent" d="M414.16,-825C435.34,-825 463.37,-825 488.46,-825"/>
<path fill="none" stroke="black" d="M414.16,-827C435.34,-827 463.37,-827 488.46,-827"/>
<polygon fill="black" stroke="black" points="488.64,-828.5 498.64,-825 488.64,-821.5 488.64,-828.5"/>
</g>
<!-- n10_modcall -->
<g id="node76" class="node">
<title>n10_modcall</title>
<polygon fill="white" stroke="black" points="462.71,-774 296.71,-774 296.71,-738 462.71,-738 462.71,-774"/>
<text text-anchor="middle" x="379.71" y="-752.3" font-family="Times,serif" font-size="14.00">feynman_module.init</text>
</g>
</g>
</svg>
