<?xml version="1.0" encoding="UTF-8" standalone="no"?>
<!DOCTYPE svg PUBLIC "-//W3C//DTD SVG 1.1//EN"
 "http://www.w3.org/Graphics/SVG/1.1/DTD/svg11.dtd">
<!-- Generated by graphviz version 2.43.0 (0)
 -->
<!-- Title: feynman_deg Pages: 1 -->
<svg width="1367pt" height="2676pt"
 viewBox="0.00 0.00 1367.28 2676.00" xmlns="http://www.w3.org/2000/svg" xmlns:xlink="http://www.w3.org/1999/xlink">
<g id="graph0" class="graph" transform="scale(1 1) rotate(0) translate(4 2672)">
<title>feynman_deg</title>
<polygon fill="white" stroke="transparent" points="-4,4 -4,-2672 1363.28,-2672 1363.28,4 -4,4"/>
<g id="clust1" class="cluster">
<title>cluster_0</title>
<polygon fill="dimgray" stroke="black" points="8,-8 8,-2660 1351.28,-2660 1351.28,-8 8,-8"/>
</g>
<g id="clust2" class="cluster">
<title>cluster_net_0</title>
<polygon fill="white" stroke="black" points="159.37,-90 159.37,-2410 1343.28,-2410 1343.28,-90 159.37,-90"/>
</g>
<g id="clust3" class="cluster">
<title>cluster_1</title>
<polygon fill="yellow" stroke="black" points="862.06,-1028 862.06,-1388 1082.58,-1388 1082.58,-1028 862.06,-1028"/>
</g>
<g id="clust4" class="cluster">
<title>cluster_2</title>
<polygon fill="yellow" stroke="black" points="863.82,-1874 863.82,-2402 1080.82,-2402 1080.82,-1874 863.82,-1874"/>
</g>
<g id="clust5" class="cluster">
<title>cluster_3</title>
<polygon fill="yellow" stroke="black" points="843.32,-1396 843.32,-1866 1101.32,-1866 1101.32,-1396 843.32,-1396"/>
</g>
<g id="clust6" class="cluster">
<title>cluster_4</title>
<polygon fill="yellow" stroke="black" points="360.84,-1259 360.84,-1787 581.36,-1787 581.36,-1259 360.84,-1259"/>
</g>
<g id="clust7" class="cluster">
<title>cluster_5</title>
<polygon fill="yellow" stroke="black" points="802.82,-660 802.82,-1020 1141.82,-1020 1141.82,-660 802.82,-660"/>
</g>
<g id="clust8" class="cluster">
<title>cluster_6</title>
<polygon fill="yellow" stroke="black" points="865.82,-98 865.82,-652 1078.82,-652 1078.82,-98 865.82,-98"/>
</g>
<g id="clust9" class="cluster">
<title>cluster_7</title>
<polygon fill="yellow" stroke="black" points="372.1,-182 372.1,-626 570.1,-626 570.1,-182 372.1,-182"/>
</g>
<!-- n0_condition -->
<g id="node1" class="node">
<title>n0_condition</title>
<polygon fill="white" stroke="black" points="18.19,-1598 18.19,-1634 129.19,-1634 129.19,-1598 18.19,-1598"/>
<text text-anchor="middle" x="73.69" y="-1612.3" font-family="Times,serif" font-size="14.00">feynman_deg</text>
</g>
<!-- n0_port_0 -->
<g id="node2" class="node">
<title>n0_port_0</title>
<polygon fill="white" stroke="black" points="131.56,-539.33 73.69,-562.43 15.81,-539.33 15.87,-501.96 131.5,-501.96 131.56,-539.33"/>
<text text-anchor="middle" x="73.69" y="-532.8" font-family="Times,serif" font-size="14.00">degree</text>
<text text-anchor="middle" x="73.69" y="-517.8" font-family="Times,serif" font-size="14.00">int</text>
</g>
<!-- n0_place_4 -->
<g id="node16" class="node">
<title>n0_place_4</title>
<ellipse fill="white" stroke="black" cx="250.1" cy="-529" rx="46.84" ry="26.74"/>
<text text-anchor="middle" x="250.1" y="-532.8" font-family="Times,serif" font-size="14.00">degree</text>
<text text-anchor="middle" x="250.1" y="-517.8" font-family="Times,serif" font-size="14.00">int</text>
</g>
<!-- n0_port_0&#45;&gt;n0_place_4 -->
<g id="edge30" class="edge">
<title>n0_port_0&#45;&gt;n0_place_4</title>
<path fill="none" stroke="black" stroke-dasharray="1,5" d="M131.8,-529C154.95,-529 181.32,-529 203.19,-529"/>
</g>
<!-- n0_port_1 -->
<g id="node3" class="node">
<title>n0_port_1</title>
<polygon fill="white" stroke="black" points="573.12,-2629.33 471.1,-2652.43 369.07,-2629.33 369.17,-2591.96 573.03,-2591.96 573.12,-2629.33"/>
<text text-anchor="middle" x="471.1" y="-2622.8" font-family="Times,serif" font-size="14.00">total</text>
<text text-anchor="middle" x="471.1" y="-2607.8" font-family="Times,serif" font-size="14.00">unsigned long</text>
</g>
<!-- n0_place_7 -->
<g id="node13" class="node">
<title>n0_place_7</title>
<ellipse fill="white" stroke="black" cx="692.09" cy="-2065" rx="82.96" ry="26.74"/>
<text text-anchor="middle" x="692.09" y="-2068.8" font-family="Times,serif" font-size="14.00">total</text>
<text text-anchor="middle" x="692.09" y="-2053.8" font-family="Times,serif" font-size="14.00">unsigned long</text>
</g>
<!-- n0_port_1&#45;&gt;n0_place_7 -->
<g id="edge31" class="edge">
<title>n0_port_1&#45;&gt;n0_place_7</title>
<path fill="none" stroke="black" stroke-dasharray="1,5" d="M566.89,-2591.61C572.36,-2587.41 577.28,-2582.58 581.36,-2577 643.89,-2491.46 548.89,-2188.01 609.36,-2101 614.58,-2093.49 621.73,-2087.53 629.66,-2082.8"/>
</g>
<!-- n0_port_2 -->
<g id="node4" class="node">
<title>n0_port_2</title>
<polygon fill="white" stroke="black" points="105.12,-455.33 73.69,-478.43 42.26,-455.33 42.29,-417.96 105.09,-417.96 105.12,-455.33"/>
<text text-anchor="middle" x="73.69" y="-448.8" font-family="Times,serif" font-size="14.00">N</text>
<text text-anchor="middle" x="73.69" y="-433.8" font-family="Times,serif" font-size="14.00">int</text>
</g>
<!-- n0_place_5 -->
<g id="node15" class="node">
<title>n0_place_5</title>
<ellipse fill="white" stroke="black" cx="250.1" cy="-445" rx="27" ry="26.74"/>
<text text-anchor="middle" x="250.1" y="-448.8" font-family="Times,serif" font-size="14.00">N</text>
<text text-anchor="middle" x="250.1" y="-433.8" font-family="Times,serif" font-size="14.00">int</text>
</g>
<!-- n0_port_2&#45;&gt;n0_place_5 -->
<g id="edge32" class="edge">
<title>n0_port_2&#45;&gt;n0_place_5</title>
<path fill="none" stroke="black" stroke-dasharray="1,5" d="M105.47,-445C138.82,-445 191.46,-445 222.9,-445"/>
</g>
<!-- n0_port_3 -->
<g id="node5" class="node">
<title>n0_port_3</title>
<polygon fill="white" stroke="black" points="502.53,-2545.33 471.1,-2568.43 439.67,-2545.33 439.7,-2507.96 502.5,-2507.96 502.53,-2545.33"/>
<text text-anchor="middle" x="471.1" y="-2538.8" font-family="Times,serif" font-size="14.00">m</text>
<text text-anchor="middle" x="471.1" y="-2523.8" font-family="Times,serif" font-size="14.00">int</text>
</g>
<!-- n0_place_6 -->
<g id="node14" class="node">
<title>n0_place_6</title>
<ellipse fill="white" stroke="black" cx="692.09" cy="-1993" rx="27" ry="26.74"/>
<text text-anchor="middle" x="692.09" y="-1996.8" font-family="Times,serif" font-size="14.00">m</text>
<text text-anchor="middle" x="692.09" y="-1981.8" font-family="Times,serif" font-size="14.00">int</text>
</g>
<!-- n0_port_3&#45;&gt;n0_place_6 -->
<g id="edge33" class="edge">
<title>n0_port_3&#45;&gt;n0_place_6</title>
<path fill="none" stroke="black" stroke-dasharray="1,5" d="M502.76,-2532.14C528.24,-2527.99 563.17,-2517.84 581.36,-2493 642.39,-2409.66 550.34,-2113.78 609.36,-2029 622.11,-2010.68 646.38,-2001.58 665.17,-1997.12"/>
</g>
<!-- n0_port_4 -->
<g id="node6" class="node">
<title>n0_port_4</title>
<polygon fill="white" stroke="black" points="522.73,-2461.33 471.1,-2484.43 419.46,-2461.33 419.51,-2423.96 522.68,-2423.96 522.73,-2461.33"/>
<text text-anchor="middle" x="471.1" y="-2454.8" font-family="Times,serif" font-size="14.00">graph</text>
<text text-anchor="middle" x="471.1" y="-2439.8" font-family="Times,serif" font-size="14.00">list</text>
</g>
<!-- n0_place_13 -->
<g id="node21" class="node">
<title>n0_place_13</title>
<ellipse fill="white" stroke="black" cx="692.09" cy="-1202" rx="41.94" ry="26.74"/>
<text text-anchor="middle" x="692.09" y="-1205.8" font-family="Times,serif" font-size="14.00">graph</text>
<text text-anchor="middle" x="692.09" y="-1190.8" font-family="Times,serif" font-size="14.00">list</text>
</g>
<!-- n0_port_4&#45;&gt;n0_place_13 -->
<g id="edge34" class="edge">
<title>n0_port_4&#45;&gt;n0_place_13</title>
<path fill="none" stroke="black" stroke-dasharray="1,5" d="M477.73,-2423.8C496.11,-2333.97 554.62,-2038.4 581.36,-1791 587.89,-1730.61 576.64,-1296.18 609.36,-1245 619.38,-1229.33 637.1,-1219.03 653.48,-1212.46"/>
</g>
<!-- n0_port_5 -->
<g id="node7" class="node">
<title>n0_port_5</title>
<polygon fill="white" stroke="black" points="870.3,-38.67 972.32,-15.57 1074.35,-38.67 1074.25,-76.04 870.39,-76.04 870.3,-38.67"/>
<text text-anchor="middle" x="972.32" y="-52.8" font-family="Times,serif" font-size="14.00">answer</text>
<text text-anchor="middle" x="972.32" y="-37.8" font-family="Times,serif" font-size="14.00">unsigned long</text>
</g>
<!-- n0_place_2 -->
<g id="node18" class="node">
<title>n0_place_2</title>
<ellipse fill="white" stroke="black" cx="1252.55" cy="-808" rx="82.96" ry="26.74"/>
<text text-anchor="middle" x="1252.55" y="-811.8" font-family="Times,serif" font-size="14.00">answer</text>
<text text-anchor="middle" x="1252.55" y="-796.8" font-family="Times,serif" font-size="14.00">unsigned long</text>
</g>
<!-- n0_port_5&#45;&gt;n0_place_2 -->
<g id="edge35" class="edge">
<title>n0_port_5&#45;&gt;n0_place_2</title>
<path fill="none" stroke="black" stroke-dasharray="1,5" d="M1074.55,-56.53C1099.71,-63.18 1124.43,-74.62 1141.82,-94 1235.3,-198.21 1249.19,-663.67 1251.21,-781.05"/>
</g>
<!-- n0_place_12 -->
<g id="node8" class="node">
<title>n0_place_12</title>
<ellipse fill="white" stroke="black" cx="250.1" cy="-1282" rx="82.96" ry="26.74"/>
<text text-anchor="middle" x="250.1" y="-1285.8" font-family="Times,serif" font-size="14.00">fey</text>
<text text-anchor="middle" x="250.1" y="-1270.8" font-family="Times,serif" font-size="14.00">unsigned long</text>
</g>
<!-- n4_port_0 -->
<g id="node42" class="node">
<title>n4_port_0</title>
<polygon fill="white" stroke="black" points="573.12,-1700.33 471.1,-1723.43 369.07,-1700.33 369.17,-1662.96 573.03,-1662.96 573.12,-1700.33"/>
<text text-anchor="middle" x="471.1" y="-1693.8" font-family="Times,serif" font-size="14.00">fey</text>
<text text-anchor="middle" x="471.1" y="-1678.8" font-family="Times,serif" font-size="14.00">unsigned long</text>
</g>
<!-- n0_place_12&#45;&gt;n4_port_0 -->
<g id="edge17" class="edge">
<title>n0_place_12&#45;&gt;n4_port_0</title>
<path fill="none" stroke="black" d="M251.46,-1308.88C253.78,-1375.27 268.84,-1548.76 360.84,-1648 363.79,-1651.19 367.01,-1654.13 370.43,-1656.86"/>
<polygon fill="black" stroke="black" points="368.6,-1659.85 378.76,-1662.82 372.67,-1654.15 368.6,-1659.85"/>
</g>
<!-- n0_place_11 -->
<g id="node9" class="node">
<title>n0_place_11</title>
<ellipse fill="white" stroke="black" cx="692.09" cy="-277" rx="37.45" ry="26.74"/>
<text text-anchor="middle" x="692.09" y="-280.8" font-family="Times,serif" font-size="14.00">state</text>
<text text-anchor="middle" x="692.09" y="-265.8" font-family="Times,serif" font-size="14.00">list</text>
</g>
<!-- n6_port_1 -->
<g id="node55" class="node">
<title>n6_port_1</title>
<polygon fill="white" stroke="black" points="1006.5,-203.33 972.32,-226.43 938.15,-203.33 938.18,-165.96 1006.46,-165.96 1006.5,-203.33"/>
<text text-anchor="middle" x="972.32" y="-196.8" font-family="Times,serif" font-size="14.00">v</text>
<text text-anchor="middle" x="972.32" y="-181.8" font-family="Times,serif" font-size="14.00">list</text>
</g>
<!-- n0_place_11&#45;&gt;n6_port_1 -->
<g id="edge23" class="edge">
<title>n0_place_11&#45;&gt;n6_port_1</title>
<path fill="none" stroke="black" d="M724.9,-263.65C746.61,-254.83 776.16,-243.39 802.82,-235 844.78,-221.79 893.65,-210 927.92,-202.29"/>
<polygon fill="black" stroke="black" points="929.06,-205.63 938.06,-200.04 927.54,-198.79 929.06,-205.63"/>
</g>
<!-- n0_place_10 -->
<g id="node10" class="node">
<title>n0_place_10</title>
<ellipse fill="white" stroke="black" cx="692.09" cy="-2263" rx="35.21" ry="37.45"/>
<text text-anchor="middle" x="692.09" y="-2274.3" font-family="Times,serif" font-size="14.00">limit</text>
<text text-anchor="middle" x="692.09" y="-2259.3" font-family="Times,serif" font-size="14.00">int</text>
<text text-anchor="middle" x="692.09" y="-2244.3" font-family="Times,serif" font-size="14.00">0</text>
</g>
<!-- n2_port_3 -->
<g id="node31" class="node">
<title>n2_port_3</title>
<polygon fill="white" stroke="black" points="1016.23,-2231.33 972.32,-2254.43 928.42,-2231.33 928.46,-2193.96 1016.18,-2193.96 1016.23,-2231.33"/>
<text text-anchor="middle" x="972.32" y="-2224.8" font-family="Times,serif" font-size="14.00">limit</text>
<text text-anchor="middle" x="972.32" y="-2209.8" font-family="Times,serif" font-size="14.00">int</text>
</g>
<!-- n0_place_10&#45;&gt;n2_port_3 -->
<g id="edge6" class="edge">
<title>n0_place_10&#45;&gt;n2_port_3</title>
<path fill="none" stroke="black" d="M727.21,-2257.85C774.88,-2250.65 861.89,-2237.52 918.12,-2229.03"/>
<polygon fill="black" stroke="black" points="918.88,-2232.46 928.25,-2227.5 917.84,-2225.53 918.88,-2232.46"/>
</g>
<!-- n0_place_9 -->
<g id="node11" class="node">
<title>n0_place_9</title>
<ellipse fill="white" stroke="black" cx="692.09" cy="-1522" rx="82.96" ry="37.45"/>
<text text-anchor="middle" x="692.09" y="-1533.3" font-family="Times,serif" font-size="14.00">sum</text>
<text text-anchor="middle" x="692.09" y="-1518.3" font-family="Times,serif" font-size="14.00">unsigned long</text>
<text text-anchor="middle" x="692.09" y="-1503.3" font-family="Times,serif" font-size="14.00">0UL</text>
</g>
<!-- n3_port_2 -->
<g id="node38" class="node">
<title>n3_port_2</title>
<polygon fill="white" stroke="black" points="1074.35,-1669.33 972.32,-1692.43 870.3,-1669.33 870.39,-1631.96 1074.25,-1631.96 1074.35,-1669.33"/>
<text text-anchor="middle" x="972.32" y="-1662.8" font-family="Times,serif" font-size="14.00">answer</text>
<text text-anchor="middle" x="972.32" y="-1647.8" font-family="Times,serif" font-size="14.00">unsigned long</text>
</g>
<!-- n0_place_9&#45;&gt;n3_port_2 -->
<g id="edge10" class="edge">
<title>n0_place_9&#45;&gt;n3_port_2</title>
<path fill="none" stroke="black" d="M724.61,-1556.49C745.05,-1576.89 773.3,-1601.67 802.82,-1617 820.64,-1626.25 840.59,-1633.53 860.36,-1639.24"/>
<polygon fill="black" stroke="black" points="859.47,-1642.63 870.04,-1641.92 861.34,-1635.88 859.47,-1642.63"/>
</g>
<!-- n4_port_3 -->
<g id="node43" class="node">
<title>n4_port_3</title>
<polygon fill="white" stroke="black" points="573.12,-1532.33 471.1,-1555.43 369.07,-1532.33 369.17,-1494.96 573.03,-1494.96 573.12,-1532.33"/>
<text text-anchor="middle" x="471.1" y="-1525.8" font-family="Times,serif" font-size="14.00">sum</text>
<text text-anchor="middle" x="471.1" y="-1510.8" font-family="Times,serif" font-size="14.00">unsigned long</text>
</g>
<!-- n0_place_9&#45;&gt;n4_port_3 -->
<g id="edge16" class="edge">
<title>n0_place_9&#45;&gt;n4_port_3</title>
<path fill="none" stroke="black" d="M609.06,-1522C600.66,-1522 592.04,-1522 583.4,-1522"/>
<polygon fill="black" stroke="black" points="583.26,-1518.5 573.26,-1522 583.26,-1525.5 583.26,-1518.5"/>
</g>
<!-- n0_place_8 -->
<g id="node12" class="node">
<title>n0_place_8</title>
<ellipse fill="white" stroke="black" cx="692.09" cy="-361" rx="48.58" ry="26.74"/>
<text text-anchor="middle" x="692.09" y="-364.8" font-family="Times,serif" font-size="14.00">vectors</text>
<text text-anchor="middle" x="692.09" y="-349.8" font-family="Times,serif" font-size="14.00">list</text>
</g>
<!-- n5_port_0 -->
<g id="node49" class="node">
<title>n5_port_0</title>
<polygon fill="white" stroke="black" points="1037.18,-765.33 972.32,-788.43 907.46,-765.33 907.53,-727.96 1037.12,-727.96 1037.18,-765.33"/>
<text text-anchor="middle" x="972.32" y="-758.8" font-family="Times,serif" font-size="14.00">branchs</text>
<text text-anchor="middle" x="972.32" y="-743.8" font-family="Times,serif" font-size="14.00">list</text>
</g>
<!-- n0_place_8&#45;&gt;n5_port_0 -->
<g id="edge19" class="edge">
<title>n0_place_8&#45;&gt;n5_port_0</title>
<path fill="none" stroke="black" d="M693.09,-388.06C694.62,-453.9 708.08,-623.59 802.82,-713 828.06,-736.82 864.66,-747.71 897.31,-752.48"/>
<polygon fill="black" stroke="black" points="896.93,-755.96 907.3,-753.77 897.83,-749.02 896.93,-755.96"/>
</g>
<!-- n3_port_0 -->
<g id="node36" class="node">
<title>n3_port_0</title>
<polygon fill="white" stroke="black" points="1074.35,-1753.33 972.32,-1776.43 870.3,-1753.33 870.39,-1715.96 1074.25,-1715.96 1074.35,-1753.33"/>
<text text-anchor="middle" x="972.32" y="-1746.8" font-family="Times,serif" font-size="14.00">total</text>
<text text-anchor="middle" x="972.32" y="-1731.8" font-family="Times,serif" font-size="14.00">unsigned long</text>
</g>
<!-- n0_place_7&#45;&gt;n3_port_0 -->
<g id="edge12" class="edge">
<title>n0_place_7&#45;&gt;n3_port_0</title>
<path fill="none" stroke="black" stroke-dasharray="5,2" d="M754.15,-2046.94C762.13,-2042.24 769.39,-2036.36 774.82,-2029 839.34,-1941.5 731.31,-1867.89 802.82,-1786 817.78,-1768.86 838.54,-1758.09 860.37,-1751.42"/>
<polygon fill="black" stroke="black" points="861.42,-1754.76 870.13,-1748.72 859.55,-1748.01 861.42,-1754.76"/>
</g>
<!-- n2_port_1 -->
<g id="node30" class="node">
<title>n2_port_1</title>
<polygon fill="white" stroke="black" points="1003.75,-2063.33 972.32,-2086.43 940.89,-2063.33 940.92,-2025.96 1003.72,-2025.96 1003.75,-2063.33"/>
<text text-anchor="middle" x="972.32" y="-2056.8" font-family="Times,serif" font-size="14.00">m</text>
<text text-anchor="middle" x="972.32" y="-2041.8" font-family="Times,serif" font-size="14.00">int</text>
</g>
<!-- n0_place_6&#45;&gt;n2_port_1 -->
<g id="edge8" class="edge">
<title>n0_place_6&#45;&gt;n2_port_1</title>
<path fill="none" stroke="black" stroke-dasharray="5,2" d="M718.77,-1998.54C767.25,-2008.99 872.59,-2031.71 930.74,-2044.25"/>
<polygon fill="black" stroke="black" points="930.17,-2047.71 940.68,-2046.39 931.65,-2040.86 930.17,-2047.71"/>
</g>
<!-- n6_port_0 -->
<g id="node54" class="node">
<title>n6_port_0</title>
<polygon fill="white" stroke="black" points="1003.75,-539.33 972.32,-562.43 940.89,-539.33 940.92,-501.96 1003.72,-501.96 1003.75,-539.33"/>
<text text-anchor="middle" x="972.32" y="-532.8" font-family="Times,serif" font-size="14.00">m</text>
<text text-anchor="middle" x="972.32" y="-517.8" font-family="Times,serif" font-size="14.00">int</text>
</g>
<!-- n0_place_6&#45;&gt;n6_port_0 -->
<g id="edge25" class="edge">
<title>n0_place_6&#45;&gt;n6_port_0</title>
<path fill="none" stroke="black" stroke-dasharray="5,2" d="M699.65,-1966.87C715.94,-1900.66 758.1,-1720.74 774.82,-1568 780.85,-1512.97 768.25,-615.23 802.82,-572 832.94,-534.34 891.07,-526.93 930.53,-526.69"/>
<polygon fill="black" stroke="black" points="930.6,-530.19 940.63,-526.78 930.66,-523.19 930.6,-530.19"/>
</g>
<!-- n7_port_1 -->
<g id="node62" class="node">
<title>n7_port_1</title>
<polygon fill="white" stroke="black" points="502.53,-455.33 471.1,-478.43 439.67,-455.33 439.7,-417.96 502.5,-417.96 502.53,-455.33"/>
<text text-anchor="middle" x="471.1" y="-448.8" font-family="Times,serif" font-size="14.00">n</text>
<text text-anchor="middle" x="471.1" y="-433.8" font-family="Times,serif" font-size="14.00">int</text>
</g>
<!-- n0_place_5&#45;&gt;n7_port_1 -->
<g id="edge29" class="edge">
<title>n0_place_5&#45;&gt;n7_port_1</title>
<path fill="none" stroke="black" d="M277.52,-445C315.22,-445 384.81,-445 429.2,-445"/>
<polygon fill="black" stroke="black" points="429.36,-448.5 439.36,-445 429.36,-441.5 429.36,-448.5"/>
</g>
<!-- n7_port_0 -->
<g id="node61" class="node">
<title>n7_port_0</title>
<polygon fill="white" stroke="black" points="502.53,-539.33 471.1,-562.43 439.67,-539.33 439.7,-501.96 502.5,-501.96 502.53,-539.33"/>
<text text-anchor="middle" x="471.1" y="-532.8" font-family="Times,serif" font-size="14.00">d</text>
<text text-anchor="middle" x="471.1" y="-517.8" font-family="Times,serif" font-size="14.00">int</text>
</g>
<!-- n0_place_4&#45;&gt;n7_port_0 -->
<g id="edge28" class="edge">
<title>n0_place_4&#45;&gt;n7_port_0</title>
<path fill="none" stroke="black" d="M297.01,-529C336.11,-529 391.75,-529 429.3,-529"/>
<polygon fill="black" stroke="black" points="429.38,-532.5 439.38,-529 429.38,-525.5 429.38,-532.5"/>
</g>
<!-- n0_place_3 -->
<g id="node17" class="node">
<title>n0_place_3</title>
<ellipse fill="white" stroke="black" cx="692.09" cy="-1291" rx="82.96" ry="37.45"/>
<text text-anchor="middle" x="692.09" y="-1302.3" font-family="Times,serif" font-size="14.00">counter_total</text>
<text text-anchor="middle" x="692.09" y="-1287.3" font-family="Times,serif" font-size="14.00">unsigned long</text>
<text text-anchor="middle" x="692.09" y="-1272.3" font-family="Times,serif" font-size="14.00">0UL</text>
</g>
<!-- n1_port_1 -->
<g id="node25" class="node">
<title>n1_port_1</title>
<polygon fill="white" stroke="black" points="1074.35,-1217.33 972.32,-1240.43 870.3,-1217.33 870.39,-1179.96 1074.25,-1179.96 1074.35,-1217.33"/>
<text text-anchor="middle" x="972.32" y="-1210.8" font-family="Times,serif" font-size="14.00">counter_total</text>
<text text-anchor="middle" x="972.32" y="-1195.8" font-family="Times,serif" font-size="14.00">unsigned long</text>
</g>
<!-- n0_place_3&#45;&gt;n1_port_1 -->
<g id="edge2" class="edge">
<title>n0_place_3&#45;&gt;n1_port_1</title>
<path fill="none" stroke="black" d="M754.15,-1266.13C769.87,-1260.14 786.87,-1254.02 802.82,-1249 829.97,-1240.46 860.01,-1232.5 887.12,-1225.86"/>
<polygon fill="black" stroke="black" points="888.07,-1229.24 896.96,-1223.48 886.42,-1222.43 888.07,-1229.24"/>
</g>
<!-- n3_port_1 -->
<g id="node37" class="node">
<title>n3_port_1</title>
<polygon fill="white" stroke="black" points="1074.35,-1585.33 972.32,-1608.43 870.3,-1585.33 870.39,-1547.96 1074.25,-1547.96 1074.35,-1585.33"/>
<text text-anchor="middle" x="972.32" y="-1578.8" font-family="Times,serif" font-size="14.00">counter_total</text>
<text text-anchor="middle" x="972.32" y="-1563.8" font-family="Times,serif" font-size="14.00">unsigned long</text>
</g>
<!-- n0_place_3&#45;&gt;n3_port_1 -->
<g id="edge11" class="edge">
<title>n0_place_3&#45;&gt;n3_port_1</title>
<path fill="none" stroke="black" d="M709.32,-1327.89C738.82,-1394.75 798.56,-1529.45 802.82,-1533 819.22,-1546.66 839.43,-1555.98 860.09,-1562.31"/>
<polygon fill="black" stroke="black" points="859.36,-1565.74 869.93,-1565.1 861.27,-1559.01 859.36,-1565.74"/>
</g>
<!-- n0_place_1 -->
<g id="node19" class="node">
<title>n0_place_1</title>
<ellipse fill="white" stroke="black" cx="692.09" cy="-2137" rx="47.25" ry="26.74"/>
<text text-anchor="middle" x="692.09" y="-2140.8" font-family="Times,serif" font-size="14.00">ms</text>
<text text-anchor="middle" x="692.09" y="-2125.8" font-family="Times,serif" font-size="14.00">control</text>
</g>
<!-- n2_port_0 -->
<g id="node29" class="node">
<title>n2_port_0</title>
<polygon fill="white" stroke="black" points="1030.94,-2147.33 972.32,-2170.43 913.7,-2147.33 913.76,-2109.96 1030.89,-2109.96 1030.94,-2147.33"/>
<text text-anchor="middle" x="972.32" y="-2140.8" font-family="Times,serif" font-size="14.00">ms</text>
<text text-anchor="middle" x="972.32" y="-2125.8" font-family="Times,serif" font-size="14.00">control</text>
</g>
<!-- n0_place_1&#45;&gt;n2_port_0 -->
<g id="edge7" class="edge">
<title>n0_place_1&#45;&gt;n2_port_0</title>
<path fill="none" stroke="black" d="M739.66,-2137C784.38,-2137 852.45,-2137 903.25,-2137"/>
<polygon fill="black" stroke="black" points="903.49,-2140.5 913.49,-2137 903.49,-2133.5 903.49,-2140.5"/>
</g>
<!-- n0_place_0 -->
<g id="node20" class="node">
<title>n0_place_0</title>
<ellipse fill="white" stroke="black" cx="692.09" cy="-1126" rx="47.25" ry="26.74"/>
<text text-anchor="middle" x="692.09" y="-1129.8" font-family="Times,serif" font-size="14.00">ns</text>
<text text-anchor="middle" x="692.09" y="-1114.8" font-family="Times,serif" font-size="14.00">control</text>
</g>
<!-- n1_port_0 -->
<g id="node24" class="node">
<title>n1_port_0</title>
<polygon fill="white" stroke="black" points="1030.94,-1133.33 972.32,-1156.43 913.7,-1133.33 913.76,-1095.96 1030.89,-1095.96 1030.94,-1133.33"/>
<text text-anchor="middle" x="972.32" y="-1126.8" font-family="Times,serif" font-size="14.00">ns</text>
<text text-anchor="middle" x="972.32" y="-1111.8" font-family="Times,serif" font-size="14.00">control</text>
</g>
<!-- n0_place_0&#45;&gt;n1_port_0 -->
<g id="edge3" class="edge">
<title>n0_place_0&#45;&gt;n1_port_0</title>
<path fill="none" stroke="black" d="M739.66,-1125.5C784.38,-1125.02 852.45,-1124.28 903.25,-1123.73"/>
<polygon fill="black" stroke="black" points="903.53,-1127.23 913.49,-1123.62 903.45,-1120.23 903.53,-1127.23"/>
</g>
<!-- n5_port_1 -->
<g id="node50" class="node">
<title>n5_port_1</title>
<polygon fill="white" stroke="black" points="1006.5,-933.33 972.32,-956.43 938.15,-933.33 938.18,-895.96 1006.46,-895.96 1006.5,-933.33"/>
<text text-anchor="middle" x="972.32" y="-926.8" font-family="Times,serif" font-size="14.00">G</text>
<text text-anchor="middle" x="972.32" y="-911.8" font-family="Times,serif" font-size="14.00">list</text>
</g>
<!-- n0_place_13&#45;&gt;n5_port_1 -->
<g id="edge20" class="edge">
<title>n0_place_13&#45;&gt;n5_port_1</title>
<path fill="none" stroke="black" stroke-dasharray="5,2" d="M731.28,-1192.01C747.17,-1185.92 764.32,-1176.44 774.82,-1162 826.58,-1090.83 744.05,-1031.49 802.82,-966 833.97,-931.29 888.88,-922.81 927.54,-921.55"/>
<polygon fill="black" stroke="black" points="928.04,-925.04 937.97,-921.37 927.92,-918.04 928.04,-925.04"/>
</g>
<!-- n0_place_14 -->
<g id="node22" class="node">
<title>n0_place_14</title>
<ellipse fill="white" stroke="black" cx="692.09" cy="-971" rx="50.41" ry="37.45"/>
<text text-anchor="middle" x="692.09" y="-982.3" font-family="Times,serif" font-size="14.00">counter</text>
<text text-anchor="middle" x="692.09" y="-967.3" font-family="Times,serif" font-size="14.00">int</text>
<text text-anchor="middle" x="692.09" y="-952.3" font-family="Times,serif" font-size="14.00">3</text>
</g>
<!-- n6_port_4 -->
<g id="node56" class="node">
<title>n6_port_4</title>
<polygon fill="white" stroke="black" points="1034.43,-455.33 972.32,-478.43 910.21,-455.33 910.27,-417.96 1034.38,-417.96 1034.43,-455.33"/>
<text text-anchor="middle" x="972.32" y="-448.8" font-family="Times,serif" font-size="14.00">counter</text>
<text text-anchor="middle" x="972.32" y="-433.8" font-family="Times,serif" font-size="14.00">int</text>
</g>
<!-- n0_place_14&#45;&gt;n6_port_4 -->
<g id="edge24" class="edge">
<title>n0_place_14&#45;&gt;n6_port_4</title>
<path fill="none" stroke="black" d="M696.57,-933.46C706.8,-831.2 740.06,-551.11 802.82,-487 827.95,-461.33 866.2,-450.45 899.91,-446.17"/>
<polygon fill="black" stroke="black" points="900.65,-449.61 910.2,-445.04 899.88,-442.65 900.65,-449.61"/>
</g>
<!-- n1_condition -->
<g id="node23" class="node">
<title>n1_condition</title>
<polygon fill="white" stroke="black" points="924.82,-1343 924.82,-1379 1019.82,-1379 1019.82,-1343 924.82,-1343"/>
<text text-anchor="middle" x="972.32" y="-1357.3" font-family="Times,serif" font-size="14.00">transition6</text>
</g>
<!-- n1_port_2 -->
<g id="node26" class="node">
<title>n1_port_2</title>
<polygon fill="white" stroke="black" points="870.3,-1280.67 972.32,-1257.57 1074.35,-1280.67 1074.25,-1318.04 870.39,-1318.04 870.3,-1280.67"/>
<text text-anchor="middle" x="972.32" y="-1294.8" font-family="Times,serif" font-size="14.00">counter_total</text>
<text text-anchor="middle" x="972.32" y="-1279.8" font-family="Times,serif" font-size="14.00">unsigned long</text>
</g>
<!-- n1_port_2&#45;&gt;n0_place_3 -->
<g id="edge1" class="edge">
<title>n1_port_2&#45;&gt;n0_place_3</title>
<path fill="none" stroke="black" d="M870.21,-1291C842.48,-1291 812.56,-1291 785.35,-1291"/>
<polygon fill="black" stroke="black" points="785.06,-1287.5 775.06,-1291 785.06,-1294.5 785.06,-1287.5"/>
</g>
<!-- n1_modcall -->
<g id="node27" class="node">
<title>n1_modcall</title>
<polygon fill="white" stroke="black" points="1072.82,-1072 871.82,-1072 871.82,-1036 1072.82,-1036 1072.82,-1072"/>
<text text-anchor="middle" x="972.32" y="-1050.3" font-family="Times,serif" font-size="14.00">feynman_module.control1</text>
</g>
<!-- n2_condition -->
<g id="node28" class="node">
<title>n2_condition</title>
<polygon fill="white" stroke="black" points="920.32,-2357 920.32,-2393 1024.32,-2393 1024.32,-2357 920.32,-2357"/>
<text text-anchor="middle" x="972.32" y="-2371.3" font-family="Times,serif" font-size="14.00">transition61</text>
</g>
<!-- n2_port_2 -->
<g id="node32" class="node">
<title>n2_port_2</title>
<polygon fill="white" stroke="black" points="910.21,-1958.67 972.32,-1935.57 1034.43,-1958.67 1034.38,-1996.04 910.27,-1996.04 910.21,-1958.67"/>
<text text-anchor="middle" x="972.32" y="-1972.8" font-family="Times,serif" font-size="14.00">counter</text>
<text text-anchor="middle" x="972.32" y="-1957.8" font-family="Times,serif" font-size="14.00">int</text>
</g>
<!-- n2_port_2&#45;&gt;n0_place_14 -->
<g id="edge4" class="edge">
<title>n2_port_2&#45;&gt;n0_place_14</title>
<path fill="none" stroke="black" d="M909.88,-1970.85C872.86,-1968.37 828.13,-1958.3 802.82,-1927 744.31,-1854.64 803.88,-1178.4 774.82,-1090 765.06,-1060.31 745.42,-1031.31 727.84,-1009.38"/>
<polygon fill="black" stroke="black" points="730.53,-1007.13 721.48,-1001.63 725.12,-1011.58 730.53,-1007.13"/>
</g>
<!-- n2_port_4 -->
<g id="node33" class="node">
<title>n2_port_4</title>
<polygon fill="white" stroke="black" points="928.42,-2294.67 972.32,-2271.57 1016.23,-2294.67 1016.18,-2332.04 928.46,-2332.04 928.42,-2294.67"/>
<text text-anchor="middle" x="972.32" y="-2308.8" font-family="Times,serif" font-size="14.00">limit</text>
<text text-anchor="middle" x="972.32" y="-2293.8" font-family="Times,serif" font-size="14.00">int</text>
</g>
<!-- n2_port_4&#45;&gt;n0_place_10 -->
<g id="edge5" class="edge">
<title>n2_port_4&#45;&gt;n0_place_10</title>
<path fill="none" stroke="black" d="M928.25,-2298.5C876.34,-2290.66 789.57,-2277.56 737.2,-2269.66"/>
<polygon fill="black" stroke="black" points="737.62,-2266.18 727.21,-2268.15 736.57,-2273.1 737.62,-2266.18"/>
</g>
<!-- n2_modcall -->
<g id="node34" class="node">
<title>n2_modcall</title>
<polygon fill="white" stroke="black" points="1072.82,-1918 871.82,-1918 871.82,-1882 1072.82,-1882 1072.82,-1918"/>
<text text-anchor="middle" x="972.32" y="-1896.3" font-family="Times,serif" font-size="14.00">feynman_module.control2</text>
</g>
<!-- n3_condition -->
<g id="node35" class="node">
<title>n3_condition</title>
<polygon fill="white" stroke="black" points="851.32,-1795 851.32,-1857 1093.32,-1857 1093.32,-1795 851.32,-1795"/>
<text text-anchor="middle" x="972.32" y="-1841.8" font-family="Times,serif" font-size="14.00">transition7</text>
<polyline fill="none" stroke="black" points="851.32,-1834 1093.32,-1834 "/>
<text text-anchor="middle" x="972.32" y="-1818.8" font-family="Times,serif" font-size="14.00">(${counter_total} == ${total})</text>
</g>
<!-- n3_port_3 -->
<g id="node39" class="node">
<title>n3_port_3</title>
<polygon fill="white" stroke="black" points="870.3,-1480.67 972.32,-1457.57 1074.35,-1480.67 1074.25,-1518.04 870.39,-1518.04 870.3,-1480.67"/>
<text text-anchor="middle" x="972.32" y="-1494.8" font-family="Times,serif" font-size="14.00">answer</text>
<text text-anchor="middle" x="972.32" y="-1479.8" font-family="Times,serif" font-size="14.00">unsigned long</text>
</g>
<!-- n3_port_3&#45;&gt;n0_place_2 -->
<g id="edge9" class="edge">
<title>n3_port_3&#45;&gt;n0_place_2</title>
<path fill="none" stroke="black" d="M1074.66,-1485.07C1099.67,-1478.85 1124.29,-1467.9 1141.82,-1449 1224.37,-1360.04 1245.66,-968.44 1250.36,-845.24"/>
<polygon fill="black" stroke="black" points="1253.86,-845.29 1250.73,-835.17 1246.87,-845.03 1253.86,-845.29"/>
</g>
<!-- n3_modcall -->
<g id="node40" class="node">
<title>n3_modcall</title>
<polygon fill="white" stroke="black" points="1058.82,-1440 885.82,-1440 885.82,-1404 1058.82,-1404 1058.82,-1440"/>
<text text-anchor="middle" x="972.32" y="-1418.3" font-family="Times,serif" font-size="14.00">feynman_module.final</text>
</g>
<!-- n4_condition -->
<g id="node41" class="node">
<title>n4_condition</title>
<polygon fill="white" stroke="black" points="423.6,-1742 423.6,-1778 518.6,-1778 518.6,-1742 423.6,-1742"/>
<text text-anchor="middle" x="471.1" y="-1756.3" font-family="Times,serif" font-size="14.00">transition5</text>
</g>
<!-- n4_port_1 -->
<g id="node44" class="node">
<title>n4_port_1</title>
<polygon fill="white" stroke="black" points="412.48,-1343.67 471.1,-1320.57 529.72,-1343.67 529.66,-1381.04 412.53,-1381.04 412.48,-1343.67"/>
<text text-anchor="middle" x="471.1" y="-1357.8" font-family="Times,serif" font-size="14.00">ns</text>
<text text-anchor="middle" x="471.1" y="-1342.8" font-family="Times,serif" font-size="14.00">control</text>
</g>
<!-- n4_port_1&#45;&gt;n0_place_0 -->
<g id="edge15" class="edge">
<title>n4_port_1&#45;&gt;n0_place_0</title>
<path fill="none" stroke="black" d="M529.84,-1343.58C548.79,-1337.41 568.32,-1327.59 581.36,-1312 623.75,-1261.32 569.24,-1218.5 609.36,-1166 617.23,-1155.7 628.45,-1147.89 640.07,-1142.04"/>
<polygon fill="black" stroke="black" points="641.79,-1145.1 649.42,-1137.75 638.87,-1138.74 641.79,-1145.1"/>
</g>
<!-- n4_port_2 -->
<g id="node45" class="node">
<title>n4_port_2</title>
<polygon fill="white" stroke="black" points="412.48,-1595.67 471.1,-1572.57 529.72,-1595.67 529.66,-1633.04 412.53,-1633.04 412.48,-1595.67"/>
<text text-anchor="middle" x="471.1" y="-1609.8" font-family="Times,serif" font-size="14.00">ms</text>
<text text-anchor="middle" x="471.1" y="-1594.8" font-family="Times,serif" font-size="14.00">control</text>
</g>
<!-- n4_port_2&#45;&gt;n0_place_1 -->
<g id="edge13" class="edge">
<title>n4_port_2&#45;&gt;n0_place_1</title>
<path fill="none" stroke="black" d="M529.84,-1615.16C549.26,-1621.22 569.1,-1631.28 581.36,-1648 641,-1729.33 551.68,-2018.26 609.36,-2101 616.36,-2111.04 626.8,-2118.31 637.91,-2123.56"/>
<polygon fill="black" stroke="black" points="636.76,-2126.87 647.34,-2127.52 639.47,-2120.42 636.76,-2126.87"/>
</g>
<!-- n4_port_4 -->
<g id="node46" class="node">
<title>n4_port_4</title>
<polygon fill="white" stroke="black" points="369.07,-1427.67 471.1,-1404.57 573.12,-1427.67 573.03,-1465.04 369.17,-1465.04 369.07,-1427.67"/>
<text text-anchor="middle" x="471.1" y="-1441.8" font-family="Times,serif" font-size="14.00">sum</text>
<text text-anchor="middle" x="471.1" y="-1426.8" font-family="Times,serif" font-size="14.00">unsigned long</text>
</g>
<!-- n4_port_4&#45;&gt;n0_place_9 -->
<g id="edge14" class="edge">
<title>n4_port_4&#45;&gt;n0_place_9</title>
<path fill="none" stroke="black" d="M542.9,-1465.16C567.17,-1474.47 594.35,-1484.89 618.74,-1494.25"/>
<polygon fill="black" stroke="black" points="617.7,-1497.6 628.29,-1497.91 620.21,-1491.06 617.7,-1497.6"/>
</g>
<!-- n4_modcall -->
<g id="node47" class="node">
<title>n4_modcall</title>
<polygon fill="white" stroke="black" points="557.1,-1303 385.1,-1303 385.1,-1267 557.1,-1267 557.1,-1303"/>
<text text-anchor="middle" x="471.1" y="-1281.3" font-family="Times,serif" font-size="14.00">feynman_module.plus</text>
</g>
<!-- n5_condition -->
<g id="node48" class="node">
<title>n5_condition</title>
<polygon fill="white" stroke="black" points="924.82,-975 924.82,-1011 1019.82,-1011 1019.82,-975 924.82,-975"/>
<text text-anchor="middle" x="972.32" y="-989.3" font-family="Times,serif" font-size="14.00">transition4</text>
</g>
<!-- n5_port_2 -->
<g id="node51" class="node">
<title>n5_port_2</title>
<polygon fill="white" stroke="black" points="870.3,-828.67 972.32,-805.57 1074.35,-828.67 1074.25,-866.04 870.39,-866.04 870.3,-828.67"/>
<text text-anchor="middle" x="972.32" y="-842.8" font-family="Times,serif" font-size="14.00">fey</text>
<text text-anchor="middle" x="972.32" y="-827.8" font-family="Times,serif" font-size="14.00">unsigned long</text>
</g>
<!-- n5_port_2&#45;&gt;n0_place_12 -->
<g id="edge18" class="edge">
<title>n5_port_2&#45;&gt;n0_place_12</title>
<path fill="none" stroke="black" d="M869.96,-848.09C794.25,-858.32 690.32,-879.88 609.36,-925 458.27,-1009.21 327.57,-1175.21 275.35,-1247.26"/>
<polygon fill="black" stroke="black" points="272.37,-1245.41 269.37,-1255.57 278.05,-1249.5 272.37,-1245.41"/>
</g>
<!-- n5_modcall -->
<g id="node52" class="node">
<title>n5_modcall</title>
<polygon fill="white" stroke="black" points="1133.82,-704 810.82,-704 810.82,-668 1133.82,-668 1133.82,-704"/>
<text text-anchor="middle" x="972.32" y="-682.3" font-family="Times,serif" font-size="14.00">feynman_module.feynman_integral_degree</text>
</g>
<!-- n6_condition -->
<g id="node53" class="node">
<title>n6_condition</title>
<polygon fill="white" stroke="black" points="902.82,-581 902.82,-643 1041.82,-643 1041.82,-581 902.82,-581"/>
<text text-anchor="middle" x="972.32" y="-627.8" font-family="Times,serif" font-size="14.00">transition3</text>
<polyline fill="none" stroke="black" points="902.82,-620 1041.82,-620 "/>
<text text-anchor="middle" x="972.32" y="-604.8" font-family="Times,serif" font-size="14.00">(${counter} &gt; 0)</text>
</g>
<!-- n6_port_2 -->
<g id="node57" class="node">
<title>n6_port_2</title>
<polygon fill="white" stroke="black" points="936.65,-350.67 972.32,-327.57 1007.99,-350.67 1007.96,-388.04 936.68,-388.04 936.65,-350.67"/>
<text text-anchor="middle" x="972.32" y="-364.8" font-family="Times,serif" font-size="14.00">vec</text>
<text text-anchor="middle" x="972.32" y="-349.8" font-family="Times,serif" font-size="14.00">list</text>
</g>
<!-- n6_port_2&#45;&gt;n0_place_8 -->
<g id="edge22" class="edge">
<title>n6_port_2&#45;&gt;n0_place_8</title>
<path fill="none" stroke="black" d="M936.42,-363C889.92,-363 807.01,-363 751.04,-363"/>
<path fill="none" stroke="transparent" d="M936.42,-361C889.92,-361 807.01,-361 751.04,-361"/>
<path fill="none" stroke="black" d="M936.42,-359C889.92,-359 807.01,-359 751.04,-359"/>
<polygon fill="black" stroke="black" points="750.92,-357.5 740.92,-361 750.92,-364.5 750.92,-357.5"/>
</g>
<!-- n6_port_3 -->
<g id="node58" class="node">
<title>n6_port_3</title>
<polygon fill="white" stroke="black" points="902.48,-266.67 972.32,-243.57 1042.17,-266.67 1042.1,-304.04 902.54,-304.04 902.48,-266.67"/>
<text text-anchor="middle" x="972.32" y="-280.8" font-family="Times,serif" font-size="14.00">vec_copy</text>
<text text-anchor="middle" x="972.32" y="-265.8" font-family="Times,serif" font-size="14.00">list</text>
</g>
<!-- n6_port_3&#45;&gt;n0_place_11 -->
<g id="edge21" class="edge">
<title>n6_port_3&#45;&gt;n0_place_11</title>
<path fill="none" stroke="black" d="M902.49,-279C851.9,-279 784.49,-279 739.99,-279"/>
<path fill="none" stroke="transparent" d="M902.49,-277C851.9,-277 784.49,-277 739.99,-277"/>
<path fill="none" stroke="black" d="M902.49,-275C851.9,-275 784.49,-275 739.99,-275"/>
<polygon fill="black" stroke="black" points="739.75,-273.5 729.75,-277 739.75,-280.5 739.75,-273.5"/>
</g>
<!-- n6_modcall -->
<g id="node59" class="node">
<title>n6_modcall</title>
<polygon fill="white" stroke="black" points="1070.82,-142 873.82,-142 873.82,-106 1070.82,-106 1070.82,-142"/>
<text text-anchor="middle" x="972.32" y="-120.3" font-family="Times,serif" font-size="14.00">feynman_module.iterator</text>
</g>
<!-- n7_condition -->
<g id="node60" class="node">
<title>n7_condition</title>
<polygon fill="white" stroke="black" points="423.6,-581 423.6,-617 518.6,-617 518.6,-581 423.6,-581"/>
<text text-anchor="middle" x="471.1" y="-595.3" font-family="Times,serif" font-size="14.00">transition2</text>
</g>
<!-- n7_port_2 -->
<g id="node63" class="node">
<title>n7_port_2</title>
<polygon fill="white" stroke="black" points="435.43,-350.67 471.1,-327.57 506.77,-350.67 506.74,-388.04 435.46,-388.04 435.43,-350.67"/>
<text text-anchor="middle" x="471.1" y="-364.8" font-family="Times,serif" font-size="14.00">vec</text>
<text text-anchor="middle" x="471.1" y="-349.8" font-family="Times,serif" font-size="14.00">list</text>
</g>
<!-- n7_port_2&#45;&gt;n0_place_8 -->
<g id="edge27" class="edge">
<title>n7_port_2&#45;&gt;n0_place_8</title>
<path fill="none" stroke="black" d="M506.8,-359C540.64,-359 592.73,-359 632.91,-359"/>
<path fill="none" stroke="transparent" d="M506.8,-361C540.64,-361 592.73,-361 632.91,-361"/>
<path fill="none" stroke="black" d="M506.8,-363C540.64,-363 592.73,-363 632.91,-363"/>
<polygon fill="black" stroke="black" points="633.11,-364.5 643.11,-361 633.11,-357.5 633.11,-364.5"/>
</g>
<!-- n7_port_3 -->
<g id="node64" class="node">
<title>n7_port_3</title>
<polygon fill="white" stroke="black" points="401.25,-266.67 471.1,-243.57 540.94,-266.67 540.88,-304.04 401.32,-304.04 401.25,-266.67"/>
<text text-anchor="middle" x="471.1" y="-280.8" font-family="Times,serif" font-size="14.00">vec_copy</text>
<text text-anchor="middle" x="471.1" y="-265.8" font-family="Times,serif" font-size="14.00">list</text>
</g>
<!-- n7_port_3&#45;&gt;n0_place_11 -->
<g id="edge26" class="edge">
<title>n7_port_3&#45;&gt;n0_place_11</title>
<path fill="none" stroke="black" d="M541.09,-275C574.73,-275 614.32,-275 644.37,-275"/>
<path fill="none" stroke="transparent" d="M541.09,-277C574.73,-277 614.32,-277 644.37,-277"/>
<path fill="none" stroke="black" d="M541.09,-279C574.73,-279 614.32,-279 644.37,-279"/>
<polygon fill="black" stroke="black" points="644.58,-280.5 654.58,-277 644.58,-273.5 644.58,-280.5"/>
</g>
<!-- n7_modcall -->
<g id="node65" class="node">
<title>n7_modcall</title>
<polygon fill="white" stroke="black" points="562.1,-226 380.1,-226 380.1,-190 562.1,-190 562.1,-226"/>
<text text-anchor="middle" x="471.1" y="-204.3" font-family="Times,serif" font-size="14.00">feynman_module.iterat</text>
</g>
</g>
</svg>
