<?xml version="1.0" encoding="UTF-8" standalone="no"?>
<!DOCTYPE svg PUBLIC "-//W3C//DTD SVG 1.1//EN"
 "http://www.w3.org/Graphics/SVG/1.1/DTD/svg11.dtd">
<!-- Generated by graphviz version 2.43.0 (0)
 -->
<!-- Title: feynman_deg Pages: 1 -->
<svg width="3165pt" height="1126pt"
 viewBox="0.00 0.00 3164.55 1126.00" xmlns="http://www.w3.org/2000/svg" xmlns:xlink="http://www.w3.org/1999/xlink">
<g id="graph0" class="graph" transform="scale(1 1) rotate(0) translate(4 1122)">
<title>feynman_deg</title>
<polygon fill="white" stroke="transparent" points="-4,4 -4,-1122 3160.55,-1122 3160.55,4 -4,4"/>
<g id="clust1" class="cluster">
<title>cluster_0</title>
<polygon fill="dimgray" stroke="black" points="8,-8 8,-1110 3148.55,-1110 3148.55,-8 8,-8"/>
</g>
<g id="clust2" class="cluster">
<title>cluster_net_0</title>
<polygon fill="white" stroke="black" points="159.37,-90 159.37,-944 3140.55,-944 3140.55,-90 159.37,-90"/>
</g>
<g id="clust3" class="cluster">
<title>cluster_1</title>
<polygon fill="yellow" stroke="black" points="2810.38,-240 2810.38,-516 3008.38,-516 3008.38,-240 2810.38,-240"/>
</g>
<g id="clust4" class="cluster">
<title>cluster_2</title>
<polygon fill="yellow" stroke="black" points="2390.32,-466 2390.32,-936 2648.32,-936 2648.32,-466 2390.32,-466"/>
</g>
<g id="clust5" class="cluster">
<title>cluster_3</title>
<polygon fill="yellow" stroke="black" points="2409.05,-98 2409.05,-458 2629.58,-458 2629.58,-98 2409.05,-98"/>
</g>
<g id="clust6" class="cluster">
<title>cluster_4</title>
<polygon fill="yellow" stroke="black" points="1964.59,-240 1964.59,-684 2152.59,-684 2152.59,-240 1964.59,-240"/>
</g>
<g id="clust7" class="cluster">
<title>cluster_5</title>
<polygon fill="yellow" stroke="black" points="1457.16,-492 1457.16,-936 1796.16,-936 1796.16,-492 1457.16,-492"/>
</g>
<g id="clust8" class="cluster">
<title>cluster_6</title>
<polygon fill="yellow" stroke="black" points="1042.57,-555 1042.57,-831 1262.57,-831 1262.57,-555 1042.57,-555"/>
</g>
<g id="clust9" class="cluster">
<title>cluster_7</title>
<polygon fill="yellow" stroke="black" points="631.36,-576 631.36,-936 866.36,-936 866.36,-576 631.36,-576"/>
</g>
<g id="clust10" class="cluster">
<title>cluster_8</title>
<polygon fill="yellow" stroke="black" points="288.71,-660 288.71,-936 470.71,-936 470.71,-660 288.71,-660"/>
</g>
<!-- n0_condition -->
<g id="node1" class="node">
<title>n0_condition</title>
<polygon fill="white" stroke="black" points="18.19,-978 18.19,-1014 129.19,-1014 129.19,-978 18.19,-978"/>
<text text-anchor="middle" x="73.69" y="-992.3" font-family="Times,serif" font-size="14.00">feynman_deg</text>
</g>
<!-- n0_port_0 -->
<g id="node2" class="node">
<title>n0_port_0</title>
<polygon fill="white" stroke="black" points="131.56,-849.33 73.69,-872.43 15.81,-849.33 15.87,-811.96 131.5,-811.96 131.56,-849.33"/>
<text text-anchor="middle" x="73.69" y="-842.8" font-family="Times,serif" font-size="14.00">degree</text>
<text text-anchor="middle" x="73.69" y="-827.8" font-family="Times,serif" font-size="14.00">int</text>
</g>
<!-- n0_place_0 -->
<g id="node20" class="node">
<title>n0_place_0</title>
<ellipse fill="white" stroke="black" cx="214.04" cy="-839" rx="46.84" ry="26.74"/>
<text text-anchor="middle" x="214.04" y="-842.8" font-family="Times,serif" font-size="14.00">degree</text>
<text text-anchor="middle" x="214.04" y="-827.8" font-family="Times,serif" font-size="14.00">int</text>
</g>
<!-- n0_port_0&#45;&gt;n0_place_0 -->
<g id="edge25" class="edge">
<title>n0_port_0&#45;&gt;n0_place_0</title>
<path fill="none" stroke="black" stroke-dasharray="1,5" d="M131.76,-839C143.52,-839 155.76,-839 167.07,-839"/>
</g>
<!-- n0_port_1 -->
<g id="node3" class="node">
<title>n0_port_1</title>
<polygon fill="white" stroke="black" points="1190.24,-1079.33 1152.57,-1102.43 1114.9,-1079.33 1114.94,-1041.96 1190.2,-1041.96 1190.24,-1079.33"/>
<text text-anchor="middle" x="1152.57" y="-1072.8" font-family="Times,serif" font-size="14.00">deg</text>
<text text-anchor="middle" x="1152.57" y="-1057.8" font-family="Times,serif" font-size="14.00">int</text>
</g>
<!-- n0_place_4 -->
<g id="node16" class="node">
<title>n0_place_4</title>
<ellipse fill="white" stroke="black" cx="1359.87" cy="-874" rx="30.31" ry="26.74"/>
<text text-anchor="middle" x="1359.87" y="-877.8" font-family="Times,serif" font-size="14.00">deg</text>
<text text-anchor="middle" x="1359.87" y="-862.8" font-family="Times,serif" font-size="14.00">int</text>
</g>
<!-- n0_port_1&#45;&gt;n0_place_4 -->
<g id="edge26" class="edge">
<title>n0_port_1&#45;&gt;n0_place_4</title>
<path fill="none" stroke="black" stroke-dasharray="1,5" d="M1190.2,-1061.17C1212.92,-1054.88 1241.66,-1044.2 1262.57,-1027 1305.23,-991.91 1334.75,-932.75 1349.03,-899.2"/>
</g>
<!-- n0_port_2 -->
<g id="node4" class="node">
<title>n0_port_2</title>
<polygon fill="white" stroke="black" points="2160.62,-995.33 2058.59,-1018.43 1956.57,-995.33 1956.66,-957.96 2160.52,-957.96 2160.62,-995.33"/>
<text text-anchor="middle" x="2058.59" y="-988.8" font-family="Times,serif" font-size="14.00">total</text>
<text text-anchor="middle" x="2058.59" y="-973.8" font-family="Times,serif" font-size="14.00">unsigned long</text>
</g>
<!-- n0_place_7 -->
<g id="node13" class="node">
<title>n0_place_7</title>
<ellipse fill="white" stroke="black" cx="2279.58" cy="-861" rx="82.96" ry="26.74"/>
<text text-anchor="middle" x="2279.58" y="-864.8" font-family="Times,serif" font-size="14.00">total</text>
<text text-anchor="middle" x="2279.58" y="-849.8" font-family="Times,serif" font-size="14.00">unsigned long</text>
</g>
<!-- n0_port_2&#45;&gt;n0_place_7 -->
<g id="edge27" class="edge">
<title>n0_port_2&#45;&gt;n0_place_7</title>
<path fill="none" stroke="black" stroke-dasharray="1,5" d="M2107.38,-957.94C2146.27,-935.92 2200.58,-905.17 2237.53,-884.25"/>
</g>
<!-- n0_port_3 -->
<g id="node5" class="node">
<title>n0_port_3</title>
<polygon fill="white" stroke="black" points="411.14,-995.33 379.71,-1018.43 348.28,-995.33 348.31,-957.96 411.11,-957.96 411.14,-995.33"/>
<text text-anchor="middle" x="379.71" y="-988.8" font-family="Times,serif" font-size="14.00">N</text>
<text text-anchor="middle" x="379.71" y="-973.8" font-family="Times,serif" font-size="14.00">int</text>
</g>
<!-- n0_place_5 -->
<g id="node15" class="node">
<title>n0_place_5</title>
<ellipse fill="white" stroke="black" cx="551.04" cy="-874" rx="27" ry="26.74"/>
<text text-anchor="middle" x="551.04" y="-877.8" font-family="Times,serif" font-size="14.00">N</text>
<text text-anchor="middle" x="551.04" y="-862.8" font-family="Times,serif" font-size="14.00">int</text>
</g>
<!-- n0_port_3&#45;&gt;n0_place_5 -->
<g id="edge28" class="edge">
<title>n0_port_3&#45;&gt;n0_place_5</title>
<path fill="none" stroke="black" stroke-dasharray="1,5" d="M411.25,-971.87C429.14,-963.66 451.85,-952.33 470.71,-940 492.61,-925.69 515.33,-906.24 530.81,-892.16"/>
</g>
<!-- n0_port_4 -->
<g id="node6" class="node">
<title>n0_port_4</title>
<polygon fill="white" stroke="black" points="1204.21,-995.33 1152.57,-1018.43 1100.93,-995.33 1100.98,-957.96 1204.16,-957.96 1204.21,-995.33"/>
<text text-anchor="middle" x="1152.57" y="-988.8" font-family="Times,serif" font-size="14.00">graph</text>
<text text-anchor="middle" x="1152.57" y="-973.8" font-family="Times,serif" font-size="14.00">list</text>
</g>
<!-- n0_place_12 -->
<g id="node8" class="node">
<title>n0_place_12</title>
<ellipse fill="white" stroke="black" cx="1359.87" cy="-761" rx="41.94" ry="26.74"/>
<text text-anchor="middle" x="1359.87" y="-764.8" font-family="Times,serif" font-size="14.00">graph</text>
<text text-anchor="middle" x="1359.87" y="-749.8" font-family="Times,serif" font-size="14.00">list</text>
</g>
<!-- n0_port_4&#45;&gt;n0_place_12 -->
<g id="edge29" class="edge">
<title>n0_port_4&#45;&gt;n0_place_12</title>
<path fill="none" stroke="black" stroke-dasharray="1,5" d="M1178.74,-957.53C1219.64,-912.91 1299.78,-825.47 1337.84,-783.95"/>
</g>
<!-- n0_port_5 -->
<g id="node7" class="node">
<title>n0_port_5</title>
<polygon fill="white" stroke="black" points="2850.01,-38.67 2909.38,-15.57 2968.75,-38.67 2968.7,-76.04 2850.07,-76.04 2850.01,-38.67"/>
<text text-anchor="middle" x="2909.38" y="-52.8" font-family="Times,serif" font-size="14.00">answer</text>
<text text-anchor="middle" x="2909.38" y="-37.8" font-family="Times,serif" font-size="14.00">string</text>
</g>
<!-- n0_place_9 -->
<g id="node11" class="node">
<title>n0_place_9</title>
<ellipse fill="white" stroke="black" cx="3084.47" cy="-159" rx="48.17" ry="26.74"/>
<text text-anchor="middle" x="3084.47" y="-162.8" font-family="Times,serif" font-size="14.00">answer</text>
<text text-anchor="middle" x="3084.47" y="-147.8" font-family="Times,serif" font-size="14.00">string</text>
</g>
<!-- n0_port_5&#45;&gt;n0_place_9 -->
<g id="edge30" class="edge">
<title>n0_port_5&#45;&gt;n0_place_9</title>
<path fill="none" stroke="black" stroke-dasharray="1,5" d="M2953.17,-76.19C2983.8,-95.66 3024.36,-121.44 3052.04,-139.03"/>
</g>
<!-- n5_port_2 -->
<g id="node46" class="node">
<title>n5_port_2</title>
<polygon fill="white" stroke="black" points="1660.84,-765.33 1626.66,-788.43 1592.49,-765.33 1592.52,-727.96 1660.81,-727.96 1660.84,-765.33"/>
<text text-anchor="middle" x="1626.66" y="-758.8" font-family="Times,serif" font-size="14.00">G</text>
<text text-anchor="middle" x="1626.66" y="-743.8" font-family="Times,serif" font-size="14.00">list</text>
</g>
<!-- n0_place_12&#45;&gt;n5_port_2 -->
<g id="edge16" class="edge">
<title>n0_place_12&#45;&gt;n5_port_2</title>
<path fill="none" stroke="black" stroke-dasharray="5,2" d="M1401.66,-760.08C1450.55,-758.97 1532.14,-757.12 1582.19,-755.99"/>
<polygon fill="black" stroke="black" points="1582.45,-759.48 1592.37,-755.75 1582.29,-752.48 1582.45,-759.48"/>
</g>
<!-- n0_place_11 -->
<g id="node9" class="node">
<title>n0_place_11</title>
<ellipse fill="white" stroke="black" cx="2279.58" cy="-361" rx="82.96" ry="37.45"/>
<text text-anchor="middle" x="2279.58" y="-372.3" font-family="Times,serif" font-size="14.00">counter_total</text>
<text text-anchor="middle" x="2279.58" y="-357.3" font-family="Times,serif" font-size="14.00">unsigned long</text>
<text text-anchor="middle" x="2279.58" y="-342.3" font-family="Times,serif" font-size="14.00">0UL</text>
</g>
<!-- n2_port_1 -->
<g id="node28" class="node">
<title>n2_port_1</title>
<polygon fill="white" stroke="black" points="2621.34,-655.33 2519.32,-678.43 2417.29,-655.33 2417.39,-617.96 2621.25,-617.96 2621.34,-655.33"/>
<text text-anchor="middle" x="2519.32" y="-648.8" font-family="Times,serif" font-size="14.00">counter_total</text>
<text text-anchor="middle" x="2519.32" y="-633.8" font-family="Times,serif" font-size="14.00">unsigned long</text>
</g>
<!-- n0_place_11&#45;&gt;n2_port_1 -->
<g id="edge5" class="edge">
<title>n0_place_11&#45;&gt;n2_port_1</title>
<path fill="none" stroke="black" d="M2316.91,-394.75C2333.21,-411.87 2351.24,-433.91 2362.32,-457 2390.9,-516.57 2346.67,-553.4 2390.32,-603 2395.58,-608.99 2401.72,-614.13 2408.4,-618.53"/>
<polygon fill="black" stroke="black" points="2406.75,-621.62 2417.13,-623.74 2410.33,-615.61 2406.75,-621.62"/>
</g>
<!-- n3_port_1 -->
<g id="node34" class="node">
<title>n3_port_1</title>
<polygon fill="white" stroke="black" points="2621.34,-287.33 2519.32,-310.43 2417.29,-287.33 2417.39,-249.96 2621.25,-249.96 2621.34,-287.33"/>
<text text-anchor="middle" x="2519.32" y="-280.8" font-family="Times,serif" font-size="14.00">counter_total</text>
<text text-anchor="middle" x="2519.32" y="-265.8" font-family="Times,serif" font-size="14.00">unsigned long</text>
</g>
<!-- n0_place_11&#45;&gt;n3_port_1 -->
<g id="edge8" class="edge">
<title>n0_place_11&#45;&gt;n3_port_1</title>
<path fill="none" stroke="black" d="M2342.77,-336.6C2358.25,-330.69 2374.84,-324.5 2390.32,-319 2408.8,-312.43 2428.92,-305.66 2447.61,-299.52"/>
<polygon fill="black" stroke="black" points="2448.82,-302.81 2457.23,-296.38 2446.64,-296.16 2448.82,-302.81"/>
</g>
<!-- n0_place_10 -->
<g id="node10" class="node">
<title>n0_place_10</title>
<ellipse fill="white" stroke="black" cx="954.47" cy="-692" rx="60.21" ry="26.74"/>
<text text-anchor="middle" x="954.47" y="-695.8" font-family="Times,serif" font-size="14.00">d_vectors</text>
<text text-anchor="middle" x="954.47" y="-680.8" font-family="Times,serif" font-size="14.00">list</text>
</g>
<!-- n6_port_0 -->
<g id="node50" class="node">
<title>n6_port_0</title>
<polygon fill="white" stroke="black" points="1186.75,-744.33 1152.57,-767.43 1118.4,-744.33 1118.43,-706.96 1186.71,-706.96 1186.75,-744.33"/>
<text text-anchor="middle" x="1152.57" y="-737.8" font-family="Times,serif" font-size="14.00">v</text>
<text text-anchor="middle" x="1152.57" y="-722.8" font-family="Times,serif" font-size="14.00">list</text>
</g>
<!-- n0_place_10&#45;&gt;n6_port_0 -->
<g id="edge19" class="edge">
<title>n0_place_10&#45;&gt;n6_port_0</title>
<path fill="none" stroke="black" d="M1009.05,-703.48C1040.3,-710.17 1079.18,-718.5 1108.44,-724.76"/>
<polygon fill="black" stroke="black" points="1107.85,-728.22 1118.36,-726.89 1109.31,-721.37 1107.85,-728.22"/>
</g>
<!-- n0_place_8 -->
<g id="node12" class="node">
<title>n0_place_8</title>
<ellipse fill="white" stroke="black" cx="551.04" cy="-755" rx="52.15" ry="26.74"/>
<text text-anchor="middle" x="551.04" y="-758.8" font-family="Times,serif" font-size="14.00">degrees</text>
<text text-anchor="middle" x="551.04" y="-743.8" font-family="Times,serif" font-size="14.00">int</text>
</g>
<!-- n7_port_0 -->
<g id="node54" class="node">
<title>n7_port_0</title>
<polygon fill="white" stroke="black" points="780.29,-765.33 748.86,-788.43 717.43,-765.33 717.46,-727.96 780.26,-727.96 780.29,-765.33"/>
<text text-anchor="middle" x="748.86" y="-758.8" font-family="Times,serif" font-size="14.00">i</text>
<text text-anchor="middle" x="748.86" y="-743.8" font-family="Times,serif" font-size="14.00">int</text>
</g>
<!-- n0_place_8&#45;&gt;n7_port_0 -->
<g id="edge21" class="edge">
<title>n0_place_8&#45;&gt;n7_port_0</title>
<path fill="none" stroke="black" d="M603.49,-755C635.82,-755 676.96,-755 707.05,-755"/>
<polygon fill="black" stroke="black" points="707.19,-758.5 717.19,-755 707.19,-751.5 707.19,-758.5"/>
</g>
<!-- n2_port_0 -->
<g id="node27" class="node">
<title>n2_port_0</title>
<polygon fill="white" stroke="black" points="2621.34,-823.33 2519.32,-846.43 2417.29,-823.33 2417.39,-785.96 2621.25,-785.96 2621.34,-823.33"/>
<text text-anchor="middle" x="2519.32" y="-816.8" font-family="Times,serif" font-size="14.00">total</text>
<text text-anchor="middle" x="2519.32" y="-801.8" font-family="Times,serif" font-size="14.00">unsigned long</text>
</g>
<!-- n0_place_7&#45;&gt;n2_port_0 -->
<g id="edge6" class="edge">
<title>n0_place_7&#45;&gt;n2_port_0</title>
<path fill="none" stroke="black" stroke-dasharray="5,2" d="M2350.31,-846.92C2375.45,-841.85 2404.16,-836.05 2430.65,-830.7"/>
<polygon fill="black" stroke="black" points="2431.57,-834.09 2440.68,-828.68 2430.18,-827.22 2431.57,-834.09"/>
</g>
<!-- n0_place_6 -->
<g id="node14" class="node">
<title>n0_place_6</title>
<ellipse fill="white" stroke="black" cx="1872.25" cy="-587" rx="48.17" ry="26.74"/>
<text text-anchor="middle" x="1872.25" y="-590.8" font-family="Times,serif" font-size="14.00">fey_out</text>
<text text-anchor="middle" x="1872.25" y="-575.8" font-family="Times,serif" font-size="14.00">string</text>
</g>
<!-- n4_port_1 -->
<g id="node38" class="node">
<title>n4_port_1</title>
<polygon fill="white" stroke="black" points="2110.23,-597.33 2058.59,-620.43 2006.96,-597.33 2007,-559.96 2110.18,-559.96 2110.23,-597.33"/>
<text text-anchor="middle" x="2058.59" y="-590.8" font-family="Times,serif" font-size="14.00">s</text>
<text text-anchor="middle" x="2058.59" y="-575.8" font-family="Times,serif" font-size="14.00">string</text>
</g>
<!-- n0_place_6&#45;&gt;n4_port_1 -->
<g id="edge13" class="edge">
<title>n0_place_6&#45;&gt;n4_port_1</title>
<path fill="none" stroke="black" d="M1920.72,-587C1943.88,-587 1972.01,-587 1996.72,-587"/>
<polygon fill="black" stroke="black" points="1996.72,-590.5 2006.72,-587 1996.72,-583.5 1996.72,-590.5"/>
</g>
<!-- n7_port_1 -->
<g id="node55" class="node">
<title>n7_port_1</title>
<polygon fill="white" stroke="black" points="780.29,-849.33 748.86,-872.43 717.43,-849.33 717.46,-811.96 780.26,-811.96 780.29,-849.33"/>
<text text-anchor="middle" x="748.86" y="-842.8" font-family="Times,serif" font-size="14.00">n</text>
<text text-anchor="middle" x="748.86" y="-827.8" font-family="Times,serif" font-size="14.00">int</text>
</g>
<!-- n0_place_5&#45;&gt;n7_port_1 -->
<g id="edge22" class="edge">
<title>n0_place_5&#45;&gt;n7_port_1</title>
<path fill="none" stroke="black" stroke-dasharray="5,2" d="M578.04,-869.35C611.09,-863.45 668.48,-853.19 707.3,-846.25"/>
<polygon fill="black" stroke="black" points="708.01,-849.68 717.24,-844.47 706.78,-842.79 708.01,-849.68"/>
</g>
<!-- n5_port_0 -->
<g id="node44" class="node">
<title>n5_port_0</title>
<polygon fill="white" stroke="black" points="1664.33,-849.33 1626.66,-872.43 1589,-849.33 1589.03,-811.96 1664.29,-811.96 1664.33,-849.33"/>
<text text-anchor="middle" x="1626.66" y="-842.8" font-family="Times,serif" font-size="14.00">deg</text>
<text text-anchor="middle" x="1626.66" y="-827.8" font-family="Times,serif" font-size="14.00">int</text>
</g>
<!-- n0_place_4&#45;&gt;n5_port_0 -->
<g id="edge17" class="edge">
<title>n0_place_4&#45;&gt;n5_port_0</title>
<path fill="none" stroke="black" stroke-dasharray="5,2" d="M1389.96,-870.15C1435.53,-864.13 1524.14,-852.42 1578.79,-845.2"/>
<polygon fill="black" stroke="black" points="1579.45,-848.64 1588.91,-843.86 1578.54,-841.7 1579.45,-848.64"/>
</g>
<!-- n0_place_3 -->
<g id="node17" class="node">
<title>n0_place_3</title>
<ellipse fill="white" stroke="black" cx="2279.58" cy="-503" rx="41.94" ry="37.45"/>
<text text-anchor="middle" x="2279.58" y="-514.3" font-family="Times,serif" font-size="14.00">sum</text>
<text text-anchor="middle" x="2279.58" y="-499.3" font-family="Times,serif" font-size="14.00">string</text>
<text text-anchor="middle" x="2279.58" y="-484.3" font-family="Times,serif" font-size="14.00">&quot; &quot;</text>
</g>
<!-- n2_port_2 -->
<g id="node29" class="node">
<title>n2_port_2</title>
<polygon fill="white" stroke="black" points="2578.68,-739.33 2519.32,-762.43 2459.95,-739.33 2460,-701.96 2578.63,-701.96 2578.68,-739.33"/>
<text text-anchor="middle" x="2519.32" y="-732.8" font-family="Times,serif" font-size="14.00">answer</text>
<text text-anchor="middle" x="2519.32" y="-717.8" font-family="Times,serif" font-size="14.00">string</text>
</g>
<!-- n0_place_3&#45;&gt;n2_port_2 -->
<g id="edge4" class="edge">
<title>n0_place_3&#45;&gt;n2_port_2</title>
<path fill="none" stroke="black" d="M2292.99,-538.7C2309.14,-580.11 2341.25,-647.72 2390.32,-687 2407.5,-700.75 2429.34,-710.07 2450.1,-716.35"/>
<polygon fill="black" stroke="black" points="2449.28,-719.76 2459.86,-719.12 2451.19,-713.03 2449.28,-719.76"/>
</g>
<!-- n4_port_2 -->
<g id="node39" class="node">
<title>n4_port_2</title>
<polygon fill="white" stroke="black" points="2110.23,-513.33 2058.59,-536.43 2006.96,-513.33 2007,-475.96 2110.18,-475.96 2110.23,-513.33"/>
<text text-anchor="middle" x="2058.59" y="-506.8" font-family="Times,serif" font-size="14.00">sum</text>
<text text-anchor="middle" x="2058.59" y="-491.8" font-family="Times,serif" font-size="14.00">string</text>
</g>
<!-- n0_place_3&#45;&gt;n4_port_2 -->
<g id="edge12" class="edge">
<title>n0_place_3&#45;&gt;n4_port_2</title>
<path fill="none" stroke="black" d="M2237.59,-503C2204.67,-503 2157.95,-503 2120.64,-503"/>
<polygon fill="black" stroke="black" points="2120.38,-499.5 2110.38,-503 2120.38,-506.5 2120.38,-499.5"/>
</g>
<!-- n0_place_2 -->
<g id="node18" class="node">
<title>n0_place_2</title>
<ellipse fill="white" stroke="black" cx="2729.35" cy="-490" rx="53.07" ry="26.74"/>
<text text-anchor="middle" x="2729.35" y="-493.8" font-family="Times,serif" font-size="14.00">fey_sum</text>
<text text-anchor="middle" x="2729.35" y="-478.8" font-family="Times,serif" font-size="14.00">string</text>
</g>
<!-- n1_port_0 -->
<g id="node23" class="node">
<title>n1_port_0</title>
<polygon fill="white" stroke="black" points="2968.75,-429.33 2909.38,-452.43 2850.01,-429.33 2850.07,-391.96 2968.7,-391.96 2968.75,-429.33"/>
<text text-anchor="middle" x="2909.38" y="-422.8" font-family="Times,serif" font-size="14.00">answer</text>
<text text-anchor="middle" x="2909.38" y="-407.8" font-family="Times,serif" font-size="14.00">string</text>
</g>
<!-- n0_place_2&#45;&gt;n1_port_0 -->
<g id="edge2" class="edge">
<title>n0_place_2&#45;&gt;n1_port_0</title>
<path fill="none" stroke="black" d="M2771.64,-473.53C2797.09,-463.38 2829.94,-450.28 2857.06,-439.47"/>
<polygon fill="black" stroke="black" points="2858.4,-442.7 2866.39,-435.75 2855.8,-436.2 2858.4,-442.7"/>
</g>
<!-- n0_place_1 -->
<g id="node19" class="node">
<title>n0_place_1</title>
<ellipse fill="white" stroke="black" cx="1359.87" cy="-660" rx="69.09" ry="26.74"/>
<text text-anchor="middle" x="1359.87" y="-663.8" font-family="Times,serif" font-size="14.00">branchtype</text>
<text text-anchor="middle" x="1359.87" y="-648.8" font-family="Times,serif" font-size="14.00">list</text>
</g>
<!-- n5_port_1 -->
<g id="node45" class="node">
<title>n5_port_1</title>
<polygon fill="white" stroke="black" points="1660.84,-681.33 1626.66,-704.43 1592.49,-681.33 1592.52,-643.96 1660.81,-643.96 1660.84,-681.33"/>
<text text-anchor="middle" x="1626.66" y="-674.8" font-family="Times,serif" font-size="14.00">a</text>
<text text-anchor="middle" x="1626.66" y="-659.8" font-family="Times,serif" font-size="14.00">list</text>
</g>
<!-- n0_place_1&#45;&gt;n5_port_1 -->
<g id="edge15" class="edge">
<title>n0_place_1&#45;&gt;n5_port_1</title>
<path fill="none" stroke="black" d="M1429.06,-662.83C1477.37,-664.84 1540.73,-667.47 1582.29,-669.2"/>
<polygon fill="black" stroke="black" points="1582.23,-672.7 1592.37,-669.62 1582.52,-665.7 1582.23,-672.7"/>
</g>
<!-- n8_port_0 -->
<g id="node59" class="node">
<title>n8_port_0</title>
<polygon fill="white" stroke="black" points="411.14,-849.33 379.71,-872.43 348.28,-849.33 348.31,-811.96 411.11,-811.96 411.14,-849.33"/>
<text text-anchor="middle" x="379.71" y="-842.8" font-family="Times,serif" font-size="14.00">d</text>
<text text-anchor="middle" x="379.71" y="-827.8" font-family="Times,serif" font-size="14.00">int</text>
</g>
<!-- n0_place_0&#45;&gt;n8_port_0 -->
<g id="edge24" class="edge">
<title>n0_place_0&#45;&gt;n8_port_0</title>
<path fill="none" stroke="black" d="M261.07,-839C285.26,-839 314.64,-839 337.99,-839"/>
<polygon fill="black" stroke="black" points="338.26,-842.5 348.26,-839 338.26,-835.5 338.26,-842.5"/>
</g>
<!-- n0_place_13 -->
<g id="node21" class="node">
<title>n0_place_13</title>
<ellipse fill="white" stroke="black" cx="2279.58" cy="-236" rx="47.25" ry="26.74"/>
<text text-anchor="middle" x="2279.58" y="-239.8" font-family="Times,serif" font-size="14.00">ns</text>
<text text-anchor="middle" x="2279.58" y="-224.8" font-family="Times,serif" font-size="14.00">control</text>
</g>
<!-- n3_port_0 -->
<g id="node33" class="node">
<title>n3_port_0</title>
<polygon fill="white" stroke="black" points="2577.94,-203.33 2519.32,-226.43 2460.7,-203.33 2460.75,-165.96 2577.88,-165.96 2577.94,-203.33"/>
<text text-anchor="middle" x="2519.32" y="-196.8" font-family="Times,serif" font-size="14.00">ns</text>
<text text-anchor="middle" x="2519.32" y="-181.8" font-family="Times,serif" font-size="14.00">control</text>
</g>
<!-- n0_place_13&#45;&gt;n3_port_0 -->
<g id="edge9" class="edge">
<title>n0_place_13&#45;&gt;n3_port_0</title>
<path fill="none" stroke="black" d="M2325.02,-227.96C2360.33,-221.58 2410.3,-212.54 2450.59,-205.25"/>
<polygon fill="black" stroke="black" points="2451.39,-208.66 2460.61,-203.44 2450.14,-201.77 2451.39,-208.66"/>
</g>
<!-- n1_condition -->
<g id="node22" class="node">
<title>n1_condition</title>
<polygon fill="white" stroke="black" points="2851.38,-471 2851.38,-507 2967.38,-507 2967.38,-471 2851.38,-471"/>
<text text-anchor="middle" x="2909.38" y="-485.3" font-family="Times,serif" font-size="14.00">Quasimodular</text>
</g>
<!-- n1_port_1 -->
<g id="node24" class="node">
<title>n1_port_1</title>
<polygon fill="white" stroke="black" points="2850.01,-324.67 2909.38,-301.57 2968.75,-324.67 2968.7,-362.04 2850.07,-362.04 2850.01,-324.67"/>
<text text-anchor="middle" x="2909.38" y="-338.8" font-family="Times,serif" font-size="14.00">answer</text>
<text text-anchor="middle" x="2909.38" y="-323.8" font-family="Times,serif" font-size="14.00">string</text>
</g>
<!-- n1_port_1&#45;&gt;n0_place_9 -->
<g id="edge1" class="edge">
<title>n1_port_1&#45;&gt;n0_place_9</title>
<path fill="none" stroke="black" d="M2959.62,-321.11C2976.48,-314.59 2994.55,-305.44 3008.38,-293 3038.13,-266.24 3058.8,-224.82 3070.81,-195.12"/>
<polygon fill="black" stroke="black" points="3074.18,-196.12 3074.56,-185.53 3067.66,-193.57 3074.18,-196.12"/>
</g>
<!-- n1_modcall -->
<g id="node25" class="node">
<title>n1_modcall</title>
<polygon fill="white" stroke="black" points="3000.38,-284 2818.38,-284 2818.38,-248 3000.38,-248 3000.38,-284"/>
<text text-anchor="middle" x="2909.38" y="-262.3" font-family="Times,serif" font-size="14.00">feynman_module.Quasi</text>
</g>
<!-- n2_condition -->
<g id="node26" class="node">
<title>n2_condition</title>
<polygon fill="white" stroke="black" points="2398.32,-865 2398.32,-927 2640.32,-927 2640.32,-865 2398.32,-865"/>
<text text-anchor="middle" x="2519.32" y="-911.8" font-family="Times,serif" font-size="14.00">transition7</text>
<polyline fill="none" stroke="black" points="2398.32,-904 2640.32,-904 "/>
<text text-anchor="middle" x="2519.32" y="-888.8" font-family="Times,serif" font-size="14.00">(${counter_total} == ${total})</text>
</g>
<!-- n2_port_3 -->
<g id="node30" class="node">
<title>n2_port_3</title>
<polygon fill="white" stroke="black" points="2459.95,-550.67 2519.32,-527.57 2578.68,-550.67 2578.63,-588.04 2460,-588.04 2459.95,-550.67"/>
<text text-anchor="middle" x="2519.32" y="-564.8" font-family="Times,serif" font-size="14.00">answer</text>
<text text-anchor="middle" x="2519.32" y="-549.8" font-family="Times,serif" font-size="14.00">string</text>
</g>
<!-- n2_port_3&#45;&gt;n0_place_2 -->
<g id="edge3" class="edge">
<title>n2_port_3&#45;&gt;n0_place_2</title>
<path fill="none" stroke="black" d="M2566.94,-546.08C2591.26,-538.2 2621.45,-528.27 2648.32,-519 2657.44,-515.85 2667.12,-512.42 2676.47,-509.06"/>
<polygon fill="black" stroke="black" points="2677.85,-512.28 2686.07,-505.59 2675.47,-505.7 2677.85,-512.28"/>
</g>
<!-- n2_modcall -->
<g id="node31" class="node">
<title>n2_modcall</title>
<polygon fill="white" stroke="black" points="2605.82,-510 2432.82,-510 2432.82,-474 2605.82,-474 2605.82,-510"/>
<text text-anchor="middle" x="2519.32" y="-488.3" font-family="Times,serif" font-size="14.00">feynman_module.final</text>
</g>
<!-- n3_condition -->
<g id="node32" class="node">
<title>n3_condition</title>
<polygon fill="white" stroke="black" points="2471.82,-413 2471.82,-449 2566.82,-449 2566.82,-413 2471.82,-413"/>
<text text-anchor="middle" x="2519.32" y="-427.3" font-family="Times,serif" font-size="14.00">transition6</text>
</g>
<!-- n3_port_2 -->
<g id="node35" class="node">
<title>n3_port_2</title>
<polygon fill="white" stroke="black" points="2417.29,-350.67 2519.32,-327.57 2621.34,-350.67 2621.25,-388.04 2417.39,-388.04 2417.29,-350.67"/>
<text text-anchor="middle" x="2519.32" y="-364.8" font-family="Times,serif" font-size="14.00">counter_total</text>
<text text-anchor="middle" x="2519.32" y="-349.8" font-family="Times,serif" font-size="14.00">unsigned long</text>
</g>
<!-- n3_port_2&#45;&gt;n0_place_11 -->
<g id="edge7" class="edge">
<title>n3_port_2&#45;&gt;n0_place_11</title>
<path fill="none" stroke="black" d="M2417.03,-361C2402.21,-361 2387.02,-361 2372.41,-361"/>
<polygon fill="black" stroke="black" points="2372.4,-357.5 2362.4,-361 2372.4,-364.5 2372.4,-357.5"/>
</g>
<!-- n3_modcall -->
<g id="node36" class="node">
<title>n3_modcall</title>
<polygon fill="white" stroke="black" points="2619.82,-142 2418.82,-142 2418.82,-106 2619.82,-106 2619.82,-142"/>
<text text-anchor="middle" x="2519.32" y="-120.3" font-family="Times,serif" font-size="14.00">feynman_module.control1</text>
</g>
<!-- n4_condition -->
<g id="node37" class="node">
<title>n4_condition</title>
<polygon fill="white" stroke="black" points="2024.09,-639 2024.09,-675 2093.09,-675 2093.09,-639 2024.09,-639"/>
<text text-anchor="middle" x="2058.59" y="-653.3" font-family="Times,serif" font-size="14.00">Reduce</text>
</g>
<!-- n4_port_0 -->
<g id="node40" class="node">
<title>n4_port_0</title>
<polygon fill="white" stroke="black" points="1999.97,-324.67 2058.59,-301.57 2117.21,-324.67 2117.16,-362.04 2000.03,-362.04 1999.97,-324.67"/>
<text text-anchor="middle" x="2058.59" y="-338.8" font-family="Times,serif" font-size="14.00">ns</text>
<text text-anchor="middle" x="2058.59" y="-323.8" font-family="Times,serif" font-size="14.00">control</text>
</g>
<!-- n4_port_0&#45;&gt;n0_place_13 -->
<g id="edge11" class="edge">
<title>n4_port_0&#45;&gt;n0_place_13</title>
<path fill="none" stroke="black" d="M2101.7,-318.17C2119.98,-310.7 2141.58,-301.65 2160.85,-293 2185.42,-281.97 2212.48,-268.93 2234.46,-258.11"/>
<polygon fill="black" stroke="black" points="2236.13,-261.19 2243.55,-253.62 2233.03,-254.91 2236.13,-261.19"/>
</g>
<!-- n4_port_3 -->
<g id="node41" class="node">
<title>n4_port_3</title>
<polygon fill="white" stroke="black" points="2006.96,-408.67 2058.59,-385.57 2110.23,-408.67 2110.18,-446.04 2007,-446.04 2006.96,-408.67"/>
<text text-anchor="middle" x="2058.59" y="-422.8" font-family="Times,serif" font-size="14.00">sum</text>
<text text-anchor="middle" x="2058.59" y="-407.8" font-family="Times,serif" font-size="14.00">string</text>
</g>
<!-- n4_port_3&#45;&gt;n0_place_3 -->
<g id="edge10" class="edge">
<title>n4_port_3&#45;&gt;n0_place_3</title>
<path fill="none" stroke="black" d="M2110.38,-438.48C2146.88,-452.48 2195.73,-471.22 2231.38,-484.89"/>
<polygon fill="black" stroke="black" points="2230.47,-488.29 2241.06,-488.61 2232.98,-481.76 2230.47,-488.29"/>
</g>
<!-- n4_modcall -->
<g id="node42" class="node">
<title>n4_modcall</title>
<polygon fill="white" stroke="black" points="2144.59,-284 1972.59,-284 1972.59,-248 2144.59,-248 2144.59,-284"/>
<text text-anchor="middle" x="2058.59" y="-262.3" font-family="Times,serif" font-size="14.00">feynman_module.plus</text>
</g>
<!-- n5_condition -->
<g id="node43" class="node">
<title>n5_condition</title>
<polygon fill="white" stroke="black" points="1559.66,-891 1559.66,-927 1693.66,-927 1693.66,-891 1559.66,-891"/>
<text text-anchor="middle" x="1626.66" y="-905.3" font-family="Times,serif" font-size="14.00">feynman_degree</text>
</g>
<!-- n5_port_3 -->
<g id="node47" class="node">
<title>n5_port_3</title>
<polygon fill="white" stroke="black" points="1575.03,-576.67 1626.66,-553.57 1678.3,-576.67 1678.25,-614.04 1575.08,-614.04 1575.03,-576.67"/>
<text text-anchor="middle" x="1626.66" y="-590.8" font-family="Times,serif" font-size="14.00">s</text>
<text text-anchor="middle" x="1626.66" y="-575.8" font-family="Times,serif" font-size="14.00">string</text>
</g>
<!-- n5_port_3&#45;&gt;n0_place_6 -->
<g id="edge14" class="edge">
<title>n5_port_3&#45;&gt;n0_place_6</title>
<path fill="none" stroke="black" d="M1678.43,-587C1717.89,-587 1772.64,-587 1813.72,-587"/>
<polygon fill="black" stroke="black" points="1813.85,-590.5 1823.85,-587 1813.85,-583.5 1813.85,-590.5"/>
</g>
<!-- n5_modcall -->
<g id="node48" class="node">
<title>n5_modcall</title>
<polygon fill="white" stroke="black" points="1788.16,-536 1465.16,-536 1465.16,-500 1788.16,-500 1788.16,-536"/>
<text text-anchor="middle" x="1626.66" y="-514.3" font-family="Times,serif" font-size="14.00">feynman_module.feynman_integral_degree</text>
</g>
<!-- n6_condition -->
<g id="node49" class="node">
<title>n6_condition</title>
<polygon fill="white" stroke="black" points="1099.07,-786 1099.07,-822 1206.07,-822 1206.07,-786 1099.07,-786"/>
<text text-anchor="middle" x="1152.57" y="-800.3" font-family="Times,serif" font-size="14.00">Combination</text>
</g>
<!-- n6_port_1 -->
<g id="node51" class="node">
<title>n6_port_1</title>
<polygon fill="white" stroke="black" points="1116.9,-639.67 1152.57,-616.57 1188.24,-639.67 1188.21,-677.04 1116.93,-677.04 1116.9,-639.67"/>
<text text-anchor="middle" x="1152.57" y="-653.8" font-family="Times,serif" font-size="14.00">vec</text>
<text text-anchor="middle" x="1152.57" y="-638.8" font-family="Times,serif" font-size="14.00">list</text>
</g>
<!-- n6_port_1&#45;&gt;n0_place_1 -->
<g id="edge18" class="edge">
<title>n6_port_1&#45;&gt;n0_place_1</title>
<path fill="none" stroke="black" d="M1188.49,-649.7C1213.78,-650.93 1249.02,-652.65 1280.89,-654.2"/>
<path fill="none" stroke="transparent" d="M1188.4,-651.7C1213.69,-652.93 1248.92,-654.64 1280.79,-656.2"/>
<path fill="none" stroke="black" d="M1188.3,-653.69C1213.59,-654.93 1248.82,-656.64 1280.7,-658.19"/>
<polygon fill="black" stroke="black" points="1280.85,-659.7 1291.01,-656.69 1281.19,-652.71 1280.85,-659.7"/>
</g>
<!-- n6_modcall -->
<g id="node52" class="node">
<title>n6_modcall</title>
<polygon fill="white" stroke="black" points="1254.57,-599 1050.57,-599 1050.57,-563 1254.57,-563 1254.57,-599"/>
<text text-anchor="middle" x="1152.57" y="-577.3" font-family="Times,serif" font-size="14.00">feynman_module.partition</text>
</g>
<!-- n7_condition -->
<g id="node53" class="node">
<title>n7_condition</title>
<polygon fill="white" stroke="black" points="709.36,-891 709.36,-927 788.36,-927 788.36,-891 709.36,-891"/>
<text text-anchor="middle" x="748.86" y="-905.3" font-family="Times,serif" font-size="14.00">partition</text>
</g>
<!-- n7_port_2 -->
<g id="node56" class="node">
<title>n7_port_2</title>
<polygon fill="white" stroke="black" points="714.69,-660.67 748.86,-637.57 783.04,-660.67 783,-698.04 714.72,-698.04 714.69,-660.67"/>
<text text-anchor="middle" x="748.86" y="-674.8" font-family="Times,serif" font-size="14.00">v</text>
<text text-anchor="middle" x="748.86" y="-659.8" font-family="Times,serif" font-size="14.00">list</text>
</g>
<!-- n7_port_2&#45;&gt;n0_place_10 -->
<g id="edge20" class="edge">
<title>n7_port_2&#45;&gt;n0_place_10</title>
<path fill="none" stroke="black" d="M783.23,-672.43C810.92,-675.29 851.3,-679.45 885.8,-683.01"/>
<path fill="none" stroke="transparent" d="M783.03,-674.42C810.72,-677.28 851.09,-681.44 885.59,-685"/>
<path fill="none" stroke="black" d="M782.82,-676.41C810.51,-679.27 850.89,-683.43 885.39,-686.99"/>
<polygon fill="black" stroke="black" points="885.32,-688.49 895.62,-686.03 886.03,-681.53 885.32,-688.49"/>
</g>
<!-- n7_modcall -->
<g id="node57" class="node">
<title>n7_modcall</title>
<polygon fill="white" stroke="black" points="858.36,-620 639.36,-620 639.36,-584 858.36,-584 858.36,-620"/>
<text text-anchor="middle" x="748.86" y="-598.3" font-family="Times,serif" font-size="14.00">feynman_module.gen_block_</text>
</g>
<!-- n8_condition -->
<g id="node58" class="node">
<title>n8_condition</title>
<polygon fill="white" stroke="black" points="328.71,-891 328.71,-927 430.71,-927 430.71,-891 328.71,-891"/>
<text text-anchor="middle" x="379.71" y="-905.3" font-family="Times,serif" font-size="14.00">degrees_fey</text>
</g>
<!-- n8_port_1 -->
<g id="node60" class="node">
<title>n8_port_1</title>
<polygon fill="white" stroke="black" points="345.54,-744.67 379.71,-721.57 413.89,-744.67 413.85,-782.04 345.57,-782.04 345.54,-744.67"/>
<text text-anchor="middle" x="379.71" y="-758.8" font-family="Times,serif" font-size="14.00">v</text>
<text text-anchor="middle" x="379.71" y="-743.8" font-family="Times,serif" font-size="14.00">list</text>
</g>
<!-- n8_port_1&#45;&gt;n0_place_8 -->
<g id="edge23" class="edge">
<title>n8_port_1&#45;&gt;n0_place_8</title>
<path fill="none" stroke="black" d="M414.16,-753C435.34,-753 463.37,-753 488.46,-753"/>
<path fill="none" stroke="transparent" d="M414.16,-755C435.34,-755 463.37,-755 488.46,-755"/>
<path fill="none" stroke="black" d="M414.16,-757C435.34,-757 463.37,-757 488.46,-757"/>
<polygon fill="black" stroke="black" points="488.64,-758.5 498.64,-755 488.64,-751.5 488.64,-758.5"/>
</g>
<!-- n8_modcall -->
<g id="node61" class="node">
<title>n8_modcall</title>
<polygon fill="white" stroke="black" points="462.71,-704 296.71,-704 296.71,-668 462.71,-668 462.71,-704"/>
<text text-anchor="middle" x="379.71" y="-682.3" font-family="Times,serif" font-size="14.00">feynman_module.init</text>
</g>
</g>
</svg>
