<?xml version="1.0" encoding="UTF-8" standalone="no"?>
<!DOCTYPE svg PUBLIC "-//W3C//DTD SVG 1.1//EN"
 "http://www.w3.org/Graphics/SVG/1.1/DTD/svg11.dtd">
<!-- Generated by graphviz version 2.43.0 (0)
 -->
<!-- Title: feynman Pages: 1 -->
<svg width="1951pt" height="964pt"
 viewBox="0.00 0.00 1950.56 964.00" xmlns="http://www.w3.org/2000/svg" xmlns:xlink="http://www.w3.org/1999/xlink">
<g id="graph0" class="graph" transform="scale(1 1) rotate(0) translate(4 960)">
<title>feynman</title>
<polygon fill="white" stroke="transparent" points="-4,4 -4,-960 1946.56,-960 1946.56,4 -4,4"/>
<g id="clust1" class="cluster">
<title>cluster_0</title>
<polygon fill="dimgray" stroke="black" points="8,-8 8,-948 1934.56,-948 1934.56,-8 8,-8"/>
</g>
<g id="clust2" class="cluster">
<title>cluster_net_0</title>
<polygon fill="white" stroke="black" points="159.37,-16 159.37,-940 1926.56,-940 1926.56,-16 159.37,-16"/>
</g>
<g id="clust3" class="cluster">
<title>cluster_1</title>
<polygon fill="yellow" stroke="black" points="1806.42,-644 1806.42,-920 1918.56,-920 1918.56,-644 1806.42,-644"/>
</g>
<g id="clust4" class="cluster">
<title>cluster_2</title>
<polygon fill="yellow" stroke="black" points="1516.89,-24 1516.89,-468 1650.01,-468 1650.01,-24 1516.89,-24"/>
</g>
<g id="clust5" class="cluster">
<title>cluster_3</title>
<polygon fill="yellow" stroke="black" points="1157.51,-501 1157.51,-861 1343.51,-861 1343.51,-501 1157.51,-501"/>
</g>
<g id="clust6" class="cluster">
<title>cluster_4</title>
<polygon fill="yellow" stroke="black" points="676.92,-563 676.92,-839 962.92,-839 962.92,-563 676.92,-563"/>
</g>
<g id="clust7" class="cluster">
<title>cluster_5</title>
<polygon fill="yellow" stroke="black" points="1516.89,-476 1516.89,-920 1650.01,-920 1650.01,-476 1516.89,-476"/>
</g>
<g id="clust8" class="cluster">
<title>cluster_6</title>
<polygon fill="yellow" stroke="black" points="288.71,-572 288.71,-932 500.71,-932 500.71,-572 288.71,-572"/>
</g>
<!-- n0_condition -->
<g id="node1" class="node">
<title>n0_condition</title>
<polygon fill="white" stroke="black" points="34.69,-895 34.69,-931 112.69,-931 112.69,-895 34.69,-895"/>
<text text-anchor="middle" x="73.69" y="-909.3" font-family="Times,serif" font-size="14.00">feynman</text>
</g>
<!-- n0_port_0 -->
<g id="node2" class="node">
<title>n0_port_0</title>
<polygon fill="white" stroke="black" points="131.56,-845.33 73.69,-868.43 15.81,-845.33 15.87,-807.96 131.5,-807.96 131.56,-845.33"/>
<text text-anchor="middle" x="73.69" y="-838.8" font-family="Times,serif" font-size="14.00">degree</text>
<text text-anchor="middle" x="73.69" y="-823.8" font-family="Times,serif" font-size="14.00">int</text>
</g>
<!-- n0_place_0 -->
<g id="node4" class="node">
<title>n0_place_0</title>
<ellipse fill="white" stroke="black" cx="214.04" cy="-835" rx="46.84" ry="26.74"/>
<text text-anchor="middle" x="214.04" y="-838.8" font-family="Times,serif" font-size="14.00">degree</text>
<text text-anchor="middle" x="214.04" y="-823.8" font-family="Times,serif" font-size="14.00">int</text>
</g>
<!-- n0_port_0&#45;&gt;n0_place_0 -->
<g id="edge20" class="edge">
<title>n0_port_0&#45;&gt;n0_place_0</title>
<path fill="none" stroke="black" stroke-dasharray="1,5" d="M131.76,-835C143.52,-835 155.76,-835 167.07,-835"/>
</g>
<!-- n0_port_1 -->
<g id="node3" class="node">
<title>n0_port_1</title>
<polygon fill="white" stroke="black" points="118.34,-761.33 73.69,-784.43 29.03,-761.33 29.08,-723.96 118.3,-723.96 118.34,-761.33"/>
<text text-anchor="middle" x="73.69" y="-754.8" font-family="Times,serif" font-size="14.00">edge</text>
<text text-anchor="middle" x="73.69" y="-739.8" font-family="Times,serif" font-size="14.00">int</text>
</g>
<!-- n0_place_2 -->
<g id="node6" class="node">
<title>n0_place_2</title>
<ellipse fill="white" stroke="black" cx="214.04" cy="-751" rx="36.12" ry="26.74"/>
<text text-anchor="middle" x="214.04" y="-754.8" font-family="Times,serif" font-size="14.00">edge</text>
<text text-anchor="middle" x="214.04" y="-739.8" font-family="Times,serif" font-size="14.00">int</text>
</g>
<!-- n0_port_1&#45;&gt;n0_place_2 -->
<g id="edge21" class="edge">
<title>n0_port_1&#45;&gt;n0_place_2</title>
<path fill="none" stroke="black" stroke-dasharray="1,5" d="M118.46,-751C137.62,-751 159.8,-751 177.86,-751"/>
</g>
<!-- n6_port_0 -->
<g id="node40" class="node">
<title>n6_port_0</title>
<polygon fill="white" stroke="black" points="426.14,-845.33 394.71,-868.43 363.28,-845.33 363.31,-807.96 426.11,-807.96 426.14,-845.33"/>
<text text-anchor="middle" x="394.71" y="-838.8" font-family="Times,serif" font-size="14.00">d</text>
<text text-anchor="middle" x="394.71" y="-823.8" font-family="Times,serif" font-size="14.00">int</text>
</g>
<!-- n0_place_0&#45;&gt;n6_port_0 -->
<g id="edge18" class="edge">
<title>n0_place_0&#45;&gt;n6_port_0</title>
<path fill="none" stroke="black" d="M261.05,-835C289.47,-835 325.62,-835 352.99,-835"/>
<polygon fill="black" stroke="black" points="353.02,-838.5 363.02,-835 353.02,-831.5 353.02,-838.5"/>
</g>
<!-- n0_place_1 -->
<g id="node5" class="node">
<title>n0_place_1</title>
<ellipse fill="white" stroke="black" cx="1060.21" cy="-758" rx="69.09" ry="26.74"/>
<text text-anchor="middle" x="1060.21" y="-761.8" font-family="Times,serif" font-size="14.00">branchtype</text>
<text text-anchor="middle" x="1060.21" y="-746.8" font-family="Times,serif" font-size="14.00">string</text>
</g>
<!-- n3_port_0 -->
<g id="node25" class="node">
<title>n3_port_0</title>
<polygon fill="white" stroke="black" points="1302.15,-774.33 1250.51,-797.43 1198.88,-774.33 1198.92,-736.96 1302.1,-736.96 1302.15,-774.33"/>
<text text-anchor="middle" x="1250.51" y="-767.8" font-family="Times,serif" font-size="14.00">a</text>
<text text-anchor="middle" x="1250.51" y="-752.8" font-family="Times,serif" font-size="14.00">string</text>
</g>
<!-- n0_place_1&#45;&gt;n3_port_0 -->
<g id="edge9" class="edge">
<title>n0_place_1&#45;&gt;n3_port_0</title>
<path fill="none" stroke="black" d="M1129.46,-760.17C1148.91,-760.79 1169.96,-761.47 1188.92,-762.07"/>
<polygon fill="black" stroke="black" points="1188.81,-765.57 1198.92,-762.39 1189.03,-758.57 1188.81,-765.57"/>
</g>
<!-- n6_port_1 -->
<g id="node41" class="node">
<title>n6_port_1</title>
<polygon fill="white" stroke="black" points="426.14,-761.33 394.71,-784.43 363.28,-761.33 363.31,-723.96 426.11,-723.96 426.14,-761.33"/>
<text text-anchor="middle" x="394.71" y="-754.8" font-family="Times,serif" font-size="14.00">n</text>
<text text-anchor="middle" x="394.71" y="-739.8" font-family="Times,serif" font-size="14.00">int</text>
</g>
<!-- n0_place_2&#45;&gt;n6_port_1 -->
<g id="edge19" class="edge">
<title>n0_place_2&#45;&gt;n6_port_1</title>
<path fill="none" stroke="black" d="M250.34,-751C279.94,-751 322.23,-751 353.21,-751"/>
<polygon fill="black" stroke="black" points="353.24,-754.5 363.24,-751 353.24,-747.5 353.24,-754.5"/>
</g>
<!-- n0_place_3 -->
<g id="node7" class="node">
<title>n0_place_3</title>
<ellipse fill="white" stroke="black" cx="1728.22" cy="-125" rx="27" ry="26.74"/>
<text text-anchor="middle" x="1728.22" y="-128.8" font-family="Times,serif" font-size="14.00">R</text>
<text text-anchor="middle" x="1728.22" y="-113.8" font-family="Times,serif" font-size="14.00">int</text>
</g>
<!-- n1_port_1 -->
<g id="node15" class="node">
<title>n1_port_1</title>
<polygon fill="white" stroke="black" points="1910.64,-749.33 1862.49,-772.43 1814.35,-749.33 1814.39,-711.96 1910.59,-711.96 1910.64,-749.33"/>
<text text-anchor="middle" x="1862.49" y="-742.8" font-family="Times,serif" font-size="14.00">value</text>
<text text-anchor="middle" x="1862.49" y="-727.8" font-family="Times,serif" font-size="14.00">int</text>
</g>
<!-- n0_place_3&#45;&gt;n1_port_1 -->
<g id="edge2" class="edge">
<title>n0_place_3&#45;&gt;n1_port_1</title>
<path fill="none" stroke="black" d="M1734.82,-151.12C1744.89,-198.91 1766.14,-303.72 1778.42,-393 1787.67,-460.21 1773.57,-637.64 1806.42,-697 1807.84,-699.56 1809.49,-702.02 1811.31,-704.37"/>
<polygon fill="black" stroke="black" points="1808.8,-706.81 1818.08,-711.92 1814.01,-702.14 1808.8,-706.81"/>
</g>
<!-- n0_place_4 -->
<g id="node8" class="node">
<title>n0_place_4</title>
<ellipse fill="white" stroke="black" cx="588.81" cy="-692" rx="60.21" ry="26.74"/>
<text text-anchor="middle" x="588.81" y="-695.8" font-family="Times,serif" font-size="14.00">d_vectors</text>
<text text-anchor="middle" x="588.81" y="-680.8" font-family="Times,serif" font-size="14.00">string</text>
</g>
<!-- n4_port_0 -->
<g id="node30" class="node">
<title>n4_port_0</title>
<polygon fill="white" stroke="black" points="871.55,-752.33 819.92,-775.43 768.28,-752.33 768.33,-714.96 871.51,-714.96 871.55,-752.33"/>
<text text-anchor="middle" x="819.92" y="-745.8" font-family="Times,serif" font-size="14.00">v</text>
<text text-anchor="middle" x="819.92" y="-730.8" font-family="Times,serif" font-size="14.00">string</text>
</g>
<!-- n0_place_4&#45;&gt;n4_port_0 -->
<g id="edge12" class="edge">
<title>n0_place_4&#45;&gt;n4_port_0</title>
<path fill="none" stroke="black" d="M643.24,-703.66C677.69,-711.18 722.56,-720.97 758.33,-728.78"/>
<polygon fill="black" stroke="black" points="757.65,-732.21 768.16,-730.92 759.14,-725.37 757.65,-732.21"/>
</g>
<!-- n0_place_5 -->
<g id="node9" class="node">
<title>n0_place_5</title>
<ellipse fill="white" stroke="black" cx="1060.21" cy="-680" rx="41.94" ry="26.74"/>
<text text-anchor="middle" x="1060.21" y="-683.8" font-family="Times,serif" font-size="14.00">graph</text>
<text text-anchor="middle" x="1060.21" y="-668.8" font-family="Times,serif" font-size="14.00">string</text>
</g>
<!-- n3_port_1 -->
<g id="node26" class="node">
<title>n3_port_1</title>
<polygon fill="white" stroke="black" points="1302.15,-690.33 1250.51,-713.43 1198.88,-690.33 1198.92,-652.96 1302.1,-652.96 1302.15,-690.33"/>
<text text-anchor="middle" x="1250.51" y="-683.8" font-family="Times,serif" font-size="14.00">G</text>
<text text-anchor="middle" x="1250.51" y="-668.8" font-family="Times,serif" font-size="14.00">string</text>
</g>
<!-- n0_place_5&#45;&gt;n3_port_1 -->
<g id="edge10" class="edge">
<title>n0_place_5&#45;&gt;n3_port_1</title>
<path fill="none" stroke="black" d="M1102.07,-680C1127.31,-680 1160.17,-680 1188.46,-680"/>
<polygon fill="black" stroke="black" points="1188.65,-683.5 1198.65,-680 1188.65,-676.5 1188.65,-683.5"/>
</g>
<!-- n0_place_6 -->
<g id="node10" class="node">
<title>n0_place_6</title>
<ellipse fill="white" stroke="black" cx="1728.22" cy="-429" rx="50.41" ry="26.74"/>
<text text-anchor="middle" x="1728.22" y="-432.8" font-family="Times,serif" font-size="14.00">left_init</text>
<text text-anchor="middle" x="1728.22" y="-417.8" font-family="Times,serif" font-size="14.00">control</text>
</g>
<!-- n5_port_1 -->
<g id="node35" class="node">
<title>n5_port_1</title>
<polygon fill="white" stroke="black" points="1642.07,-665.33 1583.45,-688.43 1524.83,-665.33 1524.89,-627.96 1642.02,-627.96 1642.07,-665.33"/>
<text text-anchor="middle" x="1583.45" y="-658.8" font-family="Times,serif" font-size="14.00">s</text>
<text text-anchor="middle" x="1583.45" y="-643.8" font-family="Times,serif" font-size="14.00">control</text>
</g>
<!-- n0_place_6&#45;&gt;n5_port_1 -->
<g id="edge16" class="edge">
<title>n0_place_6&#45;&gt;n5_port_1</title>
<path fill="none" stroke="black" d="M1721.37,-455.72C1711.89,-494.09 1690.03,-565.41 1650.01,-613 1647.61,-615.86 1644.96,-618.59 1642.15,-621.19"/>
<polygon fill="black" stroke="black" points="1639.76,-618.62 1634.38,-627.74 1644.28,-623.97 1639.76,-618.62"/>
</g>
<!-- n0_place_7 -->
<g id="node11" class="node">
<title>n0_place_7</title>
<ellipse fill="white" stroke="black" cx="1430.2" cy="-797" rx="27" ry="26.74"/>
<text text-anchor="middle" x="1430.2" y="-800.8" font-family="Times,serif" font-size="14.00">fey</text>
<text text-anchor="middle" x="1430.2" y="-785.8" font-family="Times,serif" font-size="14.00">int</text>
</g>
<!-- n2_port_0 -->
<g id="node19" class="node">
<title>n2_port_0</title>
<polygon fill="white" stroke="black" points="1614.88,-381.33 1583.45,-404.43 1552.02,-381.33 1552.05,-343.96 1614.85,-343.96 1614.88,-381.33"/>
<text text-anchor="middle" x="1583.45" y="-374.8" font-family="Times,serif" font-size="14.00">a</text>
<text text-anchor="middle" x="1583.45" y="-359.8" font-family="Times,serif" font-size="14.00">int</text>
</g>
<!-- n0_place_7&#45;&gt;n2_port_0 -->
<g id="edge7" class="edge">
<title>n0_place_7&#45;&gt;n2_port_0</title>
<path fill="none" stroke="black" d="M1434.53,-770.32C1444.53,-693.39 1476.14,-472.91 1516.89,-414 1524.15,-403.51 1534.89,-394.93 1545.58,-388.28"/>
<polygon fill="black" stroke="black" points="1547.56,-391.17 1554.47,-383.14 1544.06,-385.11 1547.56,-391.17"/>
</g>
<!-- n5_port_0 -->
<g id="node34" class="node">
<title>n5_port_0</title>
<polygon fill="white" stroke="black" points="1614.88,-833.33 1583.45,-856.43 1552.02,-833.33 1552.05,-795.96 1614.85,-795.96 1614.88,-833.33"/>
<text text-anchor="middle" x="1583.45" y="-826.8" font-family="Times,serif" font-size="14.00">a</text>
<text text-anchor="middle" x="1583.45" y="-811.8" font-family="Times,serif" font-size="14.00">int</text>
</g>
<!-- n0_place_7&#45;&gt;n5_port_0 -->
<g id="edge15" class="edge">
<title>n0_place_7&#45;&gt;n5_port_0</title>
<path fill="none" stroke="black" d="M1456.86,-801.41C1480.18,-805.42 1514.96,-811.4 1542.02,-816.05"/>
<polygon fill="black" stroke="black" points="1541.52,-819.52 1551.97,-817.76 1542.71,-812.62 1541.52,-819.52"/>
</g>
<!-- n0_place_8 -->
<g id="node12" class="node">
<title>n0_place_8</title>
<ellipse fill="white" stroke="black" cx="1430.2" cy="-429" rx="58.88" ry="26.74"/>
<text text-anchor="middle" x="1430.2" y="-432.8" font-family="Times,serif" font-size="14.00">right_init</text>
<text text-anchor="middle" x="1430.2" y="-417.8" font-family="Times,serif" font-size="14.00">control</text>
</g>
<!-- n2_port_1 -->
<g id="node20" class="node">
<title>n2_port_1</title>
<polygon fill="white" stroke="black" points="1642.07,-297.33 1583.45,-320.43 1524.83,-297.33 1524.89,-259.96 1642.02,-259.96 1642.07,-297.33"/>
<text text-anchor="middle" x="1583.45" y="-290.8" font-family="Times,serif" font-size="14.00">s</text>
<text text-anchor="middle" x="1583.45" y="-275.8" font-family="Times,serif" font-size="14.00">control</text>
</g>
<!-- n0_place_8&#45;&gt;n2_port_1 -->
<g id="edge6" class="edge">
<title>n0_place_8&#45;&gt;n2_port_1</title>
<path fill="none" stroke="black" d="M1449.8,-403.34C1466.05,-381.97 1491.02,-351.51 1516.89,-329 1523.63,-323.13 1531.27,-317.49 1538.88,-312.36"/>
<polygon fill="black" stroke="black" points="1541.29,-314.97 1547.76,-306.58 1537.47,-309.1 1541.29,-314.97"/>
</g>
<!-- n0_place_9 -->
<g id="node13" class="node">
<title>n0_place_9</title>
<ellipse fill="white" stroke="black" cx="1728.22" cy="-739" rx="27" ry="26.74"/>
<text text-anchor="middle" x="1728.22" y="-742.8" font-family="Times,serif" font-size="14.00">L</text>
<text text-anchor="middle" x="1728.22" y="-727.8" font-family="Times,serif" font-size="14.00">int</text>
</g>
<!-- n0_place_9&#45;&gt;n1_port_1 -->
<g id="edge3" class="edge">
<title>n0_place_9&#45;&gt;n1_port_1</title>
<path fill="none" stroke="black" d="M1755.35,-739C1769.25,-739 1786.94,-739 1803.86,-739"/>
<polygon fill="black" stroke="black" points="1804.26,-742.5 1814.26,-739 1804.26,-735.5 1804.26,-742.5"/>
</g>
<!-- n1_condition -->
<g id="node14" class="node">
<title>n1_condition</title>
<polygon fill="white" stroke="black" points="1827.99,-875 1827.99,-911 1896.99,-911 1896.99,-875 1827.99,-875"/>
<text text-anchor="middle" x="1862.49" y="-889.3" font-family="Times,serif" font-size="14.00">Reduce</text>
</g>
<!-- n1_port_0 -->
<g id="node16" class="node">
<title>n1_port_0</title>
<polygon fill="white" stroke="black" points="1831.06,-812.67 1862.49,-789.57 1893.92,-812.67 1893.89,-850.04 1831.09,-850.04 1831.06,-812.67"/>
<text text-anchor="middle" x="1862.49" y="-826.8" font-family="Times,serif" font-size="14.00">s</text>
<text text-anchor="middle" x="1862.49" y="-811.8" font-family="Times,serif" font-size="14.00">int</text>
</g>
<!-- n1_port_0&#45;&gt;n0_place_7 -->
<g id="edge1" class="edge">
<title>n1_port_0&#45;&gt;n0_place_7</title>
<path fill="none" stroke="black" d="M1830.88,-846.84C1768.73,-892.14 1624.51,-981.21 1516.89,-924 1480.55,-904.68 1456.83,-862.31 1443.75,-831.82"/>
<polygon fill="black" stroke="black" points="1446.92,-830.3 1439.88,-822.38 1440.44,-832.96 1446.92,-830.3"/>
</g>
<!-- n1_modcall -->
<g id="node17" class="node">
<title>n1_modcall</title>
<polygon fill="white" stroke="black" points="1902.99,-688 1821.99,-688 1821.99,-652 1902.99,-652 1902.99,-688"/>
<text text-anchor="middle" x="1862.49" y="-666.3" font-family="Times,serif" font-size="14.00">sum.plus</text>
</g>
<!-- n2_condition -->
<g id="node18" class="node">
<title>n2_condition</title>
<polygon fill="white" stroke="black" points="1556.45,-423 1556.45,-459 1610.45,-459 1610.45,-423 1556.45,-423"/>
<text text-anchor="middle" x="1583.45" y="-437.3" font-family="Times,serif" font-size="14.00">RHS</text>
</g>
<!-- n2_port_2 -->
<g id="node21" class="node">
<title>n2_port_2</title>
<polygon fill="white" stroke="black" points="1552.02,-108.67 1583.45,-85.57 1614.88,-108.67 1614.85,-146.04 1552.05,-146.04 1552.02,-108.67"/>
<text text-anchor="middle" x="1583.45" y="-122.8" font-family="Times,serif" font-size="14.00">a</text>
<text text-anchor="middle" x="1583.45" y="-107.8" font-family="Times,serif" font-size="14.00">int</text>
</g>
<!-- n2_port_2&#45;&gt;n0_place_3 -->
<g id="edge4" class="edge">
<title>n2_port_2&#45;&gt;n0_place_3</title>
<path fill="none" stroke="black" d="M1615.08,-120.29C1637.25,-121.22 1667.3,-122.48 1690.71,-123.47"/>
<polygon fill="black" stroke="black" points="1690.81,-126.97 1700.95,-123.9 1691.11,-119.98 1690.81,-126.97"/>
</g>
<!-- n2_port_3 -->
<g id="node22" class="node">
<title>n2_port_3</title>
<polygon fill="white" stroke="black" points="1524.83,-192.67 1583.45,-169.57 1642.07,-192.67 1642.02,-230.04 1524.89,-230.04 1524.83,-192.67"/>
<text text-anchor="middle" x="1583.45" y="-206.8" font-family="Times,serif" font-size="14.00">s</text>
<text text-anchor="middle" x="1583.45" y="-191.8" font-family="Times,serif" font-size="14.00">control</text>
</g>
<!-- n2_port_3&#45;&gt;n0_place_6 -->
<g id="edge5" class="edge">
<title>n2_port_3&#45;&gt;n0_place_6</title>
<path fill="none" stroke="black" d="M1634.38,-230.26C1640.1,-234.69 1645.49,-239.62 1650.01,-245 1686.83,-288.78 1708.27,-352.64 1718.85,-392.46"/>
<polygon fill="black" stroke="black" points="1715.5,-393.46 1721.37,-402.28 1722.28,-391.72 1715.5,-393.46"/>
</g>
<!-- n2_modcall -->
<g id="node23" class="node">
<title>n2_modcall</title>
<polygon fill="white" stroke="black" points="1628.95,-68 1537.95,-68 1537.95,-32 1628.95,-32 1628.95,-68"/>
<text text-anchor="middle" x="1583.45" y="-46.3" font-family="Times,serif" font-size="14.00">token.plus</text>
</g>
<!-- n3_condition -->
<g id="node24" class="node">
<title>n3_condition</title>
<polygon fill="white" stroke="black" points="1211.51,-816 1211.51,-852 1289.51,-852 1289.51,-816 1211.51,-816"/>
<text text-anchor="middle" x="1250.51" y="-830.3" font-family="Times,serif" font-size="14.00">feynman</text>
</g>
<!-- n3_port_2 -->
<g id="node27" class="node">
<title>n3_port_2</title>
<polygon fill="white" stroke="black" points="1219.08,-585.67 1250.51,-562.57 1281.94,-585.67 1281.91,-623.04 1219.11,-623.04 1219.08,-585.67"/>
<text text-anchor="middle" x="1250.51" y="-599.8" font-family="Times,serif" font-size="14.00">s</text>
<text text-anchor="middle" x="1250.51" y="-584.8" font-family="Times,serif" font-size="14.00">int</text>
</g>
<!-- n3_port_2&#45;&gt;n0_place_7 -->
<g id="edge8" class="edge">
<title>n3_port_2&#45;&gt;n0_place_7</title>
<path fill="none" stroke="black" d="M1282.14,-604.42C1301.57,-611.01 1326.21,-621.8 1343.51,-638 1380.45,-672.57 1404.86,-726.72 1417.87,-762.03"/>
<polygon fill="black" stroke="black" points="1414.57,-763.22 1421.23,-771.46 1421.17,-760.87 1414.57,-763.22"/>
</g>
<!-- n3_modcall -->
<g id="node28" class="node">
<title>n3_modcall</title>
<polygon fill="white" stroke="black" points="1335.51,-545 1165.51,-545 1165.51,-509 1335.51,-509 1335.51,-545"/>
<text text-anchor="middle" x="1250.51" y="-523.3" font-family="Times,serif" font-size="14.00">feynman.branch_type</text>
</g>
<!-- n4_condition -->
<g id="node29" class="node">
<title>n4_condition</title>
<polygon fill="white" stroke="black" points="766.42,-794 766.42,-830 873.42,-830 873.42,-794 766.42,-794"/>
<text text-anchor="middle" x="819.92" y="-808.3" font-family="Times,serif" font-size="14.00">Combination</text>
</g>
<!-- n4_port_1 -->
<g id="node31" class="node">
<title>n4_port_1</title>
<polygon fill="white" stroke="black" points="768.28,-647.67 819.92,-624.57 871.55,-647.67 871.51,-685.04 768.33,-685.04 768.28,-647.67"/>
<text text-anchor="middle" x="819.92" y="-661.8" font-family="Times,serif" font-size="14.00">vec</text>
<text text-anchor="middle" x="819.92" y="-646.8" font-family="Times,serif" font-size="14.00">string</text>
</g>
<!-- n4_port_1&#45;&gt;n0_place_1 -->
<g id="edge11" class="edge">
<title>n4_port_1&#45;&gt;n0_place_1</title>
<path fill="none" stroke="black" d="M871.64,-669.65C899.24,-676.81 933.63,-687.1 962.92,-700 968.52,-702.47 991.72,-716.42 1013.95,-730.03"/>
<polygon fill="black" stroke="black" points="1012.35,-733.15 1022.71,-735.4 1016.01,-727.19 1012.35,-733.15"/>
</g>
<!-- n4_modcall -->
<g id="node32" class="node">
<title>n4_modcall</title>
<polygon fill="white" stroke="black" points="954.92,-607 684.92,-607 684.92,-571 954.92,-571 954.92,-607"/>
<text text-anchor="middle" x="819.92" y="-585.3" font-family="Times,serif" font-size="14.00">Combination.generate_combination</text>
</g>
<!-- n5_condition -->
<g id="node33" class="node">
<title>n5_condition</title>
<polygon fill="white" stroke="black" points="1556.45,-875 1556.45,-911 1610.45,-911 1610.45,-875 1556.45,-875"/>
<text text-anchor="middle" x="1583.45" y="-889.3" font-family="Times,serif" font-size="14.00">LHS</text>
</g>
<!-- n5_port_2 -->
<g id="node36" class="node">
<title>n5_port_2</title>
<polygon fill="white" stroke="black" points="1552.02,-728.67 1583.45,-705.57 1614.88,-728.67 1614.85,-766.04 1552.05,-766.04 1552.02,-728.67"/>
<text text-anchor="middle" x="1583.45" y="-742.8" font-family="Times,serif" font-size="14.00">a</text>
<text text-anchor="middle" x="1583.45" y="-727.8" font-family="Times,serif" font-size="14.00">int</text>
</g>
<!-- n5_port_2&#45;&gt;n0_place_9 -->
<g id="edge13" class="edge">
<title>n5_port_2&#45;&gt;n0_place_9</title>
<path fill="none" stroke="black" d="M1615.08,-739C1637.25,-739 1667.3,-739 1690.71,-739"/>
<polygon fill="black" stroke="black" points="1690.95,-742.5 1700.95,-739 1690.95,-735.5 1690.95,-742.5"/>
</g>
<!-- n5_port_3 -->
<g id="node37" class="node">
<title>n5_port_3</title>
<polygon fill="white" stroke="black" points="1524.83,-560.67 1583.45,-537.57 1642.07,-560.67 1642.02,-598.04 1524.89,-598.04 1524.83,-560.67"/>
<text text-anchor="middle" x="1583.45" y="-574.8" font-family="Times,serif" font-size="14.00">s</text>
<text text-anchor="middle" x="1583.45" y="-559.8" font-family="Times,serif" font-size="14.00">control</text>
</g>
<!-- n5_port_3&#45;&gt;n0_place_8 -->
<g id="edge14" class="edge">
<title>n5_port_3&#45;&gt;n0_place_8</title>
<path fill="none" stroke="black" d="M1547.76,-551.42C1537.38,-544.88 1526.27,-537.16 1516.89,-529 1494.15,-509.21 1472.11,-483.29 1456.07,-462.79"/>
<polygon fill="black" stroke="black" points="1458.68,-460.44 1449.8,-454.66 1453.14,-464.71 1458.68,-460.44"/>
</g>
<!-- n5_modcall -->
<g id="node38" class="node">
<title>n5_modcall</title>
<polygon fill="white" stroke="black" points="1633.95,-520 1532.95,-520 1532.95,-484 1633.95,-484 1633.95,-520"/>
<text text-anchor="middle" x="1583.45" y="-498.3" font-family="Times,serif" font-size="14.00">token.count</text>
</g>
<!-- n6_condition -->
<g id="node39" class="node">
<title>n6_condition</title>
<polygon fill="white" stroke="black" points="355.21,-887 355.21,-923 434.21,-923 434.21,-887 355.21,-887"/>
<text text-anchor="middle" x="394.71" y="-901.3" font-family="Times,serif" font-size="14.00">partition</text>
</g>
<!-- n6_port_2 -->
<g id="node42" class="node">
<title>n6_port_2</title>
<polygon fill="white" stroke="black" points="343.07,-656.67 394.71,-633.57 446.35,-656.67 446.3,-694.04 343.12,-694.04 343.07,-656.67"/>
<text text-anchor="middle" x="394.71" y="-670.8" font-family="Times,serif" font-size="14.00">v</text>
<text text-anchor="middle" x="394.71" y="-655.8" font-family="Times,serif" font-size="14.00">string</text>
</g>
<!-- n6_port_2&#45;&gt;n0_place_4 -->
<g id="edge17" class="edge">
<title>n6_port_2&#45;&gt;n0_place_4</title>
<path fill="none" stroke="black" d="M446.43,-673.6C469.1,-676.55 496.13,-680.07 520.46,-683.23"/>
<polygon fill="black" stroke="black" points="520.33,-686.75 530.7,-684.57 521.23,-679.81 520.33,-686.75"/>
</g>
<!-- n6_modcall -->
<g id="node43" class="node">
<title>n6_modcall</title>
<polygon fill="white" stroke="black" points="492.71,-616 296.71,-616 296.71,-580 492.71,-580 492.71,-616"/>
<text text-anchor="middle" x="394.71" y="-594.3" font-family="Times,serif" font-size="14.00">Sum_degree.sum_degree</text>
</g>
</g>
</svg>
