<?xml version="1.0" encoding="UTF-8" standalone="no"?>
<!DOCTYPE svg PUBLIC "-//W3C//DTD SVG 1.1//EN"
 "http://www.w3.org/Graphics/SVG/1.1/DTD/svg11.dtd">
<!-- Generated by graphviz version 2.43.0 (0)
 -->
<!-- Title: feynman Pages: 1 -->
<svg width="1934pt" height="964pt"
 viewBox="0.00 0.00 1933.97 964.00" xmlns="http://www.w3.org/2000/svg" xmlns:xlink="http://www.w3.org/1999/xlink">
<g id="graph0" class="graph" transform="scale(1 1) rotate(0) translate(4 960)">
<title>feynman</title>
<polygon fill="white" stroke="transparent" points="-4,4 -4,-960 1929.97,-960 1929.97,4 -4,4"/>
<g id="clust1" class="cluster">
<title>cluster_0</title>
<polygon fill="dimgray" stroke="black" points="8,-8 8,-948 1917.97,-948 1917.97,-8 8,-8"/>
</g>
<g id="clust2" class="cluster">
<title>cluster_net_0</title>
<polygon fill="white" stroke="black" points="159.37,-16 159.37,-940 1909.97,-940 1909.97,-16 159.37,-16"/>
</g>
<g id="clust3" class="cluster">
<title>cluster_1</title>
<polygon fill="yellow" stroke="black" points="1789.83,-644 1789.83,-920 1901.97,-920 1901.97,-644 1789.83,-644"/>
</g>
<g id="clust4" class="cluster">
<title>cluster_2</title>
<polygon fill="yellow" stroke="black" points="1500.3,-24 1500.3,-468 1633.42,-468 1633.42,-24 1500.3,-24"/>
</g>
<g id="clust5" class="cluster">
<title>cluster_3</title>
<polygon fill="yellow" stroke="black" points="1140.92,-501 1140.92,-861 1326.92,-861 1326.92,-501 1140.92,-501"/>
</g>
<g id="clust6" class="cluster">
<title>cluster_4</title>
<polygon fill="yellow" stroke="black" points="751.33,-563 751.33,-839 946.33,-839 946.33,-563 751.33,-563"/>
</g>
<g id="clust7" class="cluster">
<title>cluster_5</title>
<polygon fill="yellow" stroke="black" points="1500.3,-476 1500.3,-920 1633.42,-920 1633.42,-476 1500.3,-476"/>
</g>
<g id="clust8" class="cluster">
<title>cluster_6</title>
<polygon fill="yellow" stroke="black" points="288.71,-572 288.71,-932 474.71,-932 474.71,-572 288.71,-572"/>
</g>
<!-- n0_condition -->
<g id="node1" class="node">
<title>n0_condition</title>
<polygon fill="white" stroke="black" points="34.69,-895 34.69,-931 112.69,-931 112.69,-895 34.69,-895"/>
<text text-anchor="middle" x="73.69" y="-909.3" font-family="Times,serif" font-size="14.00">feynman</text>
</g>
<!-- n0_port_0 -->
<g id="node2" class="node">
<title>n0_port_0</title>
<polygon fill="white" stroke="black" points="131.56,-845.33 73.69,-868.43 15.81,-845.33 15.87,-807.96 131.5,-807.96 131.56,-845.33"/>
<text text-anchor="middle" x="73.69" y="-838.8" font-family="Times,serif" font-size="14.00">degree</text>
<text text-anchor="middle" x="73.69" y="-823.8" font-family="Times,serif" font-size="14.00">int</text>
</g>
<!-- n0_place_0 -->
<g id="node4" class="node">
<title>n0_place_0</title>
<ellipse fill="white" stroke="black" cx="214.04" cy="-835" rx="46.84" ry="26.74"/>
<text text-anchor="middle" x="214.04" y="-838.8" font-family="Times,serif" font-size="14.00">degree</text>
<text text-anchor="middle" x="214.04" y="-823.8" font-family="Times,serif" font-size="14.00">int</text>
</g>
<!-- n0_port_0&#45;&gt;n0_place_0 -->
<g id="edge20" class="edge">
<title>n0_port_0&#45;&gt;n0_place_0</title>
<path fill="none" stroke="black" stroke-dasharray="1,5" d="M131.76,-835C143.52,-835 155.76,-835 167.07,-835"/>
</g>
<!-- n0_port_1 -->
<g id="node3" class="node">
<title>n0_port_1</title>
<polygon fill="white" stroke="black" points="118.34,-761.33 73.69,-784.43 29.03,-761.33 29.08,-723.96 118.3,-723.96 118.34,-761.33"/>
<text text-anchor="middle" x="73.69" y="-754.8" font-family="Times,serif" font-size="14.00">edge</text>
<text text-anchor="middle" x="73.69" y="-739.8" font-family="Times,serif" font-size="14.00">int</text>
</g>
<!-- n0_place_2 -->
<g id="node6" class="node">
<title>n0_place_2</title>
<ellipse fill="white" stroke="black" cx="214.04" cy="-751" rx="36.12" ry="26.74"/>
<text text-anchor="middle" x="214.04" y="-754.8" font-family="Times,serif" font-size="14.00">edge</text>
<text text-anchor="middle" x="214.04" y="-739.8" font-family="Times,serif" font-size="14.00">int</text>
</g>
<!-- n0_port_1&#45;&gt;n0_place_2 -->
<g id="edge21" class="edge">
<title>n0_port_1&#45;&gt;n0_place_2</title>
<path fill="none" stroke="black" stroke-dasharray="1,5" d="M118.46,-751C137.62,-751 159.8,-751 177.86,-751"/>
</g>
<!-- n6_port_0 -->
<g id="node40" class="node">
<title>n6_port_0</title>
<polygon fill="white" stroke="black" points="413.14,-845.33 381.71,-868.43 350.28,-845.33 350.31,-807.96 413.11,-807.96 413.14,-845.33"/>
<text text-anchor="middle" x="381.71" y="-838.8" font-family="Times,serif" font-size="14.00">d</text>
<text text-anchor="middle" x="381.71" y="-823.8" font-family="Times,serif" font-size="14.00">int</text>
</g>
<!-- n0_place_0&#45;&gt;n6_port_0 -->
<g id="edge18" class="edge">
<title>n0_place_0&#45;&gt;n6_port_0</title>
<path fill="none" stroke="black" d="M260.75,-835C285.53,-835 315.9,-835 339.88,-835"/>
<polygon fill="black" stroke="black" points="340.06,-838.5 350.06,-835 340.06,-831.5 340.06,-838.5"/>
</g>
<!-- n0_place_1 -->
<g id="node5" class="node">
<title>n0_place_1</title>
<ellipse fill="white" stroke="black" cx="1043.62" cy="-758" rx="69.09" ry="26.74"/>
<text text-anchor="middle" x="1043.62" y="-761.8" font-family="Times,serif" font-size="14.00">branchtype</text>
<text text-anchor="middle" x="1043.62" y="-746.8" font-family="Times,serif" font-size="14.00">string</text>
</g>
<!-- n3_port_0 -->
<g id="node25" class="node">
<title>n3_port_0</title>
<polygon fill="white" stroke="black" points="1285.56,-774.33 1233.92,-797.43 1182.28,-774.33 1182.33,-736.96 1285.51,-736.96 1285.56,-774.33"/>
<text text-anchor="middle" x="1233.92" y="-767.8" font-family="Times,serif" font-size="14.00">a</text>
<text text-anchor="middle" x="1233.92" y="-752.8" font-family="Times,serif" font-size="14.00">string</text>
</g>
<!-- n0_place_1&#45;&gt;n3_port_0 -->
<g id="edge9" class="edge">
<title>n0_place_1&#45;&gt;n3_port_0</title>
<path fill="none" stroke="black" d="M1112.87,-760.17C1132.32,-760.79 1153.37,-761.47 1172.33,-762.07"/>
<polygon fill="black" stroke="black" points="1172.22,-765.57 1182.32,-762.39 1172.44,-758.57 1172.22,-765.57"/>
</g>
<!-- n6_port_1 -->
<g id="node41" class="node">
<title>n6_port_1</title>
<polygon fill="white" stroke="black" points="413.14,-761.33 381.71,-784.43 350.28,-761.33 350.31,-723.96 413.11,-723.96 413.14,-761.33"/>
<text text-anchor="middle" x="381.71" y="-754.8" font-family="Times,serif" font-size="14.00">n</text>
<text text-anchor="middle" x="381.71" y="-739.8" font-family="Times,serif" font-size="14.00">int</text>
</g>
<!-- n0_place_2&#45;&gt;n6_port_1 -->
<g id="edge19" class="edge">
<title>n0_place_2&#45;&gt;n6_port_1</title>
<path fill="none" stroke="black" d="M250.18,-751C276.45,-751 312.44,-751 339.98,-751"/>
<polygon fill="black" stroke="black" points="340.08,-754.5 350.08,-751 340.08,-747.5 340.08,-754.5"/>
</g>
<!-- n0_place_3 -->
<g id="node7" class="node">
<title>n0_place_3</title>
<ellipse fill="white" stroke="black" cx="1711.63" cy="-125" rx="27" ry="26.74"/>
<text text-anchor="middle" x="1711.63" y="-128.8" font-family="Times,serif" font-size="14.00">R</text>
<text text-anchor="middle" x="1711.63" y="-113.8" font-family="Times,serif" font-size="14.00">int</text>
</g>
<!-- n1_port_1 -->
<g id="node15" class="node">
<title>n1_port_1</title>
<polygon fill="white" stroke="black" points="1894.05,-749.33 1845.9,-772.43 1797.76,-749.33 1797.8,-711.96 1894,-711.96 1894.05,-749.33"/>
<text text-anchor="middle" x="1845.9" y="-742.8" font-family="Times,serif" font-size="14.00">value</text>
<text text-anchor="middle" x="1845.9" y="-727.8" font-family="Times,serif" font-size="14.00">int</text>
</g>
<!-- n0_place_3&#45;&gt;n1_port_1 -->
<g id="edge2" class="edge">
<title>n0_place_3&#45;&gt;n1_port_1</title>
<path fill="none" stroke="black" d="M1718.23,-151.12C1728.3,-198.91 1749.55,-303.72 1761.83,-393 1771.08,-460.21 1756.97,-637.64 1789.83,-697 1791.25,-699.56 1792.9,-702.02 1794.72,-704.37"/>
<polygon fill="black" stroke="black" points="1792.21,-706.81 1801.49,-711.92 1797.42,-702.14 1792.21,-706.81"/>
</g>
<!-- n0_place_4 -->
<g id="node8" class="node">
<title>n0_place_4</title>
<ellipse fill="white" stroke="black" cx="613.02" cy="-692" rx="110.12" ry="26.74"/>
<text text-anchor="middle" x="613.02" y="-695.8" font-family="Times,serif" font-size="14.00">vector_branch_type</text>
<text text-anchor="middle" x="613.02" y="-680.8" font-family="Times,serif" font-size="14.00">string</text>
</g>
<!-- n4_port_0 -->
<g id="node30" class="node">
<title>n4_port_0</title>
<polygon fill="white" stroke="black" points="900.46,-752.33 848.83,-775.43 797.19,-752.33 797.24,-714.96 900.42,-714.96 900.46,-752.33"/>
<text text-anchor="middle" x="848.83" y="-745.8" font-family="Times,serif" font-size="14.00">v</text>
<text text-anchor="middle" x="848.83" y="-730.8" font-family="Times,serif" font-size="14.00">string</text>
</g>
<!-- n0_place_4&#45;&gt;n4_port_0 -->
<g id="edge12" class="edge">
<title>n0_place_4&#45;&gt;n4_port_0</title>
<path fill="none" stroke="black" d="M696.45,-709.63C726.31,-716.01 759.46,-723.1 787.12,-729.02"/>
<polygon fill="black" stroke="black" points="786.53,-732.47 797.04,-731.14 787.99,-725.62 786.53,-732.47"/>
</g>
<!-- n0_place_5 -->
<g id="node9" class="node">
<title>n0_place_5</title>
<ellipse fill="white" stroke="black" cx="1413.61" cy="-429" rx="58.88" ry="26.74"/>
<text text-anchor="middle" x="1413.61" y="-432.8" font-family="Times,serif" font-size="14.00">right_init</text>
<text text-anchor="middle" x="1413.61" y="-417.8" font-family="Times,serif" font-size="14.00">control</text>
</g>
<!-- n2_port_1 -->
<g id="node20" class="node">
<title>n2_port_1</title>
<polygon fill="white" stroke="black" points="1625.48,-297.33 1566.86,-320.43 1508.24,-297.33 1508.29,-259.96 1625.43,-259.96 1625.48,-297.33"/>
<text text-anchor="middle" x="1566.86" y="-290.8" font-family="Times,serif" font-size="14.00">s</text>
<text text-anchor="middle" x="1566.86" y="-275.8" font-family="Times,serif" font-size="14.00">control</text>
</g>
<!-- n0_place_5&#45;&gt;n2_port_1 -->
<g id="edge6" class="edge">
<title>n0_place_5&#45;&gt;n2_port_1</title>
<path fill="none" stroke="black" d="M1433.21,-403.34C1449.46,-381.97 1474.43,-351.51 1500.3,-329 1507.04,-323.13 1514.68,-317.49 1522.29,-312.36"/>
<polygon fill="black" stroke="black" points="1524.7,-314.97 1531.17,-306.58 1520.88,-309.1 1524.7,-314.97"/>
</g>
<!-- n0_place_6 -->
<g id="node10" class="node">
<title>n0_place_6</title>
<ellipse fill="white" stroke="black" cx="1043.62" cy="-680" rx="41.94" ry="26.74"/>
<text text-anchor="middle" x="1043.62" y="-683.8" font-family="Times,serif" font-size="14.00">graph</text>
<text text-anchor="middle" x="1043.62" y="-668.8" font-family="Times,serif" font-size="14.00">string</text>
</g>
<!-- n3_port_1 -->
<g id="node26" class="node">
<title>n3_port_1</title>
<polygon fill="white" stroke="black" points="1285.56,-690.33 1233.92,-713.43 1182.28,-690.33 1182.33,-652.96 1285.51,-652.96 1285.56,-690.33"/>
<text text-anchor="middle" x="1233.92" y="-683.8" font-family="Times,serif" font-size="14.00">G</text>
<text text-anchor="middle" x="1233.92" y="-668.8" font-family="Times,serif" font-size="14.00">string</text>
</g>
<!-- n0_place_6&#45;&gt;n3_port_1 -->
<g id="edge10" class="edge">
<title>n0_place_6&#45;&gt;n3_port_1</title>
<path fill="none" stroke="black" d="M1085.48,-680C1110.72,-680 1143.58,-680 1171.87,-680"/>
<polygon fill="black" stroke="black" points="1172.06,-683.5 1182.06,-680 1172.06,-676.5 1172.06,-683.5"/>
</g>
<!-- n0_place_7 -->
<g id="node11" class="node">
<title>n0_place_7</title>
<ellipse fill="white" stroke="black" cx="1711.63" cy="-429" rx="50.41" ry="26.74"/>
<text text-anchor="middle" x="1711.63" y="-432.8" font-family="Times,serif" font-size="14.00">left_init</text>
<text text-anchor="middle" x="1711.63" y="-417.8" font-family="Times,serif" font-size="14.00">control</text>
</g>
<!-- n5_port_1 -->
<g id="node35" class="node">
<title>n5_port_1</title>
<polygon fill="white" stroke="black" points="1625.48,-665.33 1566.86,-688.43 1508.24,-665.33 1508.29,-627.96 1625.43,-627.96 1625.48,-665.33"/>
<text text-anchor="middle" x="1566.86" y="-658.8" font-family="Times,serif" font-size="14.00">s</text>
<text text-anchor="middle" x="1566.86" y="-643.8" font-family="Times,serif" font-size="14.00">control</text>
</g>
<!-- n0_place_7&#45;&gt;n5_port_1 -->
<g id="edge16" class="edge">
<title>n0_place_7&#45;&gt;n5_port_1</title>
<path fill="none" stroke="black" d="M1704.78,-455.72C1695.3,-494.09 1673.44,-565.41 1633.42,-613 1631.02,-615.86 1628.37,-618.59 1625.56,-621.19"/>
<polygon fill="black" stroke="black" points="1623.17,-618.62 1617.79,-627.74 1627.69,-623.97 1623.17,-618.62"/>
</g>
<!-- n0_place_8 -->
<g id="node12" class="node">
<title>n0_place_8</title>
<ellipse fill="white" stroke="black" cx="1413.61" cy="-797" rx="27" ry="26.74"/>
<text text-anchor="middle" x="1413.61" y="-800.8" font-family="Times,serif" font-size="14.00">fey</text>
<text text-anchor="middle" x="1413.61" y="-785.8" font-family="Times,serif" font-size="14.00">int</text>
</g>
<!-- n2_port_0 -->
<g id="node19" class="node">
<title>n2_port_0</title>
<polygon fill="white" stroke="black" points="1598.29,-381.33 1566.86,-404.43 1535.43,-381.33 1535.46,-343.96 1598.26,-343.96 1598.29,-381.33"/>
<text text-anchor="middle" x="1566.86" y="-374.8" font-family="Times,serif" font-size="14.00">a</text>
<text text-anchor="middle" x="1566.86" y="-359.8" font-family="Times,serif" font-size="14.00">int</text>
</g>
<!-- n0_place_8&#45;&gt;n2_port_0 -->
<g id="edge7" class="edge">
<title>n0_place_8&#45;&gt;n2_port_0</title>
<path fill="none" stroke="black" d="M1417.94,-770.32C1427.94,-693.39 1459.55,-472.91 1500.3,-414 1507.56,-403.51 1518.3,-394.93 1528.99,-388.28"/>
<polygon fill="black" stroke="black" points="1530.97,-391.17 1537.88,-383.14 1527.47,-385.11 1530.97,-391.17"/>
</g>
<!-- n5_port_0 -->
<g id="node34" class="node">
<title>n5_port_0</title>
<polygon fill="white" stroke="black" points="1598.29,-833.33 1566.86,-856.43 1535.43,-833.33 1535.46,-795.96 1598.26,-795.96 1598.29,-833.33"/>
<text text-anchor="middle" x="1566.86" y="-826.8" font-family="Times,serif" font-size="14.00">a</text>
<text text-anchor="middle" x="1566.86" y="-811.8" font-family="Times,serif" font-size="14.00">int</text>
</g>
<!-- n0_place_8&#45;&gt;n5_port_0 -->
<g id="edge15" class="edge">
<title>n0_place_8&#45;&gt;n5_port_0</title>
<path fill="none" stroke="black" d="M1440.27,-801.41C1463.59,-805.42 1498.37,-811.4 1525.43,-816.05"/>
<polygon fill="black" stroke="black" points="1524.93,-819.52 1535.38,-817.76 1526.12,-812.62 1524.93,-819.52"/>
</g>
<!-- n0_place_9 -->
<g id="node13" class="node">
<title>n0_place_9</title>
<ellipse fill="white" stroke="black" cx="1711.63" cy="-739" rx="27" ry="26.74"/>
<text text-anchor="middle" x="1711.63" y="-742.8" font-family="Times,serif" font-size="14.00">L</text>
<text text-anchor="middle" x="1711.63" y="-727.8" font-family="Times,serif" font-size="14.00">int</text>
</g>
<!-- n0_place_9&#45;&gt;n1_port_1 -->
<g id="edge3" class="edge">
<title>n0_place_9&#45;&gt;n1_port_1</title>
<path fill="none" stroke="black" d="M1738.76,-739C1752.66,-739 1770.35,-739 1787.27,-739"/>
<polygon fill="black" stroke="black" points="1787.67,-742.5 1797.67,-739 1787.67,-735.5 1787.67,-742.5"/>
</g>
<!-- n1_condition -->
<g id="node14" class="node">
<title>n1_condition</title>
<polygon fill="white" stroke="black" points="1811.4,-875 1811.4,-911 1880.4,-911 1880.4,-875 1811.4,-875"/>
<text text-anchor="middle" x="1845.9" y="-889.3" font-family="Times,serif" font-size="14.00">Reduce</text>
</g>
<!-- n1_port_0 -->
<g id="node16" class="node">
<title>n1_port_0</title>
<polygon fill="white" stroke="black" points="1814.47,-812.67 1845.9,-789.57 1877.33,-812.67 1877.3,-850.04 1814.5,-850.04 1814.47,-812.67"/>
<text text-anchor="middle" x="1845.9" y="-826.8" font-family="Times,serif" font-size="14.00">s</text>
<text text-anchor="middle" x="1845.9" y="-811.8" font-family="Times,serif" font-size="14.00">int</text>
</g>
<!-- n1_port_0&#45;&gt;n0_place_8 -->
<g id="edge1" class="edge">
<title>n1_port_0&#45;&gt;n0_place_8</title>
<path fill="none" stroke="black" d="M1814.29,-846.84C1752.14,-892.14 1607.92,-981.21 1500.3,-924 1463.96,-904.68 1440.24,-862.31 1427.16,-831.82"/>
<polygon fill="black" stroke="black" points="1430.33,-830.3 1423.29,-822.38 1423.85,-832.96 1430.33,-830.3"/>
</g>
<!-- n1_modcall -->
<g id="node17" class="node">
<title>n1_modcall</title>
<polygon fill="white" stroke="black" points="1886.4,-688 1805.4,-688 1805.4,-652 1886.4,-652 1886.4,-688"/>
<text text-anchor="middle" x="1845.9" y="-666.3" font-family="Times,serif" font-size="14.00">sum.plus</text>
</g>
<!-- n2_condition -->
<g id="node18" class="node">
<title>n2_condition</title>
<polygon fill="white" stroke="black" points="1539.86,-423 1539.86,-459 1593.86,-459 1593.86,-423 1539.86,-423"/>
<text text-anchor="middle" x="1566.86" y="-437.3" font-family="Times,serif" font-size="14.00">RHS</text>
</g>
<!-- n2_port_2 -->
<g id="node21" class="node">
<title>n2_port_2</title>
<polygon fill="white" stroke="black" points="1535.43,-108.67 1566.86,-85.57 1598.29,-108.67 1598.26,-146.04 1535.46,-146.04 1535.43,-108.67"/>
<text text-anchor="middle" x="1566.86" y="-122.8" font-family="Times,serif" font-size="14.00">a</text>
<text text-anchor="middle" x="1566.86" y="-107.8" font-family="Times,serif" font-size="14.00">int</text>
</g>
<!-- n2_port_2&#45;&gt;n0_place_3 -->
<g id="edge4" class="edge">
<title>n2_port_2&#45;&gt;n0_place_3</title>
<path fill="none" stroke="black" d="M1598.49,-120.29C1620.65,-121.22 1650.71,-122.48 1674.12,-123.47"/>
<polygon fill="black" stroke="black" points="1674.22,-126.97 1684.36,-123.9 1674.52,-119.98 1674.22,-126.97"/>
</g>
<!-- n2_port_3 -->
<g id="node22" class="node">
<title>n2_port_3</title>
<polygon fill="white" stroke="black" points="1508.24,-192.67 1566.86,-169.57 1625.48,-192.67 1625.43,-230.04 1508.29,-230.04 1508.24,-192.67"/>
<text text-anchor="middle" x="1566.86" y="-206.8" font-family="Times,serif" font-size="14.00">s</text>
<text text-anchor="middle" x="1566.86" y="-191.8" font-family="Times,serif" font-size="14.00">control</text>
</g>
<!-- n2_port_3&#45;&gt;n0_place_7 -->
<g id="edge5" class="edge">
<title>n2_port_3&#45;&gt;n0_place_7</title>
<path fill="none" stroke="black" d="M1617.79,-230.26C1623.51,-234.69 1628.9,-239.62 1633.42,-245 1670.24,-288.78 1691.68,-352.64 1702.26,-392.46"/>
<polygon fill="black" stroke="black" points="1698.91,-393.46 1704.78,-402.28 1705.69,-391.72 1698.91,-393.46"/>
</g>
<!-- n2_modcall -->
<g id="node23" class="node">
<title>n2_modcall</title>
<polygon fill="white" stroke="black" points="1612.36,-68 1521.36,-68 1521.36,-32 1612.36,-32 1612.36,-68"/>
<text text-anchor="middle" x="1566.86" y="-46.3" font-family="Times,serif" font-size="14.00">token.plus</text>
</g>
<!-- n3_condition -->
<g id="node24" class="node">
<title>n3_condition</title>
<polygon fill="white" stroke="black" points="1194.92,-816 1194.92,-852 1272.92,-852 1272.92,-816 1194.92,-816"/>
<text text-anchor="middle" x="1233.92" y="-830.3" font-family="Times,serif" font-size="14.00">feynman</text>
</g>
<!-- n3_port_2 -->
<g id="node27" class="node">
<title>n3_port_2</title>
<polygon fill="white" stroke="black" points="1202.49,-585.67 1233.92,-562.57 1265.35,-585.67 1265.32,-623.04 1202.52,-623.04 1202.49,-585.67"/>
<text text-anchor="middle" x="1233.92" y="-599.8" font-family="Times,serif" font-size="14.00">s</text>
<text text-anchor="middle" x="1233.92" y="-584.8" font-family="Times,serif" font-size="14.00">int</text>
</g>
<!-- n3_port_2&#45;&gt;n0_place_8 -->
<g id="edge8" class="edge">
<title>n3_port_2&#45;&gt;n0_place_8</title>
<path fill="none" stroke="black" d="M1265.55,-604.42C1284.98,-611.01 1309.62,-621.8 1326.92,-638 1363.85,-672.57 1388.27,-726.72 1401.28,-762.03"/>
<polygon fill="black" stroke="black" points="1397.98,-763.22 1404.64,-771.46 1404.58,-760.87 1397.98,-763.22"/>
</g>
<!-- n3_modcall -->
<g id="node28" class="node">
<title>n3_modcall</title>
<polygon fill="white" stroke="black" points="1318.92,-545 1148.92,-545 1148.92,-509 1318.92,-509 1318.92,-545"/>
<text text-anchor="middle" x="1233.92" y="-523.3" font-family="Times,serif" font-size="14.00">feynman.branch_type</text>
</g>
<!-- n4_condition -->
<g id="node29" class="node">
<title>n4_condition</title>
<polygon fill="white" stroke="black" points="795.33,-794 795.33,-830 902.33,-830 902.33,-794 795.33,-794"/>
<text text-anchor="middle" x="848.83" y="-808.3" font-family="Times,serif" font-size="14.00">Combination</text>
</g>
<!-- n4_port_1 -->
<g id="node31" class="node">
<title>n4_port_1</title>
<polygon fill="white" stroke="black" points="797.19,-647.67 848.83,-624.57 900.46,-647.67 900.42,-685.04 797.24,-685.04 797.19,-647.67"/>
<text text-anchor="middle" x="848.83" y="-661.8" font-family="Times,serif" font-size="14.00">v</text>
<text text-anchor="middle" x="848.83" y="-646.8" font-family="Times,serif" font-size="14.00">string</text>
</g>
<!-- n4_port_1&#45;&gt;n0_place_1 -->
<g id="edge11" class="edge">
<title>n4_port_1&#45;&gt;n0_place_1</title>
<path fill="none" stroke="black" d="M900.5,-678.57C915.45,-685.03 931.71,-692.46 946.33,-700 956.45,-705.22 977.36,-717.74 997.12,-729.82"/>
<polygon fill="black" stroke="black" points="995.42,-732.88 1005.78,-735.12 999.08,-726.91 995.42,-732.88"/>
</g>
<!-- n4_modcall -->
<g id="node32" class="node">
<title>n4_modcall</title>
<polygon fill="white" stroke="black" points="938.33,-607 759.33,-607 759.33,-571 938.33,-571 938.33,-607"/>
<text text-anchor="middle" x="848.83" y="-585.3" font-family="Times,serif" font-size="14.00">.generate_combination</text>
</g>
<!-- n5_condition -->
<g id="node33" class="node">
<title>n5_condition</title>
<polygon fill="white" stroke="black" points="1539.86,-875 1539.86,-911 1593.86,-911 1593.86,-875 1539.86,-875"/>
<text text-anchor="middle" x="1566.86" y="-889.3" font-family="Times,serif" font-size="14.00">LHS</text>
</g>
<!-- n5_port_2 -->
<g id="node36" class="node">
<title>n5_port_2</title>
<polygon fill="white" stroke="black" points="1535.43,-728.67 1566.86,-705.57 1598.29,-728.67 1598.26,-766.04 1535.46,-766.04 1535.43,-728.67"/>
<text text-anchor="middle" x="1566.86" y="-742.8" font-family="Times,serif" font-size="14.00">a</text>
<text text-anchor="middle" x="1566.86" y="-727.8" font-family="Times,serif" font-size="14.00">int</text>
</g>
<!-- n5_port_2&#45;&gt;n0_place_9 -->
<g id="edge13" class="edge">
<title>n5_port_2&#45;&gt;n0_place_9</title>
<path fill="none" stroke="black" d="M1598.49,-739C1620.65,-739 1650.71,-739 1674.12,-739"/>
<polygon fill="black" stroke="black" points="1674.36,-742.5 1684.36,-739 1674.36,-735.5 1674.36,-742.5"/>
</g>
<!-- n5_port_3 -->
<g id="node37" class="node">
<title>n5_port_3</title>
<polygon fill="white" stroke="black" points="1508.24,-560.67 1566.86,-537.57 1625.48,-560.67 1625.43,-598.04 1508.29,-598.04 1508.24,-560.67"/>
<text text-anchor="middle" x="1566.86" y="-574.8" font-family="Times,serif" font-size="14.00">s</text>
<text text-anchor="middle" x="1566.86" y="-559.8" font-family="Times,serif" font-size="14.00">control</text>
</g>
<!-- n5_port_3&#45;&gt;n0_place_5 -->
<g id="edge14" class="edge">
<title>n5_port_3&#45;&gt;n0_place_5</title>
<path fill="none" stroke="black" d="M1531.17,-551.42C1520.79,-544.88 1509.68,-537.16 1500.3,-529 1477.56,-509.21 1455.52,-483.29 1439.48,-462.79"/>
<polygon fill="black" stroke="black" points="1442.09,-460.44 1433.21,-454.66 1436.55,-464.71 1442.09,-460.44"/>
</g>
<!-- n5_modcall -->
<g id="node38" class="node">
<title>n5_modcall</title>
<polygon fill="white" stroke="black" points="1617.36,-520 1516.36,-520 1516.36,-484 1617.36,-484 1617.36,-520"/>
<text text-anchor="middle" x="1566.86" y="-498.3" font-family="Times,serif" font-size="14.00">token.count</text>
</g>
<!-- n6_condition -->
<g id="node39" class="node">
<title>n6_condition</title>
<polygon fill="white" stroke="black" points="342.21,-887 342.21,-923 421.21,-923 421.21,-887 342.21,-887"/>
<text text-anchor="middle" x="381.71" y="-901.3" font-family="Times,serif" font-size="14.00">partition</text>
</g>
<!-- n6_port_2 -->
<g id="node42" class="node">
<title>n6_port_2</title>
<polygon fill="white" stroke="black" points="330.07,-656.67 381.71,-633.57 433.35,-656.67 433.3,-694.04 330.12,-694.04 330.07,-656.67"/>
<text text-anchor="middle" x="381.71" y="-670.8" font-family="Times,serif" font-size="14.00">v</text>
<text text-anchor="middle" x="381.71" y="-655.8" font-family="Times,serif" font-size="14.00">string</text>
</g>
<!-- n6_port_2&#45;&gt;n0_place_4 -->
<g id="edge17" class="edge">
<title>n6_port_2&#45;&gt;n0_place_4</title>
<path fill="none" stroke="black" d="M433.32,-672.52C453.63,-674.73 477.89,-677.38 501.88,-679.99"/>
<polygon fill="black" stroke="black" points="501.82,-683.51 512.14,-681.11 502.58,-676.55 501.82,-683.51"/>
</g>
<!-- n6_modcall -->
<g id="node43" class="node">
<title>n6_modcall</title>
<polygon fill="white" stroke="black" points="466.71,-616 296.71,-616 296.71,-580 466.71,-580 466.71,-616"/>
<text text-anchor="middle" x="381.71" y="-594.3" font-family="Times,serif" font-size="14.00">Partition.sum_degree</text>
</g>
</g>
</svg>
