<?xml version="1.0" encoding="UTF-8" standalone="no"?>
<!DOCTYPE svg PUBLIC "-//W3C//DTD SVG 1.1//EN"
 "http://www.w3.org/Graphics/SVG/1.1/DTD/svg11.dtd">
<!-- Generated by graphviz version 2.43.0 (0)
 -->
<!-- Title: feynman Pages: 1 -->
<svg width="1966pt" height="964pt"
 viewBox="0.00 0.00 1966.42 964.00" xmlns="http://www.w3.org/2000/svg" xmlns:xlink="http://www.w3.org/1999/xlink">
<g id="graph0" class="graph" transform="scale(1 1) rotate(0) translate(4 960)">
<title>feynman</title>
<polygon fill="white" stroke="transparent" points="-4,4 -4,-960 1962.42,-960 1962.42,4 -4,4"/>
<g id="clust1" class="cluster">
<title>cluster_0</title>
<polygon fill="dimgray" stroke="black" points="8,-8 8,-948 1950.42,-948 1950.42,-8 8,-8"/>
</g>
<g id="clust2" class="cluster">
<title>cluster_net_0</title>
<polygon fill="white" stroke="black" points="159.37,-16 159.37,-940 1942.42,-940 1942.42,-16 159.37,-16"/>
</g>
<g id="clust3" class="cluster">
<title>cluster_1</title>
<polygon fill="yellow" stroke="black" points="1841.42,-560 1841.42,-920 1934.42,-920 1934.42,-560 1841.42,-560"/>
</g>
<g id="clust4" class="cluster">
<title>cluster_2</title>
<polygon fill="yellow" stroke="black" points="1551.89,-24 1551.89,-468 1685.01,-468 1685.01,-24 1551.89,-24"/>
</g>
<g id="clust5" class="cluster">
<title>cluster_3</title>
<polygon fill="yellow" stroke="black" points="1099.51,-501 1099.51,-861 1378.51,-861 1378.51,-501 1099.51,-501"/>
</g>
<g id="clust6" class="cluster">
<title>cluster_4</title>
<polygon fill="yellow" stroke="black" points="676.92,-563 676.92,-839 904.92,-839 904.92,-563 676.92,-563"/>
</g>
<g id="clust7" class="cluster">
<title>cluster_5</title>
<polygon fill="yellow" stroke="black" points="1551.89,-476 1551.89,-920 1685.01,-920 1685.01,-476 1551.89,-476"/>
</g>
<g id="clust8" class="cluster">
<title>cluster_6</title>
<polygon fill="yellow" stroke="black" points="288.71,-572 288.71,-932 500.71,-932 500.71,-572 288.71,-572"/>
</g>
<!-- n0_condition -->
<g id="node1" class="node">
<title>n0_condition</title>
<polygon fill="white" stroke="black" points="34.69,-895 34.69,-931 112.69,-931 112.69,-895 34.69,-895"/>
<text text-anchor="middle" x="73.69" y="-909.3" font-family="Times,serif" font-size="14.00">feynman</text>
</g>
<!-- n0_port_0 -->
<g id="node2" class="node">
<title>n0_port_0</title>
<polygon fill="white" stroke="black" points="131.56,-845.33 73.69,-868.43 15.81,-845.33 15.87,-807.96 131.5,-807.96 131.56,-845.33"/>
<text text-anchor="middle" x="73.69" y="-838.8" font-family="Times,serif" font-size="14.00">degree</text>
<text text-anchor="middle" x="73.69" y="-823.8" font-family="Times,serif" font-size="14.00">int</text>
</g>
<!-- n0_place_0 -->
<g id="node4" class="node">
<title>n0_place_0</title>
<ellipse fill="white" stroke="black" cx="214.04" cy="-835" rx="46.84" ry="26.74"/>
<text text-anchor="middle" x="214.04" y="-838.8" font-family="Times,serif" font-size="14.00">degree</text>
<text text-anchor="middle" x="214.04" y="-823.8" font-family="Times,serif" font-size="14.00">int</text>
</g>
<!-- n0_port_0&#45;&gt;n0_place_0 -->
<g id="edge20" class="edge">
<title>n0_port_0&#45;&gt;n0_place_0</title>
<path fill="none" stroke="black" stroke-dasharray="1,5" d="M131.76,-835C143.52,-835 155.76,-835 167.07,-835"/>
</g>
<!-- n0_port_1 -->
<g id="node3" class="node">
<title>n0_port_1</title>
<polygon fill="white" stroke="black" points="118.34,-761.33 73.69,-784.43 29.03,-761.33 29.08,-723.96 118.3,-723.96 118.34,-761.33"/>
<text text-anchor="middle" x="73.69" y="-754.8" font-family="Times,serif" font-size="14.00">edge</text>
<text text-anchor="middle" x="73.69" y="-739.8" font-family="Times,serif" font-size="14.00">int</text>
</g>
<!-- n0_place_2 -->
<g id="node6" class="node">
<title>n0_place_2</title>
<ellipse fill="white" stroke="black" cx="214.04" cy="-751" rx="36.12" ry="26.74"/>
<text text-anchor="middle" x="214.04" y="-754.8" font-family="Times,serif" font-size="14.00">edge</text>
<text text-anchor="middle" x="214.04" y="-739.8" font-family="Times,serif" font-size="14.00">int</text>
</g>
<!-- n0_port_1&#45;&gt;n0_place_2 -->
<g id="edge21" class="edge">
<title>n0_port_1&#45;&gt;n0_place_2</title>
<path fill="none" stroke="black" stroke-dasharray="1,5" d="M118.46,-751C137.62,-751 159.8,-751 177.86,-751"/>
</g>
<!-- n6_port_0 -->
<g id="node41" class="node">
<title>n6_port_0</title>
<polygon fill="white" stroke="black" points="426.14,-845.33 394.71,-868.43 363.28,-845.33 363.31,-807.96 426.11,-807.96 426.14,-845.33"/>
<text text-anchor="middle" x="394.71" y="-838.8" font-family="Times,serif" font-size="14.00">d</text>
<text text-anchor="middle" x="394.71" y="-823.8" font-family="Times,serif" font-size="14.00">int</text>
</g>
<!-- n0_place_0&#45;&gt;n6_port_0 -->
<g id="edge18" class="edge">
<title>n0_place_0&#45;&gt;n6_port_0</title>
<path fill="none" stroke="black" d="M261.05,-835C289.47,-835 325.62,-835 352.99,-835"/>
<polygon fill="black" stroke="black" points="353.02,-838.5 363.02,-835 353.02,-831.5 353.02,-838.5"/>
</g>
<!-- n0_place_1 -->
<g id="node5" class="node">
<title>n0_place_1</title>
<ellipse fill="white" stroke="black" cx="1002.21" cy="-758" rx="69.09" ry="26.74"/>
<text text-anchor="middle" x="1002.21" y="-761.8" font-family="Times,serif" font-size="14.00">branchtype</text>
<text text-anchor="middle" x="1002.21" y="-746.8" font-family="Times,serif" font-size="14.00">string</text>
</g>
<!-- n3_port_0 -->
<g id="node26" class="node">
<title>n3_port_0</title>
<polygon fill="white" stroke="black" points="1290.65,-774.33 1239.01,-797.43 1187.38,-774.33 1187.42,-736.96 1290.6,-736.96 1290.65,-774.33"/>
<text text-anchor="middle" x="1239.01" y="-767.8" font-family="Times,serif" font-size="14.00">a</text>
<text text-anchor="middle" x="1239.01" y="-752.8" font-family="Times,serif" font-size="14.00">string</text>
</g>
<!-- n0_place_1&#45;&gt;n3_port_0 -->
<g id="edge9" class="edge">
<title>n0_place_1&#45;&gt;n3_port_0</title>
<path fill="none" stroke="black" d="M1071.44,-759.74C1104.8,-760.6 1144.61,-761.61 1176.95,-762.44"/>
<polygon fill="black" stroke="black" points="1177.09,-765.94 1187.17,-762.7 1177.27,-758.95 1177.09,-765.94"/>
</g>
<!-- n6_port_1 -->
<g id="node42" class="node">
<title>n6_port_1</title>
<polygon fill="white" stroke="black" points="426.14,-761.33 394.71,-784.43 363.28,-761.33 363.31,-723.96 426.11,-723.96 426.14,-761.33"/>
<text text-anchor="middle" x="394.71" y="-754.8" font-family="Times,serif" font-size="14.00">n</text>
<text text-anchor="middle" x="394.71" y="-739.8" font-family="Times,serif" font-size="14.00">int</text>
</g>
<!-- n0_place_2&#45;&gt;n6_port_1 -->
<g id="edge19" class="edge">
<title>n0_place_2&#45;&gt;n6_port_1</title>
<path fill="none" stroke="black" d="M250.34,-751C279.94,-751 322.23,-751 353.21,-751"/>
<polygon fill="black" stroke="black" points="353.24,-754.5 363.24,-751 353.24,-747.5 353.24,-754.5"/>
</g>
<!-- n0_place_3 -->
<g id="node7" class="node">
<title>n0_place_3</title>
<ellipse fill="white" stroke="black" cx="1763.22" cy="-125" rx="27" ry="26.74"/>
<text text-anchor="middle" x="1763.22" y="-128.8" font-family="Times,serif" font-size="14.00">R</text>
<text text-anchor="middle" x="1763.22" y="-113.8" font-family="Times,serif" font-size="14.00">int</text>
</g>
<!-- n1_port_2 -->
<g id="node16" class="node">
<title>n1_port_2</title>
<polygon fill="white" stroke="black" points="1919.35,-665.33 1887.92,-688.43 1856.49,-665.33 1856.52,-627.96 1919.32,-627.96 1919.35,-665.33"/>
<text text-anchor="middle" x="1887.92" y="-658.8" font-family="Times,serif" font-size="14.00">r</text>
<text text-anchor="middle" x="1887.92" y="-643.8" font-family="Times,serif" font-size="14.00">int</text>
</g>
<!-- n0_place_3&#45;&gt;n1_port_2 -->
<g id="edge2" class="edge">
<title>n0_place_3&#45;&gt;n1_port_2</title>
<path fill="none" stroke="black" d="M1769.51,-151.17C1779.1,-199.03 1799.59,-303.95 1813.42,-393 1828.55,-490.4 1796.26,-525.39 1841.42,-613 1843.53,-617.09 1846.2,-620.98 1849.19,-624.63"/>
<polygon fill="black" stroke="black" points="1846.82,-627.22 1856.16,-632.22 1851.97,-622.49 1846.82,-627.22"/>
</g>
<!-- n0_place_4 -->
<g id="node8" class="node">
<title>n0_place_4</title>
<ellipse fill="white" stroke="black" cx="588.81" cy="-692" rx="60.21" ry="26.74"/>
<text text-anchor="middle" x="588.81" y="-695.8" font-family="Times,serif" font-size="14.00">d_vectors</text>
<text text-anchor="middle" x="588.81" y="-680.8" font-family="Times,serif" font-size="14.00">string</text>
</g>
<!-- n4_port_0 -->
<g id="node31" class="node">
<title>n4_port_0</title>
<polygon fill="white" stroke="black" points="842.55,-752.33 790.92,-775.43 739.28,-752.33 739.33,-714.96 842.51,-714.96 842.55,-752.33"/>
<text text-anchor="middle" x="790.92" y="-745.8" font-family="Times,serif" font-size="14.00">v</text>
<text text-anchor="middle" x="790.92" y="-730.8" font-family="Times,serif" font-size="14.00">string</text>
</g>
<!-- n0_place_4&#45;&gt;n4_port_0 -->
<g id="edge12" class="edge">
<title>n0_place_4&#45;&gt;n4_port_0</title>
<path fill="none" stroke="black" d="M641.61,-704.94C668.32,-711.62 701.07,-719.8 728.99,-726.78"/>
<polygon fill="black" stroke="black" points="728.49,-730.26 739.04,-729.29 730.18,-723.47 728.49,-730.26"/>
</g>
<!-- n0_place_5 -->
<g id="node9" class="node">
<title>n0_place_5</title>
<ellipse fill="white" stroke="black" cx="1002.21" cy="-680" rx="41.94" ry="26.74"/>
<text text-anchor="middle" x="1002.21" y="-683.8" font-family="Times,serif" font-size="14.00">graph</text>
<text text-anchor="middle" x="1002.21" y="-668.8" font-family="Times,serif" font-size="14.00">string</text>
</g>
<!-- n3_port_1 -->
<g id="node27" class="node">
<title>n3_port_1</title>
<polygon fill="white" stroke="black" points="1290.65,-690.33 1239.01,-713.43 1187.38,-690.33 1187.42,-652.96 1290.6,-652.96 1290.65,-690.33"/>
<text text-anchor="middle" x="1239.01" y="-683.8" font-family="Times,serif" font-size="14.00">G</text>
<text text-anchor="middle" x="1239.01" y="-668.8" font-family="Times,serif" font-size="14.00">string</text>
</g>
<!-- n0_place_5&#45;&gt;n3_port_1 -->
<g id="edge10" class="edge">
<title>n0_place_5&#45;&gt;n3_port_1</title>
<path fill="none" stroke="black" d="M1044.11,-680C1080.89,-680 1135.41,-680 1177.28,-680"/>
<polygon fill="black" stroke="black" points="1177.36,-683.5 1187.36,-680 1177.36,-676.5 1177.36,-683.5"/>
</g>
<!-- n0_place_6 -->
<g id="node10" class="node">
<title>n0_place_6</title>
<ellipse fill="white" stroke="black" cx="1763.22" cy="-429" rx="50.41" ry="26.74"/>
<text text-anchor="middle" x="1763.22" y="-432.8" font-family="Times,serif" font-size="14.00">left_init</text>
<text text-anchor="middle" x="1763.22" y="-417.8" font-family="Times,serif" font-size="14.00">control</text>
</g>
<!-- n5_port_1 -->
<g id="node36" class="node">
<title>n5_port_1</title>
<polygon fill="white" stroke="black" points="1677.07,-665.33 1618.45,-688.43 1559.83,-665.33 1559.89,-627.96 1677.02,-627.96 1677.07,-665.33"/>
<text text-anchor="middle" x="1618.45" y="-658.8" font-family="Times,serif" font-size="14.00">s</text>
<text text-anchor="middle" x="1618.45" y="-643.8" font-family="Times,serif" font-size="14.00">control</text>
</g>
<!-- n0_place_6&#45;&gt;n5_port_1 -->
<g id="edge16" class="edge">
<title>n0_place_6&#45;&gt;n5_port_1</title>
<path fill="none" stroke="black" d="M1756.37,-455.72C1746.89,-494.09 1725.03,-565.41 1685.01,-613 1682.61,-615.86 1679.96,-618.59 1677.15,-621.19"/>
<polygon fill="black" stroke="black" points="1674.76,-618.62 1669.38,-627.74 1679.28,-623.97 1674.76,-618.62"/>
</g>
<!-- n0_place_7 -->
<g id="node11" class="node">
<title>n0_place_7</title>
<ellipse fill="white" stroke="black" cx="1465.2" cy="-797" rx="27" ry="26.74"/>
<text text-anchor="middle" x="1465.2" y="-800.8" font-family="Times,serif" font-size="14.00">fey</text>
<text text-anchor="middle" x="1465.2" y="-785.8" font-family="Times,serif" font-size="14.00">int</text>
</g>
<!-- n2_port_0 -->
<g id="node20" class="node">
<title>n2_port_0</title>
<polygon fill="white" stroke="black" points="1649.88,-381.33 1618.45,-404.43 1587.02,-381.33 1587.05,-343.96 1649.85,-343.96 1649.88,-381.33"/>
<text text-anchor="middle" x="1618.45" y="-374.8" font-family="Times,serif" font-size="14.00">a</text>
<text text-anchor="middle" x="1618.45" y="-359.8" font-family="Times,serif" font-size="14.00">int</text>
</g>
<!-- n0_place_7&#45;&gt;n2_port_0 -->
<g id="edge7" class="edge">
<title>n0_place_7&#45;&gt;n2_port_0</title>
<path fill="none" stroke="black" d="M1469.53,-770.32C1479.53,-693.39 1511.14,-472.91 1551.89,-414 1559.15,-403.51 1569.89,-394.93 1580.58,-388.28"/>
<polygon fill="black" stroke="black" points="1582.56,-391.17 1589.47,-383.14 1579.06,-385.11 1582.56,-391.17"/>
</g>
<!-- n5_port_0 -->
<g id="node35" class="node">
<title>n5_port_0</title>
<polygon fill="white" stroke="black" points="1649.88,-833.33 1618.45,-856.43 1587.02,-833.33 1587.05,-795.96 1649.85,-795.96 1649.88,-833.33"/>
<text text-anchor="middle" x="1618.45" y="-826.8" font-family="Times,serif" font-size="14.00">a</text>
<text text-anchor="middle" x="1618.45" y="-811.8" font-family="Times,serif" font-size="14.00">int</text>
</g>
<!-- n0_place_7&#45;&gt;n5_port_0 -->
<g id="edge15" class="edge">
<title>n0_place_7&#45;&gt;n5_port_0</title>
<path fill="none" stroke="black" d="M1491.86,-801.41C1515.18,-805.42 1549.96,-811.4 1577.02,-816.05"/>
<polygon fill="black" stroke="black" points="1576.52,-819.52 1586.97,-817.76 1577.71,-812.62 1576.52,-819.52"/>
</g>
<!-- n0_place_8 -->
<g id="node12" class="node">
<title>n0_place_8</title>
<ellipse fill="white" stroke="black" cx="1465.2" cy="-429" rx="58.88" ry="37.45"/>
<text text-anchor="middle" x="1465.2" y="-440.3" font-family="Times,serif" font-size="14.00">right_init</text>
<text text-anchor="middle" x="1465.2" y="-425.3" font-family="Times,serif" font-size="14.00">control</text>
<text text-anchor="middle" x="1465.2" y="-410.3" font-family="Times,serif" font-size="14.00">[]</text>
</g>
<!-- n2_port_1 -->
<g id="node21" class="node">
<title>n2_port_1</title>
<polygon fill="white" stroke="black" points="1677.07,-297.33 1618.45,-320.43 1559.83,-297.33 1559.89,-259.96 1677.02,-259.96 1677.07,-297.33"/>
<text text-anchor="middle" x="1618.45" y="-290.8" font-family="Times,serif" font-size="14.00">s</text>
<text text-anchor="middle" x="1618.45" y="-275.8" font-family="Times,serif" font-size="14.00">control</text>
</g>
<!-- n0_place_8&#45;&gt;n2_port_1 -->
<g id="edge6" class="edge">
<title>n0_place_8&#45;&gt;n2_port_1</title>
<path fill="none" stroke="black" d="M1491.01,-395.29C1507.05,-374.78 1529.12,-348.81 1551.89,-329 1558.63,-323.13 1566.27,-317.49 1573.88,-312.36"/>
<polygon fill="black" stroke="black" points="1576.29,-314.97 1582.76,-306.58 1572.47,-309.1 1576.29,-314.97"/>
</g>
<!-- n0_place_9 -->
<g id="node13" class="node">
<title>n0_place_9</title>
<ellipse fill="white" stroke="black" cx="1763.22" cy="-739" rx="27" ry="26.74"/>
<text text-anchor="middle" x="1763.22" y="-742.8" font-family="Times,serif" font-size="14.00">L</text>
<text text-anchor="middle" x="1763.22" y="-727.8" font-family="Times,serif" font-size="14.00">int</text>
</g>
<!-- n1_port_1 -->
<g id="node15" class="node">
<title>n1_port_1</title>
<polygon fill="white" stroke="black" points="1919.35,-749.33 1887.92,-772.43 1856.49,-749.33 1856.52,-711.96 1919.32,-711.96 1919.35,-749.33"/>
<text text-anchor="middle" x="1887.92" y="-742.8" font-family="Times,serif" font-size="14.00">l</text>
<text text-anchor="middle" x="1887.92" y="-727.8" font-family="Times,serif" font-size="14.00">int</text>
</g>
<!-- n0_place_9&#45;&gt;n1_port_1 -->
<g id="edge3" class="edge">
<title>n0_place_9&#45;&gt;n1_port_1</title>
<path fill="none" stroke="black" d="M1790.24,-739C1806.43,-739 1827.59,-739 1845.99,-739"/>
<polygon fill="black" stroke="black" points="1846.16,-742.5 1856.16,-739 1846.16,-735.5 1846.16,-742.5"/>
</g>
<!-- n1_condition -->
<g id="node14" class="node">
<title>n1_condition</title>
<polygon fill="white" stroke="black" points="1853.42,-875 1853.42,-911 1922.42,-911 1922.42,-875 1853.42,-875"/>
<text text-anchor="middle" x="1887.92" y="-889.3" font-family="Times,serif" font-size="14.00">Reduce</text>
</g>
<!-- n1_port_0 -->
<g id="node17" class="node">
<title>n1_port_0</title>
<polygon fill="white" stroke="black" points="1856.49,-812.67 1887.92,-789.57 1919.35,-812.67 1919.32,-850.04 1856.52,-850.04 1856.49,-812.67"/>
<text text-anchor="middle" x="1887.92" y="-826.8" font-family="Times,serif" font-size="14.00">s</text>
<text text-anchor="middle" x="1887.92" y="-811.8" font-family="Times,serif" font-size="14.00">int</text>
</g>
<!-- n1_port_0&#45;&gt;n0_place_7 -->
<g id="edge1" class="edge">
<title>n1_port_0&#45;&gt;n0_place_7</title>
<path fill="none" stroke="black" d="M1856.27,-847.29C1795.41,-892.35 1656.22,-979.46 1551.89,-924 1515.55,-904.68 1491.83,-862.31 1478.75,-831.82"/>
<polygon fill="black" stroke="black" points="1481.92,-830.3 1474.88,-822.38 1475.44,-832.96 1481.92,-830.3"/>
</g>
<!-- n1_modcall -->
<g id="node18" class="node">
<title>n1_modcall</title>
<polygon fill="white" stroke="black" points="1926.42,-604 1849.42,-604 1849.42,-568 1926.42,-568 1926.42,-604"/>
<text text-anchor="middle" x="1887.92" y="-582.3" font-family="Times,serif" font-size="14.00">sum.add</text>
</g>
<!-- n2_condition -->
<g id="node19" class="node">
<title>n2_condition</title>
<polygon fill="white" stroke="black" points="1591.45,-423 1591.45,-459 1645.45,-459 1645.45,-423 1591.45,-423"/>
<text text-anchor="middle" x="1618.45" y="-437.3" font-family="Times,serif" font-size="14.00">RHS</text>
</g>
<!-- n2_port_2 -->
<g id="node22" class="node">
<title>n2_port_2</title>
<polygon fill="white" stroke="black" points="1587.02,-108.67 1618.45,-85.57 1649.88,-108.67 1649.85,-146.04 1587.05,-146.04 1587.02,-108.67"/>
<text text-anchor="middle" x="1618.45" y="-122.8" font-family="Times,serif" font-size="14.00">a</text>
<text text-anchor="middle" x="1618.45" y="-107.8" font-family="Times,serif" font-size="14.00">int</text>
</g>
<!-- n2_port_2&#45;&gt;n0_place_3 -->
<g id="edge4" class="edge">
<title>n2_port_2&#45;&gt;n0_place_3</title>
<path fill="none" stroke="black" d="M1650.08,-120.29C1672.25,-121.22 1702.3,-122.48 1725.71,-123.47"/>
<polygon fill="black" stroke="black" points="1725.81,-126.97 1735.95,-123.9 1726.11,-119.98 1725.81,-126.97"/>
</g>
<!-- n2_port_3 -->
<g id="node23" class="node">
<title>n2_port_3</title>
<polygon fill="white" stroke="black" points="1559.83,-192.67 1618.45,-169.57 1677.07,-192.67 1677.02,-230.04 1559.89,-230.04 1559.83,-192.67"/>
<text text-anchor="middle" x="1618.45" y="-206.8" font-family="Times,serif" font-size="14.00">s</text>
<text text-anchor="middle" x="1618.45" y="-191.8" font-family="Times,serif" font-size="14.00">control</text>
</g>
<!-- n2_port_3&#45;&gt;n0_place_6 -->
<g id="edge5" class="edge">
<title>n2_port_3&#45;&gt;n0_place_6</title>
<path fill="none" stroke="black" d="M1669.38,-230.26C1675.1,-234.69 1680.49,-239.62 1685.01,-245 1721.83,-288.78 1743.27,-352.64 1753.85,-392.46"/>
<polygon fill="black" stroke="black" points="1750.5,-393.46 1756.37,-402.28 1757.28,-391.72 1750.5,-393.46"/>
</g>
<!-- n2_modcall -->
<g id="node24" class="node">
<title>n2_modcall</title>
<polygon fill="white" stroke="black" points="1663.95,-68 1572.95,-68 1572.95,-32 1663.95,-32 1663.95,-68"/>
<text text-anchor="middle" x="1618.45" y="-46.3" font-family="Times,serif" font-size="14.00">token.plus</text>
</g>
<!-- n3_condition -->
<g id="node25" class="node">
<title>n3_condition</title>
<polygon fill="white" stroke="black" points="1200.01,-816 1200.01,-852 1278.01,-852 1278.01,-816 1200.01,-816"/>
<text text-anchor="middle" x="1239.01" y="-830.3" font-family="Times,serif" font-size="14.00">feynman</text>
</g>
<!-- n3_port_2 -->
<g id="node28" class="node">
<title>n3_port_2</title>
<polygon fill="white" stroke="black" points="1207.58,-585.67 1239.01,-562.57 1270.44,-585.67 1270.41,-623.04 1207.61,-623.04 1207.58,-585.67"/>
<text text-anchor="middle" x="1239.01" y="-599.8" font-family="Times,serif" font-size="14.00">s</text>
<text text-anchor="middle" x="1239.01" y="-584.8" font-family="Times,serif" font-size="14.00">int</text>
</g>
<!-- n3_port_2&#45;&gt;n0_place_7 -->
<g id="edge8" class="edge">
<title>n3_port_2&#45;&gt;n0_place_7</title>
<path fill="none" stroke="black" d="M1270.7,-598.55C1301.07,-602.51 1347.39,-612.55 1378.51,-638 1417.9,-670.21 1441.78,-725.46 1453.99,-761.6"/>
<polygon fill="black" stroke="black" points="1450.71,-762.83 1457.13,-771.26 1457.36,-760.66 1450.71,-762.83"/>
</g>
<!-- n3_modcall -->
<g id="node29" class="node">
<title>n3_modcall</title>
<polygon fill="white" stroke="black" points="1370.51,-545 1107.51,-545 1107.51,-509 1370.51,-509 1370.51,-545"/>
<text text-anchor="middle" x="1239.01" y="-523.3" font-family="Times,serif" font-size="14.00">feynman.feynman_integral_degree</text>
</g>
<!-- n4_condition -->
<g id="node30" class="node">
<title>n4_condition</title>
<polygon fill="white" stroke="black" points="737.42,-794 737.42,-830 844.42,-830 844.42,-794 737.42,-794"/>
<text text-anchor="middle" x="790.92" y="-808.3" font-family="Times,serif" font-size="14.00">Combination</text>
</g>
<!-- n4_port_1 -->
<g id="node32" class="node">
<title>n4_port_1</title>
<polygon fill="white" stroke="black" points="739.28,-647.67 790.92,-624.57 842.55,-647.67 842.51,-685.04 739.33,-685.04 739.28,-647.67"/>
<text text-anchor="middle" x="790.92" y="-661.8" font-family="Times,serif" font-size="14.00">vec</text>
<text text-anchor="middle" x="790.92" y="-646.8" font-family="Times,serif" font-size="14.00">string</text>
</g>
<!-- n4_port_1&#45;&gt;n0_place_1 -->
<g id="edge11" class="edge">
<title>n4_port_1&#45;&gt;n0_place_1</title>
<path fill="none" stroke="black" d="M842.54,-674.54C862.34,-681.6 885.03,-690.42 904.92,-700 910.41,-702.65 933.47,-716.52 955.65,-730.03"/>
<polygon fill="black" stroke="black" points="954.03,-733.15 964.39,-735.37 957.68,-727.17 954.03,-733.15"/>
</g>
<!-- n4_modcall -->
<g id="node33" class="node">
<title>n4_modcall</title>
<polygon fill="white" stroke="black" points="896.92,-607 684.92,-607 684.92,-571 896.92,-571 896.92,-607"/>
<text text-anchor="middle" x="790.92" y="-585.3" font-family="Times,serif" font-size="14.00">Combination.next_partition</text>
</g>
<!-- n5_condition -->
<g id="node34" class="node">
<title>n5_condition</title>
<polygon fill="white" stroke="black" points="1591.45,-875 1591.45,-911 1645.45,-911 1645.45,-875 1591.45,-875"/>
<text text-anchor="middle" x="1618.45" y="-889.3" font-family="Times,serif" font-size="14.00">LHS</text>
</g>
<!-- n5_port_2 -->
<g id="node37" class="node">
<title>n5_port_2</title>
<polygon fill="white" stroke="black" points="1587.02,-728.67 1618.45,-705.57 1649.88,-728.67 1649.85,-766.04 1587.05,-766.04 1587.02,-728.67"/>
<text text-anchor="middle" x="1618.45" y="-742.8" font-family="Times,serif" font-size="14.00">a</text>
<text text-anchor="middle" x="1618.45" y="-727.8" font-family="Times,serif" font-size="14.00">int</text>
</g>
<!-- n5_port_2&#45;&gt;n0_place_9 -->
<g id="edge13" class="edge">
<title>n5_port_2&#45;&gt;n0_place_9</title>
<path fill="none" stroke="black" d="M1650.08,-739C1672.25,-739 1702.3,-739 1725.71,-739"/>
<polygon fill="black" stroke="black" points="1725.95,-742.5 1735.95,-739 1725.95,-735.5 1725.95,-742.5"/>
</g>
<!-- n5_port_3 -->
<g id="node38" class="node">
<title>n5_port_3</title>
<polygon fill="white" stroke="black" points="1559.83,-560.67 1618.45,-537.57 1677.07,-560.67 1677.02,-598.04 1559.89,-598.04 1559.83,-560.67"/>
<text text-anchor="middle" x="1618.45" y="-574.8" font-family="Times,serif" font-size="14.00">s</text>
<text text-anchor="middle" x="1618.45" y="-559.8" font-family="Times,serif" font-size="14.00">control</text>
</g>
<!-- n5_port_3&#45;&gt;n0_place_8 -->
<g id="edge14" class="edge">
<title>n5_port_3&#45;&gt;n0_place_8</title>
<path fill="none" stroke="black" d="M1582.76,-551.42C1572.38,-544.88 1561.27,-537.16 1551.89,-529 1531.97,-511.67 1512.58,-489.62 1497.3,-470.64"/>
<polygon fill="black" stroke="black" points="1499.97,-468.37 1491.01,-462.71 1494.49,-472.72 1499.97,-468.37"/>
</g>
<!-- n5_modcall -->
<g id="node39" class="node">
<title>n5_modcall</title>
<polygon fill="white" stroke="black" points="1668.95,-520 1567.95,-520 1567.95,-484 1668.95,-484 1668.95,-520"/>
<text text-anchor="middle" x="1618.45" y="-498.3" font-family="Times,serif" font-size="14.00">token.count</text>
</g>
<!-- n6_condition -->
<g id="node40" class="node">
<title>n6_condition</title>
<polygon fill="white" stroke="black" points="355.21,-887 355.21,-923 434.21,-923 434.21,-887 355.21,-887"/>
<text text-anchor="middle" x="394.71" y="-901.3" font-family="Times,serif" font-size="14.00">partition</text>
</g>
<!-- n6_port_2 -->
<g id="node43" class="node">
<title>n6_port_2</title>
<polygon fill="white" stroke="black" points="343.07,-656.67 394.71,-633.57 446.35,-656.67 446.3,-694.04 343.12,-694.04 343.07,-656.67"/>
<text text-anchor="middle" x="394.71" y="-670.8" font-family="Times,serif" font-size="14.00">v</text>
<text text-anchor="middle" x="394.71" y="-655.8" font-family="Times,serif" font-size="14.00">string</text>
</g>
<!-- n6_port_2&#45;&gt;n0_place_4 -->
<g id="edge17" class="edge">
<title>n6_port_2&#45;&gt;n0_place_4</title>
<path fill="none" stroke="black" d="M446.43,-673.6C469.1,-676.55 496.13,-680.07 520.46,-683.23"/>
<polygon fill="black" stroke="black" points="520.33,-686.75 530.7,-684.57 521.23,-679.81 520.33,-686.75"/>
</g>
<!-- n6_modcall -->
<g id="node44" class="node">
<title>n6_modcall</title>
<polygon fill="white" stroke="black" points="492.71,-616 296.71,-616 296.71,-580 492.71,-580 492.71,-616"/>
<text text-anchor="middle" x="394.71" y="-594.3" font-family="Times,serif" font-size="14.00">Sum_degree.sum_degree</text>
</g>
</g>
</svg>
