<?xml version="1.0" encoding="UTF-8" standalone="no"?>
<!DOCTYPE svg PUBLIC "-//W3C//DTD SVG 1.1//EN"
 "http://www.w3.org/Graphics/SVG/1.1/DTD/svg11.dtd">
<!-- Generated by graphviz version 2.43.0 (0)
 -->
<!-- Title: feynman_deg Pages: 1 -->
<svg width="3165pt" height="1138pt"
 viewBox="0.00 0.00 3164.61 1138.00" xmlns="http://www.w3.org/2000/svg" xmlns:xlink="http://www.w3.org/1999/xlink">
<g id="graph0" class="graph" transform="scale(1 1) rotate(0) translate(4 1134)">
<title>feynman_deg</title>
<polygon fill="white" stroke="transparent" points="-4,4 -4,-1134 3160.61,-1134 3160.61,4 -4,4"/>
<g id="clust1" class="cluster">
<title>cluster_0</title>
<polygon fill="dimgray" stroke="black" points="8,-8 8,-1122 3148.61,-1122 3148.61,-8 8,-8"/>
</g>
<g id="clust2" class="cluster">
<title>cluster_net_0</title>
<polygon fill="white" stroke="black" points="159.37,-90 159.37,-956 3140.61,-956 3140.61,-90 159.37,-90"/>
</g>
<g id="clust3" class="cluster">
<title>cluster_1</title>
<polygon fill="yellow" stroke="black" points="2810.45,-98 2810.45,-458 3008.45,-458 3008.45,-98 2810.45,-98"/>
</g>
<g id="clust4" class="cluster">
<title>cluster_2</title>
<polygon fill="yellow" stroke="black" points="2390.38,-478 2390.38,-948 2648.38,-948 2648.38,-478 2390.38,-478"/>
</g>
<g id="clust5" class="cluster">
<title>cluster_3</title>
<polygon fill="yellow" stroke="black" points="2409.12,-110 2409.12,-470 2629.64,-470 2629.64,-110 2409.12,-110"/>
</g>
<g id="clust6" class="cluster">
<title>cluster_4</title>
<polygon fill="yellow" stroke="black" points="1964.66,-252 1964.66,-696 2152.66,-696 2152.66,-252 1964.66,-252"/>
</g>
<g id="clust7" class="cluster">
<title>cluster_5</title>
<polygon fill="yellow" stroke="black" points="1457.23,-504 1457.23,-948 1796.23,-948 1796.23,-504 1457.23,-504"/>
</g>
<g id="clust8" class="cluster">
<title>cluster_6</title>
<polygon fill="yellow" stroke="black" points="1042.64,-536 1042.64,-812 1262.64,-812 1262.64,-536 1042.64,-536"/>
</g>
<g id="clust9" class="cluster">
<title>cluster_7</title>
<polygon fill="yellow" stroke="black" points="631.43,-588 631.43,-948 866.43,-948 866.43,-588 631.43,-588"/>
</g>
<g id="clust10" class="cluster">
<title>cluster_8</title>
<polygon fill="yellow" stroke="black" points="288.71,-273 288.71,-633 470.78,-633 470.78,-273 288.71,-273"/>
</g>
<!-- n0_condition -->
<g id="node1" class="node">
<title>n0_condition</title>
<polygon fill="white" stroke="black" points="18.19,-914 18.19,-950 129.19,-950 129.19,-914 18.19,-914"/>
<text text-anchor="middle" x="73.69" y="-928.3" font-family="Times,serif" font-size="14.00">feynman_deg</text>
</g>
<!-- n0_port_0 -->
<g id="node2" class="node">
<title>n0_port_0</title>
<polygon fill="white" stroke="black" points="131.56,-546.33 73.69,-569.43 15.81,-546.33 15.87,-508.96 131.5,-508.96 131.56,-546.33"/>
<text text-anchor="middle" x="73.69" y="-539.8" font-family="Times,serif" font-size="14.00">degree</text>
<text text-anchor="middle" x="73.69" y="-524.8" font-family="Times,serif" font-size="14.00">int</text>
</g>
<!-- n0_place_2 -->
<g id="node19" class="node">
<title>n0_place_2</title>
<ellipse fill="white" stroke="black" cx="214.04" cy="-536" rx="46.84" ry="26.74"/>
<text text-anchor="middle" x="214.04" y="-539.8" font-family="Times,serif" font-size="14.00">degree</text>
<text text-anchor="middle" x="214.04" y="-524.8" font-family="Times,serif" font-size="14.00">int</text>
</g>
<!-- n0_port_0&#45;&gt;n0_place_2 -->
<g id="edge27" class="edge">
<title>n0_port_0&#45;&gt;n0_place_2</title>
<path fill="none" stroke="black" stroke-dasharray="1,5" d="M131.76,-536C143.52,-536 155.76,-536 167.07,-536"/>
</g>
<!-- n0_port_1 -->
<g id="node3" class="node">
<title>n0_port_1</title>
<polygon fill="white" stroke="black" points="1190.3,-1091.33 1152.64,-1114.43 1114.97,-1091.33 1115,-1053.96 1190.27,-1053.96 1190.3,-1091.33"/>
<text text-anchor="middle" x="1152.64" y="-1084.8" font-family="Times,serif" font-size="14.00">deg</text>
<text text-anchor="middle" x="1152.64" y="-1069.8" font-family="Times,serif" font-size="14.00">int</text>
</g>
<!-- n0_place_4 -->
<g id="node17" class="node">
<title>n0_place_4</title>
<ellipse fill="white" stroke="black" cx="1359.93" cy="-886" rx="30.31" ry="26.74"/>
<text text-anchor="middle" x="1359.93" y="-889.8" font-family="Times,serif" font-size="14.00">deg</text>
<text text-anchor="middle" x="1359.93" y="-874.8" font-family="Times,serif" font-size="14.00">int</text>
</g>
<!-- n0_port_1&#45;&gt;n0_place_4 -->
<g id="edge28" class="edge">
<title>n0_port_1&#45;&gt;n0_place_4</title>
<path fill="none" stroke="black" stroke-dasharray="1,5" d="M1190.26,-1073.17C1212.99,-1066.88 1241.73,-1056.2 1262.64,-1039 1305.29,-1003.91 1334.81,-944.75 1349.1,-911.2"/>
</g>
<!-- n0_port_2 -->
<g id="node4" class="node">
<title>n0_port_2</title>
<polygon fill="white" stroke="black" points="2160.68,-1007.33 2058.66,-1030.43 1956.63,-1007.33 1956.73,-969.96 2160.59,-969.96 2160.68,-1007.33"/>
<text text-anchor="middle" x="2058.66" y="-1000.8" font-family="Times,serif" font-size="14.00">total</text>
<text text-anchor="middle" x="2058.66" y="-985.8" font-family="Times,serif" font-size="14.00">unsigned long</text>
</g>
<!-- n0_place_10 -->
<g id="node11" class="node">
<title>n0_place_10</title>
<ellipse fill="white" stroke="black" cx="2279.65" cy="-873" rx="82.96" ry="26.74"/>
<text text-anchor="middle" x="2279.65" y="-876.8" font-family="Times,serif" font-size="14.00">total</text>
<text text-anchor="middle" x="2279.65" y="-861.8" font-family="Times,serif" font-size="14.00">unsigned long</text>
</g>
<!-- n0_port_2&#45;&gt;n0_place_10 -->
<g id="edge29" class="edge">
<title>n0_port_2&#45;&gt;n0_place_10</title>
<path fill="none" stroke="black" stroke-dasharray="1,5" d="M2107.45,-969.94C2146.33,-947.92 2200.64,-917.17 2237.59,-896.25"/>
</g>
<!-- n0_port_3 -->
<g id="node5" class="node">
<title>n0_port_3</title>
<polygon fill="white" stroke="black" points="411.17,-1007.33 379.74,-1030.43 348.31,-1007.33 348.34,-969.96 411.14,-969.96 411.17,-1007.33"/>
<text text-anchor="middle" x="379.74" y="-1000.8" font-family="Times,serif" font-size="14.00">N</text>
<text text-anchor="middle" x="379.74" y="-985.8" font-family="Times,serif" font-size="14.00">int</text>
</g>
<!-- n0_place_5 -->
<g id="node16" class="node">
<title>n0_place_5</title>
<ellipse fill="white" stroke="black" cx="551.1" cy="-886" rx="27" ry="26.74"/>
<text text-anchor="middle" x="551.1" y="-889.8" font-family="Times,serif" font-size="14.00">N</text>
<text text-anchor="middle" x="551.1" y="-874.8" font-family="Times,serif" font-size="14.00">int</text>
</g>
<!-- n0_port_3&#45;&gt;n0_place_5 -->
<g id="edge30" class="edge">
<title>n0_port_3&#45;&gt;n0_place_5</title>
<path fill="none" stroke="black" stroke-dasharray="1,5" d="M411.41,-976.9C445.06,-954.85 498.24,-919.99 528.02,-900.47"/>
</g>
<!-- n0_port_4 -->
<g id="node6" class="node">
<title>n0_port_4</title>
<polygon fill="white" stroke="black" points="1204.27,-1007.33 1152.64,-1030.43 1101,-1007.33 1101.05,-969.96 1204.22,-969.96 1204.27,-1007.33"/>
<text text-anchor="middle" x="1152.64" y="-1000.8" font-family="Times,serif" font-size="14.00">graph</text>
<text text-anchor="middle" x="1152.64" y="-985.8" font-family="Times,serif" font-size="14.00">list</text>
</g>
<!-- n0_place_1 -->
<g id="node20" class="node">
<title>n0_place_1</title>
<ellipse fill="white" stroke="black" cx="1359.93" cy="-790" rx="41.94" ry="26.74"/>
<text text-anchor="middle" x="1359.93" y="-793.8" font-family="Times,serif" font-size="14.00">graph</text>
<text text-anchor="middle" x="1359.93" y="-778.8" font-family="Times,serif" font-size="14.00">list</text>
</g>
<!-- n0_port_4&#45;&gt;n0_place_1 -->
<g id="edge31" class="edge">
<title>n0_port_4&#45;&gt;n0_place_1</title>
<path fill="none" stroke="black" stroke-dasharray="1,5" d="M1177.37,-969.96C1204.09,-939.88 1249.22,-890.22 1290.64,-850 1304.45,-836.59 1320.61,-822.33 1333.74,-811.08"/>
</g>
<!-- n0_port_5 -->
<g id="node7" class="node">
<title>n0_port_5</title>
<polygon fill="white" stroke="black" points="125.32,-217.33 73.69,-240.43 22.05,-217.33 22.1,-179.96 125.27,-179.96 125.32,-217.33"/>
<text text-anchor="middle" x="73.69" y="-210.8" font-family="Times,serif" font-size="14.00">genus</text>
<text text-anchor="middle" x="73.69" y="-195.8" font-family="Times,serif" font-size="14.00">int</text>
</g>
<!-- n0_place_9 -->
<g id="node12" class="node">
<title>n0_place_9</title>
<ellipse fill="white" stroke="black" cx="214.04" cy="-207" rx="41.94" ry="26.74"/>
<text text-anchor="middle" x="214.04" y="-210.8" font-family="Times,serif" font-size="14.00">genus</text>
<text text-anchor="middle" x="214.04" y="-195.8" font-family="Times,serif" font-size="14.00">int</text>
</g>
<!-- n0_port_5&#45;&gt;n0_place_9 -->
<g id="edge32" class="edge">
<title>n0_port_5&#45;&gt;n0_place_9</title>
<path fill="none" stroke="black" stroke-dasharray="1,5" d="M125.42,-207C140.84,-207 157.59,-207 172.27,-207"/>
</g>
<!-- n0_port_6 -->
<g id="node8" class="node">
<title>n0_port_6</title>
<polygon fill="white" stroke="black" points="2850.08,-38.67 2909.45,-15.57 2968.82,-38.67 2968.76,-76.04 2850.14,-76.04 2850.08,-38.67"/>
<text text-anchor="middle" x="2909.45" y="-52.8" font-family="Times,serif" font-size="14.00">answer</text>
<text text-anchor="middle" x="2909.45" y="-37.8" font-family="Times,serif" font-size="14.00">string</text>
</g>
<!-- n0_place_12 -->
<g id="node9" class="node">
<title>n0_place_12</title>
<ellipse fill="white" stroke="black" cx="3084.53" cy="-159" rx="48.17" ry="26.74"/>
<text text-anchor="middle" x="3084.53" y="-162.8" font-family="Times,serif" font-size="14.00">answer</text>
<text text-anchor="middle" x="3084.53" y="-147.8" font-family="Times,serif" font-size="14.00">string</text>
</g>
<!-- n0_port_6&#45;&gt;n0_place_12 -->
<g id="edge33" class="edge">
<title>n0_port_6&#45;&gt;n0_place_12</title>
<path fill="none" stroke="black" stroke-dasharray="1,5" d="M2968.89,-72.55C2982.28,-78.83 2996.17,-86.1 3008.45,-94 3027.15,-106.04 3046.07,-122.45 3060.24,-135.77"/>
</g>
<!-- n0_place_11 -->
<g id="node10" class="node">
<title>n0_place_11</title>
<ellipse fill="white" stroke="black" cx="551.1" cy="-567" rx="52.15" ry="26.74"/>
<text text-anchor="middle" x="551.1" y="-570.8" font-family="Times,serif" font-size="14.00">degrees</text>
<text text-anchor="middle" x="551.1" y="-555.8" font-family="Times,serif" font-size="14.00">int</text>
</g>
<!-- n7_port_0 -->
<g id="node57" class="node">
<title>n7_port_0</title>
<polygon fill="white" stroke="black" points="780.36,-777.33 748.93,-800.43 717.5,-777.33 717.53,-739.96 780.33,-739.96 780.36,-777.33"/>
<text text-anchor="middle" x="748.93" y="-770.8" font-family="Times,serif" font-size="14.00">i</text>
<text text-anchor="middle" x="748.93" y="-755.8" font-family="Times,serif" font-size="14.00">int</text>
</g>
<!-- n0_place_11&#45;&gt;n7_port_0 -->
<g id="edge22" class="edge">
<title>n0_place_11&#45;&gt;n7_port_0</title>
<path fill="none" stroke="black" d="M558.83,-593.74C568.93,-628.61 591.25,-689.35 631.43,-725 652.68,-743.85 683.02,-754.43 707.42,-760.26"/>
<polygon fill="black" stroke="black" points="706.95,-763.74 717.47,-762.47 708.45,-756.9 706.95,-763.74"/>
</g>
<!-- n2_port_0 -->
<g id="node30" class="node">
<title>n2_port_0</title>
<polygon fill="white" stroke="black" points="2621.41,-835.33 2519.38,-858.43 2417.36,-835.33 2417.45,-797.96 2621.31,-797.96 2621.41,-835.33"/>
<text text-anchor="middle" x="2519.38" y="-828.8" font-family="Times,serif" font-size="14.00">total</text>
<text text-anchor="middle" x="2519.38" y="-813.8" font-family="Times,serif" font-size="14.00">unsigned long</text>
</g>
<!-- n0_place_10&#45;&gt;n2_port_0 -->
<g id="edge7" class="edge">
<title>n0_place_10&#45;&gt;n2_port_0</title>
<path fill="none" stroke="black" stroke-dasharray="5,2" d="M2350.37,-858.92C2375.52,-853.85 2404.23,-848.05 2430.72,-842.7"/>
<polygon fill="black" stroke="black" points="2431.64,-846.09 2440.75,-840.68 2430.25,-839.22 2431.64,-846.09"/>
</g>
<!-- n1_port_2 -->
<g id="node26" class="node">
<title>n1_port_2</title>
<polygon fill="white" stroke="black" points="2992.51,-287.33 2909.45,-310.43 2826.38,-287.33 2826.46,-249.96 2992.44,-249.96 2992.51,-287.33"/>
<text text-anchor="middle" x="2909.45" y="-280.8" font-family="Times,serif" font-size="14.00">weightmax</text>
<text text-anchor="middle" x="2909.45" y="-265.8" font-family="Times,serif" font-size="14.00">int</text>
</g>
<!-- n0_place_9&#45;&gt;n1_port_2 -->
<g id="edge2" class="edge">
<title>n0_place_9&#45;&gt;n1_port_2</title>
<path fill="none" stroke="black" d="M246.3,-189.65C304.31,-159.12 433.37,-99 550.1,-99 550.1,-99 550.1,-99 2520.38,-99 2577.36,-99 2595.13,-85.75 2648.38,-106 2734.43,-138.73 2731.42,-187.78 2810.45,-235 2816.57,-238.66 2823.06,-242.16 2829.68,-245.48"/>
<polygon fill="black" stroke="black" points="2828.23,-248.67 2838.76,-249.89 2831.29,-242.37 2828.23,-248.67"/>
</g>
<!-- n8_port_0 -->
<g id="node62" class="node">
<title>n8_port_0</title>
<polygon fill="white" stroke="black" points="462.81,-462.33 379.74,-485.43 296.68,-462.33 296.75,-424.96 462.73,-424.96 462.81,-462.33"/>
<text text-anchor="middle" x="379.74" y="-455.8" font-family="Times,serif" font-size="14.00">weightmax</text>
<text text-anchor="middle" x="379.74" y="-440.8" font-family="Times,serif" font-size="14.00">int</text>
</g>
<!-- n0_place_9&#45;&gt;n8_port_0 -->
<g id="edge26" class="edge">
<title>n0_place_9&#45;&gt;n8_port_0</title>
<path fill="none" stroke="black" stroke-dasharray="5,2" d="M218.19,-234.06C224.45,-276.51 242.13,-359.11 288.71,-410 291.59,-413.15 294.76,-416.08 298.13,-418.81"/>
<polygon fill="black" stroke="black" points="296.18,-421.72 306.32,-424.81 300.32,-416.08 296.18,-421.72"/>
</g>
<!-- n0_place_8 -->
<g id="node13" class="node">
<title>n0_place_8</title>
<ellipse fill="white" stroke="black" cx="2729.42" cy="-467" rx="53.07" ry="26.74"/>
<text text-anchor="middle" x="2729.42" y="-470.8" font-family="Times,serif" font-size="14.00">fey_sum</text>
<text text-anchor="middle" x="2729.42" y="-455.8" font-family="Times,serif" font-size="14.00">string</text>
</g>
<!-- n1_port_0 -->
<g id="node25" class="node">
<title>n1_port_0</title>
<polygon fill="white" stroke="black" points="2968.82,-371.33 2909.45,-394.43 2850.08,-371.33 2850.14,-333.96 2968.76,-333.96 2968.82,-371.33"/>
<text text-anchor="middle" x="2909.45" y="-364.8" font-family="Times,serif" font-size="14.00">answer</text>
<text text-anchor="middle" x="2909.45" y="-349.8" font-family="Times,serif" font-size="14.00">string</text>
</g>
<!-- n0_place_8&#45;&gt;n1_port_0 -->
<g id="edge3" class="edge">
<title>n0_place_8&#45;&gt;n1_port_0</title>
<path fill="none" stroke="black" d="M2756.59,-443.63C2771.65,-430.9 2791.34,-415.46 2810.45,-404 2824.43,-395.61 2840.35,-387.92 2855.23,-381.44"/>
<polygon fill="black" stroke="black" points="2856.99,-384.49 2864.83,-377.35 2854.25,-378.05 2856.99,-384.49"/>
</g>
<!-- n0_place_7 -->
<g id="node14" class="node">
<title>n0_place_7</title>
<ellipse fill="white" stroke="black" cx="2279.65" cy="-515" rx="41.94" ry="37.45"/>
<text text-anchor="middle" x="2279.65" y="-526.3" font-family="Times,serif" font-size="14.00">sum</text>
<text text-anchor="middle" x="2279.65" y="-511.3" font-family="Times,serif" font-size="14.00">string</text>
<text text-anchor="middle" x="2279.65" y="-496.3" font-family="Times,serif" font-size="14.00">&quot; &quot;</text>
</g>
<!-- n2_port_2 -->
<g id="node32" class="node">
<title>n2_port_2</title>
<polygon fill="white" stroke="black" points="2578.75,-751.33 2519.38,-774.43 2460.01,-751.33 2460.07,-713.96 2578.7,-713.96 2578.75,-751.33"/>
<text text-anchor="middle" x="2519.38" y="-744.8" font-family="Times,serif" font-size="14.00">answer</text>
<text text-anchor="middle" x="2519.38" y="-729.8" font-family="Times,serif" font-size="14.00">string</text>
</g>
<!-- n0_place_7&#45;&gt;n2_port_2 -->
<g id="edge5" class="edge">
<title>n0_place_7&#45;&gt;n2_port_2</title>
<path fill="none" stroke="black" d="M2293.05,-550.7C2309.21,-592.11 2341.31,-659.72 2390.38,-699 2407.56,-712.75 2429.41,-722.07 2450.17,-728.35"/>
<polygon fill="black" stroke="black" points="2449.35,-731.76 2459.92,-731.12 2451.26,-725.03 2449.35,-731.76"/>
</g>
<!-- n4_port_2 -->
<g id="node42" class="node">
<title>n4_port_2</title>
<polygon fill="white" stroke="black" points="2110.29,-525.33 2058.66,-548.43 2007.02,-525.33 2007.07,-487.96 2110.25,-487.96 2110.29,-525.33"/>
<text text-anchor="middle" x="2058.66" y="-518.8" font-family="Times,serif" font-size="14.00">sum</text>
<text text-anchor="middle" x="2058.66" y="-503.8" font-family="Times,serif" font-size="14.00">string</text>
</g>
<!-- n0_place_7&#45;&gt;n4_port_2 -->
<g id="edge13" class="edge">
<title>n0_place_7&#45;&gt;n4_port_2</title>
<path fill="none" stroke="black" d="M2237.65,-515C2204.74,-515 2158.02,-515 2120.71,-515"/>
<polygon fill="black" stroke="black" points="2120.45,-511.5 2110.45,-515 2120.45,-518.5 2120.45,-511.5"/>
</g>
<!-- n0_place_6 -->
<g id="node15" class="node">
<title>n0_place_6</title>
<ellipse fill="white" stroke="black" cx="1872.31" cy="-599" rx="48.17" ry="26.74"/>
<text text-anchor="middle" x="1872.31" y="-602.8" font-family="Times,serif" font-size="14.00">fey_out</text>
<text text-anchor="middle" x="1872.31" y="-587.8" font-family="Times,serif" font-size="14.00">string</text>
</g>
<!-- n4_port_1 -->
<g id="node41" class="node">
<title>n4_port_1</title>
<polygon fill="white" stroke="black" points="2110.29,-609.33 2058.66,-632.43 2007.02,-609.33 2007.07,-571.96 2110.25,-571.96 2110.29,-609.33"/>
<text text-anchor="middle" x="2058.66" y="-602.8" font-family="Times,serif" font-size="14.00">s</text>
<text text-anchor="middle" x="2058.66" y="-587.8" font-family="Times,serif" font-size="14.00">string</text>
</g>
<!-- n0_place_6&#45;&gt;n4_port_1 -->
<g id="edge14" class="edge">
<title>n0_place_6&#45;&gt;n4_port_1</title>
<path fill="none" stroke="black" d="M1920.79,-599C1943.95,-599 1972.07,-599 1996.79,-599"/>
<polygon fill="black" stroke="black" points="1996.79,-602.5 2006.79,-599 1996.79,-595.5 1996.79,-602.5"/>
</g>
<!-- n7_port_1 -->
<g id="node58" class="node">
<title>n7_port_1</title>
<polygon fill="white" stroke="black" points="780.36,-861.33 748.93,-884.43 717.5,-861.33 717.53,-823.96 780.33,-823.96 780.36,-861.33"/>
<text text-anchor="middle" x="748.93" y="-854.8" font-family="Times,serif" font-size="14.00">n</text>
<text text-anchor="middle" x="748.93" y="-839.8" font-family="Times,serif" font-size="14.00">int</text>
</g>
<!-- n0_place_5&#45;&gt;n7_port_1 -->
<g id="edge23" class="edge">
<title>n0_place_5&#45;&gt;n7_port_1</title>
<path fill="none" stroke="black" stroke-dasharray="5,2" d="M578.11,-881.35C611.15,-875.45 668.55,-865.19 707.37,-858.25"/>
<polygon fill="black" stroke="black" points="708.07,-861.68 717.3,-856.47 706.84,-854.79 708.07,-861.68"/>
</g>
<!-- n5_port_0 -->
<g id="node47" class="node">
<title>n5_port_0</title>
<polygon fill="white" stroke="black" points="1664.4,-861.33 1626.73,-884.43 1589.06,-861.33 1589.1,-823.96 1664.36,-823.96 1664.4,-861.33"/>
<text text-anchor="middle" x="1626.73" y="-854.8" font-family="Times,serif" font-size="14.00">deg</text>
<text text-anchor="middle" x="1626.73" y="-839.8" font-family="Times,serif" font-size="14.00">int</text>
</g>
<!-- n0_place_4&#45;&gt;n5_port_0 -->
<g id="edge18" class="edge">
<title>n0_place_4&#45;&gt;n5_port_0</title>
<path fill="none" stroke="black" stroke-dasharray="5,2" d="M1390.03,-882.15C1435.59,-876.13 1524.21,-864.42 1578.85,-857.2"/>
<polygon fill="black" stroke="black" points="1579.52,-860.64 1588.97,-855.86 1578.6,-853.7 1579.52,-860.64"/>
</g>
<!-- n0_place_3 -->
<g id="node18" class="node">
<title>n0_place_3</title>
<ellipse fill="white" stroke="black" cx="1359.93" cy="-641" rx="69.09" ry="26.74"/>
<text text-anchor="middle" x="1359.93" y="-644.8" font-family="Times,serif" font-size="14.00">branchtype</text>
<text text-anchor="middle" x="1359.93" y="-629.8" font-family="Times,serif" font-size="14.00">list</text>
</g>
<!-- n5_port_1 -->
<g id="node48" class="node">
<title>n5_port_1</title>
<polygon fill="white" stroke="black" points="1660.9,-693.33 1626.73,-716.43 1592.55,-693.33 1592.59,-655.96 1660.87,-655.96 1660.9,-693.33"/>
<text text-anchor="middle" x="1626.73" y="-686.8" font-family="Times,serif" font-size="14.00">a</text>
<text text-anchor="middle" x="1626.73" y="-671.8" font-family="Times,serif" font-size="14.00">list</text>
</g>
<!-- n0_place_3&#45;&gt;n5_port_1 -->
<g id="edge16" class="edge">
<title>n0_place_3&#45;&gt;n5_port_1</title>
<path fill="none" stroke="black" d="M1424.36,-651.06C1473.12,-658.79 1539.21,-669.28 1582.15,-676.09"/>
<polygon fill="black" stroke="black" points="1581.86,-679.58 1592.28,-677.69 1582.95,-672.67 1581.86,-679.58"/>
</g>
<!-- n8_port_1 -->
<g id="node63" class="node">
<title>n8_port_1</title>
<polygon fill="white" stroke="black" points="411.17,-546.33 379.74,-569.43 348.31,-546.33 348.34,-508.96 411.14,-508.96 411.17,-546.33"/>
<text text-anchor="middle" x="379.74" y="-539.8" font-family="Times,serif" font-size="14.00">d</text>
<text text-anchor="middle" x="379.74" y="-524.8" font-family="Times,serif" font-size="14.00">int</text>
</g>
<!-- n0_place_2&#45;&gt;n8_port_1 -->
<g id="edge25" class="edge">
<title>n0_place_2&#45;&gt;n8_port_1</title>
<path fill="none" stroke="black" d="M261.08,-536C285.27,-536 314.66,-536 338.02,-536"/>
<polygon fill="black" stroke="black" points="338.28,-539.5 348.28,-536 338.28,-532.5 338.28,-539.5"/>
</g>
<!-- n5_port_2 -->
<g id="node49" class="node">
<title>n5_port_2</title>
<polygon fill="white" stroke="black" points="1660.9,-777.33 1626.73,-800.43 1592.55,-777.33 1592.59,-739.96 1660.87,-739.96 1660.9,-777.33"/>
<text text-anchor="middle" x="1626.73" y="-770.8" font-family="Times,serif" font-size="14.00">G</text>
<text text-anchor="middle" x="1626.73" y="-755.8" font-family="Times,serif" font-size="14.00">list</text>
</g>
<!-- n0_place_1&#45;&gt;n5_port_2 -->
<g id="edge17" class="edge">
<title>n0_place_1&#45;&gt;n5_port_2</title>
<path fill="none" stroke="black" stroke-dasharray="5,2" d="M1401.44,-786.48C1450.27,-782.24 1532,-775.14 1582.16,-770.78"/>
<polygon fill="black" stroke="black" points="1582.7,-774.25 1592.36,-769.9 1582.09,-767.28 1582.7,-774.25"/>
</g>
<!-- n0_place_0 -->
<g id="node21" class="node">
<title>n0_place_0</title>
<ellipse fill="white" stroke="black" cx="2279.65" cy="-248" rx="47.25" ry="26.74"/>
<text text-anchor="middle" x="2279.65" y="-251.8" font-family="Times,serif" font-size="14.00">ns</text>
<text text-anchor="middle" x="2279.65" y="-236.8" font-family="Times,serif" font-size="14.00">control</text>
</g>
<!-- n3_port_0 -->
<g id="node36" class="node">
<title>n3_port_0</title>
<polygon fill="white" stroke="black" points="2578,-215.33 2519.38,-238.43 2460.76,-215.33 2460.82,-177.96 2577.95,-177.96 2578,-215.33"/>
<text text-anchor="middle" x="2519.38" y="-208.8" font-family="Times,serif" font-size="14.00">ns</text>
<text text-anchor="middle" x="2519.38" y="-193.8" font-family="Times,serif" font-size="14.00">control</text>
</g>
<!-- n0_place_0&#45;&gt;n3_port_0 -->
<g id="edge10" class="edge">
<title>n0_place_0&#45;&gt;n3_port_0</title>
<path fill="none" stroke="black" d="M2325.09,-239.96C2360.4,-233.58 2410.37,-224.54 2450.65,-217.25"/>
<polygon fill="black" stroke="black" points="2451.46,-220.66 2460.67,-215.44 2450.21,-213.77 2451.46,-220.66"/>
</g>
<!-- n0_place_13 -->
<g id="node22" class="node">
<title>n0_place_13</title>
<ellipse fill="white" stroke="black" cx="954.53" cy="-704" rx="60.21" ry="26.74"/>
<text text-anchor="middle" x="954.53" y="-707.8" font-family="Times,serif" font-size="14.00">d_vectors</text>
<text text-anchor="middle" x="954.53" y="-692.8" font-family="Times,serif" font-size="14.00">list</text>
</g>
<!-- n6_port_0 -->
<g id="node53" class="node">
<title>n6_port_0</title>
<polygon fill="white" stroke="black" points="1186.81,-725.33 1152.64,-748.43 1118.46,-725.33 1118.49,-687.96 1186.78,-687.96 1186.81,-725.33"/>
<text text-anchor="middle" x="1152.64" y="-718.8" font-family="Times,serif" font-size="14.00">v</text>
<text text-anchor="middle" x="1152.64" y="-703.8" font-family="Times,serif" font-size="14.00">list</text>
</g>
<!-- n0_place_13&#45;&gt;n6_port_0 -->
<g id="edge20" class="edge">
<title>n0_place_13&#45;&gt;n6_port_0</title>
<path fill="none" stroke="black" d="M1014.37,-707.3C1044.58,-709 1080.74,-711.02 1108.36,-712.57"/>
<polygon fill="black" stroke="black" points="1108.32,-716.08 1118.5,-713.14 1108.71,-709.09 1108.32,-716.08"/>
</g>
<!-- n0_place_14 -->
<g id="node23" class="node">
<title>n0_place_14</title>
<ellipse fill="white" stroke="black" cx="2279.65" cy="-373" rx="82.96" ry="37.45"/>
<text text-anchor="middle" x="2279.65" y="-384.3" font-family="Times,serif" font-size="14.00">counter_total</text>
<text text-anchor="middle" x="2279.65" y="-369.3" font-family="Times,serif" font-size="14.00">unsigned long</text>
<text text-anchor="middle" x="2279.65" y="-354.3" font-family="Times,serif" font-size="14.00">0UL</text>
</g>
<!-- n2_port_1 -->
<g id="node31" class="node">
<title>n2_port_1</title>
<polygon fill="white" stroke="black" points="2621.41,-667.33 2519.38,-690.43 2417.36,-667.33 2417.45,-629.96 2621.31,-629.96 2621.41,-667.33"/>
<text text-anchor="middle" x="2519.38" y="-660.8" font-family="Times,serif" font-size="14.00">counter_total</text>
<text text-anchor="middle" x="2519.38" y="-645.8" font-family="Times,serif" font-size="14.00">unsigned long</text>
</g>
<!-- n0_place_14&#45;&gt;n2_port_1 -->
<g id="edge6" class="edge">
<title>n0_place_14&#45;&gt;n2_port_1</title>
<path fill="none" stroke="black" d="M2316.97,-406.75C2333.28,-423.87 2351.3,-445.91 2362.38,-469 2390.97,-528.57 2346.74,-565.4 2390.38,-615 2395.65,-620.99 2401.79,-626.13 2408.47,-630.53"/>
<polygon fill="black" stroke="black" points="2406.81,-633.62 2417.19,-635.74 2410.4,-627.61 2406.81,-633.62"/>
</g>
<!-- n3_port_1 -->
<g id="node37" class="node">
<title>n3_port_1</title>
<polygon fill="white" stroke="black" points="2621.41,-299.33 2519.38,-322.43 2417.36,-299.33 2417.45,-261.96 2621.31,-261.96 2621.41,-299.33"/>
<text text-anchor="middle" x="2519.38" y="-292.8" font-family="Times,serif" font-size="14.00">counter_total</text>
<text text-anchor="middle" x="2519.38" y="-277.8" font-family="Times,serif" font-size="14.00">unsigned long</text>
</g>
<!-- n0_place_14&#45;&gt;n3_port_1 -->
<g id="edge9" class="edge">
<title>n0_place_14&#45;&gt;n3_port_1</title>
<path fill="none" stroke="black" d="M2342.84,-348.6C2358.32,-342.69 2374.91,-336.5 2390.38,-331 2408.87,-324.43 2428.98,-317.66 2447.67,-311.52"/>
<polygon fill="black" stroke="black" points="2448.88,-314.81 2457.3,-308.38 2446.71,-308.16 2448.88,-314.81"/>
</g>
<!-- n1_condition -->
<g id="node24" class="node">
<title>n1_condition</title>
<polygon fill="white" stroke="black" points="2851.45,-413 2851.45,-449 2967.45,-449 2967.45,-413 2851.45,-413"/>
<text text-anchor="middle" x="2909.45" y="-427.3" font-family="Times,serif" font-size="14.00">Quasimodular</text>
</g>
<!-- n1_port_1 -->
<g id="node27" class="node">
<title>n1_port_1</title>
<polygon fill="white" stroke="black" points="2850.08,-182.67 2909.45,-159.57 2968.82,-182.67 2968.76,-220.04 2850.14,-220.04 2850.08,-182.67"/>
<text text-anchor="middle" x="2909.45" y="-196.8" font-family="Times,serif" font-size="14.00">answer</text>
<text text-anchor="middle" x="2909.45" y="-181.8" font-family="Times,serif" font-size="14.00">string</text>
</g>
<!-- n1_port_1&#45;&gt;n0_place_12 -->
<g id="edge1" class="edge">
<title>n1_port_1&#45;&gt;n0_place_12</title>
<path fill="none" stroke="black" d="M2967.12,-181.87C2986.94,-177.97 3009.13,-173.62 3028.78,-169.75"/>
<polygon fill="black" stroke="black" points="3029.67,-173.15 3038.8,-167.79 3028.32,-166.28 3029.67,-173.15"/>
</g>
<!-- n1_modcall -->
<g id="node28" class="node">
<title>n1_modcall</title>
<polygon fill="white" stroke="black" points="3000.45,-142 2818.45,-142 2818.45,-106 3000.45,-106 3000.45,-142"/>
<text text-anchor="middle" x="2909.45" y="-120.3" font-family="Times,serif" font-size="14.00">feynman_module.Quasi</text>
</g>
<!-- n2_condition -->
<g id="node29" class="node">
<title>n2_condition</title>
<polygon fill="white" stroke="black" points="2398.38,-877 2398.38,-939 2640.38,-939 2640.38,-877 2398.38,-877"/>
<text text-anchor="middle" x="2519.38" y="-923.8" font-family="Times,serif" font-size="14.00">transition7</text>
<polyline fill="none" stroke="black" points="2398.38,-916 2640.38,-916 "/>
<text text-anchor="middle" x="2519.38" y="-900.8" font-family="Times,serif" font-size="14.00">(${counter_total} == ${total})</text>
</g>
<!-- n2_port_3 -->
<g id="node33" class="node">
<title>n2_port_3</title>
<polygon fill="white" stroke="black" points="2460.01,-562.67 2519.38,-539.57 2578.75,-562.67 2578.7,-600.04 2460.07,-600.04 2460.01,-562.67"/>
<text text-anchor="middle" x="2519.38" y="-576.8" font-family="Times,serif" font-size="14.00">answer</text>
<text text-anchor="middle" x="2519.38" y="-561.8" font-family="Times,serif" font-size="14.00">string</text>
</g>
<!-- n2_port_3&#45;&gt;n0_place_8 -->
<g id="edge4" class="edge">
<title>n2_port_3&#45;&gt;n0_place_8</title>
<path fill="none" stroke="black" d="M2572.88,-560.37C2596.74,-553.49 2624.83,-543.74 2648.38,-531 2665.26,-521.87 2682.12,-509.08 2695.98,-497.33"/>
<polygon fill="black" stroke="black" points="2698.51,-499.76 2703.77,-490.56 2693.93,-494.47 2698.51,-499.76"/>
</g>
<!-- n2_modcall -->
<g id="node34" class="node">
<title>n2_modcall</title>
<polygon fill="white" stroke="black" points="2605.88,-522 2432.88,-522 2432.88,-486 2605.88,-486 2605.88,-522"/>
<text text-anchor="middle" x="2519.38" y="-500.3" font-family="Times,serif" font-size="14.00">feynman_module.final</text>
</g>
<!-- n3_condition -->
<g id="node35" class="node">
<title>n3_condition</title>
<polygon fill="white" stroke="black" points="2471.88,-425 2471.88,-461 2566.88,-461 2566.88,-425 2471.88,-425"/>
<text text-anchor="middle" x="2519.38" y="-439.3" font-family="Times,serif" font-size="14.00">transition6</text>
</g>
<!-- n3_port_2 -->
<g id="node38" class="node">
<title>n3_port_2</title>
<polygon fill="white" stroke="black" points="2417.36,-362.67 2519.38,-339.57 2621.41,-362.67 2621.31,-400.04 2417.45,-400.04 2417.36,-362.67"/>
<text text-anchor="middle" x="2519.38" y="-376.8" font-family="Times,serif" font-size="14.00">counter_total</text>
<text text-anchor="middle" x="2519.38" y="-361.8" font-family="Times,serif" font-size="14.00">unsigned long</text>
</g>
<!-- n3_port_2&#45;&gt;n0_place_14 -->
<g id="edge8" class="edge">
<title>n3_port_2&#45;&gt;n0_place_14</title>
<path fill="none" stroke="black" d="M2417.09,-373C2402.28,-373 2387.09,-373 2372.48,-373"/>
<polygon fill="black" stroke="black" points="2372.46,-369.5 2362.46,-373 2372.46,-376.5 2372.46,-369.5"/>
</g>
<!-- n3_modcall -->
<g id="node39" class="node">
<title>n3_modcall</title>
<polygon fill="white" stroke="black" points="2619.88,-154 2418.88,-154 2418.88,-118 2619.88,-118 2619.88,-154"/>
<text text-anchor="middle" x="2519.38" y="-132.3" font-family="Times,serif" font-size="14.00">feynman_module.control1</text>
</g>
<!-- n4_condition -->
<g id="node40" class="node">
<title>n4_condition</title>
<polygon fill="white" stroke="black" points="2024.16,-651 2024.16,-687 2093.16,-687 2093.16,-651 2024.16,-651"/>
<text text-anchor="middle" x="2058.66" y="-665.3" font-family="Times,serif" font-size="14.00">Reduce</text>
</g>
<!-- n4_port_0 -->
<g id="node43" class="node">
<title>n4_port_0</title>
<polygon fill="white" stroke="black" points="2000.04,-336.67 2058.66,-313.57 2117.28,-336.67 2117.22,-374.04 2000.09,-374.04 2000.04,-336.67"/>
<text text-anchor="middle" x="2058.66" y="-350.8" font-family="Times,serif" font-size="14.00">ns</text>
<text text-anchor="middle" x="2058.66" y="-335.8" font-family="Times,serif" font-size="14.00">control</text>
</g>
<!-- n4_port_0&#45;&gt;n0_place_0 -->
<g id="edge12" class="edge">
<title>n4_port_0&#45;&gt;n0_place_0</title>
<path fill="none" stroke="black" d="M2101.77,-330.17C2120.05,-322.7 2141.65,-313.65 2160.92,-305 2185.48,-293.97 2212.55,-280.93 2234.52,-270.11"/>
<polygon fill="black" stroke="black" points="2236.2,-273.19 2243.61,-265.62 2233.1,-266.91 2236.2,-273.19"/>
</g>
<!-- n4_port_3 -->
<g id="node44" class="node">
<title>n4_port_3</title>
<polygon fill="white" stroke="black" points="2007.02,-420.67 2058.66,-397.57 2110.29,-420.67 2110.25,-458.04 2007.07,-458.04 2007.02,-420.67"/>
<text text-anchor="middle" x="2058.66" y="-434.8" font-family="Times,serif" font-size="14.00">sum</text>
<text text-anchor="middle" x="2058.66" y="-419.8" font-family="Times,serif" font-size="14.00">string</text>
</g>
<!-- n4_port_3&#45;&gt;n0_place_7 -->
<g id="edge11" class="edge">
<title>n4_port_3&#45;&gt;n0_place_7</title>
<path fill="none" stroke="black" d="M2110.45,-450.48C2146.95,-464.48 2195.8,-483.22 2231.45,-496.89"/>
<polygon fill="black" stroke="black" points="2230.54,-500.29 2241.13,-500.61 2233.05,-493.76 2230.54,-500.29"/>
</g>
<!-- n4_modcall -->
<g id="node45" class="node">
<title>n4_modcall</title>
<polygon fill="white" stroke="black" points="2144.66,-296 1972.66,-296 1972.66,-260 2144.66,-260 2144.66,-296"/>
<text text-anchor="middle" x="2058.66" y="-274.3" font-family="Times,serif" font-size="14.00">feynman_module.plus</text>
</g>
<!-- n5_condition -->
<g id="node46" class="node">
<title>n5_condition</title>
<polygon fill="white" stroke="black" points="1559.73,-903 1559.73,-939 1693.73,-939 1693.73,-903 1559.73,-903"/>
<text text-anchor="middle" x="1626.73" y="-917.3" font-family="Times,serif" font-size="14.00">feynman_degree</text>
</g>
<!-- n5_port_3 -->
<g id="node50" class="node">
<title>n5_port_3</title>
<polygon fill="white" stroke="black" points="1575.09,-588.67 1626.73,-565.57 1678.37,-588.67 1678.32,-626.04 1575.14,-626.04 1575.09,-588.67"/>
<text text-anchor="middle" x="1626.73" y="-602.8" font-family="Times,serif" font-size="14.00">s</text>
<text text-anchor="middle" x="1626.73" y="-587.8" font-family="Times,serif" font-size="14.00">string</text>
</g>
<!-- n5_port_3&#45;&gt;n0_place_6 -->
<g id="edge15" class="edge">
<title>n5_port_3&#45;&gt;n0_place_6</title>
<path fill="none" stroke="black" d="M1678.5,-599C1717.96,-599 1772.71,-599 1813.79,-599"/>
<polygon fill="black" stroke="black" points="1813.92,-602.5 1823.92,-599 1813.92,-595.5 1813.92,-602.5"/>
</g>
<!-- n5_modcall -->
<g id="node51" class="node">
<title>n5_modcall</title>
<polygon fill="white" stroke="black" points="1788.23,-548 1465.23,-548 1465.23,-512 1788.23,-512 1788.23,-548"/>
<text text-anchor="middle" x="1626.73" y="-526.3" font-family="Times,serif" font-size="14.00">feynman_module.feynman_integral_degree</text>
</g>
<!-- n6_condition -->
<g id="node52" class="node">
<title>n6_condition</title>
<polygon fill="white" stroke="black" points="1099.14,-767 1099.14,-803 1206.14,-803 1206.14,-767 1099.14,-767"/>
<text text-anchor="middle" x="1152.64" y="-781.3" font-family="Times,serif" font-size="14.00">Combination</text>
</g>
<!-- n6_port_1 -->
<g id="node54" class="node">
<title>n6_port_1</title>
<polygon fill="white" stroke="black" points="1116.96,-620.67 1152.64,-597.57 1188.31,-620.67 1188.27,-658.04 1117,-658.04 1116.96,-620.67"/>
<text text-anchor="middle" x="1152.64" y="-634.8" font-family="Times,serif" font-size="14.00">vec</text>
<text text-anchor="middle" x="1152.64" y="-619.8" font-family="Times,serif" font-size="14.00">list</text>
</g>
<!-- n6_port_1&#45;&gt;n0_place_3 -->
<g id="edge19" class="edge">
<title>n6_port_1&#45;&gt;n0_place_3</title>
<path fill="none" stroke="black" d="M1188.56,-630.7C1213.85,-631.93 1249.08,-633.65 1280.96,-635.2"/>
<path fill="none" stroke="transparent" d="M1188.46,-632.7C1213.75,-633.93 1248.99,-635.64 1280.86,-637.2"/>
<path fill="none" stroke="black" d="M1188.36,-634.69C1213.66,-635.93 1248.89,-637.64 1280.76,-639.19"/>
<polygon fill="black" stroke="black" points="1280.91,-640.7 1291.07,-637.69 1281.26,-633.71 1280.91,-640.7"/>
</g>
<!-- n6_modcall -->
<g id="node55" class="node">
<title>n6_modcall</title>
<polygon fill="white" stroke="black" points="1254.64,-580 1050.64,-580 1050.64,-544 1254.64,-544 1254.64,-580"/>
<text text-anchor="middle" x="1152.64" y="-558.3" font-family="Times,serif" font-size="14.00">feynman_module.partition</text>
</g>
<!-- n7_condition -->
<g id="node56" class="node">
<title>n7_condition</title>
<polygon fill="white" stroke="black" points="709.43,-903 709.43,-939 788.43,-939 788.43,-903 709.43,-903"/>
<text text-anchor="middle" x="748.93" y="-917.3" font-family="Times,serif" font-size="14.00">partition</text>
</g>
<!-- n7_port_2 -->
<g id="node59" class="node">
<title>n7_port_2</title>
<polygon fill="white" stroke="black" points="714.75,-672.67 748.93,-649.57 783.1,-672.67 783.07,-710.04 714.79,-710.04 714.75,-672.67"/>
<text text-anchor="middle" x="748.93" y="-686.8" font-family="Times,serif" font-size="14.00">v</text>
<text text-anchor="middle" x="748.93" y="-671.8" font-family="Times,serif" font-size="14.00">list</text>
</g>
<!-- n7_port_2&#45;&gt;n0_place_13 -->
<g id="edge21" class="edge">
<title>n7_port_2&#45;&gt;n0_place_13</title>
<path fill="none" stroke="black" d="M783.3,-684.43C810.99,-687.29 851.36,-691.45 885.86,-695.01"/>
<path fill="none" stroke="transparent" d="M783.09,-686.42C810.78,-689.28 851.16,-693.44 885.66,-697"/>
<path fill="none" stroke="black" d="M782.89,-688.41C810.58,-691.27 850.95,-695.43 885.45,-698.99"/>
<polygon fill="black" stroke="black" points="885.38,-700.49 895.69,-698.03 886.1,-693.53 885.38,-700.49"/>
</g>
<!-- n7_modcall -->
<g id="node60" class="node">
<title>n7_modcall</title>
<polygon fill="white" stroke="black" points="858.43,-632 639.43,-632 639.43,-596 858.43,-596 858.43,-632"/>
<text text-anchor="middle" x="748.93" y="-610.3" font-family="Times,serif" font-size="14.00">feynman_module.gen_block_</text>
</g>
<!-- n8_condition -->
<g id="node61" class="node">
<title>n8_condition</title>
<polygon fill="white" stroke="black" points="328.74,-588 328.74,-624 430.74,-624 430.74,-588 328.74,-588"/>
<text text-anchor="middle" x="379.74" y="-602.3" font-family="Times,serif" font-size="14.00">degrees_fey</text>
</g>
<!-- n8_port_2 -->
<g id="node64" class="node">
<title>n8_port_2</title>
<polygon fill="white" stroke="black" points="345.57,-357.67 379.74,-334.57 413.92,-357.67 413.89,-395.04 345.6,-395.04 345.57,-357.67"/>
<text text-anchor="middle" x="379.74" y="-371.8" font-family="Times,serif" font-size="14.00">v</text>
<text text-anchor="middle" x="379.74" y="-356.8" font-family="Times,serif" font-size="14.00">list</text>
</g>
<!-- n8_port_2&#45;&gt;n0_place_11 -->
<g id="edge24" class="edge">
<title>n8_port_2&#45;&gt;n0_place_11</title>
<path fill="none" stroke="black" d="M414.55,-375.59C433.26,-382.32 455.77,-392.82 472.17,-408.56 507.35,-442.88 529.47,-494.97 541.34,-529.96"/>
<path fill="none" stroke="transparent" d="M413.87,-377.48C432.41,-384.14 454.92,-394.64 470.78,-410 505.51,-443.66 527.62,-495.76 539.44,-530.6"/>
<path fill="none" stroke="black" d="M413.19,-379.36C431.57,-385.95 454.08,-396.45 469.38,-411.44 503.67,-444.44 525.78,-496.54 537.55,-531.24"/>
<polygon fill="black" stroke="black" points="536.21,-531.96 542.64,-540.38 542.86,-529.78 536.21,-531.96"/>
</g>
<!-- n8_modcall -->
<g id="node65" class="node">
<title>n8_modcall</title>
<polygon fill="white" stroke="black" points="462.74,-317 296.74,-317 296.74,-281 462.74,-281 462.74,-317"/>
<text text-anchor="middle" x="379.74" y="-295.3" font-family="Times,serif" font-size="14.00">feynman_module.init</text>
</g>
</g>
</svg>
