<?xml version="1.0" encoding="UTF-8" standalone="no"?>
<!DOCTYPE svg PUBLIC "-//W3C//DTD SVG 1.1//EN"
 "http://www.w3.org/Graphics/SVG/1.1/DTD/svg11.dtd">
<!-- Generated by graphviz version 2.43.0 (0)
 -->
<!-- Title: feynman_deg Pages: 1 -->
<svg width="1526pt" height="1856pt"
 viewBox="0.00 0.00 1526.28 1856.00" xmlns="http://www.w3.org/2000/svg" xmlns:xlink="http://www.w3.org/1999/xlink">
<g id="graph0" class="graph" transform="scale(1 1) rotate(0) translate(4 1852)">
<title>feynman_deg</title>
<polygon fill="white" stroke="transparent" points="-4,4 -4,-1852 1522.28,-1852 1522.28,4 -4,4"/>
<g id="clust1" class="cluster">
<title>cluster_0</title>
<polygon fill="dimgray" stroke="black" points="8,-8 8,-1840 1510.28,-1840 1510.28,-8 8,-8"/>
</g>
<g id="clust2" class="cluster">
<title>cluster_net_0</title>
<polygon fill="white" stroke="black" points="159.37,-116 159.37,-1758 1502.28,-1758 1502.28,-116 159.37,-116"/>
</g>
<g id="clust3" class="cluster">
<title>cluster_1</title>
<polygon fill="yellow" stroke="black" points="1263.28,-686 1263.28,-962 1494.28,-962 1494.28,-686 1263.28,-686"/>
</g>
<g id="clust4" class="cluster">
<title>cluster_2</title>
<polygon fill="yellow" stroke="black" points="1268.52,-970 1268.52,-1750 1489.04,-1750 1489.04,-970 1268.52,-970"/>
</g>
<g id="clust5" class="cluster">
<title>cluster_3</title>
<polygon fill="yellow" stroke="black" points="702.82,-1306 702.82,-1750 1041.82,-1750 1041.82,-1306 702.82,-1306"/>
</g>
<g id="clust6" class="cluster">
<title>cluster_4</title>
<polygon fill="yellow" stroke="black" points="1272.28,-124 1272.28,-678 1485.28,-678 1485.28,-124 1272.28,-124"/>
</g>
<g id="clust7" class="cluster">
<title>cluster_5</title>
<polygon fill="yellow" stroke="black" points="773.32,-208 773.32,-568 971.32,-568 971.32,-208 773.32,-208"/>
</g>
<g id="clust8" class="cluster">
<title>cluster_6</title>
<polygon fill="yellow" stroke="black" points="288.71,-376 288.71,-736 516.71,-736 516.71,-376 288.71,-376"/>
</g>
<!-- n0_condition -->
<g id="node1" class="node">
<title>n0_condition</title>
<polygon fill="white" stroke="black" points="18.19,-1243 18.19,-1279 129.19,-1279 129.19,-1243 18.19,-1243"/>
<text text-anchor="middle" x="73.69" y="-1257.3" font-family="Times,serif" font-size="14.00">feynman_deg</text>
</g>
<!-- n0_port_0 -->
<g id="node2" class="node">
<title>n0_port_0</title>
<polygon fill="white" stroke="black" points="131.56,-649.33 73.69,-672.43 15.81,-649.33 15.87,-611.96 131.5,-611.96 131.56,-649.33"/>
<text text-anchor="middle" x="73.69" y="-642.8" font-family="Times,serif" font-size="14.00">degree</text>
<text text-anchor="middle" x="73.69" y="-627.8" font-family="Times,serif" font-size="14.00">int</text>
</g>
<!-- n0_place_0 -->
<g id="node7" class="node">
<title>n0_place_0</title>
<ellipse fill="white" stroke="black" cx="214.04" cy="-639" rx="46.84" ry="26.74"/>
<text text-anchor="middle" x="214.04" y="-642.8" font-family="Times,serif" font-size="14.00">degree</text>
<text text-anchor="middle" x="214.04" y="-627.8" font-family="Times,serif" font-size="14.00">int</text>
</g>
<!-- n0_port_0&#45;&gt;n0_place_0 -->
<g id="edge26" class="edge">
<title>n0_port_0&#45;&gt;n0_place_0</title>
<path fill="none" stroke="black" stroke-dasharray="1,5" d="M131.76,-639C143.52,-639 155.76,-639 167.07,-639"/>
</g>
<!-- n0_port_1 -->
<g id="node3" class="node">
<title>n0_port_1</title>
<polygon fill="white" stroke="black" points="105.12,-565.33 73.69,-588.43 42.26,-565.33 42.29,-527.96 105.09,-527.96 105.12,-565.33"/>
<text text-anchor="middle" x="73.69" y="-558.8" font-family="Times,serif" font-size="14.00">N</text>
<text text-anchor="middle" x="73.69" y="-543.8" font-family="Times,serif" font-size="14.00">int</text>
</g>
<!-- n0_place_1 -->
<g id="node8" class="node">
<title>n0_place_1</title>
<ellipse fill="white" stroke="black" cx="214.04" cy="-555" rx="27" ry="26.74"/>
<text text-anchor="middle" x="214.04" y="-558.8" font-family="Times,serif" font-size="14.00">N</text>
<text text-anchor="middle" x="214.04" y="-543.8" font-family="Times,serif" font-size="14.00">int</text>
</g>
<!-- n0_port_1&#45;&gt;n0_place_1 -->
<g id="edge27" class="edge">
<title>n0_port_1&#45;&gt;n0_place_1</title>
<path fill="none" stroke="black" stroke-dasharray="1,5" d="M105.39,-555C129.75,-555 163.45,-555 186.62,-555"/>
</g>
<!-- n0_port_2 -->
<g id="node4" class="node">
<title>n0_port_2</title>
<polygon fill="white" stroke="black" points="903.75,-1809.33 872.32,-1832.43 840.89,-1809.33 840.92,-1771.96 903.72,-1771.96 903.75,-1809.33"/>
<text text-anchor="middle" x="872.32" y="-1802.8" font-family="Times,serif" font-size="14.00">m</text>
<text text-anchor="middle" x="872.32" y="-1787.8" font-family="Times,serif" font-size="14.00">int</text>
</g>
<!-- n0_place_3 -->
<g id="node10" class="node">
<title>n0_place_3</title>
<ellipse fill="white" stroke="black" cx="1152.55" cy="-1058" rx="27" ry="26.74"/>
<text text-anchor="middle" x="1152.55" y="-1061.8" font-family="Times,serif" font-size="14.00">m</text>
<text text-anchor="middle" x="1152.55" y="-1046.8" font-family="Times,serif" font-size="14.00">int</text>
</g>
<!-- n0_port_2&#45;&gt;n0_place_3 -->
<g id="edge28" class="edge">
<title>n0_port_2&#45;&gt;n0_place_3</title>
<path fill="none" stroke="black" stroke-dasharray="1,5" d="M903.96,-1800.76C942.85,-1801.12 1008.85,-1795.09 1041.82,-1754 1087.75,-1696.75 1028.43,-1154.61 1069.82,-1094 1082.41,-1075.56 1106.7,-1066.48 1125.54,-1062.06"/>
</g>
<!-- n0_port_3 -->
<g id="node5" class="node">
<title>n0_port_3</title>
<polygon fill="white" stroke="black" points="454.35,-1809.33 402.71,-1832.43 351.07,-1809.33 351.12,-1771.96 454.3,-1771.96 454.35,-1809.33"/>
<text text-anchor="middle" x="402.71" y="-1802.8" font-family="Times,serif" font-size="14.00">graph</text>
<text text-anchor="middle" x="402.71" y="-1787.8" font-family="Times,serif" font-size="14.00">list</text>
</g>
<!-- n0_place_8 -->
<g id="node15" class="node">
<title>n0_place_8</title>
<ellipse fill="white" stroke="black" cx="609.76" cy="-1646" rx="41.94" ry="26.74"/>
<text text-anchor="middle" x="609.76" y="-1649.8" font-family="Times,serif" font-size="14.00">graph</text>
<text text-anchor="middle" x="609.76" y="-1634.8" font-family="Times,serif" font-size="14.00">list</text>
</g>
<!-- n0_port_3&#45;&gt;n0_place_8 -->
<g id="edge29" class="edge">
<title>n0_port_3&#45;&gt;n0_place_8</title>
<path fill="none" stroke="black" stroke-dasharray="1,5" d="M440.37,-1771.65C481.03,-1741.31 545.67,-1693.08 581.9,-1666.05"/>
</g>
<!-- n0_port_4 -->
<g id="node6" class="node">
<title>n0_port_4</title>
<polygon fill="white" stroke="black" points="770.29,-47.74 872.32,-15.85 974.34,-47.74 974.25,-99.33 770.39,-99.33 770.29,-47.74"/>
<text text-anchor="middle" x="872.32" y="-73.3" font-family="Times,serif" font-size="14.00">sum</text>
<text text-anchor="middle" x="872.32" y="-58.3" font-family="Times,serif" font-size="14.00">unsigned long</text>
<text text-anchor="middle" x="872.32" y="-43.3" font-family="Times,serif" font-size="14.00">0UL</text>
</g>
<!-- n0_place_2 -->
<g id="node9" class="node">
<title>n0_place_2</title>
<ellipse fill="white" stroke="black" cx="1152.55" cy="-1233" rx="82.96" ry="37.45"/>
<text text-anchor="middle" x="1152.55" y="-1244.3" font-family="Times,serif" font-size="14.00">sum</text>
<text text-anchor="middle" x="1152.55" y="-1229.3" font-family="Times,serif" font-size="14.00">unsigned long</text>
<text text-anchor="middle" x="1152.55" y="-1214.3" font-family="Times,serif" font-size="14.00">0UL</text>
</g>
<!-- n0_port_4&#45;&gt;n0_place_2 -->
<g id="edge30" class="edge">
<title>n0_port_4&#45;&gt;n0_place_2</title>
<path fill="none" stroke="black" stroke-dasharray="1,5" d="M940.75,-99.35C977.76,-123.84 1020.37,-159.55 1041.82,-204 1089.25,-302.31 1013.82,-1092.3 1069.82,-1186 1075.02,-1194.71 1082.5,-1201.96 1090.85,-1207.94"/>
</g>
<!-- n6_port_0 -->
<g id="node52" class="node">
<title>n6_port_0</title>
<polygon fill="white" stroke="black" points="434.14,-649.33 402.71,-672.43 371.28,-649.33 371.31,-611.96 434.11,-611.96 434.14,-649.33"/>
<text text-anchor="middle" x="402.71" y="-642.8" font-family="Times,serif" font-size="14.00">d</text>
<text text-anchor="middle" x="402.71" y="-627.8" font-family="Times,serif" font-size="14.00">int</text>
</g>
<!-- n0_place_0&#45;&gt;n6_port_0 -->
<g id="edge24" class="edge">
<title>n0_place_0&#45;&gt;n6_port_0</title>
<path fill="none" stroke="black" d="M261.18,-639C291.76,-639 331.51,-639 360.93,-639"/>
<polygon fill="black" stroke="black" points="361.26,-642.5 371.26,-639 361.26,-635.5 361.26,-642.5"/>
</g>
<!-- n6_port_1 -->
<g id="node53" class="node">
<title>n6_port_1</title>
<polygon fill="white" stroke="black" points="434.14,-565.33 402.71,-588.43 371.28,-565.33 371.31,-527.96 434.11,-527.96 434.14,-565.33"/>
<text text-anchor="middle" x="402.71" y="-558.8" font-family="Times,serif" font-size="14.00">n</text>
<text text-anchor="middle" x="402.71" y="-543.8" font-family="Times,serif" font-size="14.00">int</text>
</g>
<!-- n0_place_1&#45;&gt;n6_port_1 -->
<g id="edge25" class="edge">
<title>n0_place_1&#45;&gt;n6_port_1</title>
<path fill="none" stroke="black" d="M241.39,-555C272.49,-555 324.56,-555 360.89,-555"/>
<polygon fill="black" stroke="black" points="361.16,-558.5 371.16,-555 361.16,-551.5 361.16,-558.5"/>
</g>
<!-- n1_port_0 -->
<g id="node20" class="node">
<title>n1_port_0</title>
<polygon fill="white" stroke="black" points="1480.81,-875.33 1378.78,-898.43 1276.76,-875.33 1276.85,-837.96 1480.71,-837.96 1480.81,-875.33"/>
<text text-anchor="middle" x="1378.78" y="-868.8" font-family="Times,serif" font-size="14.00">sum</text>
<text text-anchor="middle" x="1378.78" y="-853.8" font-family="Times,serif" font-size="14.00">unsigned long</text>
</g>
<!-- n0_place_2&#45;&gt;n1_port_0 -->
<g id="edge1" class="edge">
<title>n0_place_2&#45;&gt;n1_port_0</title>
<path fill="none" stroke="black" d="M1213.72,-1207.61C1222.13,-1201.67 1229.76,-1194.52 1235.28,-1186 1302.78,-1081.76 1187.54,-1006.41 1263.28,-908 1270.62,-898.47 1280.31,-891.05 1290.96,-885.28"/>
<polygon fill="black" stroke="black" points="1292.66,-888.34 1300.1,-880.8 1289.58,-882.06 1292.66,-888.34"/>
</g>
<!-- n2_port_3 -->
<g id="node26" class="node">
<title>n2_port_3</title>
<polygon fill="white" stroke="black" points="1480.81,-1327.33 1378.78,-1350.43 1276.76,-1327.33 1276.85,-1289.96 1480.71,-1289.96 1480.81,-1327.33"/>
<text text-anchor="middle" x="1378.78" y="-1320.8" font-family="Times,serif" font-size="14.00">sum</text>
<text text-anchor="middle" x="1378.78" y="-1305.8" font-family="Times,serif" font-size="14.00">unsigned long</text>
</g>
<!-- n0_place_2&#45;&gt;n2_port_3 -->
<g id="edge8" class="edge">
<title>n0_place_2&#45;&gt;n2_port_3</title>
<path fill="none" stroke="black" d="M1216.16,-1257.14C1231.55,-1263.02 1248,-1269.27 1263.28,-1275 1273.22,-1278.73 1283.67,-1282.6 1294.03,-1286.43"/>
<polygon fill="black" stroke="black" points="1292.91,-1289.75 1303.51,-1289.93 1295.33,-1283.18 1292.91,-1289.75"/>
</g>
<!-- n2_port_7 -->
<g id="node28" class="node">
<title>n2_port_7</title>
<polygon fill="white" stroke="black" points="1410.21,-1075.33 1378.78,-1098.43 1347.35,-1075.33 1347.38,-1037.96 1410.18,-1037.96 1410.21,-1075.33"/>
<text text-anchor="middle" x="1378.78" y="-1068.8" font-family="Times,serif" font-size="14.00">m</text>
<text text-anchor="middle" x="1378.78" y="-1053.8" font-family="Times,serif" font-size="14.00">int</text>
</g>
<!-- n0_place_3&#45;&gt;n2_port_7 -->
<g id="edge10" class="edge">
<title>n0_place_3&#45;&gt;n2_port_7</title>
<path fill="none" stroke="black" stroke-dasharray="5,2" d="M1179.71,-1058.82C1218.4,-1060.02 1291.23,-1062.3 1336.97,-1063.73"/>
<polygon fill="black" stroke="black" points="1337.04,-1067.23 1347.14,-1064.04 1337.26,-1060.23 1337.04,-1067.23"/>
</g>
<!-- n4_port_0 -->
<g id="node40" class="node">
<title>n4_port_0</title>
<polygon fill="white" stroke="black" points="1410.21,-481.33 1378.78,-504.43 1347.35,-481.33 1347.38,-443.96 1410.18,-443.96 1410.21,-481.33"/>
<text text-anchor="middle" x="1378.78" y="-474.8" font-family="Times,serif" font-size="14.00">m</text>
<text text-anchor="middle" x="1378.78" y="-459.8" font-family="Times,serif" font-size="14.00">int</text>
</g>
<!-- n0_place_3&#45;&gt;n4_port_0 -->
<g id="edge19" class="edge">
<title>n0_place_3&#45;&gt;n4_port_0</title>
<path fill="none" stroke="black" stroke-dasharray="5,2" d="M1158.52,-1031.53C1178.79,-923.74 1254.58,-523.14 1263.28,-513 1281.82,-491.39 1312.47,-480.89 1337.4,-475.8"/>
<polygon fill="black" stroke="black" points="1338.12,-479.22 1347.33,-473.98 1336.87,-472.34 1338.12,-479.22"/>
</g>
<!-- n0_place_4 -->
<g id="node11" class="node">
<title>n0_place_4</title>
<ellipse fill="white" stroke="black" cx="609.76" cy="-471" rx="65.11" ry="26.74"/>
<text text-anchor="middle" x="609.76" y="-474.8" font-family="Times,serif" font-size="14.00">init_vector</text>
<text text-anchor="middle" x="609.76" y="-459.8" font-family="Times,serif" font-size="14.00">list</text>
</g>
<!-- n5_port_0 -->
<g id="node47" class="node">
<title>n5_port_0</title>
<polygon fill="white" stroke="black" points="906.49,-481.33 872.32,-504.43 838.14,-481.33 838.18,-443.96 906.46,-443.96 906.49,-481.33"/>
<text text-anchor="middle" x="872.32" y="-474.8" font-family="Times,serif" font-size="14.00">v</text>
<text text-anchor="middle" x="872.32" y="-459.8" font-family="Times,serif" font-size="14.00">list</text>
</g>
<!-- n0_place_4&#45;&gt;n5_port_0 -->
<g id="edge22" class="edge">
<title>n0_place_4&#45;&gt;n5_port_0</title>
<path fill="none" stroke="black" d="M674.84,-471C722.48,-471 786.22,-471 828,-471"/>
<polygon fill="black" stroke="black" points="828.12,-474.5 838.12,-471 828.12,-467.5 828.12,-474.5"/>
</g>
<!-- n0_place_5 -->
<g id="node12" class="node">
<title>n0_place_5</title>
<ellipse fill="white" stroke="black" cx="1152.55" cy="-584" rx="48.58" ry="26.74"/>
<text text-anchor="middle" x="1152.55" y="-587.8" font-family="Times,serif" font-size="14.00">vectors</text>
<text text-anchor="middle" x="1152.55" y="-572.8" font-family="Times,serif" font-size="14.00">list</text>
</g>
<!-- n1_port_1 -->
<g id="node21" class="node">
<title>n1_port_1</title>
<polygon fill="white" stroke="black" points="1438.9,-791.33 1378.78,-814.43 1318.66,-791.33 1318.72,-753.96 1438.84,-753.96 1438.9,-791.33"/>
<text text-anchor="middle" x="1378.78" y="-784.8" font-family="Times,serif" font-size="14.00">vectors</text>
<text text-anchor="middle" x="1378.78" y="-769.8" font-family="Times,serif" font-size="14.00">list</text>
</g>
<!-- n0_place_5&#45;&gt;n1_port_1 -->
<g id="edge2" class="edge">
<title>n0_place_5&#45;&gt;n1_port_1</title>
<path fill="none" stroke="black" d="M1165.65,-609.91C1182.81,-644.04 1217.33,-703.84 1263.28,-739 1276.65,-749.23 1292.76,-757.16 1308.61,-763.22"/>
<polygon fill="black" stroke="black" points="1307.83,-766.66 1318.43,-766.76 1310.21,-760.08 1307.83,-766.66"/>
</g>
<!-- n3_port_0 -->
<g id="node34" class="node">
<title>n3_port_0</title>
<polygon fill="white" stroke="black" points="937.18,-1411.33 872.32,-1434.43 807.46,-1411.33 807.52,-1373.96 937.11,-1373.96 937.18,-1411.33"/>
<text text-anchor="middle" x="872.32" y="-1404.8" font-family="Times,serif" font-size="14.00">branchs</text>
<text text-anchor="middle" x="872.32" y="-1389.8" font-family="Times,serif" font-size="14.00">list</text>
</g>
<!-- n0_place_5&#45;&gt;n3_port_0 -->
<g id="edge13" class="edge">
<title>n0_place_5&#45;&gt;n3_port_0</title>
<path fill="none" stroke="black" d="M1145.52,-611.01C1130.46,-679.42 1090.9,-865.22 1069.82,-1022 1064.81,-1059.24 1066.16,-1330.38 1041.82,-1359 1018.81,-1386.06 981.29,-1397.11 947.49,-1401.15"/>
<polygon fill="black" stroke="black" points="946.74,-1397.71 937.14,-1402.19 947.44,-1404.67 946.74,-1397.71"/>
</g>
<!-- n0_place_6 -->
<g id="node13" class="node">
<title>n0_place_6</title>
<ellipse fill="white" stroke="black" cx="1152.55" cy="-1423" rx="35.21" ry="37.45"/>
<text text-anchor="middle" x="1152.55" y="-1434.3" font-family="Times,serif" font-size="14.00">limit</text>
<text text-anchor="middle" x="1152.55" y="-1419.3" font-family="Times,serif" font-size="14.00">int</text>
<text text-anchor="middle" x="1152.55" y="-1404.3" font-family="Times,serif" font-size="14.00">0</text>
</g>
<!-- n2_port_5 -->
<g id="node27" class="node">
<title>n2_port_5</title>
<polygon fill="white" stroke="black" points="1422.69,-1495.33 1378.78,-1518.43 1334.88,-1495.33 1334.92,-1457.96 1422.64,-1457.96 1422.69,-1495.33"/>
<text text-anchor="middle" x="1378.78" y="-1488.8" font-family="Times,serif" font-size="14.00">limit</text>
<text text-anchor="middle" x="1378.78" y="-1473.8" font-family="Times,serif" font-size="14.00">int</text>
</g>
<!-- n0_place_6&#45;&gt;n2_port_5 -->
<g id="edge6" class="edge">
<title>n0_place_6&#45;&gt;n2_port_5</title>
<path fill="none" stroke="black" d="M1187.12,-1432.28C1223.62,-1442.37 1282.43,-1458.64 1325.09,-1470.43"/>
<polygon fill="black" stroke="black" points="1324.18,-1473.81 1334.75,-1473.1 1326.05,-1467.06 1324.18,-1473.81"/>
</g>
<!-- n0_place_7 -->
<g id="node14" class="node">
<title>n0_place_7</title>
<ellipse fill="white" stroke="black" cx="1152.55" cy="-303" rx="37.45" ry="26.74"/>
<text text-anchor="middle" x="1152.55" y="-306.8" font-family="Times,serif" font-size="14.00">state</text>
<text text-anchor="middle" x="1152.55" y="-291.8" font-family="Times,serif" font-size="14.00">list</text>
</g>
<!-- n4_port_1 -->
<g id="node41" class="node">
<title>n4_port_1</title>
<polygon fill="white" stroke="black" points="1412.96,-229.33 1378.78,-252.43 1344.61,-229.33 1344.64,-191.96 1412.92,-191.96 1412.96,-229.33"/>
<text text-anchor="middle" x="1378.78" y="-222.8" font-family="Times,serif" font-size="14.00">v</text>
<text text-anchor="middle" x="1378.78" y="-207.8" font-family="Times,serif" font-size="14.00">list</text>
</g>
<!-- n0_place_7&#45;&gt;n4_port_1 -->
<g id="edge17" class="edge">
<title>n0_place_7&#45;&gt;n4_port_1</title>
<path fill="none" stroke="black" d="M1186.15,-290.38C1207.96,-281.98 1237.3,-270.74 1263.28,-261 1287.52,-251.91 1314.73,-241.93 1336.54,-233.97"/>
<polygon fill="black" stroke="black" points="1337.95,-237.18 1346.15,-230.47 1335.55,-230.6 1337.95,-237.18"/>
</g>
<!-- n3_port_2 -->
<g id="node35" class="node">
<title>n3_port_2</title>
<polygon fill="white" stroke="black" points="906.49,-1579.33 872.32,-1602.43 838.14,-1579.33 838.18,-1541.96 906.46,-1541.96 906.49,-1579.33"/>
<text text-anchor="middle" x="872.32" y="-1572.8" font-family="Times,serif" font-size="14.00">G</text>
<text text-anchor="middle" x="872.32" y="-1557.8" font-family="Times,serif" font-size="14.00">list</text>
</g>
<!-- n0_place_8&#45;&gt;n3_port_2 -->
<g id="edge14" class="edge">
<title>n0_place_8&#45;&gt;n3_port_2</title>
<path fill="none" stroke="black" stroke-dasharray="5,2" d="M645.39,-1631.71C662.5,-1624.94 683.57,-1617.04 702.82,-1611 744.79,-1597.84 793.66,-1586.04 827.92,-1578.32"/>
<polygon fill="black" stroke="black" points="829.06,-1581.65 838.06,-1576.06 827.54,-1574.82 829.06,-1581.65"/>
</g>
<!-- n0_place_9 -->
<g id="node16" class="node">
<title>n0_place_9</title>
<ellipse fill="white" stroke="black" cx="1152.55" cy="-1527" rx="82.96" ry="26.74"/>
<text text-anchor="middle" x="1152.55" y="-1530.8" font-family="Times,serif" font-size="14.00">fey_out</text>
<text text-anchor="middle" x="1152.55" y="-1515.8" font-family="Times,serif" font-size="14.00">unsigned long</text>
</g>
<!-- n2_port_0 -->
<g id="node24" class="node">
<title>n2_port_0</title>
<polygon fill="white" stroke="black" points="1480.81,-1579.33 1378.78,-1602.43 1276.76,-1579.33 1276.85,-1541.96 1480.71,-1541.96 1480.81,-1579.33"/>
<text text-anchor="middle" x="1378.78" y="-1572.8" font-family="Times,serif" font-size="14.00">s</text>
<text text-anchor="middle" x="1378.78" y="-1557.8" font-family="Times,serif" font-size="14.00">unsigned long</text>
</g>
<!-- n0_place_9&#45;&gt;n2_port_0 -->
<g id="edge7" class="edge">
<title>n0_place_9&#45;&gt;n2_port_0</title>
<path fill="none" stroke="black" d="M1224.5,-1540.29C1237.95,-1542.81 1252.31,-1545.5 1266.66,-1548.19"/>
<polygon fill="black" stroke="black" points="1266.1,-1551.64 1276.57,-1550.04 1267.39,-1544.76 1266.1,-1551.64"/>
</g>
<!-- n0_place_10 -->
<g id="node17" class="node">
<title>n0_place_10</title>
<ellipse fill="white" stroke="black" cx="1152.55" cy="-1140" rx="50.41" ry="37.45"/>
<text text-anchor="middle" x="1152.55" y="-1151.3" font-family="Times,serif" font-size="14.00">counter</text>
<text text-anchor="middle" x="1152.55" y="-1136.3" font-family="Times,serif" font-size="14.00">int</text>
<text text-anchor="middle" x="1152.55" y="-1121.3" font-family="Times,serif" font-size="14.00">3</text>
</g>
<!-- n4_port_4 -->
<g id="node42" class="node">
<title>n4_port_4</title>
<polygon fill="white" stroke="black" points="1440.89,-565.33 1378.78,-588.43 1316.67,-565.33 1316.73,-527.96 1440.84,-527.96 1440.89,-565.33"/>
<text text-anchor="middle" x="1378.78" y="-558.8" font-family="Times,serif" font-size="14.00">counter</text>
<text text-anchor="middle" x="1378.78" y="-543.8" font-family="Times,serif" font-size="14.00">int</text>
</g>
<!-- n0_place_10&#45;&gt;n4_port_4 -->
<g id="edge18" class="edge">
<title>n0_place_10&#45;&gt;n4_port_4</title>
<path fill="none" stroke="black" d="M1198.45,-1124.75C1212.6,-1117.66 1226.76,-1107.68 1235.28,-1094 1293.67,-1000.31 1197.89,-686.95 1263.28,-598 1273.9,-583.56 1289.97,-573.96 1306.74,-567.59"/>
<polygon fill="black" stroke="black" points="1308.33,-570.75 1316.66,-564.2 1306.06,-564.12 1308.33,-570.75"/>
</g>
<!-- n0_place_11 -->
<g id="node18" class="node">
<title>n0_place_11</title>
<ellipse fill="white" stroke="black" cx="1152.55" cy="-1653" rx="40.11" ry="37.45"/>
<text text-anchor="middle" x="1152.55" y="-1664.3" font-family="Times,serif" font-size="14.00">check</text>
<text text-anchor="middle" x="1152.55" y="-1649.3" font-family="Times,serif" font-size="14.00">int</text>
<text text-anchor="middle" x="1152.55" y="-1634.3" font-family="Times,serif" font-size="14.00">0</text>
</g>
<!-- n2_port_2 -->
<g id="node25" class="node">
<title>n2_port_2</title>
<polygon fill="white" stroke="black" points="1428.42,-1663.33 1378.78,-1686.43 1329.14,-1663.33 1329.19,-1625.96 1428.37,-1625.96 1428.42,-1663.33"/>
<text text-anchor="middle" x="1378.78" y="-1656.8" font-family="Times,serif" font-size="14.00">check</text>
<text text-anchor="middle" x="1378.78" y="-1641.8" font-family="Times,serif" font-size="14.00">int</text>
</g>
<!-- n0_place_11&#45;&gt;n2_port_2 -->
<g id="edge9" class="edge">
<title>n0_place_11&#45;&gt;n2_port_2</title>
<path fill="none" stroke="black" stroke-dasharray="5,2" d="M1192.86,-1653C1227.76,-1653 1279.23,-1653 1319.01,-1653"/>
<polygon fill="black" stroke="black" points="1319.12,-1656.5 1329.12,-1653 1319.12,-1649.5 1319.12,-1656.5"/>
</g>
<!-- n1_condition -->
<g id="node19" class="node">
<title>n1_condition</title>
<polygon fill="white" stroke="black" points="1331.28,-917 1331.28,-953 1426.28,-953 1426.28,-917 1331.28,-917"/>
<text text-anchor="middle" x="1378.78" y="-931.3" font-family="Times,serif" font-size="14.00">transition6</text>
</g>
<!-- n1_modcall -->
<g id="node22" class="node">
<title>n1_modcall</title>
<polygon fill="white" stroke="black" points="1486.28,-730 1271.28,-730 1271.28,-694 1486.28,-694 1486.28,-730"/>
<text text-anchor="middle" x="1378.78" y="-708.3" font-family="Times,serif" font-size="14.00">feynman_module.check_end</text>
</g>
<!-- n2_condition -->
<g id="node23" class="node">
<title>n2_condition</title>
<polygon fill="white" stroke="black" points="1331.28,-1705 1331.28,-1741 1426.28,-1741 1426.28,-1705 1331.28,-1705"/>
<text text-anchor="middle" x="1378.78" y="-1719.3" font-family="Times,serif" font-size="14.00">transition5</text>
</g>
<!-- n2_port_1 -->
<g id="node29" class="node">
<title>n2_port_1</title>
<polygon fill="white" stroke="black" points="1316.67,-1138.67 1378.78,-1115.57 1440.89,-1138.67 1440.84,-1176.04 1316.73,-1176.04 1316.67,-1138.67"/>
<text text-anchor="middle" x="1378.78" y="-1152.8" font-family="Times,serif" font-size="14.00">counter</text>
<text text-anchor="middle" x="1378.78" y="-1137.8" font-family="Times,serif" font-size="14.00">int</text>
</g>
<!-- n2_port_1&#45;&gt;n0_place_10 -->
<g id="edge5" class="edge">
<title>n2_port_1&#45;&gt;n0_place_10</title>
<path fill="none" stroke="black" d="M1316.68,-1146.55C1284.38,-1145.25 1244.91,-1143.67 1212.88,-1142.38"/>
<polygon fill="black" stroke="black" points="1212.89,-1138.88 1202.76,-1141.98 1212.61,-1145.87 1212.89,-1138.88"/>
</g>
<!-- n2_port_4 -->
<g id="node30" class="node">
<title>n2_port_4</title>
<polygon fill="white" stroke="black" points="1276.76,-1222.67 1378.78,-1199.57 1480.81,-1222.67 1480.71,-1260.04 1276.85,-1260.04 1276.76,-1222.67"/>
<text text-anchor="middle" x="1378.78" y="-1236.8" font-family="Times,serif" font-size="14.00">sum</text>
<text text-anchor="middle" x="1378.78" y="-1221.8" font-family="Times,serif" font-size="14.00">unsigned long</text>
</g>
<!-- n2_port_4&#45;&gt;n0_place_2 -->
<g id="edge4" class="edge">
<title>n2_port_4&#45;&gt;n0_place_2</title>
<path fill="none" stroke="black" d="M1276.63,-1233C1266.29,-1233 1255.83,-1233 1245.6,-1233"/>
<polygon fill="black" stroke="black" points="1245.45,-1229.5 1235.45,-1233 1245.45,-1236.5 1245.45,-1229.5"/>
</g>
<!-- n2_port_6 -->
<g id="node31" class="node">
<title>n2_port_6</title>
<polygon fill="white" stroke="black" points="1334.88,-1390.67 1378.78,-1367.57 1422.69,-1390.67 1422.64,-1428.04 1334.92,-1428.04 1334.88,-1390.67"/>
<text text-anchor="middle" x="1378.78" y="-1404.8" font-family="Times,serif" font-size="14.00">limit</text>
<text text-anchor="middle" x="1378.78" y="-1389.8" font-family="Times,serif" font-size="14.00">int</text>
</g>
<!-- n2_port_6&#45;&gt;n0_place_6 -->
<g id="edge3" class="edge">
<title>n2_port_6&#45;&gt;n0_place_6</title>
<path fill="none" stroke="black" d="M1334.75,-1405.22C1295.58,-1409.07 1237.97,-1414.72 1198.28,-1418.61"/>
<polygon fill="black" stroke="black" points="1197.7,-1415.15 1188.09,-1419.61 1198.39,-1422.12 1197.7,-1415.15"/>
</g>
<!-- n2_modcall -->
<g id="node32" class="node">
<title>n2_modcall</title>
<polygon fill="white" stroke="black" points="1464.78,-1014 1292.78,-1014 1292.78,-978 1464.78,-978 1464.78,-1014"/>
<text text-anchor="middle" x="1378.78" y="-992.3" font-family="Times,serif" font-size="14.00">feynman_module.plus</text>
</g>
<!-- n3_condition -->
<g id="node33" class="node">
<title>n3_condition</title>
<polygon fill="white" stroke="black" points="824.82,-1705 824.82,-1741 919.82,-1741 919.82,-1705 824.82,-1705"/>
<text text-anchor="middle" x="872.32" y="-1719.3" font-family="Times,serif" font-size="14.00">transition4</text>
</g>
<!-- n3_port_1 -->
<g id="node36" class="node">
<title>n3_port_1</title>
<polygon fill="white" stroke="black" points="840.89,-1642.67 872.32,-1619.57 903.75,-1642.67 903.72,-1680.04 840.92,-1680.04 840.89,-1642.67"/>
<text text-anchor="middle" x="872.32" y="-1656.8" font-family="Times,serif" font-size="14.00">ss</text>
<text text-anchor="middle" x="872.32" y="-1641.8" font-family="Times,serif" font-size="14.00">int</text>
</g>
<!-- n3_port_1&#45;&gt;n0_place_11 -->
<g id="edge11" class="edge">
<title>n3_port_1&#45;&gt;n0_place_11</title>
<path fill="none" stroke="black" d="M903.89,-1653C951.6,-1653 1044.23,-1653 1101.7,-1653"/>
<polygon fill="black" stroke="black" points="1102,-1656.5 1112,-1653 1102,-1649.5 1102,-1656.5"/>
</g>
<!-- n3_port_3 -->
<g id="node37" class="node">
<title>n3_port_3</title>
<polygon fill="white" stroke="black" points="770.29,-1474.67 872.32,-1451.57 974.34,-1474.67 974.25,-1512.04 770.39,-1512.04 770.29,-1474.67"/>
<text text-anchor="middle" x="872.32" y="-1488.8" font-family="Times,serif" font-size="14.00">s</text>
<text text-anchor="middle" x="872.32" y="-1473.8" font-family="Times,serif" font-size="14.00">unsigned long</text>
</g>
<!-- n3_port_3&#45;&gt;n0_place_9 -->
<g id="edge12" class="edge">
<title>n3_port_3&#45;&gt;n0_place_9</title>
<path fill="none" stroke="black" d="M974.55,-1500.28C1004.85,-1504.86 1037.75,-1509.82 1066.87,-1514.22"/>
<polygon fill="black" stroke="black" points="1066.59,-1517.71 1077,-1515.75 1067.63,-1510.79 1066.59,-1517.71"/>
</g>
<!-- n3_modcall -->
<g id="node38" class="node">
<title>n3_modcall</title>
<polygon fill="white" stroke="black" points="1033.82,-1350 710.82,-1350 710.82,-1314 1033.82,-1314 1033.82,-1350"/>
<text text-anchor="middle" x="872.32" y="-1328.3" font-family="Times,serif" font-size="14.00">feynman_module.feynman_integral_degree</text>
</g>
<!-- n4_condition -->
<g id="node39" class="node">
<title>n4_condition</title>
<polygon fill="white" stroke="black" points="1309.28,-607 1309.28,-669 1448.28,-669 1448.28,-607 1309.28,-607"/>
<text text-anchor="middle" x="1378.78" y="-653.8" font-family="Times,serif" font-size="14.00">transition3</text>
<polyline fill="none" stroke="black" points="1309.28,-646 1448.28,-646 "/>
<text text-anchor="middle" x="1378.78" y="-630.8" font-family="Times,serif" font-size="14.00">(${counter} &gt; 0)</text>
</g>
<!-- n4_port_2 -->
<g id="node43" class="node">
<title>n4_port_2</title>
<polygon fill="white" stroke="black" points="1343.11,-376.67 1378.78,-353.57 1414.45,-376.67 1414.42,-414.04 1343.14,-414.04 1343.11,-376.67"/>
<text text-anchor="middle" x="1378.78" y="-390.8" font-family="Times,serif" font-size="14.00">vec</text>
<text text-anchor="middle" x="1378.78" y="-375.8" font-family="Times,serif" font-size="14.00">list</text>
</g>
<!-- n4_port_2&#45;&gt;n0_place_5 -->
<g id="edge16" class="edge">
<title>n4_port_2&#45;&gt;n0_place_5</title>
<path fill="none" stroke="black" d="M1343.55,-395.9C1319.5,-402.01 1287.47,-412.88 1264.5,-430.59 1222.98,-462.19 1190.53,-514.91 1172.22,-549.69"/>
<path fill="none" stroke="transparent" d="M1343.06,-393.96C1318.86,-400.11 1286.82,-410.99 1263.28,-429 1221.28,-461.14 1188.83,-513.87 1170.45,-548.75"/>
<path fill="none" stroke="black" d="M1342.57,-392.02C1318.22,-398.22 1286.18,-409.09 1262.07,-427.41 1219.57,-460.09 1187.12,-512.82 1168.68,-547.82"/>
<polygon fill="black" stroke="black" points="1167.11,-547.6 1165.65,-558.09 1173.33,-550.8 1167.11,-547.6"/>
</g>
<!-- n4_port_3 -->
<g id="node44" class="node">
<title>n4_port_3</title>
<polygon fill="white" stroke="black" points="1308.94,-292.67 1378.78,-269.57 1448.63,-292.67 1448.56,-330.04 1309,-330.04 1308.94,-292.67"/>
<text text-anchor="middle" x="1378.78" y="-306.8" font-family="Times,serif" font-size="14.00">vec_copy</text>
<text text-anchor="middle" x="1378.78" y="-291.8" font-family="Times,serif" font-size="14.00">list</text>
</g>
<!-- n4_port_3&#45;&gt;n0_place_7 -->
<g id="edge15" class="edge">
<title>n4_port_3&#45;&gt;n0_place_7</title>
<path fill="none" stroke="black" d="M1308.67,-305C1273.48,-305 1231.64,-305 1200.28,-305"/>
<path fill="none" stroke="transparent" d="M1308.67,-303C1273.48,-303 1231.64,-303 1200.28,-303"/>
<path fill="none" stroke="black" d="M1308.67,-301C1273.48,-301 1231.64,-301 1200.28,-301"/>
<polygon fill="black" stroke="black" points="1200.08,-299.5 1190.08,-303 1200.08,-306.5 1200.08,-299.5"/>
</g>
<!-- n4_modcall -->
<g id="node45" class="node">
<title>n4_modcall</title>
<polygon fill="white" stroke="black" points="1477.28,-168 1280.28,-168 1280.28,-132 1477.28,-132 1477.28,-168"/>
<text text-anchor="middle" x="1378.78" y="-146.3" font-family="Times,serif" font-size="14.00">feynman_module.iterator</text>
</g>
<!-- n5_condition -->
<g id="node46" class="node">
<title>n5_condition</title>
<polygon fill="white" stroke="black" points="824.82,-523 824.82,-559 919.82,-559 919.82,-523 824.82,-523"/>
<text text-anchor="middle" x="872.32" y="-537.3" font-family="Times,serif" font-size="14.00">transition2</text>
</g>
<!-- n5_port_1 -->
<g id="node48" class="node">
<title>n5_port_1</title>
<polygon fill="white" stroke="black" points="836.65,-376.67 872.32,-353.57 907.99,-376.67 907.96,-414.04 836.68,-414.04 836.65,-376.67"/>
<text text-anchor="middle" x="872.32" y="-390.8" font-family="Times,serif" font-size="14.00">vec</text>
<text text-anchor="middle" x="872.32" y="-375.8" font-family="Times,serif" font-size="14.00">list</text>
</g>
<!-- n5_port_1&#45;&gt;n0_place_5 -->
<g id="edge21" class="edge">
<title>n5_port_1&#45;&gt;n0_place_5</title>
<path fill="none" stroke="black" d="M908.32,-386.66C944.71,-389.91 1001.7,-399.38 1042.95,-427.35 1087.64,-458.12 1119.87,-512.19 1137.66,-547.97"/>
<path fill="none" stroke="transparent" d="M908.14,-388.65C944.38,-391.88 1001.37,-401.36 1041.82,-429 1085.92,-459.14 1118.15,-513.22 1135.87,-548.86"/>
<path fill="none" stroke="black" d="M907.97,-390.64C944.05,-393.86 1001.04,-403.33 1040.69,-430.65 1084.2,-460.17 1116.43,-514.24 1134.08,-549.75"/>
<polygon fill="black" stroke="black" points="1132.76,-550.47 1140.28,-557.94 1139.06,-547.41 1132.76,-550.47"/>
</g>
<!-- n5_port_2 -->
<g id="node49" class="node">
<title>n5_port_2</title>
<polygon fill="white" stroke="black" points="802.47,-292.67 872.32,-269.57 942.16,-292.67 942.1,-330.04 802.54,-330.04 802.47,-292.67"/>
<text text-anchor="middle" x="872.32" y="-306.8" font-family="Times,serif" font-size="14.00">vec_copy</text>
<text text-anchor="middle" x="872.32" y="-291.8" font-family="Times,serif" font-size="14.00">list</text>
</g>
<!-- n5_port_2&#45;&gt;n0_place_7 -->
<g id="edge20" class="edge">
<title>n5_port_2&#45;&gt;n0_place_7</title>
<path fill="none" stroke="black" d="M942.45,-301C992.96,-301 1060.11,-301 1104.53,-301"/>
<path fill="none" stroke="transparent" d="M942.45,-303C992.96,-303 1060.11,-303 1104.53,-303"/>
<path fill="none" stroke="black" d="M942.45,-305C992.96,-305 1060.11,-305 1104.53,-305"/>
<polygon fill="black" stroke="black" points="1104.75,-306.5 1114.75,-303 1104.75,-299.5 1104.75,-306.5"/>
</g>
<!-- n5_modcall -->
<g id="node50" class="node">
<title>n5_modcall</title>
<polygon fill="white" stroke="black" points="963.32,-252 781.32,-252 781.32,-216 963.32,-216 963.32,-252"/>
<text text-anchor="middle" x="872.32" y="-230.3" font-family="Times,serif" font-size="14.00">feynman_module.iterat</text>
</g>
<!-- n6_condition -->
<g id="node51" class="node">
<title>n6_condition</title>
<polygon fill="white" stroke="black" points="355.21,-691 355.21,-727 450.21,-727 450.21,-691 355.21,-691"/>
<text text-anchor="middle" x="402.71" y="-705.3" font-family="Times,serif" font-size="14.00">transition1</text>
</g>
<!-- n6_port_2 -->
<g id="node54" class="node">
<title>n6_port_2</title>
<polygon fill="white" stroke="black" points="368.54,-460.67 402.71,-437.57 436.89,-460.67 436.85,-498.04 368.57,-498.04 368.54,-460.67"/>
<text text-anchor="middle" x="402.71" y="-474.8" font-family="Times,serif" font-size="14.00">v</text>
<text text-anchor="middle" x="402.71" y="-459.8" font-family="Times,serif" font-size="14.00">list</text>
</g>
<!-- n6_port_2&#45;&gt;n0_place_4 -->
<g id="edge23" class="edge">
<title>n6_port_2&#45;&gt;n0_place_4</title>
<path fill="none" stroke="black" d="M437.11,-469C463.34,-469 500.86,-469 534.14,-469"/>
<path fill="none" stroke="transparent" d="M437.11,-471C463.34,-471 500.86,-471 534.14,-471"/>
<path fill="none" stroke="black" d="M437.11,-473C463.34,-473 500.86,-473 534.14,-473"/>
<polygon fill="black" stroke="black" points="534.31,-474.5 544.31,-471 534.31,-467.5 534.31,-474.5"/>
</g>
<!-- n6_modcall -->
<g id="node55" class="node">
<title>n6_modcall</title>
<polygon fill="white" stroke="black" points="508.71,-420 296.71,-420 296.71,-384 508.71,-384 508.71,-420"/>
<text text-anchor="middle" x="402.71" y="-398.3" font-family="Times,serif" font-size="14.00">feynman_module.gen_block</text>
</g>
</g>
</svg>
