<?xml version="1.0" encoding="UTF-8" standalone="no"?>
<!DOCTYPE svg PUBLIC "-//W3C//DTD SVG 1.1//EN"
 "http://www.w3.org/Graphics/SVG/1.1/DTD/svg11.dtd">
<!-- Generated by graphviz version 2.43.0 (0)
 -->
<!-- Title: feynman Pages: 1 -->
<svg width="1292pt" height="490pt"
 viewBox="0.00 0.00 1291.76 490.00" xmlns="http://www.w3.org/2000/svg" xmlns:xlink="http://www.w3.org/1999/xlink">
<g id="graph0" class="graph" transform="scale(1 1) rotate(0) translate(4 486)">
<title>feynman</title>
<polygon fill="white" stroke="transparent" points="-4,4 -4,-486 1287.76,-486 1287.76,4 -4,4"/>
<g id="clust1" class="cluster">
<title>cluster_0</title>
<polygon fill="dimgray" stroke="black" points="8,-8 8,-474 1275.76,-474 1275.76,-8 8,-8"/>
</g>
<g id="clust2" class="cluster">
<title>cluster_net_0</title>
<polygon fill="white" stroke="black" points="159.37,-90 159.37,-466 1267.76,-466 1267.76,-90 159.37,-90"/>
</g>
<g id="clust3" class="cluster">
<title>cluster_1</title>
<polygon fill="yellow" stroke="black" points="1019.32,-98 1019.32,-458 1148.32,-458 1148.32,-98 1019.32,-98"/>
</g>
<g id="clust4" class="cluster">
<title>cluster_2</title>
<polygon fill="yellow" stroke="black" points="668.73,-140 668.73,-416 824.73,-416 824.73,-140 668.73,-140"/>
</g>
<g id="clust5" class="cluster">
<title>cluster_3</title>
<polygon fill="yellow" stroke="black" points="288.71,-98 288.71,-458 431.71,-458 431.71,-98 288.71,-98"/>
</g>
<!-- n0_condition -->
<g id="node1" class="node">
<title>n0_condition</title>
<polygon fill="white" stroke="black" points="34.69,-421 34.69,-457 112.69,-457 112.69,-421 34.69,-421"/>
<text text-anchor="middle" x="73.69" y="-435.3" font-family="Times,serif" font-size="14.00">feynman</text>
</g>
<!-- n0_port_0 -->
<g id="node2" class="node">
<title>n0_port_0</title>
<polygon fill="white" stroke="black" points="131.56,-371.33 73.69,-394.43 15.81,-371.33 15.87,-333.96 131.5,-333.96 131.56,-371.33"/>
<text text-anchor="middle" x="73.69" y="-364.8" font-family="Times,serif" font-size="14.00">degree</text>
<text text-anchor="middle" x="73.69" y="-349.8" font-family="Times,serif" font-size="14.00">string</text>
</g>
<!-- n0_place_0 -->
<g id="node5" class="node">
<title>n0_place_0</title>
<ellipse fill="white" stroke="black" cx="214.04" cy="-361" rx="46.84" ry="26.74"/>
<text text-anchor="middle" x="214.04" y="-364.8" font-family="Times,serif" font-size="14.00">degree</text>
<text text-anchor="middle" x="214.04" y="-349.8" font-family="Times,serif" font-size="14.00">string</text>
</g>
<!-- n0_port_0&#45;&gt;n0_place_0 -->
<g id="edge9" class="edge">
<title>n0_port_0&#45;&gt;n0_place_0</title>
<path fill="none" stroke="black" stroke-dasharray="1,5" d="M131.76,-361C143.52,-361 155.76,-361 167.07,-361"/>
</g>
<!-- n0_port_1 -->
<g id="node3" class="node">
<title>n0_port_1</title>
<polygon fill="white" stroke="black" points="125.32,-287.33 73.69,-310.43 22.05,-287.33 22.1,-249.96 125.27,-249.96 125.32,-287.33"/>
<text text-anchor="middle" x="73.69" y="-280.8" font-family="Times,serif" font-size="14.00">edge</text>
<text text-anchor="middle" x="73.69" y="-265.8" font-family="Times,serif" font-size="14.00">string</text>
</g>
<!-- n0_place_2 -->
<g id="node7" class="node">
<title>n0_place_2</title>
<ellipse fill="white" stroke="black" cx="214.04" cy="-277" rx="41.94" ry="26.74"/>
<text text-anchor="middle" x="214.04" y="-280.8" font-family="Times,serif" font-size="14.00">edge</text>
<text text-anchor="middle" x="214.04" y="-265.8" font-family="Times,serif" font-size="14.00">string</text>
</g>
<!-- n0_port_1&#45;&gt;n0_place_2 -->
<g id="edge10" class="edge">
<title>n0_port_1&#45;&gt;n0_place_2</title>
<path fill="none" stroke="black" stroke-dasharray="1,5" d="M125.42,-277C140.84,-277 157.59,-277 172.27,-277"/>
</g>
<!-- n0_port_2 -->
<g id="node4" class="node">
<title>n0_port_2</title>
<polygon fill="white" stroke="black" points="1032.19,-38.67 1083.82,-15.57 1135.46,-38.67 1135.41,-76.04 1032.23,-76.04 1032.19,-38.67"/>
<text text-anchor="middle" x="1083.82" y="-52.8" font-family="Times,serif" font-size="14.00">result</text>
<text text-anchor="middle" x="1083.82" y="-37.8" font-family="Times,serif" font-size="14.00">string</text>
</g>
<!-- n0_place_3 -->
<g id="node8" class="node">
<title>n0_place_3</title>
<ellipse fill="white" stroke="black" cx="1218.04" cy="-159" rx="41.94" ry="26.74"/>
<text text-anchor="middle" x="1218.04" y="-162.8" font-family="Times,serif" font-size="14.00">result</text>
<text text-anchor="middle" x="1218.04" y="-147.8" font-family="Times,serif" font-size="14.00">string</text>
</g>
<!-- n0_port_2&#45;&gt;n0_place_3 -->
<g id="edge11" class="edge">
<title>n0_port_2&#45;&gt;n0_place_3</title>
<path fill="none" stroke="black" stroke-dasharray="1,5" d="M1125.1,-76.25C1132.95,-81.92 1141.01,-88 1148.32,-94 1164.57,-107.33 1181.75,-123.58 1194.87,-136.5"/>
</g>
<!-- n3_port_0 -->
<g id="node21" class="node">
<title>n3_port_0</title>
<polygon fill="white" stroke="black" points="411.85,-371.33 360.21,-394.43 308.57,-371.33 308.62,-333.96 411.8,-333.96 411.85,-371.33"/>
<text text-anchor="middle" x="360.21" y="-364.8" font-family="Times,serif" font-size="14.00">d</text>
<text text-anchor="middle" x="360.21" y="-349.8" font-family="Times,serif" font-size="14.00">string</text>
</g>
<!-- n0_place_0&#45;&gt;n3_port_0 -->
<g id="edge7" class="edge">
<title>n0_place_0&#45;&gt;n3_port_0</title>
<path fill="none" stroke="black" d="M261.05,-361C272.9,-361 285.83,-361 298.3,-361"/>
<polygon fill="black" stroke="black" points="298.64,-364.5 308.64,-361 298.64,-357.5 298.64,-364.5"/>
</g>
<!-- n0_place_1 -->
<g id="node6" class="node">
<title>n0_place_1</title>
<ellipse fill="white" stroke="black" cx="922.03" cy="-355" rx="69.09" ry="26.74"/>
<text text-anchor="middle" x="922.03" y="-358.8" font-family="Times,serif" font-size="14.00">branchtype</text>
<text text-anchor="middle" x="922.03" y="-343.8" font-family="Times,serif" font-size="14.00">string</text>
</g>
<!-- n1_port_0 -->
<g id="node12" class="node">
<title>n1_port_0</title>
<polygon fill="white" stroke="black" points="1135.46,-371.33 1083.82,-394.43 1032.19,-371.33 1032.23,-333.96 1135.41,-333.96 1135.46,-371.33"/>
<text text-anchor="middle" x="1083.82" y="-364.8" font-family="Times,serif" font-size="14.00">a</text>
<text text-anchor="middle" x="1083.82" y="-349.8" font-family="Times,serif" font-size="14.00">string</text>
</g>
<!-- n0_place_1&#45;&gt;n1_port_0 -->
<g id="edge2" class="edge">
<title>n0_place_1&#45;&gt;n1_port_0</title>
<path fill="none" stroke="black" d="M991.26,-357.56C1001.46,-357.94 1011.92,-358.34 1021.95,-358.71"/>
<polygon fill="black" stroke="black" points="1022.1,-362.22 1032.22,-359.1 1022.36,-355.23 1022.1,-362.22"/>
</g>
<!-- n3_port_2 -->
<g id="node22" class="node">
<title>n3_port_2</title>
<polygon fill="white" stroke="black" points="411.85,-287.33 360.21,-310.43 308.57,-287.33 308.62,-249.96 411.8,-249.96 411.85,-287.33"/>
<text text-anchor="middle" x="360.21" y="-280.8" font-family="Times,serif" font-size="14.00">n</text>
<text text-anchor="middle" x="360.21" y="-265.8" font-family="Times,serif" font-size="14.00">string</text>
</g>
<!-- n0_place_2&#45;&gt;n3_port_2 -->
<g id="edge8" class="edge">
<title>n0_place_2&#45;&gt;n3_port_2</title>
<path fill="none" stroke="black" d="M255.97,-277C269.1,-277 283.94,-277 298.18,-277"/>
<polygon fill="black" stroke="black" points="298.42,-280.5 308.42,-277 298.42,-273.5 298.42,-280.5"/>
</g>
<!-- n0_place_4 -->
<g id="node9" class="node">
<title>n0_place_4</title>
<ellipse fill="white" stroke="black" cx="550.22" cy="-256" rx="90.52" ry="26.74"/>
<text text-anchor="middle" x="550.22" y="-259.8" font-family="Times,serif" font-size="14.00">Young_Diagram</text>
<text text-anchor="middle" x="550.22" y="-244.8" font-family="Times,serif" font-size="14.00">string</text>
</g>
<!-- n2_port_0 -->
<g id="node17" class="node">
<title>n2_port_0</title>
<polygon fill="white" stroke="black" points="798.37,-329.33 746.73,-352.43 695.09,-329.33 695.14,-291.96 798.32,-291.96 798.37,-329.33"/>
<text text-anchor="middle" x="746.73" y="-322.8" font-family="Times,serif" font-size="14.00">v</text>
<text text-anchor="middle" x="746.73" y="-307.8" font-family="Times,serif" font-size="14.00">string</text>
</g>
<!-- n0_place_4&#45;&gt;n2_port_0 -->
<g id="edge5" class="edge">
<title>n0_place_4&#45;&gt;n2_port_0</title>
<path fill="none" stroke="black" d="M611.96,-275.67C635.27,-283.22 661.86,-291.83 685.15,-299.38"/>
<polygon fill="black" stroke="black" points="684.32,-302.79 694.92,-302.54 686.48,-296.13 684.32,-302.79"/>
</g>
<!-- n0_place_5 -->
<g id="node10" class="node">
<title>n0_place_5</title>
<ellipse fill="white" stroke="black" cx="922.03" cy="-277" rx="41.94" ry="26.74"/>
<text text-anchor="middle" x="922.03" y="-280.8" font-family="Times,serif" font-size="14.00">graph</text>
<text text-anchor="middle" x="922.03" y="-265.8" font-family="Times,serif" font-size="14.00">string</text>
</g>
<!-- n1_port_2 -->
<g id="node13" class="node">
<title>n1_port_2</title>
<polygon fill="white" stroke="black" points="1135.46,-287.33 1083.82,-310.43 1032.19,-287.33 1032.23,-249.96 1135.41,-249.96 1135.46,-287.33"/>
<text text-anchor="middle" x="1083.82" y="-280.8" font-family="Times,serif" font-size="14.00">G</text>
<text text-anchor="middle" x="1083.82" y="-265.8" font-family="Times,serif" font-size="14.00">string</text>
</g>
<!-- n0_place_5&#45;&gt;n1_port_2 -->
<g id="edge3" class="edge">
<title>n0_place_5&#45;&gt;n1_port_2</title>
<path fill="none" stroke="black" d="M963.76,-277C981.48,-277 1002.61,-277 1022.12,-277"/>
<polygon fill="black" stroke="black" points="1022.14,-280.5 1032.14,-277 1022.14,-273.5 1022.14,-280.5"/>
</g>
<!-- n1_condition -->
<g id="node11" class="node">
<title>n1_condition</title>
<polygon fill="white" stroke="black" points="1044.82,-413 1044.82,-449 1122.82,-449 1122.82,-413 1044.82,-413"/>
<text text-anchor="middle" x="1083.82" y="-427.3" font-family="Times,serif" font-size="14.00">feynman</text>
</g>
<!-- n1_port_1 -->
<g id="node14" class="node">
<title>n1_port_1</title>
<polygon fill="white" stroke="black" points="1032.19,-182.67 1083.82,-159.57 1135.46,-182.67 1135.41,-220.04 1032.23,-220.04 1032.19,-182.67"/>
<text text-anchor="middle" x="1083.82" y="-196.8" font-family="Times,serif" font-size="14.00">a</text>
<text text-anchor="middle" x="1083.82" y="-181.8" font-family="Times,serif" font-size="14.00">string</text>
</g>
<!-- n1_port_1&#45;&gt;n0_place_3 -->
<g id="edge1" class="edge">
<title>n1_port_1&#45;&gt;n0_place_3</title>
<path fill="none" stroke="black" d="M1131.81,-180.92C1143.87,-177.82 1156.86,-174.47 1168.98,-171.36"/>
<polygon fill="black" stroke="black" points="1170.1,-174.69 1178.91,-168.81 1168.35,-167.91 1170.1,-174.69"/>
</g>
<!-- n1_modcall -->
<g id="node15" class="node">
<title>n1_modcall</title>
<polygon fill="white" stroke="black" points="1140.32,-142 1027.32,-142 1027.32,-106 1140.32,-106 1140.32,-142"/>
<text text-anchor="middle" x="1083.82" y="-120.3" font-family="Times,serif" font-size="14.00">feynman.plus</text>
</g>
<!-- n2_condition -->
<g id="node16" class="node">
<title>n2_condition</title>
<polygon fill="white" stroke="black" points="694.23,-371 694.23,-407 799.23,-407 799.23,-371 694.23,-371"/>
<text text-anchor="middle" x="746.73" y="-385.3" font-family="Times,serif" font-size="14.00">permutation</text>
</g>
<!-- n2_port_1 -->
<g id="node18" class="node">
<title>n2_port_1</title>
<polygon fill="white" stroke="black" points="695.09,-224.67 746.73,-201.57 798.37,-224.67 798.32,-262.04 695.14,-262.04 695.09,-224.67"/>
<text text-anchor="middle" x="746.73" y="-238.8" font-family="Times,serif" font-size="14.00">v</text>
<text text-anchor="middle" x="746.73" y="-223.8" font-family="Times,serif" font-size="14.00">string</text>
</g>
<!-- n2_port_1&#45;&gt;n0_place_1 -->
<g id="edge4" class="edge">
<title>n2_port_1&#45;&gt;n0_place_1</title>
<path fill="none" stroke="black" d="M798.55,-258.83C807.71,-264.19 816.84,-270.29 824.73,-277 840.17,-290.13 837.63,-299.47 852.73,-313 858.56,-318.22 865.13,-323.18 871.82,-327.73"/>
<polygon fill="black" stroke="black" points="870.04,-330.75 880.33,-333.28 873.86,-324.89 870.04,-330.75"/>
</g>
<!-- n2_modcall -->
<g id="node19" class="node">
<title>n2_modcall</title>
<polygon fill="white" stroke="black" points="816.73,-184 676.73,-184 676.73,-148 816.73,-148 816.73,-184"/>
<text text-anchor="middle" x="746.73" y="-162.3" font-family="Times,serif" font-size="14.00">permutation.vect</text>
</g>
<!-- n3_condition -->
<g id="node20" class="node">
<title>n3_condition</title>
<polygon fill="white" stroke="black" points="320.71,-413 320.71,-449 399.71,-449 399.71,-413 320.71,-413"/>
<text text-anchor="middle" x="360.21" y="-427.3" font-family="Times,serif" font-size="14.00">partition</text>
</g>
<!-- n3_port_1 -->
<g id="node23" class="node">
<title>n3_port_1</title>
<polygon fill="white" stroke="black" points="308.57,-182.67 360.21,-159.57 411.85,-182.67 411.8,-220.04 308.62,-220.04 308.57,-182.67"/>
<text text-anchor="middle" x="360.21" y="-196.8" font-family="Times,serif" font-size="14.00">d</text>
<text text-anchor="middle" x="360.21" y="-181.8" font-family="Times,serif" font-size="14.00">string</text>
</g>
<!-- n3_port_1&#45;&gt;n0_place_4 -->
<g id="edge6" class="edge">
<title>n3_port_1&#45;&gt;n0_place_4</title>
<path fill="none" stroke="black" d="M412.09,-210.05C433.02,-217.06 457.6,-225.3 480.12,-232.85"/>
<polygon fill="black" stroke="black" points="479.04,-236.17 489.63,-236.03 481.26,-229.54 479.04,-236.17"/>
</g>
<!-- n3_modcall -->
<g id="node24" class="node">
<title>n3_modcall</title>
<polygon fill="white" stroke="black" points="423.71,-142 296.71,-142 296.71,-106 423.71,-106 423.71,-142"/>
<text text-anchor="middle" x="360.21" y="-120.3" font-family="Times,serif" font-size="14.00">Partition.young</text>
</g>
</g>
</svg>
