<?xml version="1.0" encoding="UTF-8" standalone="no"?>
<!DOCTYPE svg PUBLIC "-//W3C//DTD SVG 1.1//EN"
 "http://www.w3.org/Graphics/SVG/1.1/DTD/svg11.dtd">
<!-- Generated by graphviz version 2.43.0 (0)
 -->
<!-- Title: feynman_deg Pages: 1 -->
<svg width="3226pt" height="1306pt"
 viewBox="0.00 0.00 3225.61 1306.00" xmlns="http://www.w3.org/2000/svg" xmlns:xlink="http://www.w3.org/1999/xlink">
<g id="graph0" class="graph" transform="scale(1 1) rotate(0) translate(4 1302)">
<title>feynman_deg</title>
<polygon fill="white" stroke="transparent" points="-4,4 -4,-1302 3221.61,-1302 3221.61,4 -4,4"/>
<g id="clust1" class="cluster">
<title>cluster_0</title>
<polygon fill="dimgray" stroke="black" points="8,-8 8,-1290 3209.61,-1290 3209.61,-8 8,-8"/>
</g>
<g id="clust2" class="cluster">
<title>cluster_net_0</title>
<polygon fill="white" stroke="black" points="159.37,-90 159.37,-956 3201.61,-956 3201.61,-90 159.37,-90"/>
</g>
<g id="clust3" class="cluster">
<title>cluster_1</title>
<polygon fill="yellow" stroke="black" points="2871.45,-98 2871.45,-458 3069.45,-458 3069.45,-98 2871.45,-98"/>
</g>
<g id="clust4" class="cluster">
<title>cluster_2</title>
<polygon fill="yellow" stroke="black" points="2390.38,-478 2390.38,-948 2709.38,-948 2709.38,-478 2390.38,-478"/>
</g>
<g id="clust5" class="cluster">
<title>cluster_3</title>
<polygon fill="yellow" stroke="black" points="2439.62,-110 2439.62,-470 2660.14,-470 2660.14,-110 2439.62,-110"/>
</g>
<g id="clust6" class="cluster">
<title>cluster_4</title>
<polygon fill="yellow" stroke="black" points="1964.66,-157 1964.66,-601 2152.66,-601 2152.66,-157 1964.66,-157"/>
</g>
<g id="clust7" class="cluster">
<title>cluster_5</title>
<polygon fill="yellow" stroke="black" points="1457.23,-336 1457.23,-948 1796.23,-948 1796.23,-336 1457.23,-336"/>
</g>
<g id="clust8" class="cluster">
<title>cluster_6</title>
<polygon fill="yellow" stroke="black" points="1042.64,-420 1042.64,-696 1262.64,-696 1262.64,-420 1042.64,-420"/>
</g>
<g id="clust9" class="cluster">
<title>cluster_7</title>
<polygon fill="yellow" stroke="black" points="631.43,-504 631.43,-864 866.43,-864 866.43,-504 631.43,-504"/>
</g>
<g id="clust10" class="cluster">
<title>cluster_8</title>
<polygon fill="yellow" stroke="black" points="288.71,-315 288.71,-675 470.78,-675 470.78,-315 288.71,-315"/>
</g>
<!-- n0_condition -->
<g id="node1" class="node">
<title>n0_condition</title>
<polygon fill="white" stroke="black" points="18.19,-1040 18.19,-1076 129.19,-1076 129.19,-1040 18.19,-1040"/>
<text text-anchor="middle" x="73.69" y="-1054.3" font-family="Times,serif" font-size="14.00">feynman_deg</text>
</g>
<!-- n0_port_0 -->
<g id="node2" class="node">
<title>n0_port_0</title>
<polygon fill="white" stroke="black" points="131.56,-588.33 73.69,-611.43 15.81,-588.33 15.87,-550.96 131.5,-550.96 131.56,-588.33"/>
<text text-anchor="middle" x="73.69" y="-581.8" font-family="Times,serif" font-size="14.00">degree</text>
<text text-anchor="middle" x="73.69" y="-566.8" font-family="Times,serif" font-size="14.00">int</text>
</g>
<!-- n0_place_6 -->
<g id="node17" class="node">
<title>n0_place_6</title>
<ellipse fill="white" stroke="black" cx="214.04" cy="-578" rx="46.84" ry="26.74"/>
<text text-anchor="middle" x="214.04" y="-581.8" font-family="Times,serif" font-size="14.00">degree</text>
<text text-anchor="middle" x="214.04" y="-566.8" font-family="Times,serif" font-size="14.00">int</text>
</g>
<!-- n0_port_0&#45;&gt;n0_place_6 -->
<g id="edge29" class="edge">
<title>n0_port_0&#45;&gt;n0_place_6</title>
<path fill="none" stroke="black" stroke-dasharray="1,5" d="M131.76,-578C143.52,-578 155.76,-578 167.07,-578"/>
</g>
<!-- n0_port_1 -->
<g id="node3" class="node">
<title>n0_port_1</title>
<polygon fill="white" stroke="black" points="1190.3,-1259.33 1152.64,-1282.43 1114.97,-1259.33 1115,-1221.96 1190.27,-1221.96 1190.3,-1259.33"/>
<text text-anchor="middle" x="1152.64" y="-1252.8" font-family="Times,serif" font-size="14.00">deg</text>
<text text-anchor="middle" x="1152.64" y="-1237.8" font-family="Times,serif" font-size="14.00">int</text>
</g>
<!-- n0_place_8 -->
<g id="node15" class="node">
<title>n0_place_8</title>
<ellipse fill="white" stroke="black" cx="1359.93" cy="-886" rx="30.31" ry="26.74"/>
<text text-anchor="middle" x="1359.93" y="-889.8" font-family="Times,serif" font-size="14.00">deg</text>
<text text-anchor="middle" x="1359.93" y="-874.8" font-family="Times,serif" font-size="14.00">int</text>
</g>
<!-- n0_port_1&#45;&gt;n0_place_8 -->
<g id="edge30" class="edge">
<title>n0_port_1&#45;&gt;n0_place_8</title>
<path fill="none" stroke="black" stroke-dasharray="1,5" d="M1190.42,-1243.36C1214.08,-1237.9 1243.82,-1227.31 1262.64,-1207 1341.72,-1121.64 1356.01,-973.73 1358.48,-913.11"/>
</g>
<!-- n0_port_2 -->
<g id="node4" class="node">
<title>n0_port_2</title>
<polygon fill="white" stroke="black" points="2160.68,-1007.33 2058.66,-1030.43 1956.63,-1007.33 1956.73,-969.96 2160.59,-969.96 2160.68,-1007.33"/>
<text text-anchor="middle" x="2058.66" y="-1000.8" font-family="Times,serif" font-size="14.00">total</text>
<text text-anchor="middle" x="2058.66" y="-985.8" font-family="Times,serif" font-size="14.00">unsigned long</text>
</g>
<!-- n0_place_12 -->
<g id="node11" class="node">
<title>n0_place_12</title>
<ellipse fill="white" stroke="black" cx="2279.65" cy="-873" rx="82.96" ry="26.74"/>
<text text-anchor="middle" x="2279.65" y="-876.8" font-family="Times,serif" font-size="14.00">total</text>
<text text-anchor="middle" x="2279.65" y="-861.8" font-family="Times,serif" font-size="14.00">unsigned long</text>
</g>
<!-- n0_port_2&#45;&gt;n0_place_12 -->
<g id="edge31" class="edge">
<title>n0_port_2&#45;&gt;n0_place_12</title>
<path fill="none" stroke="black" stroke-dasharray="1,5" d="M2107.45,-969.94C2146.33,-947.92 2200.64,-917.17 2237.59,-896.25"/>
</g>
<!-- n0_port_3 -->
<g id="node5" class="node">
<title>n0_port_3</title>
<polygon fill="white" stroke="black" points="411.17,-1007.33 379.74,-1030.43 348.31,-1007.33 348.34,-969.96 411.14,-969.96 411.17,-1007.33"/>
<text text-anchor="middle" x="379.74" y="-1000.8" font-family="Times,serif" font-size="14.00">N</text>
<text text-anchor="middle" x="379.74" y="-985.8" font-family="Times,serif" font-size="14.00">int</text>
</g>
<!-- n0_place_9 -->
<g id="node14" class="node">
<title>n0_place_9</title>
<ellipse fill="white" stroke="black" cx="551.1" cy="-844" rx="27" ry="26.74"/>
<text text-anchor="middle" x="551.1" y="-847.8" font-family="Times,serif" font-size="14.00">N</text>
<text text-anchor="middle" x="551.1" y="-832.8" font-family="Times,serif" font-size="14.00">int</text>
</g>
<!-- n0_port_3&#45;&gt;n0_place_9 -->
<g id="edge32" class="edge">
<title>n0_port_3&#45;&gt;n0_place_9</title>
<path fill="none" stroke="black" stroke-dasharray="1,5" d="M411.02,-969.65C445.65,-938.36 501.34,-888.05 530.64,-861.58"/>
</g>
<!-- n0_port_4 -->
<g id="node6" class="node">
<title>n0_port_4</title>
<polygon fill="white" stroke="black" points="1204.27,-1175.33 1152.64,-1198.43 1101,-1175.33 1101.05,-1137.96 1204.22,-1137.96 1204.27,-1175.33"/>
<text text-anchor="middle" x="1152.64" y="-1168.8" font-family="Times,serif" font-size="14.00">graph</text>
<text text-anchor="middle" x="1152.64" y="-1153.8" font-family="Times,serif" font-size="14.00">list</text>
</g>
<!-- n0_place_0 -->
<g id="node23" class="node">
<title>n0_place_0</title>
<ellipse fill="white" stroke="black" cx="1359.93" cy="-790" rx="41.94" ry="26.74"/>
<text text-anchor="middle" x="1359.93" y="-793.8" font-family="Times,serif" font-size="14.00">graph</text>
<text text-anchor="middle" x="1359.93" y="-778.8" font-family="Times,serif" font-size="14.00">list</text>
</g>
<!-- n0_port_4&#45;&gt;n0_place_0 -->
<g id="edge33" class="edge">
<title>n0_port_4&#45;&gt;n0_place_0</title>
<path fill="none" stroke="black" stroke-dasharray="1,5" d="M1204.36,-1157.45C1225.65,-1151.62 1248.66,-1141.29 1262.64,-1123 1299.67,-1074.55 1262.69,-904.2 1290.64,-850 1299.39,-833.03 1315.13,-818.69 1329.29,-808.3"/>
</g>
<!-- n0_port_5 -->
<g id="node7" class="node">
<title>n0_port_5</title>
<polygon fill="white" stroke="black" points="105.12,-217.33 73.69,-240.43 42.26,-217.33 42.29,-179.96 105.09,-179.96 105.12,-217.33"/>
<text text-anchor="middle" x="73.69" y="-210.8" font-family="Times,serif" font-size="14.00">g</text>
<text text-anchor="middle" x="73.69" y="-195.8" font-family="Times,serif" font-size="14.00">int</text>
</g>
<!-- n0_place_5 -->
<g id="node18" class="node">
<title>n0_place_5</title>
<ellipse fill="white" stroke="black" cx="214.04" cy="-207" rx="27" ry="26.74"/>
<text text-anchor="middle" x="214.04" y="-210.8" font-family="Times,serif" font-size="14.00">g</text>
<text text-anchor="middle" x="214.04" y="-195.8" font-family="Times,serif" font-size="14.00">int</text>
</g>
<!-- n0_port_5&#45;&gt;n0_place_5 -->
<g id="edge34" class="edge">
<title>n0_port_5&#45;&gt;n0_place_5</title>
<path fill="none" stroke="black" stroke-dasharray="1,5" d="M105.39,-207C129.75,-207 163.45,-207 186.62,-207"/>
</g>
<!-- n0_port_6 -->
<g id="node8" class="node">
<title>n0_port_6</title>
<polygon fill="white" stroke="black" points="1204.27,-1091.33 1152.64,-1114.43 1101,-1091.33 1101.05,-1053.96 1204.22,-1053.96 1204.27,-1091.33"/>
<text text-anchor="middle" x="1152.64" y="-1084.8" font-family="Times,serif" font-size="14.00">genus</text>
<text text-anchor="middle" x="1152.64" y="-1069.8" font-family="Times,serif" font-size="14.00">string</text>
</g>
<!-- n0_place_16 -->
<g id="node27" class="node">
<title>n0_place_16</title>
<ellipse fill="white" stroke="black" cx="1359.93" cy="-700" rx="41.94" ry="26.74"/>
<text text-anchor="middle" x="1359.93" y="-703.8" font-family="Times,serif" font-size="14.00">genus</text>
<text text-anchor="middle" x="1359.93" y="-688.8" font-family="Times,serif" font-size="14.00">string</text>
</g>
<!-- n0_port_6&#45;&gt;n0_place_16 -->
<g id="edge35" class="edge">
<title>n0_port_6&#45;&gt;n0_place_16</title>
<path fill="none" stroke="black" stroke-dasharray="1,5" d="M1204.4,-1073.47C1225.69,-1067.65 1248.7,-1057.32 1262.64,-1039 1301.17,-988.36 1260.13,-809.85 1290.64,-754 1299.04,-738.61 1313.85,-726.08 1327.54,-716.98"/>
</g>
<!-- n0_port_7 -->
<g id="node9" class="node">
<title>n0_port_7</title>
<polygon fill="white" stroke="black" points="1204.27,-1007.33 1152.64,-1030.43 1101,-1007.33 1101.05,-969.96 1204.22,-969.96 1204.27,-1007.33"/>
<text text-anchor="middle" x="1152.64" y="-1000.8" font-family="Times,serif" font-size="14.00">loop</text>
<text text-anchor="middle" x="1152.64" y="-985.8" font-family="Times,serif" font-size="14.00">string</text>
</g>
<!-- n0_place_13 -->
<g id="node24" class="node">
<title>n0_place_13</title>
<ellipse fill="white" stroke="black" cx="1359.93" cy="-605" rx="41.94" ry="26.74"/>
<text text-anchor="middle" x="1359.93" y="-608.8" font-family="Times,serif" font-size="14.00">loop</text>
<text text-anchor="middle" x="1359.93" y="-593.8" font-family="Times,serif" font-size="14.00">string</text>
</g>
<!-- n0_port_7&#45;&gt;n0_place_13 -->
<g id="edge36" class="edge">
<title>n0_port_7&#45;&gt;n0_place_13</title>
<path fill="none" stroke="black" stroke-dasharray="1,5" d="M1160.17,-969.84C1175.47,-910.17 1217.92,-764.94 1290.64,-664 1301.63,-648.74 1317.32,-634.83 1330.89,-624.35"/>
</g>
<!-- n0_port_8 -->
<g id="node10" class="node">
<title>n0_port_8</title>
<polygon fill="white" stroke="black" points="2911.08,-38.67 2970.45,-15.57 3029.82,-38.67 3029.76,-76.04 2911.14,-76.04 2911.08,-38.67"/>
<text text-anchor="middle" x="2970.45" y="-52.8" font-family="Times,serif" font-size="14.00">answer</text>
<text text-anchor="middle" x="2970.45" y="-37.8" font-family="Times,serif" font-size="14.00">string</text>
</g>
<!-- n0_place_2 -->
<g id="node21" class="node">
<title>n0_place_2</title>
<ellipse fill="white" stroke="black" cx="3145.53" cy="-159" rx="48.17" ry="26.74"/>
<text text-anchor="middle" x="3145.53" y="-162.8" font-family="Times,serif" font-size="14.00">answer</text>
<text text-anchor="middle" x="3145.53" y="-147.8" font-family="Times,serif" font-size="14.00">string</text>
</g>
<!-- n0_port_8&#45;&gt;n0_place_2 -->
<g id="edge37" class="edge">
<title>n0_port_8&#45;&gt;n0_place_2</title>
<path fill="none" stroke="black" stroke-dasharray="1,5" d="M3029.89,-72.55C3043.28,-78.83 3057.17,-86.1 3069.45,-94 3088.15,-106.04 3107.07,-122.45 3121.24,-135.77"/>
</g>
<!-- n2_port_0 -->
<g id="node34" class="node">
<title>n2_port_0</title>
<polygon fill="white" stroke="black" points="2651.91,-835.33 2549.88,-858.43 2447.86,-835.33 2447.95,-797.96 2651.81,-797.96 2651.91,-835.33"/>
<text text-anchor="middle" x="2549.88" y="-828.8" font-family="Times,serif" font-size="14.00">total</text>
<text text-anchor="middle" x="2549.88" y="-813.8" font-family="Times,serif" font-size="14.00">unsigned long</text>
</g>
<!-- n0_place_12&#45;&gt;n2_port_0 -->
<g id="edge7" class="edge">
<title>n0_place_12&#45;&gt;n2_port_0</title>
<path fill="none" stroke="black" stroke-dasharray="5,2" d="M2352.53,-860.14C2384.59,-854.4 2422.75,-847.57 2456.87,-841.47"/>
<polygon fill="black" stroke="black" points="2457.61,-844.89 2466.84,-839.68 2456.38,-838 2457.61,-844.89"/>
</g>
<!-- n0_place_11 -->
<g id="node12" class="node">
<title>n0_place_11</title>
<ellipse fill="white" stroke="black" cx="551.1" cy="-546" rx="52.15" ry="26.74"/>
<text text-anchor="middle" x="551.1" y="-549.8" font-family="Times,serif" font-size="14.00">degrees</text>
<text text-anchor="middle" x="551.1" y="-534.8" font-family="Times,serif" font-size="14.00">int</text>
</g>
<!-- n7_port_0 -->
<g id="node63" class="node">
<title>n7_port_0</title>
<polygon fill="white" stroke="black" points="780.36,-693.33 748.93,-716.43 717.5,-693.33 717.53,-655.96 780.33,-655.96 780.36,-693.33"/>
<text text-anchor="middle" x="748.93" y="-686.8" font-family="Times,serif" font-size="14.00">i</text>
<text text-anchor="middle" x="748.93" y="-671.8" font-family="Times,serif" font-size="14.00">int</text>
</g>
<!-- n0_place_11&#45;&gt;n7_port_0 -->
<g id="edge24" class="edge">
<title>n0_place_11&#45;&gt;n7_port_0</title>
<path fill="none" stroke="black" d="M568.06,-571.87C582.33,-593.08 605.02,-622.52 631.43,-641 654.24,-656.96 683.78,-667.52 707.41,-674.06"/>
<polygon fill="black" stroke="black" points="706.58,-677.46 717.14,-676.62 708.36,-670.69 706.58,-677.46"/>
</g>
<!-- n0_place_10 -->
<g id="node13" class="node">
<title>n0_place_10</title>
<ellipse fill="white" stroke="black" cx="1872.31" cy="-448" rx="48.17" ry="26.74"/>
<text text-anchor="middle" x="1872.31" y="-451.8" font-family="Times,serif" font-size="14.00">fey_out</text>
<text text-anchor="middle" x="1872.31" y="-436.8" font-family="Times,serif" font-size="14.00">string</text>
</g>
<!-- n4_port_1 -->
<g id="node45" class="node">
<title>n4_port_1</title>
<polygon fill="white" stroke="black" points="2110.29,-514.33 2058.66,-537.43 2007.02,-514.33 2007.07,-476.96 2110.25,-476.96 2110.29,-514.33"/>
<text text-anchor="middle" x="2058.66" y="-507.8" font-family="Times,serif" font-size="14.00">s</text>
<text text-anchor="middle" x="2058.66" y="-492.8" font-family="Times,serif" font-size="14.00">string</text>
</g>
<!-- n0_place_10&#45;&gt;n4_port_1 -->
<g id="edge14" class="edge">
<title>n0_place_10&#45;&gt;n4_port_1</title>
<path fill="none" stroke="black" d="M1915.14,-460.71C1939.36,-468.06 1970.27,-477.45 1997.11,-485.61"/>
<polygon fill="black" stroke="black" points="1996.21,-488.99 2006.8,-488.55 1998.25,-482.29 1996.21,-488.99"/>
</g>
<!-- n7_port_1 -->
<g id="node64" class="node">
<title>n7_port_1</title>
<polygon fill="white" stroke="black" points="780.36,-777.33 748.93,-800.43 717.5,-777.33 717.53,-739.96 780.33,-739.96 780.36,-777.33"/>
<text text-anchor="middle" x="748.93" y="-770.8" font-family="Times,serif" font-size="14.00">n</text>
<text text-anchor="middle" x="748.93" y="-755.8" font-family="Times,serif" font-size="14.00">int</text>
</g>
<!-- n0_place_9&#45;&gt;n7_port_1 -->
<g id="edge25" class="edge">
<title>n0_place_9&#45;&gt;n7_port_1</title>
<path fill="none" stroke="black" stroke-dasharray="5,2" d="M575.92,-833.41C591.61,-826.53 612.64,-817.49 631.43,-810 656.72,-799.92 685.42,-789.32 708,-781.16"/>
<polygon fill="black" stroke="black" points="709.37,-784.39 717.59,-777.71 707,-777.8 709.37,-784.39"/>
</g>
<!-- n5_port_5 -->
<g id="node55" class="node">
<title>n5_port_5</title>
<polygon fill="white" stroke="black" points="1664.4,-861.33 1626.73,-884.43 1589.06,-861.33 1589.1,-823.96 1664.36,-823.96 1664.4,-861.33"/>
<text text-anchor="middle" x="1626.73" y="-854.8" font-family="Times,serif" font-size="14.00">deg</text>
<text text-anchor="middle" x="1626.73" y="-839.8" font-family="Times,serif" font-size="14.00">int</text>
</g>
<!-- n0_place_8&#45;&gt;n5_port_5 -->
<g id="edge16" class="edge">
<title>n0_place_8&#45;&gt;n5_port_5</title>
<path fill="none" stroke="black" stroke-dasharray="5,2" d="M1390.03,-882.15C1435.59,-876.13 1524.21,-864.42 1578.85,-857.2"/>
<polygon fill="black" stroke="black" points="1579.52,-860.64 1588.97,-855.86 1578.6,-853.7 1579.52,-860.64"/>
</g>
<!-- n0_place_7 -->
<g id="node16" class="node">
<title>n0_place_7</title>
<ellipse fill="white" stroke="black" cx="1359.93" cy="-515" rx="69.09" ry="26.74"/>
<text text-anchor="middle" x="1359.93" y="-518.8" font-family="Times,serif" font-size="14.00">branchtype</text>
<text text-anchor="middle" x="1359.93" y="-503.8" font-family="Times,serif" font-size="14.00">list</text>
</g>
<!-- n5_port_0 -->
<g id="node51" class="node">
<title>n5_port_0</title>
<polygon fill="white" stroke="black" points="1660.9,-525.33 1626.73,-548.43 1592.55,-525.33 1592.59,-487.96 1660.87,-487.96 1660.9,-525.33"/>
<text text-anchor="middle" x="1626.73" y="-518.8" font-family="Times,serif" font-size="14.00">a</text>
<text text-anchor="middle" x="1626.73" y="-503.8" font-family="Times,serif" font-size="14.00">list</text>
</g>
<!-- n0_place_7&#45;&gt;n5_port_0 -->
<g id="edge19" class="edge">
<title>n0_place_7&#45;&gt;n5_port_0</title>
<path fill="none" stroke="black" d="M1429.47,-515C1477.78,-515 1541.01,-515 1582.47,-515"/>
<polygon fill="black" stroke="black" points="1582.52,-518.5 1592.52,-515 1582.52,-511.5 1582.52,-518.5"/>
</g>
<!-- n8_port_1 -->
<g id="node69" class="node">
<title>n8_port_1</title>
<polygon fill="white" stroke="black" points="411.17,-588.33 379.74,-611.43 348.31,-588.33 348.34,-550.96 411.14,-550.96 411.17,-588.33"/>
<text text-anchor="middle" x="379.74" y="-581.8" font-family="Times,serif" font-size="14.00">d</text>
<text text-anchor="middle" x="379.74" y="-566.8" font-family="Times,serif" font-size="14.00">int</text>
</g>
<!-- n0_place_6&#45;&gt;n8_port_1 -->
<g id="edge27" class="edge">
<title>n0_place_6&#45;&gt;n8_port_1</title>
<path fill="none" stroke="black" d="M261.08,-578C285.27,-578 314.66,-578 338.02,-578"/>
<polygon fill="black" stroke="black" points="338.28,-581.5 348.28,-578 338.28,-574.5 338.28,-581.5"/>
</g>
<!-- n1_port_2 -->
<g id="node30" class="node">
<title>n1_port_2</title>
<polygon fill="white" stroke="black" points="3053.51,-287.33 2970.45,-310.43 2887.38,-287.33 2887.46,-249.96 3053.44,-249.96 3053.51,-287.33"/>
<text text-anchor="middle" x="2970.45" y="-280.8" font-family="Times,serif" font-size="14.00">weightmax</text>
<text text-anchor="middle" x="2970.45" y="-265.8" font-family="Times,serif" font-size="14.00">int</text>
</g>
<!-- n0_place_5&#45;&gt;n1_port_2 -->
<g id="edge2" class="edge">
<title>n0_place_5&#45;&gt;n1_port_2</title>
<path fill="none" stroke="black" d="M237.78,-194.19C290.76,-165.58 427.26,-99 550.1,-99 550.1,-99 550.1,-99 2550.88,-99 2621.4,-99 2643.34,-81.28 2709.38,-106 2795.6,-138.28 2792.42,-187.78 2871.45,-235 2877.57,-238.66 2884.06,-242.16 2890.68,-245.48"/>
<polygon fill="black" stroke="black" points="2889.23,-248.67 2899.76,-249.89 2892.29,-242.37 2889.23,-248.67"/>
</g>
<!-- n8_port_0 -->
<g id="node68" class="node">
<title>n8_port_0</title>
<polygon fill="white" stroke="black" points="462.81,-504.33 379.74,-527.43 296.68,-504.33 296.75,-466.96 462.73,-466.96 462.81,-504.33"/>
<text text-anchor="middle" x="379.74" y="-497.8" font-family="Times,serif" font-size="14.00">weightmax</text>
<text text-anchor="middle" x="379.74" y="-482.8" font-family="Times,serif" font-size="14.00">int</text>
</g>
<!-- n0_place_5&#45;&gt;n8_port_0 -->
<g id="edge28" class="edge">
<title>n0_place_5&#45;&gt;n8_port_0</title>
<path fill="none" stroke="black" stroke-dasharray="5,2" d="M216.14,-233.95C219.52,-283.04 233.21,-387.84 288.71,-452 291.36,-455.07 294.29,-457.93 297.42,-460.59"/>
<polygon fill="black" stroke="black" points="295.48,-463.52 305.55,-466.81 299.73,-457.95 295.48,-463.52"/>
</g>
<!-- n0_place_4 -->
<g id="node19" class="node">
<title>n0_place_4</title>
<ellipse fill="white" stroke="black" cx="2279.65" cy="-227" rx="47.25" ry="26.74"/>
<text text-anchor="middle" x="2279.65" y="-230.8" font-family="Times,serif" font-size="14.00">ns</text>
<text text-anchor="middle" x="2279.65" y="-215.8" font-family="Times,serif" font-size="14.00">control</text>
</g>
<!-- n3_port_0 -->
<g id="node40" class="node">
<title>n3_port_0</title>
<polygon fill="white" stroke="black" points="2608.5,-215.33 2549.88,-238.43 2491.26,-215.33 2491.32,-177.96 2608.45,-177.96 2608.5,-215.33"/>
<text text-anchor="middle" x="2549.88" y="-208.8" font-family="Times,serif" font-size="14.00">ns</text>
<text text-anchor="middle" x="2549.88" y="-193.8" font-family="Times,serif" font-size="14.00">control</text>
</g>
<!-- n0_place_4&#45;&gt;n3_port_0 -->
<g id="edge10" class="edge">
<title>n0_place_4&#45;&gt;n3_port_0</title>
<path fill="none" stroke="black" d="M2326.76,-223.22C2369.27,-219.73 2432.91,-214.51 2481.18,-210.55"/>
<polygon fill="black" stroke="black" points="2481.56,-214.03 2491.24,-209.73 2480.98,-207.06 2481.56,-214.03"/>
</g>
<!-- n0_place_3 -->
<g id="node20" class="node">
<title>n0_place_3</title>
<ellipse fill="white" stroke="black" cx="2279.65" cy="-331" rx="82.96" ry="37.45"/>
<text text-anchor="middle" x="2279.65" y="-342.3" font-family="Times,serif" font-size="14.00">counter_total</text>
<text text-anchor="middle" x="2279.65" y="-327.3" font-family="Times,serif" font-size="14.00">unsigned long</text>
<text text-anchor="middle" x="2279.65" y="-312.3" font-family="Times,serif" font-size="14.00">0UL</text>
</g>
<!-- n2_port_1 -->
<g id="node35" class="node">
<title>n2_port_1</title>
<polygon fill="white" stroke="black" points="2651.91,-667.33 2549.88,-690.43 2447.86,-667.33 2447.95,-629.96 2651.81,-629.96 2651.91,-667.33"/>
<text text-anchor="middle" x="2549.88" y="-660.8" font-family="Times,serif" font-size="14.00">counter_total</text>
<text text-anchor="middle" x="2549.88" y="-645.8" font-family="Times,serif" font-size="14.00">unsigned long</text>
</g>
<!-- n0_place_3&#45;&gt;n2_port_1 -->
<g id="edge6" class="edge">
<title>n0_place_3&#45;&gt;n2_port_1</title>
<path fill="none" stroke="black" d="M2340.69,-356.47C2349.12,-362.41 2356.79,-369.53 2362.38,-378 2420.8,-466.53 2320.87,-534.89 2390.38,-615 2403.01,-629.56 2420.05,-639.35 2438.27,-645.88"/>
<polygon fill="black" stroke="black" points="2437.3,-649.25 2447.9,-649.01 2439.47,-642.59 2437.3,-649.25"/>
</g>
<!-- n3_port_1 -->
<g id="node41" class="node">
<title>n3_port_1</title>
<polygon fill="white" stroke="black" points="2651.91,-299.33 2549.88,-322.43 2447.86,-299.33 2447.95,-261.96 2651.81,-261.96 2651.91,-299.33"/>
<text text-anchor="middle" x="2549.88" y="-292.8" font-family="Times,serif" font-size="14.00">counter_total</text>
<text text-anchor="middle" x="2549.88" y="-277.8" font-family="Times,serif" font-size="14.00">unsigned long</text>
</g>
<!-- n0_place_3&#45;&gt;n3_port_1 -->
<g id="edge9" class="edge">
<title>n0_place_3&#45;&gt;n3_port_1</title>
<path fill="none" stroke="black" d="M2358.23,-318.85C2387.55,-314.26 2421.28,-308.98 2452.15,-304.15"/>
<polygon fill="black" stroke="black" points="2452.72,-307.6 2462.06,-302.6 2451.63,-300.68 2452.72,-307.6"/>
</g>
<!-- n0_place_1 -->
<g id="node22" class="node">
<title>n0_place_1</title>
<ellipse fill="white" stroke="black" cx="954.53" cy="-599" rx="60.21" ry="26.74"/>
<text text-anchor="middle" x="954.53" y="-602.8" font-family="Times,serif" font-size="14.00">d_vectors</text>
<text text-anchor="middle" x="954.53" y="-587.8" font-family="Times,serif" font-size="14.00">list</text>
</g>
<!-- n6_port_0 -->
<g id="node59" class="node">
<title>n6_port_0</title>
<polygon fill="white" stroke="black" points="1186.81,-609.33 1152.64,-632.43 1118.46,-609.33 1118.49,-571.96 1186.78,-571.96 1186.81,-609.33"/>
<text text-anchor="middle" x="1152.64" y="-602.8" font-family="Times,serif" font-size="14.00">v</text>
<text text-anchor="middle" x="1152.64" y="-587.8" font-family="Times,serif" font-size="14.00">list</text>
</g>
<!-- n0_place_1&#45;&gt;n6_port_0 -->
<g id="edge22" class="edge">
<title>n0_place_1&#45;&gt;n6_port_0</title>
<path fill="none" stroke="black" d="M1014.9,-599C1044.99,-599 1080.87,-599 1108.32,-599"/>
<polygon fill="black" stroke="black" points="1108.4,-602.5 1118.4,-599 1108.4,-595.5 1108.4,-602.5"/>
</g>
<!-- n5_port_2 -->
<g id="node53" class="node">
<title>n5_port_2</title>
<polygon fill="white" stroke="black" points="1660.9,-777.33 1626.73,-800.43 1592.55,-777.33 1592.59,-739.96 1660.87,-739.96 1660.9,-777.33"/>
<text text-anchor="middle" x="1626.73" y="-770.8" font-family="Times,serif" font-size="14.00">G</text>
<text text-anchor="middle" x="1626.73" y="-755.8" font-family="Times,serif" font-size="14.00">list</text>
</g>
<!-- n0_place_0&#45;&gt;n5_port_2 -->
<g id="edge18" class="edge">
<title>n0_place_0&#45;&gt;n5_port_2</title>
<path fill="none" stroke="black" stroke-dasharray="5,2" d="M1401.44,-786.48C1450.27,-782.24 1532,-775.14 1582.16,-770.78"/>
<polygon fill="black" stroke="black" points="1582.7,-774.25 1592.36,-769.9 1582.09,-767.28 1582.7,-774.25"/>
</g>
<!-- n5_port_1 -->
<g id="node52" class="node">
<title>n5_port_1</title>
<polygon fill="white" stroke="black" points="1678.37,-609.33 1626.73,-632.43 1575.09,-609.33 1575.14,-571.96 1678.32,-571.96 1678.37,-609.33"/>
<text text-anchor="middle" x="1626.73" y="-602.8" font-family="Times,serif" font-size="14.00">l</text>
<text text-anchor="middle" x="1626.73" y="-587.8" font-family="Times,serif" font-size="14.00">string</text>
</g>
<!-- n0_place_13&#45;&gt;n5_port_1 -->
<g id="edge17" class="edge">
<title>n0_place_13&#45;&gt;n5_port_1</title>
<path fill="none" stroke="black" stroke-dasharray="5,2" d="M1401.73,-604.08C1445.29,-603.09 1514.82,-601.51 1564.86,-600.38"/>
<polygon fill="black" stroke="black" points="1564.99,-603.88 1574.91,-600.15 1564.83,-596.88 1564.99,-603.88"/>
</g>
<!-- n0_place_14 -->
<g id="node25" class="node">
<title>n0_place_14</title>
<ellipse fill="white" stroke="black" cx="2279.65" cy="-424" rx="41.94" ry="37.45"/>
<text text-anchor="middle" x="2279.65" y="-435.3" font-family="Times,serif" font-size="14.00">sum</text>
<text text-anchor="middle" x="2279.65" y="-420.3" font-family="Times,serif" font-size="14.00">string</text>
<text text-anchor="middle" x="2279.65" y="-405.3" font-family="Times,serif" font-size="14.00">&quot; &quot;</text>
</g>
<!-- n2_port_2 -->
<g id="node36" class="node">
<title>n2_port_2</title>
<polygon fill="white" stroke="black" points="2609.25,-751.33 2549.88,-774.43 2490.51,-751.33 2490.57,-713.96 2609.2,-713.96 2609.25,-751.33"/>
<text text-anchor="middle" x="2549.88" y="-744.8" font-family="Times,serif" font-size="14.00">answer</text>
<text text-anchor="middle" x="2549.88" y="-729.8" font-family="Times,serif" font-size="14.00">string</text>
</g>
<!-- n0_place_14&#45;&gt;n2_port_2 -->
<g id="edge5" class="edge">
<title>n0_place_14&#45;&gt;n2_port_2</title>
<path fill="none" stroke="black" d="M2284.94,-461.65C2293.74,-521.03 2319.4,-636.1 2390.38,-699 2414.98,-720.8 2449.63,-731.47 2480.26,-736.63"/>
<polygon fill="black" stroke="black" points="2480.06,-740.14 2490.47,-738.18 2481.11,-733.22 2480.06,-740.14"/>
</g>
<!-- n4_port_2 -->
<g id="node46" class="node">
<title>n4_port_2</title>
<polygon fill="white" stroke="black" points="2110.29,-430.33 2058.66,-453.43 2007.02,-430.33 2007.07,-392.96 2110.25,-392.96 2110.29,-430.33"/>
<text text-anchor="middle" x="2058.66" y="-423.8" font-family="Times,serif" font-size="14.00">sum</text>
<text text-anchor="middle" x="2058.66" y="-408.8" font-family="Times,serif" font-size="14.00">string</text>
</g>
<!-- n0_place_14&#45;&gt;n4_port_2 -->
<g id="edge13" class="edge">
<title>n0_place_14&#45;&gt;n4_port_2</title>
<path fill="none" stroke="black" d="M2237.65,-423.25C2204.74,-422.65 2158.02,-421.8 2120.71,-421.12"/>
<polygon fill="black" stroke="black" points="2120.51,-417.61 2110.45,-420.93 2120.38,-424.61 2120.51,-417.61"/>
</g>
<!-- n0_place_15 -->
<g id="node26" class="node">
<title>n0_place_15</title>
<ellipse fill="white" stroke="black" cx="2790.42" cy="-467" rx="53.07" ry="26.74"/>
<text text-anchor="middle" x="2790.42" y="-470.8" font-family="Times,serif" font-size="14.00">fey_sum</text>
<text text-anchor="middle" x="2790.42" y="-455.8" font-family="Times,serif" font-size="14.00">string</text>
</g>
<!-- n1_port_0 -->
<g id="node29" class="node">
<title>n1_port_0</title>
<polygon fill="white" stroke="black" points="3029.82,-371.33 2970.45,-394.43 2911.08,-371.33 2911.14,-333.96 3029.76,-333.96 3029.82,-371.33"/>
<text text-anchor="middle" x="2970.45" y="-364.8" font-family="Times,serif" font-size="14.00">answer</text>
<text text-anchor="middle" x="2970.45" y="-349.8" font-family="Times,serif" font-size="14.00">string</text>
</g>
<!-- n0_place_15&#45;&gt;n1_port_0 -->
<g id="edge3" class="edge">
<title>n0_place_15&#45;&gt;n1_port_0</title>
<path fill="none" stroke="black" d="M2817.59,-443.63C2832.65,-430.9 2852.34,-415.46 2871.45,-404 2885.43,-395.61 2901.35,-387.92 2916.23,-381.44"/>
<polygon fill="black" stroke="black" points="2917.99,-384.49 2925.83,-377.35 2915.25,-378.05 2917.99,-384.49"/>
</g>
<!-- n5_port_3 -->
<g id="node54" class="node">
<title>n5_port_3</title>
<polygon fill="white" stroke="black" points="1678.37,-693.33 1626.73,-716.43 1575.09,-693.33 1575.14,-655.96 1678.32,-655.96 1678.37,-693.33"/>
<text text-anchor="middle" x="1626.73" y="-686.8" font-family="Times,serif" font-size="14.00">gg</text>
<text text-anchor="middle" x="1626.73" y="-671.8" font-family="Times,serif" font-size="14.00">string</text>
</g>
<!-- n0_place_16&#45;&gt;n5_port_3 -->
<g id="edge20" class="edge">
<title>n0_place_16&#45;&gt;n5_port_3</title>
<path fill="none" stroke="black" stroke-dasharray="5,2" d="M1401.73,-697.38C1445.29,-694.58 1514.82,-690.12 1564.86,-686.91"/>
<polygon fill="black" stroke="black" points="1565.15,-690.4 1574.91,-686.26 1564.71,-683.41 1565.15,-690.4"/>
</g>
<!-- n1_condition -->
<g id="node28" class="node">
<title>n1_condition</title>
<polygon fill="white" stroke="black" points="2912.45,-413 2912.45,-449 3028.45,-449 3028.45,-413 2912.45,-413"/>
<text text-anchor="middle" x="2970.45" y="-427.3" font-family="Times,serif" font-size="14.00">Quasimodular</text>
</g>
<!-- n1_port_1 -->
<g id="node31" class="node">
<title>n1_port_1</title>
<polygon fill="white" stroke="black" points="2911.08,-182.67 2970.45,-159.57 3029.82,-182.67 3029.76,-220.04 2911.14,-220.04 2911.08,-182.67"/>
<text text-anchor="middle" x="2970.45" y="-196.8" font-family="Times,serif" font-size="14.00">answer</text>
<text text-anchor="middle" x="2970.45" y="-181.8" font-family="Times,serif" font-size="14.00">string</text>
</g>
<!-- n1_port_1&#45;&gt;n0_place_2 -->
<g id="edge1" class="edge">
<title>n1_port_1&#45;&gt;n0_place_2</title>
<path fill="none" stroke="black" d="M3028.12,-181.87C3047.94,-177.97 3070.13,-173.62 3089.78,-169.75"/>
<polygon fill="black" stroke="black" points="3090.67,-173.15 3099.8,-167.79 3089.32,-166.28 3090.67,-173.15"/>
</g>
<!-- n1_modcall -->
<g id="node32" class="node">
<title>n1_modcall</title>
<polygon fill="white" stroke="black" points="3061.45,-142 2879.45,-142 2879.45,-106 3061.45,-106 3061.45,-142"/>
<text text-anchor="middle" x="2970.45" y="-120.3" font-family="Times,serif" font-size="14.00">feynman_module.Quasi</text>
</g>
<!-- n2_condition -->
<g id="node33" class="node">
<title>n2_condition</title>
<polygon fill="white" stroke="black" points="2398.38,-877 2398.38,-939 2701.38,-939 2701.38,-877 2398.38,-877"/>
<text text-anchor="middle" x="2549.88" y="-923.8" font-family="Times,serif" font-size="14.00">transition7</text>
<polyline fill="none" stroke="black" points="2398.38,-916 2701.38,-916 "/>
<text text-anchor="middle" x="2549.88" y="-900.8" font-family="Times,serif" font-size="14.00">((${counter_total} + 1UL) == ${total})</text>
</g>
<!-- n2_port_3 -->
<g id="node37" class="node">
<title>n2_port_3</title>
<polygon fill="white" stroke="black" points="2490.51,-562.67 2549.88,-539.57 2609.25,-562.67 2609.2,-600.04 2490.57,-600.04 2490.51,-562.67"/>
<text text-anchor="middle" x="2549.88" y="-576.8" font-family="Times,serif" font-size="14.00">answer</text>
<text text-anchor="middle" x="2549.88" y="-561.8" font-family="Times,serif" font-size="14.00">string</text>
</g>
<!-- n2_port_3&#45;&gt;n0_place_15 -->
<g id="edge4" class="edge">
<title>n2_port_3&#45;&gt;n0_place_15</title>
<path fill="none" stroke="black" d="M2609.45,-563.53C2640.3,-557.07 2678.11,-546.76 2709.38,-531 2726.65,-522.3 2743.68,-509.45 2757.56,-497.55"/>
<polygon fill="black" stroke="black" points="2760.16,-499.92 2765.35,-490.69 2755.53,-494.67 2760.16,-499.92"/>
</g>
<!-- n2_modcall -->
<g id="node38" class="node">
<title>n2_modcall</title>
<polygon fill="white" stroke="black" points="2636.38,-522 2463.38,-522 2463.38,-486 2636.38,-486 2636.38,-522"/>
<text text-anchor="middle" x="2549.88" y="-500.3" font-family="Times,serif" font-size="14.00">feynman_module.final</text>
</g>
<!-- n3_condition -->
<g id="node39" class="node">
<title>n3_condition</title>
<polygon fill="white" stroke="black" points="2502.38,-425 2502.38,-461 2597.38,-461 2597.38,-425 2502.38,-425"/>
<text text-anchor="middle" x="2549.88" y="-439.3" font-family="Times,serif" font-size="14.00">transition6</text>
</g>
<!-- n3_port_2 -->
<g id="node42" class="node">
<title>n3_port_2</title>
<polygon fill="white" stroke="black" points="2447.86,-362.67 2549.88,-339.57 2651.91,-362.67 2651.81,-400.04 2447.95,-400.04 2447.86,-362.67"/>
<text text-anchor="middle" x="2549.88" y="-376.8" font-family="Times,serif" font-size="14.00">counter_total</text>
<text text-anchor="middle" x="2549.88" y="-361.8" font-family="Times,serif" font-size="14.00">unsigned long</text>
</g>
<!-- n3_port_2&#45;&gt;n0_place_3 -->
<g id="edge8" class="edge">
<title>n3_port_2&#45;&gt;n0_place_3</title>
<path fill="none" stroke="black" d="M2462.06,-359.4C2432.03,-354.7 2398.38,-349.43 2368.29,-344.72"/>
<polygon fill="black" stroke="black" points="2368.66,-341.24 2358.23,-343.15 2367.57,-348.15 2368.66,-341.24"/>
</g>
<!-- n3_modcall -->
<g id="node43" class="node">
<title>n3_modcall</title>
<polygon fill="white" stroke="black" points="2650.38,-154 2449.38,-154 2449.38,-118 2650.38,-118 2650.38,-154"/>
<text text-anchor="middle" x="2549.88" y="-132.3" font-family="Times,serif" font-size="14.00">feynman_module.control1</text>
</g>
<!-- n4_condition -->
<g id="node44" class="node">
<title>n4_condition</title>
<polygon fill="white" stroke="black" points="2024.16,-556 2024.16,-592 2093.16,-592 2093.16,-556 2024.16,-556"/>
<text text-anchor="middle" x="2058.66" y="-570.3" font-family="Times,serif" font-size="14.00">Reduce</text>
</g>
<!-- n4_port_0 -->
<g id="node47" class="node">
<title>n4_port_0</title>
<polygon fill="white" stroke="black" points="2000.04,-241.67 2058.66,-218.57 2117.28,-241.67 2117.22,-279.04 2000.09,-279.04 2000.04,-241.67"/>
<text text-anchor="middle" x="2058.66" y="-255.8" font-family="Times,serif" font-size="14.00">ns</text>
<text text-anchor="middle" x="2058.66" y="-240.8" font-family="Times,serif" font-size="14.00">control</text>
</g>
<!-- n4_port_0&#45;&gt;n0_place_4 -->
<g id="edge12" class="edge">
<title>n4_port_0&#45;&gt;n0_place_4</title>
<path fill="none" stroke="black" d="M2117.48,-245.4C2150.07,-241.68 2190.58,-237.05 2222.84,-233.37"/>
<polygon fill="black" stroke="black" points="2223.46,-236.82 2233,-232.21 2222.67,-229.87 2223.46,-236.82"/>
</g>
<!-- n4_port_3 -->
<g id="node48" class="node">
<title>n4_port_3</title>
<polygon fill="white" stroke="black" points="2007.02,-325.67 2058.66,-302.57 2110.29,-325.67 2110.25,-363.04 2007.07,-363.04 2007.02,-325.67"/>
<text text-anchor="middle" x="2058.66" y="-339.8" font-family="Times,serif" font-size="14.00">sum</text>
<text text-anchor="middle" x="2058.66" y="-324.8" font-family="Times,serif" font-size="14.00">string</text>
</g>
<!-- n4_port_3&#45;&gt;n0_place_14 -->
<g id="edge11" class="edge">
<title>n4_port_3&#45;&gt;n0_place_14</title>
<path fill="none" stroke="black" d="M2110.45,-356.41C2146.95,-371.08 2195.8,-390.71 2231.45,-405.03"/>
<polygon fill="black" stroke="black" points="2230.55,-408.44 2241.13,-408.92 2233.16,-401.95 2230.55,-408.44"/>
</g>
<!-- n4_modcall -->
<g id="node49" class="node">
<title>n4_modcall</title>
<polygon fill="white" stroke="black" points="2144.66,-201 1972.66,-201 1972.66,-165 2144.66,-165 2144.66,-201"/>
<text text-anchor="middle" x="2058.66" y="-179.3" font-family="Times,serif" font-size="14.00">feynman_module.plus</text>
</g>
<!-- n5_condition -->
<g id="node50" class="node">
<title>n5_condition</title>
<polygon fill="white" stroke="black" points="1559.73,-903 1559.73,-939 1693.73,-939 1693.73,-903 1559.73,-903"/>
<text text-anchor="middle" x="1626.73" y="-917.3" font-family="Times,serif" font-size="14.00">feynman_degree</text>
</g>
<!-- n5_port_4 -->
<g id="node56" class="node">
<title>n5_port_4</title>
<polygon fill="white" stroke="black" points="1575.09,-420.67 1626.73,-397.57 1678.37,-420.67 1678.32,-458.04 1575.14,-458.04 1575.09,-420.67"/>
<text text-anchor="middle" x="1626.73" y="-434.8" font-family="Times,serif" font-size="14.00">s</text>
<text text-anchor="middle" x="1626.73" y="-419.8" font-family="Times,serif" font-size="14.00">string</text>
</g>
<!-- n5_port_4&#45;&gt;n0_place_10 -->
<g id="edge15" class="edge">
<title>n5_port_4&#45;&gt;n0_place_10</title>
<path fill="none" stroke="black" d="M1678.5,-434.54C1718.08,-437.31 1773.06,-441.14 1814.19,-444.01"/>
<polygon fill="black" stroke="black" points="1814.11,-447.52 1824.33,-444.72 1814.59,-440.53 1814.11,-447.52"/>
</g>
<!-- n5_modcall -->
<g id="node57" class="node">
<title>n5_modcall</title>
<polygon fill="white" stroke="black" points="1788.23,-380 1465.23,-380 1465.23,-344 1788.23,-344 1788.23,-380"/>
<text text-anchor="middle" x="1626.73" y="-358.3" font-family="Times,serif" font-size="14.00">feynman_module.feynman_integral_degree</text>
</g>
<!-- n6_condition -->
<g id="node58" class="node">
<title>n6_condition</title>
<polygon fill="white" stroke="black" points="1099.14,-651 1099.14,-687 1206.14,-687 1206.14,-651 1099.14,-651"/>
<text text-anchor="middle" x="1152.64" y="-665.3" font-family="Times,serif" font-size="14.00">Combination</text>
</g>
<!-- n6_port_1 -->
<g id="node60" class="node">
<title>n6_port_1</title>
<polygon fill="white" stroke="black" points="1116.96,-504.67 1152.64,-481.57 1188.31,-504.67 1188.27,-542.04 1117,-542.04 1116.96,-504.67"/>
<text text-anchor="middle" x="1152.64" y="-518.8" font-family="Times,serif" font-size="14.00">vec</text>
<text text-anchor="middle" x="1152.64" y="-503.8" font-family="Times,serif" font-size="14.00">list</text>
</g>
<!-- n6_port_1&#45;&gt;n0_place_7 -->
<g id="edge21" class="edge">
<title>n6_port_1&#45;&gt;n0_place_7</title>
<path fill="none" stroke="black" d="M1188.46,-513C1213.55,-513 1248.41,-513 1280.08,-513"/>
<path fill="none" stroke="transparent" d="M1188.46,-515C1213.55,-515 1248.41,-515 1280.08,-515"/>
<path fill="none" stroke="black" d="M1188.46,-517C1213.55,-517 1248.41,-517 1280.08,-517"/>
<polygon fill="black" stroke="black" points="1280.23,-518.5 1290.23,-515 1280.23,-511.5 1280.23,-518.5"/>
</g>
<!-- n6_modcall -->
<g id="node61" class="node">
<title>n6_modcall</title>
<polygon fill="white" stroke="black" points="1254.64,-464 1050.64,-464 1050.64,-428 1254.64,-428 1254.64,-464"/>
<text text-anchor="middle" x="1152.64" y="-442.3" font-family="Times,serif" font-size="14.00">feynman_module.partition</text>
</g>
<!-- n7_condition -->
<g id="node62" class="node">
<title>n7_condition</title>
<polygon fill="white" stroke="black" points="709.43,-819 709.43,-855 788.43,-855 788.43,-819 709.43,-819"/>
<text text-anchor="middle" x="748.93" y="-833.3" font-family="Times,serif" font-size="14.00">partition</text>
</g>
<!-- n7_port_2 -->
<g id="node65" class="node">
<title>n7_port_2</title>
<polygon fill="white" stroke="black" points="714.75,-588.67 748.93,-565.57 783.1,-588.67 783.07,-626.04 714.79,-626.04 714.75,-588.67"/>
<text text-anchor="middle" x="748.93" y="-602.8" font-family="Times,serif" font-size="14.00">v</text>
<text text-anchor="middle" x="748.93" y="-587.8" font-family="Times,serif" font-size="14.00">list</text>
</g>
<!-- n7_port_2&#45;&gt;n0_place_1 -->
<g id="edge23" class="edge">
<title>n7_port_2&#45;&gt;n0_place_1</title>
<path fill="none" stroke="black" d="M783.09,-597C810.26,-597 849.62,-597 883.68,-597"/>
<path fill="none" stroke="transparent" d="M783.09,-599C810.26,-599 849.62,-599 883.68,-599"/>
<path fill="none" stroke="black" d="M783.09,-601C810.26,-601 849.62,-601 883.68,-601"/>
<polygon fill="black" stroke="black" points="884.06,-602.5 894.06,-599 884.06,-595.5 884.06,-602.5"/>
</g>
<!-- n7_modcall -->
<g id="node66" class="node">
<title>n7_modcall</title>
<polygon fill="white" stroke="black" points="858.43,-548 639.43,-548 639.43,-512 858.43,-512 858.43,-548"/>
<text text-anchor="middle" x="748.93" y="-526.3" font-family="Times,serif" font-size="14.00">feynman_module.gen_block_</text>
</g>
<!-- n8_condition -->
<g id="node67" class="node">
<title>n8_condition</title>
<polygon fill="white" stroke="black" points="328.74,-630 328.74,-666 430.74,-666 430.74,-630 328.74,-630"/>
<text text-anchor="middle" x="379.74" y="-644.3" font-family="Times,serif" font-size="14.00">degrees_fey</text>
</g>
<!-- n8_port_2 -->
<g id="node70" class="node">
<title>n8_port_2</title>
<polygon fill="white" stroke="black" points="345.57,-399.67 379.74,-376.57 413.92,-399.67 413.89,-437.04 345.6,-437.04 345.57,-399.67"/>
<text text-anchor="middle" x="379.74" y="-413.8" font-family="Times,serif" font-size="14.00">v</text>
<text text-anchor="middle" x="379.74" y="-398.8" font-family="Times,serif" font-size="14.00">list</text>
</g>
<!-- n8_port_2&#45;&gt;n0_place_11 -->
<g id="edge26" class="edge">
<title>n8_port_2&#45;&gt;n0_place_11</title>
<path fill="none" stroke="black" d="M414.63,-419.59C432.64,-426.77 454.51,-437.09 471.99,-450.41 494.32,-467.56 514.4,-491.48 528.93,-511.08"/>
<path fill="none" stroke="transparent" d="M413.89,-421.45C431.79,-428.58 453.65,-438.9 470.78,-452 492.79,-468.84 512.87,-492.77 527.32,-512.27"/>
<path fill="none" stroke="black" d="M413.15,-423.3C430.93,-430.39 452.8,-440.71 469.56,-453.59 491.26,-470.13 511.34,-494.06 525.71,-513.46"/>
<polygon fill="black" stroke="black" points="524.65,-514.55 533.36,-520.6 530.32,-510.44 524.65,-514.55"/>
</g>
<!-- n8_modcall -->
<g id="node71" class="node">
<title>n8_modcall</title>
<polygon fill="white" stroke="black" points="462.74,-359 296.74,-359 296.74,-323 462.74,-323 462.74,-359"/>
<text text-anchor="middle" x="379.74" y="-337.3" font-family="Times,serif" font-size="14.00">feynman_module.init</text>
</g>
</g>
</svg>
