<?xml version="1.0" encoding="UTF-8" standalone="no"?>
<!DOCTYPE svg PUBLIC "-//W3C//DTD SVG 1.1//EN"
 "http://www.w3.org/Graphics/SVG/1.1/DTD/svg11.dtd">
<!-- Generated by graphviz version 2.43.0 (0)
 -->
<!-- Title: feynman_deg Pages: 1 -->
<svg width="3165pt" height="1054pt"
 viewBox="0.00 0.00 3164.61 1054.00" xmlns="http://www.w3.org/2000/svg" xmlns:xlink="http://www.w3.org/1999/xlink">
<g id="graph0" class="graph" transform="scale(1 1) rotate(0) translate(4 1050)">
<title>feynman_deg</title>
<polygon fill="white" stroke="transparent" points="-4,4 -4,-1050 3160.61,-1050 3160.61,4 -4,4"/>
<g id="clust1" class="cluster">
<title>cluster_0</title>
<polygon fill="dimgray" stroke="black" points="8,-8 8,-1038 3148.61,-1038 3148.61,-8 8,-8"/>
</g>
<g id="clust2" class="cluster">
<title>cluster_net_0</title>
<polygon fill="white" stroke="black" points="159.37,-90 159.37,-956 3140.61,-956 3140.61,-90 159.37,-90"/>
</g>
<g id="clust3" class="cluster">
<title>cluster_1</title>
<polygon fill="yellow" stroke="black" points="2810.45,-98 2810.45,-458 3008.45,-458 3008.45,-98 2810.45,-98"/>
</g>
<g id="clust4" class="cluster">
<title>cluster_2</title>
<polygon fill="yellow" stroke="black" points="2390.38,-478 2390.38,-948 2648.38,-948 2648.38,-478 2390.38,-478"/>
</g>
<g id="clust5" class="cluster">
<title>cluster_3</title>
<polygon fill="yellow" stroke="black" points="2409.12,-110 2409.12,-470 2629.64,-470 2629.64,-110 2409.12,-110"/>
</g>
<g id="clust6" class="cluster">
<title>cluster_4</title>
<polygon fill="yellow" stroke="black" points="1964.66,-269 1964.66,-713 2152.66,-713 2152.66,-269 1964.66,-269"/>
</g>
<g id="clust7" class="cluster">
<title>cluster_5</title>
<polygon fill="yellow" stroke="black" points="1457.23,-521 1457.23,-881 1796.23,-881 1796.23,-521 1457.23,-521"/>
</g>
<g id="clust8" class="cluster">
<title>cluster_6</title>
<polygon fill="yellow" stroke="black" points="1042.64,-567 1042.64,-843 1262.64,-843 1262.64,-567 1042.64,-567"/>
</g>
<g id="clust9" class="cluster">
<title>cluster_7</title>
<polygon fill="yellow" stroke="black" points="631.43,-588 631.43,-948 866.43,-948 866.43,-588 631.43,-588"/>
</g>
<g id="clust10" class="cluster">
<title>cluster_8</title>
<polygon fill="yellow" stroke="black" points="288.71,-252 288.71,-612 470.78,-612 470.78,-252 288.71,-252"/>
</g>
<!-- n0_condition -->
<g id="node1" class="node">
<title>n0_condition</title>
<polygon fill="white" stroke="black" points="18.19,-851 18.19,-887 129.19,-887 129.19,-851 18.19,-851"/>
<text text-anchor="middle" x="73.69" y="-865.3" font-family="Times,serif" font-size="14.00">feynman_deg</text>
</g>
<!-- n0_port_0 -->
<g id="node2" class="node">
<title>n0_port_0</title>
<polygon fill="white" stroke="black" points="131.56,-525.33 73.69,-548.43 15.81,-525.33 15.87,-487.96 131.5,-487.96 131.56,-525.33"/>
<text text-anchor="middle" x="73.69" y="-518.8" font-family="Times,serif" font-size="14.00">degree</text>
<text text-anchor="middle" x="73.69" y="-503.8" font-family="Times,serif" font-size="14.00">int</text>
</g>
<!-- n0_place_0 -->
<g id="node20" class="node">
<title>n0_place_0</title>
<ellipse fill="white" stroke="black" cx="214.04" cy="-515" rx="46.84" ry="26.74"/>
<text text-anchor="middle" x="214.04" y="-518.8" font-family="Times,serif" font-size="14.00">degree</text>
<text text-anchor="middle" x="214.04" y="-503.8" font-family="Times,serif" font-size="14.00">int</text>
</g>
<!-- n0_port_0&#45;&gt;n0_place_0 -->
<g id="edge26" class="edge">
<title>n0_port_0&#45;&gt;n0_place_0</title>
<path fill="none" stroke="black" stroke-dasharray="1,5" d="M131.76,-515C143.52,-515 155.76,-515 167.07,-515"/>
</g>
<!-- n0_port_1 -->
<g id="node3" class="node">
<title>n0_port_1</title>
<polygon fill="white" stroke="black" points="2160.68,-1007.33 2058.66,-1030.43 1956.63,-1007.33 1956.73,-969.96 2160.59,-969.96 2160.68,-1007.33"/>
<text text-anchor="middle" x="2058.66" y="-1000.8" font-family="Times,serif" font-size="14.00">total</text>
<text text-anchor="middle" x="2058.66" y="-985.8" font-family="Times,serif" font-size="14.00">unsigned long</text>
</g>
<!-- n0_place_4 -->
<g id="node16" class="node">
<title>n0_place_4</title>
<ellipse fill="white" stroke="black" cx="2279.65" cy="-873" rx="82.96" ry="26.74"/>
<text text-anchor="middle" x="2279.65" y="-876.8" font-family="Times,serif" font-size="14.00">total</text>
<text text-anchor="middle" x="2279.65" y="-861.8" font-family="Times,serif" font-size="14.00">unsigned long</text>
</g>
<!-- n0_port_1&#45;&gt;n0_place_4 -->
<g id="edge27" class="edge">
<title>n0_port_1&#45;&gt;n0_place_4</title>
<path fill="none" stroke="black" stroke-dasharray="1,5" d="M2107.45,-969.94C2146.33,-947.92 2200.64,-917.17 2237.59,-896.25"/>
</g>
<!-- n0_port_2 -->
<g id="node4" class="node">
<title>n0_port_2</title>
<polygon fill="white" stroke="black" points="125.32,-217.33 73.69,-240.43 22.05,-217.33 22.1,-179.96 125.27,-179.96 125.32,-217.33"/>
<text text-anchor="middle" x="73.69" y="-210.8" font-family="Times,serif" font-size="14.00">genus</text>
<text text-anchor="middle" x="73.69" y="-195.8" font-family="Times,serif" font-size="14.00">int</text>
</g>
<!-- n0_place_13 -->
<g id="node21" class="node">
<title>n0_place_13</title>
<ellipse fill="white" stroke="black" cx="214.04" cy="-207" rx="41.94" ry="26.74"/>
<text text-anchor="middle" x="214.04" y="-210.8" font-family="Times,serif" font-size="14.00">genus</text>
<text text-anchor="middle" x="214.04" y="-195.8" font-family="Times,serif" font-size="14.00">int</text>
</g>
<!-- n0_port_2&#45;&gt;n0_place_13 -->
<g id="edge28" class="edge">
<title>n0_port_2&#45;&gt;n0_place_13</title>
<path fill="none" stroke="black" stroke-dasharray="1,5" d="M125.42,-207C140.84,-207 157.59,-207 172.27,-207"/>
</g>
<!-- n0_port_3 -->
<g id="node5" class="node">
<title>n0_port_3</title>
<polygon fill="white" stroke="black" points="411.17,-1007.33 379.74,-1030.43 348.31,-1007.33 348.34,-969.96 411.14,-969.96 411.17,-1007.33"/>
<text text-anchor="middle" x="379.74" y="-1000.8" font-family="Times,serif" font-size="14.00">N</text>
<text text-anchor="middle" x="379.74" y="-985.8" font-family="Times,serif" font-size="14.00">int</text>
</g>
<!-- n0_place_2 -->
<g id="node18" class="node">
<title>n0_place_2</title>
<ellipse fill="white" stroke="black" cx="551.1" cy="-886" rx="27" ry="26.74"/>
<text text-anchor="middle" x="551.1" y="-889.8" font-family="Times,serif" font-size="14.00">N</text>
<text text-anchor="middle" x="551.1" y="-874.8" font-family="Times,serif" font-size="14.00">int</text>
</g>
<!-- n0_port_3&#45;&gt;n0_place_2 -->
<g id="edge29" class="edge">
<title>n0_port_3&#45;&gt;n0_place_2</title>
<path fill="none" stroke="black" stroke-dasharray="1,5" d="M411.41,-976.9C445.06,-954.85 498.24,-919.99 528.02,-900.47"/>
</g>
<!-- n0_port_4 -->
<g id="node6" class="node">
<title>n0_port_4</title>
<polygon fill="white" stroke="black" points="1204.27,-1007.33 1152.64,-1030.43 1101,-1007.33 1101.05,-969.96 1204.22,-969.96 1204.27,-1007.33"/>
<text text-anchor="middle" x="1152.64" y="-1000.8" font-family="Times,serif" font-size="14.00">graph</text>
<text text-anchor="middle" x="1152.64" y="-985.8" font-family="Times,serif" font-size="14.00">list</text>
</g>
<!-- n0_place_9 -->
<g id="node11" class="node">
<title>n0_place_9</title>
<ellipse fill="white" stroke="black" cx="1359.93" cy="-852" rx="41.94" ry="26.74"/>
<text text-anchor="middle" x="1359.93" y="-855.8" font-family="Times,serif" font-size="14.00">graph</text>
<text text-anchor="middle" x="1359.93" y="-840.8" font-family="Times,serif" font-size="14.00">list</text>
</g>
<!-- n0_port_4&#45;&gt;n0_place_9 -->
<g id="edge30" class="edge">
<title>n0_port_4&#45;&gt;n0_place_9</title>
<path fill="none" stroke="black" stroke-dasharray="1,5" d="M1192.25,-969.73C1232.67,-941.18 1295.15,-897.05 1331.03,-871.71"/>
</g>
<!-- n0_port_5 -->
<g id="node7" class="node">
<title>n0_port_5</title>
<polygon fill="white" stroke="black" points="2850.08,-38.67 2909.45,-15.57 2968.82,-38.67 2968.76,-76.04 2850.14,-76.04 2850.08,-38.67"/>
<text text-anchor="middle" x="2909.45" y="-52.8" font-family="Times,serif" font-size="14.00">answer</text>
<text text-anchor="middle" x="2909.45" y="-37.8" font-family="Times,serif" font-size="14.00">string</text>
</g>
<!-- n0_place_6 -->
<g id="node14" class="node">
<title>n0_place_6</title>
<ellipse fill="white" stroke="black" cx="3084.53" cy="-159" rx="48.17" ry="26.74"/>
<text text-anchor="middle" x="3084.53" y="-162.8" font-family="Times,serif" font-size="14.00">answer</text>
<text text-anchor="middle" x="3084.53" y="-147.8" font-family="Times,serif" font-size="14.00">string</text>
</g>
<!-- n0_port_5&#45;&gt;n0_place_6 -->
<g id="edge31" class="edge">
<title>n0_port_5&#45;&gt;n0_place_6</title>
<path fill="none" stroke="black" stroke-dasharray="1,5" d="M2968.89,-72.55C2982.28,-78.83 2996.17,-86.1 3008.45,-94 3027.15,-106.04 3046.07,-122.45 3060.24,-135.77"/>
</g>
<!-- n0_place_12 -->
<g id="node8" class="node">
<title>n0_place_12</title>
<ellipse fill="white" stroke="black" cx="2279.65" cy="-532" rx="41.94" ry="37.45"/>
<text text-anchor="middle" x="2279.65" y="-543.3" font-family="Times,serif" font-size="14.00">sum</text>
<text text-anchor="middle" x="2279.65" y="-528.3" font-family="Times,serif" font-size="14.00">string</text>
<text text-anchor="middle" x="2279.65" y="-513.3" font-family="Times,serif" font-size="14.00">&quot; &quot;</text>
</g>
<!-- n2_port_2 -->
<g id="node30" class="node">
<title>n2_port_2</title>
<polygon fill="white" stroke="black" points="2578.75,-751.33 2519.38,-774.43 2460.01,-751.33 2460.07,-713.96 2578.7,-713.96 2578.75,-751.33"/>
<text text-anchor="middle" x="2519.38" y="-744.8" font-family="Times,serif" font-size="14.00">answer</text>
<text text-anchor="middle" x="2519.38" y="-729.8" font-family="Times,serif" font-size="14.00">string</text>
</g>
<!-- n0_place_12&#45;&gt;n2_port_2 -->
<g id="edge5" class="edge">
<title>n0_place_12&#45;&gt;n2_port_2</title>
<path fill="none" stroke="black" d="M2295.16,-567.12C2312.48,-604.89 2344.93,-664.21 2390.38,-699 2407.78,-712.31 2429.58,-721.51 2450.23,-727.81"/>
<polygon fill="black" stroke="black" points="2449.36,-731.21 2459.94,-730.6 2451.29,-724.48 2449.36,-731.21"/>
</g>
<!-- n4_port_2 -->
<g id="node40" class="node">
<title>n4_port_2</title>
<polygon fill="white" stroke="black" points="2110.29,-542.33 2058.66,-565.43 2007.02,-542.33 2007.07,-504.96 2110.25,-504.96 2110.29,-542.33"/>
<text text-anchor="middle" x="2058.66" y="-535.8" font-family="Times,serif" font-size="14.00">sum</text>
<text text-anchor="middle" x="2058.66" y="-520.8" font-family="Times,serif" font-size="14.00">string</text>
</g>
<!-- n0_place_12&#45;&gt;n4_port_2 -->
<g id="edge13" class="edge">
<title>n0_place_12&#45;&gt;n4_port_2</title>
<path fill="none" stroke="black" d="M2237.65,-532C2204.74,-532 2158.02,-532 2120.71,-532"/>
<polygon fill="black" stroke="black" points="2120.45,-528.5 2110.45,-532 2120.45,-535.5 2120.45,-528.5"/>
</g>
<!-- n0_place_11 -->
<g id="node9" class="node">
<title>n0_place_11</title>
<ellipse fill="white" stroke="black" cx="2729.42" cy="-467" rx="53.07" ry="26.74"/>
<text text-anchor="middle" x="2729.42" y="-470.8" font-family="Times,serif" font-size="14.00">fey_sum</text>
<text text-anchor="middle" x="2729.42" y="-455.8" font-family="Times,serif" font-size="14.00">string</text>
</g>
<!-- n1_port_0 -->
<g id="node23" class="node">
<title>n1_port_0</title>
<polygon fill="white" stroke="black" points="2968.82,-371.33 2909.45,-394.43 2850.08,-371.33 2850.14,-333.96 2968.76,-333.96 2968.82,-371.33"/>
<text text-anchor="middle" x="2909.45" y="-364.8" font-family="Times,serif" font-size="14.00">answer</text>
<text text-anchor="middle" x="2909.45" y="-349.8" font-family="Times,serif" font-size="14.00">string</text>
</g>
<!-- n0_place_11&#45;&gt;n1_port_0 -->
<g id="edge3" class="edge">
<title>n0_place_11&#45;&gt;n1_port_0</title>
<path fill="none" stroke="black" d="M2756.59,-443.63C2771.65,-430.9 2791.34,-415.46 2810.45,-404 2824.43,-395.61 2840.35,-387.92 2855.23,-381.44"/>
<polygon fill="black" stroke="black" points="2856.99,-384.49 2864.83,-377.35 2854.25,-378.05 2856.99,-384.49"/>
</g>
<!-- n0_place_10 -->
<g id="node10" class="node">
<title>n0_place_10</title>
<ellipse fill="white" stroke="black" cx="2279.65" cy="-248" rx="47.25" ry="26.74"/>
<text text-anchor="middle" x="2279.65" y="-251.8" font-family="Times,serif" font-size="14.00">ns</text>
<text text-anchor="middle" x="2279.65" y="-236.8" font-family="Times,serif" font-size="14.00">control</text>
</g>
<!-- n3_port_0 -->
<g id="node34" class="node">
<title>n3_port_0</title>
<polygon fill="white" stroke="black" points="2578,-215.33 2519.38,-238.43 2460.76,-215.33 2460.82,-177.96 2577.95,-177.96 2578,-215.33"/>
<text text-anchor="middle" x="2519.38" y="-208.8" font-family="Times,serif" font-size="14.00">ns</text>
<text text-anchor="middle" x="2519.38" y="-193.8" font-family="Times,serif" font-size="14.00">control</text>
</g>
<!-- n0_place_10&#45;&gt;n3_port_0 -->
<g id="edge10" class="edge">
<title>n0_place_10&#45;&gt;n3_port_0</title>
<path fill="none" stroke="black" d="M2325.09,-239.96C2360.4,-233.58 2410.37,-224.54 2450.65,-217.25"/>
<polygon fill="black" stroke="black" points="2451.46,-220.66 2460.67,-215.44 2450.21,-213.77 2451.46,-220.66"/>
</g>
<!-- n5_port_1 -->
<g id="node46" class="node">
<title>n5_port_1</title>
<polygon fill="white" stroke="black" points="1660.9,-794.33 1626.73,-817.43 1592.55,-794.33 1592.59,-756.96 1660.87,-756.96 1660.9,-794.33"/>
<text text-anchor="middle" x="1626.73" y="-787.8" font-family="Times,serif" font-size="14.00">G</text>
<text text-anchor="middle" x="1626.73" y="-772.8" font-family="Times,serif" font-size="14.00">list</text>
</g>
<!-- n0_place_9&#45;&gt;n5_port_1 -->
<g id="edge17" class="edge">
<title>n0_place_9&#45;&gt;n5_port_1</title>
<path fill="none" stroke="black" stroke-dasharray="5,2" d="M1398.88,-842.11C1416.61,-837.5 1437.99,-831.95 1457.23,-827 1499.76,-816.05 1548.35,-803.66 1582.39,-795.01"/>
<polygon fill="black" stroke="black" points="1583.64,-798.3 1592.47,-792.44 1581.91,-791.52 1583.64,-798.3"/>
</g>
<!-- n0_place_8 -->
<g id="node12" class="node">
<title>n0_place_8</title>
<ellipse fill="white" stroke="black" cx="2279.65" cy="-373" rx="82.96" ry="37.45"/>
<text text-anchor="middle" x="2279.65" y="-384.3" font-family="Times,serif" font-size="14.00">counter_total</text>
<text text-anchor="middle" x="2279.65" y="-369.3" font-family="Times,serif" font-size="14.00">unsigned long</text>
<text text-anchor="middle" x="2279.65" y="-354.3" font-family="Times,serif" font-size="14.00">0UL</text>
</g>
<!-- n2_port_1 -->
<g id="node29" class="node">
<title>n2_port_1</title>
<polygon fill="white" stroke="black" points="2621.41,-667.33 2519.38,-690.43 2417.36,-667.33 2417.45,-629.96 2621.31,-629.96 2621.41,-667.33"/>
<text text-anchor="middle" x="2519.38" y="-660.8" font-family="Times,serif" font-size="14.00">counter_total</text>
<text text-anchor="middle" x="2519.38" y="-645.8" font-family="Times,serif" font-size="14.00">unsigned long</text>
</g>
<!-- n0_place_8&#45;&gt;n2_port_1 -->
<g id="edge6" class="edge">
<title>n0_place_8&#45;&gt;n2_port_1</title>
<path fill="none" stroke="black" d="M2311.64,-407.78C2328.99,-429.01 2349.65,-457.48 2362.38,-486 2386.3,-539.57 2351.09,-571.43 2390.38,-615 2395.72,-620.92 2401.91,-626.01 2408.63,-630.39"/>
<polygon fill="black" stroke="black" points="2407,-633.49 2417.4,-635.56 2410.56,-627.46 2407,-633.49"/>
</g>
<!-- n3_port_1 -->
<g id="node35" class="node">
<title>n3_port_1</title>
<polygon fill="white" stroke="black" points="2621.41,-299.33 2519.38,-322.43 2417.36,-299.33 2417.45,-261.96 2621.31,-261.96 2621.41,-299.33"/>
<text text-anchor="middle" x="2519.38" y="-292.8" font-family="Times,serif" font-size="14.00">counter_total</text>
<text text-anchor="middle" x="2519.38" y="-277.8" font-family="Times,serif" font-size="14.00">unsigned long</text>
</g>
<!-- n0_place_8&#45;&gt;n3_port_1 -->
<g id="edge9" class="edge">
<title>n0_place_8&#45;&gt;n3_port_1</title>
<path fill="none" stroke="black" d="M2342.84,-348.6C2358.32,-342.69 2374.91,-336.5 2390.38,-331 2408.87,-324.43 2428.98,-317.66 2447.67,-311.52"/>
<polygon fill="black" stroke="black" points="2448.88,-314.81 2457.3,-308.38 2446.71,-308.16 2448.88,-314.81"/>
</g>
<!-- n0_place_7 -->
<g id="node13" class="node">
<title>n0_place_7</title>
<ellipse fill="white" stroke="black" cx="954.53" cy="-725" rx="60.21" ry="26.74"/>
<text text-anchor="middle" x="954.53" y="-728.8" font-family="Times,serif" font-size="14.00">d_vectors</text>
<text text-anchor="middle" x="954.53" y="-713.8" font-family="Times,serif" font-size="14.00">list</text>
</g>
<!-- n6_port_0 -->
<g id="node50" class="node">
<title>n6_port_0</title>
<polygon fill="white" stroke="black" points="1186.81,-756.33 1152.64,-779.43 1118.46,-756.33 1118.49,-718.96 1186.78,-718.96 1186.81,-756.33"/>
<text text-anchor="middle" x="1152.64" y="-749.8" font-family="Times,serif" font-size="14.00">v</text>
<text text-anchor="middle" x="1152.64" y="-734.8" font-family="Times,serif" font-size="14.00">list</text>
</g>
<!-- n0_place_7&#45;&gt;n6_port_0 -->
<g id="edge19" class="edge">
<title>n0_place_7&#45;&gt;n6_port_0</title>
<path fill="none" stroke="black" d="M1013.04,-731.16C1043.41,-734.41 1080.07,-738.34 1108.06,-741.33"/>
<polygon fill="black" stroke="black" points="1108.01,-744.85 1118.33,-742.43 1108.76,-737.89 1108.01,-744.85"/>
</g>
<!-- n0_place_5 -->
<g id="node15" class="node">
<title>n0_place_5</title>
<ellipse fill="white" stroke="black" cx="551.1" cy="-557" rx="52.15" ry="26.74"/>
<text text-anchor="middle" x="551.1" y="-560.8" font-family="Times,serif" font-size="14.00">degrees</text>
<text text-anchor="middle" x="551.1" y="-545.8" font-family="Times,serif" font-size="14.00">int</text>
</g>
<!-- n7_port_0 -->
<g id="node54" class="node">
<title>n7_port_0</title>
<polygon fill="white" stroke="black" points="780.36,-777.33 748.93,-800.43 717.5,-777.33 717.53,-739.96 780.33,-739.96 780.36,-777.33"/>
<text text-anchor="middle" x="748.93" y="-770.8" font-family="Times,serif" font-size="14.00">i</text>
<text text-anchor="middle" x="748.93" y="-755.8" font-family="Times,serif" font-size="14.00">int</text>
</g>
<!-- n0_place_5&#45;&gt;n7_port_0 -->
<g id="edge21" class="edge">
<title>n0_place_5&#45;&gt;n7_port_0</title>
<path fill="none" stroke="black" d="M557.95,-583.84C567.31,-620.62 589.07,-686.49 631.43,-725 652.45,-744.11 682.8,-754.68 707.26,-760.44"/>
<polygon fill="black" stroke="black" points="706.82,-763.92 717.33,-762.62 708.3,-757.08 706.82,-763.92"/>
</g>
<!-- n2_port_0 -->
<g id="node28" class="node">
<title>n2_port_0</title>
<polygon fill="white" stroke="black" points="2621.41,-835.33 2519.38,-858.43 2417.36,-835.33 2417.45,-797.96 2621.31,-797.96 2621.41,-835.33"/>
<text text-anchor="middle" x="2519.38" y="-828.8" font-family="Times,serif" font-size="14.00">total</text>
<text text-anchor="middle" x="2519.38" y="-813.8" font-family="Times,serif" font-size="14.00">unsigned long</text>
</g>
<!-- n0_place_4&#45;&gt;n2_port_0 -->
<g id="edge7" class="edge">
<title>n0_place_4&#45;&gt;n2_port_0</title>
<path fill="none" stroke="black" stroke-dasharray="5,2" d="M2350.37,-858.92C2375.52,-853.85 2404.23,-848.05 2430.72,-842.7"/>
<polygon fill="black" stroke="black" points="2431.64,-846.09 2440.75,-840.68 2430.25,-839.22 2431.64,-846.09"/>
</g>
<!-- n0_place_3 -->
<g id="node17" class="node">
<title>n0_place_3</title>
<ellipse fill="white" stroke="black" cx="1872.31" cy="-616" rx="48.17" ry="26.74"/>
<text text-anchor="middle" x="1872.31" y="-619.8" font-family="Times,serif" font-size="14.00">fey_out</text>
<text text-anchor="middle" x="1872.31" y="-604.8" font-family="Times,serif" font-size="14.00">string</text>
</g>
<!-- n4_port_1 -->
<g id="node39" class="node">
<title>n4_port_1</title>
<polygon fill="white" stroke="black" points="2110.29,-626.33 2058.66,-649.43 2007.02,-626.33 2007.07,-588.96 2110.25,-588.96 2110.29,-626.33"/>
<text text-anchor="middle" x="2058.66" y="-619.8" font-family="Times,serif" font-size="14.00">s</text>
<text text-anchor="middle" x="2058.66" y="-604.8" font-family="Times,serif" font-size="14.00">string</text>
</g>
<!-- n0_place_3&#45;&gt;n4_port_1 -->
<g id="edge14" class="edge">
<title>n0_place_3&#45;&gt;n4_port_1</title>
<path fill="none" stroke="black" d="M1920.79,-616C1943.95,-616 1972.07,-616 1996.79,-616"/>
<polygon fill="black" stroke="black" points="1996.79,-619.5 2006.79,-616 1996.79,-612.5 1996.79,-619.5"/>
</g>
<!-- n7_port_1 -->
<g id="node55" class="node">
<title>n7_port_1</title>
<polygon fill="white" stroke="black" points="780.36,-861.33 748.93,-884.43 717.5,-861.33 717.53,-823.96 780.33,-823.96 780.36,-861.33"/>
<text text-anchor="middle" x="748.93" y="-854.8" font-family="Times,serif" font-size="14.00">n</text>
<text text-anchor="middle" x="748.93" y="-839.8" font-family="Times,serif" font-size="14.00">int</text>
</g>
<!-- n0_place_2&#45;&gt;n7_port_1 -->
<g id="edge22" class="edge">
<title>n0_place_2&#45;&gt;n7_port_1</title>
<path fill="none" stroke="black" stroke-dasharray="5,2" d="M578.11,-881.35C611.15,-875.45 668.55,-865.19 707.37,-858.25"/>
<polygon fill="black" stroke="black" points="708.07,-861.68 717.3,-856.47 706.84,-854.79 708.07,-861.68"/>
</g>
<!-- n0_place_1 -->
<g id="node19" class="node">
<title>n0_place_1</title>
<ellipse fill="white" stroke="black" cx="1359.93" cy="-683" rx="69.09" ry="26.74"/>
<text text-anchor="middle" x="1359.93" y="-686.8" font-family="Times,serif" font-size="14.00">branchtype</text>
<text text-anchor="middle" x="1359.93" y="-671.8" font-family="Times,serif" font-size="14.00">list</text>
</g>
<!-- n5_port_0 -->
<g id="node45" class="node">
<title>n5_port_0</title>
<polygon fill="white" stroke="black" points="1660.9,-710.33 1626.73,-733.43 1592.55,-710.33 1592.59,-672.96 1660.87,-672.96 1660.9,-710.33"/>
<text text-anchor="middle" x="1626.73" y="-703.8" font-family="Times,serif" font-size="14.00">a</text>
<text text-anchor="middle" x="1626.73" y="-688.8" font-family="Times,serif" font-size="14.00">list</text>
</g>
<!-- n0_place_1&#45;&gt;n5_port_0 -->
<g id="edge16" class="edge">
<title>n0_place_1&#45;&gt;n5_port_0</title>
<path fill="none" stroke="black" d="M1428.44,-687.33C1476.89,-690.44 1540.74,-694.54 1582.5,-697.22"/>
<polygon fill="black" stroke="black" points="1582.41,-700.73 1592.61,-697.87 1582.86,-693.74 1582.41,-700.73"/>
</g>
<!-- n8_port_1 -->
<g id="node60" class="node">
<title>n8_port_1</title>
<polygon fill="white" stroke="black" points="411.17,-525.33 379.74,-548.43 348.31,-525.33 348.34,-487.96 411.14,-487.96 411.17,-525.33"/>
<text text-anchor="middle" x="379.74" y="-518.8" font-family="Times,serif" font-size="14.00">d</text>
<text text-anchor="middle" x="379.74" y="-503.8" font-family="Times,serif" font-size="14.00">int</text>
</g>
<!-- n0_place_0&#45;&gt;n8_port_1 -->
<g id="edge24" class="edge">
<title>n0_place_0&#45;&gt;n8_port_1</title>
<path fill="none" stroke="black" d="M261.08,-515C285.27,-515 314.66,-515 338.02,-515"/>
<polygon fill="black" stroke="black" points="338.28,-518.5 348.28,-515 338.28,-511.5 338.28,-518.5"/>
</g>
<!-- n1_port_2 -->
<g id="node24" class="node">
<title>n1_port_2</title>
<polygon fill="white" stroke="black" points="2992.51,-287.33 2909.45,-310.43 2826.38,-287.33 2826.46,-249.96 2992.44,-249.96 2992.51,-287.33"/>
<text text-anchor="middle" x="2909.45" y="-280.8" font-family="Times,serif" font-size="14.00">weightmax</text>
<text text-anchor="middle" x="2909.45" y="-265.8" font-family="Times,serif" font-size="14.00">int</text>
</g>
<!-- n0_place_13&#45;&gt;n1_port_2 -->
<g id="edge2" class="edge">
<title>n0_place_13&#45;&gt;n1_port_2</title>
<path fill="none" stroke="black" d="M246.3,-189.65C304.31,-159.12 433.37,-99 550.1,-99 550.1,-99 550.1,-99 2520.38,-99 2577.36,-99 2595.13,-85.75 2648.38,-106 2734.43,-138.73 2731.42,-187.78 2810.45,-235 2816.57,-238.66 2823.06,-242.16 2829.68,-245.48"/>
<polygon fill="black" stroke="black" points="2828.23,-248.67 2838.76,-249.89 2831.29,-242.37 2828.23,-248.67"/>
</g>
<!-- n8_port_0 -->
<g id="node59" class="node">
<title>n8_port_0</title>
<polygon fill="white" stroke="black" points="462.81,-441.33 379.74,-464.43 296.68,-441.33 296.75,-403.96 462.73,-403.96 462.81,-441.33"/>
<text text-anchor="middle" x="379.74" y="-434.8" font-family="Times,serif" font-size="14.00">weightmax</text>
<text text-anchor="middle" x="379.74" y="-419.8" font-family="Times,serif" font-size="14.00">int</text>
</g>
<!-- n0_place_13&#45;&gt;n8_port_0 -->
<g id="edge25" class="edge">
<title>n0_place_13&#45;&gt;n8_port_0</title>
<path fill="none" stroke="black" d="M219.49,-233.83C227.21,-272.6 246.46,-344.5 288.71,-389 291.8,-392.25 295.19,-395.28 298.79,-398.09"/>
<polygon fill="black" stroke="black" points="296.79,-400.96 306.97,-403.91 300.85,-395.26 296.79,-400.96"/>
</g>
<!-- n1_condition -->
<g id="node22" class="node">
<title>n1_condition</title>
<polygon fill="white" stroke="black" points="2851.45,-413 2851.45,-449 2967.45,-449 2967.45,-413 2851.45,-413"/>
<text text-anchor="middle" x="2909.45" y="-427.3" font-family="Times,serif" font-size="14.00">Quasimodular</text>
</g>
<!-- n1_port_1 -->
<g id="node25" class="node">
<title>n1_port_1</title>
<polygon fill="white" stroke="black" points="2850.08,-182.67 2909.45,-159.57 2968.82,-182.67 2968.76,-220.04 2850.14,-220.04 2850.08,-182.67"/>
<text text-anchor="middle" x="2909.45" y="-196.8" font-family="Times,serif" font-size="14.00">answer</text>
<text text-anchor="middle" x="2909.45" y="-181.8" font-family="Times,serif" font-size="14.00">string</text>
</g>
<!-- n1_port_1&#45;&gt;n0_place_6 -->
<g id="edge1" class="edge">
<title>n1_port_1&#45;&gt;n0_place_6</title>
<path fill="none" stroke="black" d="M2967.12,-181.87C2986.94,-177.97 3009.13,-173.62 3028.78,-169.75"/>
<polygon fill="black" stroke="black" points="3029.67,-173.15 3038.8,-167.79 3028.32,-166.28 3029.67,-173.15"/>
</g>
<!-- n1_modcall -->
<g id="node26" class="node">
<title>n1_modcall</title>
<polygon fill="white" stroke="black" points="3000.45,-142 2818.45,-142 2818.45,-106 3000.45,-106 3000.45,-142"/>
<text text-anchor="middle" x="2909.45" y="-120.3" font-family="Times,serif" font-size="14.00">feynman_module.Quasi</text>
</g>
<!-- n2_condition -->
<g id="node27" class="node">
<title>n2_condition</title>
<polygon fill="white" stroke="black" points="2398.38,-877 2398.38,-939 2640.38,-939 2640.38,-877 2398.38,-877"/>
<text text-anchor="middle" x="2519.38" y="-923.8" font-family="Times,serif" font-size="14.00">transition7</text>
<polyline fill="none" stroke="black" points="2398.38,-916 2640.38,-916 "/>
<text text-anchor="middle" x="2519.38" y="-900.8" font-family="Times,serif" font-size="14.00">(${counter_total} == ${total})</text>
</g>
<!-- n2_port_3 -->
<g id="node31" class="node">
<title>n2_port_3</title>
<polygon fill="white" stroke="black" points="2460.01,-562.67 2519.38,-539.57 2578.75,-562.67 2578.7,-600.04 2460.07,-600.04 2460.01,-562.67"/>
<text text-anchor="middle" x="2519.38" y="-576.8" font-family="Times,serif" font-size="14.00">answer</text>
<text text-anchor="middle" x="2519.38" y="-561.8" font-family="Times,serif" font-size="14.00">string</text>
</g>
<!-- n2_port_3&#45;&gt;n0_place_11 -->
<g id="edge4" class="edge">
<title>n2_port_3&#45;&gt;n0_place_11</title>
<path fill="none" stroke="black" d="M2572.88,-560.37C2596.74,-553.49 2624.83,-543.74 2648.38,-531 2665.26,-521.87 2682.12,-509.08 2695.98,-497.33"/>
<polygon fill="black" stroke="black" points="2698.51,-499.76 2703.77,-490.56 2693.93,-494.47 2698.51,-499.76"/>
</g>
<!-- n2_modcall -->
<g id="node32" class="node">
<title>n2_modcall</title>
<polygon fill="white" stroke="black" points="2605.88,-522 2432.88,-522 2432.88,-486 2605.88,-486 2605.88,-522"/>
<text text-anchor="middle" x="2519.38" y="-500.3" font-family="Times,serif" font-size="14.00">feynman_module.final</text>
</g>
<!-- n3_condition -->
<g id="node33" class="node">
<title>n3_condition</title>
<polygon fill="white" stroke="black" points="2471.88,-425 2471.88,-461 2566.88,-461 2566.88,-425 2471.88,-425"/>
<text text-anchor="middle" x="2519.38" y="-439.3" font-family="Times,serif" font-size="14.00">transition6</text>
</g>
<!-- n3_port_2 -->
<g id="node36" class="node">
<title>n3_port_2</title>
<polygon fill="white" stroke="black" points="2417.36,-362.67 2519.38,-339.57 2621.41,-362.67 2621.31,-400.04 2417.45,-400.04 2417.36,-362.67"/>
<text text-anchor="middle" x="2519.38" y="-376.8" font-family="Times,serif" font-size="14.00">counter_total</text>
<text text-anchor="middle" x="2519.38" y="-361.8" font-family="Times,serif" font-size="14.00">unsigned long</text>
</g>
<!-- n3_port_2&#45;&gt;n0_place_8 -->
<g id="edge8" class="edge">
<title>n3_port_2&#45;&gt;n0_place_8</title>
<path fill="none" stroke="black" d="M2417.09,-373C2402.28,-373 2387.09,-373 2372.48,-373"/>
<polygon fill="black" stroke="black" points="2372.46,-369.5 2362.46,-373 2372.46,-376.5 2372.46,-369.5"/>
</g>
<!-- n3_modcall -->
<g id="node37" class="node">
<title>n3_modcall</title>
<polygon fill="white" stroke="black" points="2619.88,-154 2418.88,-154 2418.88,-118 2619.88,-118 2619.88,-154"/>
<text text-anchor="middle" x="2519.38" y="-132.3" font-family="Times,serif" font-size="14.00">feynman_module.control1</text>
</g>
<!-- n4_condition -->
<g id="node38" class="node">
<title>n4_condition</title>
<polygon fill="white" stroke="black" points="2024.16,-668 2024.16,-704 2093.16,-704 2093.16,-668 2024.16,-668"/>
<text text-anchor="middle" x="2058.66" y="-682.3" font-family="Times,serif" font-size="14.00">Reduce</text>
</g>
<!-- n4_port_0 -->
<g id="node41" class="node">
<title>n4_port_0</title>
<polygon fill="white" stroke="black" points="2000.04,-353.67 2058.66,-330.57 2117.28,-353.67 2117.22,-391.04 2000.09,-391.04 2000.04,-353.67"/>
<text text-anchor="middle" x="2058.66" y="-367.8" font-family="Times,serif" font-size="14.00">ns</text>
<text text-anchor="middle" x="2058.66" y="-352.8" font-family="Times,serif" font-size="14.00">control</text>
</g>
<!-- n4_port_0&#45;&gt;n0_place_10 -->
<g id="edge12" class="edge">
<title>n4_port_0&#45;&gt;n0_place_10</title>
<path fill="none" stroke="black" d="M2103.25,-347.78C2121.4,-340.56 2142.49,-331.53 2160.92,-322 2188.37,-307.81 2217.81,-289.31 2240.38,-274.35"/>
<polygon fill="black" stroke="black" points="2242.61,-277.07 2248.98,-268.6 2238.72,-271.25 2242.61,-277.07"/>
</g>
<!-- n4_port_3 -->
<g id="node42" class="node">
<title>n4_port_3</title>
<polygon fill="white" stroke="black" points="2007.02,-437.67 2058.66,-414.57 2110.29,-437.67 2110.25,-475.04 2007.07,-475.04 2007.02,-437.67"/>
<text text-anchor="middle" x="2058.66" y="-451.8" font-family="Times,serif" font-size="14.00">sum</text>
<text text-anchor="middle" x="2058.66" y="-436.8" font-family="Times,serif" font-size="14.00">string</text>
</g>
<!-- n4_port_3&#45;&gt;n0_place_12 -->
<g id="edge11" class="edge">
<title>n4_port_3&#45;&gt;n0_place_12</title>
<path fill="none" stroke="black" d="M2110.45,-467.48C2146.95,-481.48 2195.8,-500.22 2231.45,-513.89"/>
<polygon fill="black" stroke="black" points="2230.54,-517.29 2241.13,-517.61 2233.05,-510.76 2230.54,-517.29"/>
</g>
<!-- n4_modcall -->
<g id="node43" class="node">
<title>n4_modcall</title>
<polygon fill="white" stroke="black" points="2144.66,-313 1972.66,-313 1972.66,-277 2144.66,-277 2144.66,-313"/>
<text text-anchor="middle" x="2058.66" y="-291.3" font-family="Times,serif" font-size="14.00">feynman_module.plus</text>
</g>
<!-- n5_condition -->
<g id="node44" class="node">
<title>n5_condition</title>
<polygon fill="white" stroke="black" points="1559.73,-836 1559.73,-872 1693.73,-872 1693.73,-836 1559.73,-836"/>
<text text-anchor="middle" x="1626.73" y="-850.3" font-family="Times,serif" font-size="14.00">feynman_degree</text>
</g>
<!-- n5_port_2 -->
<g id="node47" class="node">
<title>n5_port_2</title>
<polygon fill="white" stroke="black" points="1575.09,-605.67 1626.73,-582.57 1678.37,-605.67 1678.32,-643.04 1575.14,-643.04 1575.09,-605.67"/>
<text text-anchor="middle" x="1626.73" y="-619.8" font-family="Times,serif" font-size="14.00">s</text>
<text text-anchor="middle" x="1626.73" y="-604.8" font-family="Times,serif" font-size="14.00">string</text>
</g>
<!-- n5_port_2&#45;&gt;n0_place_3 -->
<g id="edge15" class="edge">
<title>n5_port_2&#45;&gt;n0_place_3</title>
<path fill="none" stroke="black" d="M1678.5,-616C1717.96,-616 1772.71,-616 1813.79,-616"/>
<polygon fill="black" stroke="black" points="1813.92,-619.5 1823.92,-616 1813.92,-612.5 1813.92,-619.5"/>
</g>
<!-- n5_modcall -->
<g id="node48" class="node">
<title>n5_modcall</title>
<polygon fill="white" stroke="black" points="1788.23,-565 1465.23,-565 1465.23,-529 1788.23,-529 1788.23,-565"/>
<text text-anchor="middle" x="1626.73" y="-543.3" font-family="Times,serif" font-size="14.00">feynman_module.feynman_integral_degree</text>
</g>
<!-- n6_condition -->
<g id="node49" class="node">
<title>n6_condition</title>
<polygon fill="white" stroke="black" points="1099.14,-798 1099.14,-834 1206.14,-834 1206.14,-798 1099.14,-798"/>
<text text-anchor="middle" x="1152.64" y="-812.3" font-family="Times,serif" font-size="14.00">Combination</text>
</g>
<!-- n6_port_1 -->
<g id="node51" class="node">
<title>n6_port_1</title>
<polygon fill="white" stroke="black" points="1116.96,-651.67 1152.64,-628.57 1188.31,-651.67 1188.27,-689.04 1117,-689.04 1116.96,-651.67"/>
<text text-anchor="middle" x="1152.64" y="-665.8" font-family="Times,serif" font-size="14.00">vec</text>
<text text-anchor="middle" x="1152.64" y="-650.8" font-family="Times,serif" font-size="14.00">list</text>
</g>
<!-- n6_port_1&#45;&gt;n0_place_1 -->
<g id="edge18" class="edge">
<title>n6_port_1&#45;&gt;n0_place_1</title>
<path fill="none" stroke="black" d="M1188.67,-663.57C1214.37,-666.2 1250.34,-669.88 1282.62,-673.18"/>
<path fill="none" stroke="transparent" d="M1188.46,-665.56C1214.17,-668.19 1250.14,-671.87 1282.42,-675.17"/>
<path fill="none" stroke="black" d="M1188.26,-667.55C1213.96,-670.18 1249.93,-673.86 1282.21,-677.16"/>
<polygon fill="black" stroke="black" points="1282.45,-678.69 1292.75,-676.23 1283.16,-671.73 1282.45,-678.69"/>
</g>
<!-- n6_modcall -->
<g id="node52" class="node">
<title>n6_modcall</title>
<polygon fill="white" stroke="black" points="1254.64,-611 1050.64,-611 1050.64,-575 1254.64,-575 1254.64,-611"/>
<text text-anchor="middle" x="1152.64" y="-589.3" font-family="Times,serif" font-size="14.00">feynman_module.partition</text>
</g>
<!-- n7_condition -->
<g id="node53" class="node">
<title>n7_condition</title>
<polygon fill="white" stroke="black" points="709.43,-903 709.43,-939 788.43,-939 788.43,-903 709.43,-903"/>
<text text-anchor="middle" x="748.93" y="-917.3" font-family="Times,serif" font-size="14.00">partition</text>
</g>
<!-- n7_port_2 -->
<g id="node56" class="node">
<title>n7_port_2</title>
<polygon fill="white" stroke="black" points="714.75,-672.67 748.93,-649.57 783.1,-672.67 783.07,-710.04 714.79,-710.04 714.75,-672.67"/>
<text text-anchor="middle" x="748.93" y="-686.8" font-family="Times,serif" font-size="14.00">v</text>
<text text-anchor="middle" x="748.93" y="-671.8" font-family="Times,serif" font-size="14.00">list</text>
</g>
<!-- n7_port_2&#45;&gt;n0_place_7 -->
<g id="edge20" class="edge">
<title>n7_port_2&#45;&gt;n0_place_7</title>
<path fill="none" stroke="black" d="M783.5,-687.88C812.21,-693.81 854.57,-702.54 889.87,-709.83"/>
<path fill="none" stroke="transparent" d="M783.09,-689.84C811.81,-695.77 854.17,-704.5 889.47,-711.78"/>
<path fill="none" stroke="black" d="M782.69,-691.8C811.41,-697.72 853.76,-706.46 889.06,-713.74"/>
<polygon fill="black" stroke="black" points="889.2,-715.3 899.7,-713.89 890.61,-708.45 889.2,-715.3"/>
</g>
<!-- n7_modcall -->
<g id="node57" class="node">
<title>n7_modcall</title>
<polygon fill="white" stroke="black" points="858.43,-632 639.43,-632 639.43,-596 858.43,-596 858.43,-632"/>
<text text-anchor="middle" x="748.93" y="-610.3" font-family="Times,serif" font-size="14.00">feynman_module.gen_block_</text>
</g>
<!-- n8_condition -->
<g id="node58" class="node">
<title>n8_condition</title>
<polygon fill="white" stroke="black" points="328.74,-567 328.74,-603 430.74,-603 430.74,-567 328.74,-567"/>
<text text-anchor="middle" x="379.74" y="-581.3" font-family="Times,serif" font-size="14.00">degrees_fey</text>
</g>
<!-- n8_port_2 -->
<g id="node61" class="node">
<title>n8_port_2</title>
<polygon fill="white" stroke="black" points="345.57,-336.67 379.74,-313.57 413.92,-336.67 413.89,-374.04 345.6,-374.04 345.57,-336.67"/>
<text text-anchor="middle" x="379.74" y="-350.8" font-family="Times,serif" font-size="14.00">v</text>
<text text-anchor="middle" x="379.74" y="-335.8" font-family="Times,serif" font-size="14.00">list</text>
</g>
<!-- n8_port_2&#45;&gt;n0_place_5 -->
<g id="edge23" class="edge">
<title>n8_port_2&#45;&gt;n0_place_5</title>
<path fill="none" stroke="black" d="M414.69,-354.43C433.47,-361.11 455.97,-371.61 472.19,-387.58 509.63,-425.1 531.55,-482.48 542.72,-519.87"/>
<path fill="none" stroke="transparent" d="M414.02,-356.32C432.62,-362.93 455.13,-373.43 470.78,-389 507.76,-425.81 529.68,-483.2 540.81,-520.45"/>
<path fill="none" stroke="black" d="M413.35,-358.2C431.78,-364.74 454.28,-375.24 469.37,-390.42 505.89,-426.53 527.81,-483.91 538.89,-521.02"/>
<polygon fill="black" stroke="black" points="537.54,-521.74 543.66,-530.38 544.26,-519.81 537.54,-521.74"/>
</g>
<!-- n8_modcall -->
<g id="node62" class="node">
<title>n8_modcall</title>
<polygon fill="white" stroke="black" points="462.74,-296 296.74,-296 296.74,-260 462.74,-260 462.74,-296"/>
<text text-anchor="middle" x="379.74" y="-274.3" font-family="Times,serif" font-size="14.00">feynman_module.init</text>
</g>
</g>
</svg>
