<?xml version="1.0" encoding="UTF-8" standalone="no"?>
<!DOCTYPE svg PUBLIC "-//W3C//DTD SVG 1.1//EN"
 "http://www.w3.org/Graphics/SVG/1.1/DTD/svg11.dtd">
<!-- Generated by graphviz version 2.43.0 (0)
 -->
<!-- Title: feynman_deg Pages: 1 -->
<svg width="1367pt" height="2096pt"
 viewBox="0.00 0.00 1367.28 2096.00" xmlns="http://www.w3.org/2000/svg" xmlns:xlink="http://www.w3.org/1999/xlink">
<g id="graph0" class="graph" transform="scale(1 1) rotate(0) translate(4 2092)">
<title>feynman_deg</title>
<polygon fill="white" stroke="transparent" points="-4,4 -4,-2092 1363.28,-2092 1363.28,4 -4,4"/>
<g id="clust1" class="cluster">
<title>cluster_0</title>
<polygon fill="dimgray" stroke="black" points="8,-8 8,-2080 1351.28,-2080 1351.28,-8 8,-8"/>
</g>
<g id="clust2" class="cluster">
<title>cluster_net_0</title>
<polygon fill="white" stroke="black" points="159.37,-90 159.37,-1912 1343.28,-1912 1343.28,-90 159.37,-90"/>
</g>
<g id="clust3" class="cluster">
<title>cluster_1</title>
<polygon fill="yellow" stroke="black" points="862.06,-119 862.06,-479 1082.58,-479 1082.58,-119 862.06,-119"/>
</g>
<g id="clust4" class="cluster">
<title>cluster_2</title>
<polygon fill="yellow" stroke="black" points="843.32,-487 843.32,-957 1101.32,-957 1101.32,-487 843.32,-487"/>
</g>
<g id="clust5" class="cluster">
<title>cluster_3</title>
<polygon fill="yellow" stroke="black" points="360.84,-98 360.84,-878 581.36,-878 581.36,-98 360.84,-98"/>
</g>
<g id="clust6" class="cluster">
<title>cluster_4</title>
<polygon fill="yellow" stroke="black" points="802.82,-1544 802.82,-1904 1141.82,-1904 1141.82,-1544 802.82,-1544"/>
</g>
<g id="clust7" class="cluster">
<title>cluster_5</title>
<polygon fill="yellow" stroke="black" points="364.6,-886 364.6,-1440 577.6,-1440 577.6,-886 364.6,-886"/>
</g>
<g id="clust8" class="cluster">
<title>cluster_6</title>
<polygon fill="yellow" stroke="black" points="372.1,-1448 372.1,-1892 570.1,-1892 570.1,-1448 372.1,-1448"/>
</g>
<!-- n0_condition -->
<g id="node1" class="node">
<title>n0_condition</title>
<polygon fill="white" stroke="black" points="18.19,-1941 18.19,-1977 129.19,-1977 129.19,-1941 18.19,-1941"/>
<text text-anchor="middle" x="73.69" y="-1955.3" font-family="Times,serif" font-size="14.00">feynman_deg</text>
</g>
<!-- n0_port_0 -->
<g id="node2" class="node">
<title>n0_port_0</title>
<polygon fill="white" stroke="black" points="131.56,-1805.33 73.69,-1828.43 15.81,-1805.33 15.87,-1767.96 131.5,-1767.96 131.56,-1805.33"/>
<text text-anchor="middle" x="73.69" y="-1798.8" font-family="Times,serif" font-size="14.00">degree</text>
<text text-anchor="middle" x="73.69" y="-1783.8" font-family="Times,serif" font-size="14.00">int</text>
</g>
<!-- n0_place_2 -->
<g id="node18" class="node">
<title>n0_place_2</title>
<ellipse fill="white" stroke="black" cx="250.1" cy="-1795" rx="46.84" ry="26.74"/>
<text text-anchor="middle" x="250.1" y="-1798.8" font-family="Times,serif" font-size="14.00">degree</text>
<text text-anchor="middle" x="250.1" y="-1783.8" font-family="Times,serif" font-size="14.00">int</text>
</g>
<!-- n0_port_0&#45;&gt;n0_place_2 -->
<g id="edge28" class="edge">
<title>n0_port_0&#45;&gt;n0_place_2</title>
<path fill="none" stroke="black" stroke-dasharray="1,5" d="M131.8,-1795C154.95,-1795 181.32,-1795 203.19,-1795"/>
</g>
<!-- n0_port_1 -->
<g id="node3" class="node">
<title>n0_port_1</title>
<polygon fill="white" stroke="black" points="573.12,-1965.33 471.1,-1988.43 369.07,-1965.33 369.17,-1927.96 573.03,-1927.96 573.12,-1965.33"/>
<text text-anchor="middle" x="471.1" y="-1958.8" font-family="Times,serif" font-size="14.00">total</text>
<text text-anchor="middle" x="471.1" y="-1943.8" font-family="Times,serif" font-size="14.00">unsigned long</text>
</g>
<!-- n0_place_6 -->
<g id="node14" class="node">
<title>n0_place_6</title>
<ellipse fill="white" stroke="black" cx="692.09" cy="-1805" rx="82.96" ry="26.74"/>
<text text-anchor="middle" x="692.09" y="-1808.8" font-family="Times,serif" font-size="14.00">total</text>
<text text-anchor="middle" x="692.09" y="-1793.8" font-family="Times,serif" font-size="14.00">unsigned long</text>
</g>
<!-- n0_port_1&#45;&gt;n0_place_6 -->
<g id="edge29" class="edge">
<title>n0_port_1&#45;&gt;n0_place_6</title>
<path fill="none" stroke="black" stroke-dasharray="1,5" d="M566.38,-1927.9C571.78,-1924.4 576.84,-1920.45 581.36,-1916 606.7,-1891.02 584.93,-1866.87 609.36,-1841 615.85,-1834.12 623.89,-1828.48 632.37,-1823.87"/>
</g>
<!-- n0_port_2 -->
<g id="node4" class="node">
<title>n0_port_2</title>
<polygon fill="white" stroke="black" points="105.12,-1721.33 73.69,-1744.43 42.26,-1721.33 42.29,-1683.96 105.09,-1683.96 105.12,-1721.33"/>
<text text-anchor="middle" x="73.69" y="-1714.8" font-family="Times,serif" font-size="14.00">N</text>
<text text-anchor="middle" x="73.69" y="-1699.8" font-family="Times,serif" font-size="14.00">int</text>
</g>
<!-- n0_place_4 -->
<g id="node16" class="node">
<title>n0_place_4</title>
<ellipse fill="white" stroke="black" cx="250.1" cy="-1711" rx="27" ry="26.74"/>
<text text-anchor="middle" x="250.1" y="-1714.8" font-family="Times,serif" font-size="14.00">N</text>
<text text-anchor="middle" x="250.1" y="-1699.8" font-family="Times,serif" font-size="14.00">int</text>
</g>
<!-- n0_port_2&#45;&gt;n0_place_4 -->
<g id="edge30" class="edge">
<title>n0_port_2&#45;&gt;n0_place_4</title>
<path fill="none" stroke="black" stroke-dasharray="1,5" d="M105.47,-1711C138.82,-1711 191.46,-1711 222.9,-1711"/>
</g>
<!-- n0_port_3 -->
<g id="node5" class="node">
<title>n0_port_3</title>
<polygon fill="white" stroke="black" points="105.12,-975.33 73.69,-998.43 42.26,-975.33 42.29,-937.96 105.09,-937.96 105.12,-975.33"/>
<text text-anchor="middle" x="73.69" y="-968.8" font-family="Times,serif" font-size="14.00">m</text>
<text text-anchor="middle" x="73.69" y="-953.8" font-family="Times,serif" font-size="14.00">int</text>
</g>
<!-- n0_place_3 -->
<g id="node17" class="node">
<title>n0_place_3</title>
<ellipse fill="white" stroke="black" cx="250.1" cy="-965" rx="27" ry="26.74"/>
<text text-anchor="middle" x="250.1" y="-968.8" font-family="Times,serif" font-size="14.00">m</text>
<text text-anchor="middle" x="250.1" y="-953.8" font-family="Times,serif" font-size="14.00">int</text>
</g>
<!-- n0_port_3&#45;&gt;n0_place_3 -->
<g id="edge31" class="edge">
<title>n0_port_3&#45;&gt;n0_place_3</title>
<path fill="none" stroke="black" stroke-dasharray="1,5" d="M105.47,-965C138.82,-965 191.46,-965 222.9,-965"/>
</g>
<!-- n0_port_4 -->
<g id="node6" class="node">
<title>n0_port_4</title>
<polygon fill="white" stroke="black" points="522.73,-2049.33 471.1,-2072.43 419.46,-2049.33 419.51,-2011.96 522.68,-2011.96 522.73,-2049.33"/>
<text text-anchor="middle" x="471.1" y="-2042.8" font-family="Times,serif" font-size="14.00">graph</text>
<text text-anchor="middle" x="471.1" y="-2027.8" font-family="Times,serif" font-size="14.00">list</text>
</g>
<!-- n0_place_11 -->
<g id="node9" class="node">
<title>n0_place_11</title>
<ellipse fill="white" stroke="black" cx="692.09" cy="-1877" rx="41.94" ry="26.74"/>
<text text-anchor="middle" x="692.09" y="-1880.8" font-family="Times,serif" font-size="14.00">graph</text>
<text text-anchor="middle" x="692.09" y="-1865.8" font-family="Times,serif" font-size="14.00">list</text>
</g>
<!-- n0_port_4&#45;&gt;n0_place_11 -->
<g id="edge32" class="edge">
<title>n0_port_4&#45;&gt;n0_place_11</title>
<path fill="none" stroke="black" stroke-dasharray="1,5" d="M522.89,-2024.95C542.18,-2018.25 563.73,-2009.02 581.36,-1997 619.84,-1970.76 654.3,-1928.49 673.94,-1901.76"/>
</g>
<!-- n0_port_5 -->
<g id="node7" class="node">
<title>n0_port_5</title>
<polygon fill="white" stroke="black" points="870.3,-38.67 972.32,-15.57 1074.35,-38.67 1074.25,-76.04 870.39,-76.04 870.3,-38.67"/>
<text text-anchor="middle" x="972.32" y="-52.8" font-family="Times,serif" font-size="14.00">answer</text>
<text text-anchor="middle" x="972.32" y="-37.8" font-family="Times,serif" font-size="14.00">unsigned long</text>
</g>
<!-- n0_place_1 -->
<g id="node19" class="node">
<title>n0_place_1</title>
<ellipse fill="white" stroke="black" cx="1252.55" cy="-385" rx="82.96" ry="26.74"/>
<text text-anchor="middle" x="1252.55" y="-388.8" font-family="Times,serif" font-size="14.00">answer</text>
<text text-anchor="middle" x="1252.55" y="-373.8" font-family="Times,serif" font-size="14.00">unsigned long</text>
</g>
<!-- n0_port_5&#45;&gt;n0_place_1 -->
<g id="edge33" class="edge">
<title>n0_port_5&#45;&gt;n0_place_1</title>
<path fill="none" stroke="black" stroke-dasharray="1,5" d="M1074.31,-73.41C1098.74,-83.14 1123.15,-96.57 1141.82,-115 1212.03,-184.32 1238.95,-304.7 1247.79,-358.12"/>
</g>
<!-- n0_place_12 -->
<g id="node8" class="node">
<title>n0_place_12</title>
<ellipse fill="white" stroke="black" cx="250.1" cy="-530" rx="50.41" ry="37.45"/>
<text text-anchor="middle" x="250.1" y="-541.3" font-family="Times,serif" font-size="14.00">counter</text>
<text text-anchor="middle" x="250.1" y="-526.3" font-family="Times,serif" font-size="14.00">int</text>
<text text-anchor="middle" x="250.1" y="-511.3" font-family="Times,serif" font-size="14.00">3</text>
</g>
<!-- n5_port_4 -->
<g id="node51" class="node">
<title>n5_port_4</title>
<polygon fill="white" stroke="black" points="533.21,-1159.33 471.1,-1182.43 408.98,-1159.33 409.04,-1121.96 533.15,-1121.96 533.21,-1159.33"/>
<text text-anchor="middle" x="471.1" y="-1152.8" font-family="Times,serif" font-size="14.00">counter</text>
<text text-anchor="middle" x="471.1" y="-1137.8" font-family="Times,serif" font-size="14.00">int</text>
</g>
<!-- n0_place_12&#45;&gt;n5_port_4 -->
<g id="edge22" class="edge">
<title>n0_place_12&#45;&gt;n5_port_4</title>
<path fill="none" stroke="black" d="M259.28,-567.02C274.68,-637.36 308.63,-795.23 332.84,-929 347.1,-1007.8 310.48,-1044.72 360.84,-1107 370.74,-1119.25 384.66,-1127.93 399.27,-1134.08"/>
<polygon fill="black" stroke="black" points="398.33,-1137.48 408.93,-1137.77 400.83,-1130.94 398.33,-1137.48"/>
</g>
<!-- n4_port_1 -->
<g id="node45" class="node">
<title>n4_port_1</title>
<polygon fill="white" stroke="black" points="1006.5,-1817.33 972.32,-1840.43 938.15,-1817.33 938.18,-1779.96 1006.46,-1779.96 1006.5,-1817.33"/>
<text text-anchor="middle" x="972.32" y="-1810.8" font-family="Times,serif" font-size="14.00">G</text>
<text text-anchor="middle" x="972.32" y="-1795.8" font-family="Times,serif" font-size="14.00">list</text>
</g>
<!-- n0_place_11&#45;&gt;n4_port_1 -->
<g id="edge18" class="edge">
<title>n0_place_11&#45;&gt;n4_port_1</title>
<path fill="none" stroke="black" stroke-dasharray="5,2" d="M731.19,-1867.41C782.65,-1854.47 874.1,-1831.46 928.07,-1817.88"/>
<polygon fill="black" stroke="black" points="929.18,-1821.21 938.02,-1815.38 927.47,-1814.42 929.18,-1821.21"/>
</g>
<!-- n0_place_10 -->
<g id="node10" class="node">
<title>n0_place_10</title>
<ellipse fill="white" stroke="black" cx="692.09" cy="-1065" rx="37.45" ry="26.74"/>
<text text-anchor="middle" x="692.09" y="-1068.8" font-family="Times,serif" font-size="14.00">state</text>
<text text-anchor="middle" x="692.09" y="-1053.8" font-family="Times,serif" font-size="14.00">list</text>
</g>
<!-- n5_port_1 -->
<g id="node50" class="node">
<title>n5_port_1</title>
<polygon fill="white" stroke="black" points="505.27,-1075.33 471.1,-1098.43 436.92,-1075.33 436.95,-1037.96 505.24,-1037.96 505.27,-1075.33"/>
<text text-anchor="middle" x="471.1" y="-1068.8" font-family="Times,serif" font-size="14.00">v</text>
<text text-anchor="middle" x="471.1" y="-1053.8" font-family="Times,serif" font-size="14.00">list</text>
</g>
<!-- n0_place_10&#45;&gt;n5_port_1 -->
<g id="edge21" class="edge">
<title>n0_place_10&#45;&gt;n5_port_1</title>
<path fill="none" stroke="black" d="M654.59,-1065C616.32,-1065 556.19,-1065 515.51,-1065"/>
<polygon fill="black" stroke="black" points="515.36,-1061.5 505.36,-1065 515.36,-1068.5 515.36,-1061.5"/>
</g>
<!-- n0_place_9 -->
<g id="node11" class="node">
<title>n0_place_9</title>
<ellipse fill="white" stroke="black" cx="250.1" cy="-315" rx="35.21" ry="37.45"/>
<text text-anchor="middle" x="250.1" y="-326.3" font-family="Times,serif" font-size="14.00">limit</text>
<text text-anchor="middle" x="250.1" y="-311.3" font-family="Times,serif" font-size="14.00">int</text>
<text text-anchor="middle" x="250.1" y="-296.3" font-family="Times,serif" font-size="14.00">0</text>
</g>
<!-- n3_port_5 -->
<g id="node36" class="node">
<title>n3_port_5</title>
<polygon fill="white" stroke="black" points="515,-455.33 471.1,-478.43 427.19,-455.33 427.23,-417.96 514.96,-417.96 515,-455.33"/>
<text text-anchor="middle" x="471.1" y="-448.8" font-family="Times,serif" font-size="14.00">limit</text>
<text text-anchor="middle" x="471.1" y="-433.8" font-family="Times,serif" font-size="14.00">int</text>
</g>
<!-- n0_place_9&#45;&gt;n3_port_5 -->
<g id="edge12" class="edge">
<title>n0_place_9&#45;&gt;n3_port_5</title>
<path fill="none" stroke="black" d="M276.91,-339.55C298.15,-358.76 329.71,-385.12 360.84,-403 378.54,-413.17 399.18,-421.83 417.72,-428.59"/>
<polygon fill="black" stroke="black" points="416.61,-431.91 427.2,-431.96 418.95,-425.32 416.61,-431.91"/>
</g>
<!-- n0_place_8 -->
<g id="node12" class="node">
<title>n0_place_8</title>
<ellipse fill="white" stroke="black" cx="692.09" cy="-697" rx="82.96" ry="37.45"/>
<text text-anchor="middle" x="692.09" y="-708.3" font-family="Times,serif" font-size="14.00">sum</text>
<text text-anchor="middle" x="692.09" y="-693.3" font-family="Times,serif" font-size="14.00">unsigned long</text>
<text text-anchor="middle" x="692.09" y="-678.3" font-family="Times,serif" font-size="14.00">0UL</text>
</g>
<!-- n2_port_2 -->
<g id="node30" class="node">
<title>n2_port_2</title>
<polygon fill="white" stroke="black" points="1074.35,-760.33 972.32,-783.43 870.3,-760.33 870.39,-722.96 1074.25,-722.96 1074.35,-760.33"/>
<text text-anchor="middle" x="972.32" y="-753.8" font-family="Times,serif" font-size="14.00">answer</text>
<text text-anchor="middle" x="972.32" y="-738.8" font-family="Times,serif" font-size="14.00">unsigned long</text>
</g>
<!-- n0_place_8&#45;&gt;n2_port_2 -->
<g id="edge5" class="edge">
<title>n0_place_8&#45;&gt;n2_port_2</title>
<path fill="none" stroke="black" d="M768.75,-711.41C796.99,-716.79 829.68,-723.02 860.44,-728.88"/>
<polygon fill="black" stroke="black" points="859.87,-732.33 870.35,-730.77 861.18,-725.46 859.87,-732.33"/>
</g>
<!-- n3_port_3 -->
<g id="node35" class="node">
<title>n3_port_3</title>
<polygon fill="white" stroke="black" points="573.12,-707.33 471.1,-730.43 369.07,-707.33 369.17,-669.96 573.03,-669.96 573.12,-707.33"/>
<text text-anchor="middle" x="471.1" y="-700.8" font-family="Times,serif" font-size="14.00">sum</text>
<text text-anchor="middle" x="471.1" y="-685.8" font-family="Times,serif" font-size="14.00">unsigned long</text>
</g>
<!-- n0_place_8&#45;&gt;n3_port_3 -->
<g id="edge13" class="edge">
<title>n0_place_8&#45;&gt;n3_port_3</title>
<path fill="none" stroke="black" d="M609.06,-697C600.66,-697 592.04,-697 583.4,-697"/>
<polygon fill="black" stroke="black" points="583.26,-693.5 573.26,-697 583.26,-700.5 583.26,-693.5"/>
</g>
<!-- n0_place_7 -->
<g id="node13" class="node">
<title>n0_place_7</title>
<ellipse fill="white" stroke="black" cx="692.09" cy="-1627" rx="48.58" ry="26.74"/>
<text text-anchor="middle" x="692.09" y="-1630.8" font-family="Times,serif" font-size="14.00">vectors</text>
<text text-anchor="middle" x="692.09" y="-1615.8" font-family="Times,serif" font-size="14.00">list</text>
</g>
<!-- n4_port_0 -->
<g id="node44" class="node">
<title>n4_port_0</title>
<polygon fill="white" stroke="black" points="1037.18,-1649.33 972.32,-1672.43 907.46,-1649.33 907.53,-1611.96 1037.12,-1611.96 1037.18,-1649.33"/>
<text text-anchor="middle" x="972.32" y="-1642.8" font-family="Times,serif" font-size="14.00">branchs</text>
<text text-anchor="middle" x="972.32" y="-1627.8" font-family="Times,serif" font-size="14.00">list</text>
</g>
<!-- n0_place_7&#45;&gt;n4_port_0 -->
<g id="edge17" class="edge">
<title>n0_place_7&#45;&gt;n4_port_0</title>
<path fill="none" stroke="black" d="M740.92,-1629.06C783.95,-1630.92 847.83,-1633.67 897.42,-1635.81"/>
<polygon fill="black" stroke="black" points="897.32,-1639.31 907.46,-1636.25 897.62,-1632.32 897.32,-1639.31"/>
</g>
<!-- n2_port_0 -->
<g id="node28" class="node">
<title>n2_port_0</title>
<polygon fill="white" stroke="black" points="1074.35,-844.33 972.32,-867.43 870.3,-844.33 870.39,-806.96 1074.25,-806.96 1074.35,-844.33"/>
<text text-anchor="middle" x="972.32" y="-837.8" font-family="Times,serif" font-size="14.00">total</text>
<text text-anchor="middle" x="972.32" y="-822.8" font-family="Times,serif" font-size="14.00">unsigned long</text>
</g>
<!-- n0_place_6&#45;&gt;n2_port_0 -->
<g id="edge7" class="edge">
<title>n0_place_6&#45;&gt;n2_port_0</title>
<path fill="none" stroke="black" stroke-dasharray="5,2" d="M713.48,-1778.78C733.32,-1751.56 762.25,-1706.89 774.82,-1663 798.88,-1578.99 747.99,-945.05 802.82,-877 817.26,-859.08 838.04,-848.02 860.1,-841.32"/>
<polygon fill="black" stroke="black" points="861.24,-844.64 869.96,-838.63 859.39,-837.89 861.24,-844.64"/>
</g>
<!-- n0_place_5 -->
<g id="node15" class="node">
<title>n0_place_5</title>
<ellipse fill="white" stroke="black" cx="250.1" cy="-1872" rx="82.96" ry="26.74"/>
<text text-anchor="middle" x="250.1" y="-1875.8" font-family="Times,serif" font-size="14.00">fey_out</text>
<text text-anchor="middle" x="250.1" y="-1860.8" font-family="Times,serif" font-size="14.00">unsigned long</text>
</g>
<!-- n3_port_0 -->
<g id="node34" class="node">
<title>n3_port_0</title>
<polygon fill="white" stroke="black" points="573.12,-791.33 471.1,-814.43 369.07,-791.33 369.17,-753.96 573.03,-753.96 573.12,-791.33"/>
<text text-anchor="middle" x="471.1" y="-784.8" font-family="Times,serif" font-size="14.00">s</text>
<text text-anchor="middle" x="471.1" y="-769.8" font-family="Times,serif" font-size="14.00">unsigned long</text>
</g>
<!-- n0_place_5&#45;&gt;n3_port_0 -->
<g id="edge14" class="edge">
<title>n0_place_5&#45;&gt;n3_port_0</title>
<path fill="none" stroke="black" d="M309.22,-1852.88C318.56,-1847.27 327.04,-1840.11 332.84,-1831 392.94,-1736.57 296.55,-915.63 360.84,-824 367.24,-814.87 375.91,-807.67 385.57,-802"/>
<polygon fill="black" stroke="black" points="387.46,-804.97 394.69,-797.22 384.21,-798.77 387.46,-804.97"/>
</g>
<!-- n6_port_1 -->
<g id="node57" class="node">
<title>n6_port_1</title>
<polygon fill="white" stroke="black" points="502.53,-1721.33 471.1,-1744.43 439.67,-1721.33 439.7,-1683.96 502.5,-1683.96 502.53,-1721.33"/>
<text text-anchor="middle" x="471.1" y="-1714.8" font-family="Times,serif" font-size="14.00">n</text>
<text text-anchor="middle" x="471.1" y="-1699.8" font-family="Times,serif" font-size="14.00">int</text>
</g>
<!-- n0_place_4&#45;&gt;n6_port_1 -->
<g id="edge27" class="edge">
<title>n0_place_4&#45;&gt;n6_port_1</title>
<path fill="none" stroke="black" d="M277.52,-1711C315.22,-1711 384.81,-1711 429.2,-1711"/>
<polygon fill="black" stroke="black" points="429.36,-1714.5 439.36,-1711 429.36,-1707.5 429.36,-1714.5"/>
</g>
<!-- n3_port_7 -->
<g id="node37" class="node">
<title>n3_port_7</title>
<polygon fill="white" stroke="black" points="502.53,-623.33 471.1,-646.43 439.67,-623.33 439.7,-585.96 502.5,-585.96 502.53,-623.33"/>
<text text-anchor="middle" x="471.1" y="-616.8" font-family="Times,serif" font-size="14.00">m</text>
<text text-anchor="middle" x="471.1" y="-601.8" font-family="Times,serif" font-size="14.00">int</text>
</g>
<!-- n0_place_3&#45;&gt;n3_port_7 -->
<g id="edge15" class="edge">
<title>n0_place_3&#45;&gt;n3_port_7</title>
<path fill="none" stroke="black" stroke-dasharray="5,2" d="M253.17,-938.29C259.12,-879.29 281.38,-736.61 360.84,-655 379.11,-636.23 406.69,-625.71 429.57,-619.9"/>
<polygon fill="black" stroke="black" points="430.42,-623.29 439.37,-617.61 428.84,-616.47 430.42,-623.29"/>
</g>
<!-- n5_port_0 -->
<g id="node49" class="node">
<title>n5_port_0</title>
<polygon fill="white" stroke="black" points="502.53,-1327.33 471.1,-1350.43 439.67,-1327.33 439.7,-1289.96 502.5,-1289.96 502.53,-1327.33"/>
<text text-anchor="middle" x="471.1" y="-1320.8" font-family="Times,serif" font-size="14.00">m</text>
<text text-anchor="middle" x="471.1" y="-1305.8" font-family="Times,serif" font-size="14.00">int</text>
</g>
<!-- n0_place_3&#45;&gt;n5_port_0 -->
<g id="edge23" class="edge">
<title>n0_place_3&#45;&gt;n5_port_0</title>
<path fill="none" stroke="black" stroke-dasharray="5,2" d="M253.17,-991.71C259.12,-1050.71 281.38,-1193.39 360.84,-1275 379.11,-1293.77 406.69,-1304.29 429.57,-1310.1"/>
<polygon fill="black" stroke="black" points="428.84,-1313.53 439.37,-1312.39 430.42,-1306.71 428.84,-1313.53"/>
</g>
<!-- n6_port_0 -->
<g id="node56" class="node">
<title>n6_port_0</title>
<polygon fill="white" stroke="black" points="502.53,-1805.33 471.1,-1828.43 439.67,-1805.33 439.7,-1767.96 502.5,-1767.96 502.53,-1805.33"/>
<text text-anchor="middle" x="471.1" y="-1798.8" font-family="Times,serif" font-size="14.00">d</text>
<text text-anchor="middle" x="471.1" y="-1783.8" font-family="Times,serif" font-size="14.00">int</text>
</g>
<!-- n0_place_2&#45;&gt;n6_port_0 -->
<g id="edge26" class="edge">
<title>n0_place_2&#45;&gt;n6_port_0</title>
<path fill="none" stroke="black" d="M297.01,-1795C336.11,-1795 391.75,-1795 429.3,-1795"/>
<polygon fill="black" stroke="black" points="429.38,-1798.5 439.38,-1795 429.38,-1791.5 429.38,-1798.5"/>
</g>
<!-- n0_place_0 -->
<g id="node20" class="node">
<title>n0_place_0</title>
<ellipse fill="white" stroke="black" cx="692.09" cy="-382" rx="82.96" ry="37.45"/>
<text text-anchor="middle" x="692.09" y="-393.3" font-family="Times,serif" font-size="14.00">counter_total</text>
<text text-anchor="middle" x="692.09" y="-378.3" font-family="Times,serif" font-size="14.00">unsigned long</text>
<text text-anchor="middle" x="692.09" y="-363.3" font-family="Times,serif" font-size="14.00">0UL</text>
</g>
<!-- n1_port_1 -->
<g id="node24" class="node">
<title>n1_port_1</title>
<polygon fill="white" stroke="black" points="1074.35,-392.33 972.32,-415.43 870.3,-392.33 870.39,-354.96 1074.25,-354.96 1074.35,-392.33"/>
<text text-anchor="middle" x="972.32" y="-385.8" font-family="Times,serif" font-size="14.00">counter_total</text>
<text text-anchor="middle" x="972.32" y="-370.8" font-family="Times,serif" font-size="14.00">unsigned long</text>
</g>
<!-- n0_place_0&#45;&gt;n1_port_1 -->
<g id="edge2" class="edge">
<title>n0_place_0&#45;&gt;n1_port_1</title>
<path fill="none" stroke="black" d="M775.06,-382C801.62,-382 831.53,-382 859.86,-382"/>
<polygon fill="black" stroke="black" points="860.21,-385.5 870.21,-382 860.21,-378.5 860.21,-385.5"/>
</g>
<!-- n2_port_1 -->
<g id="node29" class="node">
<title>n2_port_1</title>
<polygon fill="white" stroke="black" points="1074.35,-676.33 972.32,-699.43 870.3,-676.33 870.39,-638.96 1074.25,-638.96 1074.35,-676.33"/>
<text text-anchor="middle" x="972.32" y="-669.8" font-family="Times,serif" font-size="14.00">counter_total</text>
<text text-anchor="middle" x="972.32" y="-654.8" font-family="Times,serif" font-size="14.00">unsigned long</text>
</g>
<!-- n0_place_0&#45;&gt;n2_port_1 -->
<g id="edge6" class="edge">
<title>n0_place_0&#45;&gt;n2_port_1</title>
<path fill="none" stroke="black" d="M699.59,-419.71C710.85,-473.34 739.21,-570.99 802.82,-624 819.22,-637.66 839.43,-646.98 860.09,-653.31"/>
<polygon fill="black" stroke="black" points="859.36,-656.74 869.93,-656.1 861.27,-650.01 859.36,-656.74"/>
</g>
<!-- n0_place_13 -->
<g id="node21" class="node">
<title>n0_place_13</title>
<ellipse fill="white" stroke="black" cx="692.09" cy="-235" rx="47.25" ry="26.74"/>
<text text-anchor="middle" x="692.09" y="-238.8" font-family="Times,serif" font-size="14.00">ns</text>
<text text-anchor="middle" x="692.09" y="-223.8" font-family="Times,serif" font-size="14.00">control</text>
</g>
<!-- n1_port_0 -->
<g id="node23" class="node">
<title>n1_port_0</title>
<polygon fill="white" stroke="black" points="1030.94,-224.33 972.32,-247.43 913.7,-224.33 913.76,-186.96 1030.89,-186.96 1030.94,-224.33"/>
<text text-anchor="middle" x="972.32" y="-217.8" font-family="Times,serif" font-size="14.00">d</text>
<text text-anchor="middle" x="972.32" y="-202.8" font-family="Times,serif" font-size="14.00">control</text>
</g>
<!-- n0_place_13&#45;&gt;n1_port_0 -->
<g id="edge3" class="edge">
<title>n0_place_13&#45;&gt;n1_port_0</title>
<path fill="none" stroke="black" d="M739.35,-231.51C784.09,-228.13 852.42,-222.97 903.34,-219.13"/>
<polygon fill="black" stroke="black" points="903.9,-222.6 913.61,-218.36 903.37,-215.62 903.9,-222.6"/>
</g>
<!-- n1_condition -->
<g id="node22" class="node">
<title>n1_condition</title>
<polygon fill="white" stroke="black" points="924.82,-434 924.82,-470 1019.82,-470 1019.82,-434 924.82,-434"/>
<text text-anchor="middle" x="972.32" y="-448.3" font-family="Times,serif" font-size="14.00">transition6</text>
</g>
<!-- n1_port_2 -->
<g id="node25" class="node">
<title>n1_port_2</title>
<polygon fill="white" stroke="black" points="870.3,-287.67 972.32,-264.57 1074.35,-287.67 1074.25,-325.04 870.39,-325.04 870.3,-287.67"/>
<text text-anchor="middle" x="972.32" y="-301.8" font-family="Times,serif" font-size="14.00">counter_total</text>
<text text-anchor="middle" x="972.32" y="-286.8" font-family="Times,serif" font-size="14.00">unsigned long</text>
</g>
<!-- n1_port_2&#45;&gt;n0_place_0 -->
<g id="edge1" class="edge">
<title>n1_port_2&#45;&gt;n0_place_0</title>
<path fill="none" stroke="black" d="M870.08,-321.12C847.78,-326.8 824.39,-333.21 802.82,-340 790.11,-344 776.73,-348.7 763.87,-353.47"/>
<polygon fill="black" stroke="black" points="762.27,-350.33 754.15,-357.13 764.74,-356.88 762.27,-350.33"/>
</g>
<!-- n1_modcall -->
<g id="node26" class="node">
<title>n1_modcall</title>
<polygon fill="white" stroke="black" points="1072.82,-163 871.82,-163 871.82,-127 1072.82,-127 1072.82,-163"/>
<text text-anchor="middle" x="972.32" y="-141.3" font-family="Times,serif" font-size="14.00">feynman_module.control1</text>
</g>
<!-- n2_condition -->
<g id="node27" class="node">
<title>n2_condition</title>
<polygon fill="white" stroke="black" points="851.32,-886 851.32,-948 1093.32,-948 1093.32,-886 851.32,-886"/>
<text text-anchor="middle" x="972.32" y="-932.8" font-family="Times,serif" font-size="14.00">transition7</text>
<polyline fill="none" stroke="black" points="851.32,-925 1093.32,-925 "/>
<text text-anchor="middle" x="972.32" y="-909.8" font-family="Times,serif" font-size="14.00">(${counter_total} == ${total})</text>
</g>
<!-- n2_port_3 -->
<g id="node31" class="node">
<title>n2_port_3</title>
<polygon fill="white" stroke="black" points="870.3,-571.67 972.32,-548.57 1074.35,-571.67 1074.25,-609.04 870.39,-609.04 870.3,-571.67"/>
<text text-anchor="middle" x="972.32" y="-585.8" font-family="Times,serif" font-size="14.00">answer</text>
<text text-anchor="middle" x="972.32" y="-570.8" font-family="Times,serif" font-size="14.00">unsigned long</text>
</g>
<!-- n2_port_3&#45;&gt;n0_place_1 -->
<g id="edge4" class="edge">
<title>n2_port_3&#45;&gt;n0_place_1</title>
<path fill="none" stroke="black" d="M1069.23,-570.39C1094.38,-564.17 1120.42,-554.63 1141.82,-540 1185.68,-510.03 1217.79,-456.4 1235.57,-420.75"/>
<polygon fill="black" stroke="black" points="1238.77,-422.18 1240,-411.66 1232.48,-419.12 1238.77,-422.18"/>
</g>
<!-- n2_modcall -->
<g id="node32" class="node">
<title>n2_modcall</title>
<polygon fill="white" stroke="black" points="1058.82,-531 885.82,-531 885.82,-495 1058.82,-495 1058.82,-531"/>
<text text-anchor="middle" x="972.32" y="-509.3" font-family="Times,serif" font-size="14.00">feynman_module.final</text>
</g>
<!-- n3_condition -->
<g id="node33" class="node">
<title>n3_condition</title>
<polygon fill="white" stroke="black" points="423.6,-833 423.6,-869 518.6,-869 518.6,-833 423.6,-833"/>
<text text-anchor="middle" x="471.1" y="-847.3" font-family="Times,serif" font-size="14.00">transition5</text>
</g>
<!-- n3_port_1 -->
<g id="node38" class="node">
<title>n3_port_1</title>
<polygon fill="white" stroke="black" points="408.98,-518.67 471.1,-495.57 533.21,-518.67 533.15,-556.04 409.04,-556.04 408.98,-518.67"/>
<text text-anchor="middle" x="471.1" y="-532.8" font-family="Times,serif" font-size="14.00">counter</text>
<text text-anchor="middle" x="471.1" y="-517.8" font-family="Times,serif" font-size="14.00">int</text>
</g>
<!-- n3_port_1&#45;&gt;n0_place_12 -->
<g id="edge11" class="edge">
<title>n3_port_1&#45;&gt;n0_place_12</title>
<path fill="none" stroke="black" d="M408.73,-529.28C378.02,-529.42 341.01,-529.59 310.58,-529.73"/>
<polygon fill="black" stroke="black" points="310.51,-526.23 300.52,-529.77 310.54,-533.23 310.51,-526.23"/>
</g>
<!-- n3_port_2 -->
<g id="node39" class="node">
<title>n3_port_2</title>
<polygon fill="white" stroke="black" points="406.24,-266.67 471.1,-243.57 535.95,-266.67 535.89,-304.04 406.3,-304.04 406.24,-266.67"/>
<text text-anchor="middle" x="471.1" y="-280.8" font-family="Times,serif" font-size="14.00">controls</text>
<text text-anchor="middle" x="471.1" y="-265.8" font-family="Times,serif" font-size="14.00">control</text>
</g>
<!-- n3_port_2&#45;&gt;n0_place_13 -->
<g id="edge10" class="edge">
<title>n3_port_2&#45;&gt;n0_place_13</title>
<path fill="none" stroke="black" d="M532.52,-265.41C565.19,-259.15 605.21,-251.47 636.88,-245.4"/>
<polygon fill="black" stroke="black" points="637.68,-248.81 646.84,-243.49 636.36,-241.93 637.68,-248.81"/>
</g>
<!-- n3_port_4 -->
<g id="node40" class="node">
<title>n3_port_4</title>
<polygon fill="white" stroke="black" points="369.07,-350.67 471.1,-327.57 573.12,-350.67 573.03,-388.04 369.17,-388.04 369.07,-350.67"/>
<text text-anchor="middle" x="471.1" y="-364.8" font-family="Times,serif" font-size="14.00">sum</text>
<text text-anchor="middle" x="471.1" y="-349.8" font-family="Times,serif" font-size="14.00">unsigned long</text>
</g>
<!-- n3_port_4&#45;&gt;n0_place_8 -->
<g id="edge9" class="edge">
<title>n3_port_4&#45;&gt;n0_place_8</title>
<path fill="none" stroke="black" d="M562.24,-388.07C569.2,-392.35 575.71,-397.3 581.36,-403 648.9,-471.21 675.45,-584.79 685.44,-648.98"/>
<polygon fill="black" stroke="black" points="682.03,-649.85 686.96,-659.23 688.95,-648.82 682.03,-649.85"/>
</g>
<!-- n3_port_6 -->
<g id="node41" class="node">
<title>n3_port_6</title>
<polygon fill="white" stroke="black" points="427.19,-182.67 471.1,-159.57 515,-182.67 514.96,-220.04 427.23,-220.04 427.19,-182.67"/>
<text text-anchor="middle" x="471.1" y="-196.8" font-family="Times,serif" font-size="14.00">limit</text>
<text text-anchor="middle" x="471.1" y="-181.8" font-family="Times,serif" font-size="14.00">int</text>
</g>
<!-- n3_port_6&#45;&gt;n0_place_9 -->
<g id="edge8" class="edge">
<title>n3_port_6&#45;&gt;n0_place_9</title>
<path fill="none" stroke="black" d="M427.18,-206.55C406.55,-213.8 381.81,-223.58 360.84,-235 334.33,-249.43 306.89,-269.43 286.09,-285.82"/>
<polygon fill="black" stroke="black" points="283.8,-283.17 278.17,-292.14 288.17,-288.64 283.8,-283.17"/>
</g>
<!-- n3_modcall -->
<g id="node42" class="node">
<title>n3_modcall</title>
<polygon fill="white" stroke="black" points="557.1,-142 385.1,-142 385.1,-106 557.1,-106 557.1,-142"/>
<text text-anchor="middle" x="471.1" y="-120.3" font-family="Times,serif" font-size="14.00">feynman_module.plus</text>
</g>
<!-- n4_condition -->
<g id="node43" class="node">
<title>n4_condition</title>
<polygon fill="white" stroke="black" points="924.82,-1859 924.82,-1895 1019.82,-1895 1019.82,-1859 924.82,-1859"/>
<text text-anchor="middle" x="972.32" y="-1873.3" font-family="Times,serif" font-size="14.00">transition4</text>
</g>
<!-- n4_port_2 -->
<g id="node46" class="node">
<title>n4_port_2</title>
<polygon fill="white" stroke="black" points="870.3,-1712.67 972.32,-1689.57 1074.35,-1712.67 1074.25,-1750.04 870.39,-1750.04 870.3,-1712.67"/>
<text text-anchor="middle" x="972.32" y="-1726.8" font-family="Times,serif" font-size="14.00">s</text>
<text text-anchor="middle" x="972.32" y="-1711.8" font-family="Times,serif" font-size="14.00">unsigned long</text>
</g>
<!-- n4_port_2&#45;&gt;n0_place_5 -->
<g id="edge16" class="edge">
<title>n4_port_2&#45;&gt;n0_place_5</title>
<path fill="none" stroke="black" d="M887.6,-1708.64C806.11,-1699.78 683.96,-1700.86 609.36,-1769 566.68,-1807.98 626.41,-1859.8 581.36,-1896 562.26,-1911.35 385.2,-1898.63 360.84,-1896 349.44,-1894.77 337.49,-1892.84 325.84,-1890.59"/>
<polygon fill="black" stroke="black" points="326.2,-1887.09 315.71,-1888.55 324.82,-1893.96 326.2,-1887.09"/>
</g>
<!-- n4_modcall -->
<g id="node47" class="node">
<title>n4_modcall</title>
<polygon fill="white" stroke="black" points="1133.82,-1588 810.82,-1588 810.82,-1552 1133.82,-1552 1133.82,-1588"/>
<text text-anchor="middle" x="972.32" y="-1566.3" font-family="Times,serif" font-size="14.00">feynman_module.feynman_integral_degree</text>
</g>
<!-- n5_condition -->
<g id="node48" class="node">
<title>n5_condition</title>
<polygon fill="white" stroke="black" points="401.6,-1369 401.6,-1431 540.6,-1431 540.6,-1369 401.6,-1369"/>
<text text-anchor="middle" x="471.1" y="-1415.8" font-family="Times,serif" font-size="14.00">transition3</text>
<polyline fill="none" stroke="black" points="401.6,-1408 540.6,-1408 "/>
<text text-anchor="middle" x="471.1" y="-1392.8" font-family="Times,serif" font-size="14.00">(${counter} &gt; 0)</text>
</g>
<!-- n5_port_2 -->
<g id="node52" class="node">
<title>n5_port_2</title>
<polygon fill="white" stroke="black" points="435.43,-1222.67 471.1,-1199.57 506.77,-1222.67 506.74,-1260.04 435.46,-1260.04 435.43,-1222.67"/>
<text text-anchor="middle" x="471.1" y="-1236.8" font-family="Times,serif" font-size="14.00">vec</text>
<text text-anchor="middle" x="471.1" y="-1221.8" font-family="Times,serif" font-size="14.00">list</text>
</g>
<!-- n5_port_2&#45;&gt;n0_place_7 -->
<g id="edge20" class="edge">
<title>n5_port_2&#45;&gt;n0_place_7</title>
<path fill="none" stroke="black" d="M507.26,-1236.26C531.48,-1241.66 562.48,-1252.27 582.82,-1273.63 667.66,-1364.71 687.21,-1518.56 691.74,-1589.36"/>
<path fill="none" stroke="transparent" d="M506.83,-1238.21C530.83,-1243.55 561.83,-1254.17 581.36,-1275 665.67,-1364.96 685.23,-1518.81 689.75,-1589.49"/>
<path fill="none" stroke="black" d="M506.39,-1240.16C530.18,-1245.44 561.19,-1256.06 579.9,-1276.37 663.69,-1365.21 683.25,-1519.07 687.75,-1589.62"/>
<polygon fill="black" stroke="black" points="686.26,-1589.91 690.33,-1599.7 693.25,-1589.51 686.26,-1589.91"/>
</g>
<!-- n5_port_3 -->
<g id="node53" class="node">
<title>n5_port_3</title>
<polygon fill="white" stroke="black" points="401.25,-970.67 471.1,-947.57 540.94,-970.67 540.88,-1008.04 401.32,-1008.04 401.25,-970.67"/>
<text text-anchor="middle" x="471.1" y="-984.8" font-family="Times,serif" font-size="14.00">vec_copy</text>
<text text-anchor="middle" x="471.1" y="-969.8" font-family="Times,serif" font-size="14.00">list</text>
</g>
<!-- n5_port_3&#45;&gt;n0_place_10 -->
<g id="edge19" class="edge">
<title>n5_port_3&#45;&gt;n0_place_10</title>
<path fill="none" stroke="black" d="M541.8,-1005.6C577.33,-1019.22 619.47,-1035.39 650.03,-1047.11"/>
<path fill="none" stroke="transparent" d="M541.09,-1007.46C576.61,-1021.09 618.75,-1037.25 649.31,-1048.98"/>
<path fill="none" stroke="black" d="M540.37,-1009.33C575.89,-1022.96 618.04,-1039.12 648.6,-1050.84"/>
<polygon fill="black" stroke="black" points="648.21,-1052.3 658.8,-1052.62 650.72,-1045.77 648.21,-1052.3"/>
</g>
<!-- n5_modcall -->
<g id="node54" class="node">
<title>n5_modcall</title>
<polygon fill="white" stroke="black" points="569.6,-930 372.6,-930 372.6,-894 569.6,-894 569.6,-930"/>
<text text-anchor="middle" x="471.1" y="-908.3" font-family="Times,serif" font-size="14.00">feynman_module.iterator</text>
</g>
<!-- n6_condition -->
<g id="node55" class="node">
<title>n6_condition</title>
<polygon fill="white" stroke="black" points="423.6,-1847 423.6,-1883 518.6,-1883 518.6,-1847 423.6,-1847"/>
<text text-anchor="middle" x="471.1" y="-1861.3" font-family="Times,serif" font-size="14.00">transition2</text>
</g>
<!-- n6_port_2 -->
<g id="node58" class="node">
<title>n6_port_2</title>
<polygon fill="white" stroke="black" points="435.43,-1616.67 471.1,-1593.57 506.77,-1616.67 506.74,-1654.04 435.46,-1654.04 435.43,-1616.67"/>
<text text-anchor="middle" x="471.1" y="-1630.8" font-family="Times,serif" font-size="14.00">vec</text>
<text text-anchor="middle" x="471.1" y="-1615.8" font-family="Times,serif" font-size="14.00">list</text>
</g>
<!-- n6_port_2&#45;&gt;n0_place_7 -->
<g id="edge25" class="edge">
<title>n6_port_2&#45;&gt;n0_place_7</title>
<path fill="none" stroke="black" d="M506.8,-1625C540.64,-1625 592.73,-1625 632.91,-1625"/>
<path fill="none" stroke="transparent" d="M506.8,-1627C540.64,-1627 592.73,-1627 632.91,-1627"/>
<path fill="none" stroke="black" d="M506.8,-1629C540.64,-1629 592.73,-1629 632.91,-1629"/>
<polygon fill="black" stroke="black" points="633.11,-1630.5 643.11,-1627 633.11,-1623.5 633.11,-1630.5"/>
</g>
<!-- n6_port_3 -->
<g id="node59" class="node">
<title>n6_port_3</title>
<polygon fill="white" stroke="black" points="401.25,-1532.67 471.1,-1509.57 540.94,-1532.67 540.88,-1570.04 401.32,-1570.04 401.25,-1532.67"/>
<text text-anchor="middle" x="471.1" y="-1546.8" font-family="Times,serif" font-size="14.00">vec_copy</text>
<text text-anchor="middle" x="471.1" y="-1531.8" font-family="Times,serif" font-size="14.00">list</text>
</g>
<!-- n6_port_3&#45;&gt;n0_place_10 -->
<g id="edge24" class="edge">
<title>n6_port_3&#45;&gt;n0_place_10</title>
<path fill="none" stroke="black" d="M533.79,-1528.52C550.8,-1522.39 568.15,-1513.08 579.86,-1499.67 632.6,-1440.65 671.11,-1195.87 684.21,-1101.82"/>
<path fill="none" stroke="transparent" d="M534.47,-1530.4C551.74,-1524.15 569.09,-1514.84 581.36,-1501 634.57,-1440.96 673.08,-1196.19 686.19,-1102.09"/>
<path fill="none" stroke="black" d="M535.15,-1532.28C552.69,-1525.91 570.04,-1516.6 582.86,-1502.33 636.55,-1441.27 675.06,-1196.5 688.17,-1102.37"/>
<polygon fill="black" stroke="black" points="689.7,-1102.29 687.59,-1091.9 682.76,-1101.33 689.7,-1102.29"/>
</g>
<!-- n6_modcall -->
<g id="node60" class="node">
<title>n6_modcall</title>
<polygon fill="white" stroke="black" points="562.1,-1492 380.1,-1492 380.1,-1456 562.1,-1456 562.1,-1492"/>
<text text-anchor="middle" x="471.1" y="-1470.3" font-family="Times,serif" font-size="14.00">feynman_module.iterat</text>
</g>
</g>
</svg>
