<?xml version="1.0" encoding="UTF-8" standalone="no"?>
<!DOCTYPE svg PUBLIC "-//W3C//DTD SVG 1.1//EN"
 "http://www.w3.org/Graphics/SVG/1.1/DTD/svg11.dtd">
<!-- Generated by graphviz version 2.43.0 (0)
 -->
<!-- Title: feynman_deg Pages: 1 -->
<svg width="3165pt" height="1294pt"
 viewBox="0.00 0.00 3164.55 1294.00" xmlns="http://www.w3.org/2000/svg" xmlns:xlink="http://www.w3.org/1999/xlink">
<g id="graph0" class="graph" transform="scale(1 1) rotate(0) translate(4 1290)">
<title>feynman_deg</title>
<polygon fill="white" stroke="transparent" points="-4,4 -4,-1290 3160.55,-1290 3160.55,4 -4,4"/>
<g id="clust1" class="cluster">
<title>cluster_0</title>
<polygon fill="dimgray" stroke="black" points="8,-8 8,-1278 3148.55,-1278 3148.55,-8 8,-8"/>
</g>
<g id="clust2" class="cluster">
<title>cluster_net_0</title>
<polygon fill="white" stroke="black" points="159.37,-90 159.37,-944 3140.55,-944 3140.55,-90 159.37,-90"/>
</g>
<g id="clust3" class="cluster">
<title>cluster_1</title>
<polygon fill="yellow" stroke="black" points="2810.38,-240 2810.38,-516 3008.38,-516 3008.38,-240 2810.38,-240"/>
</g>
<g id="clust4" class="cluster">
<title>cluster_2</title>
<polygon fill="yellow" stroke="black" points="2390.32,-466 2390.32,-936 2648.32,-936 2648.32,-466 2390.32,-466"/>
</g>
<g id="clust5" class="cluster">
<title>cluster_3</title>
<polygon fill="yellow" stroke="black" points="2409.05,-98 2409.05,-458 2629.58,-458 2629.58,-98 2409.05,-98"/>
</g>
<g id="clust6" class="cluster">
<title>cluster_4</title>
<polygon fill="yellow" stroke="black" points="1964.59,-145 1964.59,-589 2152.59,-589 2152.59,-145 1964.59,-145"/>
</g>
<g id="clust7" class="cluster">
<title>cluster_5</title>
<polygon fill="yellow" stroke="black" points="1457.16,-324 1457.16,-936 1796.16,-936 1796.16,-324 1457.16,-324"/>
</g>
<g id="clust8" class="cluster">
<title>cluster_6</title>
<polygon fill="yellow" stroke="black" points="1042.57,-438 1042.57,-714 1262.57,-714 1262.57,-438 1042.57,-438"/>
</g>
<g id="clust9" class="cluster">
<title>cluster_7</title>
<polygon fill="yellow" stroke="black" points="631.36,-570 631.36,-930 866.36,-930 866.36,-570 631.36,-570"/>
</g>
<g id="clust10" class="cluster">
<title>cluster_8</title>
<polygon fill="yellow" stroke="black" points="288.71,-654 288.71,-930 470.71,-930 470.71,-654 288.71,-654"/>
</g>
<!-- n0_condition -->
<g id="node1" class="node">
<title>n0_condition</title>
<polygon fill="white" stroke="black" points="18.19,-1098 18.19,-1134 129.19,-1134 129.19,-1098 18.19,-1098"/>
<text text-anchor="middle" x="73.69" y="-1112.3" font-family="Times,serif" font-size="14.00">feynman_deg</text>
</g>
<!-- n0_port_0 -->
<g id="node2" class="node">
<title>n0_port_0</title>
<polygon fill="white" stroke="black" points="131.56,-843.33 73.69,-866.43 15.81,-843.33 15.87,-805.96 131.5,-805.96 131.56,-843.33"/>
<text text-anchor="middle" x="73.69" y="-836.8" font-family="Times,serif" font-size="14.00">degree</text>
<text text-anchor="middle" x="73.69" y="-821.8" font-family="Times,serif" font-size="14.00">int</text>
</g>
<!-- n0_place_5 -->
<g id="node17" class="node">
<title>n0_place_5</title>
<ellipse fill="white" stroke="black" cx="214.04" cy="-833" rx="46.84" ry="26.74"/>
<text text-anchor="middle" x="214.04" y="-836.8" font-family="Times,serif" font-size="14.00">degree</text>
<text text-anchor="middle" x="214.04" y="-821.8" font-family="Times,serif" font-size="14.00">int</text>
</g>
<!-- n0_port_0&#45;&gt;n0_place_5 -->
<g id="edge27" class="edge">
<title>n0_port_0&#45;&gt;n0_place_5</title>
<path fill="none" stroke="black" stroke-dasharray="1,5" d="M131.76,-833C143.52,-833 155.76,-833 167.07,-833"/>
</g>
<!-- n0_port_1 -->
<g id="node3" class="node">
<title>n0_port_1</title>
<polygon fill="white" stroke="black" points="1190.24,-1247.33 1152.57,-1270.43 1114.9,-1247.33 1114.94,-1209.96 1190.2,-1209.96 1190.24,-1247.33"/>
<text text-anchor="middle" x="1152.57" y="-1240.8" font-family="Times,serif" font-size="14.00">deg</text>
<text text-anchor="middle" x="1152.57" y="-1225.8" font-family="Times,serif" font-size="14.00">int</text>
</g>
<!-- n0_place_7 -->
<g id="node15" class="node">
<title>n0_place_7</title>
<ellipse fill="white" stroke="black" cx="1359.87" cy="-874" rx="30.31" ry="26.74"/>
<text text-anchor="middle" x="1359.87" y="-877.8" font-family="Times,serif" font-size="14.00">deg</text>
<text text-anchor="middle" x="1359.87" y="-862.8" font-family="Times,serif" font-size="14.00">int</text>
</g>
<!-- n0_port_1&#45;&gt;n0_place_7 -->
<g id="edge28" class="edge">
<title>n0_port_1&#45;&gt;n0_place_7</title>
<path fill="none" stroke="black" stroke-dasharray="1,5" d="M1190.35,-1231.36C1214.02,-1225.9 1243.76,-1215.31 1262.57,-1195 1341.65,-1109.64 1355.94,-961.73 1358.41,-901.11"/>
</g>
<!-- n0_port_2 -->
<g id="node4" class="node">
<title>n0_port_2</title>
<polygon fill="white" stroke="black" points="2160.62,-995.33 2058.59,-1018.43 1956.57,-995.33 1956.66,-957.96 2160.52,-957.96 2160.62,-995.33"/>
<text text-anchor="middle" x="2058.59" y="-988.8" font-family="Times,serif" font-size="14.00">total</text>
<text text-anchor="middle" x="2058.59" y="-973.8" font-family="Times,serif" font-size="14.00">unsigned long</text>
</g>
<!-- n0_place_11 -->
<g id="node11" class="node">
<title>n0_place_11</title>
<ellipse fill="white" stroke="black" cx="2279.58" cy="-861" rx="82.96" ry="26.74"/>
<text text-anchor="middle" x="2279.58" y="-864.8" font-family="Times,serif" font-size="14.00">total</text>
<text text-anchor="middle" x="2279.58" y="-849.8" font-family="Times,serif" font-size="14.00">unsigned long</text>
</g>
<!-- n0_port_2&#45;&gt;n0_place_11 -->
<g id="edge29" class="edge">
<title>n0_port_2&#45;&gt;n0_place_11</title>
<path fill="none" stroke="black" stroke-dasharray="1,5" d="M2107.38,-957.94C2146.27,-935.92 2200.58,-905.17 2237.53,-884.25"/>
</g>
<!-- n0_port_3 -->
<g id="node5" class="node">
<title>n0_port_3</title>
<polygon fill="white" stroke="black" points="411.14,-995.33 379.71,-1018.43 348.28,-995.33 348.31,-957.96 411.11,-957.96 411.14,-995.33"/>
<text text-anchor="middle" x="379.71" y="-988.8" font-family="Times,serif" font-size="14.00">N</text>
<text text-anchor="middle" x="379.71" y="-973.8" font-family="Times,serif" font-size="14.00">int</text>
</g>
<!-- n0_place_8 -->
<g id="node14" class="node">
<title>n0_place_8</title>
<ellipse fill="white" stroke="black" cx="551.04" cy="-871" rx="27" ry="26.74"/>
<text text-anchor="middle" x="551.04" y="-874.8" font-family="Times,serif" font-size="14.00">N</text>
<text text-anchor="middle" x="551.04" y="-859.8" font-family="Times,serif" font-size="14.00">int</text>
</g>
<!-- n0_port_3&#45;&gt;n0_place_8 -->
<g id="edge30" class="edge">
<title>n0_port_3&#45;&gt;n0_place_8</title>
<path fill="none" stroke="black" stroke-dasharray="1,5" d="M411.42,-969.14C429.15,-959.6 451.65,-946.85 470.71,-934 491.85,-919.74 514.49,-901.42 530.15,-888.22"/>
</g>
<!-- n0_port_4 -->
<g id="node6" class="node">
<title>n0_port_4</title>
<polygon fill="white" stroke="black" points="1204.21,-1163.33 1152.57,-1186.43 1100.93,-1163.33 1100.98,-1125.96 1204.16,-1125.96 1204.21,-1163.33"/>
<text text-anchor="middle" x="1152.57" y="-1156.8" font-family="Times,serif" font-size="14.00">graph</text>
<text text-anchor="middle" x="1152.57" y="-1141.8" font-family="Times,serif" font-size="14.00">list</text>
</g>
<!-- n0_place_1 -->
<g id="node21" class="node">
<title>n0_place_1</title>
<ellipse fill="white" stroke="black" cx="1359.87" cy="-778" rx="41.94" ry="26.74"/>
<text text-anchor="middle" x="1359.87" y="-781.8" font-family="Times,serif" font-size="14.00">graph</text>
<text text-anchor="middle" x="1359.87" y="-766.8" font-family="Times,serif" font-size="14.00">list</text>
</g>
<!-- n0_port_4&#45;&gt;n0_place_1 -->
<g id="edge31" class="edge">
<title>n0_port_4&#45;&gt;n0_place_1</title>
<path fill="none" stroke="black" stroke-dasharray="1,5" d="M1204.3,-1145.45C1225.58,-1139.62 1248.59,-1129.29 1262.57,-1111 1299.6,-1062.55 1262.62,-892.2 1290.57,-838 1299.32,-821.03 1315.06,-806.69 1329.22,-796.3"/>
</g>
<!-- n0_port_5 -->
<g id="node7" class="node">
<title>n0_port_5</title>
<polygon fill="white" stroke="black" points="1204.21,-1079.33 1152.57,-1102.43 1100.93,-1079.33 1100.98,-1041.96 1204.16,-1041.96 1204.21,-1079.33"/>
<text text-anchor="middle" x="1152.57" y="-1072.8" font-family="Times,serif" font-size="14.00">genus</text>
<text text-anchor="middle" x="1152.57" y="-1057.8" font-family="Times,serif" font-size="14.00">string</text>
</g>
<!-- n0_place_15 -->
<g id="node25" class="node">
<title>n0_place_15</title>
<ellipse fill="white" stroke="black" cx="1359.87" cy="-688" rx="41.94" ry="26.74"/>
<text text-anchor="middle" x="1359.87" y="-691.8" font-family="Times,serif" font-size="14.00">genus</text>
<text text-anchor="middle" x="1359.87" y="-676.8" font-family="Times,serif" font-size="14.00">string</text>
</g>
<!-- n0_port_5&#45;&gt;n0_place_15 -->
<g id="edge32" class="edge">
<title>n0_port_5&#45;&gt;n0_place_15</title>
<path fill="none" stroke="black" stroke-dasharray="1,5" d="M1204.33,-1061.47C1225.63,-1055.65 1248.63,-1045.32 1262.57,-1027 1301.11,-976.36 1260.07,-797.85 1290.57,-742 1298.97,-726.61 1313.78,-714.08 1327.47,-704.98"/>
</g>
<!-- n0_port_6 -->
<g id="node8" class="node">
<title>n0_port_6</title>
<polygon fill="white" stroke="black" points="1204.21,-995.33 1152.57,-1018.43 1100.93,-995.33 1100.98,-957.96 1204.16,-957.96 1204.21,-995.33"/>
<text text-anchor="middle" x="1152.57" y="-988.8" font-family="Times,serif" font-size="14.00">loop</text>
<text text-anchor="middle" x="1152.57" y="-973.8" font-family="Times,serif" font-size="14.00">string</text>
</g>
<!-- n0_place_12 -->
<g id="node10" class="node">
<title>n0_place_12</title>
<ellipse fill="white" stroke="black" cx="1359.87" cy="-593" rx="41.94" ry="26.74"/>
<text text-anchor="middle" x="1359.87" y="-596.8" font-family="Times,serif" font-size="14.00">loop</text>
<text text-anchor="middle" x="1359.87" y="-581.8" font-family="Times,serif" font-size="14.00">string</text>
</g>
<!-- n0_port_6&#45;&gt;n0_place_12 -->
<g id="edge33" class="edge">
<title>n0_port_6&#45;&gt;n0_place_12</title>
<path fill="none" stroke="black" stroke-dasharray="1,5" d="M1164.67,-957.78C1196.87,-878.86 1288.16,-655.34 1290.57,-652 1301.56,-636.74 1317.25,-622.83 1330.83,-612.35"/>
</g>
<!-- n0_port_7 -->
<g id="node9" class="node">
<title>n0_port_7</title>
<polygon fill="white" stroke="black" points="2850.01,-38.67 2909.38,-15.57 2968.75,-38.67 2968.7,-76.04 2850.07,-76.04 2850.01,-38.67"/>
<text text-anchor="middle" x="2909.38" y="-52.8" font-family="Times,serif" font-size="14.00">answer</text>
<text text-anchor="middle" x="2909.38" y="-37.8" font-family="Times,serif" font-size="14.00">string</text>
</g>
<!-- n0_place_4 -->
<g id="node18" class="node">
<title>n0_place_4</title>
<ellipse fill="white" stroke="black" cx="3084.47" cy="-159" rx="48.17" ry="26.74"/>
<text text-anchor="middle" x="3084.47" y="-162.8" font-family="Times,serif" font-size="14.00">answer</text>
<text text-anchor="middle" x="3084.47" y="-147.8" font-family="Times,serif" font-size="14.00">string</text>
</g>
<!-- n0_port_7&#45;&gt;n0_place_4 -->
<g id="edge34" class="edge">
<title>n0_port_7&#45;&gt;n0_place_4</title>
<path fill="none" stroke="black" stroke-dasharray="1,5" d="M2953.17,-76.19C2983.8,-95.66 3024.36,-121.44 3052.04,-139.03"/>
</g>
<!-- n5_port_1 -->
<g id="node49" class="node">
<title>n5_port_1</title>
<polygon fill="white" stroke="black" points="1678.3,-597.33 1626.66,-620.43 1575.03,-597.33 1575.08,-559.96 1678.25,-559.96 1678.3,-597.33"/>
<text text-anchor="middle" x="1626.66" y="-590.8" font-family="Times,serif" font-size="14.00">l</text>
<text text-anchor="middle" x="1626.66" y="-575.8" font-family="Times,serif" font-size="14.00">string</text>
</g>
<!-- n0_place_12&#45;&gt;n5_port_1 -->
<g id="edge16" class="edge">
<title>n0_place_12&#45;&gt;n5_port_1</title>
<path fill="none" stroke="black" stroke-dasharray="5,2" d="M1401.66,-592.08C1445.23,-591.09 1514.75,-589.51 1564.79,-588.38"/>
<polygon fill="black" stroke="black" points="1564.93,-591.88 1574.84,-588.15 1564.77,-584.88 1564.93,-591.88"/>
</g>
<!-- n2_port_0 -->
<g id="node31" class="node">
<title>n2_port_0</title>
<polygon fill="white" stroke="black" points="2621.34,-823.33 2519.32,-846.43 2417.29,-823.33 2417.39,-785.96 2621.25,-785.96 2621.34,-823.33"/>
<text text-anchor="middle" x="2519.32" y="-816.8" font-family="Times,serif" font-size="14.00">total</text>
<text text-anchor="middle" x="2519.32" y="-801.8" font-family="Times,serif" font-size="14.00">unsigned long</text>
</g>
<!-- n0_place_11&#45;&gt;n2_port_0 -->
<g id="edge6" class="edge">
<title>n0_place_11&#45;&gt;n2_port_0</title>
<path fill="none" stroke="black" stroke-dasharray="5,2" d="M2350.31,-846.92C2375.45,-841.85 2404.16,-836.05 2430.65,-830.7"/>
<polygon fill="black" stroke="black" points="2431.57,-834.09 2440.68,-828.68 2430.18,-827.22 2431.57,-834.09"/>
</g>
<!-- n0_place_10 -->
<g id="node12" class="node">
<title>n0_place_10</title>
<ellipse fill="white" stroke="black" cx="551.04" cy="-749" rx="52.15" ry="26.74"/>
<text text-anchor="middle" x="551.04" y="-752.8" font-family="Times,serif" font-size="14.00">degrees</text>
<text text-anchor="middle" x="551.04" y="-737.8" font-family="Times,serif" font-size="14.00">int</text>
</g>
<!-- n7_port_0 -->
<g id="node60" class="node">
<title>n7_port_0</title>
<polygon fill="white" stroke="black" points="780.29,-759.33 748.86,-782.43 717.43,-759.33 717.46,-721.96 780.26,-721.96 780.29,-759.33"/>
<text text-anchor="middle" x="748.86" y="-752.8" font-family="Times,serif" font-size="14.00">i</text>
<text text-anchor="middle" x="748.86" y="-737.8" font-family="Times,serif" font-size="14.00">int</text>
</g>
<!-- n0_place_10&#45;&gt;n7_port_0 -->
<g id="edge23" class="edge">
<title>n0_place_10&#45;&gt;n7_port_0</title>
<path fill="none" stroke="black" d="M603.49,-749C635.82,-749 676.96,-749 707.05,-749"/>
<polygon fill="black" stroke="black" points="707.19,-752.5 717.19,-749 707.19,-745.5 707.19,-752.5"/>
</g>
<!-- n0_place_9 -->
<g id="node13" class="node">
<title>n0_place_9</title>
<ellipse fill="white" stroke="black" cx="1872.25" cy="-436" rx="48.17" ry="26.74"/>
<text text-anchor="middle" x="1872.25" y="-439.8" font-family="Times,serif" font-size="14.00">fey_out</text>
<text text-anchor="middle" x="1872.25" y="-424.8" font-family="Times,serif" font-size="14.00">string</text>
</g>
<!-- n4_port_1 -->
<g id="node42" class="node">
<title>n4_port_1</title>
<polygon fill="white" stroke="black" points="2110.23,-502.33 2058.59,-525.43 2006.96,-502.33 2007,-464.96 2110.18,-464.96 2110.23,-502.33"/>
<text text-anchor="middle" x="2058.59" y="-495.8" font-family="Times,serif" font-size="14.00">s</text>
<text text-anchor="middle" x="2058.59" y="-480.8" font-family="Times,serif" font-size="14.00">string</text>
</g>
<!-- n0_place_9&#45;&gt;n4_port_1 -->
<g id="edge13" class="edge">
<title>n0_place_9&#45;&gt;n4_port_1</title>
<path fill="none" stroke="black" d="M1915.08,-448.71C1939.3,-456.06 1970.21,-465.45 1997.05,-473.61"/>
<polygon fill="black" stroke="black" points="1996.14,-476.99 2006.73,-476.55 1998.18,-470.29 1996.14,-476.99"/>
</g>
<!-- n7_port_1 -->
<g id="node61" class="node">
<title>n7_port_1</title>
<polygon fill="white" stroke="black" points="780.29,-843.33 748.86,-866.43 717.43,-843.33 717.46,-805.96 780.26,-805.96 780.29,-843.33"/>
<text text-anchor="middle" x="748.86" y="-836.8" font-family="Times,serif" font-size="14.00">n</text>
<text text-anchor="middle" x="748.86" y="-821.8" font-family="Times,serif" font-size="14.00">int</text>
</g>
<!-- n0_place_8&#45;&gt;n7_port_1 -->
<g id="edge24" class="edge">
<title>n0_place_8&#45;&gt;n7_port_1</title>
<path fill="none" stroke="black" stroke-dasharray="5,2" d="M577.64,-866.03C610.66,-859.62 668.48,-848.4 707.46,-840.84"/>
<polygon fill="black" stroke="black" points="708.28,-844.25 717.43,-838.91 706.95,-837.37 708.28,-844.25"/>
</g>
<!-- n5_port_5 -->
<g id="node52" class="node">
<title>n5_port_5</title>
<polygon fill="white" stroke="black" points="1664.33,-849.33 1626.66,-872.43 1589,-849.33 1589.03,-811.96 1664.29,-811.96 1664.33,-849.33"/>
<text text-anchor="middle" x="1626.66" y="-842.8" font-family="Times,serif" font-size="14.00">deg</text>
<text text-anchor="middle" x="1626.66" y="-827.8" font-family="Times,serif" font-size="14.00">int</text>
</g>
<!-- n0_place_7&#45;&gt;n5_port_5 -->
<g id="edge15" class="edge">
<title>n0_place_7&#45;&gt;n5_port_5</title>
<path fill="none" stroke="black" stroke-dasharray="5,2" d="M1389.96,-870.15C1435.53,-864.13 1524.14,-852.42 1578.79,-845.2"/>
<polygon fill="black" stroke="black" points="1579.45,-848.64 1588.91,-843.86 1578.54,-841.7 1579.45,-848.64"/>
</g>
<!-- n0_place_6 -->
<g id="node16" class="node">
<title>n0_place_6</title>
<ellipse fill="white" stroke="black" cx="1359.87" cy="-512" rx="69.09" ry="26.74"/>
<text text-anchor="middle" x="1359.87" y="-515.8" font-family="Times,serif" font-size="14.00">branchtype</text>
<text text-anchor="middle" x="1359.87" y="-500.8" font-family="Times,serif" font-size="14.00">list</text>
</g>
<!-- n5_port_0 -->
<g id="node48" class="node">
<title>n5_port_0</title>
<polygon fill="white" stroke="black" points="1660.84,-513.33 1626.66,-536.43 1592.49,-513.33 1592.52,-475.96 1660.81,-475.96 1660.84,-513.33"/>
<text text-anchor="middle" x="1626.66" y="-506.8" font-family="Times,serif" font-size="14.00">a</text>
<text text-anchor="middle" x="1626.66" y="-491.8" font-family="Times,serif" font-size="14.00">list</text>
</g>
<!-- n0_place_6&#45;&gt;n5_port_0 -->
<g id="edge17" class="edge">
<title>n0_place_6&#45;&gt;n5_port_0</title>
<path fill="none" stroke="black" d="M1429.06,-509.68C1477.37,-508.04 1540.73,-505.89 1582.29,-504.47"/>
<polygon fill="black" stroke="black" points="1582.49,-507.97 1592.37,-504.13 1582.25,-500.97 1582.49,-507.97"/>
</g>
<!-- n8_port_0 -->
<g id="node65" class="node">
<title>n8_port_0</title>
<polygon fill="white" stroke="black" points="411.14,-843.33 379.71,-866.43 348.28,-843.33 348.31,-805.96 411.11,-805.96 411.14,-843.33"/>
<text text-anchor="middle" x="379.71" y="-836.8" font-family="Times,serif" font-size="14.00">d</text>
<text text-anchor="middle" x="379.71" y="-821.8" font-family="Times,serif" font-size="14.00">int</text>
</g>
<!-- n0_place_5&#45;&gt;n8_port_0 -->
<g id="edge26" class="edge">
<title>n0_place_5&#45;&gt;n8_port_0</title>
<path fill="none" stroke="black" d="M261.07,-833C285.26,-833 314.64,-833 337.99,-833"/>
<polygon fill="black" stroke="black" points="338.26,-836.5 348.26,-833 338.26,-829.5 338.26,-836.5"/>
</g>
<!-- n0_place_3 -->
<g id="node19" class="node">
<title>n0_place_3</title>
<ellipse fill="white" stroke="black" cx="954.47" cy="-623" rx="60.21" ry="26.74"/>
<text text-anchor="middle" x="954.47" y="-626.8" font-family="Times,serif" font-size="14.00">d_vectors</text>
<text text-anchor="middle" x="954.47" y="-611.8" font-family="Times,serif" font-size="14.00">list</text>
</g>
<!-- n6_port_0 -->
<g id="node56" class="node">
<title>n6_port_0</title>
<polygon fill="white" stroke="black" points="1186.75,-627.33 1152.57,-650.43 1118.4,-627.33 1118.43,-589.96 1186.71,-589.96 1186.75,-627.33"/>
<text text-anchor="middle" x="1152.57" y="-620.8" font-family="Times,serif" font-size="14.00">v</text>
<text text-anchor="middle" x="1152.57" y="-605.8" font-family="Times,serif" font-size="14.00">list</text>
</g>
<!-- n0_place_3&#45;&gt;n6_port_0 -->
<g id="edge21" class="edge">
<title>n0_place_3&#45;&gt;n6_port_0</title>
<path fill="none" stroke="black" d="M1014.57,-621.19C1044.67,-620.27 1080.62,-619.17 1108.14,-618.33"/>
<polygon fill="black" stroke="black" points="1108.35,-621.82 1118.24,-618.02 1108.14,-614.83 1108.35,-621.82"/>
</g>
<!-- n0_place_2 -->
<g id="node20" class="node">
<title>n0_place_2</title>
<ellipse fill="white" stroke="black" cx="2279.58" cy="-319" rx="82.96" ry="37.45"/>
<text text-anchor="middle" x="2279.58" y="-330.3" font-family="Times,serif" font-size="14.00">counter_total</text>
<text text-anchor="middle" x="2279.58" y="-315.3" font-family="Times,serif" font-size="14.00">unsigned long</text>
<text text-anchor="middle" x="2279.58" y="-300.3" font-family="Times,serif" font-size="14.00">0UL</text>
</g>
<!-- n2_port_1 -->
<g id="node32" class="node">
<title>n2_port_1</title>
<polygon fill="white" stroke="black" points="2621.34,-655.33 2519.32,-678.43 2417.29,-655.33 2417.39,-617.96 2621.25,-617.96 2621.34,-655.33"/>
<text text-anchor="middle" x="2519.32" y="-648.8" font-family="Times,serif" font-size="14.00">counter_total</text>
<text text-anchor="middle" x="2519.32" y="-633.8" font-family="Times,serif" font-size="14.00">unsigned long</text>
</g>
<!-- n0_place_2&#45;&gt;n2_port_1 -->
<g id="edge5" class="edge">
<title>n0_place_2&#45;&gt;n2_port_1</title>
<path fill="none" stroke="black" d="M2340.63,-344.47C2349.05,-350.41 2356.73,-357.53 2362.32,-366 2420.73,-454.53 2323.16,-520.91 2390.32,-603 2395.47,-609.3 2401.59,-614.66 2408.31,-619.23"/>
<polygon fill="black" stroke="black" points="2406.77,-622.39 2417.13,-624.59 2410.41,-616.41 2406.77,-622.39"/>
</g>
<!-- n3_port_1 -->
<g id="node38" class="node">
<title>n3_port_1</title>
<polygon fill="white" stroke="black" points="2621.34,-287.33 2519.32,-310.43 2417.29,-287.33 2417.39,-249.96 2621.25,-249.96 2621.34,-287.33"/>
<text text-anchor="middle" x="2519.32" y="-280.8" font-family="Times,serif" font-size="14.00">counter_total</text>
<text text-anchor="middle" x="2519.32" y="-265.8" font-family="Times,serif" font-size="14.00">unsigned long</text>
</g>
<!-- n0_place_2&#45;&gt;n3_port_1 -->
<g id="edge8" class="edge">
<title>n0_place_2&#45;&gt;n3_port_1</title>
<path fill="none" stroke="black" d="M2357.11,-305.48C2378.99,-301.62 2403.06,-297.36 2425.78,-293.35"/>
<polygon fill="black" stroke="black" points="2426.53,-296.77 2435.77,-291.58 2425.31,-289.88 2426.53,-296.77"/>
</g>
<!-- n5_port_2 -->
<g id="node50" class="node">
<title>n5_port_2</title>
<polygon fill="white" stroke="black" points="1660.84,-765.33 1626.66,-788.43 1592.49,-765.33 1592.52,-727.96 1660.81,-727.96 1660.84,-765.33"/>
<text text-anchor="middle" x="1626.66" y="-758.8" font-family="Times,serif" font-size="14.00">G</text>
<text text-anchor="middle" x="1626.66" y="-743.8" font-family="Times,serif" font-size="14.00">list</text>
</g>
<!-- n0_place_1&#45;&gt;n5_port_2 -->
<g id="edge19" class="edge">
<title>n0_place_1&#45;&gt;n5_port_2</title>
<path fill="none" stroke="black" stroke-dasharray="5,2" d="M1401.37,-774.48C1450.2,-770.24 1531.93,-763.14 1582.09,-758.78"/>
<polygon fill="black" stroke="black" points="1582.63,-762.25 1592.29,-757.9 1582.03,-755.28 1582.63,-762.25"/>
</g>
<!-- n0_place_0 -->
<g id="node22" class="node">
<title>n0_place_0</title>
<ellipse fill="white" stroke="black" cx="2279.58" cy="-215" rx="47.25" ry="26.74"/>
<text text-anchor="middle" x="2279.58" y="-218.8" font-family="Times,serif" font-size="14.00">ns</text>
<text text-anchor="middle" x="2279.58" y="-203.8" font-family="Times,serif" font-size="14.00">control</text>
</g>
<!-- n3_port_0 -->
<g id="node37" class="node">
<title>n3_port_0</title>
<polygon fill="white" stroke="black" points="2577.94,-203.33 2519.32,-226.43 2460.7,-203.33 2460.75,-165.96 2577.88,-165.96 2577.94,-203.33"/>
<text text-anchor="middle" x="2519.32" y="-196.8" font-family="Times,serif" font-size="14.00">ns</text>
<text text-anchor="middle" x="2519.32" y="-181.8" font-family="Times,serif" font-size="14.00">control</text>
</g>
<!-- n0_place_0&#45;&gt;n3_port_0 -->
<g id="edge9" class="edge">
<title>n0_place_0&#45;&gt;n3_port_0</title>
<path fill="none" stroke="black" d="M2326.42,-210.76C2361.55,-207.51 2410.57,-202.97 2450.27,-199.3"/>
<polygon fill="black" stroke="black" points="2450.77,-202.77 2460.41,-198.36 2450.13,-195.8 2450.77,-202.77"/>
</g>
<!-- n0_place_13 -->
<g id="node23" class="node">
<title>n0_place_13</title>
<ellipse fill="white" stroke="black" cx="2279.58" cy="-412" rx="41.94" ry="37.45"/>
<text text-anchor="middle" x="2279.58" y="-423.3" font-family="Times,serif" font-size="14.00">sum</text>
<text text-anchor="middle" x="2279.58" y="-408.3" font-family="Times,serif" font-size="14.00">string</text>
<text text-anchor="middle" x="2279.58" y="-393.3" font-family="Times,serif" font-size="14.00">&quot; &quot;</text>
</g>
<!-- n2_port_2 -->
<g id="node33" class="node">
<title>n2_port_2</title>
<polygon fill="white" stroke="black" points="2578.68,-739.33 2519.32,-762.43 2459.95,-739.33 2460,-701.96 2578.63,-701.96 2578.68,-739.33"/>
<text text-anchor="middle" x="2519.32" y="-732.8" font-family="Times,serif" font-size="14.00">answer</text>
<text text-anchor="middle" x="2519.32" y="-717.8" font-family="Times,serif" font-size="14.00">string</text>
</g>
<!-- n0_place_13&#45;&gt;n2_port_2 -->
<g id="edge4" class="edge">
<title>n0_place_13&#45;&gt;n2_port_2</title>
<path fill="none" stroke="black" d="M2285.31,-449.18C2294.71,-507.89 2321.19,-622.07 2390.32,-687 2406.73,-702.41 2428.89,-712.17 2450.17,-718.35"/>
<polygon fill="black" stroke="black" points="2449.29,-721.74 2459.85,-720.95 2451.1,-714.98 2449.29,-721.74"/>
</g>
<!-- n4_port_2 -->
<g id="node43" class="node">
<title>n4_port_2</title>
<polygon fill="white" stroke="black" points="2110.23,-418.33 2058.59,-441.43 2006.96,-418.33 2007,-380.96 2110.18,-380.96 2110.23,-418.33"/>
<text text-anchor="middle" x="2058.59" y="-411.8" font-family="Times,serif" font-size="14.00">sum</text>
<text text-anchor="middle" x="2058.59" y="-396.8" font-family="Times,serif" font-size="14.00">string</text>
</g>
<!-- n0_place_13&#45;&gt;n4_port_2 -->
<g id="edge12" class="edge">
<title>n0_place_13&#45;&gt;n4_port_2</title>
<path fill="none" stroke="black" d="M2237.59,-411.25C2204.67,-410.65 2157.95,-409.8 2120.64,-409.12"/>
<polygon fill="black" stroke="black" points="2120.45,-405.61 2110.38,-408.93 2120.32,-412.61 2120.45,-405.61"/>
</g>
<!-- n0_place_14 -->
<g id="node24" class="node">
<title>n0_place_14</title>
<ellipse fill="white" stroke="black" cx="2729.35" cy="-490" rx="53.07" ry="26.74"/>
<text text-anchor="middle" x="2729.35" y="-493.8" font-family="Times,serif" font-size="14.00">fey_sum</text>
<text text-anchor="middle" x="2729.35" y="-478.8" font-family="Times,serif" font-size="14.00">string</text>
</g>
<!-- n1_port_0 -->
<g id="node27" class="node">
<title>n1_port_0</title>
<polygon fill="white" stroke="black" points="2968.75,-429.33 2909.38,-452.43 2850.01,-429.33 2850.07,-391.96 2968.7,-391.96 2968.75,-429.33"/>
<text text-anchor="middle" x="2909.38" y="-422.8" font-family="Times,serif" font-size="14.00">answer</text>
<text text-anchor="middle" x="2909.38" y="-407.8" font-family="Times,serif" font-size="14.00">string</text>
</g>
<!-- n0_place_14&#45;&gt;n1_port_0 -->
<g id="edge2" class="edge">
<title>n0_place_14&#45;&gt;n1_port_0</title>
<path fill="none" stroke="black" d="M2771.64,-473.53C2797.09,-463.38 2829.94,-450.28 2857.06,-439.47"/>
<polygon fill="black" stroke="black" points="2858.4,-442.7 2866.39,-435.75 2855.8,-436.2 2858.4,-442.7"/>
</g>
<!-- n5_port_3 -->
<g id="node51" class="node">
<title>n5_port_3</title>
<polygon fill="white" stroke="black" points="1678.3,-681.33 1626.66,-704.43 1575.03,-681.33 1575.08,-643.96 1678.25,-643.96 1678.3,-681.33"/>
<text text-anchor="middle" x="1626.66" y="-674.8" font-family="Times,serif" font-size="14.00">gg</text>
<text text-anchor="middle" x="1626.66" y="-659.8" font-family="Times,serif" font-size="14.00">string</text>
</g>
<!-- n0_place_15&#45;&gt;n5_port_3 -->
<g id="edge18" class="edge">
<title>n0_place_15&#45;&gt;n5_port_3</title>
<path fill="none" stroke="black" stroke-dasharray="5,2" d="M1401.66,-685.38C1445.23,-682.58 1514.75,-678.12 1564.79,-674.91"/>
<polygon fill="black" stroke="black" points="1565.09,-678.4 1574.84,-674.26 1564.64,-671.41 1565.09,-678.4"/>
</g>
<!-- n1_condition -->
<g id="node26" class="node">
<title>n1_condition</title>
<polygon fill="white" stroke="black" points="2851.38,-471 2851.38,-507 2967.38,-507 2967.38,-471 2851.38,-471"/>
<text text-anchor="middle" x="2909.38" y="-485.3" font-family="Times,serif" font-size="14.00">Quasimodular</text>
</g>
<!-- n1_port_1 -->
<g id="node28" class="node">
<title>n1_port_1</title>
<polygon fill="white" stroke="black" points="2850.01,-324.67 2909.38,-301.57 2968.75,-324.67 2968.7,-362.04 2850.07,-362.04 2850.01,-324.67"/>
<text text-anchor="middle" x="2909.38" y="-338.8" font-family="Times,serif" font-size="14.00">answer</text>
<text text-anchor="middle" x="2909.38" y="-323.8" font-family="Times,serif" font-size="14.00">string</text>
</g>
<!-- n1_port_1&#45;&gt;n0_place_4 -->
<g id="edge1" class="edge">
<title>n1_port_1&#45;&gt;n0_place_4</title>
<path fill="none" stroke="black" d="M2959.62,-321.11C2976.48,-314.59 2994.55,-305.44 3008.38,-293 3038.13,-266.24 3058.8,-224.82 3070.81,-195.12"/>
<polygon fill="black" stroke="black" points="3074.18,-196.12 3074.56,-185.53 3067.66,-193.57 3074.18,-196.12"/>
</g>
<!-- n1_modcall -->
<g id="node29" class="node">
<title>n1_modcall</title>
<polygon fill="white" stroke="black" points="3000.38,-284 2818.38,-284 2818.38,-248 3000.38,-248 3000.38,-284"/>
<text text-anchor="middle" x="2909.38" y="-262.3" font-family="Times,serif" font-size="14.00">feynman_module.Quasi</text>
</g>
<!-- n2_condition -->
<g id="node30" class="node">
<title>n2_condition</title>
<polygon fill="white" stroke="black" points="2398.32,-865 2398.32,-927 2640.32,-927 2640.32,-865 2398.32,-865"/>
<text text-anchor="middle" x="2519.32" y="-911.8" font-family="Times,serif" font-size="14.00">transition7</text>
<polyline fill="none" stroke="black" points="2398.32,-904 2640.32,-904 "/>
<text text-anchor="middle" x="2519.32" y="-888.8" font-family="Times,serif" font-size="14.00">(${counter_total} == ${total})</text>
</g>
<!-- n2_port_3 -->
<g id="node34" class="node">
<title>n2_port_3</title>
<polygon fill="white" stroke="black" points="2459.95,-550.67 2519.32,-527.57 2578.68,-550.67 2578.63,-588.04 2460,-588.04 2459.95,-550.67"/>
<text text-anchor="middle" x="2519.32" y="-564.8" font-family="Times,serif" font-size="14.00">answer</text>
<text text-anchor="middle" x="2519.32" y="-549.8" font-family="Times,serif" font-size="14.00">string</text>
</g>
<!-- n2_port_3&#45;&gt;n0_place_14 -->
<g id="edge3" class="edge">
<title>n2_port_3&#45;&gt;n0_place_14</title>
<path fill="none" stroke="black" d="M2566.94,-546.08C2591.26,-538.2 2621.45,-528.27 2648.32,-519 2657.44,-515.85 2667.12,-512.42 2676.47,-509.06"/>
<polygon fill="black" stroke="black" points="2677.85,-512.28 2686.07,-505.59 2675.47,-505.7 2677.85,-512.28"/>
</g>
<!-- n2_modcall -->
<g id="node35" class="node">
<title>n2_modcall</title>
<polygon fill="white" stroke="black" points="2605.82,-510 2432.82,-510 2432.82,-474 2605.82,-474 2605.82,-510"/>
<text text-anchor="middle" x="2519.32" y="-488.3" font-family="Times,serif" font-size="14.00">feynman_module.final</text>
</g>
<!-- n3_condition -->
<g id="node36" class="node">
<title>n3_condition</title>
<polygon fill="white" stroke="black" points="2471.82,-413 2471.82,-449 2566.82,-449 2566.82,-413 2471.82,-413"/>
<text text-anchor="middle" x="2519.32" y="-427.3" font-family="Times,serif" font-size="14.00">transition6</text>
</g>
<!-- n3_port_2 -->
<g id="node39" class="node">
<title>n3_port_2</title>
<polygon fill="white" stroke="black" points="2417.29,-350.67 2519.32,-327.57 2621.34,-350.67 2621.25,-388.04 2417.39,-388.04 2417.29,-350.67"/>
<text text-anchor="middle" x="2519.32" y="-364.8" font-family="Times,serif" font-size="14.00">counter_total</text>
<text text-anchor="middle" x="2519.32" y="-349.8" font-family="Times,serif" font-size="14.00">unsigned long</text>
</g>
<!-- n3_port_2&#45;&gt;n0_place_2 -->
<g id="edge7" class="edge">
<title>n3_port_2&#45;&gt;n0_place_2</title>
<path fill="none" stroke="black" d="M2435.77,-346.42C2413.63,-342.5 2389.62,-338.26 2367.26,-334.31"/>
<polygon fill="black" stroke="black" points="2367.57,-330.81 2357.11,-332.52 2366.35,-337.71 2367.57,-330.81"/>
</g>
<!-- n3_modcall -->
<g id="node40" class="node">
<title>n3_modcall</title>
<polygon fill="white" stroke="black" points="2619.82,-142 2418.82,-142 2418.82,-106 2619.82,-106 2619.82,-142"/>
<text text-anchor="middle" x="2519.32" y="-120.3" font-family="Times,serif" font-size="14.00">feynman_module.control1</text>
</g>
<!-- n4_condition -->
<g id="node41" class="node">
<title>n4_condition</title>
<polygon fill="white" stroke="black" points="2024.09,-544 2024.09,-580 2093.09,-580 2093.09,-544 2024.09,-544"/>
<text text-anchor="middle" x="2058.59" y="-558.3" font-family="Times,serif" font-size="14.00">Reduce</text>
</g>
<!-- n4_port_0 -->
<g id="node44" class="node">
<title>n4_port_0</title>
<polygon fill="white" stroke="black" points="1999.97,-229.67 2058.59,-206.57 2117.21,-229.67 2117.16,-267.04 2000.03,-267.04 1999.97,-229.67"/>
<text text-anchor="middle" x="2058.59" y="-243.8" font-family="Times,serif" font-size="14.00">ns</text>
<text text-anchor="middle" x="2058.59" y="-228.8" font-family="Times,serif" font-size="14.00">control</text>
</g>
<!-- n4_port_0&#45;&gt;n0_place_0 -->
<g id="edge11" class="edge">
<title>n4_port_0&#45;&gt;n0_place_0</title>
<path fill="none" stroke="black" d="M2117.42,-233.4C2150,-229.68 2190.52,-225.05 2222.77,-221.37"/>
<polygon fill="black" stroke="black" points="2223.39,-224.82 2232.93,-220.21 2222.6,-217.87 2223.39,-224.82"/>
</g>
<!-- n4_port_3 -->
<g id="node45" class="node">
<title>n4_port_3</title>
<polygon fill="white" stroke="black" points="2006.96,-313.67 2058.59,-290.57 2110.23,-313.67 2110.18,-351.04 2007,-351.04 2006.96,-313.67"/>
<text text-anchor="middle" x="2058.59" y="-327.8" font-family="Times,serif" font-size="14.00">sum</text>
<text text-anchor="middle" x="2058.59" y="-312.8" font-family="Times,serif" font-size="14.00">string</text>
</g>
<!-- n4_port_3&#45;&gt;n0_place_13 -->
<g id="edge10" class="edge">
<title>n4_port_3&#45;&gt;n0_place_13</title>
<path fill="none" stroke="black" d="M2110.38,-344.41C2146.88,-359.08 2195.73,-378.71 2231.38,-393.03"/>
<polygon fill="black" stroke="black" points="2230.48,-396.44 2241.06,-396.92 2233.09,-389.95 2230.48,-396.44"/>
</g>
<!-- n4_modcall -->
<g id="node46" class="node">
<title>n4_modcall</title>
<polygon fill="white" stroke="black" points="2144.59,-189 1972.59,-189 1972.59,-153 2144.59,-153 2144.59,-189"/>
<text text-anchor="middle" x="2058.59" y="-167.3" font-family="Times,serif" font-size="14.00">feynman_module.plus</text>
</g>
<!-- n5_condition -->
<g id="node47" class="node">
<title>n5_condition</title>
<polygon fill="white" stroke="black" points="1559.66,-891 1559.66,-927 1693.66,-927 1693.66,-891 1559.66,-891"/>
<text text-anchor="middle" x="1626.66" y="-905.3" font-family="Times,serif" font-size="14.00">feynman_degree</text>
</g>
<!-- n5_port_4 -->
<g id="node53" class="node">
<title>n5_port_4</title>
<polygon fill="white" stroke="black" points="1575.03,-408.67 1626.66,-385.57 1678.3,-408.67 1678.25,-446.04 1575.08,-446.04 1575.03,-408.67"/>
<text text-anchor="middle" x="1626.66" y="-422.8" font-family="Times,serif" font-size="14.00">s</text>
<text text-anchor="middle" x="1626.66" y="-407.8" font-family="Times,serif" font-size="14.00">string</text>
</g>
<!-- n5_port_4&#45;&gt;n0_place_9 -->
<g id="edge14" class="edge">
<title>n5_port_4&#45;&gt;n0_place_9</title>
<path fill="none" stroke="black" d="M1678.43,-422.54C1718.02,-425.31 1773,-429.14 1814.12,-432.01"/>
<polygon fill="black" stroke="black" points="1814.04,-435.52 1824.26,-432.72 1814.53,-428.53 1814.04,-435.52"/>
</g>
<!-- n5_modcall -->
<g id="node54" class="node">
<title>n5_modcall</title>
<polygon fill="white" stroke="black" points="1788.16,-368 1465.16,-368 1465.16,-332 1788.16,-332 1788.16,-368"/>
<text text-anchor="middle" x="1626.66" y="-346.3" font-family="Times,serif" font-size="14.00">feynman_module.feynman_integral_degree</text>
</g>
<!-- n6_condition -->
<g id="node55" class="node">
<title>n6_condition</title>
<polygon fill="white" stroke="black" points="1099.07,-669 1099.07,-705 1206.07,-705 1206.07,-669 1099.07,-669"/>
<text text-anchor="middle" x="1152.57" y="-683.3" font-family="Times,serif" font-size="14.00">Combination</text>
</g>
<!-- n6_port_1 -->
<g id="node57" class="node">
<title>n6_port_1</title>
<polygon fill="white" stroke="black" points="1116.9,-522.67 1152.57,-499.57 1188.24,-522.67 1188.21,-560.04 1116.93,-560.04 1116.9,-522.67"/>
<text text-anchor="middle" x="1152.57" y="-536.8" font-family="Times,serif" font-size="14.00">vec</text>
<text text-anchor="middle" x="1152.57" y="-521.8" font-family="Times,serif" font-size="14.00">list</text>
</g>
<!-- n6_port_1&#45;&gt;n0_place_6 -->
<g id="edge20" class="edge">
<title>n6_port_1&#45;&gt;n0_place_6</title>
<path fill="none" stroke="black" d="M1188.19,-527.45C1213.9,-524.82 1249.87,-521.14 1282.15,-517.84"/>
<path fill="none" stroke="transparent" d="M1188.4,-529.44C1214.1,-526.81 1250.07,-523.13 1282.35,-519.83"/>
<path fill="none" stroke="black" d="M1188.6,-531.43C1214.3,-528.8 1250.28,-525.12 1282.56,-521.82"/>
<polygon fill="black" stroke="black" points="1283.09,-523.27 1292.68,-518.77 1282.38,-516.31 1283.09,-523.27"/>
</g>
<!-- n6_modcall -->
<g id="node58" class="node">
<title>n6_modcall</title>
<polygon fill="white" stroke="black" points="1254.57,-482 1050.57,-482 1050.57,-446 1254.57,-446 1254.57,-482"/>
<text text-anchor="middle" x="1152.57" y="-460.3" font-family="Times,serif" font-size="14.00">feynman_module.partition</text>
</g>
<!-- n7_condition -->
<g id="node59" class="node">
<title>n7_condition</title>
<polygon fill="white" stroke="black" points="709.36,-885 709.36,-921 788.36,-921 788.36,-885 709.36,-885"/>
<text text-anchor="middle" x="748.86" y="-899.3" font-family="Times,serif" font-size="14.00">partition</text>
</g>
<!-- n7_port_2 -->
<g id="node62" class="node">
<title>n7_port_2</title>
<polygon fill="white" stroke="black" points="714.69,-654.67 748.86,-631.57 783.04,-654.67 783,-692.04 714.72,-692.04 714.69,-654.67"/>
<text text-anchor="middle" x="748.86" y="-668.8" font-family="Times,serif" font-size="14.00">v</text>
<text text-anchor="middle" x="748.86" y="-653.8" font-family="Times,serif" font-size="14.00">list</text>
</g>
<!-- n7_port_2&#45;&gt;n0_place_3 -->
<g id="edge22" class="edge">
<title>n7_port_2&#45;&gt;n0_place_3</title>
<path fill="none" stroke="black" d="M782.62,-656.2C811.34,-650.28 853.7,-641.54 889,-634.26"/>
<path fill="none" stroke="transparent" d="M783.03,-658.16C811.74,-652.23 854.1,-643.5 889.4,-636.22"/>
<path fill="none" stroke="black" d="M783.43,-660.12C812.15,-654.19 854.5,-645.46 889.81,-638.17"/>
<polygon fill="black" stroke="black" points="890.54,-639.55 899.63,-634.11 889.13,-632.7 890.54,-639.55"/>
</g>
<!-- n7_modcall -->
<g id="node63" class="node">
<title>n7_modcall</title>
<polygon fill="white" stroke="black" points="858.36,-614 639.36,-614 639.36,-578 858.36,-578 858.36,-614"/>
<text text-anchor="middle" x="748.86" y="-592.3" font-family="Times,serif" font-size="14.00">feynman_module.gen_block_</text>
</g>
<!-- n8_condition -->
<g id="node64" class="node">
<title>n8_condition</title>
<polygon fill="white" stroke="black" points="328.71,-885 328.71,-921 430.71,-921 430.71,-885 328.71,-885"/>
<text text-anchor="middle" x="379.71" y="-899.3" font-family="Times,serif" font-size="14.00">degrees_fey</text>
</g>
<!-- n8_port_1 -->
<g id="node66" class="node">
<title>n8_port_1</title>
<polygon fill="white" stroke="black" points="345.54,-738.67 379.71,-715.57 413.89,-738.67 413.85,-776.04 345.57,-776.04 345.54,-738.67"/>
<text text-anchor="middle" x="379.71" y="-752.8" font-family="Times,serif" font-size="14.00">v</text>
<text text-anchor="middle" x="379.71" y="-737.8" font-family="Times,serif" font-size="14.00">list</text>
</g>
<!-- n8_port_1&#45;&gt;n0_place_10 -->
<g id="edge25" class="edge">
<title>n8_port_1&#45;&gt;n0_place_10</title>
<path fill="none" stroke="black" d="M414.16,-747C435.34,-747 463.37,-747 488.46,-747"/>
<path fill="none" stroke="transparent" d="M414.16,-749C435.34,-749 463.37,-749 488.46,-749"/>
<path fill="none" stroke="black" d="M414.16,-751C435.34,-751 463.37,-751 488.46,-751"/>
<polygon fill="black" stroke="black" points="488.64,-752.5 498.64,-749 488.64,-745.5 488.64,-752.5"/>
</g>
<!-- n8_modcall -->
<g id="node67" class="node">
<title>n8_modcall</title>
<polygon fill="white" stroke="black" points="462.71,-698 296.71,-698 296.71,-662 462.71,-662 462.71,-698"/>
<text text-anchor="middle" x="379.71" y="-676.3" font-family="Times,serif" font-size="14.00">feynman_module.init</text>
</g>
</g>
</svg>
