<?xml version="1.0" encoding="UTF-8" standalone="no"?>
<!DOCTYPE svg PUBLIC "-//W3C//DTD SVG 1.1//EN"
 "http://www.w3.org/Graphics/SVG/1.1/DTD/svg11.dtd">
<!-- Generated by graphviz version 2.43.0 (0)
 -->
<!-- Title: feynman_deg Pages: 1 -->
<svg width="1551pt" height="1702pt"
 viewBox="0.00 0.00 1551.16 1702.00" xmlns="http://www.w3.org/2000/svg" xmlns:xlink="http://www.w3.org/1999/xlink">
<g id="graph0" class="graph" transform="scale(1 1) rotate(0) translate(4 1698)">
<title>feynman_deg</title>
<polygon fill="white" stroke="transparent" points="-4,4 -4,-1698 1547.16,-1698 1547.16,4 -4,4"/>
<g id="clust1" class="cluster">
<title>cluster_0</title>
<polygon fill="dimgray" stroke="black" points="8,-8 8,-1686 1535.16,-1686 1535.16,-8 8,-8"/>
</g>
<g id="clust2" class="cluster">
<title>cluster_net_0</title>
<polygon fill="white" stroke="black" points="159.37,-116 159.37,-1520 1527.16,-1520 1527.16,-116 159.37,-116"/>
</g>
<g id="clust3" class="cluster">
<title>cluster_1</title>
<polygon fill="yellow" stroke="black" points="738.17,-124 738.17,-736 958.7,-736 958.7,-124 738.17,-124"/>
</g>
<g id="clust4" class="cluster">
<title>cluster_2</title>
<polygon fill="yellow" stroke="black" points="1180.16,-733 1180.16,-1203 1519.16,-1203 1519.16,-733 1180.16,-733"/>
</g>
<g id="clust5" class="cluster">
<title>cluster_3</title>
<polygon fill="yellow" stroke="black" points="741.94,-758 741.94,-1144 954.94,-1144 954.94,-758 741.94,-758"/>
</g>
<g id="clust6" class="cluster">
<title>cluster_4</title>
<polygon fill="yellow" stroke="black" points="749.44,-1152 749.44,-1512 947.44,-1512 947.44,-1152 749.44,-1152"/>
</g>
<g id="clust7" class="cluster">
<title>cluster_5</title>
<polygon fill="yellow" stroke="black" points="288.71,-1152 288.71,-1512 516.71,-1512 516.71,-1152 288.71,-1152"/>
</g>
<!-- n0_condition -->
<g id="node1" class="node">
<title>n0_condition</title>
<polygon fill="white" stroke="black" points="18.19,-1554 18.19,-1590 129.19,-1590 129.19,-1554 18.19,-1554"/>
<text text-anchor="middle" x="73.69" y="-1568.3" font-family="Times,serif" font-size="14.00">feynman_deg</text>
</g>
<!-- n0_port_0 -->
<g id="node2" class="node">
<title>n0_port_0</title>
<polygon fill="white" stroke="black" points="131.56,-1425.33 73.69,-1448.43 15.81,-1425.33 15.87,-1387.96 131.5,-1387.96 131.56,-1425.33"/>
<text text-anchor="middle" x="73.69" y="-1418.8" font-family="Times,serif" font-size="14.00">degree</text>
<text text-anchor="middle" x="73.69" y="-1403.8" font-family="Times,serif" font-size="14.00">int</text>
</g>
<!-- n0_place_0 -->
<g id="node8" class="node">
<title>n0_place_0</title>
<ellipse fill="white" stroke="black" cx="214.04" cy="-1415" rx="46.84" ry="26.74"/>
<text text-anchor="middle" x="214.04" y="-1418.8" font-family="Times,serif" font-size="14.00">degree</text>
<text text-anchor="middle" x="214.04" y="-1403.8" font-family="Times,serif" font-size="14.00">int</text>
</g>
<!-- n0_port_0&#45;&gt;n0_place_0 -->
<g id="edge20" class="edge">
<title>n0_port_0&#45;&gt;n0_place_0</title>
<path fill="none" stroke="black" stroke-dasharray="1,5" d="M131.76,-1415C143.52,-1415 155.76,-1415 167.07,-1415"/>
</g>
<!-- n0_port_1 -->
<g id="node3" class="node">
<title>n0_port_1</title>
<polygon fill="white" stroke="black" points="105.12,-1341.33 73.69,-1364.43 42.26,-1341.33 42.29,-1303.96 105.09,-1303.96 105.12,-1341.33"/>
<text text-anchor="middle" x="73.69" y="-1334.8" font-family="Times,serif" font-size="14.00">N</text>
<text text-anchor="middle" x="73.69" y="-1319.8" font-family="Times,serif" font-size="14.00">int</text>
</g>
<!-- n0_place_1 -->
<g id="node9" class="node">
<title>n0_place_1</title>
<ellipse fill="white" stroke="black" cx="214.04" cy="-1331" rx="27" ry="26.74"/>
<text text-anchor="middle" x="214.04" y="-1334.8" font-family="Times,serif" font-size="14.00">N</text>
<text text-anchor="middle" x="214.04" y="-1319.8" font-family="Times,serif" font-size="14.00">int</text>
</g>
<!-- n0_port_1&#45;&gt;n0_place_1 -->
<g id="edge21" class="edge">
<title>n0_port_1&#45;&gt;n0_place_1</title>
<path fill="none" stroke="black" stroke-dasharray="1,5" d="M105.39,-1331C129.75,-1331 163.45,-1331 186.62,-1331"/>
</g>
<!-- n0_port_2 -->
<g id="node4" class="node">
<title>n0_port_2</title>
<polygon fill="white" stroke="black" points="900.07,-1655.33 848.44,-1678.43 796.8,-1655.33 796.85,-1617.96 900.02,-1617.96 900.07,-1655.33"/>
<text text-anchor="middle" x="848.44" y="-1648.8" font-family="Times,serif" font-size="14.00">graph</text>
<text text-anchor="middle" x="848.44" y="-1633.8" font-family="Times,serif" font-size="14.00">list</text>
</g>
<!-- n0_place_6 -->
<g id="node14" class="node">
<title>n0_place_6</title>
<ellipse fill="white" stroke="black" cx="1069.43" cy="-1244" rx="41.94" ry="26.74"/>
<text text-anchor="middle" x="1069.43" y="-1247.8" font-family="Times,serif" font-size="14.00">graph</text>
<text text-anchor="middle" x="1069.43" y="-1232.8" font-family="Times,serif" font-size="14.00">list</text>
</g>
<!-- n0_port_2&#45;&gt;n0_place_6 -->
<g id="edge22" class="edge">
<title>n0_port_2&#45;&gt;n0_place_6</title>
<path fill="none" stroke="black" stroke-dasharray="1,5" d="M900.08,-1635.72C920.73,-1629.59 943.32,-1619.5 958.7,-1603 1049.12,-1505.98 1065.12,-1336.35 1067.89,-1270.86"/>
</g>
<!-- n0_port_3 -->
<g id="node5" class="node">
<title>n0_port_3</title>
<polygon fill="white" stroke="black" points="788.32,-1550.67 848.44,-1527.57 908.55,-1550.67 908.5,-1588.04 788.37,-1588.04 788.32,-1550.67"/>
<text text-anchor="middle" x="848.44" y="-1564.8" font-family="Times,serif" font-size="14.00">vectors</text>
<text text-anchor="middle" x="848.44" y="-1549.8" font-family="Times,serif" font-size="14.00">string</text>
</g>
<!-- n0_place_4 -->
<g id="node12" class="node">
<title>n0_place_4</title>
<ellipse fill="white" stroke="black" cx="1069.43" cy="-1166" rx="48.58" ry="26.74"/>
<text text-anchor="middle" x="1069.43" y="-1169.8" font-family="Times,serif" font-size="14.00">vectors</text>
<text text-anchor="middle" x="1069.43" y="-1154.8" font-family="Times,serif" font-size="14.00">string</text>
</g>
<!-- n0_port_3&#45;&gt;n0_place_4 -->
<g id="edge23" class="edge">
<title>n0_port_3&#45;&gt;n0_place_4</title>
<path fill="none" stroke="black" stroke-dasharray="1,5" d="M907,-1550.02C926.41,-1543.41 946.28,-1532.84 958.7,-1516 999.49,-1460.69 948.27,-1264.98 986.7,-1208 995.97,-1194.24 1011.2,-1184.73 1026.02,-1178.29"/>
</g>
<!-- n0_port_4 -->
<g id="node6" class="node">
<title>n0_port_4</title>
<polygon fill="white" stroke="black" points="353.82,-1559.74 402.71,-1527.85 451.6,-1559.74 451.56,-1611.33 353.86,-1611.33 353.82,-1559.74"/>
<text text-anchor="middle" x="402.71" y="-1585.3" font-family="Times,serif" font-size="14.00">count</text>
<text text-anchor="middle" x="402.71" y="-1570.3" font-family="Times,serif" font-size="14.00">int</text>
<text text-anchor="middle" x="402.71" y="-1555.3" font-family="Times,serif" font-size="14.00">0</text>
</g>
<!-- n0_place_9 -->
<g id="node17" class="node">
<title>n0_place_9</title>
<ellipse fill="white" stroke="black" cx="627.44" cy="-555" rx="39.7" ry="37.45"/>
<text text-anchor="middle" x="627.44" y="-566.3" font-family="Times,serif" font-size="14.00">count</text>
<text text-anchor="middle" x="627.44" y="-551.3" font-family="Times,serif" font-size="14.00">int</text>
<text text-anchor="middle" x="627.44" y="-536.3" font-family="Times,serif" font-size="14.00">0</text>
</g>
<!-- n0_port_4&#45;&gt;n0_place_9 -->
<g id="edge24" class="edge">
<title>n0_port_4&#45;&gt;n0_place_9</title>
<path fill="none" stroke="black" stroke-dasharray="1,5" d="M451.77,-1561.86C475.54,-1553.2 502.2,-1538.91 516.71,-1516 567.81,-1435.32 511.6,-746.57 544.71,-657 555.72,-627.2 579.14,-599.49 598.09,-580.49"/>
</g>
<!-- n0_port_5 -->
<g id="node7" class="node">
<title>n0_port_5</title>
<polygon fill="white" stroke="black" points="300.69,-47.74 402.71,-15.85 504.73,-47.74 504.64,-99.33 300.78,-99.33 300.69,-47.74"/>
<text text-anchor="middle" x="402.71" y="-73.3" font-family="Times,serif" font-size="14.00">sum</text>
<text text-anchor="middle" x="402.71" y="-58.3" font-family="Times,serif" font-size="14.00">unsigned long</text>
<text text-anchor="middle" x="402.71" y="-43.3" font-family="Times,serif" font-size="14.00">0UL</text>
</g>
<!-- n0_place_2 -->
<g id="node10" class="node">
<title>n0_place_2</title>
<ellipse fill="white" stroke="black" cx="627.44" cy="-219" rx="82.96" ry="37.45"/>
<text text-anchor="middle" x="627.44" y="-230.3" font-family="Times,serif" font-size="14.00">sum</text>
<text text-anchor="middle" x="627.44" y="-215.3" font-family="Times,serif" font-size="14.00">unsigned long</text>
<text text-anchor="middle" x="627.44" y="-200.3" font-family="Times,serif" font-size="14.00">0UL</text>
</g>
<!-- n0_port_5&#45;&gt;n0_place_2 -->
<g id="edge25" class="edge">
<title>n0_port_5&#45;&gt;n0_place_2</title>
<path fill="none" stroke="black" stroke-dasharray="1,5" d="M456.78,-99.41C494.86,-126.25 545.62,-162.03 581.67,-187.44"/>
</g>
<!-- n5_port_0 -->
<g id="node43" class="node">
<title>n5_port_0</title>
<polygon fill="white" stroke="black" points="434.14,-1425.33 402.71,-1448.43 371.28,-1425.33 371.31,-1387.96 434.11,-1387.96 434.14,-1425.33"/>
<text text-anchor="middle" x="402.71" y="-1418.8" font-family="Times,serif" font-size="14.00">d</text>
<text text-anchor="middle" x="402.71" y="-1403.8" font-family="Times,serif" font-size="14.00">int</text>
</g>
<!-- n0_place_0&#45;&gt;n5_port_0 -->
<g id="edge18" class="edge">
<title>n0_place_0&#45;&gt;n5_port_0</title>
<path fill="none" stroke="black" d="M261.18,-1415C291.76,-1415 331.51,-1415 360.93,-1415"/>
<polygon fill="black" stroke="black" points="361.26,-1418.5 371.26,-1415 361.26,-1411.5 361.26,-1418.5"/>
</g>
<!-- n5_port_1 -->
<g id="node44" class="node">
<title>n5_port_1</title>
<polygon fill="white" stroke="black" points="434.14,-1341.33 402.71,-1364.43 371.28,-1341.33 371.31,-1303.96 434.11,-1303.96 434.14,-1341.33"/>
<text text-anchor="middle" x="402.71" y="-1334.8" font-family="Times,serif" font-size="14.00">n</text>
<text text-anchor="middle" x="402.71" y="-1319.8" font-family="Times,serif" font-size="14.00">int</text>
</g>
<!-- n0_place_1&#45;&gt;n5_port_1 -->
<g id="edge19" class="edge">
<title>n0_place_1&#45;&gt;n5_port_1</title>
<path fill="none" stroke="black" d="M241.39,-1331C272.49,-1331 324.56,-1331 360.89,-1331"/>
<polygon fill="black" stroke="black" points="361.16,-1334.5 371.16,-1331 361.16,-1327.5 361.16,-1334.5"/>
</g>
<!-- n1_port_2 -->
<g id="node20" class="node">
<title>n1_port_2</title>
<polygon fill="white" stroke="black" points="950.46,-313.33 848.44,-336.43 746.41,-313.33 746.51,-275.96 950.36,-275.96 950.46,-313.33"/>
<text text-anchor="middle" x="848.44" y="-306.8" font-family="Times,serif" font-size="14.00">sum</text>
<text text-anchor="middle" x="848.44" y="-291.8" font-family="Times,serif" font-size="14.00">unsigned long</text>
</g>
<!-- n0_place_2&#45;&gt;n1_port_2 -->
<g id="edge4" class="edge">
<title>n0_place_2&#45;&gt;n1_port_2</title>
<path fill="none" stroke="black" d="M691.2,-243.07C714.84,-252.14 742.07,-262.59 767.11,-272.19"/>
<polygon fill="black" stroke="black" points="765.99,-275.51 776.58,-275.82 768.5,-268.97 765.99,-275.51"/>
</g>
<!-- n0_place_3 -->
<g id="node11" class="node">
<title>n0_place_3</title>
<ellipse fill="white" stroke="black" cx="627.44" cy="-1331" rx="65.11" ry="26.74"/>
<text text-anchor="middle" x="627.44" y="-1334.8" font-family="Times,serif" font-size="14.00">init_vector</text>
<text text-anchor="middle" x="627.44" y="-1319.8" font-family="Times,serif" font-size="14.00">list</text>
</g>
<!-- n4_port_0 -->
<g id="node38" class="node">
<title>n4_port_0</title>
<polygon fill="white" stroke="black" points="882.61,-1425.33 848.44,-1448.43 814.26,-1425.33 814.29,-1387.96 882.58,-1387.96 882.61,-1425.33"/>
<text text-anchor="middle" x="848.44" y="-1418.8" font-family="Times,serif" font-size="14.00">v</text>
<text text-anchor="middle" x="848.44" y="-1403.8" font-family="Times,serif" font-size="14.00">list</text>
</g>
<!-- n0_place_3&#45;&gt;n4_port_0 -->
<g id="edge16" class="edge">
<title>n0_place_3&#45;&gt;n4_port_0</title>
<path fill="none" stroke="black" d="M675.69,-1349.12C714.01,-1363.82 767.56,-1384.36 804.64,-1398.58"/>
<polygon fill="black" stroke="black" points="803.57,-1401.92 814.16,-1402.24 806.07,-1395.39 803.57,-1401.92"/>
</g>
<!-- n2_port_0 -->
<g id="node27" class="node">
<title>n2_port_0</title>
<polygon fill="white" stroke="black" points="1401.3,-1006.33 1349.66,-1029.43 1298.02,-1006.33 1298.07,-968.96 1401.25,-968.96 1401.3,-1006.33"/>
<text text-anchor="middle" x="1349.66" y="-999.8" font-family="Times,serif" font-size="14.00">a</text>
<text text-anchor="middle" x="1349.66" y="-984.8" font-family="Times,serif" font-size="14.00">string</text>
</g>
<!-- n0_place_4&#45;&gt;n2_port_0 -->
<g id="edge9" class="edge">
<title>n0_place_4&#45;&gt;n2_port_0</title>
<path fill="none" stroke="black" d="M1085.42,-1140.44C1103.93,-1111.17 1138.2,-1063.91 1180.16,-1038 1212.59,-1017.97 1254.08,-1007.49 1287.78,-1002"/>
<polygon fill="black" stroke="black" points="1288.6,-1005.41 1297.97,-1000.45 1287.55,-998.49 1288.6,-1005.41"/>
</g>
<!-- n0_place_5 -->
<g id="node13" class="node">
<title>n0_place_5</title>
<ellipse fill="white" stroke="black" cx="1069.43" cy="-937" rx="41.94" ry="26.74"/>
<text text-anchor="middle" x="1069.43" y="-940.8" font-family="Times,serif" font-size="14.00">state</text>
<text text-anchor="middle" x="1069.43" y="-925.8" font-family="Times,serif" font-size="14.00">string</text>
</g>
<!-- n3_port_0 -->
<g id="node33" class="node">
<title>n3_port_0</title>
<polygon fill="white" stroke="black" points="900.07,-947.33 848.44,-970.43 796.8,-947.33 796.85,-909.96 900.02,-909.96 900.07,-947.33"/>
<text text-anchor="middle" x="848.44" y="-940.8" font-family="Times,serif" font-size="14.00">v</text>
<text text-anchor="middle" x="848.44" y="-925.8" font-family="Times,serif" font-size="14.00">string</text>
</g>
<!-- n0_place_5&#45;&gt;n3_port_0 -->
<g id="edge13" class="edge">
<title>n0_place_5&#45;&gt;n3_port_0</title>
<path fill="none" stroke="black" d="M1027.43,-937C994.51,-937 947.8,-937 910.48,-937"/>
<polygon fill="black" stroke="black" points="910.23,-933.5 900.23,-937 910.23,-940.5 910.23,-933.5"/>
</g>
<!-- n2_port_1 -->
<g id="node28" class="node">
<title>n2_port_1</title>
<polygon fill="white" stroke="black" points="1383.83,-1090.33 1349.66,-1113.43 1315.49,-1090.33 1315.52,-1052.96 1383.8,-1052.96 1383.83,-1090.33"/>
<text text-anchor="middle" x="1349.66" y="-1083.8" font-family="Times,serif" font-size="14.00">G</text>
<text text-anchor="middle" x="1349.66" y="-1068.8" font-family="Times,serif" font-size="14.00">list</text>
</g>
<!-- n0_place_6&#45;&gt;n2_port_1 -->
<g id="edge10" class="edge">
<title>n0_place_6&#45;&gt;n2_port_1</title>
<path fill="none" stroke="black" stroke-dasharray="5,2" d="M1106.92,-1232.21C1122.67,-1225.52 1140.19,-1215.69 1152.16,-1202 1176.68,-1173.95 1152.65,-1148.12 1180.16,-1123 1214.29,-1091.83 1267.87,-1082.56 1305.42,-1080.15"/>
<polygon fill="black" stroke="black" points="1305.75,-1083.64 1315.56,-1079.64 1305.4,-1076.65 1305.75,-1083.64"/>
</g>
<!-- n0_place_7 -->
<g id="node15" class="node">
<title>n0_place_7</title>
<ellipse fill="white" stroke="black" cx="627.44" cy="-693" rx="48.17" ry="26.74"/>
<text text-anchor="middle" x="627.44" y="-696.8" font-family="Times,serif" font-size="14.00">fey_out</text>
<text text-anchor="middle" x="627.44" y="-681.8" font-family="Times,serif" font-size="14.00">string</text>
</g>
<!-- n1_port_0 -->
<g id="node19" class="node">
<title>n1_port_0</title>
<polygon fill="white" stroke="black" points="900.07,-649.33 848.44,-672.43 796.8,-649.33 796.85,-611.96 900.02,-611.96 900.07,-649.33"/>
<text text-anchor="middle" x="848.44" y="-642.8" font-family="Times,serif" font-size="14.00">s</text>
<text text-anchor="middle" x="848.44" y="-627.8" font-family="Times,serif" font-size="14.00">string</text>
</g>
<!-- n0_place_7&#45;&gt;n1_port_0 -->
<g id="edge6" class="edge">
<title>n0_place_7&#45;&gt;n1_port_0</title>
<path fill="none" stroke="black" d="M671.71,-682.33C705.43,-674.02 752.59,-662.39 789.56,-653.27"/>
<polygon fill="black" stroke="black" points="790.83,-656.56 799.7,-650.77 789.15,-649.77 790.83,-656.56"/>
</g>
<!-- n0_place_8 -->
<g id="node16" class="node">
<title>n0_place_8</title>
<ellipse fill="white" stroke="black" cx="1069.43" cy="-539" rx="82.96" ry="37.45"/>
<text text-anchor="middle" x="1069.43" y="-550.3" font-family="Times,serif" font-size="14.00">size</text>
<text text-anchor="middle" x="1069.43" y="-535.3" font-family="Times,serif" font-size="14.00">unsigned long</text>
<text text-anchor="middle" x="1069.43" y="-520.3" font-family="Times,serif" font-size="14.00">3UL</text>
</g>
<!-- n2_port_2 -->
<g id="node29" class="node">
<title>n2_port_2</title>
<polygon fill="white" stroke="black" points="1451.68,-838.33 1349.66,-861.43 1247.64,-838.33 1247.73,-800.96 1451.59,-800.96 1451.68,-838.33"/>
<text text-anchor="middle" x="1349.66" y="-831.8" font-family="Times,serif" font-size="14.00">size</text>
<text text-anchor="middle" x="1349.66" y="-816.8" font-family="Times,serif" font-size="14.00">unsigned long</text>
</g>
<!-- n0_place_8&#45;&gt;n2_port_2 -->
<g id="edge8" class="edge">
<title>n0_place_8&#45;&gt;n2_port_2</title>
<path fill="none" stroke="black" d="M1084.74,-575.9C1110.36,-641.19 1163,-771.59 1180.16,-786 1196.6,-799.81 1216.94,-809.18 1237.73,-815.52"/>
<polygon fill="black" stroke="black" points="1237.05,-818.97 1247.63,-818.31 1238.95,-812.23 1237.05,-818.97"/>
</g>
<!-- n1_port_5 -->
<g id="node21" class="node">
<title>n1_port_5</title>
<polygon fill="white" stroke="black" points="897.33,-565.33 848.44,-588.43 799.54,-565.33 799.59,-527.96 897.28,-527.96 897.33,-565.33"/>
<text text-anchor="middle" x="848.44" y="-558.8" font-family="Times,serif" font-size="14.00">count</text>
<text text-anchor="middle" x="848.44" y="-543.8" font-family="Times,serif" font-size="14.00">int</text>
</g>
<!-- n0_place_9&#45;&gt;n1_port_5 -->
<g id="edge5" class="edge">
<title>n0_place_9&#45;&gt;n1_port_5</title>
<path fill="none" stroke="black" d="M667.09,-555C700.9,-555 750.52,-555 789.15,-555"/>
<polygon fill="black" stroke="black" points="789.23,-558.5 799.23,-555 789.23,-551.5 789.23,-558.5"/>
</g>
<!-- n1_condition -->
<g id="node18" class="node">
<title>n1_condition</title>
<polygon fill="white" stroke="black" points="813.94,-691 813.94,-727 882.94,-727 882.94,-691 813.94,-691"/>
<text text-anchor="middle" x="848.44" y="-705.3" font-family="Times,serif" font-size="14.00">Reduce</text>
</g>
<!-- n1_port_1 -->
<g id="node22" class="node">
<title>n1_port_1</title>
<polygon fill="white" stroke="black" points="746.41,-376.67 848.44,-353.57 950.46,-376.67 950.36,-414.04 746.51,-414.04 746.41,-376.67"/>
<text text-anchor="middle" x="848.44" y="-390.8" font-family="Times,serif" font-size="14.00">size</text>
<text text-anchor="middle" x="848.44" y="-375.8" font-family="Times,serif" font-size="14.00">unsigned long</text>
</g>
<!-- n1_port_1&#45;&gt;n0_place_8 -->
<g id="edge3" class="edge">
<title>n1_port_1&#45;&gt;n0_place_8</title>
<path fill="none" stroke="black" d="M931.28,-414.05C940.82,-418.48 950.18,-423.46 958.7,-429 986.81,-447.29 1013.5,-473.76 1033.52,-496.16"/>
<polygon fill="black" stroke="black" points="1031.08,-498.68 1040.31,-503.89 1036.34,-494.06 1031.08,-498.68"/>
</g>
<!-- n1_port_3 -->
<g id="node23" class="node">
<title>n1_port_3</title>
<polygon fill="white" stroke="black" points="746.41,-208.67 848.44,-185.57 950.46,-208.67 950.36,-246.04 746.51,-246.04 746.41,-208.67"/>
<text text-anchor="middle" x="848.44" y="-222.8" font-family="Times,serif" font-size="14.00">sum</text>
<text text-anchor="middle" x="848.44" y="-207.8" font-family="Times,serif" font-size="14.00">unsigned long</text>
</g>
<!-- n1_port_3&#45;&gt;n0_place_2 -->
<g id="edge2" class="edge">
<title>n1_port_3&#45;&gt;n0_place_2</title>
<path fill="none" stroke="black" d="M746.43,-219C737.73,-219 728.96,-219 720.34,-219"/>
<polygon fill="black" stroke="black" points="720.3,-215.5 710.3,-219 720.3,-222.5 720.3,-215.5"/>
</g>
<!-- n1_port_4 -->
<g id="node24" class="node">
<title>n1_port_4</title>
<polygon fill="white" stroke="black" points="799.54,-460.67 848.44,-437.57 897.33,-460.67 897.28,-498.04 799.59,-498.04 799.54,-460.67"/>
<text text-anchor="middle" x="848.44" y="-474.8" font-family="Times,serif" font-size="14.00">count</text>
<text text-anchor="middle" x="848.44" y="-459.8" font-family="Times,serif" font-size="14.00">int</text>
</g>
<!-- n1_port_4&#45;&gt;n0_place_9 -->
<g id="edge1" class="edge">
<title>n1_port_4&#45;&gt;n0_place_9</title>
<path fill="none" stroke="black" d="M799.31,-489.46C762.02,-503.76 710.7,-523.45 674.06,-537.5"/>
<polygon fill="black" stroke="black" points="672.69,-534.28 664.6,-541.13 675.19,-540.82 672.69,-534.28"/>
</g>
<!-- n1_modcall -->
<g id="node25" class="node">
<title>n1_modcall</title>
<polygon fill="white" stroke="black" points="934.44,-168 762.44,-168 762.44,-132 934.44,-132 934.44,-168"/>
<text text-anchor="middle" x="848.44" y="-146.3" font-family="Times,serif" font-size="14.00">feynman_module.plus</text>
</g>
<!-- n2_condition -->
<g id="node26" class="node">
<title>n2_condition</title>
<polygon fill="white" stroke="black" points="1282.66,-1132 1282.66,-1194 1416.66,-1194 1416.66,-1132 1282.66,-1132"/>
<text text-anchor="middle" x="1349.66" y="-1178.8" font-family="Times,serif" font-size="14.00">feynman_degree</text>
<polyline fill="none" stroke="black" points="1282.66,-1171 1416.66,-1171 "/>
<text text-anchor="middle" x="1349.66" y="-1155.8" font-family="Times,serif" font-size="14.00">(${size} &gt; 0UL)</text>
</g>
<!-- n2_port_3 -->
<g id="node30" class="node">
<title>n2_port_3</title>
<polygon fill="white" stroke="black" points="1298.02,-901.67 1349.66,-878.57 1401.3,-901.67 1401.25,-939.04 1298.07,-939.04 1298.02,-901.67"/>
<text text-anchor="middle" x="1349.66" y="-915.8" font-family="Times,serif" font-size="14.00">s</text>
<text text-anchor="middle" x="1349.66" y="-900.8" font-family="Times,serif" font-size="14.00">string</text>
</g>
<!-- n2_port_3&#45;&gt;n0_place_7 -->
<g id="edge7" class="edge">
<title>n2_port_3&#45;&gt;n0_place_7</title>
<path fill="none" stroke="black" d="M1297.93,-902.65C1263.98,-895.6 1218.63,-884.63 1180.16,-870 1076.3,-830.51 1065.7,-783.95 958.7,-754 864.12,-727.53 833.7,-762.78 738.17,-740 715.65,-734.63 691.89,-725 672.26,-715.84"/>
<polygon fill="black" stroke="black" points="673.51,-712.56 662.98,-711.41 670.49,-718.88 673.51,-712.56"/>
</g>
<!-- n2_modcall -->
<g id="node31" class="node">
<title>n2_modcall</title>
<polygon fill="white" stroke="black" points="1511.16,-777 1188.16,-777 1188.16,-741 1511.16,-741 1511.16,-777"/>
<text text-anchor="middle" x="1349.66" y="-755.3" font-family="Times,serif" font-size="14.00">feynman_module.feynman_integral_degree</text>
</g>
<!-- n3_condition -->
<g id="node32" class="node">
<title>n3_condition</title>
<polygon fill="white" stroke="black" points="781.44,-1073 781.44,-1135 915.44,-1135 915.44,-1073 781.44,-1073"/>
<text text-anchor="middle" x="848.44" y="-1119.8" font-family="Times,serif" font-size="14.00">next_partitions</text>
<polyline fill="none" stroke="black" points="781.44,-1112 915.44,-1112 "/>
<text text-anchor="middle" x="848.44" y="-1096.8" font-family="Times,serif" font-size="14.00">(${v} != &quot;stop&quot;)</text>
</g>
<!-- n3_port_1 -->
<g id="node34" class="node">
<title>n3_port_1</title>
<polygon fill="white" stroke="black" points="812.76,-1010.67 848.44,-987.57 884.11,-1010.67 884.07,-1048.04 812.8,-1048.04 812.76,-1010.67"/>
<text text-anchor="middle" x="848.44" y="-1024.8" font-family="Times,serif" font-size="14.00">vec</text>
<text text-anchor="middle" x="848.44" y="-1009.8" font-family="Times,serif" font-size="14.00">list</text>
</g>
<!-- n3_port_1&#45;&gt;n0_place_4 -->
<g id="edge12" class="edge">
<title>n3_port_1&#45;&gt;n0_place_4</title>
<path fill="none" stroke="black" d="M885.1,-1029.17C907.45,-1036.48 936.3,-1047.58 959.76,-1062.31 990.99,-1082.02 1021.01,-1110.83 1041.89,-1132.94"/>
<path fill="none" stroke="transparent" d="M884.48,-1031.07C906.73,-1038.35 935.58,-1049.45 958.7,-1064 989.61,-1083.46 1019.63,-1112.27 1040.43,-1134.31"/>
<path fill="none" stroke="black" d="M883.86,-1032.97C906.01,-1040.21 934.86,-1051.31 957.63,-1065.69 988.22,-1084.91 1018.24,-1113.71 1038.98,-1135.68"/>
<polygon fill="black" stroke="black" points="1038.02,-1136.86 1047.39,-1141.8 1043.15,-1132.09 1038.02,-1136.86"/>
</g>
<!-- n3_port_2 -->
<g id="node35" class="node">
<title>n3_port_2</title>
<polygon fill="white" stroke="black" points="778.59,-842.67 848.44,-819.57 918.28,-842.67 918.22,-880.04 778.66,-880.04 778.59,-842.67"/>
<text text-anchor="middle" x="848.44" y="-856.8" font-family="Times,serif" font-size="14.00">vec_copy</text>
<text text-anchor="middle" x="848.44" y="-841.8" font-family="Times,serif" font-size="14.00">string</text>
</g>
<!-- n3_port_2&#45;&gt;n0_place_5 -->
<g id="edge11" class="edge">
<title>n3_port_2&#45;&gt;n0_place_5</title>
<path fill="none" stroke="black" d="M918.43,-879.46C952.82,-892.65 993.41,-908.23 1023.7,-919.84"/>
<polygon fill="black" stroke="black" points="1022.55,-923.15 1033.14,-923.47 1025.06,-916.62 1022.55,-923.15"/>
</g>
<!-- n3_modcall -->
<g id="node36" class="node">
<title>n3_modcall</title>
<polygon fill="white" stroke="black" points="946.94,-802 749.94,-802 749.94,-766 946.94,-766 946.94,-802"/>
<text text-anchor="middle" x="848.44" y="-780.3" font-family="Times,serif" font-size="14.00">feynman_module.iterator</text>
</g>
<!-- n4_condition -->
<g id="node37" class="node">
<title>n4_condition</title>
<polygon fill="white" stroke="black" points="771.94,-1467 771.94,-1503 924.94,-1503 924.94,-1467 771.94,-1467"/>
<text text-anchor="middle" x="848.44" y="-1481.3" font-family="Times,serif" font-size="14.00">first_next_partition</text>
</g>
<!-- n4_port_1 -->
<g id="node39" class="node">
<title>n4_port_1</title>
<polygon fill="white" stroke="black" points="812.76,-1320.67 848.44,-1297.57 884.11,-1320.67 884.07,-1358.04 812.8,-1358.04 812.76,-1320.67"/>
<text text-anchor="middle" x="848.44" y="-1334.8" font-family="Times,serif" font-size="14.00">vec</text>
<text text-anchor="middle" x="848.44" y="-1319.8" font-family="Times,serif" font-size="14.00">list</text>
</g>
<!-- n4_port_1&#45;&gt;n0_place_4 -->
<g id="edge15" class="edge">
<title>n4_port_1&#45;&gt;n0_place_4</title>
<path fill="none" stroke="black" d="M883.78,-1323.6C907.45,-1318.21 938.27,-1307.57 957.26,-1287.61 983.71,-1262.98 960.28,-1238.15 985.19,-1206.69 994.06,-1196.56 1005.4,-1188.75 1017.12,-1182.53"/>
<path fill="none" stroke="transparent" d="M884.23,-1325.55C908.1,-1320.1 938.93,-1309.46 958.7,-1289 985.17,-1261.61 961.74,-1236.78 986.7,-1208 995.19,-1198.21 1006.53,-1190.4 1018.05,-1184.3"/>
<path fill="none" stroke="black" d="M884.67,-1327.5C908.75,-1321.99 939.58,-1311.35 960.13,-1290.39 986.62,-1260.24 963.19,-1235.4 988.21,-1209.31 996.33,-1199.85 1007.67,-1192.04 1018.99,-1186.07"/>
<polygon fill="black" stroke="black" points="1019.84,-1187.32 1027.28,-1179.77 1016.76,-1181.03 1019.84,-1187.32"/>
</g>
<!-- n4_port_2 -->
<g id="node40" class="node">
<title>n4_port_2</title>
<polygon fill="white" stroke="black" points="778.59,-1236.67 848.44,-1213.57 918.28,-1236.67 918.22,-1274.04 778.66,-1274.04 778.59,-1236.67"/>
<text text-anchor="middle" x="848.44" y="-1250.8" font-family="Times,serif" font-size="14.00">vec_copy</text>
<text text-anchor="middle" x="848.44" y="-1235.8" font-family="Times,serif" font-size="14.00">string</text>
</g>
<!-- n4_port_2&#45;&gt;n0_place_5 -->
<g id="edge14" class="edge">
<title>n4_port_2&#45;&gt;n0_place_5</title>
<path fill="none" stroke="black" d="M910.02,-1233.83C927.54,-1227.54 945.47,-1218.36 958.7,-1205 983.73,-1179.72 973.53,-1163.06 986.7,-1130 1008.85,-1074.37 1036.29,-1010.51 1053.07,-971.99"/>
<polygon fill="black" stroke="black" points="1056.31,-973.33 1057.1,-962.76 1049.89,-970.53 1056.31,-973.33"/>
</g>
<!-- n4_modcall -->
<g id="node41" class="node">
<title>n4_modcall</title>
<polygon fill="white" stroke="black" points="939.44,-1196 757.44,-1196 757.44,-1160 939.44,-1160 939.44,-1196"/>
<text text-anchor="middle" x="848.44" y="-1174.3" font-family="Times,serif" font-size="14.00">feynman_module.iterat</text>
</g>
<!-- n5_condition -->
<g id="node42" class="node">
<title>n5_condition</title>
<polygon fill="white" stroke="black" points="373.71,-1467 373.71,-1503 431.71,-1503 431.71,-1467 373.71,-1467"/>
<text text-anchor="middle" x="402.71" y="-1481.3" font-family="Times,serif" font-size="14.00">initial</text>
</g>
<!-- n5_port_2 -->
<g id="node45" class="node">
<title>n5_port_2</title>
<polygon fill="white" stroke="black" points="368.54,-1236.67 402.71,-1213.57 436.89,-1236.67 436.85,-1274.04 368.57,-1274.04 368.54,-1236.67"/>
<text text-anchor="middle" x="402.71" y="-1250.8" font-family="Times,serif" font-size="14.00">v</text>
<text text-anchor="middle" x="402.71" y="-1235.8" font-family="Times,serif" font-size="14.00">list</text>
</g>
<!-- n5_port_2&#45;&gt;n0_place_3 -->
<g id="edge17" class="edge">
<title>n5_port_2&#45;&gt;n0_place_3</title>
<path fill="none" stroke="black" d="M437.56,-1257.35C460.1,-1265.69 490.58,-1277.01 517.42,-1287.13 534.57,-1293.6 553.21,-1300.7 570.17,-1307.2"/>
<path fill="none" stroke="transparent" d="M436.87,-1259.23C459.41,-1267.56 489.88,-1278.88 516.71,-1289 533.86,-1295.47 552.49,-1302.57 569.45,-1309.07"/>
<path fill="none" stroke="black" d="M436.18,-1261.1C458.71,-1269.44 489.19,-1280.76 516,-1290.87 533.15,-1297.34 551.78,-1304.44 568.74,-1310.93"/>
<polygon fill="black" stroke="black" points="568.63,-1312.5 579.22,-1312.81 571.13,-1305.96 568.63,-1312.5"/>
</g>
<!-- n5_modcall -->
<g id="node46" class="node">
<title>n5_modcall</title>
<polygon fill="white" stroke="black" points="508.71,-1196 296.71,-1196 296.71,-1160 508.71,-1160 508.71,-1196"/>
<text text-anchor="middle" x="402.71" y="-1174.3" font-family="Times,serif" font-size="14.00">feynman_module.gen_block</text>
</g>
</g>
</svg>
