<?xml version="1.0" encoding="UTF-8" standalone="no"?>
<!DOCTYPE svg PUBLIC "-//W3C//DTD SVG 1.1//EN"
 "http://www.w3.org/Graphics/SVG/1.1/DTD/svg11.dtd">
<!-- Generated by graphviz version 2.43.0 (0)
 -->
<!-- Title: feynman_deg Pages: 1 -->
<svg width="2323pt" height="1112pt"
 viewBox="0.00 0.00 2323.45 1112.00" xmlns="http://www.w3.org/2000/svg" xmlns:xlink="http://www.w3.org/1999/xlink">
<g id="graph0" class="graph" transform="scale(1 1) rotate(0) translate(4 1108)">
<title>feynman_deg</title>
<polygon fill="white" stroke="transparent" points="-4,4 -4,-1108 2319.45,-1108 2319.45,4 -4,4"/>
<g id="clust1" class="cluster">
<title>cluster_0</title>
<polygon fill="dimgray" stroke="black" points="8,-8 8,-1096 2307.45,-1096 2307.45,-8 8,-8"/>
</g>
<g id="clust2" class="cluster">
<title>cluster_net_0</title>
<polygon fill="white" stroke="black" points="159.37,-90 159.37,-1014 2299.45,-1014 2299.45,-90 159.37,-90"/>
</g>
<g id="clust3" class="cluster">
<title>cluster_1</title>
<polygon fill="yellow" stroke="black" points="2198.45,-550 2198.45,-910 2291.45,-910 2291.45,-550 2198.45,-550"/>
</g>
<g id="clust4" class="cluster">
<title>cluster_2</title>
<polygon fill="yellow" stroke="black" points="1955.33,-550 1955.33,-994 2088.45,-994 2088.45,-550 1955.33,-550"/>
</g>
<g id="clust5" class="cluster">
<title>cluster_3</title>
<polygon fill="yellow" stroke="black" points="1502.95,-646 1502.95,-1006 1781.95,-1006 1781.95,-646 1502.95,-646"/>
</g>
<g id="clust6" class="cluster">
<title>cluster_4</title>
<polygon fill="yellow" stroke="black" points="1063.51,-573 1063.51,-933 1363.51,-933 1363.51,-573 1063.51,-573"/>
</g>
<g id="clust7" class="cluster">
<title>cluster_5</title>
<polygon fill="yellow" stroke="black" points="650.92,-607 650.92,-883 868.92,-883 868.92,-607 650.92,-607"/>
</g>
<g id="clust8" class="cluster">
<title>cluster_6</title>
<polygon fill="yellow" stroke="black" points="1955.33,-98 1955.33,-542 2088.45,-542 2088.45,-98 1955.33,-98"/>
</g>
<g id="clust9" class="cluster">
<title>cluster_7</title>
<polygon fill="yellow" stroke="black" points="288.71,-646 288.71,-1006 474.71,-1006 474.71,-646 288.71,-646"/>
</g>
<!-- n0_condition -->
<g id="node1" class="node">
<title>n0_condition</title>
<polygon fill="white" stroke="black" points="18.19,-1006 18.19,-1042 129.19,-1042 129.19,-1006 18.19,-1006"/>
<text text-anchor="middle" x="73.69" y="-1020.3" font-family="Times,serif" font-size="14.00">feynman_deg</text>
</g>
<!-- n0_port_0 -->
<g id="node2" class="node">
<title>n0_port_0</title>
<polygon fill="white" stroke="black" points="131.56,-919.33 73.69,-942.43 15.81,-919.33 15.87,-881.96 131.5,-881.96 131.56,-919.33"/>
<text text-anchor="middle" x="73.69" y="-912.8" font-family="Times,serif" font-size="14.00">degree</text>
<text text-anchor="middle" x="73.69" y="-897.8" font-family="Times,serif" font-size="14.00">int</text>
</g>
<!-- n0_place_0 -->
<g id="node6" class="node">
<title>n0_place_0</title>
<ellipse fill="white" stroke="black" cx="214.04" cy="-909" rx="46.84" ry="26.74"/>
<text text-anchor="middle" x="214.04" y="-912.8" font-family="Times,serif" font-size="14.00">degree</text>
<text text-anchor="middle" x="214.04" y="-897.8" font-family="Times,serif" font-size="14.00">int</text>
</g>
<!-- n0_port_0&#45;&gt;n0_place_0 -->
<g id="edge23" class="edge">
<title>n0_port_0&#45;&gt;n0_place_0</title>
<path fill="none" stroke="black" stroke-dasharray="1,5" d="M131.76,-909C143.52,-909 155.76,-909 167.07,-909"/>
</g>
<!-- n0_port_1 -->
<g id="node3" class="node">
<title>n0_port_1</title>
<polygon fill="white" stroke="black" points="105.12,-835.33 73.69,-858.43 42.26,-835.33 42.29,-797.96 105.09,-797.96 105.12,-835.33"/>
<text text-anchor="middle" x="73.69" y="-828.8" font-family="Times,serif" font-size="14.00">N</text>
<text text-anchor="middle" x="73.69" y="-813.8" font-family="Times,serif" font-size="14.00">int</text>
</g>
<!-- n0_place_1 -->
<g id="node7" class="node">
<title>n0_place_1</title>
<ellipse fill="white" stroke="black" cx="214.04" cy="-825" rx="27" ry="26.74"/>
<text text-anchor="middle" x="214.04" y="-828.8" font-family="Times,serif" font-size="14.00">N</text>
<text text-anchor="middle" x="214.04" y="-813.8" font-family="Times,serif" font-size="14.00">int</text>
</g>
<!-- n0_port_1&#45;&gt;n0_place_1 -->
<g id="edge24" class="edge">
<title>n0_port_1&#45;&gt;n0_place_1</title>
<path fill="none" stroke="black" stroke-dasharray="1,5" d="M105.39,-825C129.75,-825 163.45,-825 186.62,-825"/>
</g>
<!-- n0_port_2 -->
<g id="node4" class="node">
<title>n0_port_2</title>
<polygon fill="white" stroke="black" points="811.55,-1065.33 759.92,-1088.43 708.28,-1065.33 708.33,-1027.96 811.51,-1027.96 811.55,-1065.33"/>
<text text-anchor="middle" x="759.92" y="-1058.8" font-family="Times,serif" font-size="14.00">graph</text>
<text text-anchor="middle" x="759.92" y="-1043.8" font-family="Times,serif" font-size="14.00">string</text>
</g>
<!-- n0_place_7 -->
<g id="node13" class="node">
<title>n0_place_7</title>
<ellipse fill="white" stroke="black" cx="966.21" cy="-944" rx="41.94" ry="26.74"/>
<text text-anchor="middle" x="966.21" y="-947.8" font-family="Times,serif" font-size="14.00">graph</text>
<text text-anchor="middle" x="966.21" y="-932.8" font-family="Times,serif" font-size="14.00">string</text>
</g>
<!-- n0_port_2&#45;&gt;n0_place_7 -->
<g id="edge25" class="edge">
<title>n0_port_2&#45;&gt;n0_place_7</title>
<path fill="none" stroke="black" stroke-dasharray="1,5" d="M810.9,-1027.85C849.29,-1006.99 901.12,-978.83 933.86,-961.04"/>
</g>
<!-- n0_port_3 -->
<g id="node5" class="node">
<title>n0_port_3</title>
<polygon fill="white" stroke="black" points="1990.46,-38.67 2021.89,-15.57 2053.32,-38.67 2053.29,-76.04 1990.49,-76.04 1990.46,-38.67"/>
<text text-anchor="middle" x="2021.89" y="-52.8" font-family="Times,serif" font-size="14.00">L</text>
<text text-anchor="middle" x="2021.89" y="-37.8" font-family="Times,serif" font-size="14.00">int</text>
</g>
<!-- n0_place_6 -->
<g id="node12" class="node">
<title>n0_place_6</title>
<ellipse fill="white" stroke="black" cx="2143.45" cy="-277" rx="27" ry="26.74"/>
<text text-anchor="middle" x="2143.45" y="-280.8" font-family="Times,serif" font-size="14.00">L</text>
<text text-anchor="middle" x="2143.45" y="-265.8" font-family="Times,serif" font-size="14.00">int</text>
</g>
<!-- n0_port_3&#45;&gt;n0_place_6 -->
<g id="edge26" class="edge">
<title>n0_port_3&#45;&gt;n0_place_6</title>
<path fill="none" stroke="black" stroke-dasharray="1,5" d="M2053.5,-64.02C2065.92,-71.49 2079.45,-81.6 2088.45,-94 2123.29,-141.98 2135.81,-212.33 2140.19,-250.31"/>
</g>
<!-- n7_port_0 -->
<g id="node49" class="node">
<title>n7_port_0</title>
<polygon fill="white" stroke="black" points="413.14,-919.33 381.71,-942.43 350.28,-919.33 350.31,-881.96 413.11,-881.96 413.14,-919.33"/>
<text text-anchor="middle" x="381.71" y="-912.8" font-family="Times,serif" font-size="14.00">d</text>
<text text-anchor="middle" x="381.71" y="-897.8" font-family="Times,serif" font-size="14.00">int</text>
</g>
<!-- n0_place_0&#45;&gt;n7_port_0 -->
<g id="edge21" class="edge">
<title>n0_place_0&#45;&gt;n7_port_0</title>
<path fill="none" stroke="black" d="M260.75,-909C285.53,-909 315.9,-909 339.88,-909"/>
<polygon fill="black" stroke="black" points="340.06,-912.5 350.06,-909 340.06,-905.5 340.06,-912.5"/>
</g>
<!-- n7_port_1 -->
<g id="node50" class="node">
<title>n7_port_1</title>
<polygon fill="white" stroke="black" points="413.14,-835.33 381.71,-858.43 350.28,-835.33 350.31,-797.96 413.11,-797.96 413.14,-835.33"/>
<text text-anchor="middle" x="381.71" y="-828.8" font-family="Times,serif" font-size="14.00">n</text>
<text text-anchor="middle" x="381.71" y="-813.8" font-family="Times,serif" font-size="14.00">int</text>
</g>
<!-- n0_place_1&#45;&gt;n7_port_1 -->
<g id="edge22" class="edge">
<title>n0_place_1&#45;&gt;n7_port_1</title>
<path fill="none" stroke="black" d="M241.29,-825C267.85,-825 309.28,-825 340.08,-825"/>
<polygon fill="black" stroke="black" points="340.08,-828.5 350.08,-825 340.08,-821.5 340.08,-828.5"/>
</g>
<!-- n0_place_2 -->
<g id="node8" class="node">
<title>n0_place_2</title>
<ellipse fill="white" stroke="black" cx="966.21" cy="-709" rx="69.09" ry="26.74"/>
<text text-anchor="middle" x="966.21" y="-712.8" font-family="Times,serif" font-size="14.00">branchtype</text>
<text text-anchor="middle" x="966.21" y="-697.8" font-family="Times,serif" font-size="14.00">list</text>
</g>
<!-- n4_port_0 -->
<g id="node34" class="node">
<title>n4_port_0</title>
<polygon fill="white" stroke="black" points="1247.69,-762.33 1213.51,-785.43 1179.34,-762.33 1179.37,-724.96 1247.65,-724.96 1247.69,-762.33"/>
<text text-anchor="middle" x="1213.51" y="-755.8" font-family="Times,serif" font-size="14.00">a</text>
<text text-anchor="middle" x="1213.51" y="-740.8" font-family="Times,serif" font-size="14.00">list</text>
</g>
<!-- n0_place_2&#45;&gt;n4_port_0 -->
<g id="edge12" class="edge">
<title>n0_place_2&#45;&gt;n4_port_0</title>
<path fill="none" stroke="black" d="M1029.75,-719.96C1073.4,-727.61 1130.55,-737.63 1169.23,-744.41"/>
<polygon fill="black" stroke="black" points="1168.68,-747.87 1179.14,-746.15 1169.89,-740.98 1168.68,-747.87"/>
</g>
<!-- n0_place_3 -->
<g id="node9" class="node">
<title>n0_place_3</title>
<ellipse fill="white" stroke="black" cx="1868.64" cy="-819" rx="48.17" ry="26.74"/>
<text text-anchor="middle" x="1868.64" y="-822.8" font-family="Times,serif" font-size="14.00">fey_out</text>
<text text-anchor="middle" x="1868.64" y="-807.8" font-family="Times,serif" font-size="14.00">int</text>
</g>
<!-- n2_port_0 -->
<g id="node23" class="node">
<title>n2_port_0</title>
<polygon fill="white" stroke="black" points="2053.32,-907.33 2021.89,-930.43 1990.46,-907.33 1990.49,-869.96 2053.29,-869.96 2053.32,-907.33"/>
<text text-anchor="middle" x="2021.89" y="-900.8" font-family="Times,serif" font-size="14.00">a</text>
<text text-anchor="middle" x="2021.89" y="-885.8" font-family="Times,serif" font-size="14.00">int</text>
</g>
<!-- n0_place_3&#45;&gt;n2_port_0 -->
<g id="edge7" class="edge">
<title>n0_place_3&#45;&gt;n2_port_0</title>
<path fill="none" stroke="black" d="M1904.72,-837.09C1927.52,-848.85 1957.31,-864.21 1981.01,-876.44"/>
<polygon fill="black" stroke="black" points="1979.61,-879.65 1990.1,-881.12 1982.82,-873.43 1979.61,-879.65"/>
</g>
<!-- n6_port_0 -->
<g id="node43" class="node">
<title>n6_port_0</title>
<polygon fill="white" stroke="black" points="2053.32,-455.33 2021.89,-478.43 1990.46,-455.33 1990.49,-417.96 2053.29,-417.96 2053.32,-455.33"/>
<text text-anchor="middle" x="2021.89" y="-448.8" font-family="Times,serif" font-size="14.00">a</text>
<text text-anchor="middle" x="2021.89" y="-433.8" font-family="Times,serif" font-size="14.00">int</text>
</g>
<!-- n0_place_3&#45;&gt;n6_port_0 -->
<g id="edge18" class="edge">
<title>n0_place_3&#45;&gt;n6_port_0</title>
<path fill="none" stroke="black" d="M1876.53,-792.27C1896.78,-713.67 1954.76,-488.8 1955.33,-488 1962.76,-477.63 1973.54,-469.09 1984.22,-462.42"/>
<polygon fill="black" stroke="black" points="1986.21,-465.32 1993.1,-457.27 1982.69,-459.27 1986.21,-465.32"/>
</g>
<!-- n0_place_4 -->
<g id="node10" class="node">
<title>n0_place_4</title>
<ellipse fill="white" stroke="black" cx="562.81" cy="-756" rx="60.21" ry="26.74"/>
<text text-anchor="middle" x="562.81" y="-759.8" font-family="Times,serif" font-size="14.00">d_vectors</text>
<text text-anchor="middle" x="562.81" y="-744.8" font-family="Times,serif" font-size="14.00">list</text>
</g>
<!-- n5_port_0 -->
<g id="node39" class="node">
<title>n5_port_0</title>
<polygon fill="white" stroke="black" points="794.09,-796.33 759.92,-819.43 725.74,-796.33 725.78,-758.96 794.06,-758.96 794.09,-796.33"/>
<text text-anchor="middle" x="759.92" y="-789.8" font-family="Times,serif" font-size="14.00">v</text>
<text text-anchor="middle" x="759.92" y="-774.8" font-family="Times,serif" font-size="14.00">list</text>
</g>
<!-- n0_place_4&#45;&gt;n5_port_0 -->
<g id="edge15" class="edge">
<title>n0_place_4&#45;&gt;n5_port_0</title>
<path fill="none" stroke="black" d="M619.98,-764.64C650.46,-769.32 687.56,-775.03 715.75,-779.36"/>
<polygon fill="black" stroke="black" points="715.29,-782.83 725.7,-780.89 716.35,-775.91 715.29,-782.83"/>
</g>
<!-- n0_place_5 -->
<g id="node11" class="node">
<title>n0_place_5</title>
<ellipse fill="white" stroke="black" cx="1433.23" cy="-764" rx="41.94" ry="26.74"/>
<text text-anchor="middle" x="1433.23" y="-767.8" font-family="Times,serif" font-size="14.00">sign</text>
<text text-anchor="middle" x="1433.23" y="-752.8" font-family="Times,serif" font-size="14.00">string</text>
</g>
<!-- n3_port_0 -->
<g id="node29" class="node">
<title>n3_port_0</title>
<polygon fill="white" stroke="black" points="1694.09,-835.33 1642.45,-858.43 1590.81,-835.33 1590.86,-797.96 1694.04,-797.96 1694.09,-835.33"/>
<text text-anchor="middle" x="1642.45" y="-828.8" font-family="Times,serif" font-size="14.00">a</text>
<text text-anchor="middle" x="1642.45" y="-813.8" font-family="Times,serif" font-size="14.00">string</text>
</g>
<!-- n0_place_5&#45;&gt;n3_port_0 -->
<g id="edge9" class="edge">
<title>n0_place_5&#45;&gt;n3_port_0</title>
<path fill="none" stroke="black" d="M1471.76,-775.05C1502.14,-783.99 1545.54,-796.77 1580.84,-807.16"/>
<polygon fill="black" stroke="black" points="1579.98,-810.55 1590.56,-810.02 1581.96,-803.84 1579.98,-810.55"/>
</g>
<!-- n1_port_1 -->
<g id="node18" class="node">
<title>n1_port_1</title>
<polygon fill="white" stroke="black" points="2276.38,-655.33 2244.95,-678.43 2213.52,-655.33 2213.55,-617.96 2276.35,-617.96 2276.38,-655.33"/>
<text text-anchor="middle" x="2244.95" y="-648.8" font-family="Times,serif" font-size="14.00">l</text>
<text text-anchor="middle" x="2244.95" y="-633.8" font-family="Times,serif" font-size="14.00">int</text>
</g>
<!-- n0_place_6&#45;&gt;n1_port_1 -->
<g id="edge3" class="edge">
<title>n0_place_6&#45;&gt;n1_port_1</title>
<path fill="none" stroke="black" d="M2146.64,-303.75C2152.57,-372.03 2170.43,-551.06 2198.45,-603 2200.63,-607.05 2203.36,-610.92 2206.38,-614.55"/>
<polygon fill="black" stroke="black" points="2204.02,-617.15 2213.39,-622.12 2209.16,-612.4 2204.02,-617.15"/>
</g>
<!-- n3_port_1 -->
<g id="node30" class="node">
<title>n3_port_1</title>
<polygon fill="white" stroke="black" points="1694.09,-919.33 1642.45,-942.43 1590.81,-919.33 1590.86,-881.96 1694.04,-881.96 1694.09,-919.33"/>
<text text-anchor="middle" x="1642.45" y="-912.8" font-family="Times,serif" font-size="14.00">G</text>
<text text-anchor="middle" x="1642.45" y="-897.8" font-family="Times,serif" font-size="14.00">string</text>
</g>
<!-- n0_place_7&#45;&gt;n3_port_1 -->
<g id="edge10" class="edge">
<title>n0_place_7&#45;&gt;n3_port_1</title>
<path fill="none" stroke="black" stroke-dasharray="5,2" d="M1008.05,-944.39C1079.96,-944.83 1233.85,-944.66 1363.51,-937 1438.48,-932.57 1524.46,-923.25 1580.69,-916.58"/>
<polygon fill="black" stroke="black" points="1581.32,-920.03 1590.83,-915.37 1580.49,-913.08 1581.32,-920.03"/>
</g>
<!-- n4_port_1 -->
<g id="node35" class="node">
<title>n4_port_1</title>
<polygon fill="white" stroke="black" points="1265.15,-846.33 1213.51,-869.43 1161.88,-846.33 1161.92,-808.96 1265.1,-808.96 1265.15,-846.33"/>
<text text-anchor="middle" x="1213.51" y="-839.8" font-family="Times,serif" font-size="14.00">G</text>
<text text-anchor="middle" x="1213.51" y="-824.8" font-family="Times,serif" font-size="14.00">string</text>
</g>
<!-- n0_place_7&#45;&gt;n4_port_1 -->
<g id="edge13" class="edge">
<title>n0_place_7&#45;&gt;n4_port_1</title>
<path fill="none" stroke="black" stroke-dasharray="5,2" d="M993.26,-923.12C1011.91,-909.02 1038.11,-890.87 1063.51,-879 1091.42,-865.95 1124.16,-855.97 1151.82,-848.93"/>
<polygon fill="black" stroke="black" points="1152.9,-852.27 1161.77,-846.47 1151.22,-845.48 1152.9,-852.27"/>
</g>
<!-- n0_place_8 -->
<g id="node14" class="node">
<title>n0_place_8</title>
<ellipse fill="white" stroke="black" cx="1868.64" cy="-549" rx="50.41" ry="37.45"/>
<text text-anchor="middle" x="1868.64" y="-560.3" font-family="Times,serif" font-size="14.00">left_init</text>
<text text-anchor="middle" x="1868.64" y="-545.3" font-family="Times,serif" font-size="14.00">control</text>
<text text-anchor="middle" x="1868.64" y="-530.3" font-family="Times,serif" font-size="14.00">[]</text>
</g>
<!-- n6_port_1 -->
<g id="node44" class="node">
<title>n6_port_1</title>
<polygon fill="white" stroke="black" points="2080.51,-371.33 2021.89,-394.43 1963.27,-371.33 1963.32,-333.96 2080.46,-333.96 2080.51,-371.33"/>
<text text-anchor="middle" x="2021.89" y="-364.8" font-family="Times,serif" font-size="14.00">s</text>
<text text-anchor="middle" x="2021.89" y="-349.8" font-family="Times,serif" font-size="14.00">control</text>
</g>
<!-- n0_place_8&#45;&gt;n6_port_1 -->
<g id="edge19" class="edge">
<title>n0_place_8&#45;&gt;n6_port_1</title>
<path fill="none" stroke="black" d="M1884.67,-513.47C1899.32,-481.83 1923.96,-435.62 1955.33,-403 1961.39,-396.7 1968.57,-390.9 1975.93,-385.75"/>
<polygon fill="black" stroke="black" points="1978.18,-388.46 1984.58,-380.02 1974.31,-382.62 1978.18,-388.46"/>
</g>
<!-- n0_place_9 -->
<g id="node15" class="node">
<title>n0_place_9</title>
<ellipse fill="white" stroke="black" cx="1868.64" cy="-330" rx="58.88" ry="26.74"/>
<text text-anchor="middle" x="1868.64" y="-333.8" font-family="Times,serif" font-size="14.00">right_init</text>
<text text-anchor="middle" x="1868.64" y="-318.8" font-family="Times,serif" font-size="14.00">control</text>
</g>
<!-- n2_port_1 -->
<g id="node24" class="node">
<title>n2_port_1</title>
<polygon fill="white" stroke="black" points="2080.51,-655.33 2021.89,-678.43 1963.27,-655.33 1963.32,-617.96 2080.46,-617.96 2080.51,-655.33"/>
<text text-anchor="middle" x="2021.89" y="-648.8" font-family="Times,serif" font-size="14.00">s</text>
<text text-anchor="middle" x="2021.89" y="-633.8" font-family="Times,serif" font-size="14.00">control</text>
</g>
<!-- n0_place_9&#45;&gt;n2_port_1 -->
<g id="edge6" class="edge">
<title>n0_place_9&#45;&gt;n2_port_1</title>
<path fill="none" stroke="black" d="M1878.94,-356.54C1890.69,-390.39 1911.32,-450.78 1927.33,-503 1940.86,-547.13 1927.88,-565.9 1955.33,-603 1957.34,-605.72 1959.58,-608.3 1961.99,-610.76"/>
<polygon fill="black" stroke="black" points="1959.91,-613.6 1969.66,-617.73 1964.62,-608.42 1959.91,-613.6"/>
</g>
<!-- n0_place_10 -->
<g id="node16" class="node">
<title>n0_place_10</title>
<ellipse fill="white" stroke="black" cx="2143.45" cy="-729" rx="27" ry="26.74"/>
<text text-anchor="middle" x="2143.45" y="-732.8" font-family="Times,serif" font-size="14.00">R</text>
<text text-anchor="middle" x="2143.45" y="-717.8" font-family="Times,serif" font-size="14.00">int</text>
</g>
<!-- n1_port_2 -->
<g id="node19" class="node">
<title>n1_port_2</title>
<polygon fill="white" stroke="black" points="2276.38,-739.33 2244.95,-762.43 2213.52,-739.33 2213.55,-701.96 2276.35,-701.96 2276.38,-739.33"/>
<text text-anchor="middle" x="2244.95" y="-732.8" font-family="Times,serif" font-size="14.00">r</text>
<text text-anchor="middle" x="2244.95" y="-717.8" font-family="Times,serif" font-size="14.00">int</text>
</g>
<!-- n0_place_10&#45;&gt;n1_port_2 -->
<g id="edge2" class="edge">
<title>n0_place_10&#45;&gt;n1_port_2</title>
<path fill="none" stroke="black" d="M2170.59,-729C2180.54,-729 2192.13,-729 2203.12,-729"/>
<polygon fill="black" stroke="black" points="2203.4,-732.5 2213.4,-729 2203.4,-725.5 2203.4,-732.5"/>
</g>
<!-- n1_condition -->
<g id="node17" class="node">
<title>n1_condition</title>
<polygon fill="white" stroke="black" points="2210.45,-865 2210.45,-901 2279.45,-901 2279.45,-865 2210.45,-865"/>
<text text-anchor="middle" x="2244.95" y="-879.3" font-family="Times,serif" font-size="14.00">Reduce</text>
</g>
<!-- n1_port_0 -->
<g id="node20" class="node">
<title>n1_port_0</title>
<polygon fill="white" stroke="black" points="2213.52,-802.67 2244.95,-779.57 2276.38,-802.67 2276.35,-840.04 2213.55,-840.04 2213.52,-802.67"/>
<text text-anchor="middle" x="2244.95" y="-816.8" font-family="Times,serif" font-size="14.00">s</text>
<text text-anchor="middle" x="2244.95" y="-801.8" font-family="Times,serif" font-size="14.00">int</text>
</g>
<!-- n1_port_0&#45;&gt;n0_place_3 -->
<g id="edge1" class="edge">
<title>n1_port_0&#45;&gt;n0_place_3</title>
<path fill="none" stroke="black" d="M2213.92,-840.12C2208.63,-845.25 2203.27,-850.69 2198.45,-856 2144.83,-915.15 2160.13,-962.86 2088.45,-998 2035.33,-1024.05 2005.39,-1029.54 1955.33,-998 1905.91,-966.87 1884.37,-898.47 1875.45,-855.82"/>
<polygon fill="black" stroke="black" points="1878.85,-854.97 1873.49,-845.83 1871.98,-856.32 1878.85,-854.97"/>
</g>
<!-- n1_modcall -->
<g id="node21" class="node">
<title>n1_modcall</title>
<polygon fill="white" stroke="black" points="2283.45,-594 2206.45,-594 2206.45,-558 2283.45,-558 2283.45,-594"/>
<text text-anchor="middle" x="2244.95" y="-572.3" font-family="Times,serif" font-size="14.00">sum.add</text>
</g>
<!-- n2_condition -->
<g id="node22" class="node">
<title>n2_condition</title>
<polygon fill="white" stroke="black" points="1994.89,-949 1994.89,-985 2048.89,-985 2048.89,-949 1994.89,-949"/>
<text text-anchor="middle" x="2021.89" y="-963.3" font-family="Times,serif" font-size="14.00">RHS</text>
</g>
<!-- n2_port_2 -->
<g id="node25" class="node">
<title>n2_port_2</title>
<polygon fill="white" stroke="black" points="1990.46,-718.67 2021.89,-695.57 2053.32,-718.67 2053.29,-756.04 1990.49,-756.04 1990.46,-718.67"/>
<text text-anchor="middle" x="2021.89" y="-732.8" font-family="Times,serif" font-size="14.00">a</text>
<text text-anchor="middle" x="2021.89" y="-717.8" font-family="Times,serif" font-size="14.00">int</text>
</g>
<!-- n2_port_2&#45;&gt;n0_place_10 -->
<g id="edge4" class="edge">
<title>n2_port_2&#45;&gt;n0_place_10</title>
<path fill="none" stroke="black" d="M2053.37,-729C2069.41,-729 2089.19,-729 2106.04,-729"/>
<polygon fill="black" stroke="black" points="2106.09,-732.5 2116.09,-729 2106.09,-725.5 2106.09,-732.5"/>
</g>
<!-- n2_port_3 -->
<g id="node26" class="node">
<title>n2_port_3</title>
<polygon fill="white" stroke="black" points="1963.27,-802.67 2021.89,-779.57 2080.51,-802.67 2080.46,-840.04 1963.32,-840.04 1963.27,-802.67"/>
<text text-anchor="middle" x="2021.89" y="-816.8" font-family="Times,serif" font-size="14.00">s</text>
<text text-anchor="middle" x="2021.89" y="-801.8" font-family="Times,serif" font-size="14.00">control</text>
</g>
<!-- n2_port_3&#45;&gt;n0_place_8 -->
<g id="edge5" class="edge">
<title>n2_port_3&#45;&gt;n0_place_8</title>
<path fill="none" stroke="black" d="M1983.31,-794.6C1973.18,-788.23 1962.94,-780.32 1955.33,-771 1913.13,-719.31 1890.07,-644.48 1878.8,-596.28"/>
<polygon fill="black" stroke="black" points="1882.19,-595.4 1876.57,-586.42 1875.36,-596.94 1882.19,-595.4"/>
</g>
<!-- n2_modcall -->
<g id="node27" class="node">
<title>n2_modcall</title>
<polygon fill="white" stroke="black" points="2067.39,-594 1976.39,-594 1976.39,-558 2067.39,-558 2067.39,-594"/>
<text text-anchor="middle" x="2021.89" y="-572.3" font-family="Times,serif" font-size="14.00">token.plus</text>
</g>
<!-- n3_condition -->
<g id="node28" class="node">
<title>n3_condition</title>
<polygon fill="white" stroke="black" points="1575.45,-961 1575.45,-997 1709.45,-997 1709.45,-961 1575.45,-961"/>
<text text-anchor="middle" x="1642.45" y="-975.3" font-family="Times,serif" font-size="14.00">feynman_degree</text>
</g>
<!-- n3_port_2 -->
<g id="node31" class="node">
<title>n3_port_2</title>
<polygon fill="white" stroke="black" points="1611.02,-730.67 1642.45,-707.57 1673.88,-730.67 1673.85,-768.04 1611.05,-768.04 1611.02,-730.67"/>
<text text-anchor="middle" x="1642.45" y="-744.8" font-family="Times,serif" font-size="14.00">s</text>
<text text-anchor="middle" x="1642.45" y="-729.8" font-family="Times,serif" font-size="14.00">int</text>
</g>
<!-- n3_port_2&#45;&gt;n0_place_3 -->
<g id="edge8" class="edge">
<title>n3_port_2&#45;&gt;n0_place_3</title>
<path fill="none" stroke="black" d="M1674.01,-749.28C1702.27,-757.18 1745.31,-769.79 1781.95,-783 1794.77,-787.62 1808.46,-793.12 1821.05,-798.4"/>
<polygon fill="black" stroke="black" points="1819.86,-801.69 1830.43,-802.38 1822.59,-795.25 1819.86,-801.69"/>
</g>
<!-- n3_modcall -->
<g id="node32" class="node">
<title>n3_modcall</title>
<polygon fill="white" stroke="black" points="1773.95,-690 1510.95,-690 1510.95,-654 1773.95,-654 1773.95,-690"/>
<text text-anchor="middle" x="1642.45" y="-668.3" font-family="Times,serif" font-size="14.00">feynman.feynman_integral_degree</text>
</g>
<!-- n4_condition -->
<g id="node33" class="node">
<title>n4_condition</title>
<polygon fill="white" stroke="black" points="1171.01,-888 1171.01,-924 1256.01,-924 1256.01,-888 1171.01,-888"/>
<text text-anchor="middle" x="1213.51" y="-902.3" font-family="Times,serif" font-size="14.00">signature</text>
</g>
<!-- n4_port_2 -->
<g id="node36" class="node">
<title>n4_port_2</title>
<polygon fill="white" stroke="black" points="1179.34,-657.67 1213.51,-634.57 1247.69,-657.67 1247.65,-695.04 1179.37,-695.04 1179.34,-657.67"/>
<text text-anchor="middle" x="1213.51" y="-671.8" font-family="Times,serif" font-size="14.00">s</text>
<text text-anchor="middle" x="1213.51" y="-656.8" font-family="Times,serif" font-size="14.00">list</text>
</g>
<!-- n4_port_2&#45;&gt;n0_place_5 -->
<g id="edge11" class="edge">
<title>n4_port_2&#45;&gt;n0_place_5</title>
<path fill="none" stroke="black" d="M1248.23,-671.56C1279.46,-677.61 1326.61,-689.05 1364.42,-708.22 1377.96,-715.13 1391.16,-724.64 1402.48,-733.88"/>
<path fill="none" stroke="transparent" d="M1247.85,-673.52C1278.98,-679.56 1326.14,-691 1363.51,-710 1376.79,-716.75 1389.99,-726.27 1401.22,-735.43"/>
<path fill="none" stroke="black" d="M1247.47,-675.48C1278.51,-681.5 1325.67,-692.94 1362.6,-711.78 1375.62,-718.37 1388.82,-727.89 1399.95,-736.98"/>
<polygon fill="black" stroke="black" points="1399.12,-738.24 1409.02,-742 1403.62,-732.88 1399.12,-738.24"/>
</g>
<!-- n4_modcall -->
<g id="node37" class="node">
<title>n4_modcall</title>
<polygon fill="white" stroke="black" points="1355.51,-617 1071.51,-617 1071.51,-581 1355.51,-581 1355.51,-617"/>
<text text-anchor="middle" x="1213.51" y="-595.3" font-family="Times,serif" font-size="14.00">signature.signature_and_multiplicitie</text>
</g>
<!-- n5_condition -->
<g id="node38" class="node">
<title>n5_condition</title>
<polygon fill="white" stroke="black" points="706.42,-838 706.42,-874 813.42,-874 813.42,-838 706.42,-838"/>
<text text-anchor="middle" x="759.92" y="-852.3" font-family="Times,serif" font-size="14.00">Combination</text>
</g>
<!-- n5_port_1 -->
<g id="node40" class="node">
<title>n5_port_1</title>
<polygon fill="white" stroke="black" points="724.25,-691.67 759.92,-668.57 795.59,-691.67 795.56,-729.04 724.28,-729.04 724.25,-691.67"/>
<text text-anchor="middle" x="759.92" y="-705.8" font-family="Times,serif" font-size="14.00">vec</text>
<text text-anchor="middle" x="759.92" y="-690.8" font-family="Times,serif" font-size="14.00">list</text>
</g>
<!-- n5_port_1&#45;&gt;n0_place_2 -->
<g id="edge14" class="edge">
<title>n5_port_1&#45;&gt;n0_place_2</title>
<path fill="none" stroke="black" d="M796.11,-701.2C821.12,-702.06 855.74,-703.25 887.15,-704.32"/>
<path fill="none" stroke="transparent" d="M796.04,-703.2C821.05,-704.06 855.67,-705.25 887.08,-706.32"/>
<path fill="none" stroke="black" d="M795.97,-705.2C820.99,-706.06 855.6,-707.25 887.01,-708.32"/>
<polygon fill="black" stroke="black" points="887.03,-709.82 897.15,-706.67 887.27,-702.83 887.03,-709.82"/>
</g>
<!-- n5_modcall -->
<g id="node41" class="node">
<title>n5_modcall</title>
<polygon fill="white" stroke="black" points="860.92,-651 658.92,-651 658.92,-615 860.92,-615 860.92,-651"/>
<text text-anchor="middle" x="759.92" y="-629.3" font-family="Times,serif" font-size="14.00">combination_vec.partition</text>
</g>
<!-- n6_condition -->
<g id="node42" class="node">
<title>n6_condition</title>
<polygon fill="white" stroke="black" points="1994.89,-497 1994.89,-533 2048.89,-533 2048.89,-497 1994.89,-497"/>
<text text-anchor="middle" x="2021.89" y="-511.3" font-family="Times,serif" font-size="14.00">LHS</text>
</g>
<!-- n6_port_2 -->
<g id="node45" class="node">
<title>n6_port_2</title>
<polygon fill="white" stroke="black" points="1990.46,-266.67 2021.89,-243.57 2053.32,-266.67 2053.29,-304.04 1990.49,-304.04 1990.46,-266.67"/>
<text text-anchor="middle" x="2021.89" y="-280.8" font-family="Times,serif" font-size="14.00">a</text>
<text text-anchor="middle" x="2021.89" y="-265.8" font-family="Times,serif" font-size="14.00">int</text>
</g>
<!-- n6_port_2&#45;&gt;n0_place_6 -->
<g id="edge16" class="edge">
<title>n6_port_2&#45;&gt;n0_place_6</title>
<path fill="none" stroke="black" d="M2053.37,-277C2069.41,-277 2089.19,-277 2106.04,-277"/>
<polygon fill="black" stroke="black" points="2106.09,-280.5 2116.09,-277 2106.09,-273.5 2106.09,-280.5"/>
</g>
<!-- n6_port_3 -->
<g id="node46" class="node">
<title>n6_port_3</title>
<polygon fill="white" stroke="black" points="1963.27,-182.67 2021.89,-159.57 2080.51,-182.67 2080.46,-220.04 1963.32,-220.04 1963.27,-182.67"/>
<text text-anchor="middle" x="2021.89" y="-196.8" font-family="Times,serif" font-size="14.00">s</text>
<text text-anchor="middle" x="2021.89" y="-181.8" font-family="Times,serif" font-size="14.00">control</text>
</g>
<!-- n6_port_3&#45;&gt;n0_place_9 -->
<g id="edge17" class="edge">
<title>n6_port_3&#45;&gt;n0_place_9</title>
<path fill="none" stroke="black" d="M1974.98,-220.17C1968.17,-224.83 1961.41,-229.84 1955.33,-235 1933.54,-253.48 1912.01,-277.37 1895.99,-296.57"/>
<polygon fill="black" stroke="black" points="1893.13,-294.54 1889.47,-304.48 1898.53,-298.99 1893.13,-294.54"/>
</g>
<!-- n6_modcall -->
<g id="node47" class="node">
<title>n6_modcall</title>
<polygon fill="white" stroke="black" points="2072.39,-142 1971.39,-142 1971.39,-106 2072.39,-106 2072.39,-142"/>
<text text-anchor="middle" x="2021.89" y="-120.3" font-family="Times,serif" font-size="14.00">token.count</text>
</g>
<!-- n7_condition -->
<g id="node48" class="node">
<title>n7_condition</title>
<polygon fill="white" stroke="black" points="342.21,-961 342.21,-997 421.21,-997 421.21,-961 342.21,-961"/>
<text text-anchor="middle" x="381.71" y="-975.3" font-family="Times,serif" font-size="14.00">partition</text>
</g>
<!-- n7_port_2 -->
<g id="node51" class="node">
<title>n7_port_2</title>
<polygon fill="white" stroke="black" points="347.54,-730.67 381.71,-707.57 415.89,-730.67 415.85,-768.04 347.57,-768.04 347.54,-730.67"/>
<text text-anchor="middle" x="381.71" y="-744.8" font-family="Times,serif" font-size="14.00">v</text>
<text text-anchor="middle" x="381.71" y="-729.8" font-family="Times,serif" font-size="14.00">list</text>
</g>
<!-- n7_port_2&#45;&gt;n0_place_4 -->
<g id="edge20" class="edge">
<title>n7_port_2&#45;&gt;n0_place_4</title>
<path fill="none" stroke="black" d="M416.15,-741.79C437.94,-743.62 467.22,-746.07 493.83,-748.3"/>
<path fill="none" stroke="transparent" d="M415.98,-743.79C437.78,-745.61 467.06,-748.06 493.66,-750.29"/>
<path fill="none" stroke="black" d="M415.81,-745.78C437.61,-747.6 466.89,-750.06 493.49,-752.29"/>
<polygon fill="black" stroke="black" points="493.45,-753.79 503.7,-751.13 494.03,-746.81 493.45,-753.79"/>
</g>
<!-- n7_modcall -->
<g id="node52" class="node">
<title>n7_modcall</title>
<polygon fill="white" stroke="black" points="466.71,-690 296.71,-690 296.71,-654 466.71,-654 466.71,-690"/>
<text text-anchor="middle" x="381.71" y="-668.3" font-family="Times,serif" font-size="14.00">sum_degree.sum_deg</text>
</g>
</g>
</svg>
