<?xml version="1.0" encoding="UTF-8" standalone="no"?>
<!DOCTYPE svg PUBLIC "-//W3C//DTD SVG 1.1//EN"
 "http://www.w3.org/Graphics/SVG/1.1/DTD/svg11.dtd">
<!-- Generated by graphviz version 2.43.0 (0)
 -->
<!-- Title: feynman_deg Pages: 1 -->
<svg width="2410pt" height="602pt"
 viewBox="0.00 0.00 2409.97 602.00" xmlns="http://www.w3.org/2000/svg" xmlns:xlink="http://www.w3.org/1999/xlink">
<g id="graph0" class="graph" transform="scale(1 1) rotate(0) translate(4 598)">
<title>feynman_deg</title>
<polygon fill="white" stroke="transparent" points="-4,4 -4,-598 2405.97,-598 2405.97,4 -4,4"/>
<g id="clust1" class="cluster">
<title>cluster_0</title>
<polygon fill="dimgray" stroke="black" points="8,-8 8,-586 2393.97,-586 2393.97,-8 8,-8"/>
</g>
<g id="clust2" class="cluster">
<title>cluster_net_0</title>
<polygon fill="white" stroke="black" points="159.37,-116 159.37,-504 2385.97,-504 2385.97,-116 159.37,-116"/>
</g>
<g id="clust3" class="cluster">
<title>cluster_1</title>
<polygon fill="yellow" stroke="black" points="2157.44,-124 2157.44,-484 2377.97,-484 2377.97,-124 2157.44,-124"/>
</g>
<g id="clust4" class="cluster">
<title>cluster_2</title>
<polygon fill="yellow" stroke="black" points="1596.98,-136 1596.98,-496 1935.98,-496 1935.98,-136 1596.98,-136"/>
</g>
<g id="clust5" class="cluster">
<title>cluster_3</title>
<polygon fill="yellow" stroke="black" points="1114.51,-124 1114.51,-484 1474.51,-484 1474.51,-124 1114.51,-124"/>
</g>
<g id="clust6" class="cluster">
<title>cluster_4</title>
<polygon fill="yellow" stroke="black" points="699.92,-166 699.92,-442 919.92,-442 919.92,-166 699.92,-166"/>
</g>
<g id="clust7" class="cluster">
<title>cluster_5</title>
<polygon fill="yellow" stroke="black" points="288.71,-136 288.71,-496 523.71,-496 523.71,-136 288.71,-136"/>
</g>
<!-- n0_condition -->
<g id="node1" class="node">
<title>n0_condition</title>
<polygon fill="white" stroke="black" points="18.19,-496 18.19,-532 129.19,-532 129.19,-496 18.19,-496"/>
<text text-anchor="middle" x="73.69" y="-510.3" font-family="Times,serif" font-size="14.00">feynman_deg</text>
</g>
<!-- n0_port_0 -->
<g id="node2" class="node">
<title>n0_port_0</title>
<polygon fill="white" stroke="black" points="131.56,-409.33 73.69,-432.43 15.81,-409.33 15.87,-371.96 131.5,-371.96 131.56,-409.33"/>
<text text-anchor="middle" x="73.69" y="-402.8" font-family="Times,serif" font-size="14.00">degree</text>
<text text-anchor="middle" x="73.69" y="-387.8" font-family="Times,serif" font-size="14.00">int</text>
</g>
<!-- n0_place_0 -->
<g id="node6" class="node">
<title>n0_place_0</title>
<ellipse fill="white" stroke="black" cx="214.04" cy="-399" rx="46.84" ry="26.74"/>
<text text-anchor="middle" x="214.04" y="-402.8" font-family="Times,serif" font-size="14.00">degree</text>
<text text-anchor="middle" x="214.04" y="-387.8" font-family="Times,serif" font-size="14.00">int</text>
</g>
<!-- n0_port_0&#45;&gt;n0_place_0 -->
<g id="edge15" class="edge">
<title>n0_port_0&#45;&gt;n0_place_0</title>
<path fill="none" stroke="black" stroke-dasharray="1,5" d="M131.76,-399C143.52,-399 155.76,-399 167.07,-399"/>
</g>
<!-- n0_port_1 -->
<g id="node3" class="node">
<title>n0_port_1</title>
<polygon fill="white" stroke="black" points="105.12,-325.33 73.69,-348.43 42.26,-325.33 42.29,-287.96 105.09,-287.96 105.12,-325.33"/>
<text text-anchor="middle" x="73.69" y="-318.8" font-family="Times,serif" font-size="14.00">N</text>
<text text-anchor="middle" x="73.69" y="-303.8" font-family="Times,serif" font-size="14.00">int</text>
</g>
<!-- n0_place_1 -->
<g id="node7" class="node">
<title>n0_place_1</title>
<ellipse fill="white" stroke="black" cx="214.04" cy="-315" rx="27" ry="26.74"/>
<text text-anchor="middle" x="214.04" y="-318.8" font-family="Times,serif" font-size="14.00">N</text>
<text text-anchor="middle" x="214.04" y="-303.8" font-family="Times,serif" font-size="14.00">int</text>
</g>
<!-- n0_port_1&#45;&gt;n0_place_1 -->
<g id="edge16" class="edge">
<title>n0_port_1&#45;&gt;n0_place_1</title>
<path fill="none" stroke="black" stroke-dasharray="1,5" d="M105.39,-315C129.75,-315 163.45,-315 186.62,-315"/>
</g>
<!-- n0_port_2 -->
<g id="node4" class="node">
<title>n0_port_2</title>
<polygon fill="white" stroke="black" points="861.55,-555.33 809.92,-578.43 758.28,-555.33 758.33,-517.96 861.51,-517.96 861.55,-555.33"/>
<text text-anchor="middle" x="809.92" y="-548.8" font-family="Times,serif" font-size="14.00">graph</text>
<text text-anchor="middle" x="809.92" y="-533.8" font-family="Times,serif" font-size="14.00">list</text>
</g>
<!-- n0_place_7 -->
<g id="node13" class="node">
<title>n0_place_7</title>
<ellipse fill="white" stroke="black" cx="1017.21" cy="-469" rx="41.94" ry="26.74"/>
<text text-anchor="middle" x="1017.21" y="-472.8" font-family="Times,serif" font-size="14.00">graph</text>
<text text-anchor="middle" x="1017.21" y="-457.8" font-family="Times,serif" font-size="14.00">list</text>
</g>
<!-- n0_port_2&#45;&gt;n0_place_7 -->
<g id="edge17" class="edge">
<title>n0_port_2&#45;&gt;n0_place_7</title>
<path fill="none" stroke="black" stroke-dasharray="1,5" d="M861.67,-526.21C898.59,-512.54 947.68,-494.37 980.53,-482.21"/>
</g>
<!-- n0_port_3 -->
<g id="node5" class="node">
<title>n0_port_3</title>
<polygon fill="white" stroke="black" points="1664.46,-47.74 1766.48,-15.85 1868.5,-47.74 1868.41,-99.33 1664.55,-99.33 1664.46,-47.74"/>
<text text-anchor="middle" x="1766.48" y="-73.3" font-family="Times,serif" font-size="14.00">sum</text>
<text text-anchor="middle" x="1766.48" y="-58.3" font-family="Times,serif" font-size="14.00">unsigned long</text>
<text text-anchor="middle" x="1766.48" y="-43.3" font-family="Times,serif" font-size="14.00">0UL</text>
</g>
<!-- n0_place_3 -->
<g id="node9" class="node">
<title>n0_place_3</title>
<ellipse fill="white" stroke="black" cx="2046.71" cy="-219" rx="82.96" ry="37.45"/>
<text text-anchor="middle" x="2046.71" y="-230.3" font-family="Times,serif" font-size="14.00">sum</text>
<text text-anchor="middle" x="2046.71" y="-215.3" font-family="Times,serif" font-size="14.00">unsigned long</text>
<text text-anchor="middle" x="2046.71" y="-200.3" font-family="Times,serif" font-size="14.00">0UL</text>
</g>
<!-- n0_port_3&#45;&gt;n0_place_3 -->
<g id="edge18" class="edge">
<title>n0_port_3&#45;&gt;n0_place_3</title>
<path fill="none" stroke="black" stroke-dasharray="1,5" d="M1868.59,-98.66C1891.34,-108.36 1914.96,-119.63 1935.98,-132 1961.75,-147.17 1988.09,-167.85 2008.5,-185.24"/>
</g>
<!-- n5_port_0 -->
<g id="node34" class="node">
<title>n5_port_0</title>
<polygon fill="white" stroke="black" points="437.64,-409.33 406.21,-432.43 374.78,-409.33 374.81,-371.96 437.61,-371.96 437.64,-409.33"/>
<text text-anchor="middle" x="406.21" y="-402.8" font-family="Times,serif" font-size="14.00">d</text>
<text text-anchor="middle" x="406.21" y="-387.8" font-family="Times,serif" font-size="14.00">int</text>
</g>
<!-- n0_place_0&#45;&gt;n5_port_0 -->
<g id="edge13" class="edge">
<title>n0_place_0&#45;&gt;n5_port_0</title>
<path fill="none" stroke="black" d="M261.08,-399C292.64,-399 334.13,-399 364.49,-399"/>
<polygon fill="black" stroke="black" points="364.73,-402.5 374.73,-399 364.73,-395.5 364.73,-402.5"/>
</g>
<!-- n5_port_1 -->
<g id="node35" class="node">
<title>n5_port_1</title>
<polygon fill="white" stroke="black" points="437.64,-325.33 406.21,-348.43 374.78,-325.33 374.81,-287.96 437.61,-287.96 437.64,-325.33"/>
<text text-anchor="middle" x="406.21" y="-318.8" font-family="Times,serif" font-size="14.00">n</text>
<text text-anchor="middle" x="406.21" y="-303.8" font-family="Times,serif" font-size="14.00">int</text>
</g>
<!-- n0_place_1&#45;&gt;n5_port_1 -->
<g id="edge14" class="edge">
<title>n0_place_1&#45;&gt;n5_port_1</title>
<path fill="none" stroke="black" d="M241.08,-315C272.98,-315 327.35,-315 364.72,-315"/>
<polygon fill="black" stroke="black" points="364.77,-318.5 374.77,-315 364.77,-311.5 364.77,-318.5"/>
</g>
<!-- n0_place_2 -->
<g id="node8" class="node">
<title>n0_place_2</title>
<ellipse fill="white" stroke="black" cx="1017.21" cy="-282" rx="69.09" ry="26.74"/>
<text text-anchor="middle" x="1017.21" y="-285.8" font-family="Times,serif" font-size="14.00">branchtype</text>
<text text-anchor="middle" x="1017.21" y="-270.8" font-family="Times,serif" font-size="14.00">list</text>
</g>
<!-- n3_port_0 -->
<g id="node25" class="node">
<title>n3_port_0</title>
<polygon fill="white" stroke="black" points="1328.69,-313.33 1294.51,-336.43 1260.34,-313.33 1260.37,-275.96 1328.65,-275.96 1328.69,-313.33"/>
<text text-anchor="middle" x="1294.51" y="-306.8" font-family="Times,serif" font-size="14.00">a</text>
<text text-anchor="middle" x="1294.51" y="-291.8" font-family="Times,serif" font-size="14.00">list</text>
</g>
<!-- n0_place_2&#45;&gt;n3_port_0 -->
<g id="edge8" class="edge">
<title>n0_place_2&#45;&gt;n3_port_0</title>
<path fill="none" stroke="black" d="M1085.56,-287.14C1136.84,-291.05 1205.93,-296.32 1250.1,-299.69"/>
<polygon fill="black" stroke="black" points="1249.99,-303.19 1260.22,-300.46 1250.52,-296.21 1249.99,-303.19"/>
</g>
<!-- n1_port_1 -->
<g id="node16" class="node">
<title>n1_port_1</title>
<polygon fill="white" stroke="black" points="2369.73,-313.33 2267.7,-336.43 2165.68,-313.33 2165.78,-275.96 2369.63,-275.96 2369.73,-313.33"/>
<text text-anchor="middle" x="2267.7" y="-306.8" font-family="Times,serif" font-size="14.00">sum</text>
<text text-anchor="middle" x="2267.7" y="-291.8" font-family="Times,serif" font-size="14.00">unsigned long</text>
</g>
<!-- n0_place_3&#45;&gt;n1_port_1 -->
<g id="edge2" class="edge">
<title>n0_place_3&#45;&gt;n1_port_1</title>
<path fill="none" stroke="black" d="M2110.47,-243.07C2134.11,-252.14 2161.34,-262.59 2186.38,-272.19"/>
<polygon fill="black" stroke="black" points="2185.26,-275.51 2195.85,-275.82 2187.77,-268.97 2185.26,-275.51"/>
</g>
<!-- n0_place_4 -->
<g id="node10" class="node">
<title>n0_place_4</title>
<ellipse fill="white" stroke="black" cx="2046.71" cy="-344" rx="82.96" ry="26.74"/>
<text text-anchor="middle" x="2046.71" y="-347.8" font-family="Times,serif" font-size="14.00">fey_out</text>
<text text-anchor="middle" x="2046.71" y="-332.8" font-family="Times,serif" font-size="14.00">unsigned long</text>
</g>
<!-- n1_port_0 -->
<g id="node15" class="node">
<title>n1_port_0</title>
<polygon fill="white" stroke="black" points="2369.73,-397.33 2267.7,-420.43 2165.68,-397.33 2165.78,-359.96 2369.63,-359.96 2369.73,-397.33"/>
<text text-anchor="middle" x="2267.7" y="-390.8" font-family="Times,serif" font-size="14.00">s</text>
<text text-anchor="middle" x="2267.7" y="-375.8" font-family="Times,serif" font-size="14.00">unsigned long</text>
</g>
<!-- n0_place_4&#45;&gt;n1_port_0 -->
<g id="edge3" class="edge">
<title>n0_place_4&#45;&gt;n1_port_0</title>
<path fill="none" stroke="black" d="M2117.91,-357.78C2129.85,-360.13 2142.51,-362.61 2155.21,-365.11"/>
<polygon fill="black" stroke="black" points="2154.91,-368.62 2165.39,-367.11 2156.26,-361.75 2154.91,-368.62"/>
</g>
<!-- n0_place_5 -->
<g id="node11" class="node">
<title>n0_place_5</title>
<ellipse fill="white" stroke="black" cx="611.81" cy="-288" rx="60.21" ry="26.74"/>
<text text-anchor="middle" x="611.81" y="-291.8" font-family="Times,serif" font-size="14.00">d_vectors</text>
<text text-anchor="middle" x="611.81" y="-276.8" font-family="Times,serif" font-size="14.00">list</text>
</g>
<!-- n4_port_0 -->
<g id="node30" class="node">
<title>n4_port_0</title>
<polygon fill="white" stroke="black" points="844.09,-355.33 809.92,-378.43 775.74,-355.33 775.78,-317.96 844.06,-317.96 844.09,-355.33"/>
<text text-anchor="middle" x="809.92" y="-348.8" font-family="Times,serif" font-size="14.00">v</text>
<text text-anchor="middle" x="809.92" y="-333.8" font-family="Times,serif" font-size="14.00">list</text>
</g>
<!-- n0_place_5&#45;&gt;n4_port_0 -->
<g id="edge11" class="edge">
<title>n0_place_5&#45;&gt;n4_port_0</title>
<path fill="none" stroke="black" d="M662.55,-302.46C694.36,-311.7 735.21,-323.58 765.67,-332.43"/>
<polygon fill="black" stroke="black" points="764.99,-335.88 775.57,-335.31 766.95,-329.16 764.99,-335.88"/>
</g>
<!-- n0_place_6 -->
<g id="node12" class="node">
<title>n0_place_6</title>
<ellipse fill="white" stroke="black" cx="1535.75" cy="-267" rx="33.47" ry="26.74"/>
<text text-anchor="middle" x="1535.75" y="-270.8" font-family="Times,serif" font-size="14.00">sign</text>
<text text-anchor="middle" x="1535.75" y="-255.8" font-family="Times,serif" font-size="14.00">list</text>
</g>
<!-- n2_port_0 -->
<g id="node20" class="node">
<title>n2_port_0</title>
<polygon fill="white" stroke="black" points="1800.65,-325.33 1766.48,-348.43 1732.3,-325.33 1732.34,-287.96 1800.62,-287.96 1800.65,-325.33"/>
<text text-anchor="middle" x="1766.48" y="-318.8" font-family="Times,serif" font-size="14.00">a</text>
<text text-anchor="middle" x="1766.48" y="-303.8" font-family="Times,serif" font-size="14.00">list</text>
</g>
<!-- n0_place_6&#45;&gt;n2_port_0 -->
<g id="edge5" class="edge">
<title>n0_place_6&#45;&gt;n2_port_0</title>
<path fill="none" stroke="black" d="M1568.07,-273.57C1608.03,-281.96 1677.32,-296.5 1722.27,-305.93"/>
<polygon fill="black" stroke="black" points="1721.81,-309.41 1732.31,-308.04 1723.24,-302.56 1721.81,-309.41"/>
</g>
<!-- n2_port_1 -->
<g id="node21" class="node">
<title>n2_port_1</title>
<polygon fill="white" stroke="black" points="1800.65,-409.33 1766.48,-432.43 1732.3,-409.33 1732.34,-371.96 1800.62,-371.96 1800.65,-409.33"/>
<text text-anchor="middle" x="1766.48" y="-402.8" font-family="Times,serif" font-size="14.00">G</text>
<text text-anchor="middle" x="1766.48" y="-387.8" font-family="Times,serif" font-size="14.00">list</text>
</g>
<!-- n0_place_7&#45;&gt;n2_port_1 -->
<g id="edge6" class="edge">
<title>n0_place_7&#45;&gt;n2_port_1</title>
<path fill="none" stroke="black" stroke-dasharray="5,2" d="M1056.39,-478.31C1073.97,-482.14 1095.18,-486.11 1114.51,-488 1273.75,-503.56 1317.09,-516.59 1474.51,-488 1531.72,-477.61 1541.51,-459.44 1596.98,-442 1639,-428.79 1687.86,-416.67 1722.11,-408.69"/>
<polygon fill="black" stroke="black" points="1723.29,-412.01 1732.25,-406.35 1721.71,-405.19 1723.29,-412.01"/>
</g>
<!-- n3_port_1 -->
<g id="node26" class="node">
<title>n3_port_1</title>
<polygon fill="white" stroke="black" points="1328.69,-397.33 1294.51,-420.43 1260.34,-397.33 1260.37,-359.96 1328.65,-359.96 1328.69,-397.33"/>
<text text-anchor="middle" x="1294.51" y="-390.8" font-family="Times,serif" font-size="14.00">G</text>
<text text-anchor="middle" x="1294.51" y="-375.8" font-family="Times,serif" font-size="14.00">list</text>
</g>
<!-- n0_place_7&#45;&gt;n3_port_1 -->
<g id="edge9" class="edge">
<title>n0_place_7&#45;&gt;n3_port_1</title>
<path fill="none" stroke="black" stroke-dasharray="5,2" d="M1052.08,-453.84C1070.33,-446.04 1093.39,-436.77 1114.51,-430 1160.13,-415.37 1213.7,-403.13 1250.27,-395.5"/>
<polygon fill="black" stroke="black" points="1251.02,-398.92 1260.11,-393.47 1249.61,-392.06 1251.02,-398.92"/>
</g>
<!-- n1_condition -->
<g id="node14" class="node">
<title>n1_condition</title>
<polygon fill="white" stroke="black" points="2233.2,-439 2233.2,-475 2302.2,-475 2302.2,-439 2233.2,-439"/>
<text text-anchor="middle" x="2267.7" y="-453.3" font-family="Times,serif" font-size="14.00">Reduce</text>
</g>
<!-- n1_port_2 -->
<g id="node17" class="node">
<title>n1_port_2</title>
<polygon fill="white" stroke="black" points="2165.68,-208.67 2267.7,-185.57 2369.73,-208.67 2369.63,-246.04 2165.78,-246.04 2165.68,-208.67"/>
<text text-anchor="middle" x="2267.7" y="-222.8" font-family="Times,serif" font-size="14.00">sum</text>
<text text-anchor="middle" x="2267.7" y="-207.8" font-family="Times,serif" font-size="14.00">unsigned long</text>
</g>
<!-- n1_port_2&#45;&gt;n0_place_3 -->
<g id="edge1" class="edge">
<title>n1_port_2&#45;&gt;n0_place_3</title>
<path fill="none" stroke="black" d="M2165.7,-219C2157,-219 2148.23,-219 2139.61,-219"/>
<polygon fill="black" stroke="black" points="2139.57,-215.5 2129.57,-219 2139.57,-222.5 2139.57,-215.5"/>
</g>
<!-- n1_modcall -->
<g id="node18" class="node">
<title>n1_modcall</title>
<polygon fill="white" stroke="black" points="2353.7,-168 2181.7,-168 2181.7,-132 2353.7,-132 2353.7,-168"/>
<text text-anchor="middle" x="2267.7" y="-146.3" font-family="Times,serif" font-size="14.00">feynman_module.plus</text>
</g>
<!-- n2_condition -->
<g id="node19" class="node">
<title>n2_condition</title>
<polygon fill="white" stroke="black" points="1699.48,-451 1699.48,-487 1833.48,-487 1833.48,-451 1699.48,-451"/>
<text text-anchor="middle" x="1766.48" y="-465.3" font-family="Times,serif" font-size="14.00">feynman_degree</text>
</g>
<!-- n2_port_2 -->
<g id="node22" class="node">
<title>n2_port_2</title>
<polygon fill="white" stroke="black" points="1664.46,-220.67 1766.48,-197.57 1868.5,-220.67 1868.41,-258.04 1664.55,-258.04 1664.46,-220.67"/>
<text text-anchor="middle" x="1766.48" y="-234.8" font-family="Times,serif" font-size="14.00">s</text>
<text text-anchor="middle" x="1766.48" y="-219.8" font-family="Times,serif" font-size="14.00">unsigned long</text>
</g>
<!-- n2_port_2&#45;&gt;n0_place_4 -->
<g id="edge4" class="edge">
<title>n2_port_2&#45;&gt;n0_place_4</title>
<path fill="none" stroke="black" d="M1868.62,-250.45C1891.26,-256.38 1914.82,-263.82 1935.98,-273 1960.39,-283.59 1985.46,-299.37 2005.46,-313.37"/>
<polygon fill="black" stroke="black" points="2003.53,-316.29 2013.71,-319.24 2007.59,-310.59 2003.53,-316.29"/>
</g>
<!-- n2_modcall -->
<g id="node23" class="node">
<title>n2_modcall</title>
<polygon fill="white" stroke="black" points="1927.98,-180 1604.98,-180 1604.98,-144 1927.98,-144 1927.98,-180"/>
<text text-anchor="middle" x="1766.48" y="-158.3" font-family="Times,serif" font-size="14.00">feynman_module.feynman_integral_degree</text>
</g>
<!-- n3_condition -->
<g id="node24" class="node">
<title>n3_condition</title>
<polygon fill="white" stroke="black" points="1252.01,-439 1252.01,-475 1337.01,-475 1337.01,-439 1252.01,-439"/>
<text text-anchor="middle" x="1294.51" y="-453.3" font-family="Times,serif" font-size="14.00">signature</text>
</g>
<!-- n3_port_2 -->
<g id="node27" class="node">
<title>n3_port_2</title>
<polygon fill="white" stroke="black" points="1260.34,-208.67 1294.51,-185.57 1328.69,-208.67 1328.65,-246.04 1260.37,-246.04 1260.34,-208.67"/>
<text text-anchor="middle" x="1294.51" y="-222.8" font-family="Times,serif" font-size="14.00">s</text>
<text text-anchor="middle" x="1294.51" y="-207.8" font-family="Times,serif" font-size="14.00">list</text>
</g>
<!-- n3_port_2&#45;&gt;n0_place_6 -->
<g id="edge7" class="edge">
<title>n3_port_2&#45;&gt;n0_place_6</title>
<path fill="none" stroke="black" d="M1329.17,-223.71C1372.14,-232.33 1446.94,-247.34 1493.6,-256.7"/>
<path fill="none" stroke="transparent" d="M1328.78,-225.67C1371.75,-234.3 1446.55,-249.3 1493.21,-258.67"/>
<path fill="none" stroke="black" d="M1328.38,-227.64C1371.35,-236.26 1446.16,-251.27 1492.81,-260.63"/>
<polygon fill="black" stroke="black" points="1492.79,-262.15 1503.29,-260.69 1494.17,-255.29 1492.79,-262.15"/>
</g>
<!-- n3_modcall -->
<g id="node28" class="node">
<title>n3_modcall</title>
<polygon fill="white" stroke="black" points="1466.51,-168 1122.51,-168 1122.51,-132 1466.51,-132 1466.51,-168"/>
<text text-anchor="middle" x="1294.51" y="-146.3" font-family="Times,serif" font-size="14.00">feynman_module.signature_and_multiplicities</text>
</g>
<!-- n4_condition -->
<g id="node29" class="node">
<title>n4_condition</title>
<polygon fill="white" stroke="black" points="756.42,-397 756.42,-433 863.42,-433 863.42,-397 756.42,-397"/>
<text text-anchor="middle" x="809.92" y="-411.3" font-family="Times,serif" font-size="14.00">Combination</text>
</g>
<!-- n4_port_1 -->
<g id="node31" class="node">
<title>n4_port_1</title>
<polygon fill="white" stroke="black" points="774.25,-250.67 809.92,-227.57 845.59,-250.67 845.56,-288.04 774.28,-288.04 774.25,-250.67"/>
<text text-anchor="middle" x="809.92" y="-264.8" font-family="Times,serif" font-size="14.00">vec</text>
<text text-anchor="middle" x="809.92" y="-249.8" font-family="Times,serif" font-size="14.00">list</text>
</g>
<!-- n4_port_1&#45;&gt;n0_place_2 -->
<g id="edge10" class="edge">
<title>n4_port_1&#45;&gt;n0_place_2</title>
<path fill="none" stroke="black" d="M845.95,-262.57C871.65,-265.2 907.62,-268.88 939.9,-272.18"/>
<path fill="none" stroke="transparent" d="M845.74,-264.56C871.45,-267.19 907.42,-270.87 939.7,-274.17"/>
<path fill="none" stroke="black" d="M845.54,-266.55C871.24,-269.18 907.22,-272.86 939.5,-276.16"/>
<polygon fill="black" stroke="black" points="939.73,-277.69 950.03,-275.23 940.44,-270.73 939.73,-277.69"/>
</g>
<!-- n4_modcall -->
<g id="node32" class="node">
<title>n4_modcall</title>
<polygon fill="white" stroke="black" points="911.92,-210 707.92,-210 707.92,-174 911.92,-174 911.92,-210"/>
<text text-anchor="middle" x="809.92" y="-188.3" font-family="Times,serif" font-size="14.00">feynman_module.partition</text>
</g>
<!-- n5_condition -->
<g id="node33" class="node">
<title>n5_condition</title>
<polygon fill="white" stroke="black" points="366.71,-451 366.71,-487 445.71,-487 445.71,-451 366.71,-451"/>
<text text-anchor="middle" x="406.21" y="-465.3" font-family="Times,serif" font-size="14.00">partition</text>
</g>
<!-- n5_port_2 -->
<g id="node36" class="node">
<title>n5_port_2</title>
<polygon fill="white" stroke="black" points="372.04,-220.67 406.21,-197.57 440.39,-220.67 440.35,-258.04 372.07,-258.04 372.04,-220.67"/>
<text text-anchor="middle" x="406.21" y="-234.8" font-family="Times,serif" font-size="14.00">v</text>
<text text-anchor="middle" x="406.21" y="-219.8" font-family="Times,serif" font-size="14.00">list</text>
</g>
<!-- n5_port_2&#45;&gt;n0_place_5 -->
<g id="edge12" class="edge">
<title>n5_port_2&#45;&gt;n0_place_5</title>
<path fill="none" stroke="black" d="M440.92,-238.36C470.68,-246.69 515.1,-259.13 551.13,-269.22"/>
<path fill="none" stroke="transparent" d="M440.38,-240.28C470.14,-248.62 514.56,-261.05 550.59,-271.14"/>
<path fill="none" stroke="black" d="M439.84,-242.21C469.6,-250.54 514.02,-262.98 550.06,-273.07"/>
<polygon fill="black" stroke="black" points="549.94,-274.59 560.51,-273.92 551.83,-267.85 549.94,-274.59"/>
</g>
<!-- n5_modcall -->
<g id="node37" class="node">
<title>n5_modcall</title>
<polygon fill="white" stroke="black" points="515.71,-180 296.71,-180 296.71,-144 515.71,-144 515.71,-180"/>
<text text-anchor="middle" x="406.21" y="-158.3" font-family="Times,serif" font-size="14.00">feynman_module.gen_block_</text>
</g>
</g>
</svg>
