<?xml version="1.0" encoding="UTF-8" standalone="no"?>
<!DOCTYPE svg PUBLIC "-//W3C//DTD SVG 1.1//EN"
 "http://www.w3.org/Graphics/SVG/1.1/DTD/svg11.dtd">
<!-- Generated by graphviz version 2.43.0 (0)
 -->
<!-- Title: feynman_deg Pages: 1 -->
<svg width="1104pt" height="574pt"
 viewBox="0.00 0.00 1103.90 574.00" xmlns="http://www.w3.org/2000/svg" xmlns:xlink="http://www.w3.org/1999/xlink">
<g id="graph0" class="graph" transform="scale(1 1) rotate(0) translate(4 570)">
<title>feynman_deg</title>
<polygon fill="white" stroke="transparent" points="-4,4 -4,-570 1099.9,-570 1099.9,4 -4,4"/>
<g id="clust1" class="cluster">
<title>cluster_0</title>
<polygon fill="dimgray" stroke="black" points="8,-8 8,-558 1087.9,-558 1087.9,-8 8,-8"/>
</g>
<g id="clust2" class="cluster">
<title>cluster_net_0</title>
<polygon fill="white" stroke="black" points="159.37,-90 159.37,-550 1079.9,-550 1079.9,-90 159.37,-90"/>
</g>
<g id="clust3" class="cluster">
<title>cluster_1</title>
<polygon fill="yellow" stroke="black" points="717.3,-98 717.3,-542 905.3,-542 905.3,-98 717.3,-98"/>
</g>
<g id="clust4" class="cluster">
<title>cluster_2</title>
<polygon fill="yellow" stroke="black" points="288.71,-182 288.71,-542 522.71,-542 522.71,-182 288.71,-182"/>
</g>
<!-- n0_condition -->
<g id="node1" class="node">
<title>n0_condition</title>
<polygon fill="white" stroke="black" points="18.19,-505 18.19,-541 129.19,-541 129.19,-505 18.19,-505"/>
<text text-anchor="middle" x="73.69" y="-519.3" font-family="Times,serif" font-size="14.00">feynman_deg</text>
</g>
<!-- n0_port_0 -->
<g id="node2" class="node">
<title>n0_port_0</title>
<polygon fill="white" stroke="black" points="131.56,-455.33 73.69,-478.43 15.81,-455.33 15.87,-417.96 131.5,-417.96 131.56,-455.33"/>
<text text-anchor="middle" x="73.69" y="-448.8" font-family="Times,serif" font-size="14.00">degree</text>
<text text-anchor="middle" x="73.69" y="-433.8" font-family="Times,serif" font-size="14.00">int</text>
</g>
<!-- n0_place_0 -->
<g id="node5" class="node">
<title>n0_place_0</title>
<ellipse fill="white" stroke="black" cx="214.04" cy="-445" rx="46.84" ry="26.74"/>
<text text-anchor="middle" x="214.04" y="-448.8" font-family="Times,serif" font-size="14.00">degree</text>
<text text-anchor="middle" x="214.04" y="-433.8" font-family="Times,serif" font-size="14.00">int</text>
</g>
<!-- n0_port_0&#45;&gt;n0_place_0 -->
<g id="edge8" class="edge">
<title>n0_port_0&#45;&gt;n0_place_0</title>
<path fill="none" stroke="black" stroke-dasharray="1,5" d="M131.76,-445C143.52,-445 155.76,-445 167.07,-445"/>
</g>
<!-- n0_port_1 -->
<g id="node3" class="node">
<title>n0_port_1</title>
<polygon fill="white" stroke="black" points="105.12,-371.33 73.69,-394.43 42.26,-371.33 42.29,-333.96 105.09,-333.96 105.12,-371.33"/>
<text text-anchor="middle" x="73.69" y="-364.8" font-family="Times,serif" font-size="14.00">N</text>
<text text-anchor="middle" x="73.69" y="-349.8" font-family="Times,serif" font-size="14.00">int</text>
</g>
<!-- n0_place_1 -->
<g id="node6" class="node">
<title>n0_place_1</title>
<ellipse fill="white" stroke="black" cx="214.04" cy="-361" rx="27" ry="26.74"/>
<text text-anchor="middle" x="214.04" y="-364.8" font-family="Times,serif" font-size="14.00">N</text>
<text text-anchor="middle" x="214.04" y="-349.8" font-family="Times,serif" font-size="14.00">int</text>
</g>
<!-- n0_port_1&#45;&gt;n0_place_1 -->
<g id="edge9" class="edge">
<title>n0_port_1&#45;&gt;n0_place_1</title>
<path fill="none" stroke="black" stroke-dasharray="1,5" d="M105.39,-361C129.75,-361 163.45,-361 186.62,-361"/>
</g>
<!-- n0_port_2 -->
<g id="node4" class="node">
<title>n0_port_2</title>
<polygon fill="white" stroke="black" points="319.9,-38.67 405.71,-15.57 491.52,-38.67 491.44,-76.04 319.98,-76.04 319.9,-38.67"/>
<text text-anchor="middle" x="405.71" y="-52.8" font-family="Times,serif" font-size="14.00">my_vectors</text>
<text text-anchor="middle" x="405.71" y="-37.8" font-family="Times,serif" font-size="14.00">list</text>
</g>
<!-- n0_place_4 -->
<g id="node9" class="node">
<title>n0_place_4</title>
<ellipse fill="white" stroke="black" cx="620.01" cy="-193" rx="69.09" ry="26.74"/>
<text text-anchor="middle" x="620.01" y="-196.8" font-family="Times,serif" font-size="14.00">my_vectors</text>
<text text-anchor="middle" x="620.01" y="-181.8" font-family="Times,serif" font-size="14.00">list</text>
</g>
<!-- n0_port_2&#45;&gt;n0_place_4 -->
<g id="edge10" class="edge">
<title>n0_port_2&#45;&gt;n0_place_4</title>
<path fill="none" stroke="black" stroke-dasharray="1,5" d="M446.64,-76.09C486.52,-103.13 547.15,-144.26 584.86,-169.84"/>
</g>
<!-- n2_port_0 -->
<g id="node17" class="node">
<title>n2_port_0</title>
<polygon fill="white" stroke="black" points="437.14,-455.33 405.71,-478.43 374.28,-455.33 374.31,-417.96 437.11,-417.96 437.14,-455.33"/>
<text text-anchor="middle" x="405.71" y="-448.8" font-family="Times,serif" font-size="14.00">d</text>
<text text-anchor="middle" x="405.71" y="-433.8" font-family="Times,serif" font-size="14.00">int</text>
</g>
<!-- n0_place_0&#45;&gt;n2_port_0 -->
<g id="edge6" class="edge">
<title>n0_place_0&#45;&gt;n2_port_0</title>
<path fill="none" stroke="black" d="M260.95,-445C292.34,-445 333.56,-445 363.82,-445"/>
<polygon fill="black" stroke="black" points="364.03,-448.5 374.03,-445 364.03,-441.5 364.03,-448.5"/>
</g>
<!-- n2_port_1 -->
<g id="node18" class="node">
<title>n2_port_1</title>
<polygon fill="white" stroke="black" points="437.14,-371.33 405.71,-394.43 374.28,-371.33 374.31,-333.96 437.11,-333.96 437.14,-371.33"/>
<text text-anchor="middle" x="405.71" y="-364.8" font-family="Times,serif" font-size="14.00">n</text>
<text text-anchor="middle" x="405.71" y="-349.8" font-family="Times,serif" font-size="14.00">int</text>
</g>
<!-- n0_place_1&#45;&gt;n2_port_1 -->
<g id="edge7" class="edge">
<title>n0_place_1&#45;&gt;n2_port_1</title>
<path fill="none" stroke="black" d="M241.41,-361C273.1,-361 326.61,-361 363.7,-361"/>
<polygon fill="black" stroke="black" points="364.17,-364.5 374.17,-361 364.17,-357.5 364.17,-364.5"/>
</g>
<!-- n0_place_2 -->
<g id="node7" class="node">
<title>n0_place_2</title>
<ellipse fill="white" stroke="black" cx="1002.6" cy="-277" rx="69.09" ry="26.74"/>
<text text-anchor="middle" x="1002.6" y="-280.8" font-family="Times,serif" font-size="14.00">branchtype</text>
<text text-anchor="middle" x="1002.6" y="-265.8" font-family="Times,serif" font-size="14.00">list</text>
</g>
<!-- n0_place_3 -->
<g id="node8" class="node">
<title>n0_place_3</title>
<ellipse fill="white" stroke="black" cx="620.01" cy="-361" rx="60.21" ry="26.74"/>
<text text-anchor="middle" x="620.01" y="-364.8" font-family="Times,serif" font-size="14.00">d_vectors</text>
<text text-anchor="middle" x="620.01" y="-349.8" font-family="Times,serif" font-size="14.00">list</text>
</g>
<!-- n1_port_0 -->
<g id="node11" class="node">
<title>n1_port_0</title>
<polygon fill="white" stroke="black" points="845.48,-455.33 811.3,-478.43 777.13,-455.33 777.16,-417.96 845.45,-417.96 845.48,-455.33"/>
<text text-anchor="middle" x="811.3" y="-448.8" font-family="Times,serif" font-size="14.00">v</text>
<text text-anchor="middle" x="811.3" y="-433.8" font-family="Times,serif" font-size="14.00">list</text>
</g>
<!-- n0_place_3&#45;&gt;n1_port_0 -->
<g id="edge4" class="edge">
<title>n0_place_3&#45;&gt;n1_port_0</title>
<path fill="none" stroke="black" d="M663.49,-379.85C694.61,-393.66 736.66,-412.32 767.79,-426.13"/>
<polygon fill="black" stroke="black" points="766.51,-429.4 777.07,-430.25 769.35,-423 766.51,-429.4"/>
</g>
<!-- n1_port_1 -->
<g id="node12" class="node">
<title>n1_port_1</title>
<polygon fill="white" stroke="black" points="867.93,-371.33 811.3,-394.43 754.68,-371.33 754.73,-333.96 867.88,-333.96 867.93,-371.33"/>
<text text-anchor="middle" x="811.3" y="-364.8" font-family="Times,serif" font-size="14.00">v_copy</text>
<text text-anchor="middle" x="811.3" y="-349.8" font-family="Times,serif" font-size="14.00">list</text>
</g>
<!-- n0_place_4&#45;&gt;n1_port_1 -->
<g id="edge3" class="edge">
<title>n0_place_4&#45;&gt;n1_port_1</title>
<path fill="none" stroke="black" d="M635.68,-219.24C652.37,-247.11 681.95,-290.92 717.3,-319 725.8,-325.75 735.56,-331.67 745.48,-336.78"/>
<polygon fill="black" stroke="black" points="744.09,-340 754.61,-341.24 747.16,-333.71 744.09,-340"/>
</g>
<!-- n1_condition -->
<g id="node10" class="node">
<title>n1_condition</title>
<polygon fill="white" stroke="black" points="757.8,-497 757.8,-533 864.8,-533 864.8,-497 757.8,-497"/>
<text text-anchor="middle" x="811.3" y="-511.3" font-family="Times,serif" font-size="14.00">Combination</text>
</g>
<!-- n1_port_2 -->
<g id="node13" class="node">
<title>n1_port_2</title>
<polygon fill="white" stroke="black" points="775.63,-266.67 811.3,-243.57 846.97,-266.67 846.94,-304.04 775.67,-304.04 775.63,-266.67"/>
<text text-anchor="middle" x="811.3" y="-280.8" font-family="Times,serif" font-size="14.00">vec</text>
<text text-anchor="middle" x="811.3" y="-265.8" font-family="Times,serif" font-size="14.00">list</text>
</g>
<!-- n1_port_2&#45;&gt;n0_place_2 -->
<g id="edge2" class="edge">
<title>n1_port_2&#45;&gt;n0_place_2</title>
<path fill="none" stroke="black" d="M847.02,-275C868.32,-275 896.49,-275 922.94,-275"/>
<path fill="none" stroke="transparent" d="M847.02,-277C868.32,-277 896.49,-277 922.94,-277"/>
<path fill="none" stroke="black" d="M847.02,-279C868.32,-279 896.49,-279 922.94,-279"/>
<polygon fill="black" stroke="black" points="922.98,-280.5 932.98,-277 922.98,-273.5 922.98,-280.5"/>
</g>
<!-- n1_port_3 -->
<g id="node14" class="node">
<title>n1_port_3</title>
<polygon fill="white" stroke="black" points="741.46,-182.67 811.3,-159.57 881.15,-182.67 881.08,-220.04 741.52,-220.04 741.46,-182.67"/>
<text text-anchor="middle" x="811.3" y="-196.8" font-family="Times,serif" font-size="14.00">vec_copy</text>
<text text-anchor="middle" x="811.3" y="-181.8" font-family="Times,serif" font-size="14.00">list</text>
</g>
<!-- n1_port_3&#45;&gt;n0_place_4 -->
<g id="edge1" class="edge">
<title>n1_port_3&#45;&gt;n0_place_4</title>
<path fill="none" stroke="black" d="M741.43,-193C727.77,-193 713.34,-193 699.4,-193"/>
<polygon fill="black" stroke="black" points="699.35,-189.5 689.35,-193 699.35,-196.5 699.35,-189.5"/>
</g>
<!-- n1_modcall -->
<g id="node15" class="node">
<title>n1_modcall</title>
<polygon fill="white" stroke="black" points="897.3,-142 725.3,-142 725.3,-106 897.3,-106 897.3,-142"/>
<text text-anchor="middle" x="811.3" y="-120.3" font-family="Times,serif" font-size="14.00">feynman_module.part</text>
</g>
<!-- n2_condition -->
<g id="node16" class="node">
<title>n2_condition</title>
<polygon fill="white" stroke="black" points="366.21,-497 366.21,-533 445.21,-533 445.21,-497 366.21,-497"/>
<text text-anchor="middle" x="405.71" y="-511.3" font-family="Times,serif" font-size="14.00">partition</text>
</g>
<!-- n2_port_2 -->
<g id="node19" class="node">
<title>n2_port_2</title>
<polygon fill="white" stroke="black" points="371.54,-266.67 405.71,-243.57 439.89,-266.67 439.85,-304.04 371.57,-304.04 371.54,-266.67"/>
<text text-anchor="middle" x="405.71" y="-280.8" font-family="Times,serif" font-size="14.00">v</text>
<text text-anchor="middle" x="405.71" y="-265.8" font-family="Times,serif" font-size="14.00">list</text>
</g>
<!-- n2_port_2&#45;&gt;n0_place_3 -->
<g id="edge5" class="edge">
<title>n2_port_2&#45;&gt;n0_place_3</title>
<path fill="none" stroke="black" d="M439.92,-288.39C463.23,-296.54 495.06,-307.98 522.71,-319 537.44,-324.87 553.28,-331.6 567.76,-337.93"/>
<polygon fill="black" stroke="black" points="566.5,-341.2 577.06,-342.01 569.32,-334.79 566.5,-341.2"/>
</g>
<!-- n2_modcall -->
<g id="node20" class="node">
<title>n2_modcall</title>
<polygon fill="white" stroke="black" points="514.71,-226 296.71,-226 296.71,-190 514.71,-190 514.71,-226"/>
<text text-anchor="middle" x="405.71" y="-204.3" font-family="Times,serif" font-size="14.00">feynman_module.init_vector</text>
</g>
</g>
</svg>
