<?xml version="1.0" encoding="UTF-8" standalone="no"?>
<!DOCTYPE svg PUBLIC "-//W3C//DTD SVG 1.1//EN"
 "http://www.w3.org/Graphics/SVG/1.1/DTD/svg11.dtd">
<!-- Generated by graphviz version 2.43.0 (0)
 -->
<!-- Title: feynman_deg Pages: 1 -->
<svg width="1958pt" height="1121pt"
 viewBox="0.00 0.00 1957.79 1121.00" xmlns="http://www.w3.org/2000/svg" xmlns:xlink="http://www.w3.org/1999/xlink">
<g id="graph0" class="graph" transform="scale(1 1) rotate(0) translate(4 1117)">
<title>feynman_deg</title>
<polygon fill="white" stroke="transparent" points="-4,4 -4,-1117 1953.79,-1117 1953.79,4 -4,4"/>
<g id="clust1" class="cluster">
<title>cluster_0</title>
<polygon fill="dimgray" stroke="black" points="8,-8 8,-1105 1941.79,-1105 1941.79,-8 8,-8"/>
</g>
<g id="clust2" class="cluster">
<title>cluster_net_0</title>
<polygon fill="white" stroke="black" points="159.37,-116 159.37,-886 1933.79,-886 1933.79,-116 159.37,-116"/>
</g>
<g id="clust3" class="cluster">
<title>cluster_1</title>
<polygon fill="yellow" stroke="black" points="1705.27,-238 1705.27,-850 1925.79,-850 1925.79,-238 1705.27,-238"/>
</g>
<g id="clust4" class="cluster">
<title>cluster_2</title>
<polygon fill="yellow" stroke="black" points="1144.8,-240 1144.8,-878 1483.8,-878 1483.8,-240 1144.8,-240"/>
</g>
<g id="clust5" class="cluster">
<title>cluster_3</title>
<polygon fill="yellow" stroke="black" points="706.58,-124 706.58,-510 919.58,-510 919.58,-124 706.58,-124"/>
</g>
<g id="clust6" class="cluster">
<title>cluster_4</title>
<polygon fill="yellow" stroke="black" points="714.08,-518 714.08,-878 912.08,-878 912.08,-518 714.08,-518"/>
</g>
<g id="clust7" class="cluster">
<title>cluster_5</title>
<polygon fill="yellow" stroke="black" points="288.71,-518 288.71,-878 516.71,-878 516.71,-518 288.71,-518"/>
</g>
<!-- n0_condition -->
<g id="node1" class="node">
<title>n0_condition</title>
<polygon fill="white" stroke="black" points="18.19,-946 18.19,-982 129.19,-982 129.19,-946 18.19,-946"/>
<text text-anchor="middle" x="73.69" y="-960.3" font-family="Times,serif" font-size="14.00">feynman_deg</text>
</g>
<!-- n0_port_0 -->
<g id="node2" class="node">
<title>n0_port_0</title>
<polygon fill="white" stroke="black" points="131.56,-791.33 73.69,-814.43 15.81,-791.33 15.87,-753.96 131.5,-753.96 131.56,-791.33"/>
<text text-anchor="middle" x="73.69" y="-784.8" font-family="Times,serif" font-size="14.00">degree</text>
<text text-anchor="middle" x="73.69" y="-769.8" font-family="Times,serif" font-size="14.00">int</text>
</g>
<!-- n0_place_0 -->
<g id="node9" class="node">
<title>n0_place_0</title>
<ellipse fill="white" stroke="black" cx="214.04" cy="-781" rx="46.84" ry="26.74"/>
<text text-anchor="middle" x="214.04" y="-784.8" font-family="Times,serif" font-size="14.00">degree</text>
<text text-anchor="middle" x="214.04" y="-769.8" font-family="Times,serif" font-size="14.00">int</text>
</g>
<!-- n0_port_0&#45;&gt;n0_place_0 -->
<g id="edge22" class="edge">
<title>n0_port_0&#45;&gt;n0_place_0</title>
<path fill="none" stroke="black" stroke-dasharray="1,5" d="M131.76,-781C143.52,-781 155.76,-781 167.07,-781"/>
</g>
<!-- n0_port_1 -->
<g id="node3" class="node">
<title>n0_port_1</title>
<polygon fill="white" stroke="black" points="105.12,-707.33 73.69,-730.43 42.26,-707.33 42.29,-669.96 105.09,-669.96 105.12,-707.33"/>
<text text-anchor="middle" x="73.69" y="-700.8" font-family="Times,serif" font-size="14.00">N</text>
<text text-anchor="middle" x="73.69" y="-685.8" font-family="Times,serif" font-size="14.00">int</text>
</g>
<!-- n0_place_1 -->
<g id="node10" class="node">
<title>n0_place_1</title>
<ellipse fill="white" stroke="black" cx="214.04" cy="-697" rx="27" ry="26.74"/>
<text text-anchor="middle" x="214.04" y="-700.8" font-family="Times,serif" font-size="14.00">N</text>
<text text-anchor="middle" x="214.04" y="-685.8" font-family="Times,serif" font-size="14.00">int</text>
</g>
<!-- n0_port_1&#45;&gt;n0_place_1 -->
<g id="edge23" class="edge">
<title>n0_port_1&#45;&gt;n0_place_1</title>
<path fill="none" stroke="black" stroke-dasharray="1,5" d="M105.39,-697C129.75,-697 163.45,-697 186.62,-697"/>
</g>
<!-- n0_port_2 -->
<g id="node4" class="node">
<title>n0_port_2</title>
<polygon fill="white" stroke="black" points="864.72,-1021.33 813.08,-1044.43 761.44,-1021.33 761.49,-983.96 864.67,-983.96 864.72,-1021.33"/>
<text text-anchor="middle" x="813.08" y="-1014.8" font-family="Times,serif" font-size="14.00">graph</text>
<text text-anchor="middle" x="813.08" y="-999.8" font-family="Times,serif" font-size="14.00">list</text>
</g>
<!-- n0_place_7 -->
<g id="node16" class="node">
<title>n0_place_7</title>
<ellipse fill="white" stroke="black" cx="1034.07" cy="-803" rx="41.94" ry="26.74"/>
<text text-anchor="middle" x="1034.07" y="-806.8" font-family="Times,serif" font-size="14.00">graph</text>
<text text-anchor="middle" x="1034.07" y="-791.8" font-family="Times,serif" font-size="14.00">list</text>
</g>
<!-- n0_port_2&#45;&gt;n0_place_7 -->
<g id="edge24" class="edge">
<title>n0_port_2&#45;&gt;n0_place_7</title>
<path fill="none" stroke="black" stroke-dasharray="1,5" d="M864.83,-997.62C883.36,-991.06 903.65,-981.75 919.58,-969 968.23,-930.06 1004.21,-864.72 1021.54,-828.72"/>
</g>
<!-- n0_port_3 -->
<g id="node5" class="node">
<title>n0_port_3</title>
<polygon fill="white" stroke="black" points="752.96,-916.67 813.08,-893.57 873.2,-916.67 873.14,-954.04 753.02,-954.04 752.96,-916.67"/>
<text text-anchor="middle" x="813.08" y="-930.8" font-family="Times,serif" font-size="14.00">vectors</text>
<text text-anchor="middle" x="813.08" y="-915.8" font-family="Times,serif" font-size="14.00">string</text>
</g>
<!-- n0_place_4 -->
<g id="node13" class="node">
<title>n0_place_4</title>
<ellipse fill="white" stroke="black" cx="1034.07" cy="-677" rx="48.58" ry="26.74"/>
<text text-anchor="middle" x="1034.07" y="-680.8" font-family="Times,serif" font-size="14.00">vectors</text>
<text text-anchor="middle" x="1034.07" y="-665.8" font-family="Times,serif" font-size="14.00">string</text>
</g>
<!-- n0_port_3&#45;&gt;n0_place_4 -->
<g id="edge25" class="edge">
<title>n0_port_3&#45;&gt;n0_place_4</title>
<path fill="none" stroke="black" stroke-dasharray="1,5" d="M867.89,-914.44C886.55,-907.64 906.14,-897.36 919.58,-882 954.49,-842.08 925.76,-813.45 951.34,-767 965.6,-741.12 988.7,-716.63 1006.72,-699.75"/>
</g>
<!-- n0_port_4 -->
<g id="node6" class="node">
<title>n0_port_4</title>
<polygon fill="white" stroke="black" points="1265.41,-1036.74 1314.3,-1004.85 1363.2,-1036.74 1363.15,-1088.33 1265.46,-1088.33 1265.41,-1036.74"/>
<text text-anchor="middle" x="1314.3" y="-1062.3" font-family="Times,serif" font-size="14.00">count</text>
<text text-anchor="middle" x="1314.3" y="-1047.3" font-family="Times,serif" font-size="14.00">int</text>
<text text-anchor="middle" x="1314.3" y="-1032.3" font-family="Times,serif" font-size="14.00">0</text>
</g>
<!-- n0_place_10 -->
<g id="node19" class="node">
<title>n0_place_10</title>
<ellipse fill="white" stroke="black" cx="1594.54" cy="-753" rx="39.7" ry="37.45"/>
<text text-anchor="middle" x="1594.54" y="-764.3" font-family="Times,serif" font-size="14.00">count</text>
<text text-anchor="middle" x="1594.54" y="-749.3" font-family="Times,serif" font-size="14.00">int</text>
<text text-anchor="middle" x="1594.54" y="-734.3" font-family="Times,serif" font-size="14.00">0</text>
</g>
<!-- n0_port_4&#45;&gt;n0_place_10 -->
<g id="edge26" class="edge">
<title>n0_port_4&#45;&gt;n0_place_10</title>
<path fill="none" stroke="black" stroke-dasharray="1,5" d="M1363.37,-1045.55C1400.25,-1039.09 1450.36,-1025.11 1483.8,-995 1545.34,-939.6 1574.53,-842.91 1586.48,-790.07"/>
</g>
<!-- n0_port_5 -->
<g id="node7" class="node">
<title>n0_port_5</title>
<polygon fill="white" stroke="black" points="1212.28,-925.74 1314.3,-893.85 1416.33,-925.74 1416.23,-977.33 1212.38,-977.33 1212.28,-925.74"/>
<text text-anchor="middle" x="1314.3" y="-951.3" font-family="Times,serif" font-size="14.00">sum</text>
<text text-anchor="middle" x="1314.3" y="-936.3" font-family="Times,serif" font-size="14.00">unsigned long</text>
<text text-anchor="middle" x="1314.3" y="-921.3" font-family="Times,serif" font-size="14.00">0UL</text>
</g>
<!-- n0_place_2 -->
<g id="node11" class="node">
<title>n0_place_2</title>
<ellipse fill="white" stroke="black" cx="1594.54" cy="-585" rx="82.96" ry="37.45"/>
<text text-anchor="middle" x="1594.54" y="-596.3" font-family="Times,serif" font-size="14.00">sum</text>
<text text-anchor="middle" x="1594.54" y="-581.3" font-family="Times,serif" font-size="14.00">unsigned long</text>
<text text-anchor="middle" x="1594.54" y="-566.3" font-family="Times,serif" font-size="14.00">0UL</text>
</g>
<!-- n0_port_5&#45;&gt;n0_place_2 -->
<g id="edge27" class="edge">
<title>n0_port_5&#45;&gt;n0_place_2</title>
<path fill="none" stroke="black" stroke-dasharray="1,5" d="M1414.25,-925.07C1440.32,-916.51 1466.09,-903.08 1483.8,-882 1534.49,-821.7 1482.99,-780.31 1511.8,-707 1524.3,-675.2 1546.11,-643.27 1564.06,-620.05"/>
</g>
<!-- n0_port_6 -->
<g id="node8" class="node">
<title>n0_port_6</title>
<polygon fill="white" stroke="black" points="711.06,-47.74 813.08,-15.85 915.1,-47.74 915.01,-99.33 711.15,-99.33 711.06,-47.74"/>
<text text-anchor="middle" x="813.08" y="-73.3" font-family="Times,serif" font-size="14.00">fey_sum</text>
<text text-anchor="middle" x="813.08" y="-58.3" font-family="Times,serif" font-size="14.00">unsigned long</text>
<text text-anchor="middle" x="813.08" y="-43.3" font-family="Times,serif" font-size="14.00">0UL</text>
</g>
<!-- n0_place_6 -->
<g id="node15" class="node">
<title>n0_place_6</title>
<ellipse fill="white" stroke="black" cx="1034.07" cy="-413" rx="82.96" ry="37.45"/>
<text text-anchor="middle" x="1034.07" y="-424.3" font-family="Times,serif" font-size="14.00">fey_sum</text>
<text text-anchor="middle" x="1034.07" y="-409.3" font-family="Times,serif" font-size="14.00">unsigned long</text>
<text text-anchor="middle" x="1034.07" y="-394.3" font-family="Times,serif" font-size="14.00">0UL</text>
</g>
<!-- n0_port_6&#45;&gt;n0_place_6 -->
<g id="edge28" class="edge">
<title>n0_port_6&#45;&gt;n0_place_6</title>
<path fill="none" stroke="black" stroke-dasharray="1,5" d="M899.93,-99.57C907.41,-105.52 914.17,-112.3 919.58,-120 971.57,-194 912.69,-239.23 951.34,-321 961.75,-343.02 979.1,-363.67 995.14,-379.81"/>
</g>
<!-- n5_port_0 -->
<g id="node47" class="node">
<title>n5_port_0</title>
<polygon fill="white" stroke="black" points="434.14,-791.33 402.71,-814.43 371.28,-791.33 371.31,-753.96 434.11,-753.96 434.14,-791.33"/>
<text text-anchor="middle" x="402.71" y="-784.8" font-family="Times,serif" font-size="14.00">d</text>
<text text-anchor="middle" x="402.71" y="-769.8" font-family="Times,serif" font-size="14.00">int</text>
</g>
<!-- n0_place_0&#45;&gt;n5_port_0 -->
<g id="edge20" class="edge">
<title>n0_place_0&#45;&gt;n5_port_0</title>
<path fill="none" stroke="black" d="M261.18,-781C291.76,-781 331.51,-781 360.93,-781"/>
<polygon fill="black" stroke="black" points="361.26,-784.5 371.26,-781 361.26,-777.5 361.26,-784.5"/>
</g>
<!-- n5_port_1 -->
<g id="node48" class="node">
<title>n5_port_1</title>
<polygon fill="white" stroke="black" points="434.14,-707.33 402.71,-730.43 371.28,-707.33 371.31,-669.96 434.11,-669.96 434.14,-707.33"/>
<text text-anchor="middle" x="402.71" y="-700.8" font-family="Times,serif" font-size="14.00">n</text>
<text text-anchor="middle" x="402.71" y="-685.8" font-family="Times,serif" font-size="14.00">int</text>
</g>
<!-- n0_place_1&#45;&gt;n5_port_1 -->
<g id="edge21" class="edge">
<title>n0_place_1&#45;&gt;n5_port_1</title>
<path fill="none" stroke="black" d="M241.39,-697C272.49,-697 324.56,-697 360.89,-697"/>
<polygon fill="black" stroke="black" points="361.16,-700.5 371.16,-697 361.16,-693.5 361.16,-700.5"/>
</g>
<!-- n1_port_2 -->
<g id="node22" class="node">
<title>n1_port_2</title>
<polygon fill="white" stroke="black" points="1917.55,-595.33 1815.53,-618.43 1713.51,-595.33 1713.6,-557.96 1917.46,-557.96 1917.55,-595.33"/>
<text text-anchor="middle" x="1815.53" y="-588.8" font-family="Times,serif" font-size="14.00">sum</text>
<text text-anchor="middle" x="1815.53" y="-573.8" font-family="Times,serif" font-size="14.00">unsigned long</text>
</g>
<!-- n0_place_2&#45;&gt;n1_port_2 -->
<g id="edge4" class="edge">
<title>n0_place_2&#45;&gt;n1_port_2</title>
<path fill="none" stroke="black" d="M1677.39,-585C1685.86,-585 1694.57,-585 1703.29,-585"/>
<polygon fill="black" stroke="black" points="1703.52,-588.5 1713.52,-585 1703.52,-581.5 1703.52,-588.5"/>
</g>
<!-- n0_place_3 -->
<g id="node12" class="node">
<title>n0_place_3</title>
<ellipse fill="white" stroke="black" cx="609.76" cy="-697" rx="65.11" ry="26.74"/>
<text text-anchor="middle" x="609.76" y="-700.8" font-family="Times,serif" font-size="14.00">init_vector</text>
<text text-anchor="middle" x="609.76" y="-685.8" font-family="Times,serif" font-size="14.00">list</text>
</g>
<!-- n4_port_0 -->
<g id="node42" class="node">
<title>n4_port_0</title>
<polygon fill="white" stroke="black" points="847.25,-791.33 813.08,-814.43 778.9,-791.33 778.94,-753.96 847.22,-753.96 847.25,-791.33"/>
<text text-anchor="middle" x="813.08" y="-784.8" font-family="Times,serif" font-size="14.00">v</text>
<text text-anchor="middle" x="813.08" y="-769.8" font-family="Times,serif" font-size="14.00">list</text>
</g>
<!-- n0_place_3&#45;&gt;n4_port_0 -->
<g id="edge18" class="edge">
<title>n0_place_3&#45;&gt;n4_port_0</title>
<path fill="none" stroke="black" d="M654.51,-716.55C670.8,-723.73 689.49,-731.85 706.58,-739 727.12,-747.59 750.07,-756.77 769.3,-764.35"/>
<polygon fill="black" stroke="black" points="768.11,-767.65 778.7,-768.05 770.67,-761.13 768.11,-767.65"/>
</g>
<!-- n2_port_0 -->
<g id="node29" class="node">
<title>n2_port_0</title>
<polygon fill="white" stroke="black" points="1365.94,-681.33 1314.3,-704.43 1262.67,-681.33 1262.72,-643.96 1365.89,-643.96 1365.94,-681.33"/>
<text text-anchor="middle" x="1314.3" y="-674.8" font-family="Times,serif" font-size="14.00">a</text>
<text text-anchor="middle" x="1314.3" y="-659.8" font-family="Times,serif" font-size="14.00">string</text>
</g>
<!-- n0_place_4&#45;&gt;n2_port_0 -->
<g id="edge11" class="edge">
<title>n0_place_4&#45;&gt;n2_port_0</title>
<path fill="none" stroke="black" d="M1082.9,-675.97C1129.71,-674.96 1201.2,-673.42 1252.12,-672.32"/>
<polygon fill="black" stroke="black" points="1252.41,-675.81 1262.34,-672.1 1252.26,-668.82 1252.41,-675.81"/>
</g>
<!-- n0_place_5 -->
<g id="node14" class="node">
<title>n0_place_5</title>
<ellipse fill="white" stroke="black" cx="1034.07" cy="-495" rx="41.94" ry="26.74"/>
<text text-anchor="middle" x="1034.07" y="-498.8" font-family="Times,serif" font-size="14.00">state</text>
<text text-anchor="middle" x="1034.07" y="-483.8" font-family="Times,serif" font-size="14.00">string</text>
</g>
<!-- n3_port_0 -->
<g id="node37" class="node">
<title>n3_port_0</title>
<polygon fill="white" stroke="black" points="864.72,-313.33 813.08,-336.43 761.44,-313.33 761.49,-275.96 864.67,-275.96 864.72,-313.33"/>
<text text-anchor="middle" x="813.08" y="-306.8" font-family="Times,serif" font-size="14.00">v</text>
<text text-anchor="middle" x="813.08" y="-291.8" font-family="Times,serif" font-size="14.00">string</text>
</g>
<!-- n0_place_5&#45;&gt;n3_port_0 -->
<g id="edge15" class="edge">
<title>n0_place_5&#45;&gt;n3_port_0</title>
<path fill="none" stroke="black" d="M994.54,-485.81C979.17,-480.35 962.51,-471.89 951.34,-459 916.91,-419.24 954.73,-384.13 919.58,-345 907.69,-331.76 891.06,-322.63 874.52,-316.37"/>
<polygon fill="black" stroke="black" points="875.42,-312.98 864.83,-313 873.12,-319.59 875.42,-312.98"/>
</g>
<!-- n2_port_3 -->
<g id="node32" class="node">
<title>n2_port_3</title>
<polygon fill="white" stroke="black" points="1416.33,-597.33 1314.3,-620.43 1212.28,-597.33 1212.38,-559.96 1416.23,-559.96 1416.33,-597.33"/>
<text text-anchor="middle" x="1314.3" y="-590.8" font-family="Times,serif" font-size="14.00">fey_sum</text>
<text text-anchor="middle" x="1314.3" y="-575.8" font-family="Times,serif" font-size="14.00">unsigned long</text>
</g>
<!-- n0_place_6&#45;&gt;n2_port_3 -->
<g id="edge9" class="edge">
<title>n0_place_6&#45;&gt;n2_port_3</title>
<path fill="none" stroke="black" d="M1094.14,-439.04C1102.57,-444.68 1110.51,-451.32 1116.8,-459 1142.28,-490.09 1115.4,-517.6 1144.8,-545 1160.78,-559.88 1181.19,-569.71 1202.26,-576.14"/>
<polygon fill="black" stroke="black" points="1201.4,-579.54 1211.98,-578.87 1203.29,-572.8 1201.4,-579.54"/>
</g>
<!-- n2_port_1 -->
<g id="node30" class="node">
<title>n2_port_1</title>
<polygon fill="white" stroke="black" points="1348.48,-765.33 1314.3,-788.43 1280.13,-765.33 1280.16,-727.96 1348.45,-727.96 1348.48,-765.33"/>
<text text-anchor="middle" x="1314.3" y="-758.8" font-family="Times,serif" font-size="14.00">G</text>
<text text-anchor="middle" x="1314.3" y="-743.8" font-family="Times,serif" font-size="14.00">list</text>
</g>
<!-- n0_place_7&#45;&gt;n2_port_1 -->
<g id="edge12" class="edge">
<title>n0_place_7&#45;&gt;n2_port_1</title>
<path fill="none" stroke="black" stroke-dasharray="5,2" d="M1074.64,-796.17C1126.37,-787.25 1216.65,-771.67 1270.11,-762.45"/>
<polygon fill="black" stroke="black" points="1270.71,-765.9 1279.97,-760.75 1269.52,-759 1270.71,-765.9"/>
</g>
<!-- n0_place_8 -->
<g id="node17" class="node">
<title>n0_place_8</title>
<ellipse fill="white" stroke="black" cx="1594.54" cy="-362" rx="48.17" ry="26.74"/>
<text text-anchor="middle" x="1594.54" y="-365.8" font-family="Times,serif" font-size="14.00">fey_out</text>
<text text-anchor="middle" x="1594.54" y="-350.8" font-family="Times,serif" font-size="14.00">string</text>
</g>
<!-- n1_port_0 -->
<g id="node21" class="node">
<title>n1_port_0</title>
<polygon fill="white" stroke="black" points="1867.17,-427.33 1815.53,-450.43 1763.89,-427.33 1763.94,-389.96 1867.12,-389.96 1867.17,-427.33"/>
<text text-anchor="middle" x="1815.53" y="-420.8" font-family="Times,serif" font-size="14.00">s</text>
<text text-anchor="middle" x="1815.53" y="-405.8" font-family="Times,serif" font-size="14.00">string</text>
</g>
<!-- n0_place_8&#45;&gt;n1_port_0 -->
<g id="edge6" class="edge">
<title>n0_place_8&#45;&gt;n1_port_0</title>
<path fill="none" stroke="black" d="M1638.8,-372.87C1671.62,-381.11 1717.14,-392.54 1753.63,-401.71"/>
<polygon fill="black" stroke="black" points="1753.12,-405.19 1763.67,-404.23 1754.82,-398.4 1753.12,-405.19"/>
</g>
<!-- n0_place_9 -->
<g id="node18" class="node">
<title>n0_place_9</title>
<ellipse fill="white" stroke="black" cx="1034.07" cy="-275" rx="82.96" ry="37.45"/>
<text text-anchor="middle" x="1034.07" y="-286.3" font-family="Times,serif" font-size="14.00">size</text>
<text text-anchor="middle" x="1034.07" y="-271.3" font-family="Times,serif" font-size="14.00">unsigned long</text>
<text text-anchor="middle" x="1034.07" y="-256.3" font-family="Times,serif" font-size="14.00">3UL</text>
</g>
<!-- n2_port_2 -->
<g id="node31" class="node">
<title>n2_port_2</title>
<polygon fill="white" stroke="black" points="1416.33,-429.33 1314.3,-452.43 1212.28,-429.33 1212.38,-391.96 1416.23,-391.96 1416.33,-429.33"/>
<text text-anchor="middle" x="1314.3" y="-422.8" font-family="Times,serif" font-size="14.00">size</text>
<text text-anchor="middle" x="1314.3" y="-407.8" font-family="Times,serif" font-size="14.00">unsigned long</text>
</g>
<!-- n0_place_9&#45;&gt;n2_port_2 -->
<g id="edge10" class="edge">
<title>n0_place_9&#45;&gt;n2_port_2</title>
<path fill="none" stroke="black" d="M1064.3,-310.12C1084.68,-332.41 1113.7,-360.15 1144.8,-377 1162.57,-386.63 1182.59,-394.09 1202.46,-399.87"/>
<polygon fill="black" stroke="black" points="1201.62,-403.27 1212.19,-402.57 1203.49,-396.52 1201.62,-403.27"/>
</g>
<!-- n1_port_5 -->
<g id="node23" class="node">
<title>n1_port_5</title>
<polygon fill="white" stroke="black" points="1864.42,-763.33 1815.53,-786.43 1766.64,-763.33 1766.68,-725.96 1864.38,-725.96 1864.42,-763.33"/>
<text text-anchor="middle" x="1815.53" y="-756.8" font-family="Times,serif" font-size="14.00">count</text>
<text text-anchor="middle" x="1815.53" y="-741.8" font-family="Times,serif" font-size="14.00">int</text>
</g>
<!-- n0_place_10&#45;&gt;n1_port_5 -->
<g id="edge5" class="edge">
<title>n0_place_10&#45;&gt;n1_port_5</title>
<path fill="none" stroke="black" d="M1634.18,-753C1668,-753 1717.61,-753 1756.25,-753"/>
<polygon fill="black" stroke="black" points="1756.32,-756.5 1766.32,-753 1756.32,-749.5 1756.32,-756.5"/>
</g>
<!-- n1_condition -->
<g id="node20" class="node">
<title>n1_condition</title>
<polygon fill="white" stroke="black" points="1781.03,-805 1781.03,-841 1850.03,-841 1850.03,-805 1781.03,-805"/>
<text text-anchor="middle" x="1815.53" y="-819.3" font-family="Times,serif" font-size="14.00">Reduce</text>
</g>
<!-- n1_port_1 -->
<g id="node24" class="node">
<title>n1_port_1</title>
<polygon fill="white" stroke="black" points="1713.51,-322.67 1815.53,-299.57 1917.55,-322.67 1917.46,-360.04 1713.6,-360.04 1713.51,-322.67"/>
<text text-anchor="middle" x="1815.53" y="-336.8" font-family="Times,serif" font-size="14.00">size</text>
<text text-anchor="middle" x="1815.53" y="-321.8" font-family="Times,serif" font-size="14.00">unsigned long</text>
</g>
<!-- n1_port_1&#45;&gt;n0_place_9 -->
<g id="edge3" class="edge">
<title>n1_port_1&#45;&gt;n0_place_9</title>
<path fill="none" stroke="black" d="M1760.58,-311.99C1695.97,-288.04 1583.9,-250.38 1483.8,-236 1334.67,-214.58 1293.28,-210.4 1144.8,-236 1131.63,-238.27 1117.93,-241.97 1104.87,-246.21"/>
<polygon fill="black" stroke="black" points="1103.37,-243.03 1095.02,-249.55 1105.62,-249.66 1103.37,-243.03"/>
</g>
<!-- n1_port_3 -->
<g id="node25" class="node">
<title>n1_port_3</title>
<polygon fill="white" stroke="black" points="1713.51,-490.67 1815.53,-467.57 1917.55,-490.67 1917.46,-528.04 1713.6,-528.04 1713.51,-490.67"/>
<text text-anchor="middle" x="1815.53" y="-504.8" font-family="Times,serif" font-size="14.00">sum</text>
<text text-anchor="middle" x="1815.53" y="-489.8" font-family="Times,serif" font-size="14.00">unsigned long</text>
</g>
<!-- n1_port_3&#45;&gt;n0_place_2 -->
<g id="edge2" class="edge">
<title>n1_port_3&#45;&gt;n0_place_2</title>
<path fill="none" stroke="black" d="M1743.68,-528.18C1719.4,-537.49 1692.23,-547.91 1667.84,-557.27"/>
<polygon fill="black" stroke="black" points="1666.37,-554.08 1658.29,-560.93 1668.88,-560.62 1666.37,-554.08"/>
</g>
<!-- n1_port_4 -->
<g id="node26" class="node">
<title>n1_port_4</title>
<polygon fill="white" stroke="black" points="1766.64,-658.67 1815.53,-635.57 1864.42,-658.67 1864.38,-696.04 1766.68,-696.04 1766.64,-658.67"/>
<text text-anchor="middle" x="1815.53" y="-672.8" font-family="Times,serif" font-size="14.00">count</text>
<text text-anchor="middle" x="1815.53" y="-657.8" font-family="Times,serif" font-size="14.00">int</text>
</g>
<!-- n1_port_4&#45;&gt;n0_place_10 -->
<g id="edge1" class="edge">
<title>n1_port_4&#45;&gt;n0_place_10</title>
<path fill="none" stroke="black" d="M1766.41,-687.46C1729.11,-701.76 1677.79,-721.45 1641.15,-735.5"/>
<polygon fill="black" stroke="black" points="1639.78,-732.28 1631.7,-739.13 1642.29,-738.82 1639.78,-732.28"/>
</g>
<!-- n1_modcall -->
<g id="node27" class="node">
<title>n1_modcall</title>
<polygon fill="white" stroke="black" points="1901.53,-282 1729.53,-282 1729.53,-246 1901.53,-246 1901.53,-282"/>
<text text-anchor="middle" x="1815.53" y="-260.3" font-family="Times,serif" font-size="14.00">feynman_module.plus</text>
</g>
<!-- n2_condition -->
<g id="node28" class="node">
<title>n2_condition</title>
<polygon fill="white" stroke="black" points="1247.3,-807 1247.3,-869 1381.3,-869 1381.3,-807 1247.3,-807"/>
<text text-anchor="middle" x="1314.3" y="-853.8" font-family="Times,serif" font-size="14.00">feynman_degree</text>
<polyline fill="none" stroke="black" points="1247.3,-846 1381.3,-846 "/>
<text text-anchor="middle" x="1314.3" y="-830.8" font-family="Times,serif" font-size="14.00">(${size} &gt; 0UL)</text>
</g>
<!-- n2_port_4 -->
<g id="node33" class="node">
<title>n2_port_4</title>
<polygon fill="white" stroke="black" points="1212.28,-492.67 1314.3,-469.57 1416.33,-492.67 1416.23,-530.04 1212.38,-530.04 1212.28,-492.67"/>
<text text-anchor="middle" x="1314.3" y="-506.8" font-family="Times,serif" font-size="14.00">fey_sum</text>
<text text-anchor="middle" x="1314.3" y="-491.8" font-family="Times,serif" font-size="14.00">unsigned long</text>
</g>
<!-- n2_port_4&#45;&gt;n0_place_6 -->
<g id="edge8" class="edge">
<title>n2_port_4&#45;&gt;n0_place_6</title>
<path fill="none" stroke="black" d="M1237.45,-486.96C1208.18,-480.02 1174.63,-471.16 1144.8,-461 1130.43,-456.1 1115.34,-450.1 1101.09,-444.01"/>
<polygon fill="black" stroke="black" points="1102.44,-440.78 1091.87,-440.01 1099.65,-447.2 1102.44,-440.78"/>
</g>
<!-- n2_port_5 -->
<g id="node34" class="node">
<title>n2_port_5</title>
<polygon fill="white" stroke="black" points="1262.67,-324.67 1314.3,-301.57 1365.94,-324.67 1365.89,-362.04 1262.72,-362.04 1262.67,-324.67"/>
<text text-anchor="middle" x="1314.3" y="-338.8" font-family="Times,serif" font-size="14.00">s</text>
<text text-anchor="middle" x="1314.3" y="-323.8" font-family="Times,serif" font-size="14.00">string</text>
</g>
<!-- n2_port_5&#45;&gt;n0_place_8 -->
<g id="edge7" class="edge">
<title>n2_port_5&#45;&gt;n0_place_8</title>
<path fill="none" stroke="black" d="M1366.01,-339.92C1414.26,-344.6 1486.72,-351.63 1536.85,-356.5"/>
<polygon fill="black" stroke="black" points="1536.59,-359.99 1546.88,-357.47 1537.26,-353.02 1536.59,-359.99"/>
</g>
<!-- n2_modcall -->
<g id="node35" class="node">
<title>n2_modcall</title>
<polygon fill="white" stroke="black" points="1475.8,-284 1152.8,-284 1152.8,-248 1475.8,-248 1475.8,-284"/>
<text text-anchor="middle" x="1314.3" y="-262.3" font-family="Times,serif" font-size="14.00">feynman_module.feynman_integral_degree</text>
</g>
<!-- n3_condition -->
<g id="node36" class="node">
<title>n3_condition</title>
<polygon fill="white" stroke="black" points="746.08,-439 746.08,-501 880.08,-501 880.08,-439 746.08,-439"/>
<text text-anchor="middle" x="813.08" y="-485.8" font-family="Times,serif" font-size="14.00">next_partitions</text>
<polyline fill="none" stroke="black" points="746.08,-478 880.08,-478 "/>
<text text-anchor="middle" x="813.08" y="-462.8" font-family="Times,serif" font-size="14.00">(${v} != &quot;stop&quot;)</text>
</g>
<!-- n3_port_1 -->
<g id="node38" class="node">
<title>n3_port_1</title>
<polygon fill="white" stroke="black" points="777.41,-376.67 813.08,-353.57 848.75,-376.67 848.72,-414.04 777.44,-414.04 777.41,-376.67"/>
<text text-anchor="middle" x="813.08" y="-390.8" font-family="Times,serif" font-size="14.00">vec</text>
<text text-anchor="middle" x="813.08" y="-375.8" font-family="Times,serif" font-size="14.00">list</text>
</g>
<!-- n3_port_1&#45;&gt;n0_place_4 -->
<g id="edge14" class="edge">
<title>n3_port_1&#45;&gt;n0_place_4</title>
<path fill="none" stroke="black" d="M849.37,-391.25C872.58,-397.12 901.79,-408.05 921.05,-428.65 953.01,-465.87 934.25,-489.06 953.18,-530.21 970.34,-570 995.43,-613.24 1013.22,-642.15"/>
<path fill="none" stroke="transparent" d="M848.88,-393.19C871.88,-398.99 901.09,-409.92 919.58,-430 951.46,-464.62 932.69,-487.8 951.34,-531 968.61,-571 993.7,-614.25 1011.52,-643.2"/>
<path fill="none" stroke="black" d="M848.39,-395.13C871.18,-400.87 900.39,-411.79 918.11,-431.35 949.9,-463.36 931.14,-486.54 949.51,-531.79 966.88,-572 991.97,-615.25 1009.81,-644.25"/>
<polygon fill="black" stroke="black" points="1008.55,-645.06 1016.8,-651.71 1014.5,-641.37 1008.55,-645.06"/>
</g>
<!-- n3_port_2 -->
<g id="node39" class="node">
<title>n3_port_2</title>
<polygon fill="white" stroke="black" points="743.23,-208.67 813.08,-185.57 882.92,-208.67 882.86,-246.04 743.3,-246.04 743.23,-208.67"/>
<text text-anchor="middle" x="813.08" y="-222.8" font-family="Times,serif" font-size="14.00">vec_copy</text>
<text text-anchor="middle" x="813.08" y="-207.8" font-family="Times,serif" font-size="14.00">string</text>
</g>
<!-- n3_port_2&#45;&gt;n0_place_5 -->
<g id="edge13" class="edge">
<title>n3_port_2&#45;&gt;n0_place_5</title>
<path fill="none" stroke="black" d="M883.04,-234.63C896.93,-240.74 910.15,-249.23 919.58,-261 975.31,-330.55 896.88,-388.45 951.34,-459 959.72,-469.86 972.07,-477.51 984.64,-482.87"/>
<polygon fill="black" stroke="black" points="983.65,-486.24 994.24,-486.55 986.15,-479.7 983.65,-486.24"/>
</g>
<!-- n3_modcall -->
<g id="node40" class="node">
<title>n3_modcall</title>
<polygon fill="white" stroke="black" points="911.58,-168 714.58,-168 714.58,-132 911.58,-132 911.58,-168"/>
<text text-anchor="middle" x="813.08" y="-146.3" font-family="Times,serif" font-size="14.00">feynman_module.iterator</text>
</g>
<!-- n4_condition -->
<g id="node41" class="node">
<title>n4_condition</title>
<polygon fill="white" stroke="black" points="736.58,-833 736.58,-869 889.58,-869 889.58,-833 736.58,-833"/>
<text text-anchor="middle" x="813.08" y="-847.3" font-family="Times,serif" font-size="14.00">first_next_partition</text>
</g>
<!-- n4_port_1 -->
<g id="node43" class="node">
<title>n4_port_1</title>
<polygon fill="white" stroke="black" points="777.41,-686.67 813.08,-663.57 848.75,-686.67 848.72,-724.04 777.44,-724.04 777.41,-686.67"/>
<text text-anchor="middle" x="813.08" y="-700.8" font-family="Times,serif" font-size="14.00">vec</text>
<text text-anchor="middle" x="813.08" y="-685.8" font-family="Times,serif" font-size="14.00">list</text>
</g>
<!-- n4_port_1&#45;&gt;n0_place_4 -->
<g id="edge17" class="edge">
<title>n4_port_1&#45;&gt;n0_place_4</title>
<path fill="none" stroke="black" d="M848.6,-691.84C882.73,-688.72 935.44,-683.91 975.76,-680.23"/>
<path fill="none" stroke="transparent" d="M848.78,-693.83C882.91,-690.71 935.62,-685.9 975.94,-682.22"/>
<path fill="none" stroke="black" d="M848.96,-695.82C883.1,-692.71 935.8,-687.89 976.12,-684.21"/>
<polygon fill="black" stroke="black" points="976.27,-685.7 985.91,-681.31 975.63,-678.73 976.27,-685.7"/>
</g>
<!-- n4_port_2 -->
<g id="node44" class="node">
<title>n4_port_2</title>
<polygon fill="white" stroke="black" points="743.23,-602.67 813.08,-579.57 882.92,-602.67 882.86,-640.04 743.3,-640.04 743.23,-602.67"/>
<text text-anchor="middle" x="813.08" y="-616.8" font-family="Times,serif" font-size="14.00">vec_copy</text>
<text text-anchor="middle" x="813.08" y="-601.8" font-family="Times,serif" font-size="14.00">string</text>
</g>
<!-- n4_port_2&#45;&gt;n0_place_5 -->
<g id="edge16" class="edge">
<title>n4_port_2&#45;&gt;n0_place_5</title>
<path fill="none" stroke="black" d="M863.1,-595.96C881.22,-589.02 901.7,-580.41 919.58,-571 947,-556.57 975.99,-537.07 997.81,-521.44"/>
<polygon fill="black" stroke="black" points="1000.05,-524.14 1006.1,-515.44 995.95,-518.47 1000.05,-524.14"/>
</g>
<!-- n4_modcall -->
<g id="node45" class="node">
<title>n4_modcall</title>
<polygon fill="white" stroke="black" points="904.08,-562 722.08,-562 722.08,-526 904.08,-526 904.08,-562"/>
<text text-anchor="middle" x="813.08" y="-540.3" font-family="Times,serif" font-size="14.00">feynman_module.iterat</text>
</g>
<!-- n5_condition -->
<g id="node46" class="node">
<title>n5_condition</title>
<polygon fill="white" stroke="black" points="373.71,-833 373.71,-869 431.71,-869 431.71,-833 373.71,-833"/>
<text text-anchor="middle" x="402.71" y="-847.3" font-family="Times,serif" font-size="14.00">initial</text>
</g>
<!-- n5_port_2 -->
<g id="node49" class="node">
<title>n5_port_2</title>
<polygon fill="white" stroke="black" points="368.54,-602.67 402.71,-579.57 436.89,-602.67 436.85,-640.04 368.57,-640.04 368.54,-602.67"/>
<text text-anchor="middle" x="402.71" y="-616.8" font-family="Times,serif" font-size="14.00">v</text>
<text text-anchor="middle" x="402.71" y="-601.8" font-family="Times,serif" font-size="14.00">list</text>
</g>
<!-- n5_port_2&#45;&gt;n0_place_3 -->
<g id="edge19" class="edge">
<title>n5_port_2&#45;&gt;n0_place_3</title>
<path fill="none" stroke="black" d="M437.76,-622.81C460.41,-630.91 490.9,-642.17 517.47,-653.15 530.71,-658.62 544.81,-664.85 557.92,-670.81"/>
<path fill="none" stroke="transparent" d="M437.08,-624.69C459.71,-632.79 490.21,-644.05 516.71,-655 529.9,-660.45 544,-666.68 557.09,-672.63"/>
<path fill="none" stroke="black" d="M436.41,-626.57C459.02,-634.66 489.52,-645.92 515.95,-656.85 529.1,-662.28 543.19,-668.51 556.26,-674.45"/>
<polygon fill="black" stroke="black" points="555.87,-675.92 566.42,-676.91 558.79,-669.56 555.87,-675.92"/>
</g>
<!-- n5_modcall -->
<g id="node50" class="node">
<title>n5_modcall</title>
<polygon fill="white" stroke="black" points="508.71,-562 296.71,-562 296.71,-526 508.71,-526 508.71,-562"/>
<text text-anchor="middle" x="402.71" y="-540.3" font-family="Times,serif" font-size="14.00">feynman_module.gen_block</text>
</g>
</g>
</svg>
