<?xml version="1.0" encoding="UTF-8" standalone="no"?>
<!DOCTYPE svg PUBLIC "-//W3C//DTD SVG 1.1//EN"
 "http://www.w3.org/Graphics/SVG/1.1/DTD/svg11.dtd">
<!-- Generated by graphviz version 2.43.0 (0)
 -->
<!-- Title: feynman_deg Pages: 1 -->
<svg width="2636pt" height="1112pt"
 viewBox="0.00 0.00 2636.33 1112.00" xmlns="http://www.w3.org/2000/svg" xmlns:xlink="http://www.w3.org/1999/xlink">
<g id="graph0" class="graph" transform="scale(1 1) rotate(0) translate(4 1108)">
<title>feynman_deg</title>
<polygon fill="white" stroke="transparent" points="-4,4 -4,-1108 2632.33,-1108 2632.33,4 -4,4"/>
<g id="clust1" class="cluster">
<title>cluster_0</title>
<polygon fill="dimgray" stroke="black" points="8,-8 8,-1096 2620.33,-1096 2620.33,-8 8,-8"/>
</g>
<g id="clust2" class="cluster">
<title>cluster_net_0</title>
<polygon fill="white" stroke="black" points="159.37,-90 159.37,-1014 2612.33,-1014 2612.33,-90 159.37,-90"/>
</g>
<g id="clust3" class="cluster">
<title>cluster_1</title>
<polygon fill="yellow" stroke="black" points="2420.33,-550 2420.33,-910 2604.33,-910 2604.33,-550 2420.33,-550"/>
</g>
<g id="clust4" class="cluster">
<title>cluster_2</title>
<polygon fill="yellow" stroke="black" points="2117.33,-550 2117.33,-994 2305.33,-994 2305.33,-550 2117.33,-550"/>
</g>
<g id="clust5" class="cluster">
<title>cluster_3</title>
<polygon fill="yellow" stroke="black" points="1599.95,-646 1599.95,-1006 1938.95,-1006 1938.95,-646 1599.95,-646"/>
</g>
<g id="clust6" class="cluster">
<title>cluster_4</title>
<polygon fill="yellow" stroke="black" points="1100.51,-573 1100.51,-933 1460.51,-933 1460.51,-573 1100.51,-573"/>
</g>
<g id="clust7" class="cluster">
<title>cluster_5</title>
<polygon fill="yellow" stroke="black" points="685.92,-607 685.92,-883 905.92,-883 905.92,-607 685.92,-607"/>
</g>
<g id="clust8" class="cluster">
<title>cluster_6</title>
<polygon fill="yellow" stroke="black" points="2112.33,-98 2112.33,-542 2310.33,-542 2310.33,-98 2112.33,-98"/>
</g>
<g id="clust9" class="cluster">
<title>cluster_7</title>
<polygon fill="yellow" stroke="black" points="288.71,-646 288.71,-1006 509.71,-1006 509.71,-646 288.71,-646"/>
</g>
<!-- n0_condition -->
<g id="node1" class="node">
<title>n0_condition</title>
<polygon fill="white" stroke="black" points="18.19,-1006 18.19,-1042 129.19,-1042 129.19,-1006 18.19,-1006"/>
<text text-anchor="middle" x="73.69" y="-1020.3" font-family="Times,serif" font-size="14.00">feynman_deg</text>
</g>
<!-- n0_port_0 -->
<g id="node2" class="node">
<title>n0_port_0</title>
<polygon fill="white" stroke="black" points="131.56,-919.33 73.69,-942.43 15.81,-919.33 15.87,-881.96 131.5,-881.96 131.56,-919.33"/>
<text text-anchor="middle" x="73.69" y="-912.8" font-family="Times,serif" font-size="14.00">degree</text>
<text text-anchor="middle" x="73.69" y="-897.8" font-family="Times,serif" font-size="14.00">int</text>
</g>
<!-- n0_place_0 -->
<g id="node6" class="node">
<title>n0_place_0</title>
<ellipse fill="white" stroke="black" cx="214.04" cy="-909" rx="46.84" ry="26.74"/>
<text text-anchor="middle" x="214.04" y="-912.8" font-family="Times,serif" font-size="14.00">degree</text>
<text text-anchor="middle" x="214.04" y="-897.8" font-family="Times,serif" font-size="14.00">int</text>
</g>
<!-- n0_port_0&#45;&gt;n0_place_0 -->
<g id="edge23" class="edge">
<title>n0_port_0&#45;&gt;n0_place_0</title>
<path fill="none" stroke="black" stroke-dasharray="1,5" d="M131.76,-909C143.52,-909 155.76,-909 167.07,-909"/>
</g>
<!-- n0_port_1 -->
<g id="node3" class="node">
<title>n0_port_1</title>
<polygon fill="white" stroke="black" points="105.12,-835.33 73.69,-858.43 42.26,-835.33 42.29,-797.96 105.09,-797.96 105.12,-835.33"/>
<text text-anchor="middle" x="73.69" y="-828.8" font-family="Times,serif" font-size="14.00">N</text>
<text text-anchor="middle" x="73.69" y="-813.8" font-family="Times,serif" font-size="14.00">int</text>
</g>
<!-- n0_place_1 -->
<g id="node7" class="node">
<title>n0_place_1</title>
<ellipse fill="white" stroke="black" cx="214.04" cy="-825" rx="27" ry="26.74"/>
<text text-anchor="middle" x="214.04" y="-828.8" font-family="Times,serif" font-size="14.00">N</text>
<text text-anchor="middle" x="214.04" y="-813.8" font-family="Times,serif" font-size="14.00">int</text>
</g>
<!-- n0_port_1&#45;&gt;n0_place_1 -->
<g id="edge24" class="edge">
<title>n0_port_1&#45;&gt;n0_place_1</title>
<path fill="none" stroke="black" stroke-dasharray="1,5" d="M105.39,-825C129.75,-825 163.45,-825 186.62,-825"/>
</g>
<!-- n0_port_2 -->
<g id="node4" class="node">
<title>n0_port_2</title>
<polygon fill="white" stroke="black" points="847.55,-1065.33 795.92,-1088.43 744.28,-1065.33 744.33,-1027.96 847.51,-1027.96 847.55,-1065.33"/>
<text text-anchor="middle" x="795.92" y="-1058.8" font-family="Times,serif" font-size="14.00">graph</text>
<text text-anchor="middle" x="795.92" y="-1043.8" font-family="Times,serif" font-size="14.00">string</text>
</g>
<!-- n0_place_7 -->
<g id="node13" class="node">
<title>n0_place_7</title>
<ellipse fill="white" stroke="black" cx="1003.21" cy="-944" rx="41.94" ry="26.74"/>
<text text-anchor="middle" x="1003.21" y="-947.8" font-family="Times,serif" font-size="14.00">graph</text>
<text text-anchor="middle" x="1003.21" y="-932.8" font-family="Times,serif" font-size="14.00">string</text>
</g>
<!-- n0_port_2&#45;&gt;n0_place_7 -->
<g id="edge25" class="edge">
<title>n0_port_2&#45;&gt;n0_place_7</title>
<path fill="none" stroke="black" stroke-dasharray="1,5" d="M847.14,-1027.85C885.72,-1006.99 937.8,-978.83 970.71,-961.04"/>
</g>
<!-- n0_port_3 -->
<g id="node5" class="node">
<title>n0_port_3</title>
<polygon fill="white" stroke="black" points="2179.9,-38.67 2211.33,-15.57 2242.76,-38.67 2242.73,-76.04 2179.93,-76.04 2179.9,-38.67"/>
<text text-anchor="middle" x="2211.33" y="-52.8" font-family="Times,serif" font-size="14.00">L</text>
<text text-anchor="middle" x="2211.33" y="-37.8" font-family="Times,serif" font-size="14.00">int</text>
</g>
<!-- n0_place_6 -->
<g id="node12" class="node">
<title>n0_place_6</title>
<ellipse fill="white" stroke="black" cx="2365.33" cy="-277" rx="27" ry="26.74"/>
<text text-anchor="middle" x="2365.33" y="-280.8" font-family="Times,serif" font-size="14.00">L</text>
<text text-anchor="middle" x="2365.33" y="-265.8" font-family="Times,serif" font-size="14.00">int</text>
</g>
<!-- n0_port_3&#45;&gt;n0_place_6 -->
<g id="edge26" class="edge">
<title>n0_port_3&#45;&gt;n0_place_6</title>
<path fill="none" stroke="black" stroke-dasharray="1,5" d="M2242.97,-55.87C2264.68,-62.25 2292.93,-73.9 2310.33,-94 2349.36,-139.08 2360.2,-211.24 2363.2,-250.11"/>
</g>
<!-- n7_port_0 -->
<g id="node49" class="node">
<title>n7_port_0</title>
<polygon fill="white" stroke="black" points="430.64,-919.33 399.21,-942.43 367.78,-919.33 367.81,-881.96 430.61,-881.96 430.64,-919.33"/>
<text text-anchor="middle" x="399.21" y="-912.8" font-family="Times,serif" font-size="14.00">d</text>
<text text-anchor="middle" x="399.21" y="-897.8" font-family="Times,serif" font-size="14.00">int</text>
</g>
<!-- n0_place_0&#45;&gt;n7_port_0 -->
<g id="edge21" class="edge">
<title>n0_place_0&#45;&gt;n7_port_0</title>
<path fill="none" stroke="black" d="M260.79,-909C290.52,-909 328.93,-909 357.58,-909"/>
<polygon fill="black" stroke="black" points="357.66,-912.5 367.66,-909 357.66,-905.5 357.66,-912.5"/>
</g>
<!-- n7_port_1 -->
<g id="node50" class="node">
<title>n7_port_1</title>
<polygon fill="white" stroke="black" points="430.64,-835.33 399.21,-858.43 367.78,-835.33 367.81,-797.96 430.61,-797.96 430.64,-835.33"/>
<text text-anchor="middle" x="399.21" y="-828.8" font-family="Times,serif" font-size="14.00">n</text>
<text text-anchor="middle" x="399.21" y="-813.8" font-family="Times,serif" font-size="14.00">int</text>
</g>
<!-- n0_place_1&#45;&gt;n7_port_1 -->
<g id="edge22" class="edge">
<title>n0_place_1&#45;&gt;n7_port_1</title>
<path fill="none" stroke="black" d="M241.28,-825C271.72,-825 322.23,-825 357.71,-825"/>
<polygon fill="black" stroke="black" points="357.74,-828.5 367.74,-825 357.74,-821.5 357.74,-828.5"/>
</g>
<!-- n0_place_2 -->
<g id="node8" class="node">
<title>n0_place_2</title>
<ellipse fill="white" stroke="black" cx="1003.21" cy="-709" rx="69.09" ry="26.74"/>
<text text-anchor="middle" x="1003.21" y="-712.8" font-family="Times,serif" font-size="14.00">branchtype</text>
<text text-anchor="middle" x="1003.21" y="-697.8" font-family="Times,serif" font-size="14.00">list</text>
</g>
<!-- n4_port_0 -->
<g id="node34" class="node">
<title>n4_port_0</title>
<polygon fill="white" stroke="black" points="1314.69,-762.33 1280.51,-785.43 1246.34,-762.33 1246.37,-724.96 1314.65,-724.96 1314.69,-762.33"/>
<text text-anchor="middle" x="1280.51" y="-755.8" font-family="Times,serif" font-size="14.00">a</text>
<text text-anchor="middle" x="1280.51" y="-740.8" font-family="Times,serif" font-size="14.00">list</text>
</g>
<!-- n0_place_2&#45;&gt;n4_port_0 -->
<g id="edge12" class="edge">
<title>n0_place_2&#45;&gt;n4_port_0</title>
<path fill="none" stroke="black" d="M1067.72,-718.92C1119.43,-727 1191.03,-738.18 1236.31,-745.25"/>
<polygon fill="black" stroke="black" points="1235.97,-748.74 1246.39,-746.83 1237.05,-741.83 1235.97,-748.74"/>
</g>
<!-- n0_place_3 -->
<g id="node9" class="node">
<title>n0_place_3</title>
<ellipse fill="white" stroke="black" cx="2025.64" cy="-819" rx="48.17" ry="26.74"/>
<text text-anchor="middle" x="2025.64" y="-822.8" font-family="Times,serif" font-size="14.00">fey_out</text>
<text text-anchor="middle" x="2025.64" y="-807.8" font-family="Times,serif" font-size="14.00">int</text>
</g>
<!-- n2_port_0 -->
<g id="node23" class="node">
<title>n2_port_0</title>
<polygon fill="white" stroke="black" points="2242.76,-907.33 2211.33,-930.43 2179.9,-907.33 2179.93,-869.96 2242.73,-869.96 2242.76,-907.33"/>
<text text-anchor="middle" x="2211.33" y="-900.8" font-family="Times,serif" font-size="14.00">a</text>
<text text-anchor="middle" x="2211.33" y="-885.8" font-family="Times,serif" font-size="14.00">int</text>
</g>
<!-- n0_place_3&#45;&gt;n2_port_0 -->
<g id="edge7" class="edge">
<title>n0_place_3&#45;&gt;n2_port_0</title>
<path fill="none" stroke="black" d="M2064.7,-835.16C2095.65,-848.3 2139.18,-866.79 2170.58,-880.12"/>
<polygon fill="black" stroke="black" points="2169.34,-883.4 2179.91,-884.08 2172.07,-876.95 2169.34,-883.4"/>
</g>
<!-- n6_port_0 -->
<g id="node43" class="node">
<title>n6_port_0</title>
<polygon fill="white" stroke="black" points="2242.76,-455.33 2211.33,-478.43 2179.9,-455.33 2179.93,-417.96 2242.73,-417.96 2242.76,-455.33"/>
<text text-anchor="middle" x="2211.33" y="-448.8" font-family="Times,serif" font-size="14.00">a</text>
<text text-anchor="middle" x="2211.33" y="-433.8" font-family="Times,serif" font-size="14.00">int</text>
</g>
<!-- n0_place_3&#45;&gt;n6_port_0 -->
<g id="edge18" class="edge">
<title>n0_place_3&#45;&gt;n6_port_0</title>
<path fill="none" stroke="black" d="M2033.52,-792.26C2053.76,-713.65 2111.69,-488.75 2112.33,-488 2126.96,-470.82 2149.77,-460.26 2169.71,-453.91"/>
<polygon fill="black" stroke="black" points="2170.9,-457.2 2179.51,-451.04 2168.93,-450.49 2170.9,-457.2"/>
</g>
<!-- n0_place_4 -->
<g id="node10" class="node">
<title>n0_place_4</title>
<ellipse fill="white" stroke="black" cx="597.81" cy="-756" rx="60.21" ry="26.74"/>
<text text-anchor="middle" x="597.81" y="-759.8" font-family="Times,serif" font-size="14.00">d_vectors</text>
<text text-anchor="middle" x="597.81" y="-744.8" font-family="Times,serif" font-size="14.00">list</text>
</g>
<!-- n5_port_0 -->
<g id="node39" class="node">
<title>n5_port_0</title>
<polygon fill="white" stroke="black" points="830.09,-796.33 795.92,-819.43 761.74,-796.33 761.78,-758.96 830.06,-758.96 830.09,-796.33"/>
<text text-anchor="middle" x="795.92" y="-789.8" font-family="Times,serif" font-size="14.00">v</text>
<text text-anchor="middle" x="795.92" y="-774.8" font-family="Times,serif" font-size="14.00">list</text>
</g>
<!-- n0_place_4&#45;&gt;n5_port_0 -->
<g id="edge15" class="edge">
<title>n0_place_4&#45;&gt;n5_port_0</title>
<path fill="none" stroke="black" d="M655.01,-764.6C685.75,-769.3 723.26,-775.04 751.69,-779.39"/>
<polygon fill="black" stroke="black" points="751.32,-782.87 761.73,-780.92 752.38,-775.95 751.32,-782.87"/>
</g>
<!-- n0_place_5 -->
<g id="node11" class="node">
<title>n0_place_5</title>
<ellipse fill="white" stroke="black" cx="1530.23" cy="-764" rx="41.94" ry="26.74"/>
<text text-anchor="middle" x="1530.23" y="-767.8" font-family="Times,serif" font-size="14.00">sign</text>
<text text-anchor="middle" x="1530.23" y="-752.8" font-family="Times,serif" font-size="14.00">string</text>
</g>
<!-- n3_port_0 -->
<g id="node29" class="node">
<title>n3_port_0</title>
<polygon fill="white" stroke="black" points="1821.09,-835.33 1769.45,-858.43 1717.81,-835.33 1717.86,-797.96 1821.04,-797.96 1821.09,-835.33"/>
<text text-anchor="middle" x="1769.45" y="-828.8" font-family="Times,serif" font-size="14.00">a</text>
<text text-anchor="middle" x="1769.45" y="-813.8" font-family="Times,serif" font-size="14.00">string</text>
</g>
<!-- n0_place_5&#45;&gt;n3_port_0 -->
<g id="edge9" class="edge">
<title>n0_place_5&#45;&gt;n3_port_0</title>
<path fill="none" stroke="black" d="M1568.63,-774.53C1578.78,-777.33 1589.77,-780.33 1599.95,-783 1635.6,-792.37 1675.63,-802.37 1707.73,-810.26"/>
<polygon fill="black" stroke="black" points="1707.31,-813.76 1717.86,-812.75 1708.98,-806.96 1707.31,-813.76"/>
</g>
<!-- n1_port_1 -->
<g id="node18" class="node">
<title>n1_port_1</title>
<polygon fill="white" stroke="black" points="2543.76,-655.33 2512.33,-678.43 2480.9,-655.33 2480.93,-617.96 2543.73,-617.96 2543.76,-655.33"/>
<text text-anchor="middle" x="2512.33" y="-648.8" font-family="Times,serif" font-size="14.00">l</text>
<text text-anchor="middle" x="2512.33" y="-633.8" font-family="Times,serif" font-size="14.00">int</text>
</g>
<!-- n0_place_6&#45;&gt;n1_port_1 -->
<g id="edge3" class="edge">
<title>n0_place_6&#45;&gt;n1_port_1</title>
<path fill="none" stroke="black" d="M2367.61,-304.07C2371.37,-373.55 2384.51,-556.01 2420.33,-603 2432.76,-619.31 2453.02,-629.5 2471.28,-635.75"/>
<polygon fill="black" stroke="black" points="2470.28,-639.11 2480.87,-638.75 2472.37,-632.43 2470.28,-639.11"/>
</g>
<!-- n3_port_1 -->
<g id="node30" class="node">
<title>n3_port_1</title>
<polygon fill="white" stroke="black" points="1821.09,-919.33 1769.45,-942.43 1717.81,-919.33 1717.86,-881.96 1821.04,-881.96 1821.09,-919.33"/>
<text text-anchor="middle" x="1769.45" y="-912.8" font-family="Times,serif" font-size="14.00">G</text>
<text text-anchor="middle" x="1769.45" y="-897.8" font-family="Times,serif" font-size="14.00">string</text>
</g>
<!-- n0_place_7&#45;&gt;n3_port_1 -->
<g id="edge10" class="edge">
<title>n0_place_7&#45;&gt;n3_port_1</title>
<path fill="none" stroke="black" stroke-dasharray="5,2" d="M1045.15,-944.4C1125.07,-944.97 1307.42,-945.12 1460.51,-937 1546.58,-932.43 1645.82,-922.58 1707.85,-915.87"/>
<polygon fill="black" stroke="black" points="1708.3,-919.34 1717.86,-914.78 1707.54,-912.38 1708.3,-919.34"/>
</g>
<!-- n4_port_1 -->
<g id="node35" class="node">
<title>n4_port_1</title>
<polygon fill="white" stroke="black" points="1332.15,-846.33 1280.51,-869.43 1228.88,-846.33 1228.92,-808.96 1332.1,-808.96 1332.15,-846.33"/>
<text text-anchor="middle" x="1280.51" y="-839.8" font-family="Times,serif" font-size="14.00">G</text>
<text text-anchor="middle" x="1280.51" y="-824.8" font-family="Times,serif" font-size="14.00">string</text>
</g>
<!-- n0_place_7&#45;&gt;n4_port_1 -->
<g id="edge13" class="edge">
<title>n0_place_7&#45;&gt;n4_port_1</title>
<path fill="none" stroke="black" stroke-dasharray="5,2" d="M1029.69,-923.07C1048.29,-908.75 1074.67,-890.38 1100.51,-879 1138.05,-862.47 1182.93,-851.71 1218.37,-845.08"/>
<polygon fill="black" stroke="black" points="1219.35,-848.46 1228.57,-843.24 1218.1,-841.58 1219.35,-848.46"/>
</g>
<!-- n0_place_8 -->
<g id="node14" class="node">
<title>n0_place_8</title>
<ellipse fill="white" stroke="black" cx="2025.64" cy="-549" rx="50.41" ry="37.45"/>
<text text-anchor="middle" x="2025.64" y="-560.3" font-family="Times,serif" font-size="14.00">left_init</text>
<text text-anchor="middle" x="2025.64" y="-545.3" font-family="Times,serif" font-size="14.00">control</text>
<text text-anchor="middle" x="2025.64" y="-530.3" font-family="Times,serif" font-size="14.00">[]</text>
</g>
<!-- n6_port_1 -->
<g id="node44" class="node">
<title>n6_port_1</title>
<polygon fill="white" stroke="black" points="2269.95,-371.33 2211.33,-394.43 2152.71,-371.33 2152.76,-333.96 2269.9,-333.96 2269.95,-371.33"/>
<text text-anchor="middle" x="2211.33" y="-364.8" font-family="Times,serif" font-size="14.00">s</text>
<text text-anchor="middle" x="2211.33" y="-349.8" font-family="Times,serif" font-size="14.00">control</text>
</g>
<!-- n0_place_8&#45;&gt;n6_port_1 -->
<g id="edge19" class="edge">
<title>n0_place_8&#45;&gt;n6_port_1</title>
<path fill="none" stroke="black" d="M2040.17,-512.82C2053.95,-480.29 2078.16,-433.12 2112.33,-403 2123.73,-392.96 2137.88,-385.04 2151.87,-378.91"/>
<polygon fill="black" stroke="black" points="2153.57,-381.99 2161.48,-374.95 2150.9,-375.52 2153.57,-381.99"/>
</g>
<!-- n0_place_9 -->
<g id="node15" class="node">
<title>n0_place_9</title>
<ellipse fill="white" stroke="black" cx="2025.64" cy="-330" rx="58.88" ry="26.74"/>
<text text-anchor="middle" x="2025.64" y="-333.8" font-family="Times,serif" font-size="14.00">right_init</text>
<text text-anchor="middle" x="2025.64" y="-318.8" font-family="Times,serif" font-size="14.00">control</text>
</g>
<!-- n2_port_1 -->
<g id="node24" class="node">
<title>n2_port_1</title>
<polygon fill="white" stroke="black" points="2269.95,-655.33 2211.33,-678.43 2152.71,-655.33 2152.76,-617.96 2269.9,-617.96 2269.95,-655.33"/>
<text text-anchor="middle" x="2211.33" y="-648.8" font-family="Times,serif" font-size="14.00">s</text>
<text text-anchor="middle" x="2211.33" y="-633.8" font-family="Times,serif" font-size="14.00">control</text>
</g>
<!-- n0_place_9&#45;&gt;n2_port_1 -->
<g id="edge6" class="edge">
<title>n0_place_9&#45;&gt;n2_port_1</title>
<path fill="none" stroke="black" d="M2035.94,-356.54C2047.69,-390.39 2068.32,-450.78 2084.33,-503 2097.86,-547.13 2081.92,-568.28 2112.33,-603 2120.75,-612.61 2131.76,-620.1 2143.34,-625.9"/>
<polygon fill="black" stroke="black" points="2142.17,-629.21 2152.72,-630.2 2145.09,-622.85 2142.17,-629.21"/>
</g>
<!-- n0_place_10 -->
<g id="node16" class="node">
<title>n0_place_10</title>
<ellipse fill="white" stroke="black" cx="2365.33" cy="-729" rx="27" ry="26.74"/>
<text text-anchor="middle" x="2365.33" y="-732.8" font-family="Times,serif" font-size="14.00">R</text>
<text text-anchor="middle" x="2365.33" y="-717.8" font-family="Times,serif" font-size="14.00">int</text>
</g>
<!-- n1_port_2 -->
<g id="node19" class="node">
<title>n1_port_2</title>
<polygon fill="white" stroke="black" points="2543.76,-739.33 2512.33,-762.43 2480.9,-739.33 2480.93,-701.96 2543.73,-701.96 2543.76,-739.33"/>
<text text-anchor="middle" x="2512.33" y="-732.8" font-family="Times,serif" font-size="14.00">r</text>
<text text-anchor="middle" x="2512.33" y="-717.8" font-family="Times,serif" font-size="14.00">int</text>
</g>
<!-- n0_place_10&#45;&gt;n1_port_2 -->
<g id="edge2" class="edge">
<title>n0_place_10&#45;&gt;n1_port_2</title>
<path fill="none" stroke="black" d="M2392.59,-729C2414.3,-729 2445.5,-729 2470.47,-729"/>
<polygon fill="black" stroke="black" points="2470.75,-732.5 2480.75,-729 2470.75,-725.5 2470.75,-732.5"/>
</g>
<!-- n1_condition -->
<g id="node17" class="node">
<title>n1_condition</title>
<polygon fill="white" stroke="black" points="2477.83,-865 2477.83,-901 2546.83,-901 2546.83,-865 2477.83,-865"/>
<text text-anchor="middle" x="2512.33" y="-879.3" font-family="Times,serif" font-size="14.00">Reduce</text>
</g>
<!-- n1_port_0 -->
<g id="node20" class="node">
<title>n1_port_0</title>
<polygon fill="white" stroke="black" points="2480.9,-802.67 2512.33,-779.57 2543.76,-802.67 2543.73,-840.04 2480.93,-840.04 2480.9,-802.67"/>
<text text-anchor="middle" x="2512.33" y="-816.8" font-family="Times,serif" font-size="14.00">s</text>
<text text-anchor="middle" x="2512.33" y="-801.8" font-family="Times,serif" font-size="14.00">int</text>
</g>
<!-- n1_port_0&#45;&gt;n0_place_3 -->
<g id="edge1" class="edge">
<title>n1_port_0&#45;&gt;n0_place_3</title>
<path fill="none" stroke="black" d="M2480.62,-823.33C2461.95,-830.58 2438.31,-841.56 2420.33,-856 2358.08,-905.98 2382.01,-962.86 2310.33,-998 2231.32,-1036.74 2186.79,-1044.91 2112.33,-998 2062.91,-966.87 2041.37,-898.47 2032.45,-855.82"/>
<polygon fill="black" stroke="black" points="2035.85,-854.97 2030.49,-845.83 2028.98,-856.32 2035.85,-854.97"/>
</g>
<!-- n1_modcall -->
<g id="node21" class="node">
<title>n1_modcall</title>
<polygon fill="white" stroke="black" points="2596.33,-594 2428.33,-594 2428.33,-558 2596.33,-558 2596.33,-594"/>
<text text-anchor="middle" x="2512.33" y="-572.3" font-family="Times,serif" font-size="14.00">feynman_module.add</text>
</g>
<!-- n2_condition -->
<g id="node22" class="node">
<title>n2_condition</title>
<polygon fill="white" stroke="black" points="2184.33,-949 2184.33,-985 2238.33,-985 2238.33,-949 2184.33,-949"/>
<text text-anchor="middle" x="2211.33" y="-963.3" font-family="Times,serif" font-size="14.00">RHS</text>
</g>
<!-- n2_port_2 -->
<g id="node25" class="node">
<title>n2_port_2</title>
<polygon fill="white" stroke="black" points="2179.9,-718.67 2211.33,-695.57 2242.76,-718.67 2242.73,-756.04 2179.93,-756.04 2179.9,-718.67"/>
<text text-anchor="middle" x="2211.33" y="-732.8" font-family="Times,serif" font-size="14.00">a</text>
<text text-anchor="middle" x="2211.33" y="-717.8" font-family="Times,serif" font-size="14.00">int</text>
</g>
<!-- n2_port_2&#45;&gt;n0_place_10 -->
<g id="edge4" class="edge">
<title>n2_port_2&#45;&gt;n0_place_10</title>
<path fill="none" stroke="black" d="M2243.09,-729C2267.64,-729 2302.09,-729 2328,-729"/>
<polygon fill="black" stroke="black" points="2328.17,-732.5 2338.17,-729 2328.17,-725.5 2328.17,-732.5"/>
</g>
<!-- n2_port_3 -->
<g id="node26" class="node">
<title>n2_port_3</title>
<polygon fill="white" stroke="black" points="2152.71,-802.67 2211.33,-779.57 2269.95,-802.67 2269.9,-840.04 2152.76,-840.04 2152.71,-802.67"/>
<text text-anchor="middle" x="2211.33" y="-816.8" font-family="Times,serif" font-size="14.00">s</text>
<text text-anchor="middle" x="2211.33" y="-801.8" font-family="Times,serif" font-size="14.00">control</text>
</g>
<!-- n2_port_3&#45;&gt;n0_place_8 -->
<g id="edge5" class="edge">
<title>n2_port_3&#45;&gt;n0_place_8</title>
<path fill="none" stroke="black" d="M2159.57,-799.97C2142.76,-793.56 2125.11,-784.26 2112.33,-771 2065.62,-722.55 2043.65,-645.86 2033.86,-596.49"/>
<polygon fill="black" stroke="black" points="2037.25,-595.57 2031.95,-586.39 2030.37,-596.87 2037.25,-595.57"/>
</g>
<!-- n2_modcall -->
<g id="node27" class="node">
<title>n2_modcall</title>
<polygon fill="white" stroke="black" points="2297.33,-594 2125.33,-594 2125.33,-558 2297.33,-558 2297.33,-594"/>
<text text-anchor="middle" x="2211.33" y="-572.3" font-family="Times,serif" font-size="14.00">feynman_module.plus</text>
</g>
<!-- n3_condition -->
<g id="node28" class="node">
<title>n3_condition</title>
<polygon fill="white" stroke="black" points="1702.45,-961 1702.45,-997 1836.45,-997 1836.45,-961 1702.45,-961"/>
<text text-anchor="middle" x="1769.45" y="-975.3" font-family="Times,serif" font-size="14.00">feynman_degree</text>
</g>
<!-- n3_port_2 -->
<g id="node31" class="node">
<title>n3_port_2</title>
<polygon fill="white" stroke="black" points="1738.02,-730.67 1769.45,-707.57 1800.88,-730.67 1800.85,-768.04 1738.05,-768.04 1738.02,-730.67"/>
<text text-anchor="middle" x="1769.45" y="-744.8" font-family="Times,serif" font-size="14.00">s</text>
<text text-anchor="middle" x="1769.45" y="-729.8" font-family="Times,serif" font-size="14.00">int</text>
</g>
<!-- n3_port_2&#45;&gt;n0_place_3 -->
<g id="edge8" class="edge">
<title>n3_port_2&#45;&gt;n0_place_3</title>
<path fill="none" stroke="black" d="M1800.98,-747.13C1835.05,-754.32 1891.6,-767.26 1938.95,-783 1952.01,-787.34 1965.87,-792.78 1978.56,-798.11"/>
<polygon fill="black" stroke="black" points="1977.43,-801.44 1988,-802.15 1980.18,-795 1977.43,-801.44"/>
</g>
<!-- n3_modcall -->
<g id="node32" class="node">
<title>n3_modcall</title>
<polygon fill="white" stroke="black" points="1930.95,-690 1607.95,-690 1607.95,-654 1930.95,-654 1930.95,-690"/>
<text text-anchor="middle" x="1769.45" y="-668.3" font-family="Times,serif" font-size="14.00">feynman_module.feynman_integral_degree</text>
</g>
<!-- n4_condition -->
<g id="node33" class="node">
<title>n4_condition</title>
<polygon fill="white" stroke="black" points="1238.01,-888 1238.01,-924 1323.01,-924 1323.01,-888 1238.01,-888"/>
<text text-anchor="middle" x="1280.51" y="-902.3" font-family="Times,serif" font-size="14.00">signature</text>
</g>
<!-- n4_port_2 -->
<g id="node36" class="node">
<title>n4_port_2</title>
<polygon fill="white" stroke="black" points="1246.34,-657.67 1280.51,-634.57 1314.69,-657.67 1314.65,-695.04 1246.37,-695.04 1246.34,-657.67"/>
<text text-anchor="middle" x="1280.51" y="-671.8" font-family="Times,serif" font-size="14.00">s</text>
<text text-anchor="middle" x="1280.51" y="-656.8" font-family="Times,serif" font-size="14.00">list</text>
</g>
<!-- n4_port_2&#45;&gt;n0_place_5 -->
<g id="edge11" class="edge">
<title>n4_port_2&#45;&gt;n0_place_5</title>
<path fill="none" stroke="black" d="M1314.88,-669.42C1352.02,-674.22 1413.11,-685.07 1461.38,-708.2 1475.1,-714.83 1488.33,-724.27 1499.65,-733.55"/>
<path fill="none" stroke="transparent" d="M1314.62,-671.41C1351.67,-676.19 1412.76,-687.04 1460.51,-710 1473.94,-716.46 1487.17,-725.9 1498.39,-735.09"/>
<path fill="none" stroke="black" d="M1314.36,-673.39C1351.32,-678.16 1412.41,-689.01 1459.64,-711.8 1472.77,-718.08 1486.01,-727.53 1497.12,-736.64"/>
<polygon fill="black" stroke="black" points="1496.28,-737.9 1506.17,-741.7 1500.81,-732.56 1496.28,-737.9"/>
</g>
<!-- n4_modcall -->
<g id="node37" class="node">
<title>n4_modcall</title>
<polygon fill="white" stroke="black" points="1452.51,-617 1108.51,-617 1108.51,-581 1452.51,-581 1452.51,-617"/>
<text text-anchor="middle" x="1280.51" y="-595.3" font-family="Times,serif" font-size="14.00">feynman_module.signature_and_multiplicities</text>
</g>
<!-- n5_condition -->
<g id="node38" class="node">
<title>n5_condition</title>
<polygon fill="white" stroke="black" points="742.42,-838 742.42,-874 849.42,-874 849.42,-838 742.42,-838"/>
<text text-anchor="middle" x="795.92" y="-852.3" font-family="Times,serif" font-size="14.00">Combination</text>
</g>
<!-- n5_port_1 -->
<g id="node40" class="node">
<title>n5_port_1</title>
<polygon fill="white" stroke="black" points="760.25,-691.67 795.92,-668.57 831.59,-691.67 831.56,-729.04 760.28,-729.04 760.25,-691.67"/>
<text text-anchor="middle" x="795.92" y="-705.8" font-family="Times,serif" font-size="14.00">vec</text>
<text text-anchor="middle" x="795.92" y="-690.8" font-family="Times,serif" font-size="14.00">list</text>
</g>
<!-- n5_port_1&#45;&gt;n0_place_2 -->
<g id="edge14" class="edge">
<title>n5_port_1&#45;&gt;n0_place_2</title>
<path fill="none" stroke="black" d="M831.81,-701.19C857,-702.05 892.05,-703.24 923.82,-704.33"/>
<path fill="none" stroke="transparent" d="M831.74,-703.19C856.93,-704.05 891.98,-705.24 923.75,-706.32"/>
<path fill="none" stroke="black" d="M831.68,-705.19C856.86,-706.05 891.91,-707.24 923.68,-708.32"/>
<polygon fill="black" stroke="black" points="923.82,-709.83 933.93,-706.67 924.06,-702.83 923.82,-709.83"/>
</g>
<!-- n5_modcall -->
<g id="node41" class="node">
<title>n5_modcall</title>
<polygon fill="white" stroke="black" points="897.92,-651 693.92,-651 693.92,-615 897.92,-615 897.92,-651"/>
<text text-anchor="middle" x="795.92" y="-629.3" font-family="Times,serif" font-size="14.00">feynman_module.partition</text>
</g>
<!-- n6_condition -->
<g id="node42" class="node">
<title>n6_condition</title>
<polygon fill="white" stroke="black" points="2184.33,-497 2184.33,-533 2238.33,-533 2238.33,-497 2184.33,-497"/>
<text text-anchor="middle" x="2211.33" y="-511.3" font-family="Times,serif" font-size="14.00">LHS</text>
</g>
<!-- n6_port_2 -->
<g id="node45" class="node">
<title>n6_port_2</title>
<polygon fill="white" stroke="black" points="2179.9,-266.67 2211.33,-243.57 2242.76,-266.67 2242.73,-304.04 2179.93,-304.04 2179.9,-266.67"/>
<text text-anchor="middle" x="2211.33" y="-280.8" font-family="Times,serif" font-size="14.00">a</text>
<text text-anchor="middle" x="2211.33" y="-265.8" font-family="Times,serif" font-size="14.00">int</text>
</g>
<!-- n6_port_2&#45;&gt;n0_place_6 -->
<g id="edge16" class="edge">
<title>n6_port_2&#45;&gt;n0_place_6</title>
<path fill="none" stroke="black" d="M2243.09,-277C2267.64,-277 2302.09,-277 2328,-277"/>
<polygon fill="black" stroke="black" points="2328.17,-280.5 2338.17,-277 2328.17,-273.5 2328.17,-280.5"/>
</g>
<!-- n6_port_3 -->
<g id="node46" class="node">
<title>n6_port_3</title>
<polygon fill="white" stroke="black" points="2152.71,-182.67 2211.33,-159.57 2269.95,-182.67 2269.9,-220.04 2152.76,-220.04 2152.71,-182.67"/>
<text text-anchor="middle" x="2211.33" y="-196.8" font-family="Times,serif" font-size="14.00">s</text>
<text text-anchor="middle" x="2211.33" y="-181.8" font-family="Times,serif" font-size="14.00">control</text>
</g>
<!-- n6_port_3&#45;&gt;n0_place_9 -->
<g id="edge17" class="edge">
<title>n6_port_3&#45;&gt;n0_place_9</title>
<path fill="none" stroke="black" d="M2152.65,-212.82C2138.81,-218.87 2124.52,-226.28 2112.33,-235 2088.67,-251.92 2066.79,-276.39 2051.07,-296.26"/>
<polygon fill="black" stroke="black" points="2048.29,-294.13 2044.93,-304.17 2053.82,-298.42 2048.29,-294.13"/>
</g>
<!-- n6_modcall -->
<g id="node47" class="node">
<title>n6_modcall</title>
<polygon fill="white" stroke="black" points="2302.33,-142 2120.33,-142 2120.33,-106 2302.33,-106 2302.33,-142"/>
<text text-anchor="middle" x="2211.33" y="-120.3" font-family="Times,serif" font-size="14.00">feynman_module.count</text>
</g>
<!-- n7_condition -->
<g id="node48" class="node">
<title>n7_condition</title>
<polygon fill="white" stroke="black" points="359.71,-961 359.71,-997 438.71,-997 438.71,-961 359.71,-961"/>
<text text-anchor="middle" x="399.21" y="-975.3" font-family="Times,serif" font-size="14.00">partition</text>
</g>
<!-- n7_port_2 -->
<g id="node51" class="node">
<title>n7_port_2</title>
<polygon fill="white" stroke="black" points="365.04,-730.67 399.21,-707.57 433.39,-730.67 433.35,-768.04 365.07,-768.04 365.04,-730.67"/>
<text text-anchor="middle" x="399.21" y="-744.8" font-family="Times,serif" font-size="14.00">v</text>
<text text-anchor="middle" x="399.21" y="-729.8" font-family="Times,serif" font-size="14.00">list</text>
</g>
<!-- n7_port_2&#45;&gt;n0_place_4 -->
<g id="edge20" class="edge">
<title>n7_port_2&#45;&gt;n0_place_4</title>
<path fill="none" stroke="black" d="M433.71,-741.55C459.52,-743.52 496.12,-746.31 528.13,-748.75"/>
<path fill="none" stroke="transparent" d="M433.56,-743.54C459.36,-745.51 495.97,-748.31 527.98,-750.75"/>
<path fill="none" stroke="black" d="M433.41,-745.54C459.21,-747.51 495.82,-750.3 527.83,-752.74"/>
<polygon fill="black" stroke="black" points="527.96,-754.26 538.19,-751.53 528.49,-747.28 527.96,-754.26"/>
</g>
<!-- n7_modcall -->
<g id="node52" class="node">
<title>n7_modcall</title>
<polygon fill="white" stroke="black" points="501.71,-690 296.71,-690 296.71,-654 501.71,-654 501.71,-690"/>
<text text-anchor="middle" x="399.21" y="-668.3" font-family="Times,serif" font-size="14.00">feynman_module.sum_deg</text>
</g>
</g>
</svg>
