<?xml version="1.0" encoding="UTF-8" standalone="no"?>
<!DOCTYPE svg PUBLIC "-//W3C//DTD SVG 1.1//EN"
 "http://www.w3.org/Graphics/SVG/1.1/DTD/svg11.dtd">
<!-- Generated by graphviz version 2.43.0 (0)
 -->
<!-- Title: feynman_deg Pages: 1 -->
<svg width="1826pt" height="842pt"
 viewBox="0.00 0.00 1825.68 842.00" xmlns="http://www.w3.org/2000/svg" xmlns:xlink="http://www.w3.org/1999/xlink">
<g id="graph0" class="graph" transform="scale(1 1) rotate(0) translate(4 838)">
<title>feynman_deg</title>
<polygon fill="white" stroke="transparent" points="-4,4 -4,-838 1821.68,-838 1821.68,4 -4,4"/>
<g id="clust1" class="cluster">
<title>cluster_0</title>
<polygon fill="dimgray" stroke="black" points="8,-8 8,-826 1809.68,-826 1809.68,-8 8,-8"/>
</g>
<g id="clust2" class="cluster">
<title>cluster_net_0</title>
<polygon fill="white" stroke="black" points="159.37,-116 159.37,-660 1801.68,-660 1801.68,-116 159.37,-116"/>
</g>
<g id="clust3" class="cluster">
<title>cluster_1</title>
<polygon fill="yellow" stroke="black" points="1605.68,-124 1605.68,-484 1793.68,-484 1793.68,-124 1605.68,-124"/>
</g>
<g id="clust4" class="cluster">
<title>cluster_2</title>
<polygon fill="yellow" stroke="black" points="1114.51,-124 1114.51,-652 1453.51,-652 1453.51,-124 1114.51,-124"/>
</g>
<g id="clust5" class="cluster">
<title>cluster_3</title>
<polygon fill="yellow" stroke="black" points="699.92,-136 699.92,-496 919.92,-496 919.92,-136 699.92,-136"/>
</g>
<g id="clust6" class="cluster">
<title>cluster_4</title>
<polygon fill="yellow" stroke="black" points="288.71,-220 288.71,-580 523.71,-580 523.71,-220 288.71,-220"/>
</g>
<!-- n0_condition -->
<g id="node1" class="node">
<title>n0_condition</title>
<polygon fill="white" stroke="black" points="18.19,-658 18.19,-694 129.19,-694 129.19,-658 18.19,-658"/>
<text text-anchor="middle" x="73.69" y="-672.3" font-family="Times,serif" font-size="14.00">feynman_deg</text>
</g>
<!-- n0_port_0 -->
<g id="node2" class="node">
<title>n0_port_0</title>
<polygon fill="white" stroke="black" points="131.56,-493.33 73.69,-516.43 15.81,-493.33 15.87,-455.96 131.5,-455.96 131.56,-493.33"/>
<text text-anchor="middle" x="73.69" y="-486.8" font-family="Times,serif" font-size="14.00">degree</text>
<text text-anchor="middle" x="73.69" y="-471.8" font-family="Times,serif" font-size="14.00">int</text>
</g>
<!-- n0_place_0 -->
<g id="node9" class="node">
<title>n0_place_0</title>
<ellipse fill="white" stroke="black" cx="214.04" cy="-483" rx="46.84" ry="26.74"/>
<text text-anchor="middle" x="214.04" y="-486.8" font-family="Times,serif" font-size="14.00">degree</text>
<text text-anchor="middle" x="214.04" y="-471.8" font-family="Times,serif" font-size="14.00">int</text>
</g>
<!-- n0_port_0&#45;&gt;n0_place_0 -->
<g id="edge15" class="edge">
<title>n0_port_0&#45;&gt;n0_place_0</title>
<path fill="none" stroke="black" stroke-dasharray="1,5" d="M131.76,-483C143.52,-483 155.76,-483 167.07,-483"/>
</g>
<!-- n0_port_1 -->
<g id="node3" class="node">
<title>n0_port_1</title>
<polygon fill="white" stroke="black" points="105.12,-409.33 73.69,-432.43 42.26,-409.33 42.29,-371.96 105.09,-371.96 105.12,-409.33"/>
<text text-anchor="middle" x="73.69" y="-402.8" font-family="Times,serif" font-size="14.00">N</text>
<text text-anchor="middle" x="73.69" y="-387.8" font-family="Times,serif" font-size="14.00">int</text>
</g>
<!-- n0_place_1 -->
<g id="node10" class="node">
<title>n0_place_1</title>
<ellipse fill="white" stroke="black" cx="214.04" cy="-399" rx="27" ry="26.74"/>
<text text-anchor="middle" x="214.04" y="-402.8" font-family="Times,serif" font-size="14.00">N</text>
<text text-anchor="middle" x="214.04" y="-387.8" font-family="Times,serif" font-size="14.00">int</text>
</g>
<!-- n0_port_1&#45;&gt;n0_place_1 -->
<g id="edge16" class="edge">
<title>n0_port_1&#45;&gt;n0_place_1</title>
<path fill="none" stroke="black" stroke-dasharray="1,5" d="M105.39,-399C129.75,-399 163.45,-399 186.62,-399"/>
</g>
<!-- n0_port_2 -->
<g id="node4" class="node">
<title>n0_port_2</title>
<polygon fill="white" stroke="black" points="457.85,-711.33 406.21,-734.43 354.57,-711.33 354.62,-673.96 457.8,-673.96 457.85,-711.33"/>
<text text-anchor="middle" x="406.21" y="-704.8" font-family="Times,serif" font-size="14.00">graph</text>
<text text-anchor="middle" x="406.21" y="-689.8" font-family="Times,serif" font-size="14.00">list</text>
</g>
<!-- n0_place_6 -->
<g id="node15" class="node">
<title>n0_place_6</title>
<ellipse fill="white" stroke="black" cx="611.81" cy="-507" rx="41.94" ry="26.74"/>
<text text-anchor="middle" x="611.81" y="-510.8" font-family="Times,serif" font-size="14.00">graph</text>
<text text-anchor="middle" x="611.81" y="-495.8" font-family="Times,serif" font-size="14.00">list</text>
</g>
<!-- n0_port_2&#45;&gt;n0_place_6 -->
<g id="edge17" class="edge">
<title>n0_port_2&#45;&gt;n0_place_6</title>
<path fill="none" stroke="black" stroke-dasharray="1,5" d="M435.95,-673.62C476.62,-634.87 550.16,-564.79 587.59,-529.13"/>
</g>
<!-- n0_port_3 -->
<g id="node5" class="node">
<title>n0_port_3</title>
<polygon fill="white" stroke="black" points="861.55,-795.33 809.92,-818.43 758.28,-795.33 758.33,-757.96 861.51,-757.96 861.55,-795.33"/>
<text text-anchor="middle" x="809.92" y="-788.8" font-family="Times,serif" font-size="14.00">genus</text>
<text text-anchor="middle" x="809.92" y="-773.8" font-family="Times,serif" font-size="14.00">string</text>
</g>
<!-- n0_place_7 -->
<g id="node16" class="node">
<title>n0_place_7</title>
<ellipse fill="white" stroke="black" cx="1017.21" cy="-625" rx="41.94" ry="26.74"/>
<text text-anchor="middle" x="1017.21" y="-628.8" font-family="Times,serif" font-size="14.00">genus</text>
<text text-anchor="middle" x="1017.21" y="-613.8" font-family="Times,serif" font-size="14.00">string</text>
</g>
<!-- n0_port_3&#45;&gt;n0_place_7 -->
<g id="edge18" class="edge">
<title>n0_port_3&#45;&gt;n0_place_7</title>
<path fill="none" stroke="black" stroke-dasharray="1,5" d="M861.68,-771.54C881.04,-764.89 902.59,-755.55 919.92,-743 955.03,-717.55 984.68,-676.28 1001.45,-649.91"/>
</g>
<!-- n0_port_4 -->
<g id="node6" class="node">
<title>n0_port_4</title>
<polygon fill="white" stroke="black" points="861.55,-711.33 809.92,-734.43 758.28,-711.33 758.33,-673.96 861.51,-673.96 861.55,-711.33"/>
<text text-anchor="middle" x="809.92" y="-704.8" font-family="Times,serif" font-size="14.00">loop</text>
<text text-anchor="middle" x="809.92" y="-689.8" font-family="Times,serif" font-size="14.00">string</text>
</g>
<!-- n0_place_8 -->
<g id="node17" class="node">
<title>n0_place_8</title>
<ellipse fill="white" stroke="black" cx="1017.21" cy="-553" rx="41.94" ry="26.74"/>
<text text-anchor="middle" x="1017.21" y="-556.8" font-family="Times,serif" font-size="14.00">loop</text>
<text text-anchor="middle" x="1017.21" y="-541.8" font-family="Times,serif" font-size="14.00">string</text>
</g>
<!-- n0_port_4&#45;&gt;n0_place_8 -->
<g id="edge19" class="edge">
<title>n0_port_4&#45;&gt;n0_place_8</title>
<path fill="none" stroke="black" stroke-dasharray="1,5" d="M861.72,-693.49C882,-688.21 904.21,-679.24 919.92,-664 945.45,-639.22 924.42,-615.71 947.92,-589 956.59,-579.14 968.64,-571.55 980.2,-565.94"/>
</g>
<!-- n0_port_5 -->
<g id="node7" class="node">
<title>n0_port_5</title>
<polygon fill="white" stroke="black" points="1224.64,-690.67 1284.01,-667.57 1343.38,-690.67 1343.32,-728.04 1224.7,-728.04 1224.64,-690.67"/>
<text text-anchor="middle" x="1284.01" y="-704.8" font-family="Times,serif" font-size="14.00">fey_out</text>
<text text-anchor="middle" x="1284.01" y="-689.8" font-family="Times,serif" font-size="14.00">string</text>
</g>
<!-- n0_place_4 -->
<g id="node13" class="node">
<title>n0_place_4</title>
<ellipse fill="white" stroke="black" cx="1529.59" cy="-387" rx="48.17" ry="26.74"/>
<text text-anchor="middle" x="1529.59" y="-390.8" font-family="Times,serif" font-size="14.00">fey_out</text>
<text text-anchor="middle" x="1529.59" y="-375.8" font-family="Times,serif" font-size="14.00">string</text>
</g>
<!-- n0_port_5&#45;&gt;n0_place_4 -->
<g id="edge20" class="edge">
<title>n0_port_5&#45;&gt;n0_place_4</title>
<path fill="none" stroke="black" stroke-dasharray="1,5" d="M1343.69,-699.52C1379.85,-695.52 1424.66,-684.53 1453.51,-656 1520.74,-589.52 1529.12,-468.24 1529.29,-414.22"/>
</g>
<!-- n0_port_6 -->
<g id="node8" class="node">
<title>n0_port_6</title>
<polygon fill="white" stroke="black" points="1232.38,-47.74 1284.01,-15.85 1335.65,-47.74 1335.6,-99.33 1232.42,-99.33 1232.38,-47.74"/>
<text text-anchor="middle" x="1284.01" y="-73.3" font-family="Times,serif" font-size="14.00">sum</text>
<text text-anchor="middle" x="1284.01" y="-58.3" font-family="Times,serif" font-size="14.00">string</text>
<text text-anchor="middle" x="1284.01" y="-43.3" font-family="Times,serif" font-size="14.00">&quot;0&quot;</text>
</g>
<!-- n0_place_3 -->
<g id="node12" class="node">
<title>n0_place_3</title>
<ellipse fill="white" stroke="black" cx="1529.59" cy="-219" rx="41.94" ry="37.45"/>
<text text-anchor="middle" x="1529.59" y="-230.3" font-family="Times,serif" font-size="14.00">sum</text>
<text text-anchor="middle" x="1529.59" y="-215.3" font-family="Times,serif" font-size="14.00">string</text>
<text text-anchor="middle" x="1529.59" y="-200.3" font-family="Times,serif" font-size="14.00">&quot;0&quot;</text>
</g>
<!-- n0_port_6&#45;&gt;n0_place_3 -->
<g id="edge21" class="edge">
<title>n0_port_6&#45;&gt;n0_place_3</title>
<path fill="none" stroke="black" stroke-dasharray="1,5" d="M1335.84,-71.29C1371.32,-79.63 1418.43,-94.6 1453.51,-120 1477.27,-137.21 1496.98,-164.07 1510.23,-185.48"/>
</g>
<!-- n4_port_0 -->
<g id="node36" class="node">
<title>n4_port_0</title>
<polygon fill="white" stroke="black" points="437.64,-493.33 406.21,-516.43 374.78,-493.33 374.81,-455.96 437.61,-455.96 437.64,-493.33"/>
<text text-anchor="middle" x="406.21" y="-486.8" font-family="Times,serif" font-size="14.00">d</text>
<text text-anchor="middle" x="406.21" y="-471.8" font-family="Times,serif" font-size="14.00">int</text>
</g>
<!-- n0_place_0&#45;&gt;n4_port_0 -->
<g id="edge13" class="edge">
<title>n0_place_0&#45;&gt;n4_port_0</title>
<path fill="none" stroke="black" d="M261.08,-483C292.64,-483 334.13,-483 364.49,-483"/>
<polygon fill="black" stroke="black" points="364.73,-486.5 374.73,-483 364.73,-479.5 364.73,-486.5"/>
</g>
<!-- n4_port_1 -->
<g id="node37" class="node">
<title>n4_port_1</title>
<polygon fill="white" stroke="black" points="437.64,-409.33 406.21,-432.43 374.78,-409.33 374.81,-371.96 437.61,-371.96 437.64,-409.33"/>
<text text-anchor="middle" x="406.21" y="-402.8" font-family="Times,serif" font-size="14.00">n</text>
<text text-anchor="middle" x="406.21" y="-387.8" font-family="Times,serif" font-size="14.00">int</text>
</g>
<!-- n0_place_1&#45;&gt;n4_port_1 -->
<g id="edge14" class="edge">
<title>n0_place_1&#45;&gt;n4_port_1</title>
<path fill="none" stroke="black" d="M241.08,-399C272.98,-399 327.35,-399 364.72,-399"/>
<polygon fill="black" stroke="black" points="364.77,-402.5 374.77,-399 364.77,-395.5 364.77,-402.5"/>
</g>
<!-- n0_place_2 -->
<g id="node11" class="node">
<title>n0_place_2</title>
<ellipse fill="white" stroke="black" cx="1017.21" cy="-267" rx="69.09" ry="26.74"/>
<text text-anchor="middle" x="1017.21" y="-270.8" font-family="Times,serif" font-size="14.00">branchtype</text>
<text text-anchor="middle" x="1017.21" y="-255.8" font-family="Times,serif" font-size="14.00">list</text>
</g>
<!-- n2_port_0 -->
<g id="node24" class="node">
<title>n2_port_0</title>
<polygon fill="white" stroke="black" points="1318.19,-313.33 1284.01,-336.43 1249.84,-313.33 1249.87,-275.96 1318.15,-275.96 1318.19,-313.33"/>
<text text-anchor="middle" x="1284.01" y="-306.8" font-family="Times,serif" font-size="14.00">a</text>
<text text-anchor="middle" x="1284.01" y="-291.8" font-family="Times,serif" font-size="14.00">list</text>
</g>
<!-- n0_place_2&#45;&gt;n2_port_0 -->
<g id="edge6" class="edge">
<title>n0_place_2&#45;&gt;n2_port_0</title>
<path fill="none" stroke="black" d="M1082.99,-275.81C1131.79,-282.44 1197.34,-291.35 1239.88,-297.14"/>
<polygon fill="black" stroke="black" points="1239.53,-300.62 1249.91,-298.5 1240.48,-293.68 1239.53,-300.62"/>
</g>
<!-- n1_port_2 -->
<g id="node20" class="node">
<title>n1_port_2</title>
<polygon fill="white" stroke="black" points="1751.31,-313.33 1699.68,-336.43 1648.04,-313.33 1648.09,-275.96 1751.27,-275.96 1751.31,-313.33"/>
<text text-anchor="middle" x="1699.68" y="-306.8" font-family="Times,serif" font-size="14.00">sum</text>
<text text-anchor="middle" x="1699.68" y="-291.8" font-family="Times,serif" font-size="14.00">string</text>
</g>
<!-- n0_place_3&#45;&gt;n1_port_2 -->
<g id="edge2" class="edge">
<title>n0_place_3&#45;&gt;n1_port_2</title>
<path fill="none" stroke="black" d="M1565.03,-239.08C1577.68,-246.24 1592.21,-254.21 1605.68,-261 1616.31,-266.36 1627.76,-271.8 1638.88,-276.91"/>
<polygon fill="black" stroke="black" points="1637.56,-280.15 1648.11,-281.11 1640.46,-273.78 1637.56,-280.15"/>
</g>
<!-- n1_port_0 -->
<g id="node19" class="node">
<title>n1_port_0</title>
<polygon fill="white" stroke="black" points="1751.31,-397.33 1699.68,-420.43 1648.04,-397.33 1648.09,-359.96 1751.27,-359.96 1751.31,-397.33"/>
<text text-anchor="middle" x="1699.68" y="-390.8" font-family="Times,serif" font-size="14.00">s</text>
<text text-anchor="middle" x="1699.68" y="-375.8" font-family="Times,serif" font-size="14.00">string</text>
</g>
<!-- n0_place_4&#45;&gt;n1_port_0 -->
<g id="edge3" class="edge">
<title>n0_place_4&#45;&gt;n1_port_0</title>
<path fill="none" stroke="black" d="M1577.86,-387C1596.47,-387 1618.07,-387 1637.81,-387"/>
<polygon fill="black" stroke="black" points="1637.95,-390.5 1647.95,-387 1637.95,-383.5 1637.95,-390.5"/>
</g>
<!-- n0_place_5 -->
<g id="node14" class="node">
<title>n0_place_5</title>
<ellipse fill="white" stroke="black" cx="611.81" cy="-315" rx="60.21" ry="26.74"/>
<text text-anchor="middle" x="611.81" y="-318.8" font-family="Times,serif" font-size="14.00">d_vectors</text>
<text text-anchor="middle" x="611.81" y="-303.8" font-family="Times,serif" font-size="14.00">list</text>
</g>
<!-- n3_port_0 -->
<g id="node31" class="node">
<title>n3_port_0</title>
<polygon fill="white" stroke="black" points="844.09,-325.33 809.92,-348.43 775.74,-325.33 775.78,-287.96 844.06,-287.96 844.09,-325.33"/>
<text text-anchor="middle" x="809.92" y="-318.8" font-family="Times,serif" font-size="14.00">v</text>
<text text-anchor="middle" x="809.92" y="-303.8" font-family="Times,serif" font-size="14.00">list</text>
</g>
<!-- n0_place_5&#45;&gt;n3_port_0 -->
<g id="edge11" class="edge">
<title>n0_place_5&#45;&gt;n3_port_0</title>
<path fill="none" stroke="black" d="M672.18,-315C702.27,-315 738.15,-315 765.6,-315"/>
<polygon fill="black" stroke="black" points="765.68,-318.5 775.68,-315 765.68,-311.5 765.68,-318.5"/>
</g>
<!-- n2_port_2 -->
<g id="node26" class="node">
<title>n2_port_2</title>
<polygon fill="white" stroke="black" points="1318.19,-397.33 1284.01,-420.43 1249.84,-397.33 1249.87,-359.96 1318.15,-359.96 1318.19,-397.33"/>
<text text-anchor="middle" x="1284.01" y="-390.8" font-family="Times,serif" font-size="14.00">G</text>
<text text-anchor="middle" x="1284.01" y="-375.8" font-family="Times,serif" font-size="14.00">list</text>
</g>
<!-- n0_place_6&#45;&gt;n2_port_2 -->
<g id="edge8" class="edge">
<title>n0_place_6&#45;&gt;n2_port_2</title>
<path fill="none" stroke="black" stroke-dasharray="5,2" d="M653.6,-507.72C725.08,-508.7 870.13,-509.39 919.92,-500 1010.39,-482.95 1026.48,-455.95 1114.51,-429 1156.57,-416.12 1205.42,-404.28 1239.66,-396.48"/>
<polygon fill="black" stroke="black" points="1240.81,-399.81 1249.8,-394.19 1239.27,-392.98 1240.81,-399.81"/>
</g>
<!-- n3_port_1 -->
<g id="node32" class="node">
<title>n3_port_1</title>
<polygon fill="white" stroke="black" points="844.09,-409.33 809.92,-432.43 775.74,-409.33 775.78,-371.96 844.06,-371.96 844.09,-409.33"/>
<text text-anchor="middle" x="809.92" y="-402.8" font-family="Times,serif" font-size="14.00">G</text>
<text text-anchor="middle" x="809.92" y="-387.8" font-family="Times,serif" font-size="14.00">list</text>
</g>
<!-- n0_place_6&#45;&gt;n3_port_1 -->
<g id="edge10" class="edge">
<title>n0_place_6&#45;&gt;n3_port_1</title>
<path fill="none" stroke="black" stroke-dasharray="5,2" d="M637.51,-485.78C654.32,-472.06 677.5,-454.49 699.92,-442 720.78,-430.37 745.43,-420.37 766.01,-412.94"/>
<polygon fill="black" stroke="black" points="767.19,-416.24 775.45,-409.61 764.86,-409.64 767.19,-416.24"/>
</g>
<!-- n2_port_3 -->
<g id="node27" class="node">
<title>n2_port_3</title>
<polygon fill="white" stroke="black" points="1335.65,-565.33 1284.01,-588.43 1232.38,-565.33 1232.42,-527.96 1335.6,-527.96 1335.65,-565.33"/>
<text text-anchor="middle" x="1284.01" y="-558.8" font-family="Times,serif" font-size="14.00">gg</text>
<text text-anchor="middle" x="1284.01" y="-543.8" font-family="Times,serif" font-size="14.00">string</text>
</g>
<!-- n0_place_7&#45;&gt;n2_port_3 -->
<g id="edge7" class="edge">
<title>n0_place_7&#45;&gt;n2_port_3</title>
<path fill="none" stroke="black" stroke-dasharray="5,2" d="M1055.66,-614.28C1073.46,-609.24 1095.06,-603.21 1114.51,-598 1151.38,-588.13 1192.93,-577.52 1225.54,-569.31"/>
<polygon fill="black" stroke="black" points="1226.52,-572.67 1235.36,-566.84 1224.81,-565.89 1226.52,-572.67"/>
</g>
<!-- n2_port_1 -->
<g id="node25" class="node">
<title>n2_port_1</title>
<polygon fill="white" stroke="black" points="1335.65,-481.33 1284.01,-504.43 1232.38,-481.33 1232.42,-443.96 1335.6,-443.96 1335.65,-481.33"/>
<text text-anchor="middle" x="1284.01" y="-474.8" font-family="Times,serif" font-size="14.00">l</text>
<text text-anchor="middle" x="1284.01" y="-459.8" font-family="Times,serif" font-size="14.00">string</text>
</g>
<!-- n0_place_8&#45;&gt;n2_port_1 -->
<g id="edge5" class="edge">
<title>n0_place_8&#45;&gt;n2_port_1</title>
<path fill="none" stroke="black" stroke-dasharray="5,2" d="M1051.62,-537.68C1069.94,-529.64 1093.2,-520.04 1114.51,-513 1149.92,-501.3 1190.46,-491.1 1222.89,-483.69"/>
<polygon fill="black" stroke="black" points="1223.7,-487.09 1232.69,-481.47 1222.16,-480.26 1223.7,-487.09"/>
</g>
<!-- n1_condition -->
<g id="node18" class="node">
<title>n1_condition</title>
<polygon fill="white" stroke="black" points="1665.18,-439 1665.18,-475 1734.18,-475 1734.18,-439 1665.18,-439"/>
<text text-anchor="middle" x="1699.68" y="-453.3" font-family="Times,serif" font-size="14.00">Reduce</text>
</g>
<!-- n1_port_1 -->
<g id="node21" class="node">
<title>n1_port_1</title>
<polygon fill="white" stroke="black" points="1629.08,-208.67 1699.68,-185.57 1770.27,-208.67 1770.21,-246.04 1629.15,-246.04 1629.08,-208.67"/>
<text text-anchor="middle" x="1699.68" y="-222.8" font-family="Times,serif" font-size="14.00">sum_frac</text>
<text text-anchor="middle" x="1699.68" y="-207.8" font-family="Times,serif" font-size="14.00">string</text>
</g>
<!-- n1_port_1&#45;&gt;n0_place_3 -->
<g id="edge1" class="edge">
<title>n1_port_1&#45;&gt;n0_place_3</title>
<path fill="none" stroke="black" d="M1628.84,-219C1613.19,-219 1596.88,-219 1582.14,-219"/>
<polygon fill="black" stroke="black" points="1581.71,-215.5 1571.71,-219 1581.71,-222.5 1581.71,-215.5"/>
</g>
<!-- n1_modcall -->
<g id="node22" class="node">
<title>n1_modcall</title>
<polygon fill="white" stroke="black" points="1785.68,-168 1613.68,-168 1613.68,-132 1785.68,-132 1785.68,-168"/>
<text text-anchor="middle" x="1699.68" y="-146.3" font-family="Times,serif" font-size="14.00">feynman_module.plus</text>
</g>
<!-- n2_condition -->
<g id="node23" class="node">
<title>n2_condition</title>
<polygon fill="white" stroke="black" points="1217.01,-607 1217.01,-643 1351.01,-643 1351.01,-607 1217.01,-607"/>
<text text-anchor="middle" x="1284.01" y="-621.3" font-family="Times,serif" font-size="14.00">feynman_degree</text>
</g>
<!-- n2_port_4 -->
<g id="node28" class="node">
<title>n2_port_4</title>
<polygon fill="white" stroke="black" points="1232.38,-208.67 1284.01,-185.57 1335.65,-208.67 1335.6,-246.04 1232.42,-246.04 1232.38,-208.67"/>
<text text-anchor="middle" x="1284.01" y="-222.8" font-family="Times,serif" font-size="14.00">s</text>
<text text-anchor="middle" x="1284.01" y="-207.8" font-family="Times,serif" font-size="14.00">string</text>
</g>
<!-- n2_port_4&#45;&gt;n0_place_4 -->
<g id="edge4" class="edge">
<title>n2_port_4&#45;&gt;n0_place_4</title>
<path fill="none" stroke="black" d="M1335.81,-221.47C1371.74,-225.49 1419.39,-235.65 1453.51,-261 1483.87,-283.55 1504.27,-322.33 1516.05,-350.93"/>
<polygon fill="black" stroke="black" points="1512.93,-352.56 1519.86,-360.58 1519.44,-349.99 1512.93,-352.56"/>
</g>
<!-- n2_modcall -->
<g id="node29" class="node">
<title>n2_modcall</title>
<polygon fill="white" stroke="black" points="1445.51,-168 1122.51,-168 1122.51,-132 1445.51,-132 1445.51,-168"/>
<text text-anchor="middle" x="1284.01" y="-146.3" font-family="Times,serif" font-size="14.00">feynman_module.feynman_integral_degree</text>
</g>
<!-- n3_condition -->
<g id="node30" class="node">
<title>n3_condition</title>
<polygon fill="white" stroke="black" points="756.42,-451 756.42,-487 863.42,-487 863.42,-451 756.42,-451"/>
<text text-anchor="middle" x="809.92" y="-465.3" font-family="Times,serif" font-size="14.00">Combination</text>
</g>
<!-- n3_port_2 -->
<g id="node33" class="node">
<title>n3_port_2</title>
<polygon fill="white" stroke="black" points="774.25,-220.67 809.92,-197.57 845.59,-220.67 845.56,-258.04 774.28,-258.04 774.25,-220.67"/>
<text text-anchor="middle" x="809.92" y="-234.8" font-family="Times,serif" font-size="14.00">vec</text>
<text text-anchor="middle" x="809.92" y="-219.8" font-family="Times,serif" font-size="14.00">list</text>
</g>
<!-- n3_port_2&#45;&gt;n0_place_2 -->
<g id="edge9" class="edge">
<title>n3_port_2&#45;&gt;n0_place_2</title>
<path fill="none" stroke="black" d="M846.09,-235.14C872.84,-239.83 910.71,-246.47 943.96,-252.3"/>
<path fill="none" stroke="transparent" d="M845.74,-237.11C872.49,-241.8 910.36,-248.44 943.62,-254.27"/>
<path fill="none" stroke="black" d="M845.4,-239.08C872.15,-243.77 910.02,-250.41 943.27,-256.24"/>
<polygon fill="black" stroke="black" points="943.32,-257.77 953.77,-256.05 944.52,-250.88 943.32,-257.77"/>
</g>
<!-- n3_modcall -->
<g id="node34" class="node">
<title>n3_modcall</title>
<polygon fill="white" stroke="black" points="911.92,-180 707.92,-180 707.92,-144 911.92,-144 911.92,-180"/>
<text text-anchor="middle" x="809.92" y="-158.3" font-family="Times,serif" font-size="14.00">feynman_module.partition</text>
</g>
<!-- n4_condition -->
<g id="node35" class="node">
<title>n4_condition</title>
<polygon fill="white" stroke="black" points="366.71,-535 366.71,-571 445.71,-571 445.71,-535 366.71,-535"/>
<text text-anchor="middle" x="406.21" y="-549.3" font-family="Times,serif" font-size="14.00">partition</text>
</g>
<!-- n4_port_2 -->
<g id="node38" class="node">
<title>n4_port_2</title>
<polygon fill="white" stroke="black" points="372.04,-304.67 406.21,-281.57 440.39,-304.67 440.35,-342.04 372.07,-342.04 372.04,-304.67"/>
<text text-anchor="middle" x="406.21" y="-318.8" font-family="Times,serif" font-size="14.00">v</text>
<text text-anchor="middle" x="406.21" y="-303.8" font-family="Times,serif" font-size="14.00">list</text>
</g>
<!-- n4_port_2&#45;&gt;n0_place_5 -->
<g id="edge12" class="edge">
<title>n4_port_2&#45;&gt;n0_place_5</title>
<path fill="none" stroke="black" d="M440.38,-313C467.54,-313 506.91,-313 540.96,-313"/>
<path fill="none" stroke="transparent" d="M440.38,-315C467.54,-315 506.91,-315 540.96,-315"/>
<path fill="none" stroke="black" d="M440.38,-317C467.54,-317 506.91,-317 540.96,-317"/>
<polygon fill="black" stroke="black" points="541.34,-318.5 551.34,-315 541.34,-311.5 541.34,-318.5"/>
</g>
<!-- n4_modcall -->
<g id="node39" class="node">
<title>n4_modcall</title>
<polygon fill="white" stroke="black" points="515.71,-264 296.71,-264 296.71,-228 515.71,-228 515.71,-264"/>
<text text-anchor="middle" x="406.21" y="-242.3" font-family="Times,serif" font-size="14.00">feynman_module.gen_block_</text>
</g>
</g>
</svg>
