<?xml version="1.0" encoding="UTF-8" standalone="no"?>
<!DOCTYPE svg PUBLIC "-//W3C//DTD SVG 1.1//EN"
 "http://www.w3.org/Graphics/SVG/1.1/DTD/svg11.dtd">
<!-- Generated by graphviz version 2.43.0 (0)
 -->
<!-- Title: feynman_deg Pages: 1 -->
<svg width="1882pt" height="1068pt"
 viewBox="0.00 0.00 1882.39 1068.00" xmlns="http://www.w3.org/2000/svg" xmlns:xlink="http://www.w3.org/1999/xlink">
<g id="graph0" class="graph" transform="scale(1 1) rotate(0) translate(4 1064)">
<title>feynman_deg</title>
<polygon fill="white" stroke="transparent" points="-4,4 -4,-1064 1878.39,-1064 1878.39,4 -4,4"/>
<g id="clust1" class="cluster">
<title>cluster_0</title>
<polygon fill="dimgray" stroke="black" points="8,-8 8,-1052 1866.39,-1052 1866.39,-8 8,-8"/>
</g>
<g id="clust2" class="cluster">
<title>cluster_net_0</title>
<polygon fill="white" stroke="black" points="159.37,-116 159.37,-886 1858.39,-886 1858.39,-116 159.37,-116"/>
</g>
<g id="clust3" class="cluster">
<title>cluster_1</title>
<polygon fill="yellow" stroke="black" points="1629.86,-195 1629.86,-555 1850.39,-555 1850.39,-195 1629.86,-195"/>
</g>
<g id="clust4" class="cluster">
<title>cluster_2</title>
<polygon fill="yellow" stroke="black" points="1069.4,-416 1069.4,-776 1408.4,-776 1408.4,-416 1069.4,-416"/>
</g>
<g id="clust5" class="cluster">
<title>cluster_3</title>
<polygon fill="yellow" stroke="black" points="702.82,-124 702.82,-510 915.82,-510 915.82,-124 702.82,-124"/>
</g>
<g id="clust6" class="cluster">
<title>cluster_4</title>
<polygon fill="yellow" stroke="black" points="710.32,-518 710.32,-878 908.32,-878 908.32,-518 710.32,-518"/>
</g>
<g id="clust7" class="cluster">
<title>cluster_5</title>
<polygon fill="yellow" stroke="black" points="288.71,-518 288.71,-878 516.71,-878 516.71,-518 288.71,-518"/>
</g>
<!-- n0_condition -->
<g id="node1" class="node">
<title>n0_condition</title>
<polygon fill="white" stroke="black" points="18.19,-920 18.19,-956 129.19,-956 129.19,-920 18.19,-920"/>
<text text-anchor="middle" x="73.69" y="-934.3" font-family="Times,serif" font-size="14.00">feynman_deg</text>
</g>
<!-- n0_port_0 -->
<g id="node2" class="node">
<title>n0_port_0</title>
<polygon fill="white" stroke="black" points="131.56,-791.33 73.69,-814.43 15.81,-791.33 15.87,-753.96 131.5,-753.96 131.56,-791.33"/>
<text text-anchor="middle" x="73.69" y="-784.8" font-family="Times,serif" font-size="14.00">degree</text>
<text text-anchor="middle" x="73.69" y="-769.8" font-family="Times,serif" font-size="14.00">int</text>
</g>
<!-- n0_place_0 -->
<g id="node7" class="node">
<title>n0_place_0</title>
<ellipse fill="white" stroke="black" cx="214.04" cy="-781" rx="46.84" ry="26.74"/>
<text text-anchor="middle" x="214.04" y="-784.8" font-family="Times,serif" font-size="14.00">degree</text>
<text text-anchor="middle" x="214.04" y="-769.8" font-family="Times,serif" font-size="14.00">int</text>
</g>
<!-- n0_port_0&#45;&gt;n0_place_0 -->
<g id="edge16" class="edge">
<title>n0_port_0&#45;&gt;n0_place_0</title>
<path fill="none" stroke="black" stroke-dasharray="1,5" d="M131.76,-781C143.52,-781 155.76,-781 167.07,-781"/>
</g>
<!-- n0_port_1 -->
<g id="node3" class="node">
<title>n0_port_1</title>
<polygon fill="white" stroke="black" points="105.12,-707.33 73.69,-730.43 42.26,-707.33 42.29,-669.96 105.09,-669.96 105.12,-707.33"/>
<text text-anchor="middle" x="73.69" y="-700.8" font-family="Times,serif" font-size="14.00">N</text>
<text text-anchor="middle" x="73.69" y="-685.8" font-family="Times,serif" font-size="14.00">int</text>
</g>
<!-- n0_place_1 -->
<g id="node8" class="node">
<title>n0_place_1</title>
<ellipse fill="white" stroke="black" cx="214.04" cy="-697" rx="27" ry="26.74"/>
<text text-anchor="middle" x="214.04" y="-700.8" font-family="Times,serif" font-size="14.00">N</text>
<text text-anchor="middle" x="214.04" y="-685.8" font-family="Times,serif" font-size="14.00">int</text>
</g>
<!-- n0_port_1&#45;&gt;n0_place_1 -->
<g id="edge17" class="edge">
<title>n0_port_1&#45;&gt;n0_place_1</title>
<path fill="none" stroke="black" stroke-dasharray="1,5" d="M105.39,-697C129.75,-697 163.45,-697 186.62,-697"/>
</g>
<!-- n0_port_2 -->
<g id="node4" class="node">
<title>n0_port_2</title>
<polygon fill="white" stroke="black" points="749.2,-1000.67 809.32,-977.57 869.44,-1000.67 869.38,-1038.04 749.26,-1038.04 749.2,-1000.67"/>
<text text-anchor="middle" x="809.32" y="-1014.8" font-family="Times,serif" font-size="14.00">vectors</text>
<text text-anchor="middle" x="809.32" y="-999.8" font-family="Times,serif" font-size="14.00">string</text>
</g>
<!-- n0_place_4 -->
<g id="node11" class="node">
<title>n0_place_4</title>
<ellipse fill="white" stroke="black" cx="992.61" cy="-688" rx="48.58" ry="26.74"/>
<text text-anchor="middle" x="992.61" y="-691.8" font-family="Times,serif" font-size="14.00">vectors</text>
<text text-anchor="middle" x="992.61" y="-676.8" font-family="Times,serif" font-size="14.00">string</text>
</g>
<!-- n0_port_2&#45;&gt;n0_place_4 -->
<g id="edge18" class="edge">
<title>n0_port_2&#45;&gt;n0_place_4</title>
<path fill="none" stroke="black" stroke-dasharray="1,5" d="M866.31,-999.33C884.31,-993.06 902.9,-983.5 915.82,-969 981.69,-895.05 991.12,-769.62 991.93,-714.89"/>
</g>
<!-- n0_port_3 -->
<g id="node5" class="node">
<title>n0_port_3</title>
<polygon fill="white" stroke="black" points="757.68,-916.67 809.32,-893.57 860.95,-916.67 860.91,-954.04 757.73,-954.04 757.68,-916.67"/>
<text text-anchor="middle" x="809.32" y="-930.8" font-family="Times,serif" font-size="14.00">state</text>
<text text-anchor="middle" x="809.32" y="-915.8" font-family="Times,serif" font-size="14.00">string</text>
</g>
<!-- n0_place_5 -->
<g id="node12" class="node">
<title>n0_place_5</title>
<ellipse fill="white" stroke="black" cx="992.61" cy="-386" rx="41.94" ry="26.74"/>
<text text-anchor="middle" x="992.61" y="-389.8" font-family="Times,serif" font-size="14.00">state</text>
<text text-anchor="middle" x="992.61" y="-374.8" font-family="Times,serif" font-size="14.00">string</text>
</g>
<!-- n0_port_3&#45;&gt;n0_place_5 -->
<g id="edge19" class="edge">
<title>n0_port_3&#45;&gt;n0_place_5</title>
<path fill="none" stroke="black" stroke-dasharray="1,5" d="M861.03,-917.27C881.29,-910.74 902.85,-899.9 915.82,-882 958.09,-823.66 931.06,-629.91 943.82,-559 953.33,-506.1 971.73,-445.94 982.71,-412.32"/>
</g>
<!-- n0_port_4 -->
<g id="node6" class="node">
<title>n0_port_4</title>
<polygon fill="white" stroke="black" points="1136.87,-47.74 1238.9,-15.85 1340.92,-47.74 1340.83,-99.33 1136.97,-99.33 1136.87,-47.74"/>
<text text-anchor="middle" x="1238.9" y="-73.3" font-family="Times,serif" font-size="14.00">sum</text>
<text text-anchor="middle" x="1238.9" y="-58.3" font-family="Times,serif" font-size="14.00">unsigned long</text>
<text text-anchor="middle" x="1238.9" y="-43.3" font-family="Times,serif" font-size="14.00">0UL</text>
</g>
<!-- n0_place_2 -->
<g id="node9" class="node">
<title>n0_place_2</title>
<ellipse fill="white" stroke="black" cx="1519.13" cy="-290" rx="82.96" ry="37.45"/>
<text text-anchor="middle" x="1519.13" y="-301.3" font-family="Times,serif" font-size="14.00">sum</text>
<text text-anchor="middle" x="1519.13" y="-286.3" font-family="Times,serif" font-size="14.00">unsigned long</text>
<text text-anchor="middle" x="1519.13" y="-271.3" font-family="Times,serif" font-size="14.00">0UL</text>
</g>
<!-- n0_port_4&#45;&gt;n0_place_2 -->
<g id="edge20" class="edge">
<title>n0_port_4&#45;&gt;n0_place_2</title>
<path fill="none" stroke="black" stroke-dasharray="1,5" d="M1285.53,-99.39C1339.18,-143.36 1427.36,-215.61 1478.34,-257.39"/>
</g>
<!-- n5_port_0 -->
<g id="node36" class="node">
<title>n5_port_0</title>
<polygon fill="white" stroke="black" points="434.14,-791.33 402.71,-814.43 371.28,-791.33 371.31,-753.96 434.11,-753.96 434.14,-791.33"/>
<text text-anchor="middle" x="402.71" y="-784.8" font-family="Times,serif" font-size="14.00">d</text>
<text text-anchor="middle" x="402.71" y="-769.8" font-family="Times,serif" font-size="14.00">int</text>
</g>
<!-- n0_place_0&#45;&gt;n5_port_0 -->
<g id="edge14" class="edge">
<title>n0_place_0&#45;&gt;n5_port_0</title>
<path fill="none" stroke="black" d="M261.18,-781C291.76,-781 331.51,-781 360.93,-781"/>
<polygon fill="black" stroke="black" points="361.26,-784.5 371.26,-781 361.26,-777.5 361.26,-784.5"/>
</g>
<!-- n5_port_1 -->
<g id="node37" class="node">
<title>n5_port_1</title>
<polygon fill="white" stroke="black" points="434.14,-707.33 402.71,-730.43 371.28,-707.33 371.31,-669.96 434.11,-669.96 434.14,-707.33"/>
<text text-anchor="middle" x="402.71" y="-700.8" font-family="Times,serif" font-size="14.00">n</text>
<text text-anchor="middle" x="402.71" y="-685.8" font-family="Times,serif" font-size="14.00">int</text>
</g>
<!-- n0_place_1&#45;&gt;n5_port_1 -->
<g id="edge15" class="edge">
<title>n0_place_1&#45;&gt;n5_port_1</title>
<path fill="none" stroke="black" d="M241.39,-697C272.49,-697 324.56,-697 360.89,-697"/>
<polygon fill="black" stroke="black" points="361.16,-700.5 371.16,-697 361.16,-693.5 361.16,-700.5"/>
</g>
<!-- n1_port_1 -->
<g id="node17" class="node">
<title>n1_port_1</title>
<polygon fill="white" stroke="black" points="1842.15,-384.33 1740.12,-407.43 1638.1,-384.33 1638.19,-346.96 1842.05,-346.96 1842.15,-384.33"/>
<text text-anchor="middle" x="1740.12" y="-377.8" font-family="Times,serif" font-size="14.00">sum</text>
<text text-anchor="middle" x="1740.12" y="-362.8" font-family="Times,serif" font-size="14.00">unsigned long</text>
</g>
<!-- n0_place_2&#45;&gt;n1_port_1 -->
<g id="edge2" class="edge">
<title>n0_place_2&#45;&gt;n1_port_1</title>
<path fill="none" stroke="black" d="M1582.88,-314.07C1606.53,-323.14 1633.76,-333.59 1658.79,-343.19"/>
<polygon fill="black" stroke="black" points="1657.68,-346.51 1668.27,-346.82 1660.19,-339.97 1657.68,-346.51"/>
</g>
<!-- n0_place_3 -->
<g id="node10" class="node">
<title>n0_place_3</title>
<ellipse fill="white" stroke="black" cx="609.76" cy="-697" rx="65.11" ry="26.74"/>
<text text-anchor="middle" x="609.76" y="-700.8" font-family="Times,serif" font-size="14.00">init_vector</text>
<text text-anchor="middle" x="609.76" y="-685.8" font-family="Times,serif" font-size="14.00">list</text>
</g>
<!-- n4_port_0 -->
<g id="node31" class="node">
<title>n4_port_0</title>
<polygon fill="white" stroke="black" points="843.49,-791.33 809.32,-814.43 775.14,-791.33 775.18,-753.96 843.46,-753.96 843.49,-791.33"/>
<text text-anchor="middle" x="809.32" y="-784.8" font-family="Times,serif" font-size="14.00">v</text>
<text text-anchor="middle" x="809.32" y="-769.8" font-family="Times,serif" font-size="14.00">list</text>
</g>
<!-- n0_place_3&#45;&gt;n4_port_0 -->
<g id="edge12" class="edge">
<title>n0_place_3&#45;&gt;n4_port_0</title>
<path fill="none" stroke="black" d="M653.65,-717.1C669.08,-724.19 686.66,-732.1 702.82,-739 723.29,-747.74 746.23,-756.94 765.48,-764.5"/>
<polygon fill="black" stroke="black" points="764.3,-767.79 774.89,-768.17 766.85,-761.27 764.3,-767.79"/>
</g>
<!-- n2_port_0 -->
<g id="node21" class="node">
<title>n2_port_0</title>
<polygon fill="white" stroke="black" points="1290.53,-689.33 1238.9,-712.43 1187.26,-689.33 1187.31,-651.96 1290.49,-651.96 1290.53,-689.33"/>
<text text-anchor="middle" x="1238.9" y="-682.8" font-family="Times,serif" font-size="14.00">a</text>
<text text-anchor="middle" x="1238.9" y="-667.8" font-family="Times,serif" font-size="14.00">string</text>
</g>
<!-- n0_place_4&#45;&gt;n2_port_0 -->
<g id="edge5" class="edge">
<title>n0_place_4&#45;&gt;n2_port_0</title>
<path fill="none" stroke="black" d="M1041.58,-686.23C1080.35,-684.8 1135.16,-682.79 1177.02,-681.24"/>
<polygon fill="black" stroke="black" points="1177.23,-684.74 1187.09,-680.87 1176.97,-677.74 1177.23,-684.74"/>
</g>
<!-- n3_port_0 -->
<g id="node26" class="node">
<title>n3_port_0</title>
<polygon fill="white" stroke="black" points="860.95,-313.33 809.32,-336.43 757.68,-313.33 757.73,-275.96 860.91,-275.96 860.95,-313.33"/>
<text text-anchor="middle" x="809.32" y="-306.8" font-family="Times,serif" font-size="14.00">v</text>
<text text-anchor="middle" x="809.32" y="-291.8" font-family="Times,serif" font-size="14.00">string</text>
</g>
<!-- n0_place_5&#45;&gt;n3_port_0 -->
<g id="edge9" class="edge">
<title>n0_place_5&#45;&gt;n3_port_0</title>
<path fill="none" stroke="black" d="M961.05,-368.41C947.4,-360.83 931,-352.1 915.82,-345 898.04,-336.69 878.13,-328.49 860.44,-321.57"/>
<polygon fill="black" stroke="black" points="861.46,-318.21 850.87,-317.87 858.93,-324.74 861.46,-318.21"/>
</g>
<!-- n0_place_6 -->
<g id="node13" class="node">
<title>n0_place_6</title>
<ellipse fill="white" stroke="black" cx="992.61" cy="-595" rx="41.94" ry="26.74"/>
<text text-anchor="middle" x="992.61" y="-598.8" font-family="Times,serif" font-size="14.00">graph</text>
<text text-anchor="middle" x="992.61" y="-583.8" font-family="Times,serif" font-size="14.00">list</text>
</g>
<!-- n2_port_1 -->
<g id="node22" class="node">
<title>n2_port_1</title>
<polygon fill="white" stroke="black" points="1273.07,-605.33 1238.9,-628.43 1204.72,-605.33 1204.76,-567.96 1273.04,-567.96 1273.07,-605.33"/>
<text text-anchor="middle" x="1238.9" y="-598.8" font-family="Times,serif" font-size="14.00">G</text>
<text text-anchor="middle" x="1238.9" y="-583.8" font-family="Times,serif" font-size="14.00">list</text>
</g>
<!-- n0_place_6&#45;&gt;n2_port_1 -->
<g id="edge6" class="edge">
<title>n0_place_6&#45;&gt;n2_port_1</title>
<path fill="none" stroke="black" stroke-dasharray="5,2" d="M1034.5,-595C1078.85,-595 1149.37,-595 1194.64,-595"/>
<polygon fill="black" stroke="black" points="1194.73,-598.5 1204.73,-595 1194.73,-591.5 1194.73,-598.5"/>
</g>
<!-- n0_place_7 -->
<g id="node14" class="node">
<title>n0_place_7</title>
<ellipse fill="white" stroke="black" cx="1519.13" cy="-476" rx="48.17" ry="26.74"/>
<text text-anchor="middle" x="1519.13" y="-479.8" font-family="Times,serif" font-size="14.00">fey_out</text>
<text text-anchor="middle" x="1519.13" y="-464.8" font-family="Times,serif" font-size="14.00">string</text>
</g>
<!-- n1_port_0 -->
<g id="node16" class="node">
<title>n1_port_0</title>
<polygon fill="white" stroke="black" points="1791.76,-468.33 1740.12,-491.43 1688.49,-468.33 1688.54,-430.96 1791.71,-430.96 1791.76,-468.33"/>
<text text-anchor="middle" x="1740.12" y="-461.8" font-family="Times,serif" font-size="14.00">s</text>
<text text-anchor="middle" x="1740.12" y="-446.8" font-family="Times,serif" font-size="14.00">string</text>
</g>
<!-- n0_place_7&#45;&gt;n1_port_0 -->
<g id="edge3" class="edge">
<title>n0_place_7&#45;&gt;n1_port_0</title>
<path fill="none" stroke="black" d="M1566.84,-472.16C1599.31,-469.49 1642.91,-465.91 1678.12,-463.01"/>
<polygon fill="black" stroke="black" points="1678.6,-466.49 1688.28,-462.18 1678.03,-459.51 1678.6,-466.49"/>
</g>
<!-- n1_condition -->
<g id="node15" class="node">
<title>n1_condition</title>
<polygon fill="white" stroke="black" points="1705.62,-510 1705.62,-546 1774.62,-546 1774.62,-510 1705.62,-510"/>
<text text-anchor="middle" x="1740.12" y="-524.3" font-family="Times,serif" font-size="14.00">Reduce</text>
</g>
<!-- n1_port_2 -->
<g id="node18" class="node">
<title>n1_port_2</title>
<polygon fill="white" stroke="black" points="1638.1,-279.67 1740.12,-256.57 1842.15,-279.67 1842.05,-317.04 1638.19,-317.04 1638.1,-279.67"/>
<text text-anchor="middle" x="1740.12" y="-293.8" font-family="Times,serif" font-size="14.00">sum</text>
<text text-anchor="middle" x="1740.12" y="-278.8" font-family="Times,serif" font-size="14.00">unsigned long</text>
</g>
<!-- n1_port_2&#45;&gt;n0_place_2 -->
<g id="edge1" class="edge">
<title>n1_port_2&#45;&gt;n0_place_2</title>
<path fill="none" stroke="black" d="M1638.11,-290C1629.42,-290 1620.65,-290 1612.02,-290"/>
<polygon fill="black" stroke="black" points="1611.99,-286.5 1601.99,-290 1611.99,-293.5 1611.99,-286.5"/>
</g>
<!-- n1_modcall -->
<g id="node19" class="node">
<title>n1_modcall</title>
<polygon fill="white" stroke="black" points="1826.12,-239 1654.12,-239 1654.12,-203 1826.12,-203 1826.12,-239"/>
<text text-anchor="middle" x="1740.12" y="-217.3" font-family="Times,serif" font-size="14.00">feynman_module.plus</text>
</g>
<!-- n2_condition -->
<g id="node20" class="node">
<title>n2_condition</title>
<polygon fill="white" stroke="black" points="1171.9,-731 1171.9,-767 1305.9,-767 1305.9,-731 1171.9,-731"/>
<text text-anchor="middle" x="1238.9" y="-745.3" font-family="Times,serif" font-size="14.00">feynman_degree</text>
</g>
<!-- n2_port_2 -->
<g id="node23" class="node">
<title>n2_port_2</title>
<polygon fill="white" stroke="black" points="1187.26,-500.67 1238.9,-477.57 1290.53,-500.67 1290.49,-538.04 1187.31,-538.04 1187.26,-500.67"/>
<text text-anchor="middle" x="1238.9" y="-514.8" font-family="Times,serif" font-size="14.00">s</text>
<text text-anchor="middle" x="1238.9" y="-499.8" font-family="Times,serif" font-size="14.00">string</text>
</g>
<!-- n2_port_2&#45;&gt;n0_place_7 -->
<g id="edge4" class="edge">
<title>n2_port_2&#45;&gt;n0_place_7</title>
<path fill="none" stroke="black" d="M1290.61,-504.62C1339,-498.53 1411.76,-489.38 1461.9,-483.07"/>
<polygon fill="black" stroke="black" points="1462.44,-486.53 1471.93,-481.81 1461.57,-479.59 1462.44,-486.53"/>
</g>
<!-- n2_modcall -->
<g id="node24" class="node">
<title>n2_modcall</title>
<polygon fill="white" stroke="black" points="1400.4,-460 1077.4,-460 1077.4,-424 1400.4,-424 1400.4,-460"/>
<text text-anchor="middle" x="1238.9" y="-438.3" font-family="Times,serif" font-size="14.00">feynman_module.feynman_integral_degree</text>
</g>
<!-- n3_condition -->
<g id="node25" class="node">
<title>n3_condition</title>
<polygon fill="white" stroke="black" points="742.32,-439 742.32,-501 876.32,-501 876.32,-439 742.32,-439"/>
<text text-anchor="middle" x="809.32" y="-485.8" font-family="Times,serif" font-size="14.00">next_partitions</text>
<polyline fill="none" stroke="black" points="742.32,-478 876.32,-478 "/>
<text text-anchor="middle" x="809.32" y="-462.8" font-family="Times,serif" font-size="14.00">(${v} != &quot;stop&quot;)</text>
</g>
<!-- n3_port_1 -->
<g id="node27" class="node">
<title>n3_port_1</title>
<polygon fill="white" stroke="black" points="773.65,-376.67 809.32,-353.57 844.99,-376.67 844.96,-414.04 773.68,-414.04 773.65,-376.67"/>
<text text-anchor="middle" x="809.32" y="-390.8" font-family="Times,serif" font-size="14.00">vec</text>
<text text-anchor="middle" x="809.32" y="-375.8" font-family="Times,serif" font-size="14.00">list</text>
</g>
<!-- n3_port_1&#45;&gt;n0_place_4 -->
<g id="edge8" class="edge">
<title>n3_port_1&#45;&gt;n0_place_4</title>
<path fill="none" stroke="black" d="M845.64,-390.07C869.54,-395.45 899.5,-406.26 917.4,-428.77 972.39,-502.8 908.39,-550.18 945.65,-630.19 949.6,-639.17 955.71,-648.14 962.09,-655.97"/>
<path fill="none" stroke="transparent" d="M845.2,-392.02C868.86,-397.33 898.82,-408.14 915.82,-430 971.2,-501.19 907.2,-548.57 943.82,-631 947.95,-640.29 954.06,-649.26 960.54,-657.23"/>
<path fill="none" stroke="black" d="M844.76,-393.97C868.18,-399.21 898.14,-410.02 914.24,-431.23 970.01,-499.59 906.01,-546.96 941.99,-631.81 946.29,-641.42 952.4,-650.39 958.99,-658.49"/>
<polygon fill="black" stroke="black" points="957.91,-659.54 967.09,-664.83 963.22,-654.97 957.91,-659.54"/>
</g>
<!-- n3_port_2 -->
<g id="node28" class="node">
<title>n3_port_2</title>
<polygon fill="white" stroke="black" points="739.47,-208.67 809.32,-185.57 879.16,-208.67 879.1,-246.04 739.54,-246.04 739.47,-208.67"/>
<text text-anchor="middle" x="809.32" y="-222.8" font-family="Times,serif" font-size="14.00">vec_copy</text>
<text text-anchor="middle" x="809.32" y="-207.8" font-family="Times,serif" font-size="14.00">string</text>
</g>
<!-- n3_port_2&#45;&gt;n0_place_5 -->
<g id="edge7" class="edge">
<title>n3_port_2&#45;&gt;n0_place_5</title>
<path fill="none" stroke="black" d="M879.23,-238.93C892.26,-244.7 905.13,-251.96 915.82,-261 944.33,-285.12 965.1,-322.82 977.62,-350.51"/>
<polygon fill="black" stroke="black" points="974.49,-352.08 981.7,-359.84 980.9,-349.28 974.49,-352.08"/>
</g>
<!-- n3_modcall -->
<g id="node29" class="node">
<title>n3_modcall</title>
<polygon fill="white" stroke="black" points="907.82,-168 710.82,-168 710.82,-132 907.82,-132 907.82,-168"/>
<text text-anchor="middle" x="809.32" y="-146.3" font-family="Times,serif" font-size="14.00">feynman_module.iterator</text>
</g>
<!-- n4_condition -->
<g id="node30" class="node">
<title>n4_condition</title>
<polygon fill="white" stroke="black" points="732.82,-833 732.82,-869 885.82,-869 885.82,-833 732.82,-833"/>
<text text-anchor="middle" x="809.32" y="-847.3" font-family="Times,serif" font-size="14.00">first_next_partition</text>
</g>
<!-- n4_port_1 -->
<g id="node32" class="node">
<title>n4_port_1</title>
<polygon fill="white" stroke="black" points="773.65,-686.67 809.32,-663.57 844.99,-686.67 844.96,-724.04 773.68,-724.04 773.65,-686.67"/>
<text text-anchor="middle" x="809.32" y="-700.8" font-family="Times,serif" font-size="14.00">vec</text>
<text text-anchor="middle" x="809.32" y="-685.8" font-family="Times,serif" font-size="14.00">list</text>
</g>
<!-- n4_port_1&#45;&gt;n0_place_4 -->
<g id="edge11" class="edge">
<title>n4_port_1&#45;&gt;n0_place_4</title>
<path fill="none" stroke="black" d="M845.17,-693.27C870.21,-692.02 904.5,-690.32 933.59,-688.88"/>
<path fill="none" stroke="transparent" d="M845.27,-695.26C870.31,-694.02 904.6,-692.32 933.69,-690.88"/>
<path fill="none" stroke="black" d="M845.37,-697.26C870.41,-696.02 904.7,-694.32 933.79,-692.87"/>
<polygon fill="black" stroke="black" points="933.93,-694.37 943.74,-690.38 933.58,-687.38 933.93,-694.37"/>
</g>
<!-- n4_port_2 -->
<g id="node33" class="node">
<title>n4_port_2</title>
<polygon fill="white" stroke="black" points="739.47,-602.67 809.32,-579.57 879.16,-602.67 879.1,-640.04 739.54,-640.04 739.47,-602.67"/>
<text text-anchor="middle" x="809.32" y="-616.8" font-family="Times,serif" font-size="14.00">vec_copy</text>
<text text-anchor="middle" x="809.32" y="-601.8" font-family="Times,serif" font-size="14.00">string</text>
</g>
<!-- n4_port_2&#45;&gt;n0_place_5 -->
<g id="edge10" class="edge">
<title>n4_port_2&#45;&gt;n0_place_5</title>
<path fill="none" stroke="black" d="M868.87,-599.09C885.68,-592.77 902.93,-583.76 915.82,-571 956.97,-530.25 976.68,-464.03 985.41,-422.85"/>
<polygon fill="black" stroke="black" points="988.86,-423.44 987.4,-412.95 982,-422.06 988.86,-423.44"/>
</g>
<!-- n4_modcall -->
<g id="node34" class="node">
<title>n4_modcall</title>
<polygon fill="white" stroke="black" points="900.32,-562 718.32,-562 718.32,-526 900.32,-526 900.32,-562"/>
<text text-anchor="middle" x="809.32" y="-540.3" font-family="Times,serif" font-size="14.00">feynman_module.iterat</text>
</g>
<!-- n5_condition -->
<g id="node35" class="node">
<title>n5_condition</title>
<polygon fill="white" stroke="black" points="373.71,-833 373.71,-869 431.71,-869 431.71,-833 373.71,-833"/>
<text text-anchor="middle" x="402.71" y="-847.3" font-family="Times,serif" font-size="14.00">initial</text>
</g>
<!-- n5_port_2 -->
<g id="node38" class="node">
<title>n5_port_2</title>
<polygon fill="white" stroke="black" points="368.54,-602.67 402.71,-579.57 436.89,-602.67 436.85,-640.04 368.57,-640.04 368.54,-602.67"/>
<text text-anchor="middle" x="402.71" y="-616.8" font-family="Times,serif" font-size="14.00">v</text>
<text text-anchor="middle" x="402.71" y="-601.8" font-family="Times,serif" font-size="14.00">list</text>
</g>
<!-- n5_port_2&#45;&gt;n0_place_3 -->
<g id="edge13" class="edge">
<title>n5_port_2&#45;&gt;n0_place_3</title>
<path fill="none" stroke="black" d="M437.76,-622.81C460.41,-630.91 490.9,-642.17 517.47,-653.15 530.71,-658.62 544.81,-664.85 557.92,-670.81"/>
<path fill="none" stroke="transparent" d="M437.08,-624.69C459.71,-632.79 490.21,-644.05 516.71,-655 529.9,-660.45 544,-666.68 557.09,-672.63"/>
<path fill="none" stroke="black" d="M436.41,-626.57C459.02,-634.66 489.52,-645.92 515.95,-656.85 529.1,-662.28 543.19,-668.51 556.26,-674.45"/>
<polygon fill="black" stroke="black" points="555.87,-675.92 566.42,-676.91 558.79,-669.56 555.87,-675.92"/>
</g>
<!-- n5_modcall -->
<g id="node39" class="node">
<title>n5_modcall</title>
<polygon fill="white" stroke="black" points="508.71,-562 296.71,-562 296.71,-526 508.71,-526 508.71,-562"/>
<text text-anchor="middle" x="402.71" y="-540.3" font-family="Times,serif" font-size="14.00">feynman_module.gen_block</text>
</g>
</g>
</svg>
