<?xml version="1.0" encoding="UTF-8" standalone="no"?>
<!DOCTYPE svg PUBLIC "-//W3C//DTD SVG 1.1//EN"
 "http://www.w3.org/Graphics/SVG/1.1/DTD/svg11.dtd">
<!-- Generated by graphviz version 2.43.0 (0)
 -->
<!-- Title: feynman_deg Pages: 1 -->
<svg width="1551pt" height="1556pt"
 viewBox="0.00 0.00 1551.16 1556.00" xmlns="http://www.w3.org/2000/svg" xmlns:xlink="http://www.w3.org/1999/xlink">
<g id="graph0" class="graph" transform="scale(1 1) rotate(0) translate(4 1552)">
<title>feynman_deg</title>
<polygon fill="white" stroke="transparent" points="-4,4 -4,-1552 1547.16,-1552 1547.16,4 -4,4"/>
<g id="clust1" class="cluster">
<title>cluster_0</title>
<polygon fill="dimgray" stroke="black" points="8,-8 8,-1540 1535.16,-1540 1535.16,-8 8,-8"/>
</g>
<g id="clust2" class="cluster">
<title>cluster_net_0</title>
<polygon fill="white" stroke="black" points="159.37,-116 159.37,-1236 1527.16,-1236 1527.16,-116 159.37,-116"/>
</g>
<g id="clust3" class="cluster">
<title>cluster_1</title>
<polygon fill="yellow" stroke="black" points="1298.64,-616 1298.64,-1228 1519.16,-1228 1519.16,-616 1298.64,-616"/>
</g>
<g id="clust4" class="cluster">
<title>cluster_2</title>
<polygon fill="yellow" stroke="black" points="738.17,-492 738.17,-1104 1077.17,-1104 1077.17,-492 738.17,-492"/>
</g>
<g id="clust5" class="cluster">
<title>cluster_3</title>
<polygon fill="yellow" stroke="black" points="1302.4,-124 1302.4,-608 1515.4,-608 1515.4,-124 1302.4,-124"/>
</g>
<g id="clust6" class="cluster">
<title>cluster_4</title>
<polygon fill="yellow" stroke="black" points="808.67,-124 808.67,-484 1006.67,-484 1006.67,-124 808.67,-124"/>
</g>
<g id="clust7" class="cluster">
<title>cluster_5</title>
<polygon fill="yellow" stroke="black" points="288.71,-292 288.71,-652 516.71,-652 516.71,-292 288.71,-292"/>
</g>
<!-- n0_condition -->
<g id="node1" class="node">
<title>n0_condition</title>
<polygon fill="white" stroke="black" points="18.19,-1051 18.19,-1087 129.19,-1087 129.19,-1051 18.19,-1051"/>
<text text-anchor="middle" x="73.69" y="-1065.3" font-family="Times,serif" font-size="14.00">feynman_deg</text>
</g>
<!-- n0_port_0 -->
<g id="node2" class="node">
<title>n0_port_0</title>
<polygon fill="white" stroke="black" points="131.56,-565.33 73.69,-588.43 15.81,-565.33 15.87,-527.96 131.5,-527.96 131.56,-565.33"/>
<text text-anchor="middle" x="73.69" y="-558.8" font-family="Times,serif" font-size="14.00">degree</text>
<text text-anchor="middle" x="73.69" y="-543.8" font-family="Times,serif" font-size="14.00">int</text>
</g>
<!-- n0_place_0 -->
<g id="node9" class="node">
<title>n0_place_0</title>
<ellipse fill="white" stroke="black" cx="214.04" cy="-555" rx="46.84" ry="26.74"/>
<text text-anchor="middle" x="214.04" y="-558.8" font-family="Times,serif" font-size="14.00">degree</text>
<text text-anchor="middle" x="214.04" y="-543.8" font-family="Times,serif" font-size="14.00">int</text>
</g>
<!-- n0_port_0&#45;&gt;n0_place_0 -->
<g id="edge23" class="edge">
<title>n0_port_0&#45;&gt;n0_place_0</title>
<path fill="none" stroke="black" stroke-dasharray="1,5" d="M131.76,-555C143.52,-555 155.76,-555 167.07,-555"/>
</g>
<!-- n0_port_1 -->
<g id="node3" class="node">
<title>n0_port_1</title>
<polygon fill="white" stroke="black" points="105.12,-481.33 73.69,-504.43 42.26,-481.33 42.29,-443.96 105.09,-443.96 105.12,-481.33"/>
<text text-anchor="middle" x="73.69" y="-474.8" font-family="Times,serif" font-size="14.00">N</text>
<text text-anchor="middle" x="73.69" y="-459.8" font-family="Times,serif" font-size="14.00">int</text>
</g>
<!-- n0_place_1 -->
<g id="node10" class="node">
<title>n0_place_1</title>
<ellipse fill="white" stroke="black" cx="214.04" cy="-471" rx="27" ry="26.74"/>
<text text-anchor="middle" x="214.04" y="-474.8" font-family="Times,serif" font-size="14.00">N</text>
<text text-anchor="middle" x="214.04" y="-459.8" font-family="Times,serif" font-size="14.00">int</text>
</g>
<!-- n0_port_1&#45;&gt;n0_place_1 -->
<g id="edge24" class="edge">
<title>n0_port_1&#45;&gt;n0_place_1</title>
<path fill="none" stroke="black" stroke-dasharray="1,5" d="M105.39,-471C129.75,-471 163.45,-471 186.62,-471"/>
</g>
<!-- n0_port_2 -->
<g id="node4" class="node">
<title>n0_port_2</title>
<polygon fill="white" stroke="black" points="454.35,-1287.33 402.71,-1310.43 351.07,-1287.33 351.12,-1249.96 454.3,-1249.96 454.35,-1287.33"/>
<text text-anchor="middle" x="402.71" y="-1280.8" font-family="Times,serif" font-size="14.00">graph</text>
<text text-anchor="middle" x="402.71" y="-1265.8" font-family="Times,serif" font-size="14.00">list</text>
</g>
<!-- n0_place_7 -->
<g id="node16" class="node">
<title>n0_place_7</title>
<ellipse fill="white" stroke="black" cx="627.44" cy="-1062" rx="41.94" ry="26.74"/>
<text text-anchor="middle" x="627.44" y="-1065.8" font-family="Times,serif" font-size="14.00">graph</text>
<text text-anchor="middle" x="627.44" y="-1050.8" font-family="Times,serif" font-size="14.00">list</text>
</g>
<!-- n0_port_2&#45;&gt;n0_place_7 -->
<g id="edge25" class="edge">
<title>n0_port_2&#45;&gt;n0_place_7</title>
<path fill="none" stroke="black" stroke-dasharray="1,5" d="M431.92,-1249.77C476.52,-1206.72 562.46,-1123.76 603.51,-1084.13"/>
</g>
<!-- n0_port_3 -->
<g id="node5" class="node">
<title>n0_port_3</title>
<polygon fill="white" stroke="black" points="847.56,-1266.67 907.67,-1243.57 967.79,-1266.67 967.73,-1304.04 847.61,-1304.04 847.56,-1266.67"/>
<text text-anchor="middle" x="907.67" y="-1280.8" font-family="Times,serif" font-size="14.00">vectors</text>
<text text-anchor="middle" x="907.67" y="-1265.8" font-family="Times,serif" font-size="14.00">string</text>
</g>
<!-- n0_place_4 -->
<g id="node13" class="node">
<title>n0_place_4</title>
<ellipse fill="white" stroke="black" cx="1187.9" cy="-487" rx="48.58" ry="26.74"/>
<text text-anchor="middle" x="1187.9" y="-490.8" font-family="Times,serif" font-size="14.00">vectors</text>
<text text-anchor="middle" x="1187.9" y="-475.8" font-family="Times,serif" font-size="14.00">string</text>
</g>
<!-- n0_port_3&#45;&gt;n0_place_4 -->
<g id="edge26" class="edge">
<title>n0_port_3&#45;&gt;n0_place_4</title>
<path fill="none" stroke="black" stroke-dasharray="1,5" d="M940.69,-1256.08C980.74,-1227.86 1047.63,-1173.53 1077.17,-1108 1117.71,-1018.07 1081.08,-760.65 1105.17,-665 1119.63,-607.62 1152.19,-546.01 1171.57,-512.43"/>
</g>
<!-- n0_port_4 -->
<g id="node6" class="node">
<title>n0_port_4</title>
<polygon fill="white" stroke="black" points="858.78,-1471.74 907.67,-1439.85 956.56,-1471.74 956.52,-1523.33 858.83,-1523.33 858.78,-1471.74"/>
<text text-anchor="middle" x="907.67" y="-1497.3" font-family="Times,serif" font-size="14.00">count</text>
<text text-anchor="middle" x="907.67" y="-1482.3" font-family="Times,serif" font-size="14.00">int</text>
<text text-anchor="middle" x="907.67" y="-1467.3" font-family="Times,serif" font-size="14.00">0</text>
</g>
<!-- n0_place_10 -->
<g id="node19" class="node">
<title>n0_place_10</title>
<ellipse fill="white" stroke="black" cx="1187.9" cy="-1131" rx="39.7" ry="37.45"/>
<text text-anchor="middle" x="1187.9" y="-1142.3" font-family="Times,serif" font-size="14.00">count</text>
<text text-anchor="middle" x="1187.9" y="-1127.3" font-family="Times,serif" font-size="14.00">int</text>
<text text-anchor="middle" x="1187.9" y="-1112.3" font-family="Times,serif" font-size="14.00">0</text>
</g>
<!-- n0_port_4&#45;&gt;n0_place_10 -->
<g id="edge27" class="edge">
<title>n0_port_4&#45;&gt;n0_place_10</title>
<path fill="none" stroke="black" stroke-dasharray="1,5" d="M956.61,-1481.34C993.91,-1475.33 1044.64,-1461.54 1077.17,-1430 1151.61,-1357.83 1175.87,-1230.98 1183.53,-1168.26"/>
</g>
<!-- n0_port_5 -->
<g id="node7" class="node">
<title>n0_port_5</title>
<polygon fill="white" stroke="black" points="805.65,-1360.74 907.67,-1328.85 1009.7,-1360.74 1009.6,-1412.33 805.74,-1412.33 805.65,-1360.74"/>
<text text-anchor="middle" x="907.67" y="-1386.3" font-family="Times,serif" font-size="14.00">sum</text>
<text text-anchor="middle" x="907.67" y="-1371.3" font-family="Times,serif" font-size="14.00">unsigned long</text>
<text text-anchor="middle" x="907.67" y="-1356.3" font-family="Times,serif" font-size="14.00">0UL</text>
</g>
<!-- n0_place_2 -->
<g id="node11" class="node">
<title>n0_place_2</title>
<ellipse fill="white" stroke="black" cx="1187.9" cy="-963" rx="82.96" ry="37.45"/>
<text text-anchor="middle" x="1187.9" y="-974.3" font-family="Times,serif" font-size="14.00">sum</text>
<text text-anchor="middle" x="1187.9" y="-959.3" font-family="Times,serif" font-size="14.00">unsigned long</text>
<text text-anchor="middle" x="1187.9" y="-944.3" font-family="Times,serif" font-size="14.00">0UL</text>
</g>
<!-- n0_port_5&#45;&gt;n0_place_2 -->
<g id="edge28" class="edge">
<title>n0_port_5&#45;&gt;n0_place_2</title>
<path fill="none" stroke="black" stroke-dasharray="1,5" d="M1009.85,-1361.17C1035.32,-1352.9 1060.22,-1339.78 1077.17,-1319 1110.29,-1278.43 1086.99,-1134.11 1105.17,-1085 1117.04,-1052.96 1138.87,-1021.04 1156.99,-997.89"/>
</g>
<!-- n0_port_6 -->
<g id="node8" class="node">
<title>n0_port_6</title>
<polygon fill="white" stroke="black" points="300.69,-47.74 402.71,-15.85 504.73,-47.74 504.64,-99.33 300.78,-99.33 300.69,-47.74"/>
<text text-anchor="middle" x="402.71" y="-73.3" font-family="Times,serif" font-size="14.00">fey_sum</text>
<text text-anchor="middle" x="402.71" y="-58.3" font-family="Times,serif" font-size="14.00">unsigned long</text>
<text text-anchor="middle" x="402.71" y="-43.3" font-family="Times,serif" font-size="14.00">0UL</text>
</g>
<!-- n0_place_6 -->
<g id="node15" class="node">
<title>n0_place_6</title>
<ellipse fill="white" stroke="black" cx="627.44" cy="-671" rx="82.96" ry="37.45"/>
<text text-anchor="middle" x="627.44" y="-682.3" font-family="Times,serif" font-size="14.00">fey_sum</text>
<text text-anchor="middle" x="627.44" y="-667.3" font-family="Times,serif" font-size="14.00">unsigned long</text>
<text text-anchor="middle" x="627.44" y="-652.3" font-family="Times,serif" font-size="14.00">0UL</text>
</g>
<!-- n0_port_6&#45;&gt;n0_place_6 -->
<g id="edge29" class="edge">
<title>n0_port_6&#45;&gt;n0_place_6</title>
<path fill="none" stroke="black" stroke-dasharray="1,5" d="M426.25,-99.47C451.68,-143.25 492.62,-218.58 516.71,-288 536.8,-345.89 528.87,-363.81 544.71,-423 565.04,-498.98 595.35,-585.88 612.78,-634.01"/>
</g>
<!-- n5_port_0 -->
<g id="node48" class="node">
<title>n5_port_0</title>
<polygon fill="white" stroke="black" points="434.14,-565.33 402.71,-588.43 371.28,-565.33 371.31,-527.96 434.11,-527.96 434.14,-565.33"/>
<text text-anchor="middle" x="402.71" y="-558.8" font-family="Times,serif" font-size="14.00">d</text>
<text text-anchor="middle" x="402.71" y="-543.8" font-family="Times,serif" font-size="14.00">int</text>
</g>
<!-- n0_place_0&#45;&gt;n5_port_0 -->
<g id="edge21" class="edge">
<title>n0_place_0&#45;&gt;n5_port_0</title>
<path fill="none" stroke="black" d="M261.18,-555C291.76,-555 331.51,-555 360.93,-555"/>
<polygon fill="black" stroke="black" points="361.26,-558.5 371.26,-555 361.26,-551.5 361.26,-558.5"/>
</g>
<!-- n5_port_1 -->
<g id="node49" class="node">
<title>n5_port_1</title>
<polygon fill="white" stroke="black" points="434.14,-481.33 402.71,-504.43 371.28,-481.33 371.31,-443.96 434.11,-443.96 434.14,-481.33"/>
<text text-anchor="middle" x="402.71" y="-474.8" font-family="Times,serif" font-size="14.00">n</text>
<text text-anchor="middle" x="402.71" y="-459.8" font-family="Times,serif" font-size="14.00">int</text>
</g>
<!-- n0_place_1&#45;&gt;n5_port_1 -->
<g id="edge22" class="edge">
<title>n0_place_1&#45;&gt;n5_port_1</title>
<path fill="none" stroke="black" d="M241.39,-471C272.49,-471 324.56,-471 360.89,-471"/>
<polygon fill="black" stroke="black" points="361.16,-474.5 371.16,-471 361.16,-467.5 361.16,-474.5"/>
</g>
<!-- n1_port_2 -->
<g id="node22" class="node">
<title>n1_port_2</title>
<polygon fill="white" stroke="black" points="1510.92,-973.33 1408.9,-996.43 1306.87,-973.33 1306.97,-935.96 1510.83,-935.96 1510.92,-973.33"/>
<text text-anchor="middle" x="1408.9" y="-966.8" font-family="Times,serif" font-size="14.00">sum</text>
<text text-anchor="middle" x="1408.9" y="-951.8" font-family="Times,serif" font-size="14.00">unsigned long</text>
</g>
<!-- n0_place_2&#45;&gt;n1_port_2 -->
<g id="edge4" class="edge">
<title>n0_place_2&#45;&gt;n1_port_2</title>
<path fill="none" stroke="black" d="M1270.76,-963C1279.23,-963 1287.94,-963 1296.66,-963"/>
<polygon fill="black" stroke="black" points="1296.89,-966.5 1306.89,-963 1296.89,-959.5 1296.89,-966.5"/>
</g>
<!-- n0_place_3 -->
<g id="node12" class="node">
<title>n0_place_3</title>
<ellipse fill="white" stroke="black" cx="627.44" cy="-387" rx="65.11" ry="26.74"/>
<text text-anchor="middle" x="627.44" y="-390.8" font-family="Times,serif" font-size="14.00">init_vector</text>
<text text-anchor="middle" x="627.44" y="-375.8" font-family="Times,serif" font-size="14.00">list</text>
</g>
<!-- n4_port_0 -->
<g id="node43" class="node">
<title>n4_port_0</title>
<polygon fill="white" stroke="black" points="941.85,-397.33 907.67,-420.43 873.5,-397.33 873.53,-359.96 941.82,-359.96 941.85,-397.33"/>
<text text-anchor="middle" x="907.67" y="-390.8" font-family="Times,serif" font-size="14.00">v</text>
<text text-anchor="middle" x="907.67" y="-375.8" font-family="Times,serif" font-size="14.00">list</text>
</g>
<!-- n0_place_3&#45;&gt;n4_port_0 -->
<g id="edge19" class="edge">
<title>n0_place_3&#45;&gt;n4_port_0</title>
<path fill="none" stroke="black" d="M692.62,-387C745.03,-387 817.66,-387 863.4,-387"/>
<polygon fill="black" stroke="black" points="863.58,-390.5 873.58,-387 863.58,-383.5 863.58,-390.5"/>
</g>
<!-- n2_port_0 -->
<g id="node29" class="node">
<title>n2_port_0</title>
<polygon fill="white" stroke="black" points="959.31,-597.33 907.67,-620.43 856.04,-597.33 856.09,-559.96 959.26,-559.96 959.31,-597.33"/>
<text text-anchor="middle" x="907.67" y="-590.8" font-family="Times,serif" font-size="14.00">a</text>
<text text-anchor="middle" x="907.67" y="-575.8" font-family="Times,serif" font-size="14.00">string</text>
</g>
<!-- n0_place_4&#45;&gt;n2_port_0 -->
<g id="edge11" class="edge">
<title>n0_place_4&#45;&gt;n2_port_0</title>
<path fill="none" stroke="black" d="M1154.27,-506.94C1132.94,-519.28 1104.14,-534.69 1077.17,-545 1042.34,-558.32 1001.83,-568.58 969.25,-575.62"/>
<polygon fill="black" stroke="black" points="968.48,-572.2 959.42,-577.7 969.92,-579.05 968.48,-572.2"/>
</g>
<!-- n0_place_5 -->
<g id="node14" class="node">
<title>n0_place_5</title>
<ellipse fill="white" stroke="black" cx="1187.9" cy="-219" rx="41.94" ry="26.74"/>
<text text-anchor="middle" x="1187.9" y="-222.8" font-family="Times,serif" font-size="14.00">state</text>
<text text-anchor="middle" x="1187.9" y="-207.8" font-family="Times,serif" font-size="14.00">string</text>
</g>
<!-- n3_port_0 -->
<g id="node37" class="node">
<title>n3_port_0</title>
<polygon fill="white" stroke="black" points="1460.53,-313.33 1408.9,-336.43 1357.26,-313.33 1357.31,-275.96 1460.49,-275.96 1460.53,-313.33"/>
<text text-anchor="middle" x="1408.9" y="-306.8" font-family="Times,serif" font-size="14.00">v</text>
<text text-anchor="middle" x="1408.9" y="-291.8" font-family="Times,serif" font-size="14.00">string</text>
</g>
<!-- n0_place_5&#45;&gt;n3_port_0 -->
<g id="edge16" class="edge">
<title>n0_place_5&#45;&gt;n3_port_0</title>
<path fill="none" stroke="black" d="M1224.09,-232.5C1257.38,-245.26 1308.01,-264.68 1347.71,-279.91"/>
<polygon fill="black" stroke="black" points="1346.7,-283.28 1357.29,-283.59 1349.21,-276.74 1346.7,-283.28"/>
</g>
<!-- n2_port_3 -->
<g id="node31" class="node">
<title>n2_port_3</title>
<polygon fill="white" stroke="black" points="1009.7,-849.33 907.67,-872.43 805.65,-849.33 805.74,-811.96 1009.6,-811.96 1009.7,-849.33"/>
<text text-anchor="middle" x="907.67" y="-842.8" font-family="Times,serif" font-size="14.00">fey_sum</text>
<text text-anchor="middle" x="907.67" y="-827.8" font-family="Times,serif" font-size="14.00">unsigned long</text>
</g>
<!-- n0_place_6&#45;&gt;n2_port_3 -->
<g id="edge10" class="edge">
<title>n0_place_6&#45;&gt;n2_port_3</title>
<path fill="none" stroke="black" d="M650.8,-707.1C670.39,-735.71 701.43,-774.51 738.17,-797 755.63,-807.69 775.68,-815.66 795.72,-821.6"/>
<polygon fill="black" stroke="black" points="794.97,-825.03 805.54,-824.36 796.86,-818.29 794.97,-825.03"/>
</g>
<!-- n2_port_1 -->
<g id="node30" class="node">
<title>n2_port_1</title>
<polygon fill="white" stroke="black" points="941.85,-933.33 907.67,-956.43 873.5,-933.33 873.53,-895.96 941.82,-895.96 941.85,-933.33"/>
<text text-anchor="middle" x="907.67" y="-926.8" font-family="Times,serif" font-size="14.00">G</text>
<text text-anchor="middle" x="907.67" y="-911.8" font-family="Times,serif" font-size="14.00">list</text>
</g>
<!-- n0_place_7&#45;&gt;n2_port_1 -->
<g id="edge12" class="edge">
<title>n0_place_7&#45;&gt;n2_port_1</title>
<path fill="none" stroke="black" stroke-dasharray="5,2" d="M648.74,-1038.46C669.15,-1016.26 702.62,-983.7 738.17,-965 777.76,-944.18 828.05,-933.39 863.35,-927.99"/>
<polygon fill="black" stroke="black" points="863.94,-931.44 873.34,-926.55 862.94,-924.51 863.94,-931.44"/>
</g>
<!-- n0_place_8 -->
<g id="node17" class="node">
<title>n0_place_8</title>
<ellipse fill="white" stroke="black" cx="1187.9" cy="-838" rx="48.17" ry="26.74"/>
<text text-anchor="middle" x="1187.9" y="-841.8" font-family="Times,serif" font-size="14.00">fey_out</text>
<text text-anchor="middle" x="1187.9" y="-826.8" font-family="Times,serif" font-size="14.00">string</text>
</g>
<!-- n1_port_0 -->
<g id="node21" class="node">
<title>n1_port_0</title>
<polygon fill="white" stroke="black" points="1460.53,-805.33 1408.9,-828.43 1357.26,-805.33 1357.31,-767.96 1460.49,-767.96 1460.53,-805.33"/>
<text text-anchor="middle" x="1408.9" y="-798.8" font-family="Times,serif" font-size="14.00">s</text>
<text text-anchor="middle" x="1408.9" y="-783.8" font-family="Times,serif" font-size="14.00">string</text>
</g>
<!-- n0_place_8&#45;&gt;n1_port_0 -->
<g id="edge6" class="edge">
<title>n0_place_8&#45;&gt;n1_port_0</title>
<path fill="none" stroke="black" d="M1233.49,-829.25C1266.29,-822.8 1311.27,-813.97 1347.33,-806.89"/>
<polygon fill="black" stroke="black" points="1348.11,-810.31 1357.25,-804.95 1346.76,-803.44 1348.11,-810.31"/>
</g>
<!-- n0_place_9 -->
<g id="node18" class="node">
<title>n0_place_9</title>
<ellipse fill="white" stroke="black" cx="1187.9" cy="-711" rx="31.23" ry="37.45"/>
<text text-anchor="middle" x="1187.9" y="-722.3" font-family="Times,serif" font-size="14.00">size</text>
<text text-anchor="middle" x="1187.9" y="-707.3" font-family="Times,serif" font-size="14.00">int</text>
<text text-anchor="middle" x="1187.9" y="-692.3" font-family="Times,serif" font-size="14.00">3</text>
</g>
<!-- n3_port_3 -->
<g id="node38" class="node">
<title>n3_port_3</title>
<polygon fill="white" stroke="black" points="1447.31,-481.33 1408.9,-504.43 1370.48,-481.33 1370.52,-443.96 1447.28,-443.96 1447.31,-481.33"/>
<text text-anchor="middle" x="1408.9" y="-474.8" font-family="Times,serif" font-size="14.00">size</text>
<text text-anchor="middle" x="1408.9" y="-459.8" font-family="Times,serif" font-size="14.00">int</text>
</g>
<!-- n0_place_9&#45;&gt;n3_port_3 -->
<g id="edge15" class="edge">
<title>n0_place_9&#45;&gt;n3_port_3</title>
<path fill="none" stroke="black" d="M1199.85,-676.13C1215.26,-632.36 1247.34,-557.62 1298.64,-513 1316.18,-497.74 1339.85,-487.74 1360.69,-481.33"/>
<polygon fill="black" stroke="black" points="1361.69,-484.69 1370.33,-478.56 1359.75,-477.96 1361.69,-484.69"/>
</g>
<!-- n1_port_5 -->
<g id="node23" class="node">
<title>n1_port_5</title>
<polygon fill="white" stroke="black" points="1457.79,-1141.33 1408.9,-1164.43 1360.01,-1141.33 1360.05,-1103.96 1457.74,-1103.96 1457.79,-1141.33"/>
<text text-anchor="middle" x="1408.9" y="-1134.8" font-family="Times,serif" font-size="14.00">count</text>
<text text-anchor="middle" x="1408.9" y="-1119.8" font-family="Times,serif" font-size="14.00">int</text>
</g>
<!-- n0_place_10&#45;&gt;n1_port_5 -->
<g id="edge5" class="edge">
<title>n0_place_10&#45;&gt;n1_port_5</title>
<path fill="none" stroke="black" d="M1227.55,-1131C1261.37,-1131 1310.98,-1131 1349.62,-1131"/>
<polygon fill="black" stroke="black" points="1349.69,-1134.5 1359.69,-1131 1349.69,-1127.5 1349.69,-1134.5"/>
</g>
<!-- n1_condition -->
<g id="node20" class="node">
<title>n1_condition</title>
<polygon fill="white" stroke="black" points="1374.4,-1183 1374.4,-1219 1443.4,-1219 1443.4,-1183 1374.4,-1183"/>
<text text-anchor="middle" x="1408.9" y="-1197.3" font-family="Times,serif" font-size="14.00">Reduce</text>
</g>
<!-- n1_port_1 -->
<g id="node24" class="node">
<title>n1_port_1</title>
<polygon fill="white" stroke="black" points="1370.48,-700.67 1408.9,-677.57 1447.31,-700.67 1447.28,-738.04 1370.52,-738.04 1370.48,-700.67"/>
<text text-anchor="middle" x="1408.9" y="-714.8" font-family="Times,serif" font-size="14.00">size</text>
<text text-anchor="middle" x="1408.9" y="-699.8" font-family="Times,serif" font-size="14.00">int</text>
</g>
<!-- n1_port_1&#45;&gt;n0_place_9 -->
<g id="edge3" class="edge">
<title>n1_port_1&#45;&gt;n0_place_9</title>
<path fill="none" stroke="black" d="M1370.38,-711C1331.12,-711 1269.7,-711 1229.38,-711"/>
<polygon fill="black" stroke="black" points="1229.35,-707.5 1219.35,-711 1229.35,-714.5 1229.35,-707.5"/>
</g>
<!-- n1_port_3 -->
<g id="node25" class="node">
<title>n1_port_3</title>
<polygon fill="white" stroke="black" points="1306.87,-868.67 1408.9,-845.57 1510.92,-868.67 1510.83,-906.04 1306.97,-906.04 1306.87,-868.67"/>
<text text-anchor="middle" x="1408.9" y="-882.8" font-family="Times,serif" font-size="14.00">sum</text>
<text text-anchor="middle" x="1408.9" y="-867.8" font-family="Times,serif" font-size="14.00">unsigned long</text>
</g>
<!-- n1_port_3&#45;&gt;n0_place_2 -->
<g id="edge2" class="edge">
<title>n1_port_3&#45;&gt;n0_place_2</title>
<path fill="none" stroke="black" d="M1337.04,-906.18C1312.77,-915.49 1285.59,-925.91 1261.21,-935.27"/>
<polygon fill="black" stroke="black" points="1259.74,-932.08 1251.66,-938.93 1262.25,-938.62 1259.74,-932.08"/>
</g>
<!-- n1_port_4 -->
<g id="node26" class="node">
<title>n1_port_4</title>
<polygon fill="white" stroke="black" points="1360.01,-1036.67 1408.9,-1013.57 1457.79,-1036.67 1457.74,-1074.04 1360.05,-1074.04 1360.01,-1036.67"/>
<text text-anchor="middle" x="1408.9" y="-1050.8" font-family="Times,serif" font-size="14.00">count</text>
<text text-anchor="middle" x="1408.9" y="-1035.8" font-family="Times,serif" font-size="14.00">int</text>
</g>
<!-- n1_port_4&#45;&gt;n0_place_10 -->
<g id="edge1" class="edge">
<title>n1_port_4&#45;&gt;n0_place_10</title>
<path fill="none" stroke="black" d="M1359.78,-1065.46C1322.48,-1079.76 1271.16,-1099.45 1234.52,-1113.5"/>
<polygon fill="black" stroke="black" points="1233.15,-1110.28 1225.07,-1117.13 1235.66,-1116.82 1233.15,-1110.28"/>
</g>
<!-- n1_modcall -->
<g id="node27" class="node">
<title>n1_modcall</title>
<polygon fill="white" stroke="black" points="1494.9,-660 1322.9,-660 1322.9,-624 1494.9,-624 1494.9,-660"/>
<text text-anchor="middle" x="1408.9" y="-638.3" font-family="Times,serif" font-size="14.00">feynman_module.plus</text>
</g>
<!-- n2_condition -->
<g id="node28" class="node">
<title>n2_condition</title>
<polygon fill="white" stroke="black" points="840.67,-1059 840.67,-1095 974.67,-1095 974.67,-1059 840.67,-1059"/>
<text text-anchor="middle" x="907.67" y="-1073.3" font-family="Times,serif" font-size="14.00">feynman_degree</text>
</g>
<!-- n2_port_2 -->
<g id="node32" class="node">
<title>n2_port_2</title>
<polygon fill="white" stroke="black" points="869.26,-744.67 907.67,-721.57 946.09,-744.67 946.05,-782.04 869.29,-782.04 869.26,-744.67"/>
<text text-anchor="middle" x="907.67" y="-758.8" font-family="Times,serif" font-size="14.00">size</text>
<text text-anchor="middle" x="907.67" y="-743.8" font-family="Times,serif" font-size="14.00">int</text>
</g>
<!-- n2_port_2&#45;&gt;n0_place_9 -->
<g id="edge9" class="edge">
<title>n2_port_2&#45;&gt;n0_place_9</title>
<path fill="none" stroke="black" d="M946.2,-749.07C998.48,-740.8 1092.87,-725.87 1146.6,-717.37"/>
<polygon fill="black" stroke="black" points="1147.45,-720.78 1156.78,-715.76 1146.36,-713.87 1147.45,-720.78"/>
</g>
<!-- n2_port_4 -->
<g id="node33" class="node">
<title>n2_port_4</title>
<polygon fill="white" stroke="black" points="805.65,-660.67 907.67,-637.57 1009.7,-660.67 1009.6,-698.04 805.74,-698.04 805.65,-660.67"/>
<text text-anchor="middle" x="907.67" y="-674.8" font-family="Times,serif" font-size="14.00">fey_sum</text>
<text text-anchor="middle" x="907.67" y="-659.8" font-family="Times,serif" font-size="14.00">unsigned long</text>
</g>
<!-- n2_port_4&#45;&gt;n0_place_6 -->
<g id="edge8" class="edge">
<title>n2_port_4&#45;&gt;n0_place_6</title>
<path fill="none" stroke="black" d="M805.56,-671C777.83,-671 747.91,-671 720.7,-671"/>
<polygon fill="black" stroke="black" points="720.42,-667.5 710.42,-671 720.42,-674.5 720.42,-667.5"/>
</g>
<!-- n2_port_5 -->
<g id="node34" class="node">
<title>n2_port_5</title>
<polygon fill="white" stroke="black" points="856.04,-996.67 907.67,-973.57 959.31,-996.67 959.26,-1034.04 856.09,-1034.04 856.04,-996.67"/>
<text text-anchor="middle" x="907.67" y="-1010.8" font-family="Times,serif" font-size="14.00">s</text>
<text text-anchor="middle" x="907.67" y="-995.8" font-family="Times,serif" font-size="14.00">string</text>
</g>
<!-- n2_port_5&#45;&gt;n0_place_8 -->
<g id="edge7" class="edge">
<title>n2_port_5&#45;&gt;n0_place_8</title>
<path fill="none" stroke="black" d="M959.54,-1004.63C995.5,-1000.66 1043.17,-990.51 1077.17,-965 1096.93,-950.18 1089.93,-936.43 1105.17,-917 1119.18,-899.15 1137.09,-881.4 1152.57,-867.26"/>
<polygon fill="black" stroke="black" points="1155.31,-869.5 1160.41,-860.21 1150.63,-864.3 1155.31,-869.5"/>
</g>
<!-- n2_modcall -->
<g id="node35" class="node">
<title>n2_modcall</title>
<polygon fill="white" stroke="black" points="1069.17,-536 746.17,-536 746.17,-500 1069.17,-500 1069.17,-536"/>
<text text-anchor="middle" x="907.67" y="-514.3" font-family="Times,serif" font-size="14.00">feynman_module.feynman_integral_degree</text>
</g>
<!-- n3_condition -->
<g id="node36" class="node">
<title>n3_condition</title>
<polygon fill="white" stroke="black" points="1337.4,-522.5 1337.4,-599.5 1480.4,-599.5 1480.4,-522.5 1337.4,-522.5"/>
<text text-anchor="middle" x="1408.9" y="-584.3" font-family="Times,serif" font-size="14.00">next_partitions</text>
<polyline fill="none" stroke="black" points="1337.4,-576.5 1480.4,-576.5 "/>
<text text-anchor="middle" x="1408.9" y="-561.3" font-family="Times,serif" font-size="14.00">((${v} != &quot;stop&quot;) </text>
<text text-anchor="middle" x="1408.9" y="-546.3" font-family="Times,serif" font-size="14.00">(${size} &gt; 0))</text>
</g>
<!-- n3_port_1 -->
<g id="node39" class="node">
<title>n3_port_1</title>
<polygon fill="white" stroke="black" points="1373.23,-376.67 1408.9,-353.57 1444.57,-376.67 1444.54,-414.04 1373.26,-414.04 1373.23,-376.67"/>
<text text-anchor="middle" x="1408.9" y="-390.8" font-family="Times,serif" font-size="14.00">vec</text>
<text text-anchor="middle" x="1408.9" y="-375.8" font-family="Times,serif" font-size="14.00">list</text>
</g>
<!-- n3_port_1&#45;&gt;n0_place_4 -->
<g id="edge14" class="edge">
<title>n3_port_1&#45;&gt;n0_place_4</title>
<path fill="none" stroke="black" d="M1373.7,-401.08C1352.06,-408.95 1323.77,-419.77 1299.46,-430.82 1276.94,-441.06 1252.42,-453.85 1232.35,-464.78"/>
<path fill="none" stroke="transparent" d="M1373.02,-399.2C1351.34,-407.08 1323.06,-417.9 1298.64,-429 1276.01,-439.28 1251.5,-452.07 1231.39,-463.02"/>
<path fill="none" stroke="black" d="M1372.33,-397.32C1350.63,-405.21 1322.34,-416.03 1297.81,-427.18 1275.09,-437.51 1250.57,-450.3 1230.44,-461.27"/>
<polygon fill="black" stroke="black" points="1229.57,-460.03 1222.49,-467.91 1232.94,-466.17 1229.57,-460.03"/>
</g>
<!-- n3_port_2 -->
<g id="node40" class="node">
<title>n3_port_2</title>
<polygon fill="white" stroke="black" points="1339.05,-208.67 1408.9,-185.57 1478.74,-208.67 1478.68,-246.04 1339.12,-246.04 1339.05,-208.67"/>
<text text-anchor="middle" x="1408.9" y="-222.8" font-family="Times,serif" font-size="14.00">vec_copy</text>
<text text-anchor="middle" x="1408.9" y="-207.8" font-family="Times,serif" font-size="14.00">string</text>
</g>
<!-- n3_port_2&#45;&gt;n0_place_5 -->
<g id="edge13" class="edge">
<title>n3_port_2&#45;&gt;n0_place_5</title>
<path fill="none" stroke="black" d="M1338.75,-219C1306.71,-219 1269.31,-219 1239.89,-219"/>
<polygon fill="black" stroke="black" points="1239.84,-215.5 1229.84,-219 1239.84,-222.5 1239.84,-215.5"/>
</g>
<!-- n3_modcall -->
<g id="node41" class="node">
<title>n3_modcall</title>
<polygon fill="white" stroke="black" points="1507.4,-168 1310.4,-168 1310.4,-132 1507.4,-132 1507.4,-168"/>
<text text-anchor="middle" x="1408.9" y="-146.3" font-family="Times,serif" font-size="14.00">feynman_module.iterator</text>
</g>
<!-- n4_condition -->
<g id="node42" class="node">
<title>n4_condition</title>
<polygon fill="white" stroke="black" points="831.17,-439 831.17,-475 984.17,-475 984.17,-439 831.17,-439"/>
<text text-anchor="middle" x="907.67" y="-453.3" font-family="Times,serif" font-size="14.00">first_next_partition</text>
</g>
<!-- n4_port_1 -->
<g id="node44" class="node">
<title>n4_port_1</title>
<polygon fill="white" stroke="black" points="872,-292.67 907.67,-269.57 943.34,-292.67 943.31,-330.04 872.04,-330.04 872,-292.67"/>
<text text-anchor="middle" x="907.67" y="-306.8" font-family="Times,serif" font-size="14.00">vec</text>
<text text-anchor="middle" x="907.67" y="-291.8" font-family="Times,serif" font-size="14.00">list</text>
</g>
<!-- n4_port_1&#45;&gt;n0_place_4 -->
<g id="edge18" class="edge">
<title>n4_port_1&#45;&gt;n0_place_4</title>
<path fill="none" stroke="black" d="M943.8,-303.04C980.01,-306.6 1036.62,-316.32 1078.27,-343.33 1120.08,-370.83 1152.24,-418.66 1170.88,-451.43"/>
<path fill="none" stroke="transparent" d="M943.6,-305.03C979.67,-308.57 1036.28,-318.29 1077.17,-345 1118.42,-371.94 1150.58,-419.78 1169.14,-452.42"/>
<path fill="none" stroke="black" d="M943.41,-307.02C979.33,-310.54 1035.94,-320.26 1076.08,-346.67 1116.76,-373.06 1148.92,-420.9 1167.4,-453.41"/>
<polygon fill="black" stroke="black" points="1166.1,-454.15 1174.01,-461.19 1172.22,-450.75 1166.1,-454.15"/>
</g>
<!-- n4_port_2 -->
<g id="node45" class="node">
<title>n4_port_2</title>
<polygon fill="white" stroke="black" points="837.83,-208.67 907.67,-185.57 977.52,-208.67 977.45,-246.04 837.89,-246.04 837.83,-208.67"/>
<text text-anchor="middle" x="907.67" y="-222.8" font-family="Times,serif" font-size="14.00">vec_copy</text>
<text text-anchor="middle" x="907.67" y="-207.8" font-family="Times,serif" font-size="14.00">string</text>
</g>
<!-- n4_port_2&#45;&gt;n0_place_5 -->
<g id="edge17" class="edge">
<title>n4_port_2&#45;&gt;n0_place_5</title>
<path fill="none" stroke="black" d="M977.81,-219C1026.83,-219 1091.52,-219 1135.89,-219"/>
<polygon fill="black" stroke="black" points="1136.16,-222.5 1146.16,-219 1136.16,-215.5 1136.16,-222.5"/>
</g>
<!-- n4_modcall -->
<g id="node46" class="node">
<title>n4_modcall</title>
<polygon fill="white" stroke="black" points="998.67,-168 816.67,-168 816.67,-132 998.67,-132 998.67,-168"/>
<text text-anchor="middle" x="907.67" y="-146.3" font-family="Times,serif" font-size="14.00">feynman_module.iterat</text>
</g>
<!-- n5_condition -->
<g id="node47" class="node">
<title>n5_condition</title>
<polygon fill="white" stroke="black" points="373.71,-607 373.71,-643 431.71,-643 431.71,-607 373.71,-607"/>
<text text-anchor="middle" x="402.71" y="-621.3" font-family="Times,serif" font-size="14.00">initial</text>
</g>
<!-- n5_port_2 -->
<g id="node50" class="node">
<title>n5_port_2</title>
<polygon fill="white" stroke="black" points="368.54,-376.67 402.71,-353.57 436.89,-376.67 436.85,-414.04 368.57,-414.04 368.54,-376.67"/>
<text text-anchor="middle" x="402.71" y="-390.8" font-family="Times,serif" font-size="14.00">v</text>
<text text-anchor="middle" x="402.71" y="-375.8" font-family="Times,serif" font-size="14.00">list</text>
</g>
<!-- n5_port_2&#45;&gt;n0_place_3 -->
<g id="edge20" class="edge">
<title>n5_port_2&#45;&gt;n0_place_3</title>
<path fill="none" stroke="black" d="M437.06,-385C467.36,-385 513.14,-385 552.11,-385"/>
<path fill="none" stroke="transparent" d="M437.06,-387C467.36,-387 513.14,-387 552.11,-387"/>
<path fill="none" stroke="black" d="M437.06,-389C467.36,-389 513.14,-389 552.11,-389"/>
<polygon fill="black" stroke="black" points="552.37,-390.5 562.37,-387 552.37,-383.5 552.37,-390.5"/>
</g>
<!-- n5_modcall -->
<g id="node51" class="node">
<title>n5_modcall</title>
<polygon fill="white" stroke="black" points="508.71,-336 296.71,-336 296.71,-300 508.71,-300 508.71,-336"/>
<text text-anchor="middle" x="402.71" y="-314.3" font-family="Times,serif" font-size="14.00">feynman_module.gen_block</text>
</g>
</g>
</svg>
