<?xml version="1.0" encoding="UTF-8" standalone="no"?>
<!DOCTYPE svg PUBLIC "-//W3C//DTD SVG 1.1//EN"
 "http://www.w3.org/Graphics/SVG/1.1/DTD/svg11.dtd">
<!-- Generated by graphviz version 2.43.0 (0)
 -->
<!-- Title: feynman_deg Pages: 1 -->
<svg width="1551pt" height="1993pt"
 viewBox="0.00 0.00 1551.16 1993.00" xmlns="http://www.w3.org/2000/svg" xmlns:xlink="http://www.w3.org/1999/xlink">
<g id="graph0" class="graph" transform="scale(1 1) rotate(0) translate(4 1989)">
<title>feynman_deg</title>
<polygon fill="white" stroke="transparent" points="-4,4 -4,-1989 1547.16,-1989 1547.16,4 -4,4"/>
<g id="clust1" class="cluster">
<title>cluster_0</title>
<polygon fill="dimgray" stroke="black" points="8,-8 8,-1977 1535.16,-1977 1535.16,-8 8,-8"/>
</g>
<g id="clust2" class="cluster">
<title>cluster_net_0</title>
<polygon fill="white" stroke="black" points="159.37,-116 159.37,-1784 1527.16,-1784 1527.16,-116 159.37,-116"/>
</g>
<g id="clust3" class="cluster">
<title>cluster_1</title>
<polygon fill="yellow" stroke="black" points="738.17,-136 738.17,-832 958.7,-832 958.7,-136 738.17,-136"/>
</g>
<g id="clust4" class="cluster">
<title>cluster_2</title>
<polygon fill="yellow" stroke="black" points="1180.16,-1248 1180.16,-1776 1519.16,-1776 1519.16,-1248 1180.16,-1248"/>
</g>
<g id="clust5" class="cluster">
<title>cluster_3</title>
<polygon fill="yellow" stroke="black" points="741.94,-840 741.94,-1408 954.94,-1408 954.94,-840 741.94,-840"/>
</g>
<g id="clust6" class="cluster">
<title>cluster_4</title>
<polygon fill="yellow" stroke="black" points="749.44,-1416 749.44,-1776 947.44,-1776 947.44,-1416 749.44,-1416"/>
</g>
<g id="clust7" class="cluster">
<title>cluster_5</title>
<polygon fill="yellow" stroke="black" points="288.71,-1416 288.71,-1776 516.71,-1776 516.71,-1416 288.71,-1416"/>
</g>
<!-- n0_condition -->
<g id="node1" class="node">
<title>n0_condition</title>
<polygon fill="white" stroke="black" points="18.19,-1831 18.19,-1867 129.19,-1867 129.19,-1831 18.19,-1831"/>
<text text-anchor="middle" x="73.69" y="-1845.3" font-family="Times,serif" font-size="14.00">feynman_deg</text>
</g>
<!-- n0_port_0 -->
<g id="node2" class="node">
<title>n0_port_0</title>
<polygon fill="white" stroke="black" points="131.56,-1689.33 73.69,-1712.43 15.81,-1689.33 15.87,-1651.96 131.5,-1651.96 131.56,-1689.33"/>
<text text-anchor="middle" x="73.69" y="-1682.8" font-family="Times,serif" font-size="14.00">degree</text>
<text text-anchor="middle" x="73.69" y="-1667.8" font-family="Times,serif" font-size="14.00">int</text>
</g>
<!-- n0_place_0 -->
<g id="node8" class="node">
<title>n0_place_0</title>
<ellipse fill="white" stroke="black" cx="214.04" cy="-1679" rx="46.84" ry="26.74"/>
<text text-anchor="middle" x="214.04" y="-1682.8" font-family="Times,serif" font-size="14.00">degree</text>
<text text-anchor="middle" x="214.04" y="-1667.8" font-family="Times,serif" font-size="14.00">int</text>
</g>
<!-- n0_port_0&#45;&gt;n0_place_0 -->
<g id="edge24" class="edge">
<title>n0_port_0&#45;&gt;n0_place_0</title>
<path fill="none" stroke="black" stroke-dasharray="1,5" d="M131.76,-1679C143.52,-1679 155.76,-1679 167.07,-1679"/>
</g>
<!-- n0_port_1 -->
<g id="node3" class="node">
<title>n0_port_1</title>
<polygon fill="white" stroke="black" points="105.12,-1605.33 73.69,-1628.43 42.26,-1605.33 42.29,-1567.96 105.09,-1567.96 105.12,-1605.33"/>
<text text-anchor="middle" x="73.69" y="-1598.8" font-family="Times,serif" font-size="14.00">N</text>
<text text-anchor="middle" x="73.69" y="-1583.8" font-family="Times,serif" font-size="14.00">int</text>
</g>
<!-- n0_place_1 -->
<g id="node9" class="node">
<title>n0_place_1</title>
<ellipse fill="white" stroke="black" cx="214.04" cy="-1595" rx="27" ry="26.74"/>
<text text-anchor="middle" x="214.04" y="-1598.8" font-family="Times,serif" font-size="14.00">N</text>
<text text-anchor="middle" x="214.04" y="-1583.8" font-family="Times,serif" font-size="14.00">int</text>
</g>
<!-- n0_port_1&#45;&gt;n0_place_1 -->
<g id="edge25" class="edge">
<title>n0_port_1&#45;&gt;n0_place_1</title>
<path fill="none" stroke="black" stroke-dasharray="1,5" d="M105.39,-1595C129.75,-1595 163.45,-1595 186.62,-1595"/>
</g>
<!-- n0_port_2 -->
<g id="node4" class="node">
<title>n0_port_2</title>
<polygon fill="white" stroke="black" points="434.14,-1835.33 402.71,-1858.43 371.28,-1835.33 371.31,-1797.96 434.11,-1797.96 434.14,-1835.33"/>
<text text-anchor="middle" x="402.71" y="-1828.8" font-family="Times,serif" font-size="14.00">m</text>
<text text-anchor="middle" x="402.71" y="-1813.8" font-family="Times,serif" font-size="14.00">int</text>
</g>
<!-- n0_place_3 -->
<g id="node11" class="node">
<title>n0_place_3</title>
<ellipse fill="white" stroke="black" cx="627.44" cy="-1271" rx="27" ry="26.74"/>
<text text-anchor="middle" x="627.44" y="-1274.8" font-family="Times,serif" font-size="14.00">m</text>
<text text-anchor="middle" x="627.44" y="-1259.8" font-family="Times,serif" font-size="14.00">int</text>
</g>
<!-- n0_port_2&#45;&gt;n0_place_3 -->
<g id="edge26" class="edge">
<title>n0_port_2&#45;&gt;n0_place_3</title>
<path fill="none" stroke="black" stroke-dasharray="1,5" d="M434.26,-1821.41C460.43,-1816.63 496.93,-1805.54 516.71,-1780 547.02,-1740.86 534.81,-1607.5 544.71,-1559 564.82,-1460.46 601.22,-1346.34 617.8,-1296.5"/>
</g>
<!-- n0_port_4 -->
<g id="node5" class="node">
<title>n0_port_4</title>
<polygon fill="white" stroke="black" points="900.07,-1946.33 848.44,-1969.43 796.8,-1946.33 796.85,-1908.96 900.02,-1908.96 900.07,-1946.33"/>
<text text-anchor="middle" x="848.44" y="-1939.8" font-family="Times,serif" font-size="14.00">graph</text>
<text text-anchor="middle" x="848.44" y="-1924.8" font-family="Times,serif" font-size="14.00">list</text>
</g>
<!-- n0_place_9 -->
<g id="node17" class="node">
<title>n0_place_9</title>
<ellipse fill="white" stroke="black" cx="1069.43" cy="-1714" rx="41.94" ry="26.74"/>
<text text-anchor="middle" x="1069.43" y="-1717.8" font-family="Times,serif" font-size="14.00">graph</text>
<text text-anchor="middle" x="1069.43" y="-1702.8" font-family="Times,serif" font-size="14.00">list</text>
</g>
<!-- n0_port_4&#45;&gt;n0_place_9 -->
<g id="edge27" class="edge">
<title>n0_port_4&#45;&gt;n0_place_9</title>
<path fill="none" stroke="black" stroke-dasharray="1,5" d="M900.13,-1923.59C919.95,-1916.92 941.91,-1907.08 958.7,-1893 1009.25,-1850.6 1043.17,-1778.68 1058.71,-1740.17"/>
</g>
<!-- n0_port_3 -->
<g id="node6" class="node">
<title>n0_port_3</title>
<polygon fill="white" stroke="black" points="746.41,-1823.74 848.44,-1791.85 950.46,-1823.74 950.36,-1875.33 746.51,-1875.33 746.41,-1823.74"/>
<text text-anchor="middle" x="848.44" y="-1849.3" font-family="Times,serif" font-size="14.00">fey_sum</text>
<text text-anchor="middle" x="848.44" y="-1834.3" font-family="Times,serif" font-size="14.00">unsigned long</text>
<text text-anchor="middle" x="848.44" y="-1819.3" font-family="Times,serif" font-size="14.00">0UL</text>
</g>
<!-- n0_place_8 -->
<g id="node16" class="node">
<title>n0_place_8</title>
<ellipse fill="white" stroke="black" cx="1069.43" cy="-1595" rx="82.96" ry="37.45"/>
<text text-anchor="middle" x="1069.43" y="-1606.3" font-family="Times,serif" font-size="14.00">fey_sum</text>
<text text-anchor="middle" x="1069.43" y="-1591.3" font-family="Times,serif" font-size="14.00">unsigned long</text>
<text text-anchor="middle" x="1069.43" y="-1576.3" font-family="Times,serif" font-size="14.00">0UL</text>
</g>
<!-- n0_port_3&#45;&gt;n0_place_8 -->
<g id="edge28" class="edge">
<title>n0_port_3&#45;&gt;n0_place_8</title>
<path fill="none" stroke="black" stroke-dasharray="1,5" d="M916.99,-1813.09C932.52,-1804.63 947.69,-1793.74 958.7,-1780 988.09,-1743.31 963.22,-1718.73 986.7,-1678 997.4,-1659.43 1013.25,-1642 1028.15,-1627.96"/>
</g>
<!-- n0_port_5 -->
<g id="node7" class="node">
<title>n0_port_5</title>
<polygon fill="white" stroke="black" points="300.69,-47.74 402.71,-15.85 504.73,-47.74 504.64,-99.33 300.78,-99.33 300.69,-47.74"/>
<text text-anchor="middle" x="402.71" y="-73.3" font-family="Times,serif" font-size="14.00">sum</text>
<text text-anchor="middle" x="402.71" y="-58.3" font-family="Times,serif" font-size="14.00">unsigned long</text>
<text text-anchor="middle" x="402.71" y="-43.3" font-family="Times,serif" font-size="14.00">0UL</text>
</g>
<!-- n0_place_2 -->
<g id="node10" class="node">
<title>n0_place_2</title>
<ellipse fill="white" stroke="black" cx="627.44" cy="-483" rx="82.96" ry="37.45"/>
<text text-anchor="middle" x="627.44" y="-494.3" font-family="Times,serif" font-size="14.00">sum</text>
<text text-anchor="middle" x="627.44" y="-479.3" font-family="Times,serif" font-size="14.00">unsigned long</text>
<text text-anchor="middle" x="627.44" y="-464.3" font-family="Times,serif" font-size="14.00">0UL</text>
</g>
<!-- n0_port_5&#45;&gt;n0_place_2 -->
<g id="edge29" class="edge">
<title>n0_port_5&#45;&gt;n0_place_2</title>
<path fill="none" stroke="black" stroke-dasharray="1,5" d="M414.44,-99.49C433.96,-164 479.38,-298.62 544.71,-398 556.97,-416.65 573.61,-434.82 588.67,-449.55"/>
</g>
<!-- n5_port_0 -->
<g id="node49" class="node">
<title>n5_port_0</title>
<polygon fill="white" stroke="black" points="434.14,-1689.33 402.71,-1712.43 371.28,-1689.33 371.31,-1651.96 434.11,-1651.96 434.14,-1689.33"/>
<text text-anchor="middle" x="402.71" y="-1682.8" font-family="Times,serif" font-size="14.00">d</text>
<text text-anchor="middle" x="402.71" y="-1667.8" font-family="Times,serif" font-size="14.00">int</text>
</g>
<!-- n0_place_0&#45;&gt;n5_port_0 -->
<g id="edge22" class="edge">
<title>n0_place_0&#45;&gt;n5_port_0</title>
<path fill="none" stroke="black" d="M261.18,-1679C291.76,-1679 331.51,-1679 360.93,-1679"/>
<polygon fill="black" stroke="black" points="361.26,-1682.5 371.26,-1679 361.26,-1675.5 361.26,-1682.5"/>
</g>
<!-- n5_port_1 -->
<g id="node50" class="node">
<title>n5_port_1</title>
<polygon fill="white" stroke="black" points="434.14,-1605.33 402.71,-1628.43 371.28,-1605.33 371.31,-1567.96 434.11,-1567.96 434.14,-1605.33"/>
<text text-anchor="middle" x="402.71" y="-1598.8" font-family="Times,serif" font-size="14.00">n</text>
<text text-anchor="middle" x="402.71" y="-1583.8" font-family="Times,serif" font-size="14.00">int</text>
</g>
<!-- n0_place_1&#45;&gt;n5_port_1 -->
<g id="edge23" class="edge">
<title>n0_place_1&#45;&gt;n5_port_1</title>
<path fill="none" stroke="black" d="M241.39,-1595C272.49,-1595 324.56,-1595 360.89,-1595"/>
<polygon fill="black" stroke="black" points="361.16,-1598.5 371.16,-1595 361.16,-1591.5 361.16,-1598.5"/>
</g>
<!-- n1_port_2 -->
<g id="node22" class="node">
<title>n1_port_2</title>
<polygon fill="white" stroke="black" points="950.46,-493.33 848.44,-516.43 746.41,-493.33 746.51,-455.96 950.36,-455.96 950.46,-493.33"/>
<text text-anchor="middle" x="848.44" y="-486.8" font-family="Times,serif" font-size="14.00">sum</text>
<text text-anchor="middle" x="848.44" y="-471.8" font-family="Times,serif" font-size="14.00">unsigned long</text>
</g>
<!-- n0_place_2&#45;&gt;n1_port_2 -->
<g id="edge5" class="edge">
<title>n0_place_2&#45;&gt;n1_port_2</title>
<path fill="none" stroke="black" d="M710.3,-483C718.77,-483 727.47,-483 736.2,-483"/>
<polygon fill="black" stroke="black" points="736.43,-486.5 746.43,-483 736.43,-479.5 736.43,-486.5"/>
</g>
<!-- n1_port_6 -->
<g id="node24" class="node">
<title>n1_port_6</title>
<polygon fill="white" stroke="black" points="879.87,-745.33 848.44,-768.43 817,-745.33 817.03,-707.96 879.84,-707.96 879.87,-745.33"/>
<text text-anchor="middle" x="848.44" y="-738.8" font-family="Times,serif" font-size="14.00">m</text>
<text text-anchor="middle" x="848.44" y="-723.8" font-family="Times,serif" font-size="14.00">int</text>
</g>
<!-- n0_place_3&#45;&gt;n1_port_6 -->
<g id="edge7" class="edge">
<title>n0_place_3&#45;&gt;n1_port_6</title>
<path fill="none" stroke="black" stroke-dasharray="5,2" d="M634.95,-1244.89C649.28,-1187.06 684.34,-1043.77 710.17,-923 723.9,-858.82 696.23,-828.48 738.17,-778 755.2,-757.51 783.31,-746.74 806.75,-741.1"/>
<polygon fill="black" stroke="black" points="807.77,-744.46 816.8,-738.92 806.29,-737.62 807.77,-744.46"/>
</g>
<!-- n3_port_0 -->
<g id="node37" class="node">
<title>n3_port_0</title>
<polygon fill="white" stroke="black" points="879.87,-1281.33 848.44,-1304.43 817,-1281.33 817.03,-1243.96 879.84,-1243.96 879.87,-1281.33"/>
<text text-anchor="middle" x="848.44" y="-1274.8" font-family="Times,serif" font-size="14.00">m</text>
<text text-anchor="middle" x="848.44" y="-1259.8" font-family="Times,serif" font-size="14.00">int</text>
</g>
<!-- n0_place_3&#45;&gt;n3_port_0 -->
<g id="edge17" class="edge">
<title>n0_place_3&#45;&gt;n3_port_0</title>
<path fill="none" stroke="black" stroke-dasharray="5,2" d="M654.86,-1271C692.56,-1271 762.15,-1271 806.54,-1271"/>
<polygon fill="black" stroke="black" points="806.7,-1274.5 816.7,-1271 806.7,-1267.5 806.7,-1274.5"/>
</g>
<!-- n0_place_4 -->
<g id="node12" class="node">
<title>n0_place_4</title>
<ellipse fill="white" stroke="black" cx="627.44" cy="-1595" rx="65.11" ry="26.74"/>
<text text-anchor="middle" x="627.44" y="-1598.8" font-family="Times,serif" font-size="14.00">init_vector</text>
<text text-anchor="middle" x="627.44" y="-1583.8" font-family="Times,serif" font-size="14.00">list</text>
</g>
<!-- n4_port_0 -->
<g id="node44" class="node">
<title>n4_port_0</title>
<polygon fill="white" stroke="black" points="882.61,-1689.33 848.44,-1712.43 814.26,-1689.33 814.29,-1651.96 882.58,-1651.96 882.61,-1689.33"/>
<text text-anchor="middle" x="848.44" y="-1682.8" font-family="Times,serif" font-size="14.00">v</text>
<text text-anchor="middle" x="848.44" y="-1667.8" font-family="Times,serif" font-size="14.00">list</text>
</g>
<!-- n0_place_4&#45;&gt;n4_port_0 -->
<g id="edge20" class="edge">
<title>n0_place_4&#45;&gt;n4_port_0</title>
<path fill="none" stroke="black" d="M675.69,-1613.12C714.01,-1627.82 767.56,-1648.36 804.64,-1662.58"/>
<polygon fill="black" stroke="black" points="803.57,-1665.92 814.16,-1666.24 806.07,-1659.39 803.57,-1665.92"/>
</g>
<!-- n0_place_5 -->
<g id="node13" class="node">
<title>n0_place_5</title>
<ellipse fill="white" stroke="black" cx="1069.43" cy="-1427" rx="48.58" ry="26.74"/>
<text text-anchor="middle" x="1069.43" y="-1430.8" font-family="Times,serif" font-size="14.00">vectors</text>
<text text-anchor="middle" x="1069.43" y="-1415.8" font-family="Times,serif" font-size="14.00">string</text>
</g>
<!-- n2_port_0 -->
<g id="node30" class="node">
<title>n2_port_0</title>
<polygon fill="white" stroke="black" points="1414.52,-1437.33 1349.66,-1460.43 1284.8,-1437.33 1284.86,-1399.96 1414.46,-1399.96 1414.52,-1437.33"/>
<text text-anchor="middle" x="1349.66" y="-1430.8" font-family="Times,serif" font-size="14.00">branchs</text>
<text text-anchor="middle" x="1349.66" y="-1415.8" font-family="Times,serif" font-size="14.00">string</text>
</g>
<!-- n0_place_5&#45;&gt;n2_port_0 -->
<g id="edge11" class="edge">
<title>n0_place_5&#45;&gt;n2_port_0</title>
<path fill="none" stroke="black" d="M1118.26,-1427C1161.28,-1427 1225.17,-1427 1274.76,-1427"/>
<polygon fill="black" stroke="black" points="1274.8,-1430.5 1284.8,-1427 1274.8,-1423.5 1274.8,-1430.5"/>
</g>
<!-- n0_place_6 -->
<g id="node14" class="node">
<title>n0_place_6</title>
<ellipse fill="white" stroke="black" cx="627.44" cy="-352" rx="35.21" ry="37.45"/>
<text text-anchor="middle" x="627.44" y="-363.3" font-family="Times,serif" font-size="14.00">limit</text>
<text text-anchor="middle" x="627.44" y="-348.3" font-family="Times,serif" font-size="14.00">int</text>
<text text-anchor="middle" x="627.44" y="-333.3" font-family="Times,serif" font-size="14.00">0</text>
</g>
<!-- n1_port_4 -->
<g id="node23" class="node">
<title>n1_port_4</title>
<polygon fill="white" stroke="black" points="892.34,-409.33 848.44,-432.43 804.53,-409.33 804.57,-371.96 892.3,-371.96 892.34,-409.33"/>
<text text-anchor="middle" x="848.44" y="-402.8" font-family="Times,serif" font-size="14.00">limit</text>
<text text-anchor="middle" x="848.44" y="-387.8" font-family="Times,serif" font-size="14.00">int</text>
</g>
<!-- n0_place_6&#45;&gt;n1_port_4 -->
<g id="edge4" class="edge">
<title>n0_place_6&#45;&gt;n1_port_4</title>
<path fill="none" stroke="black" d="M662.18,-359.24C697.54,-366.83 753.57,-378.85 794.76,-387.69"/>
<polygon fill="black" stroke="black" points="794.11,-391.14 804.62,-389.81 795.58,-384.29 794.11,-391.14"/>
</g>
<!-- n0_place_7 -->
<g id="node15" class="node">
<title>n0_place_7</title>
<ellipse fill="white" stroke="black" cx="1069.43" cy="-1019" rx="41.94" ry="26.74"/>
<text text-anchor="middle" x="1069.43" y="-1022.8" font-family="Times,serif" font-size="14.00">state</text>
<text text-anchor="middle" x="1069.43" y="-1007.8" font-family="Times,serif" font-size="14.00">string</text>
</g>
<!-- n3_port_1 -->
<g id="node38" class="node">
<title>n3_port_1</title>
<polygon fill="white" stroke="black" points="900.07,-1029.33 848.44,-1052.43 796.8,-1029.33 796.85,-991.96 900.02,-991.96 900.07,-1029.33"/>
<text text-anchor="middle" x="848.44" y="-1022.8" font-family="Times,serif" font-size="14.00">v</text>
<text text-anchor="middle" x="848.44" y="-1007.8" font-family="Times,serif" font-size="14.00">string</text>
</g>
<!-- n0_place_7&#45;&gt;n3_port_1 -->
<g id="edge15" class="edge">
<title>n0_place_7&#45;&gt;n3_port_1</title>
<path fill="none" stroke="black" d="M1027.43,-1019C994.51,-1019 947.8,-1019 910.48,-1019"/>
<polygon fill="black" stroke="black" points="910.23,-1015.5 900.23,-1019 910.23,-1022.5 910.23,-1015.5"/>
</g>
<!-- n2_port_2 -->
<g id="node32" class="node">
<title>n2_port_2</title>
<polygon fill="white" stroke="black" points="1451.68,-1521.33 1349.66,-1544.43 1247.64,-1521.33 1247.73,-1483.96 1451.59,-1483.96 1451.68,-1521.33"/>
<text text-anchor="middle" x="1349.66" y="-1514.8" font-family="Times,serif" font-size="14.00">fey_sum</text>
<text text-anchor="middle" x="1349.66" y="-1499.8" font-family="Times,serif" font-size="14.00">unsigned long</text>
</g>
<!-- n0_place_8&#45;&gt;n2_port_2 -->
<g id="edge10" class="edge">
<title>n0_place_8&#45;&gt;n2_port_2</title>
<path fill="none" stroke="black" d="M1131.48,-1570.13C1147.21,-1564.14 1164.2,-1558.02 1180.16,-1553 1207.31,-1544.46 1237.35,-1536.5 1264.46,-1529.86"/>
<polygon fill="black" stroke="black" points="1265.4,-1533.24 1274.3,-1527.48 1263.76,-1526.43 1265.4,-1533.24"/>
</g>
<!-- n2_port_1 -->
<g id="node31" class="node">
<title>n2_port_1</title>
<polygon fill="white" stroke="black" points="1383.83,-1689.33 1349.66,-1712.43 1315.49,-1689.33 1315.52,-1651.96 1383.8,-1651.96 1383.83,-1689.33"/>
<text text-anchor="middle" x="1349.66" y="-1682.8" font-family="Times,serif" font-size="14.00">G</text>
<text text-anchor="middle" x="1349.66" y="-1667.8" font-family="Times,serif" font-size="14.00">list</text>
</g>
<!-- n0_place_9&#45;&gt;n2_port_1 -->
<g id="edge12" class="edge">
<title>n0_place_9&#45;&gt;n2_port_1</title>
<path fill="none" stroke="black" stroke-dasharray="5,2" d="M1110.59,-1708.95C1162.37,-1702.43 1252.06,-1691.15 1305.33,-1684.45"/>
<polygon fill="black" stroke="black" points="1306,-1687.89 1315.48,-1683.17 1305.12,-1680.95 1306,-1687.89"/>
</g>
<!-- n0_place_10 -->
<g id="node18" class="node">
<title>n0_place_10</title>
<ellipse fill="white" stroke="black" cx="627.44" cy="-191" rx="82.96" ry="26.74"/>
<text text-anchor="middle" x="627.44" y="-194.8" font-family="Times,serif" font-size="14.00">fey_out</text>
<text text-anchor="middle" x="627.44" y="-179.8" font-family="Times,serif" font-size="14.00">unsigned long</text>
</g>
<!-- n1_port_0 -->
<g id="node21" class="node">
<title>n1_port_0</title>
<polygon fill="white" stroke="black" points="950.46,-241.33 848.44,-264.43 746.41,-241.33 746.51,-203.96 950.36,-203.96 950.46,-241.33"/>
<text text-anchor="middle" x="848.44" y="-234.8" font-family="Times,serif" font-size="14.00">s</text>
<text text-anchor="middle" x="848.44" y="-219.8" font-family="Times,serif" font-size="14.00">unsigned long</text>
</g>
<!-- n0_place_10&#45;&gt;n1_port_0 -->
<g id="edge6" class="edge">
<title>n0_place_10&#45;&gt;n1_port_0</title>
<path fill="none" stroke="black" d="M699.85,-204.04C711.57,-206.18 723.95,-208.45 736.36,-210.71"/>
<polygon fill="black" stroke="black" points="735.85,-214.18 746.31,-212.53 737.1,-207.29 735.85,-214.18"/>
</g>
<!-- n0_place_11 -->
<g id="node19" class="node">
<title>n0_place_11</title>
<ellipse fill="white" stroke="black" cx="627.44" cy="-877" rx="50.41" ry="37.45"/>
<text text-anchor="middle" x="627.44" y="-888.3" font-family="Times,serif" font-size="14.00">counter</text>
<text text-anchor="middle" x="627.44" y="-873.3" font-family="Times,serif" font-size="14.00">int</text>
<text text-anchor="middle" x="627.44" y="-858.3" font-family="Times,serif" font-size="14.00">3</text>
</g>
<!-- n3_port_4 -->
<g id="node39" class="node">
<title>n3_port_4</title>
<polygon fill="white" stroke="black" points="910.55,-1113.33 848.44,-1136.43 786.32,-1113.33 786.38,-1075.96 910.49,-1075.96 910.55,-1113.33"/>
<text text-anchor="middle" x="848.44" y="-1106.8" font-family="Times,serif" font-size="14.00">counter</text>
<text text-anchor="middle" x="848.44" y="-1091.8" font-family="Times,serif" font-size="14.00">int</text>
</g>
<!-- n0_place_11&#45;&gt;n3_port_4 -->
<g id="edge16" class="edge">
<title>n0_place_11&#45;&gt;n3_port_4</title>
<path fill="none" stroke="black" d="M641.48,-913.01C658.06,-954.08 690.38,-1020.74 738.17,-1061 749.41,-1070.47 763.02,-1077.94 776.76,-1083.78"/>
<polygon fill="black" stroke="black" points="775.68,-1087.12 786.27,-1087.58 778.28,-1080.62 775.68,-1087.12"/>
</g>
<!-- n1_condition -->
<g id="node20" class="node">
<title>n1_condition</title>
<polygon fill="white" stroke="black" points="813.94,-787 813.94,-823 882.94,-823 882.94,-787 813.94,-787"/>
<text text-anchor="middle" x="848.44" y="-801.3" font-family="Times,serif" font-size="14.00">Reduce</text>
</g>
<!-- n1_port_1 -->
<g id="node25" class="node">
<title>n1_port_1</title>
<polygon fill="white" stroke="black" points="786.32,-640.67 848.44,-617.57 910.55,-640.67 910.49,-678.04 786.38,-678.04 786.32,-640.67"/>
<text text-anchor="middle" x="848.44" y="-654.8" font-family="Times,serif" font-size="14.00">counter</text>
<text text-anchor="middle" x="848.44" y="-639.8" font-family="Times,serif" font-size="14.00">int</text>
</g>
<!-- n1_port_1&#45;&gt;n0_place_11 -->
<g id="edge3" class="edge">
<title>n1_port_1&#45;&gt;n0_place_11</title>
<path fill="none" stroke="black" d="M786.27,-666.42C769.43,-672.72 752.01,-681.35 738.17,-693 693.84,-730.35 662.81,-790.42 645.32,-831.71"/>
<polygon fill="black" stroke="black" points="642.07,-830.41 641.48,-840.99 648.54,-833.09 642.07,-830.41"/>
</g>
<!-- n1_port_3 -->
<g id="node26" class="node">
<title>n1_port_3</title>
<polygon fill="white" stroke="black" points="746.41,-556.67 848.44,-533.57 950.46,-556.67 950.36,-594.04 746.51,-594.04 746.41,-556.67"/>
<text text-anchor="middle" x="848.44" y="-570.8" font-family="Times,serif" font-size="14.00">sum</text>
<text text-anchor="middle" x="848.44" y="-555.8" font-family="Times,serif" font-size="14.00">unsigned long</text>
</g>
<!-- n1_port_3&#45;&gt;n0_place_2 -->
<g id="edge2" class="edge">
<title>n1_port_3&#45;&gt;n0_place_2</title>
<path fill="none" stroke="black" d="M792.86,-546.06C765.02,-535.39 730.78,-522.26 700.78,-510.75"/>
<polygon fill="black" stroke="black" points="701.79,-507.38 691.2,-507.07 699.28,-513.92 701.79,-507.38"/>
</g>
<!-- n1_port_5 -->
<g id="node27" class="node">
<title>n1_port_5</title>
<polygon fill="white" stroke="black" points="804.53,-304.67 848.44,-281.57 892.34,-304.67 892.3,-342.04 804.57,-342.04 804.53,-304.67"/>
<text text-anchor="middle" x="848.44" y="-318.8" font-family="Times,serif" font-size="14.00">limit</text>
<text text-anchor="middle" x="848.44" y="-303.8" font-family="Times,serif" font-size="14.00">int</text>
</g>
<!-- n1_port_5&#45;&gt;n0_place_6 -->
<g id="edge1" class="edge">
<title>n1_port_5&#45;&gt;n0_place_6</title>
<path fill="none" stroke="black" d="M804.43,-322.27C766.33,-328.7 710.95,-338.06 672.53,-344.55"/>
<polygon fill="black" stroke="black" points="671.94,-341.1 662.66,-346.22 673.1,-348 671.94,-341.1"/>
</g>
<!-- n1_modcall -->
<g id="node28" class="node">
<title>n1_modcall</title>
<polygon fill="white" stroke="black" points="934.44,-180 762.44,-180 762.44,-144 934.44,-144 934.44,-180"/>
<text text-anchor="middle" x="848.44" y="-158.3" font-family="Times,serif" font-size="14.00">feynman_module.plus</text>
</g>
<!-- n2_condition -->
<g id="node29" class="node">
<title>n2_condition</title>
<polygon fill="white" stroke="black" points="1282.66,-1731 1282.66,-1767 1416.66,-1767 1416.66,-1731 1282.66,-1731"/>
<text text-anchor="middle" x="1349.66" y="-1745.3" font-family="Times,serif" font-size="14.00">feynman_degree</text>
</g>
<!-- n2_port_3 -->
<g id="node33" class="node">
<title>n2_port_3</title>
<polygon fill="white" stroke="black" points="1247.64,-1584.67 1349.66,-1561.57 1451.68,-1584.67 1451.59,-1622.04 1247.73,-1622.04 1247.64,-1584.67"/>
<text text-anchor="middle" x="1349.66" y="-1598.8" font-family="Times,serif" font-size="14.00">fey_sum</text>
<text text-anchor="middle" x="1349.66" y="-1583.8" font-family="Times,serif" font-size="14.00">unsigned long</text>
</g>
<!-- n2_port_3&#45;&gt;n0_place_8 -->
<g id="edge9" class="edge">
<title>n2_port_3&#45;&gt;n0_place_8</title>
<path fill="none" stroke="black" d="M1247.55,-1595C1219.81,-1595 1189.9,-1595 1162.69,-1595"/>
<polygon fill="black" stroke="black" points="1162.4,-1591.5 1152.4,-1595 1162.4,-1598.5 1162.4,-1591.5"/>
</g>
<!-- n2_port_4 -->
<g id="node34" class="node">
<title>n2_port_4</title>
<polygon fill="white" stroke="black" points="1247.64,-1332.67 1349.66,-1309.57 1451.68,-1332.67 1451.59,-1370.04 1247.73,-1370.04 1247.64,-1332.67"/>
<text text-anchor="middle" x="1349.66" y="-1346.8" font-family="Times,serif" font-size="14.00">s</text>
<text text-anchor="middle" x="1349.66" y="-1331.8" font-family="Times,serif" font-size="14.00">unsigned long</text>
</g>
<!-- n2_port_4&#45;&gt;n0_place_10 -->
<g id="edge8" class="edge">
<title>n2_port_4&#45;&gt;n0_place_10</title>
<path fill="none" stroke="black" d="M1247.59,-1338.32C1222.12,-1332.18 1197.2,-1320.94 1180.16,-1301 1134.07,-1247.07 1163.16,-1053.08 1152.16,-983 1092.02,-599.82 1261.84,-373.97 958.7,-132 876.14,-66.11 744.81,-123.18 675.24,-162.07"/>
<polygon fill="black" stroke="black" points="673.22,-159.2 666.26,-167.19 676.68,-165.28 673.22,-159.2"/>
</g>
<!-- n2_modcall -->
<g id="node35" class="node">
<title>n2_modcall</title>
<polygon fill="white" stroke="black" points="1511.16,-1292 1188.16,-1292 1188.16,-1256 1511.16,-1256 1511.16,-1292"/>
<text text-anchor="middle" x="1349.66" y="-1270.3" font-family="Times,serif" font-size="14.00">feynman_module.feynman_integral_degree</text>
</g>
<!-- n3_condition -->
<g id="node36" class="node">
<title>n3_condition</title>
<polygon fill="white" stroke="black" points="776.44,-1322.5 776.44,-1399.5 920.44,-1399.5 920.44,-1322.5 776.44,-1322.5"/>
<text text-anchor="middle" x="848.44" y="-1384.3" font-family="Times,serif" font-size="14.00">next_partitions</text>
<polyline fill="none" stroke="black" points="776.44,-1376.5 920.44,-1376.5 "/>
<text text-anchor="middle" x="848.44" y="-1361.3" font-family="Times,serif" font-size="14.00">((${v} != &quot;stop&quot;) </text>
<text text-anchor="middle" x="848.44" y="-1346.3" font-family="Times,serif" font-size="14.00">(${counter} &gt; 0))</text>
</g>
<!-- n3_port_2 -->
<g id="node40" class="node">
<title>n3_port_2</title>
<polygon fill="white" stroke="black" points="812.76,-1176.67 848.44,-1153.57 884.11,-1176.67 884.07,-1214.04 812.8,-1214.04 812.76,-1176.67"/>
<text text-anchor="middle" x="848.44" y="-1190.8" font-family="Times,serif" font-size="14.00">vec</text>
<text text-anchor="middle" x="848.44" y="-1175.8" font-family="Times,serif" font-size="14.00">list</text>
</g>
<!-- n3_port_2&#45;&gt;n0_place_5 -->
<g id="edge14" class="edge">
<title>n3_port_2&#45;&gt;n0_place_5</title>
<path fill="none" stroke="black" d="M884.69,-1191.88C908.11,-1197.95 938.21,-1208.71 960.01,-1227.49 1011.29,-1272.35 1043.23,-1345.98 1058.87,-1390.06"/>
<path fill="none" stroke="transparent" d="M884.19,-1193.81C907.44,-1199.83 937.54,-1210.6 958.7,-1229 1009.45,-1273.15 1041.39,-1346.78 1056.99,-1390.73"/>
<path fill="none" stroke="black" d="M883.69,-1195.75C906.77,-1201.71 936.86,-1212.48 957.38,-1230.51 1007.62,-1273.94 1039.56,-1347.57 1055.1,-1391.39"/>
<polygon fill="black" stroke="black" points="1053.76,-1392.12 1060.33,-1400.43 1060.38,-1389.83 1053.76,-1392.12"/>
</g>
<!-- n3_port_3 -->
<g id="node41" class="node">
<title>n3_port_3</title>
<polygon fill="white" stroke="black" points="778.59,-924.67 848.44,-901.57 918.28,-924.67 918.22,-962.04 778.66,-962.04 778.59,-924.67"/>
<text text-anchor="middle" x="848.44" y="-938.8" font-family="Times,serif" font-size="14.00">vec_copy</text>
<text text-anchor="middle" x="848.44" y="-923.8" font-family="Times,serif" font-size="14.00">string</text>
</g>
<!-- n3_port_3&#45;&gt;n0_place_7 -->
<g id="edge13" class="edge">
<title>n3_port_3&#45;&gt;n0_place_7</title>
<path fill="none" stroke="black" d="M918.43,-961.46C952.82,-974.65 993.41,-990.23 1023.7,-1001.84"/>
<polygon fill="black" stroke="black" points="1022.55,-1005.15 1033.14,-1005.47 1025.06,-998.62 1022.55,-1005.15"/>
</g>
<!-- n3_modcall -->
<g id="node42" class="node">
<title>n3_modcall</title>
<polygon fill="white" stroke="black" points="946.94,-884 749.94,-884 749.94,-848 946.94,-848 946.94,-884"/>
<text text-anchor="middle" x="848.44" y="-862.3" font-family="Times,serif" font-size="14.00">feynman_module.iterator</text>
</g>
<!-- n4_condition -->
<g id="node43" class="node">
<title>n4_condition</title>
<polygon fill="white" stroke="black" points="771.94,-1731 771.94,-1767 924.94,-1767 924.94,-1731 771.94,-1731"/>
<text text-anchor="middle" x="848.44" y="-1745.3" font-family="Times,serif" font-size="14.00">first_next_partition</text>
</g>
<!-- n4_port_1 -->
<g id="node45" class="node">
<title>n4_port_1</title>
<polygon fill="white" stroke="black" points="812.76,-1584.67 848.44,-1561.57 884.11,-1584.67 884.07,-1622.04 812.8,-1622.04 812.76,-1584.67"/>
<text text-anchor="middle" x="848.44" y="-1598.8" font-family="Times,serif" font-size="14.00">vec</text>
<text text-anchor="middle" x="848.44" y="-1583.8" font-family="Times,serif" font-size="14.00">list</text>
</g>
<!-- n4_port_1&#45;&gt;n0_place_5 -->
<g id="edge19" class="edge">
<title>n4_port_1&#45;&gt;n0_place_5</title>
<path fill="none" stroke="black" d="M883.7,-1584.42C906.15,-1577.76 935.44,-1566.91 957.55,-1551.36 993,-1526.65 1024.71,-1487.36 1044.63,-1459.43"/>
<path fill="none" stroke="transparent" d="M884.27,-1586.34C906.85,-1579.63 936.14,-1568.79 958.7,-1553 994.56,-1527.9 1026.27,-1488.62 1046.26,-1460.59"/>
<path fill="none" stroke="black" d="M884.84,-1588.26C907.54,-1581.51 936.83,-1570.66 959.84,-1554.64 996.11,-1529.16 1027.82,-1489.87 1047.89,-1461.75"/>
<polygon fill="black" stroke="black" points="1049.21,-1462.48 1052.08,-1452.28 1043.48,-1458.46 1049.21,-1462.48"/>
</g>
<!-- n4_port_2 -->
<g id="node46" class="node">
<title>n4_port_2</title>
<polygon fill="white" stroke="black" points="778.59,-1500.67 848.44,-1477.57 918.28,-1500.67 918.22,-1538.04 778.66,-1538.04 778.59,-1500.67"/>
<text text-anchor="middle" x="848.44" y="-1514.8" font-family="Times,serif" font-size="14.00">vec_copy</text>
<text text-anchor="middle" x="848.44" y="-1499.8" font-family="Times,serif" font-size="14.00">string</text>
</g>
<!-- n4_port_2&#45;&gt;n0_place_7 -->
<g id="edge18" class="edge">
<title>n4_port_2&#45;&gt;n0_place_7</title>
<path fill="none" stroke="black" d="M911.87,-1498.45C929.14,-1492.21 946.48,-1482.89 958.7,-1469 972.66,-1453.13 1037.7,-1159.8 1060.5,-1055.46"/>
<polygon fill="black" stroke="black" points="1063.93,-1056.2 1062.64,-1045.68 1057.09,-1054.71 1063.93,-1056.2"/>
</g>
<!-- n4_modcall -->
<g id="node47" class="node">
<title>n4_modcall</title>
<polygon fill="white" stroke="black" points="939.44,-1460 757.44,-1460 757.44,-1424 939.44,-1424 939.44,-1460"/>
<text text-anchor="middle" x="848.44" y="-1438.3" font-family="Times,serif" font-size="14.00">feynman_module.iterat</text>
</g>
<!-- n5_condition -->
<g id="node48" class="node">
<title>n5_condition</title>
<polygon fill="white" stroke="black" points="373.71,-1731 373.71,-1767 431.71,-1767 431.71,-1731 373.71,-1731"/>
<text text-anchor="middle" x="402.71" y="-1745.3" font-family="Times,serif" font-size="14.00">initial</text>
</g>
<!-- n5_port_2 -->
<g id="node51" class="node">
<title>n5_port_2</title>
<polygon fill="white" stroke="black" points="368.54,-1500.67 402.71,-1477.57 436.89,-1500.67 436.85,-1538.04 368.57,-1538.04 368.54,-1500.67"/>
<text text-anchor="middle" x="402.71" y="-1514.8" font-family="Times,serif" font-size="14.00">v</text>
<text text-anchor="middle" x="402.71" y="-1499.8" font-family="Times,serif" font-size="14.00">list</text>
</g>
<!-- n5_port_2&#45;&gt;n0_place_4 -->
<g id="edge21" class="edge">
<title>n5_port_2&#45;&gt;n0_place_4</title>
<path fill="none" stroke="black" d="M437.56,-1521.35C460.1,-1529.69 490.58,-1541.01 517.42,-1551.13 534.57,-1557.6 553.21,-1564.7 570.17,-1571.2"/>
<path fill="none" stroke="transparent" d="M436.87,-1523.23C459.41,-1531.56 489.88,-1542.88 516.71,-1553 533.86,-1559.47 552.49,-1566.57 569.45,-1573.07"/>
<path fill="none" stroke="black" d="M436.18,-1525.1C458.71,-1533.44 489.19,-1544.76 516,-1554.87 533.15,-1561.34 551.78,-1568.44 568.74,-1574.93"/>
<polygon fill="black" stroke="black" points="568.63,-1576.5 579.22,-1576.81 571.13,-1569.96 568.63,-1576.5"/>
</g>
<!-- n5_modcall -->
<g id="node52" class="node">
<title>n5_modcall</title>
<polygon fill="white" stroke="black" points="508.71,-1460 296.71,-1460 296.71,-1424 508.71,-1424 508.71,-1460"/>
<text text-anchor="middle" x="402.71" y="-1438.3" font-family="Times,serif" font-size="14.00">feynman_module.gen_block</text>
</g>
</g>
</svg>
