<?xml version="1.0" encoding="UTF-8" standalone="no"?>
<!DOCTYPE svg PUBLIC "-//W3C//DTD SVG 1.1//EN"
 "http://www.w3.org/Graphics/SVG/1.1/DTD/svg11.dtd">
<!-- Generated by graphviz version 2.43.0 (0)
 -->
<!-- Title: feynman_deg Pages: 1 -->
<svg width="2413pt" height="602pt"
 viewBox="0.00 0.00 2412.94 602.00" xmlns="http://www.w3.org/2000/svg" xmlns:xlink="http://www.w3.org/1999/xlink">
<g id="graph0" class="graph" transform="scale(1 1) rotate(0) translate(4 598)">
<title>feynman_deg</title>
<polygon fill="white" stroke="transparent" points="-4,4 -4,-598 2408.94,-598 2408.94,4 -4,4"/>
<g id="clust1" class="cluster">
<title>cluster_0</title>
<polygon fill="dimgray" stroke="black" points="8,-8 8,-586 2396.94,-586 2396.94,-8 8,-8"/>
</g>
<g id="clust2" class="cluster">
<title>cluster_net_0</title>
<polygon fill="white" stroke="black" points="159.37,-116 159.37,-504 2388.94,-504 2388.94,-116 159.37,-116"/>
</g>
<g id="clust3" class="cluster">
<title>cluster_1</title>
<polygon fill="yellow" stroke="black" points="2160.41,-124 2160.41,-484 2380.94,-484 2380.94,-124 2160.41,-124"/>
</g>
<g id="clust4" class="cluster">
<title>cluster_2</title>
<polygon fill="yellow" stroke="black" points="1599.95,-136 1599.95,-496 1938.95,-496 1938.95,-136 1599.95,-136"/>
</g>
<g id="clust5" class="cluster">
<title>cluster_3</title>
<polygon fill="yellow" stroke="black" points="1100.51,-124 1100.51,-484 1460.51,-484 1460.51,-124 1100.51,-124"/>
</g>
<g id="clust6" class="cluster">
<title>cluster_4</title>
<polygon fill="yellow" stroke="black" points="685.92,-166 685.92,-442 905.92,-442 905.92,-166 685.92,-166"/>
</g>
<g id="clust7" class="cluster">
<title>cluster_5</title>
<polygon fill="yellow" stroke="black" points="288.71,-136 288.71,-496 509.71,-496 509.71,-136 288.71,-136"/>
</g>
<!-- n0_condition -->
<g id="node1" class="node">
<title>n0_condition</title>
<polygon fill="white" stroke="black" points="18.19,-496 18.19,-532 129.19,-532 129.19,-496 18.19,-496"/>
<text text-anchor="middle" x="73.69" y="-510.3" font-family="Times,serif" font-size="14.00">feynman_deg</text>
</g>
<!-- n0_port_0 -->
<g id="node2" class="node">
<title>n0_port_0</title>
<polygon fill="white" stroke="black" points="131.56,-409.33 73.69,-432.43 15.81,-409.33 15.87,-371.96 131.5,-371.96 131.56,-409.33"/>
<text text-anchor="middle" x="73.69" y="-402.8" font-family="Times,serif" font-size="14.00">degree</text>
<text text-anchor="middle" x="73.69" y="-387.8" font-family="Times,serif" font-size="14.00">int</text>
</g>
<!-- n0_place_0 -->
<g id="node6" class="node">
<title>n0_place_0</title>
<ellipse fill="white" stroke="black" cx="214.04" cy="-399" rx="46.84" ry="26.74"/>
<text text-anchor="middle" x="214.04" y="-402.8" font-family="Times,serif" font-size="14.00">degree</text>
<text text-anchor="middle" x="214.04" y="-387.8" font-family="Times,serif" font-size="14.00">int</text>
</g>
<!-- n0_port_0&#45;&gt;n0_place_0 -->
<g id="edge15" class="edge">
<title>n0_port_0&#45;&gt;n0_place_0</title>
<path fill="none" stroke="black" stroke-dasharray="1,5" d="M131.76,-399C143.52,-399 155.76,-399 167.07,-399"/>
</g>
<!-- n0_port_1 -->
<g id="node3" class="node">
<title>n0_port_1</title>
<polygon fill="white" stroke="black" points="105.12,-325.33 73.69,-348.43 42.26,-325.33 42.29,-287.96 105.09,-287.96 105.12,-325.33"/>
<text text-anchor="middle" x="73.69" y="-318.8" font-family="Times,serif" font-size="14.00">N</text>
<text text-anchor="middle" x="73.69" y="-303.8" font-family="Times,serif" font-size="14.00">int</text>
</g>
<!-- n0_place_1 -->
<g id="node7" class="node">
<title>n0_place_1</title>
<ellipse fill="white" stroke="black" cx="214.04" cy="-315" rx="27" ry="26.74"/>
<text text-anchor="middle" x="214.04" y="-318.8" font-family="Times,serif" font-size="14.00">N</text>
<text text-anchor="middle" x="214.04" y="-303.8" font-family="Times,serif" font-size="14.00">int</text>
</g>
<!-- n0_port_1&#45;&gt;n0_place_1 -->
<g id="edge16" class="edge">
<title>n0_port_1&#45;&gt;n0_place_1</title>
<path fill="none" stroke="black" stroke-dasharray="1,5" d="M105.39,-315C129.75,-315 163.45,-315 186.62,-315"/>
</g>
<!-- n0_port_2 -->
<g id="node4" class="node">
<title>n0_port_2</title>
<polygon fill="white" stroke="black" points="847.55,-555.33 795.92,-578.43 744.28,-555.33 744.33,-517.96 847.51,-517.96 847.55,-555.33"/>
<text text-anchor="middle" x="795.92" y="-548.8" font-family="Times,serif" font-size="14.00">graph</text>
<text text-anchor="middle" x="795.92" y="-533.8" font-family="Times,serif" font-size="14.00">string</text>
</g>
<!-- n0_place_7 -->
<g id="node13" class="node">
<title>n0_place_7</title>
<ellipse fill="white" stroke="black" cx="1003.21" cy="-469" rx="41.94" ry="26.74"/>
<text text-anchor="middle" x="1003.21" y="-472.8" font-family="Times,serif" font-size="14.00">graph</text>
<text text-anchor="middle" x="1003.21" y="-457.8" font-family="Times,serif" font-size="14.00">string</text>
</g>
<!-- n0_port_2&#45;&gt;n0_place_7 -->
<g id="edge17" class="edge">
<title>n0_port_2&#45;&gt;n0_place_7</title>
<path fill="none" stroke="black" stroke-dasharray="1,5" d="M847.67,-526.21C884.59,-512.54 933.68,-494.37 966.53,-482.21"/>
</g>
<!-- n0_port_3 -->
<g id="node5" class="node">
<title>n0_port_3</title>
<polygon fill="white" stroke="black" points="1667.43,-47.74 1769.45,-15.85 1871.47,-47.74 1871.38,-99.33 1667.52,-99.33 1667.43,-47.74"/>
<text text-anchor="middle" x="1769.45" y="-73.3" font-family="Times,serif" font-size="14.00">sum</text>
<text text-anchor="middle" x="1769.45" y="-58.3" font-family="Times,serif" font-size="14.00">unsigned long</text>
<text text-anchor="middle" x="1769.45" y="-43.3" font-family="Times,serif" font-size="14.00">0UL</text>
</g>
<!-- n0_place_3 -->
<g id="node9" class="node">
<title>n0_place_3</title>
<ellipse fill="white" stroke="black" cx="2049.68" cy="-219" rx="82.96" ry="37.45"/>
<text text-anchor="middle" x="2049.68" y="-230.3" font-family="Times,serif" font-size="14.00">sum</text>
<text text-anchor="middle" x="2049.68" y="-215.3" font-family="Times,serif" font-size="14.00">unsigned long</text>
<text text-anchor="middle" x="2049.68" y="-200.3" font-family="Times,serif" font-size="14.00">0UL</text>
</g>
<!-- n0_port_3&#45;&gt;n0_place_3 -->
<g id="edge18" class="edge">
<title>n0_port_3&#45;&gt;n0_place_3</title>
<path fill="none" stroke="black" stroke-dasharray="1,5" d="M1871.56,-98.66C1894.31,-108.36 1917.93,-119.63 1938.95,-132 1964.72,-147.17 1991.06,-167.85 2011.47,-185.24"/>
</g>
<!-- n5_port_0 -->
<g id="node34" class="node">
<title>n5_port_0</title>
<polygon fill="white" stroke="black" points="430.64,-409.33 399.21,-432.43 367.78,-409.33 367.81,-371.96 430.61,-371.96 430.64,-409.33"/>
<text text-anchor="middle" x="399.21" y="-402.8" font-family="Times,serif" font-size="14.00">d</text>
<text text-anchor="middle" x="399.21" y="-387.8" font-family="Times,serif" font-size="14.00">int</text>
</g>
<!-- n0_place_0&#45;&gt;n5_port_0 -->
<g id="edge13" class="edge">
<title>n0_place_0&#45;&gt;n5_port_0</title>
<path fill="none" stroke="black" d="M260.79,-399C290.52,-399 328.93,-399 357.58,-399"/>
<polygon fill="black" stroke="black" points="357.66,-402.5 367.66,-399 357.66,-395.5 357.66,-402.5"/>
</g>
<!-- n5_port_1 -->
<g id="node35" class="node">
<title>n5_port_1</title>
<polygon fill="white" stroke="black" points="430.64,-325.33 399.21,-348.43 367.78,-325.33 367.81,-287.96 430.61,-287.96 430.64,-325.33"/>
<text text-anchor="middle" x="399.21" y="-318.8" font-family="Times,serif" font-size="14.00">n</text>
<text text-anchor="middle" x="399.21" y="-303.8" font-family="Times,serif" font-size="14.00">int</text>
</g>
<!-- n0_place_1&#45;&gt;n5_port_1 -->
<g id="edge14" class="edge">
<title>n0_place_1&#45;&gt;n5_port_1</title>
<path fill="none" stroke="black" d="M241.28,-315C271.72,-315 322.23,-315 357.71,-315"/>
<polygon fill="black" stroke="black" points="357.74,-318.5 367.74,-315 357.74,-311.5 357.74,-318.5"/>
</g>
<!-- n0_place_2 -->
<g id="node8" class="node">
<title>n0_place_2</title>
<ellipse fill="white" stroke="black" cx="1003.21" cy="-282" rx="69.09" ry="26.74"/>
<text text-anchor="middle" x="1003.21" y="-285.8" font-family="Times,serif" font-size="14.00">branchtype</text>
<text text-anchor="middle" x="1003.21" y="-270.8" font-family="Times,serif" font-size="14.00">list</text>
</g>
<!-- n3_port_0 -->
<g id="node25" class="node">
<title>n3_port_0</title>
<polygon fill="white" stroke="black" points="1314.69,-313.33 1280.51,-336.43 1246.34,-313.33 1246.37,-275.96 1314.65,-275.96 1314.69,-313.33"/>
<text text-anchor="middle" x="1280.51" y="-306.8" font-family="Times,serif" font-size="14.00">a</text>
<text text-anchor="middle" x="1280.51" y="-291.8" font-family="Times,serif" font-size="14.00">list</text>
</g>
<!-- n0_place_2&#45;&gt;n3_port_0 -->
<g id="edge8" class="edge">
<title>n0_place_2&#45;&gt;n3_port_0</title>
<path fill="none" stroke="black" d="M1071.56,-287.14C1122.84,-291.05 1191.93,-296.32 1236.1,-299.69"/>
<polygon fill="black" stroke="black" points="1235.99,-303.19 1246.22,-300.46 1236.52,-296.21 1235.99,-303.19"/>
</g>
<!-- n1_port_1 -->
<g id="node16" class="node">
<title>n1_port_1</title>
<polygon fill="white" stroke="black" points="2372.7,-313.33 2270.67,-336.43 2168.65,-313.33 2168.75,-275.96 2372.6,-275.96 2372.7,-313.33"/>
<text text-anchor="middle" x="2270.67" y="-306.8" font-family="Times,serif" font-size="14.00">sum</text>
<text text-anchor="middle" x="2270.67" y="-291.8" font-family="Times,serif" font-size="14.00">unsigned long</text>
</g>
<!-- n0_place_3&#45;&gt;n1_port_1 -->
<g id="edge2" class="edge">
<title>n0_place_3&#45;&gt;n1_port_1</title>
<path fill="none" stroke="black" d="M2113.44,-243.07C2137.08,-252.14 2164.31,-262.59 2189.35,-272.19"/>
<polygon fill="black" stroke="black" points="2188.23,-275.51 2198.82,-275.82 2190.74,-268.97 2188.23,-275.51"/>
</g>
<!-- n0_place_4 -->
<g id="node10" class="node">
<title>n0_place_4</title>
<ellipse fill="white" stroke="black" cx="2049.68" cy="-344" rx="82.96" ry="26.74"/>
<text text-anchor="middle" x="2049.68" y="-347.8" font-family="Times,serif" font-size="14.00">fey_out</text>
<text text-anchor="middle" x="2049.68" y="-332.8" font-family="Times,serif" font-size="14.00">unsigned long</text>
</g>
<!-- n1_port_0 -->
<g id="node15" class="node">
<title>n1_port_0</title>
<polygon fill="white" stroke="black" points="2372.7,-397.33 2270.67,-420.43 2168.65,-397.33 2168.75,-359.96 2372.6,-359.96 2372.7,-397.33"/>
<text text-anchor="middle" x="2270.67" y="-390.8" font-family="Times,serif" font-size="14.00">s</text>
<text text-anchor="middle" x="2270.67" y="-375.8" font-family="Times,serif" font-size="14.00">unsigned long</text>
</g>
<!-- n0_place_4&#45;&gt;n1_port_0 -->
<g id="edge3" class="edge">
<title>n0_place_4&#45;&gt;n1_port_0</title>
<path fill="none" stroke="black" d="M2120.88,-357.78C2132.82,-360.13 2145.48,-362.61 2158.18,-365.11"/>
<polygon fill="black" stroke="black" points="2157.88,-368.62 2168.36,-367.11 2159.23,-361.75 2157.88,-368.62"/>
</g>
<!-- n0_place_5 -->
<g id="node11" class="node">
<title>n0_place_5</title>
<ellipse fill="white" stroke="black" cx="597.81" cy="-288" rx="60.21" ry="26.74"/>
<text text-anchor="middle" x="597.81" y="-291.8" font-family="Times,serif" font-size="14.00">d_vectors</text>
<text text-anchor="middle" x="597.81" y="-276.8" font-family="Times,serif" font-size="14.00">list</text>
</g>
<!-- n4_port_0 -->
<g id="node30" class="node">
<title>n4_port_0</title>
<polygon fill="white" stroke="black" points="830.09,-355.33 795.92,-378.43 761.74,-355.33 761.78,-317.96 830.06,-317.96 830.09,-355.33"/>
<text text-anchor="middle" x="795.92" y="-348.8" font-family="Times,serif" font-size="14.00">v</text>
<text text-anchor="middle" x="795.92" y="-333.8" font-family="Times,serif" font-size="14.00">list</text>
</g>
<!-- n0_place_5&#45;&gt;n4_port_0 -->
<g id="edge11" class="edge">
<title>n0_place_5&#45;&gt;n4_port_0</title>
<path fill="none" stroke="black" d="M648.55,-302.46C680.36,-311.7 721.21,-323.58 751.67,-332.43"/>
<polygon fill="black" stroke="black" points="750.99,-335.88 761.57,-335.31 752.95,-329.16 750.99,-335.88"/>
</g>
<!-- n0_place_6 -->
<g id="node12" class="node">
<title>n0_place_6</title>
<ellipse fill="white" stroke="black" cx="1530.23" cy="-267" rx="41.94" ry="26.74"/>
<text text-anchor="middle" x="1530.23" y="-270.8" font-family="Times,serif" font-size="14.00">sign</text>
<text text-anchor="middle" x="1530.23" y="-255.8" font-family="Times,serif" font-size="14.00">string</text>
</g>
<!-- n2_port_0 -->
<g id="node20" class="node">
<title>n2_port_0</title>
<polygon fill="white" stroke="black" points="1821.09,-325.33 1769.45,-348.43 1717.81,-325.33 1717.86,-287.96 1821.04,-287.96 1821.09,-325.33"/>
<text text-anchor="middle" x="1769.45" y="-318.8" font-family="Times,serif" font-size="14.00">a</text>
<text text-anchor="middle" x="1769.45" y="-303.8" font-family="Times,serif" font-size="14.00">string</text>
</g>
<!-- n0_place_6&#45;&gt;n2_port_0 -->
<g id="edge5" class="edge">
<title>n0_place_6&#45;&gt;n2_port_0</title>
<path fill="none" stroke="black" d="M1570.14,-274.87C1607.45,-282.42 1664.35,-293.94 1707.65,-302.7"/>
<polygon fill="black" stroke="black" points="1707.01,-306.14 1717.51,-304.69 1708.4,-299.28 1707.01,-306.14"/>
</g>
<!-- n2_port_1 -->
<g id="node21" class="node">
<title>n2_port_1</title>
<polygon fill="white" stroke="black" points="1821.09,-409.33 1769.45,-432.43 1717.81,-409.33 1717.86,-371.96 1821.04,-371.96 1821.09,-409.33"/>
<text text-anchor="middle" x="1769.45" y="-402.8" font-family="Times,serif" font-size="14.00">G</text>
<text text-anchor="middle" x="1769.45" y="-387.8" font-family="Times,serif" font-size="14.00">string</text>
</g>
<!-- n0_place_7&#45;&gt;n2_port_1 -->
<g id="edge6" class="edge">
<title>n0_place_7&#45;&gt;n2_port_1</title>
<path fill="none" stroke="black" stroke-dasharray="5,2" d="M1042.39,-478.31C1059.97,-482.14 1081.18,-486.11 1100.51,-488 1259.75,-503.56 1302.54,-513.38 1460.51,-488 1524.94,-477.65 1537.31,-460.3 1599.95,-442 1636.32,-431.37 1677.54,-420.83 1710.1,-412.84"/>
<polygon fill="black" stroke="black" points="1711.02,-416.22 1719.91,-410.45 1709.37,-409.42 1711.02,-416.22"/>
</g>
<!-- n3_port_1 -->
<g id="node26" class="node">
<title>n3_port_1</title>
<polygon fill="white" stroke="black" points="1332.15,-397.33 1280.51,-420.43 1228.88,-397.33 1228.92,-359.96 1332.1,-359.96 1332.15,-397.33"/>
<text text-anchor="middle" x="1280.51" y="-390.8" font-family="Times,serif" font-size="14.00">G</text>
<text text-anchor="middle" x="1280.51" y="-375.8" font-family="Times,serif" font-size="14.00">string</text>
</g>
<!-- n0_place_7&#45;&gt;n3_port_1 -->
<g id="edge9" class="edge">
<title>n0_place_7&#45;&gt;n3_port_1</title>
<path fill="none" stroke="black" stroke-dasharray="5,2" d="M1038.08,-453.84C1056.33,-446.04 1079.39,-436.77 1100.51,-430 1139.29,-417.57 1183.81,-406.86 1218.75,-399.24"/>
<polygon fill="black" stroke="black" points="1219.77,-402.6 1228.81,-397.07 1218.29,-395.75 1219.77,-402.6"/>
</g>
<!-- n1_condition -->
<g id="node14" class="node">
<title>n1_condition</title>
<polygon fill="white" stroke="black" points="2236.17,-439 2236.17,-475 2305.17,-475 2305.17,-439 2236.17,-439"/>
<text text-anchor="middle" x="2270.67" y="-453.3" font-family="Times,serif" font-size="14.00">Reduce</text>
</g>
<!-- n1_port_2 -->
<g id="node17" class="node">
<title>n1_port_2</title>
<polygon fill="white" stroke="black" points="2168.65,-208.67 2270.67,-185.57 2372.7,-208.67 2372.6,-246.04 2168.75,-246.04 2168.65,-208.67"/>
<text text-anchor="middle" x="2270.67" y="-222.8" font-family="Times,serif" font-size="14.00">sum</text>
<text text-anchor="middle" x="2270.67" y="-207.8" font-family="Times,serif" font-size="14.00">unsigned long</text>
</g>
<!-- n1_port_2&#45;&gt;n0_place_3 -->
<g id="edge1" class="edge">
<title>n1_port_2&#45;&gt;n0_place_3</title>
<path fill="none" stroke="black" d="M2168.67,-219C2159.97,-219 2151.2,-219 2142.58,-219"/>
<polygon fill="black" stroke="black" points="2142.54,-215.5 2132.54,-219 2142.54,-222.5 2142.54,-215.5"/>
</g>
<!-- n1_modcall -->
<g id="node18" class="node">
<title>n1_modcall</title>
<polygon fill="white" stroke="black" points="2356.67,-168 2184.67,-168 2184.67,-132 2356.67,-132 2356.67,-168"/>
<text text-anchor="middle" x="2270.67" y="-146.3" font-family="Times,serif" font-size="14.00">feynman_module.plus</text>
</g>
<!-- n2_condition -->
<g id="node19" class="node">
<title>n2_condition</title>
<polygon fill="white" stroke="black" points="1702.45,-451 1702.45,-487 1836.45,-487 1836.45,-451 1702.45,-451"/>
<text text-anchor="middle" x="1769.45" y="-465.3" font-family="Times,serif" font-size="14.00">feynman_degree</text>
</g>
<!-- n2_port_2 -->
<g id="node22" class="node">
<title>n2_port_2</title>
<polygon fill="white" stroke="black" points="1667.43,-220.67 1769.45,-197.57 1871.47,-220.67 1871.38,-258.04 1667.52,-258.04 1667.43,-220.67"/>
<text text-anchor="middle" x="1769.45" y="-234.8" font-family="Times,serif" font-size="14.00">s</text>
<text text-anchor="middle" x="1769.45" y="-219.8" font-family="Times,serif" font-size="14.00">unsigned long</text>
</g>
<!-- n2_port_2&#45;&gt;n0_place_4 -->
<g id="edge4" class="edge">
<title>n2_port_2&#45;&gt;n0_place_4</title>
<path fill="none" stroke="black" d="M1871.59,-250.45C1894.23,-256.38 1917.79,-263.82 1938.95,-273 1963.36,-283.59 1988.43,-299.37 2008.43,-313.37"/>
<polygon fill="black" stroke="black" points="2006.5,-316.29 2016.68,-319.24 2010.56,-310.59 2006.5,-316.29"/>
</g>
<!-- n2_modcall -->
<g id="node23" class="node">
<title>n2_modcall</title>
<polygon fill="white" stroke="black" points="1930.95,-180 1607.95,-180 1607.95,-144 1930.95,-144 1930.95,-180"/>
<text text-anchor="middle" x="1769.45" y="-158.3" font-family="Times,serif" font-size="14.00">feynman_module.feynman_integral_degree</text>
</g>
<!-- n3_condition -->
<g id="node24" class="node">
<title>n3_condition</title>
<polygon fill="white" stroke="black" points="1238.01,-439 1238.01,-475 1323.01,-475 1323.01,-439 1238.01,-439"/>
<text text-anchor="middle" x="1280.51" y="-453.3" font-family="Times,serif" font-size="14.00">signature</text>
</g>
<!-- n3_port_2 -->
<g id="node27" class="node">
<title>n3_port_2</title>
<polygon fill="white" stroke="black" points="1246.34,-208.67 1280.51,-185.57 1314.69,-208.67 1314.65,-246.04 1246.37,-246.04 1246.34,-208.67"/>
<text text-anchor="middle" x="1280.51" y="-222.8" font-family="Times,serif" font-size="14.00">s</text>
<text text-anchor="middle" x="1280.51" y="-207.8" font-family="Times,serif" font-size="14.00">list</text>
</g>
<!-- n3_port_2&#45;&gt;n0_place_6 -->
<g id="edge7" class="edge">
<title>n3_port_2&#45;&gt;n0_place_6</title>
<path fill="none" stroke="black" d="M1315.04,-223.46C1357.51,-231.69 1431.46,-246.02 1480.48,-255.52"/>
<path fill="none" stroke="transparent" d="M1314.66,-225.42C1357.13,-233.65 1431.08,-247.98 1480.1,-257.48"/>
<path fill="none" stroke="black" d="M1314.28,-227.39C1356.75,-235.62 1430.7,-249.94 1479.72,-259.44"/>
<polygon fill="black" stroke="black" points="1479.67,-260.96 1490.16,-259.43 1481.01,-254.09 1479.67,-260.96"/>
</g>
<!-- n3_modcall -->
<g id="node28" class="node">
<title>n3_modcall</title>
<polygon fill="white" stroke="black" points="1452.51,-168 1108.51,-168 1108.51,-132 1452.51,-132 1452.51,-168"/>
<text text-anchor="middle" x="1280.51" y="-146.3" font-family="Times,serif" font-size="14.00">feynman_module.signature_and_multiplicities</text>
</g>
<!-- n4_condition -->
<g id="node29" class="node">
<title>n4_condition</title>
<polygon fill="white" stroke="black" points="742.42,-397 742.42,-433 849.42,-433 849.42,-397 742.42,-397"/>
<text text-anchor="middle" x="795.92" y="-411.3" font-family="Times,serif" font-size="14.00">Combination</text>
</g>
<!-- n4_port_1 -->
<g id="node31" class="node">
<title>n4_port_1</title>
<polygon fill="white" stroke="black" points="760.25,-250.67 795.92,-227.57 831.59,-250.67 831.56,-288.04 760.28,-288.04 760.25,-250.67"/>
<text text-anchor="middle" x="795.92" y="-264.8" font-family="Times,serif" font-size="14.00">vec</text>
<text text-anchor="middle" x="795.92" y="-249.8" font-family="Times,serif" font-size="14.00">list</text>
</g>
<!-- n4_port_1&#45;&gt;n0_place_2 -->
<g id="edge10" class="edge">
<title>n4_port_1&#45;&gt;n0_place_2</title>
<path fill="none" stroke="black" d="M831.95,-262.57C857.65,-265.2 893.62,-268.88 925.9,-272.18"/>
<path fill="none" stroke="transparent" d="M831.74,-264.56C857.45,-267.19 893.42,-270.87 925.7,-274.17"/>
<path fill="none" stroke="black" d="M831.54,-266.55C857.24,-269.18 893.22,-272.86 925.5,-276.16"/>
<polygon fill="black" stroke="black" points="925.73,-277.69 936.03,-275.23 926.44,-270.73 925.73,-277.69"/>
</g>
<!-- n4_modcall -->
<g id="node32" class="node">
<title>n4_modcall</title>
<polygon fill="white" stroke="black" points="897.92,-210 693.92,-210 693.92,-174 897.92,-174 897.92,-210"/>
<text text-anchor="middle" x="795.92" y="-188.3" font-family="Times,serif" font-size="14.00">feynman_module.partition</text>
</g>
<!-- n5_condition -->
<g id="node33" class="node">
<title>n5_condition</title>
<polygon fill="white" stroke="black" points="359.71,-451 359.71,-487 438.71,-487 438.71,-451 359.71,-451"/>
<text text-anchor="middle" x="399.21" y="-465.3" font-family="Times,serif" font-size="14.00">partition</text>
</g>
<!-- n5_port_2 -->
<g id="node36" class="node">
<title>n5_port_2</title>
<polygon fill="white" stroke="black" points="365.04,-220.67 399.21,-197.57 433.39,-220.67 433.35,-258.04 365.07,-258.04 365.04,-220.67"/>
<text text-anchor="middle" x="399.21" y="-234.8" font-family="Times,serif" font-size="14.00">v</text>
<text text-anchor="middle" x="399.21" y="-219.8" font-family="Times,serif" font-size="14.00">list</text>
</g>
<!-- n5_port_2&#45;&gt;n0_place_5 -->
<g id="edge12" class="edge">
<title>n5_port_2&#45;&gt;n0_place_5</title>
<path fill="none" stroke="black" d="M434.12,-238.75C462.44,-246.96 503.77,-258.94 537.76,-268.8"/>
<path fill="none" stroke="transparent" d="M433.56,-240.67C461.88,-248.88 503.21,-260.86 537.2,-270.72"/>
<path fill="none" stroke="black" d="M433,-242.59C461.32,-250.8 502.66,-262.78 536.65,-272.64"/>
<polygon fill="black" stroke="black" points="536.46,-274.15 547.04,-273.57 538.41,-267.42 536.46,-274.15"/>
</g>
<!-- n5_modcall -->
<g id="node37" class="node">
<title>n5_modcall</title>
<polygon fill="white" stroke="black" points="501.71,-180 296.71,-180 296.71,-144 501.71,-144 501.71,-180"/>
<text text-anchor="middle" x="399.21" y="-158.3" font-family="Times,serif" font-size="14.00">feynman_module.sum_deg</text>
</g>
</g>
</svg>
