<?xml version="1.0" encoding="UTF-8" standalone="no"?>
<!DOCTYPE svg PUBLIC "-//W3C//DTD SVG 1.1//EN"
 "http://www.w3.org/Graphics/SVG/1.1/DTD/svg11.dtd">
<!-- Generated by graphviz version 2.43.0 (0)
 -->
<!-- Title: feynman_deg Pages: 1 -->
<svg width="1826pt" height="984pt"
 viewBox="0.00 0.00 1825.68 984.00" xmlns="http://www.w3.org/2000/svg" xmlns:xlink="http://www.w3.org/1999/xlink">
<g id="graph0" class="graph" transform="scale(1 1) rotate(0) translate(4 980)">
<title>feynman_deg</title>
<polygon fill="white" stroke="transparent" points="-4,4 -4,-980 1821.68,-980 1821.68,4 -4,4"/>
<g id="clust1" class="cluster">
<title>cluster_0</title>
<polygon fill="dimgray" stroke="black" points="8,-8 8,-968 1809.68,-968 1809.68,-8 8,-8"/>
</g>
<g id="clust2" class="cluster">
<title>cluster_net_0</title>
<polygon fill="white" stroke="black" points="159.37,-90 159.37,-718 1801.68,-718 1801.68,-90 159.37,-90"/>
</g>
<g id="clust3" class="cluster">
<title>cluster_1</title>
<polygon fill="yellow" stroke="black" points="1605.68,-98 1605.68,-458 1793.68,-458 1793.68,-98 1605.68,-98"/>
</g>
<g id="clust4" class="cluster">
<title>cluster_2</title>
<polygon fill="yellow" stroke="black" points="1114.51,-98 1114.51,-710 1453.51,-710 1453.51,-98 1114.51,-98"/>
</g>
<g id="clust5" class="cluster">
<title>cluster_3</title>
<polygon fill="yellow" stroke="black" points="699.92,-122 699.92,-482 919.92,-482 919.92,-122 699.92,-122"/>
</g>
<g id="clust6" class="cluster">
<title>cluster_4</title>
<polygon fill="yellow" stroke="black" points="288.71,-206 288.71,-566 523.71,-566 523.71,-206 288.71,-206"/>
</g>
<!-- n0_condition -->
<g id="node1" class="node">
<title>n0_condition</title>
<polygon fill="white" stroke="black" points="18.19,-722 18.19,-758 129.19,-758 129.19,-722 18.19,-722"/>
<text text-anchor="middle" x="73.69" y="-736.3" font-family="Times,serif" font-size="14.00">feynman_deg</text>
</g>
<!-- n0_port_0 -->
<g id="node2" class="node">
<title>n0_port_0</title>
<polygon fill="white" stroke="black" points="131.56,-479.33 73.69,-502.43 15.81,-479.33 15.87,-441.96 131.5,-441.96 131.56,-479.33"/>
<text text-anchor="middle" x="73.69" y="-472.8" font-family="Times,serif" font-size="14.00">degree</text>
<text text-anchor="middle" x="73.69" y="-457.8" font-family="Times,serif" font-size="14.00">int</text>
</g>
<!-- n0_place_0 -->
<g id="node9" class="node">
<title>n0_place_0</title>
<ellipse fill="white" stroke="black" cx="214.04" cy="-469" rx="46.84" ry="26.74"/>
<text text-anchor="middle" x="214.04" y="-472.8" font-family="Times,serif" font-size="14.00">degree</text>
<text text-anchor="middle" x="214.04" y="-457.8" font-family="Times,serif" font-size="14.00">int</text>
</g>
<!-- n0_port_0&#45;&gt;n0_place_0 -->
<g id="edge16" class="edge">
<title>n0_port_0&#45;&gt;n0_place_0</title>
<path fill="none" stroke="black" stroke-dasharray="1,5" d="M131.76,-469C143.52,-469 155.76,-469 167.07,-469"/>
</g>
<!-- n0_port_1 -->
<g id="node3" class="node">
<title>n0_port_1</title>
<polygon fill="white" stroke="black" points="105.12,-395.33 73.69,-418.43 42.26,-395.33 42.29,-357.96 105.09,-357.96 105.12,-395.33"/>
<text text-anchor="middle" x="73.69" y="-388.8" font-family="Times,serif" font-size="14.00">N</text>
<text text-anchor="middle" x="73.69" y="-373.8" font-family="Times,serif" font-size="14.00">int</text>
</g>
<!-- n0_place_1 -->
<g id="node10" class="node">
<title>n0_place_1</title>
<ellipse fill="white" stroke="black" cx="214.04" cy="-385" rx="27" ry="26.74"/>
<text text-anchor="middle" x="214.04" y="-388.8" font-family="Times,serif" font-size="14.00">N</text>
<text text-anchor="middle" x="214.04" y="-373.8" font-family="Times,serif" font-size="14.00">int</text>
</g>
<!-- n0_port_1&#45;&gt;n0_place_1 -->
<g id="edge17" class="edge">
<title>n0_port_1&#45;&gt;n0_place_1</title>
<path fill="none" stroke="black" stroke-dasharray="1,5" d="M105.39,-385C129.75,-385 163.45,-385 186.62,-385"/>
</g>
<!-- n0_port_2 -->
<g id="node4" class="node">
<title>n0_port_2</title>
<polygon fill="white" stroke="black" points="457.85,-769.33 406.21,-792.43 354.57,-769.33 354.62,-731.96 457.8,-731.96 457.85,-769.33"/>
<text text-anchor="middle" x="406.21" y="-762.8" font-family="Times,serif" font-size="14.00">graph</text>
<text text-anchor="middle" x="406.21" y="-747.8" font-family="Times,serif" font-size="14.00">list</text>
</g>
<!-- n0_place_7 -->
<g id="node16" class="node">
<title>n0_place_7</title>
<ellipse fill="white" stroke="black" cx="611.81" cy="-493" rx="41.94" ry="26.74"/>
<text text-anchor="middle" x="611.81" y="-496.8" font-family="Times,serif" font-size="14.00">graph</text>
<text text-anchor="middle" x="611.81" y="-481.8" font-family="Times,serif" font-size="14.00">list</text>
</g>
<!-- n0_port_2&#45;&gt;n0_place_7 -->
<g id="edge18" class="edge">
<title>n0_port_2&#45;&gt;n0_place_7</title>
<path fill="none" stroke="black" stroke-dasharray="1,5" d="M428.23,-731.54C468.16,-679.37 554.37,-566.75 592.28,-517.21"/>
</g>
<!-- n0_port_3 -->
<g id="node5" class="node">
<title>n0_port_3</title>
<polygon fill="white" stroke="black" points="841.35,-937.33 809.92,-960.43 778.49,-937.33 778.52,-899.96 841.32,-899.96 841.35,-937.33"/>
<text text-anchor="middle" x="809.92" y="-930.8" font-family="Times,serif" font-size="14.00">aa</text>
<text text-anchor="middle" x="809.92" y="-915.8" font-family="Times,serif" font-size="14.00">int</text>
</g>
<!-- n0_place_6 -->
<g id="node15" class="node">
<title>n0_place_6</title>
<ellipse fill="white" stroke="black" cx="1017.21" cy="-683" rx="27" ry="26.74"/>
<text text-anchor="middle" x="1017.21" y="-686.8" font-family="Times,serif" font-size="14.00">aa</text>
<text text-anchor="middle" x="1017.21" y="-671.8" font-family="Times,serif" font-size="14.00">int</text>
</g>
<!-- n0_port_3&#45;&gt;n0_place_6 -->
<g id="edge19" class="edge">
<title>n0_port_3&#45;&gt;n0_place_6</title>
<path fill="none" stroke="black" stroke-dasharray="1,5" d="M841.48,-921.66C865.35,-916.09 898.04,-905.25 919.92,-885 972.95,-835.91 999.75,-751.52 1010.45,-709.04"/>
</g>
<!-- n0_port_4 -->
<g id="node6" class="node">
<title>n0_port_4</title>
<polygon fill="white" stroke="black" points="861.55,-853.33 809.92,-876.43 758.28,-853.33 758.33,-815.96 861.51,-815.96 861.55,-853.33"/>
<text text-anchor="middle" x="809.92" y="-846.8" font-family="Times,serif" font-size="14.00">genus</text>
<text text-anchor="middle" x="809.92" y="-831.8" font-family="Times,serif" font-size="14.00">string</text>
</g>
<!-- n0_place_8 -->
<g id="node17" class="node">
<title>n0_place_8</title>
<ellipse fill="white" stroke="black" cx="1017.21" cy="-611" rx="41.94" ry="26.74"/>
<text text-anchor="middle" x="1017.21" y="-614.8" font-family="Times,serif" font-size="14.00">genus</text>
<text text-anchor="middle" x="1017.21" y="-599.8" font-family="Times,serif" font-size="14.00">string</text>
</g>
<!-- n0_port_4&#45;&gt;n0_place_8 -->
<g id="edge20" class="edge">
<title>n0_port_4&#45;&gt;n0_place_8</title>
<path fill="none" stroke="black" stroke-dasharray="1,5" d="M861.56,-834.77C882.56,-828.81 905.37,-818.58 919.92,-801 964.28,-747.41 906.78,-703.1 947.92,-647 955.77,-636.3 967.76,-628.49 979.51,-622.94"/>
</g>
<!-- n0_port_5 -->
<g id="node7" class="node">
<title>n0_port_5</title>
<polygon fill="white" stroke="black" points="861.55,-769.33 809.92,-792.43 758.28,-769.33 758.33,-731.96 861.51,-731.96 861.55,-769.33"/>
<text text-anchor="middle" x="809.92" y="-762.8" font-family="Times,serif" font-size="14.00">loop</text>
<text text-anchor="middle" x="809.92" y="-747.8" font-family="Times,serif" font-size="14.00">string</text>
</g>
<!-- n0_place_9 -->
<g id="node18" class="node">
<title>n0_place_9</title>
<ellipse fill="white" stroke="black" cx="1017.21" cy="-539" rx="41.94" ry="26.74"/>
<text text-anchor="middle" x="1017.21" y="-542.8" font-family="Times,serif" font-size="14.00">loop</text>
<text text-anchor="middle" x="1017.21" y="-527.8" font-family="Times,serif" font-size="14.00">string</text>
</g>
<!-- n0_port_5&#45;&gt;n0_place_9 -->
<g id="edge21" class="edge">
<title>n0_port_5&#45;&gt;n0_place_9</title>
<path fill="none" stroke="black" stroke-dasharray="1,5" d="M861.64,-753.08C882.53,-748.08 905.23,-738.89 919.92,-722 963.57,-671.82 908.36,-628.47 947.92,-575 955.81,-564.33 967.81,-556.53 979.57,-550.98"/>
</g>
<!-- n0_port_6 -->
<g id="node8" class="node">
<title>n0_port_6</title>
<polygon fill="white" stroke="black" points="1224.64,-38.67 1284.01,-15.57 1343.38,-38.67 1343.32,-76.04 1224.7,-76.04 1224.64,-38.67"/>
<text text-anchor="middle" x="1284.01" y="-52.8" font-family="Times,serif" font-size="14.00">fey_out</text>
<text text-anchor="middle" x="1284.01" y="-37.8" font-family="Times,serif" font-size="14.00">string</text>
</g>
<!-- n0_place_4 -->
<g id="node13" class="node">
<title>n0_place_4</title>
<ellipse fill="white" stroke="black" cx="1529.59" cy="-193" rx="48.17" ry="26.74"/>
<text text-anchor="middle" x="1529.59" y="-196.8" font-family="Times,serif" font-size="14.00">fey_out</text>
<text text-anchor="middle" x="1529.59" y="-181.8" font-family="Times,serif" font-size="14.00">string</text>
</g>
<!-- n0_port_6&#45;&gt;n0_place_4 -->
<g id="edge22" class="edge">
<title>n0_port_6&#45;&gt;n0_place_4</title>
<path fill="none" stroke="black" stroke-dasharray="1,5" d="M1343.54,-55.02C1377.89,-60.79 1420.84,-72.05 1453.51,-94 1481.09,-112.52 1502.66,-144.59 1515.47,-167.2"/>
</g>
<!-- n4_port_0 -->
<g id="node38" class="node">
<title>n4_port_0</title>
<polygon fill="white" stroke="black" points="437.64,-479.33 406.21,-502.43 374.78,-479.33 374.81,-441.96 437.61,-441.96 437.64,-479.33"/>
<text text-anchor="middle" x="406.21" y="-472.8" font-family="Times,serif" font-size="14.00">d</text>
<text text-anchor="middle" x="406.21" y="-457.8" font-family="Times,serif" font-size="14.00">int</text>
</g>
<!-- n0_place_0&#45;&gt;n4_port_0 -->
<g id="edge14" class="edge">
<title>n0_place_0&#45;&gt;n4_port_0</title>
<path fill="none" stroke="black" d="M261.08,-469C292.64,-469 334.13,-469 364.49,-469"/>
<polygon fill="black" stroke="black" points="364.73,-472.5 374.73,-469 364.73,-465.5 364.73,-472.5"/>
</g>
<!-- n4_port_1 -->
<g id="node39" class="node">
<title>n4_port_1</title>
<polygon fill="white" stroke="black" points="437.64,-395.33 406.21,-418.43 374.78,-395.33 374.81,-357.96 437.61,-357.96 437.64,-395.33"/>
<text text-anchor="middle" x="406.21" y="-388.8" font-family="Times,serif" font-size="14.00">n</text>
<text text-anchor="middle" x="406.21" y="-373.8" font-family="Times,serif" font-size="14.00">int</text>
</g>
<!-- n0_place_1&#45;&gt;n4_port_1 -->
<g id="edge15" class="edge">
<title>n0_place_1&#45;&gt;n4_port_1</title>
<path fill="none" stroke="black" d="M241.08,-385C272.98,-385 327.35,-385 364.72,-385"/>
<polygon fill="black" stroke="black" points="364.77,-388.5 374.77,-385 364.77,-381.5 364.77,-388.5"/>
</g>
<!-- n0_place_2 -->
<g id="node11" class="node">
<title>n0_place_2</title>
<ellipse fill="white" stroke="black" cx="1017.21" cy="-247" rx="69.09" ry="26.74"/>
<text text-anchor="middle" x="1017.21" y="-250.8" font-family="Times,serif" font-size="14.00">branchtype</text>
<text text-anchor="middle" x="1017.21" y="-235.8" font-family="Times,serif" font-size="14.00">list</text>
</g>
<!-- n2_port_0 -->
<g id="node25" class="node">
<title>n2_port_0</title>
<polygon fill="white" stroke="black" points="1318.19,-287.33 1284.01,-310.43 1249.84,-287.33 1249.87,-249.96 1318.15,-249.96 1318.19,-287.33"/>
<text text-anchor="middle" x="1284.01" y="-280.8" font-family="Times,serif" font-size="14.00">a</text>
<text text-anchor="middle" x="1284.01" y="-265.8" font-family="Times,serif" font-size="14.00">list</text>
</g>
<!-- n0_place_2&#45;&gt;n2_port_0 -->
<g id="edge7" class="edge">
<title>n0_place_2&#45;&gt;n2_port_0</title>
<path fill="none" stroke="black" d="M1084.01,-254.45C1132.69,-259.97 1197.61,-267.32 1239.85,-272.11"/>
<polygon fill="black" stroke="black" points="1239.48,-275.59 1249.81,-273.24 1240.27,-268.64 1239.48,-275.59"/>
</g>
<!-- n0_place_3 -->
<g id="node12" class="node">
<title>n0_place_3</title>
<ellipse fill="white" stroke="black" cx="1529.59" cy="-319" rx="41.94" ry="37.45"/>
<text text-anchor="middle" x="1529.59" y="-330.3" font-family="Times,serif" font-size="14.00">sum</text>
<text text-anchor="middle" x="1529.59" y="-315.3" font-family="Times,serif" font-size="14.00">string</text>
<text text-anchor="middle" x="1529.59" y="-300.3" font-family="Times,serif" font-size="14.00">&quot;0&quot;</text>
</g>
<!-- n1_port_2 -->
<g id="node21" class="node">
<title>n1_port_2</title>
<polygon fill="white" stroke="black" points="1751.31,-287.33 1699.68,-310.43 1648.04,-287.33 1648.09,-249.96 1751.27,-249.96 1751.31,-287.33"/>
<text text-anchor="middle" x="1699.68" y="-280.8" font-family="Times,serif" font-size="14.00">sum</text>
<text text-anchor="middle" x="1699.68" y="-265.8" font-family="Times,serif" font-size="14.00">string</text>
</g>
<!-- n0_place_3&#45;&gt;n1_port_2 -->
<g id="edge2" class="edge">
<title>n0_place_3&#45;&gt;n1_port_2</title>
<path fill="none" stroke="black" d="M1570,-309.15C1591.23,-303.85 1617.81,-297.21 1641.29,-291.34"/>
<polygon fill="black" stroke="black" points="1642.28,-294.7 1651.14,-288.88 1640.58,-287.91 1642.28,-294.7"/>
</g>
<!-- n1_port_0 -->
<g id="node20" class="node">
<title>n1_port_0</title>
<polygon fill="white" stroke="black" points="1751.31,-203.33 1699.68,-226.43 1648.04,-203.33 1648.09,-165.96 1751.27,-165.96 1751.31,-203.33"/>
<text text-anchor="middle" x="1699.68" y="-196.8" font-family="Times,serif" font-size="14.00">s</text>
<text text-anchor="middle" x="1699.68" y="-181.8" font-family="Times,serif" font-size="14.00">string</text>
</g>
<!-- n0_place_4&#45;&gt;n1_port_0 -->
<g id="edge3" class="edge">
<title>n0_place_4&#45;&gt;n1_port_0</title>
<path fill="none" stroke="black" d="M1577.86,-193C1596.47,-193 1618.07,-193 1637.81,-193"/>
<polygon fill="black" stroke="black" points="1637.95,-196.5 1647.95,-193 1637.95,-189.5 1637.95,-196.5"/>
</g>
<!-- n0_place_5 -->
<g id="node14" class="node">
<title>n0_place_5</title>
<ellipse fill="white" stroke="black" cx="611.81" cy="-301" rx="60.21" ry="26.74"/>
<text text-anchor="middle" x="611.81" y="-304.8" font-family="Times,serif" font-size="14.00">d_vectors</text>
<text text-anchor="middle" x="611.81" y="-289.8" font-family="Times,serif" font-size="14.00">list</text>
</g>
<!-- n3_port_0 -->
<g id="node33" class="node">
<title>n3_port_0</title>
<polygon fill="white" stroke="black" points="844.09,-311.33 809.92,-334.43 775.74,-311.33 775.78,-273.96 844.06,-273.96 844.09,-311.33"/>
<text text-anchor="middle" x="809.92" y="-304.8" font-family="Times,serif" font-size="14.00">v</text>
<text text-anchor="middle" x="809.92" y="-289.8" font-family="Times,serif" font-size="14.00">list</text>
</g>
<!-- n0_place_5&#45;&gt;n3_port_0 -->
<g id="edge12" class="edge">
<title>n0_place_5&#45;&gt;n3_port_0</title>
<path fill="none" stroke="black" d="M672.18,-301C702.27,-301 738.15,-301 765.6,-301"/>
<polygon fill="black" stroke="black" points="765.68,-304.5 775.68,-301 765.68,-297.5 765.68,-304.5"/>
</g>
<!-- n2_port_4 -->
<g id="node29" class="node">
<title>n2_port_4</title>
<polygon fill="white" stroke="black" points="1315.44,-623.33 1284.01,-646.43 1252.58,-623.33 1252.61,-585.96 1315.41,-585.96 1315.44,-623.33"/>
<text text-anchor="middle" x="1284.01" y="-616.8" font-family="Times,serif" font-size="14.00">aa</text>
<text text-anchor="middle" x="1284.01" y="-601.8" font-family="Times,serif" font-size="14.00">int</text>
</g>
<!-- n0_place_6&#45;&gt;n2_port_4 -->
<g id="edge5" class="edge">
<title>n0_place_6&#45;&gt;n2_port_4</title>
<path fill="none" stroke="black" stroke-dasharray="5,2" d="M1043.51,-675.73C1062.91,-670.2 1090.36,-662.47 1114.51,-656 1158.12,-644.32 1208.27,-631.62 1242.45,-623.07"/>
<polygon fill="black" stroke="black" points="1243.66,-626.37 1252.52,-620.55 1241.97,-619.58 1243.66,-626.37"/>
</g>
<!-- n2_port_2 -->
<g id="node27" class="node">
<title>n2_port_2</title>
<polygon fill="white" stroke="black" points="1318.19,-371.33 1284.01,-394.43 1249.84,-371.33 1249.87,-333.96 1318.15,-333.96 1318.19,-371.33"/>
<text text-anchor="middle" x="1284.01" y="-364.8" font-family="Times,serif" font-size="14.00">G</text>
<text text-anchor="middle" x="1284.01" y="-349.8" font-family="Times,serif" font-size="14.00">list</text>
</g>
<!-- n0_place_7&#45;&gt;n2_port_2 -->
<g id="edge9" class="edge">
<title>n0_place_7&#45;&gt;n2_port_2</title>
<path fill="none" stroke="black" stroke-dasharray="5,2" d="M653.65,-493.98C725.22,-495.38 870.4,-496.71 919.92,-486 1011.82,-466.13 1025.37,-432.91 1114.51,-403 1156.22,-389.01 1205.12,-377.32 1239.46,-369.86"/>
<polygon fill="black" stroke="black" points="1240.59,-373.2 1249.63,-367.68 1239.12,-366.35 1240.59,-373.2"/>
</g>
<!-- n3_port_1 -->
<g id="node34" class="node">
<title>n3_port_1</title>
<polygon fill="white" stroke="black" points="844.09,-395.33 809.92,-418.43 775.74,-395.33 775.78,-357.96 844.06,-357.96 844.09,-395.33"/>
<text text-anchor="middle" x="809.92" y="-388.8" font-family="Times,serif" font-size="14.00">G</text>
<text text-anchor="middle" x="809.92" y="-373.8" font-family="Times,serif" font-size="14.00">list</text>
</g>
<!-- n0_place_7&#45;&gt;n3_port_1 -->
<g id="edge11" class="edge">
<title>n0_place_7&#45;&gt;n3_port_1</title>
<path fill="none" stroke="black" stroke-dasharray="5,2" d="M637.51,-471.78C654.32,-458.06 677.5,-440.49 699.92,-428 720.78,-416.37 745.43,-406.37 766.01,-398.94"/>
<polygon fill="black" stroke="black" points="767.19,-402.24 775.45,-395.61 764.86,-395.64 767.19,-402.24"/>
</g>
<!-- n2_port_3 -->
<g id="node28" class="node">
<title>n2_port_3</title>
<polygon fill="white" stroke="black" points="1335.65,-539.33 1284.01,-562.43 1232.38,-539.33 1232.42,-501.96 1335.6,-501.96 1335.65,-539.33"/>
<text text-anchor="middle" x="1284.01" y="-532.8" font-family="Times,serif" font-size="14.00">gg</text>
<text text-anchor="middle" x="1284.01" y="-517.8" font-family="Times,serif" font-size="14.00">string</text>
</g>
<!-- n0_place_8&#45;&gt;n2_port_3 -->
<g id="edge8" class="edge">
<title>n0_place_8&#45;&gt;n2_port_3</title>
<path fill="none" stroke="black" stroke-dasharray="5,2" d="M1051.62,-595.68C1069.94,-587.64 1093.2,-578.04 1114.51,-571 1149.92,-559.3 1190.46,-549.1 1222.89,-541.69"/>
<polygon fill="black" stroke="black" points="1223.7,-545.09 1232.69,-539.47 1222.16,-538.26 1223.7,-545.09"/>
</g>
<!-- n2_port_1 -->
<g id="node26" class="node">
<title>n2_port_1</title>
<polygon fill="white" stroke="black" points="1335.65,-455.33 1284.01,-478.43 1232.38,-455.33 1232.42,-417.96 1335.6,-417.96 1335.65,-455.33"/>
<text text-anchor="middle" x="1284.01" y="-448.8" font-family="Times,serif" font-size="14.00">l</text>
<text text-anchor="middle" x="1284.01" y="-433.8" font-family="Times,serif" font-size="14.00">string</text>
</g>
<!-- n0_place_9&#45;&gt;n2_port_1 -->
<g id="edge6" class="edge">
<title>n0_place_9&#45;&gt;n2_port_1</title>
<path fill="none" stroke="black" stroke-dasharray="5,2" d="M1047.65,-520.6C1066.25,-509.6 1091.13,-496.06 1114.51,-487 1149.29,-473.52 1189.8,-463.26 1222.38,-456.26"/>
<polygon fill="black" stroke="black" points="1223.16,-459.67 1232.22,-454.19 1221.72,-452.82 1223.16,-459.67"/>
</g>
<!-- n1_condition -->
<g id="node19" class="node">
<title>n1_condition</title>
<polygon fill="white" stroke="black" points="1665.18,-413 1665.18,-449 1734.18,-449 1734.18,-413 1665.18,-413"/>
<text text-anchor="middle" x="1699.68" y="-427.3" font-family="Times,serif" font-size="14.00">Reduce</text>
</g>
<!-- n1_port_1 -->
<g id="node22" class="node">
<title>n1_port_1</title>
<polygon fill="white" stroke="black" points="1629.08,-350.67 1699.68,-327.57 1770.27,-350.67 1770.21,-388.04 1629.15,-388.04 1629.08,-350.67"/>
<text text-anchor="middle" x="1699.68" y="-364.8" font-family="Times,serif" font-size="14.00">sum_frac</text>
<text text-anchor="middle" x="1699.68" y="-349.8" font-family="Times,serif" font-size="14.00">string</text>
</g>
<!-- n1_port_1&#45;&gt;n0_place_3 -->
<g id="edge1" class="edge">
<title>n1_port_1&#45;&gt;n0_place_3</title>
<path fill="none" stroke="black" d="M1641.04,-346.6C1621.1,-341.62 1598.95,-336.08 1579.75,-331.28"/>
<polygon fill="black" stroke="black" points="1580.55,-327.88 1570,-328.85 1578.86,-334.67 1580.55,-327.88"/>
</g>
<!-- n1_modcall -->
<g id="node23" class="node">
<title>n1_modcall</title>
<polygon fill="white" stroke="black" points="1785.68,-142 1613.68,-142 1613.68,-106 1785.68,-106 1785.68,-142"/>
<text text-anchor="middle" x="1699.68" y="-120.3" font-family="Times,serif" font-size="14.00">feynman_module.plus</text>
</g>
<!-- n2_condition -->
<g id="node24" class="node">
<title>n2_condition</title>
<polygon fill="white" stroke="black" points="1217.01,-665 1217.01,-701 1351.01,-701 1351.01,-665 1217.01,-665"/>
<text text-anchor="middle" x="1284.01" y="-679.3" font-family="Times,serif" font-size="14.00">feynman_degree</text>
</g>
<!-- n2_port_5 -->
<g id="node30" class="node">
<title>n2_port_5</title>
<polygon fill="white" stroke="black" points="1232.38,-182.67 1284.01,-159.57 1335.65,-182.67 1335.6,-220.04 1232.42,-220.04 1232.38,-182.67"/>
<text text-anchor="middle" x="1284.01" y="-196.8" font-family="Times,serif" font-size="14.00">s</text>
<text text-anchor="middle" x="1284.01" y="-181.8" font-family="Times,serif" font-size="14.00">string</text>
</g>
<!-- n2_port_5&#45;&gt;n0_place_4 -->
<g id="edge4" class="edge">
<title>n2_port_5&#45;&gt;n0_place_4</title>
<path fill="none" stroke="black" d="M1335.78,-193C1375.24,-193 1429.99,-193 1471.07,-193"/>
<polygon fill="black" stroke="black" points="1471.2,-196.5 1481.2,-193 1471.2,-189.5 1471.2,-196.5"/>
</g>
<!-- n2_modcall -->
<g id="node31" class="node">
<title>n2_modcall</title>
<polygon fill="white" stroke="black" points="1445.51,-142 1122.51,-142 1122.51,-106 1445.51,-106 1445.51,-142"/>
<text text-anchor="middle" x="1284.01" y="-120.3" font-family="Times,serif" font-size="14.00">feynman_module.feynman_integral_degree</text>
</g>
<!-- n3_condition -->
<g id="node32" class="node">
<title>n3_condition</title>
<polygon fill="white" stroke="black" points="756.42,-437 756.42,-473 863.42,-473 863.42,-437 756.42,-437"/>
<text text-anchor="middle" x="809.92" y="-451.3" font-family="Times,serif" font-size="14.00">Combination</text>
</g>
<!-- n3_port_2 -->
<g id="node35" class="node">
<title>n3_port_2</title>
<polygon fill="white" stroke="black" points="774.25,-206.67 809.92,-183.57 845.59,-206.67 845.56,-244.04 774.28,-244.04 774.25,-206.67"/>
<text text-anchor="middle" x="809.92" y="-220.8" font-family="Times,serif" font-size="14.00">vec</text>
<text text-anchor="middle" x="809.92" y="-205.8" font-family="Times,serif" font-size="14.00">list</text>
</g>
<!-- n3_port_2&#45;&gt;n0_place_2 -->
<g id="edge10" class="edge">
<title>n3_port_2&#45;&gt;n0_place_2</title>
<path fill="none" stroke="black" d="M846.03,-220.11C872.37,-223.96 909.48,-229.38 942.35,-234.19"/>
<path fill="none" stroke="transparent" d="M845.74,-222.09C872.08,-225.94 909.19,-231.36 942.07,-236.16"/>
<path fill="none" stroke="black" d="M845.46,-224.07C871.79,-227.92 908.9,-233.34 941.78,-238.14"/>
<polygon fill="black" stroke="black" points="941.71,-239.65 952.12,-237.63 942.73,-232.72 941.71,-239.65"/>
</g>
<!-- n3_modcall -->
<g id="node36" class="node">
<title>n3_modcall</title>
<polygon fill="white" stroke="black" points="911.92,-166 707.92,-166 707.92,-130 911.92,-130 911.92,-166"/>
<text text-anchor="middle" x="809.92" y="-144.3" font-family="Times,serif" font-size="14.00">feynman_module.partition</text>
</g>
<!-- n4_condition -->
<g id="node37" class="node">
<title>n4_condition</title>
<polygon fill="white" stroke="black" points="366.71,-521 366.71,-557 445.71,-557 445.71,-521 366.71,-521"/>
<text text-anchor="middle" x="406.21" y="-535.3" font-family="Times,serif" font-size="14.00">partition</text>
</g>
<!-- n4_port_2 -->
<g id="node40" class="node">
<title>n4_port_2</title>
<polygon fill="white" stroke="black" points="372.04,-290.67 406.21,-267.57 440.39,-290.67 440.35,-328.04 372.07,-328.04 372.04,-290.67"/>
<text text-anchor="middle" x="406.21" y="-304.8" font-family="Times,serif" font-size="14.00">v</text>
<text text-anchor="middle" x="406.21" y="-289.8" font-family="Times,serif" font-size="14.00">list</text>
</g>
<!-- n4_port_2&#45;&gt;n0_place_5 -->
<g id="edge13" class="edge">
<title>n4_port_2&#45;&gt;n0_place_5</title>
<path fill="none" stroke="black" d="M440.38,-299C467.54,-299 506.91,-299 540.96,-299"/>
<path fill="none" stroke="transparent" d="M440.38,-301C467.54,-301 506.91,-301 540.96,-301"/>
<path fill="none" stroke="black" d="M440.38,-303C467.54,-303 506.91,-303 540.96,-303"/>
<polygon fill="black" stroke="black" points="541.34,-304.5 551.34,-301 541.34,-297.5 541.34,-304.5"/>
</g>
<!-- n4_modcall -->
<g id="node41" class="node">
<title>n4_modcall</title>
<polygon fill="white" stroke="black" points="515.71,-250 296.71,-250 296.71,-214 515.71,-214 515.71,-250"/>
<text text-anchor="middle" x="406.21" y="-228.3" font-family="Times,serif" font-size="14.00">feynman_module.gen_block_</text>
</g>
</g>
</svg>
