<?xml version="1.0" encoding="UTF-8" standalone="no"?>
<!DOCTYPE svg PUBLIC "-//W3C//DTD SVG 1.1//EN"
 "http://www.w3.org/Graphics/SVG/1.1/DTD/svg11.dtd">
<!-- Generated by graphviz version 2.43.0 (0)
 -->
<!-- Title: feynman_deg Pages: 1 -->
<svg width="1905pt" height="1112pt"
 viewBox="0.00 0.00 1905.01 1112.00" xmlns="http://www.w3.org/2000/svg" xmlns:xlink="http://www.w3.org/1999/xlink">
<g id="graph0" class="graph" transform="scale(1 1) rotate(0) translate(4 1108)">
<title>feynman_deg</title>
<polygon fill="white" stroke="transparent" points="-4,4 -4,-1108 1901.01,-1108 1901.01,4 -4,4"/>
<g id="clust1" class="cluster">
<title>cluster_0</title>
<polygon fill="dimgray" stroke="black" points="8,-8 8,-1096 1889.01,-1096 1889.01,-8 8,-8"/>
</g>
<g id="clust2" class="cluster">
<title>cluster_net_0</title>
<polygon fill="white" stroke="black" points="159.37,-90 159.37,-1014 1881.01,-1014 1881.01,-90 159.37,-90"/>
</g>
<g id="clust3" class="cluster">
<title>cluster_1</title>
<polygon fill="yellow" stroke="black" points="1780.01,-550 1780.01,-910 1873.01,-910 1873.01,-550 1780.01,-550"/>
</g>
<g id="clust4" class="cluster">
<title>cluster_2</title>
<polygon fill="yellow" stroke="black" points="1536.89,-550 1536.89,-994 1670.01,-994 1670.01,-550 1536.89,-550"/>
</g>
<g id="clust5" class="cluster">
<title>cluster_3</title>
<polygon fill="yellow" stroke="black" points="1074.01,-278 1074.01,-638 1353.01,-638 1353.01,-278 1074.01,-278"/>
</g>
<g id="clust6" class="cluster">
<title>cluster_4</title>
<polygon fill="yellow" stroke="black" points="1063.51,-646 1063.51,-1006 1363.51,-1006 1363.51,-646 1063.51,-646"/>
</g>
<g id="clust7" class="cluster">
<title>cluster_5</title>
<polygon fill="yellow" stroke="black" points="650.92,-434 650.92,-710 868.92,-710 868.92,-434 650.92,-434"/>
</g>
<g id="clust8" class="cluster">
<title>cluster_6</title>
<polygon fill="yellow" stroke="black" points="1536.89,-98 1536.89,-542 1670.01,-542 1670.01,-98 1536.89,-98"/>
</g>
<g id="clust9" class="cluster">
<title>cluster_7</title>
<polygon fill="yellow" stroke="black" points="288.71,-518 288.71,-878 474.71,-878 474.71,-518 288.71,-518"/>
</g>
<!-- n0_condition -->
<g id="node1" class="node">
<title>n0_condition</title>
<polygon fill="white" stroke="black" points="18.19,-978 18.19,-1014 129.19,-1014 129.19,-978 18.19,-978"/>
<text text-anchor="middle" x="73.69" y="-992.3" font-family="Times,serif" font-size="14.00">feynman_deg</text>
</g>
<!-- n0_port_0 -->
<g id="node2" class="node">
<title>n0_port_0</title>
<polygon fill="white" stroke="black" points="131.56,-791.33 73.69,-814.43 15.81,-791.33 15.87,-753.96 131.5,-753.96 131.56,-791.33"/>
<text text-anchor="middle" x="73.69" y="-784.8" font-family="Times,serif" font-size="14.00">degree</text>
<text text-anchor="middle" x="73.69" y="-769.8" font-family="Times,serif" font-size="14.00">int</text>
</g>
<!-- n0_place_0 -->
<g id="node6" class="node">
<title>n0_place_0</title>
<ellipse fill="white" stroke="black" cx="214.04" cy="-781" rx="46.84" ry="26.74"/>
<text text-anchor="middle" x="214.04" y="-784.8" font-family="Times,serif" font-size="14.00">degree</text>
<text text-anchor="middle" x="214.04" y="-769.8" font-family="Times,serif" font-size="14.00">int</text>
</g>
<!-- n0_port_0&#45;&gt;n0_place_0 -->
<g id="edge23" class="edge">
<title>n0_port_0&#45;&gt;n0_place_0</title>
<path fill="none" stroke="black" stroke-dasharray="1,5" d="M131.76,-781C143.52,-781 155.76,-781 167.07,-781"/>
</g>
<!-- n0_port_1 -->
<g id="node3" class="node">
<title>n0_port_1</title>
<polygon fill="white" stroke="black" points="105.12,-707.33 73.69,-730.43 42.26,-707.33 42.29,-669.96 105.09,-669.96 105.12,-707.33"/>
<text text-anchor="middle" x="73.69" y="-700.8" font-family="Times,serif" font-size="14.00">N</text>
<text text-anchor="middle" x="73.69" y="-685.8" font-family="Times,serif" font-size="14.00">int</text>
</g>
<!-- n0_place_1 -->
<g id="node7" class="node">
<title>n0_place_1</title>
<ellipse fill="white" stroke="black" cx="214.04" cy="-697" rx="27" ry="26.74"/>
<text text-anchor="middle" x="214.04" y="-700.8" font-family="Times,serif" font-size="14.00">N</text>
<text text-anchor="middle" x="214.04" y="-685.8" font-family="Times,serif" font-size="14.00">int</text>
</g>
<!-- n0_port_1&#45;&gt;n0_place_1 -->
<g id="edge24" class="edge">
<title>n0_port_1&#45;&gt;n0_place_1</title>
<path fill="none" stroke="black" stroke-dasharray="1,5" d="M105.39,-697C129.75,-697 163.45,-697 186.62,-697"/>
</g>
<!-- n0_port_2 -->
<g id="node4" class="node">
<title>n0_port_2</title>
<polygon fill="white" stroke="black" points="811.55,-1065.33 759.92,-1088.43 708.28,-1065.33 708.33,-1027.96 811.51,-1027.96 811.55,-1065.33"/>
<text text-anchor="middle" x="759.92" y="-1058.8" font-family="Times,serif" font-size="14.00">graph</text>
<text text-anchor="middle" x="759.92" y="-1043.8" font-family="Times,serif" font-size="14.00">string</text>
</g>
<!-- n0_place_7 -->
<g id="node13" class="node">
<title>n0_place_7</title>
<ellipse fill="white" stroke="black" cx="966.21" cy="-909" rx="41.94" ry="26.74"/>
<text text-anchor="middle" x="966.21" y="-912.8" font-family="Times,serif" font-size="14.00">graph</text>
<text text-anchor="middle" x="966.21" y="-897.8" font-family="Times,serif" font-size="14.00">string</text>
</g>
<!-- n0_port_2&#45;&gt;n0_place_7 -->
<g id="edge25" class="edge">
<title>n0_port_2&#45;&gt;n0_place_7</title>
<path fill="none" stroke="black" stroke-dasharray="1,5" d="M798.87,-1027.88C839.14,-999.1 901.8,-954.32 937.62,-928.72"/>
</g>
<!-- n0_port_3 -->
<g id="node5" class="node">
<title>n0_port_3</title>
<polygon fill="white" stroke="black" points="1572.02,-38.67 1603.45,-15.57 1634.88,-38.67 1634.85,-76.04 1572.05,-76.04 1572.02,-38.67"/>
<text text-anchor="middle" x="1603.45" y="-52.8" font-family="Times,serif" font-size="14.00">L</text>
<text text-anchor="middle" x="1603.45" y="-37.8" font-family="Times,serif" font-size="14.00">int</text>
</g>
<!-- n0_place_6 -->
<g id="node12" class="node">
<title>n0_place_6</title>
<ellipse fill="white" stroke="black" cx="1725.01" cy="-277" rx="27" ry="26.74"/>
<text text-anchor="middle" x="1725.01" y="-280.8" font-family="Times,serif" font-size="14.00">L</text>
<text text-anchor="middle" x="1725.01" y="-265.8" font-family="Times,serif" font-size="14.00">int</text>
</g>
<!-- n0_port_3&#45;&gt;n0_place_6 -->
<g id="edge26" class="edge">
<title>n0_port_3&#45;&gt;n0_place_6</title>
<path fill="none" stroke="black" stroke-dasharray="1,5" d="M1635.06,-64.02C1647.49,-71.49 1661.01,-81.6 1670.01,-94 1704.85,-141.98 1717.37,-212.33 1721.75,-250.31"/>
</g>
<!-- n7_port_0 -->
<g id="node49" class="node">
<title>n7_port_0</title>
<polygon fill="white" stroke="black" points="413.14,-791.33 381.71,-814.43 350.28,-791.33 350.31,-753.96 413.11,-753.96 413.14,-791.33"/>
<text text-anchor="middle" x="381.71" y="-784.8" font-family="Times,serif" font-size="14.00">d</text>
<text text-anchor="middle" x="381.71" y="-769.8" font-family="Times,serif" font-size="14.00">int</text>
</g>
<!-- n0_place_0&#45;&gt;n7_port_0 -->
<g id="edge21" class="edge">
<title>n0_place_0&#45;&gt;n7_port_0</title>
<path fill="none" stroke="black" d="M260.75,-781C285.53,-781 315.9,-781 339.88,-781"/>
<polygon fill="black" stroke="black" points="340.06,-784.5 350.06,-781 340.06,-777.5 340.06,-784.5"/>
</g>
<!-- n7_port_1 -->
<g id="node50" class="node">
<title>n7_port_1</title>
<polygon fill="white" stroke="black" points="413.14,-707.33 381.71,-730.43 350.28,-707.33 350.31,-669.96 413.11,-669.96 413.14,-707.33"/>
<text text-anchor="middle" x="381.71" y="-700.8" font-family="Times,serif" font-size="14.00">n</text>
<text text-anchor="middle" x="381.71" y="-685.8" font-family="Times,serif" font-size="14.00">int</text>
</g>
<!-- n0_place_1&#45;&gt;n7_port_1 -->
<g id="edge22" class="edge">
<title>n0_place_1&#45;&gt;n7_port_1</title>
<path fill="none" stroke="black" d="M241.29,-697C267.85,-697 309.28,-697 340.08,-697"/>
<polygon fill="black" stroke="black" points="340.08,-700.5 350.08,-697 340.08,-693.5 340.08,-700.5"/>
</g>
<!-- n0_place_2 -->
<g id="node8" class="node">
<title>n0_place_2</title>
<ellipse fill="white" stroke="black" cx="966.21" cy="-529" rx="69.09" ry="26.74"/>
<text text-anchor="middle" x="966.21" y="-532.8" font-family="Times,serif" font-size="14.00">branchtype</text>
<text text-anchor="middle" x="966.21" y="-517.8" font-family="Times,serif" font-size="14.00">list</text>
</g>
<!-- n3_port_0 -->
<g id="node29" class="node">
<title>n3_port_0</title>
<polygon fill="white" stroke="black" points="1247.69,-467.33 1213.51,-490.43 1179.34,-467.33 1179.37,-429.96 1247.65,-429.96 1247.69,-467.33"/>
<text text-anchor="middle" x="1213.51" y="-460.8" font-family="Times,serif" font-size="14.00">a</text>
<text text-anchor="middle" x="1213.51" y="-445.8" font-family="Times,serif" font-size="14.00">list</text>
</g>
<!-- n0_place_2&#45;&gt;n3_port_0 -->
<g id="edge9" class="edge">
<title>n0_place_2&#45;&gt;n3_port_0</title>
<path fill="none" stroke="black" d="M1020.37,-512.16C1034.38,-507.8 1049.49,-503.16 1063.51,-499 1099.16,-488.42 1139.8,-477.01 1169.62,-468.76"/>
<polygon fill="black" stroke="black" points="1170.59,-472.12 1179.3,-466.08 1168.73,-465.37 1170.59,-472.12"/>
</g>
<!-- n4_port_0 -->
<g id="node34" class="node">
<title>n4_port_0</title>
<polygon fill="white" stroke="black" points="1247.69,-835.33 1213.51,-858.43 1179.34,-835.33 1179.37,-797.96 1247.65,-797.96 1247.69,-835.33"/>
<text text-anchor="middle" x="1213.51" y="-828.8" font-family="Times,serif" font-size="14.00">a</text>
<text text-anchor="middle" x="1213.51" y="-813.8" font-family="Times,serif" font-size="14.00">list</text>
</g>
<!-- n0_place_2&#45;&gt;n4_port_0 -->
<g id="edge12" class="edge">
<title>n0_place_2&#45;&gt;n4_port_0</title>
<path fill="none" stroke="black" d="M969.6,-556C975.64,-607.79 996.22,-721.36 1063.51,-783 1092.3,-809.37 1136.4,-819.34 1169.16,-823.03"/>
<polygon fill="black" stroke="black" points="1169.07,-826.53 1179.37,-824.02 1169.75,-819.57 1169.07,-826.53"/>
</g>
<!-- n0_place_3 -->
<g id="node9" class="node">
<title>n0_place_3</title>
<ellipse fill="white" stroke="black" cx="1450.2" cy="-557" rx="48.17" ry="26.74"/>
<text text-anchor="middle" x="1450.2" y="-560.8" font-family="Times,serif" font-size="14.00">fey_out</text>
<text text-anchor="middle" x="1450.2" y="-545.8" font-family="Times,serif" font-size="14.00">int</text>
</g>
<!-- n2_port_0 -->
<g id="node23" class="node">
<title>n2_port_0</title>
<polygon fill="white" stroke="black" points="1634.88,-907.33 1603.45,-930.43 1572.02,-907.33 1572.05,-869.96 1634.85,-869.96 1634.88,-907.33"/>
<text text-anchor="middle" x="1603.45" y="-900.8" font-family="Times,serif" font-size="14.00">a</text>
<text text-anchor="middle" x="1603.45" y="-885.8" font-family="Times,serif" font-size="14.00">int</text>
</g>
<!-- n0_place_3&#45;&gt;n2_port_0 -->
<g id="edge7" class="edge">
<title>n0_place_3&#45;&gt;n2_port_0</title>
<path fill="none" stroke="black" d="M1463.04,-582.96C1475.92,-612.12 1496.36,-661.11 1508.89,-705 1527.51,-770.21 1499,-798.75 1536.89,-855 1543.49,-864.8 1553.23,-872.8 1563.19,-879.09"/>
<polygon fill="black" stroke="black" points="1561.52,-882.17 1571.92,-884.18 1565.05,-876.13 1561.52,-882.17"/>
</g>
<!-- n6_port_0 -->
<g id="node43" class="node">
<title>n6_port_0</title>
<polygon fill="white" stroke="black" points="1634.88,-455.33 1603.45,-478.43 1572.02,-455.33 1572.05,-417.96 1634.85,-417.96 1634.88,-455.33"/>
<text text-anchor="middle" x="1603.45" y="-448.8" font-family="Times,serif" font-size="14.00">a</text>
<text text-anchor="middle" x="1603.45" y="-433.8" font-family="Times,serif" font-size="14.00">int</text>
</g>
<!-- n0_place_3&#45;&gt;n6_port_0 -->
<g id="edge18" class="edge">
<title>n0_place_3&#45;&gt;n6_port_0</title>
<path fill="none" stroke="black" d="M1477.69,-534.56C1494.36,-520.72 1516.51,-502.84 1536.89,-488 1547.29,-480.43 1558.95,-472.58 1569.52,-465.7"/>
<polygon fill="black" stroke="black" points="1571.59,-468.54 1578.09,-460.18 1567.79,-462.65 1571.59,-468.54"/>
</g>
<!-- n0_place_4 -->
<g id="node10" class="node">
<title>n0_place_4</title>
<ellipse fill="white" stroke="black" cx="562.81" cy="-613" rx="60.21" ry="26.74"/>
<text text-anchor="middle" x="562.81" y="-616.8" font-family="Times,serif" font-size="14.00">d_vectors</text>
<text text-anchor="middle" x="562.81" y="-601.8" font-family="Times,serif" font-size="14.00">list</text>
</g>
<!-- n5_port_0 -->
<g id="node39" class="node">
<title>n5_port_0</title>
<polygon fill="white" stroke="black" points="794.09,-623.33 759.92,-646.43 725.74,-623.33 725.78,-585.96 794.06,-585.96 794.09,-623.33"/>
<text text-anchor="middle" x="759.92" y="-616.8" font-family="Times,serif" font-size="14.00">v</text>
<text text-anchor="middle" x="759.92" y="-601.8" font-family="Times,serif" font-size="14.00">list</text>
</g>
<!-- n0_place_4&#45;&gt;n5_port_0 -->
<g id="edge15" class="edge">
<title>n0_place_4&#45;&gt;n5_port_0</title>
<path fill="none" stroke="black" d="M623.15,-613C652.84,-613 688.14,-613 715.31,-613"/>
<polygon fill="black" stroke="black" points="715.66,-616.5 725.66,-613 715.66,-609.5 715.66,-616.5"/>
</g>
<!-- n0_place_5 -->
<g id="node11" class="node">
<title>n0_place_5</title>
<ellipse fill="white" stroke="black" cx="1450.2" cy="-741" rx="33.47" ry="26.74"/>
<text text-anchor="middle" x="1450.2" y="-744.8" font-family="Times,serif" font-size="14.00">sign</text>
<text text-anchor="middle" x="1450.2" y="-729.8" font-family="Times,serif" font-size="14.00">int</text>
</g>
<!-- n1_port_1 -->
<g id="node18" class="node">
<title>n1_port_1</title>
<polygon fill="white" stroke="black" points="1857.94,-655.33 1826.51,-678.43 1795.08,-655.33 1795.11,-617.96 1857.91,-617.96 1857.94,-655.33"/>
<text text-anchor="middle" x="1826.51" y="-648.8" font-family="Times,serif" font-size="14.00">l</text>
<text text-anchor="middle" x="1826.51" y="-633.8" font-family="Times,serif" font-size="14.00">int</text>
</g>
<!-- n0_place_6&#45;&gt;n1_port_1 -->
<g id="edge3" class="edge">
<title>n0_place_6&#45;&gt;n1_port_1</title>
<path fill="none" stroke="black" d="M1728.2,-303.75C1734.13,-372.03 1751.99,-551.06 1780.01,-603 1782.2,-607.05 1784.92,-610.92 1787.94,-614.55"/>
<polygon fill="black" stroke="black" points="1785.58,-617.15 1794.95,-622.12 1790.72,-612.4 1785.58,-617.15"/>
</g>
<!-- n3_port_1 -->
<g id="node30" class="node">
<title>n3_port_1</title>
<polygon fill="white" stroke="black" points="1265.15,-551.33 1213.51,-574.43 1161.88,-551.33 1161.92,-513.96 1265.1,-513.96 1265.15,-551.33"/>
<text text-anchor="middle" x="1213.51" y="-544.8" font-family="Times,serif" font-size="14.00">G</text>
<text text-anchor="middle" x="1213.51" y="-529.8" font-family="Times,serif" font-size="14.00">string</text>
</g>
<!-- n0_place_7&#45;&gt;n3_port_1 -->
<g id="edge10" class="edge">
<title>n0_place_7&#45;&gt;n3_port_1</title>
<path fill="none" stroke="black" stroke-dasharray="5,2" d="M967.02,-881.98C968.08,-820.16 979.57,-667.34 1063.51,-584 1086.77,-560.91 1121.6,-550.05 1151.74,-545.02"/>
<polygon fill="black" stroke="black" points="1152.38,-548.46 1161.76,-543.53 1151.35,-541.54 1152.38,-548.46"/>
</g>
<!-- n4_port_1 -->
<g id="node35" class="node">
<title>n4_port_1</title>
<polygon fill="white" stroke="black" points="1265.15,-919.33 1213.51,-942.43 1161.88,-919.33 1161.92,-881.96 1265.1,-881.96 1265.15,-919.33"/>
<text text-anchor="middle" x="1213.51" y="-912.8" font-family="Times,serif" font-size="14.00">G</text>
<text text-anchor="middle" x="1213.51" y="-897.8" font-family="Times,serif" font-size="14.00">string</text>
</g>
<!-- n0_place_7&#45;&gt;n4_port_1 -->
<g id="edge13" class="edge">
<title>n0_place_7&#45;&gt;n4_port_1</title>
<path fill="none" stroke="black" stroke-dasharray="5,2" d="M1008,-909C1047.18,-909 1106.87,-909 1151.67,-909"/>
<polygon fill="black" stroke="black" points="1151.85,-912.5 1161.85,-909 1151.85,-905.5 1151.85,-912.5"/>
</g>
<!-- n0_place_8 -->
<g id="node14" class="node">
<title>n0_place_8</title>
<ellipse fill="white" stroke="black" cx="1450.2" cy="-418" rx="50.41" ry="37.45"/>
<text text-anchor="middle" x="1450.2" y="-429.3" font-family="Times,serif" font-size="14.00">left_init</text>
<text text-anchor="middle" x="1450.2" y="-414.3" font-family="Times,serif" font-size="14.00">control</text>
<text text-anchor="middle" x="1450.2" y="-399.3" font-family="Times,serif" font-size="14.00">[]</text>
</g>
<!-- n6_port_1 -->
<g id="node44" class="node">
<title>n6_port_1</title>
<polygon fill="white" stroke="black" points="1662.07,-371.33 1603.45,-394.43 1544.83,-371.33 1544.89,-333.96 1662.02,-333.96 1662.07,-371.33"/>
<text text-anchor="middle" x="1603.45" y="-364.8" font-family="Times,serif" font-size="14.00">s</text>
<text text-anchor="middle" x="1603.45" y="-349.8" font-family="Times,serif" font-size="14.00">control</text>
</g>
<!-- n0_place_8&#45;&gt;n6_port_1 -->
<g id="edge19" class="edge">
<title>n0_place_8&#45;&gt;n6_port_1</title>
<path fill="none" stroke="black" d="M1495.36,-401.36C1512.42,-394.93 1532.1,-387.51 1549.88,-380.81"/>
<polygon fill="black" stroke="black" points="1551.42,-383.97 1559.55,-377.17 1548.95,-377.42 1551.42,-383.97"/>
</g>
<!-- n0_place_9 -->
<g id="node15" class="node">
<title>n0_place_9</title>
<ellipse fill="white" stroke="black" cx="1450.2" cy="-264" rx="58.88" ry="26.74"/>
<text text-anchor="middle" x="1450.2" y="-267.8" font-family="Times,serif" font-size="14.00">right_init</text>
<text text-anchor="middle" x="1450.2" y="-252.8" font-family="Times,serif" font-size="14.00">control</text>
</g>
<!-- n2_port_1 -->
<g id="node24" class="node">
<title>n2_port_1</title>
<polygon fill="white" stroke="black" points="1662.07,-655.33 1603.45,-678.43 1544.83,-655.33 1544.89,-617.96 1662.02,-617.96 1662.07,-655.33"/>
<text text-anchor="middle" x="1603.45" y="-648.8" font-family="Times,serif" font-size="14.00">s</text>
<text text-anchor="middle" x="1603.45" y="-633.8" font-family="Times,serif" font-size="14.00">control</text>
</g>
<!-- n0_place_9&#45;&gt;n2_port_1 -->
<g id="edge6" class="edge">
<title>n0_place_9&#45;&gt;n2_port_1</title>
<path fill="none" stroke="black" d="M1468.56,-289.86C1481.86,-311.01 1499.49,-342.2 1508.89,-372 1540.01,-470.63 1481.88,-515.42 1536.89,-603 1538.51,-605.58 1540.35,-608.02 1542.36,-610.34"/>
<polygon fill="black" stroke="black" points="1540.23,-613.16 1549.78,-617.76 1545.18,-608.21 1540.23,-613.16"/>
</g>
<!-- n0_place_10 -->
<g id="node16" class="node">
<title>n0_place_10</title>
<ellipse fill="white" stroke="black" cx="1725.01" cy="-729" rx="27" ry="26.74"/>
<text text-anchor="middle" x="1725.01" y="-732.8" font-family="Times,serif" font-size="14.00">R</text>
<text text-anchor="middle" x="1725.01" y="-717.8" font-family="Times,serif" font-size="14.00">int</text>
</g>
<!-- n1_port_2 -->
<g id="node19" class="node">
<title>n1_port_2</title>
<polygon fill="white" stroke="black" points="1857.94,-739.33 1826.51,-762.43 1795.08,-739.33 1795.11,-701.96 1857.91,-701.96 1857.94,-739.33"/>
<text text-anchor="middle" x="1826.51" y="-732.8" font-family="Times,serif" font-size="14.00">r</text>
<text text-anchor="middle" x="1826.51" y="-717.8" font-family="Times,serif" font-size="14.00">int</text>
</g>
<!-- n0_place_10&#45;&gt;n1_port_2 -->
<g id="edge2" class="edge">
<title>n0_place_10&#45;&gt;n1_port_2</title>
<path fill="none" stroke="black" d="M1752.15,-729C1762.1,-729 1773.69,-729 1784.68,-729"/>
<polygon fill="black" stroke="black" points="1784.96,-732.5 1794.96,-729 1784.96,-725.5 1784.96,-732.5"/>
</g>
<!-- n1_condition -->
<g id="node17" class="node">
<title>n1_condition</title>
<polygon fill="white" stroke="black" points="1792.01,-865 1792.01,-901 1861.01,-901 1861.01,-865 1792.01,-865"/>
<text text-anchor="middle" x="1826.51" y="-879.3" font-family="Times,serif" font-size="14.00">Reduce</text>
</g>
<!-- n1_port_0 -->
<g id="node20" class="node">
<title>n1_port_0</title>
<polygon fill="white" stroke="black" points="1795.08,-802.67 1826.51,-779.57 1857.94,-802.67 1857.91,-840.04 1795.11,-840.04 1795.08,-802.67"/>
<text text-anchor="middle" x="1826.51" y="-816.8" font-family="Times,serif" font-size="14.00">s</text>
<text text-anchor="middle" x="1826.51" y="-801.8" font-family="Times,serif" font-size="14.00">int</text>
</g>
<!-- n1_port_0&#45;&gt;n0_place_3 -->
<g id="edge1" class="edge">
<title>n1_port_0&#45;&gt;n0_place_3</title>
<path fill="none" stroke="black" d="M1795.49,-840.12C1790.19,-845.25 1784.83,-850.69 1780.01,-856 1726.4,-915.15 1741.69,-962.86 1670.01,-998 1616.89,-1024.05 1580.67,-1037.8 1536.89,-998 1488.49,-954 1524.02,-768.63 1508.89,-705 1499.43,-665.23 1481.58,-621.89 1468.23,-592.45"/>
<polygon fill="black" stroke="black" points="1471.26,-590.65 1463.9,-583.03 1464.9,-593.57 1471.26,-590.65"/>
</g>
<!-- n1_modcall -->
<g id="node21" class="node">
<title>n1_modcall</title>
<polygon fill="white" stroke="black" points="1865.01,-594 1788.01,-594 1788.01,-558 1865.01,-558 1865.01,-594"/>
<text text-anchor="middle" x="1826.51" y="-572.3" font-family="Times,serif" font-size="14.00">sum.add</text>
</g>
<!-- n2_condition -->
<g id="node22" class="node">
<title>n2_condition</title>
<polygon fill="white" stroke="black" points="1576.45,-949 1576.45,-985 1630.45,-985 1630.45,-949 1576.45,-949"/>
<text text-anchor="middle" x="1603.45" y="-963.3" font-family="Times,serif" font-size="14.00">RHS</text>
</g>
<!-- n2_port_2 -->
<g id="node25" class="node">
<title>n2_port_2</title>
<polygon fill="white" stroke="black" points="1572.02,-718.67 1603.45,-695.57 1634.88,-718.67 1634.85,-756.04 1572.05,-756.04 1572.02,-718.67"/>
<text text-anchor="middle" x="1603.45" y="-732.8" font-family="Times,serif" font-size="14.00">a</text>
<text text-anchor="middle" x="1603.45" y="-717.8" font-family="Times,serif" font-size="14.00">int</text>
</g>
<!-- n2_port_2&#45;&gt;n0_place_10 -->
<g id="edge4" class="edge">
<title>n2_port_2&#45;&gt;n0_place_10</title>
<path fill="none" stroke="black" d="M1634.93,-729C1650.97,-729 1670.76,-729 1687.6,-729"/>
<polygon fill="black" stroke="black" points="1687.65,-732.5 1697.65,-729 1687.65,-725.5 1687.65,-732.5"/>
</g>
<!-- n2_port_3 -->
<g id="node26" class="node">
<title>n2_port_3</title>
<polygon fill="white" stroke="black" points="1544.83,-802.67 1603.45,-779.57 1662.07,-802.67 1662.02,-840.04 1544.89,-840.04 1544.83,-802.67"/>
<text text-anchor="middle" x="1603.45" y="-816.8" font-family="Times,serif" font-size="14.00">s</text>
<text text-anchor="middle" x="1603.45" y="-801.8" font-family="Times,serif" font-size="14.00">control</text>
</g>
<!-- n2_port_3&#45;&gt;n0_place_8 -->
<g id="edge5" class="edge">
<title>n2_port_3&#45;&gt;n0_place_8</title>
<path fill="none" stroke="black" d="M1562.92,-795.53C1552.88,-789.22 1543.17,-781.1 1536.89,-771 1477.85,-676.05 1543.11,-627.44 1508.89,-521 1502.04,-499.7 1490.55,-477.85 1479.62,-459.77"/>
<polygon fill="black" stroke="black" points="1482.56,-457.88 1474.32,-451.23 1476.61,-461.57 1482.56,-457.88"/>
</g>
<!-- n2_modcall -->
<g id="node27" class="node">
<title>n2_modcall</title>
<polygon fill="white" stroke="black" points="1648.95,-594 1557.95,-594 1557.95,-558 1648.95,-558 1648.95,-594"/>
<text text-anchor="middle" x="1603.45" y="-572.3" font-family="Times,serif" font-size="14.00">token.plus</text>
</g>
<!-- n3_condition -->
<g id="node28" class="node">
<title>n3_condition</title>
<polygon fill="white" stroke="black" points="1146.51,-593 1146.51,-629 1280.51,-629 1280.51,-593 1146.51,-593"/>
<text text-anchor="middle" x="1213.51" y="-607.3" font-family="Times,serif" font-size="14.00">feynman_degree</text>
</g>
<!-- n3_port_2 -->
<g id="node31" class="node">
<title>n3_port_2</title>
<polygon fill="white" stroke="black" points="1182.08,-362.67 1213.51,-339.57 1244.94,-362.67 1244.91,-400.04 1182.11,-400.04 1182.08,-362.67"/>
<text text-anchor="middle" x="1213.51" y="-376.8" font-family="Times,serif" font-size="14.00">s</text>
<text text-anchor="middle" x="1213.51" y="-361.8" font-family="Times,serif" font-size="14.00">int</text>
</g>
<!-- n3_port_2&#45;&gt;n0_place_3 -->
<g id="edge8" class="edge">
<title>n3_port_2&#45;&gt;n0_place_3</title>
<path fill="none" stroke="black" d="M1244.95,-374.86C1277.4,-378.26 1328.78,-387.86 1363.51,-415 1383.28,-430.44 1378.68,-442.45 1391.51,-464 1403.19,-483.6 1416.6,-505.27 1427.55,-522.76"/>
<polygon fill="black" stroke="black" points="1424.75,-524.89 1433.03,-531.49 1430.68,-521.16 1424.75,-524.89"/>
</g>
<!-- n3_modcall -->
<g id="node32" class="node">
<title>n3_modcall</title>
<polygon fill="white" stroke="black" points="1345.01,-322 1082.01,-322 1082.01,-286 1345.01,-286 1345.01,-322"/>
<text text-anchor="middle" x="1213.51" y="-300.3" font-family="Times,serif" font-size="14.00">feynman.feynman_integral_degree</text>
</g>
<!-- n4_condition -->
<g id="node33" class="node">
<title>n4_condition</title>
<polygon fill="white" stroke="black" points="1171.01,-961 1171.01,-997 1256.01,-997 1256.01,-961 1171.01,-961"/>
<text text-anchor="middle" x="1213.51" y="-975.3" font-family="Times,serif" font-size="14.00">signature</text>
</g>
<!-- n4_port_2 -->
<g id="node36" class="node">
<title>n4_port_2</title>
<polygon fill="white" stroke="black" points="1182.08,-730.67 1213.51,-707.57 1244.94,-730.67 1244.91,-768.04 1182.11,-768.04 1182.08,-730.67"/>
<text text-anchor="middle" x="1213.51" y="-744.8" font-family="Times,serif" font-size="14.00">s</text>
<text text-anchor="middle" x="1213.51" y="-729.8" font-family="Times,serif" font-size="14.00">int</text>
</g>
<!-- n4_port_2&#45;&gt;n0_place_5 -->
<g id="edge11" class="edge">
<title>n4_port_2&#45;&gt;n0_place_5</title>
<path fill="none" stroke="black" d="M1245.19,-741C1286.43,-741 1359.93,-741 1406.54,-741"/>
<polygon fill="black" stroke="black" points="1406.63,-744.5 1416.63,-741 1406.63,-737.5 1406.63,-744.5"/>
</g>
<!-- n4_modcall -->
<g id="node37" class="node">
<title>n4_modcall</title>
<polygon fill="white" stroke="black" points="1355.51,-690 1071.51,-690 1071.51,-654 1355.51,-654 1355.51,-690"/>
<text text-anchor="middle" x="1213.51" y="-668.3" font-family="Times,serif" font-size="14.00">signature.signature_and_multiplicitie</text>
</g>
<!-- n5_condition -->
<g id="node38" class="node">
<title>n5_condition</title>
<polygon fill="white" stroke="black" points="706.42,-665 706.42,-701 813.42,-701 813.42,-665 706.42,-665"/>
<text text-anchor="middle" x="759.92" y="-679.3" font-family="Times,serif" font-size="14.00">Combination</text>
</g>
<!-- n5_port_1 -->
<g id="node40" class="node">
<title>n5_port_1</title>
<polygon fill="white" stroke="black" points="724.25,-518.67 759.92,-495.57 795.59,-518.67 795.56,-556.04 724.28,-556.04 724.25,-518.67"/>
<text text-anchor="middle" x="759.92" y="-532.8" font-family="Times,serif" font-size="14.00">vec</text>
<text text-anchor="middle" x="759.92" y="-517.8" font-family="Times,serif" font-size="14.00">list</text>
</g>
<!-- n5_port_1&#45;&gt;n0_place_2 -->
<g id="edge14" class="edge">
<title>n5_port_1&#45;&gt;n0_place_2</title>
<path fill="none" stroke="black" d="M796.04,-527C820.95,-527 855.39,-527 886.69,-527"/>
<path fill="none" stroke="transparent" d="M796.04,-529C820.95,-529 855.39,-529 886.69,-529"/>
<path fill="none" stroke="black" d="M796.04,-531C820.95,-531 855.39,-531 886.69,-531"/>
<polygon fill="black" stroke="black" points="886.73,-532.5 896.73,-529 886.73,-525.5 886.73,-532.5"/>
</g>
<!-- n5_modcall -->
<g id="node41" class="node">
<title>n5_modcall</title>
<polygon fill="white" stroke="black" points="860.92,-478 658.92,-478 658.92,-442 860.92,-442 860.92,-478"/>
<text text-anchor="middle" x="759.92" y="-456.3" font-family="Times,serif" font-size="14.00">combination_vec.partition</text>
</g>
<!-- n6_condition -->
<g id="node42" class="node">
<title>n6_condition</title>
<polygon fill="white" stroke="black" points="1576.45,-497 1576.45,-533 1630.45,-533 1630.45,-497 1576.45,-497"/>
<text text-anchor="middle" x="1603.45" y="-511.3" font-family="Times,serif" font-size="14.00">LHS</text>
</g>
<!-- n6_port_2 -->
<g id="node45" class="node">
<title>n6_port_2</title>
<polygon fill="white" stroke="black" points="1572.02,-266.67 1603.45,-243.57 1634.88,-266.67 1634.85,-304.04 1572.05,-304.04 1572.02,-266.67"/>
<text text-anchor="middle" x="1603.45" y="-280.8" font-family="Times,serif" font-size="14.00">a</text>
<text text-anchor="middle" x="1603.45" y="-265.8" font-family="Times,serif" font-size="14.00">int</text>
</g>
<!-- n6_port_2&#45;&gt;n0_place_6 -->
<g id="edge16" class="edge">
<title>n6_port_2&#45;&gt;n0_place_6</title>
<path fill="none" stroke="black" d="M1634.93,-277C1650.97,-277 1670.76,-277 1687.6,-277"/>
<polygon fill="black" stroke="black" points="1687.65,-280.5 1697.65,-277 1687.65,-273.5 1687.65,-280.5"/>
</g>
<!-- n6_port_3 -->
<g id="node46" class="node">
<title>n6_port_3</title>
<polygon fill="white" stroke="black" points="1544.83,-182.67 1603.45,-159.57 1662.07,-182.67 1662.02,-220.04 1544.89,-220.04 1544.83,-182.67"/>
<text text-anchor="middle" x="1603.45" y="-196.8" font-family="Times,serif" font-size="14.00">s</text>
<text text-anchor="middle" x="1603.45" y="-181.8" font-family="Times,serif" font-size="14.00">control</text>
</g>
<!-- n6_port_3&#45;&gt;n0_place_9 -->
<g id="edge17" class="edge">
<title>n6_port_3&#45;&gt;n0_place_9</title>
<path fill="none" stroke="black" d="M1544.75,-220.09C1530.39,-226.83 1515.11,-234 1501.15,-240.55"/>
<polygon fill="black" stroke="black" points="1499.3,-237.56 1491.73,-244.97 1502.27,-243.89 1499.3,-237.56"/>
</g>
<!-- n6_modcall -->
<g id="node47" class="node">
<title>n6_modcall</title>
<polygon fill="white" stroke="black" points="1653.95,-142 1552.95,-142 1552.95,-106 1653.95,-106 1653.95,-142"/>
<text text-anchor="middle" x="1603.45" y="-120.3" font-family="Times,serif" font-size="14.00">token.count</text>
</g>
<!-- n7_condition -->
<g id="node48" class="node">
<title>n7_condition</title>
<polygon fill="white" stroke="black" points="342.21,-833 342.21,-869 421.21,-869 421.21,-833 342.21,-833"/>
<text text-anchor="middle" x="381.71" y="-847.3" font-family="Times,serif" font-size="14.00">partition</text>
</g>
<!-- n7_port_2 -->
<g id="node51" class="node">
<title>n7_port_2</title>
<polygon fill="white" stroke="black" points="347.54,-602.67 381.71,-579.57 415.89,-602.67 415.85,-640.04 347.57,-640.04 347.54,-602.67"/>
<text text-anchor="middle" x="381.71" y="-616.8" font-family="Times,serif" font-size="14.00">v</text>
<text text-anchor="middle" x="381.71" y="-601.8" font-family="Times,serif" font-size="14.00">list</text>
</g>
<!-- n7_port_2&#45;&gt;n0_place_4 -->
<g id="edge20" class="edge">
<title>n7_port_2&#45;&gt;n0_place_4</title>
<path fill="none" stroke="black" d="M415.98,-611C437.41,-611 466.08,-611 492.33,-611"/>
<path fill="none" stroke="transparent" d="M415.98,-613C437.41,-613 466.08,-613 492.33,-613"/>
<path fill="none" stroke="black" d="M415.98,-615C437.41,-615 466.08,-615 492.33,-615"/>
<polygon fill="black" stroke="black" points="492.63,-616.5 502.63,-613 492.63,-609.5 492.63,-616.5"/>
</g>
<!-- n7_modcall -->
<g id="node52" class="node">
<title>n7_modcall</title>
<polygon fill="white" stroke="black" points="466.71,-562 296.71,-562 296.71,-526 466.71,-526 466.71,-562"/>
<text text-anchor="middle" x="381.71" y="-540.3" font-family="Times,serif" font-size="14.00">sum_degree.sum_deg</text>
</g>
</g>
</svg>
