<?xml version="1.0" encoding="UTF-8" standalone="no"?>
<!DOCTYPE svg PUBLIC "-//W3C//DTD SVG 1.1//EN"
 "http://www.w3.org/Graphics/SVG/1.1/DTD/svg11.dtd">
<!-- Generated by graphviz version 2.43.0 (0)
 -->
<!-- Title: feynman_deg Pages: 1 -->
<svg width="2396pt" height="602pt"
 viewBox="0.00 0.00 2395.97 602.00" xmlns="http://www.w3.org/2000/svg" xmlns:xlink="http://www.w3.org/1999/xlink">
<g id="graph0" class="graph" transform="scale(1 1) rotate(0) translate(4 598)">
<title>feynman_deg</title>
<polygon fill="white" stroke="transparent" points="-4,4 -4,-598 2391.97,-598 2391.97,4 -4,4"/>
<g id="clust1" class="cluster">
<title>cluster_0</title>
<polygon fill="dimgray" stroke="black" points="8,-8 8,-586 2379.97,-586 2379.97,-8 8,-8"/>
</g>
<g id="clust2" class="cluster">
<title>cluster_net_0</title>
<polygon fill="white" stroke="black" points="159.37,-116 159.37,-504 2371.97,-504 2371.97,-116 159.37,-116"/>
</g>
<g id="clust3" class="cluster">
<title>cluster_1</title>
<polygon fill="yellow" stroke="black" points="2143.44,-124 2143.44,-484 2363.97,-484 2363.97,-124 2143.44,-124"/>
</g>
<g id="clust4" class="cluster">
<title>cluster_2</title>
<polygon fill="yellow" stroke="black" points="1582.98,-136 1582.98,-496 1921.98,-496 1921.98,-136 1582.98,-136"/>
</g>
<g id="clust5" class="cluster">
<title>cluster_3</title>
<polygon fill="yellow" stroke="black" points="1100.51,-124 1100.51,-484 1460.51,-484 1460.51,-124 1100.51,-124"/>
</g>
<g id="clust6" class="cluster">
<title>cluster_4</title>
<polygon fill="yellow" stroke="black" points="685.92,-166 685.92,-442 905.92,-442 905.92,-166 685.92,-166"/>
</g>
<g id="clust7" class="cluster">
<title>cluster_5</title>
<polygon fill="yellow" stroke="black" points="288.71,-136 288.71,-496 509.71,-496 509.71,-136 288.71,-136"/>
</g>
<!-- n0_condition -->
<g id="node1" class="node">
<title>n0_condition</title>
<polygon fill="white" stroke="black" points="18.19,-496 18.19,-532 129.19,-532 129.19,-496 18.19,-496"/>
<text text-anchor="middle" x="73.69" y="-510.3" font-family="Times,serif" font-size="14.00">feynman_deg</text>
</g>
<!-- n0_port_0 -->
<g id="node2" class="node">
<title>n0_port_0</title>
<polygon fill="white" stroke="black" points="131.56,-409.33 73.69,-432.43 15.81,-409.33 15.87,-371.96 131.5,-371.96 131.56,-409.33"/>
<text text-anchor="middle" x="73.69" y="-402.8" font-family="Times,serif" font-size="14.00">degree</text>
<text text-anchor="middle" x="73.69" y="-387.8" font-family="Times,serif" font-size="14.00">int</text>
</g>
<!-- n0_place_0 -->
<g id="node6" class="node">
<title>n0_place_0</title>
<ellipse fill="white" stroke="black" cx="214.04" cy="-399" rx="46.84" ry="26.74"/>
<text text-anchor="middle" x="214.04" y="-402.8" font-family="Times,serif" font-size="14.00">degree</text>
<text text-anchor="middle" x="214.04" y="-387.8" font-family="Times,serif" font-size="14.00">int</text>
</g>
<!-- n0_port_0&#45;&gt;n0_place_0 -->
<g id="edge15" class="edge">
<title>n0_port_0&#45;&gt;n0_place_0</title>
<path fill="none" stroke="black" stroke-dasharray="1,5" d="M131.76,-399C143.52,-399 155.76,-399 167.07,-399"/>
</g>
<!-- n0_port_1 -->
<g id="node3" class="node">
<title>n0_port_1</title>
<polygon fill="white" stroke="black" points="105.12,-325.33 73.69,-348.43 42.26,-325.33 42.29,-287.96 105.09,-287.96 105.12,-325.33"/>
<text text-anchor="middle" x="73.69" y="-318.8" font-family="Times,serif" font-size="14.00">N</text>
<text text-anchor="middle" x="73.69" y="-303.8" font-family="Times,serif" font-size="14.00">int</text>
</g>
<!-- n0_place_1 -->
<g id="node7" class="node">
<title>n0_place_1</title>
<ellipse fill="white" stroke="black" cx="214.04" cy="-315" rx="27" ry="26.74"/>
<text text-anchor="middle" x="214.04" y="-318.8" font-family="Times,serif" font-size="14.00">N</text>
<text text-anchor="middle" x="214.04" y="-303.8" font-family="Times,serif" font-size="14.00">int</text>
</g>
<!-- n0_port_1&#45;&gt;n0_place_1 -->
<g id="edge16" class="edge">
<title>n0_port_1&#45;&gt;n0_place_1</title>
<path fill="none" stroke="black" stroke-dasharray="1,5" d="M105.39,-315C129.75,-315 163.45,-315 186.62,-315"/>
</g>
<!-- n0_port_2 -->
<g id="node4" class="node">
<title>n0_port_2</title>
<polygon fill="white" stroke="black" points="847.55,-555.33 795.92,-578.43 744.28,-555.33 744.33,-517.96 847.51,-517.96 847.55,-555.33"/>
<text text-anchor="middle" x="795.92" y="-548.8" font-family="Times,serif" font-size="14.00">graph</text>
<text text-anchor="middle" x="795.92" y="-533.8" font-family="Times,serif" font-size="14.00">list</text>
</g>
<!-- n0_place_7 -->
<g id="node13" class="node">
<title>n0_place_7</title>
<ellipse fill="white" stroke="black" cx="1003.21" cy="-469" rx="41.94" ry="26.74"/>
<text text-anchor="middle" x="1003.21" y="-472.8" font-family="Times,serif" font-size="14.00">graph</text>
<text text-anchor="middle" x="1003.21" y="-457.8" font-family="Times,serif" font-size="14.00">list</text>
</g>
<!-- n0_port_2&#45;&gt;n0_place_7 -->
<g id="edge17" class="edge">
<title>n0_port_2&#45;&gt;n0_place_7</title>
<path fill="none" stroke="black" stroke-dasharray="1,5" d="M847.67,-526.21C884.59,-512.54 933.68,-494.37 966.53,-482.21"/>
</g>
<!-- n0_port_3 -->
<g id="node5" class="node">
<title>n0_port_3</title>
<polygon fill="white" stroke="black" points="1650.46,-47.74 1752.48,-15.85 1854.5,-47.74 1854.41,-99.33 1650.55,-99.33 1650.46,-47.74"/>
<text text-anchor="middle" x="1752.48" y="-73.3" font-family="Times,serif" font-size="14.00">sum</text>
<text text-anchor="middle" x="1752.48" y="-58.3" font-family="Times,serif" font-size="14.00">unsigned long</text>
<text text-anchor="middle" x="1752.48" y="-43.3" font-family="Times,serif" font-size="14.00">0UL</text>
</g>
<!-- n0_place_3 -->
<g id="node9" class="node">
<title>n0_place_3</title>
<ellipse fill="white" stroke="black" cx="2032.71" cy="-219" rx="82.96" ry="37.45"/>
<text text-anchor="middle" x="2032.71" y="-230.3" font-family="Times,serif" font-size="14.00">sum</text>
<text text-anchor="middle" x="2032.71" y="-215.3" font-family="Times,serif" font-size="14.00">unsigned long</text>
<text text-anchor="middle" x="2032.71" y="-200.3" font-family="Times,serif" font-size="14.00">0UL</text>
</g>
<!-- n0_port_3&#45;&gt;n0_place_3 -->
<g id="edge18" class="edge">
<title>n0_port_3&#45;&gt;n0_place_3</title>
<path fill="none" stroke="black" stroke-dasharray="1,5" d="M1854.59,-98.66C1877.34,-108.36 1900.96,-119.63 1921.98,-132 1947.75,-147.17 1974.09,-167.85 1994.5,-185.24"/>
</g>
<!-- n5_port_0 -->
<g id="node34" class="node">
<title>n5_port_0</title>
<polygon fill="white" stroke="black" points="430.64,-409.33 399.21,-432.43 367.78,-409.33 367.81,-371.96 430.61,-371.96 430.64,-409.33"/>
<text text-anchor="middle" x="399.21" y="-402.8" font-family="Times,serif" font-size="14.00">d</text>
<text text-anchor="middle" x="399.21" y="-387.8" font-family="Times,serif" font-size="14.00">int</text>
</g>
<!-- n0_place_0&#45;&gt;n5_port_0 -->
<g id="edge13" class="edge">
<title>n0_place_0&#45;&gt;n5_port_0</title>
<path fill="none" stroke="black" d="M260.79,-399C290.52,-399 328.93,-399 357.58,-399"/>
<polygon fill="black" stroke="black" points="357.66,-402.5 367.66,-399 357.66,-395.5 357.66,-402.5"/>
</g>
<!-- n5_port_1 -->
<g id="node35" class="node">
<title>n5_port_1</title>
<polygon fill="white" stroke="black" points="430.64,-325.33 399.21,-348.43 367.78,-325.33 367.81,-287.96 430.61,-287.96 430.64,-325.33"/>
<text text-anchor="middle" x="399.21" y="-318.8" font-family="Times,serif" font-size="14.00">n</text>
<text text-anchor="middle" x="399.21" y="-303.8" font-family="Times,serif" font-size="14.00">int</text>
</g>
<!-- n0_place_1&#45;&gt;n5_port_1 -->
<g id="edge14" class="edge">
<title>n0_place_1&#45;&gt;n5_port_1</title>
<path fill="none" stroke="black" d="M241.28,-315C271.72,-315 322.23,-315 357.71,-315"/>
<polygon fill="black" stroke="black" points="357.74,-318.5 367.74,-315 357.74,-311.5 357.74,-318.5"/>
</g>
<!-- n0_place_2 -->
<g id="node8" class="node">
<title>n0_place_2</title>
<ellipse fill="white" stroke="black" cx="1003.21" cy="-282" rx="69.09" ry="26.74"/>
<text text-anchor="middle" x="1003.21" y="-285.8" font-family="Times,serif" font-size="14.00">branchtype</text>
<text text-anchor="middle" x="1003.21" y="-270.8" font-family="Times,serif" font-size="14.00">list</text>
</g>
<!-- n3_port_0 -->
<g id="node25" class="node">
<title>n3_port_0</title>
<polygon fill="white" stroke="black" points="1314.69,-313.33 1280.51,-336.43 1246.34,-313.33 1246.37,-275.96 1314.65,-275.96 1314.69,-313.33"/>
<text text-anchor="middle" x="1280.51" y="-306.8" font-family="Times,serif" font-size="14.00">a</text>
<text text-anchor="middle" x="1280.51" y="-291.8" font-family="Times,serif" font-size="14.00">list</text>
</g>
<!-- n0_place_2&#45;&gt;n3_port_0 -->
<g id="edge8" class="edge">
<title>n0_place_2&#45;&gt;n3_port_0</title>
<path fill="none" stroke="black" d="M1071.56,-287.14C1122.84,-291.05 1191.93,-296.32 1236.1,-299.69"/>
<polygon fill="black" stroke="black" points="1235.99,-303.19 1246.22,-300.46 1236.52,-296.21 1235.99,-303.19"/>
</g>
<!-- n1_port_1 -->
<g id="node16" class="node">
<title>n1_port_1</title>
<polygon fill="white" stroke="black" points="2355.73,-313.33 2253.7,-336.43 2151.68,-313.33 2151.78,-275.96 2355.63,-275.96 2355.73,-313.33"/>
<text text-anchor="middle" x="2253.7" y="-306.8" font-family="Times,serif" font-size="14.00">sum</text>
<text text-anchor="middle" x="2253.7" y="-291.8" font-family="Times,serif" font-size="14.00">unsigned long</text>
</g>
<!-- n0_place_3&#45;&gt;n1_port_1 -->
<g id="edge2" class="edge">
<title>n0_place_3&#45;&gt;n1_port_1</title>
<path fill="none" stroke="black" d="M2096.47,-243.07C2120.11,-252.14 2147.34,-262.59 2172.38,-272.19"/>
<polygon fill="black" stroke="black" points="2171.26,-275.51 2181.85,-275.82 2173.77,-268.97 2171.26,-275.51"/>
</g>
<!-- n0_place_4 -->
<g id="node10" class="node">
<title>n0_place_4</title>
<ellipse fill="white" stroke="black" cx="2032.71" cy="-344" rx="82.96" ry="26.74"/>
<text text-anchor="middle" x="2032.71" y="-347.8" font-family="Times,serif" font-size="14.00">fey_out</text>
<text text-anchor="middle" x="2032.71" y="-332.8" font-family="Times,serif" font-size="14.00">unsigned long</text>
</g>
<!-- n1_port_0 -->
<g id="node15" class="node">
<title>n1_port_0</title>
<polygon fill="white" stroke="black" points="2355.73,-397.33 2253.7,-420.43 2151.68,-397.33 2151.78,-359.96 2355.63,-359.96 2355.73,-397.33"/>
<text text-anchor="middle" x="2253.7" y="-390.8" font-family="Times,serif" font-size="14.00">s</text>
<text text-anchor="middle" x="2253.7" y="-375.8" font-family="Times,serif" font-size="14.00">unsigned long</text>
</g>
<!-- n0_place_4&#45;&gt;n1_port_0 -->
<g id="edge3" class="edge">
<title>n0_place_4&#45;&gt;n1_port_0</title>
<path fill="none" stroke="black" d="M2103.91,-357.78C2115.85,-360.13 2128.51,-362.61 2141.21,-365.11"/>
<polygon fill="black" stroke="black" points="2140.91,-368.62 2151.39,-367.11 2142.26,-361.75 2140.91,-368.62"/>
</g>
<!-- n0_place_5 -->
<g id="node11" class="node">
<title>n0_place_5</title>
<ellipse fill="white" stroke="black" cx="597.81" cy="-288" rx="60.21" ry="26.74"/>
<text text-anchor="middle" x="597.81" y="-291.8" font-family="Times,serif" font-size="14.00">d_vectors</text>
<text text-anchor="middle" x="597.81" y="-276.8" font-family="Times,serif" font-size="14.00">list</text>
</g>
<!-- n4_port_0 -->
<g id="node30" class="node">
<title>n4_port_0</title>
<polygon fill="white" stroke="black" points="830.09,-355.33 795.92,-378.43 761.74,-355.33 761.78,-317.96 830.06,-317.96 830.09,-355.33"/>
<text text-anchor="middle" x="795.92" y="-348.8" font-family="Times,serif" font-size="14.00">v</text>
<text text-anchor="middle" x="795.92" y="-333.8" font-family="Times,serif" font-size="14.00">list</text>
</g>
<!-- n0_place_5&#45;&gt;n4_port_0 -->
<g id="edge11" class="edge">
<title>n0_place_5&#45;&gt;n4_port_0</title>
<path fill="none" stroke="black" d="M648.55,-302.46C680.36,-311.7 721.21,-323.58 751.67,-332.43"/>
<polygon fill="black" stroke="black" points="750.99,-335.88 761.57,-335.31 752.95,-329.16 750.99,-335.88"/>
</g>
<!-- n0_place_6 -->
<g id="node12" class="node">
<title>n0_place_6</title>
<ellipse fill="white" stroke="black" cx="1521.75" cy="-267" rx="33.47" ry="26.74"/>
<text text-anchor="middle" x="1521.75" y="-270.8" font-family="Times,serif" font-size="14.00">sign</text>
<text text-anchor="middle" x="1521.75" y="-255.8" font-family="Times,serif" font-size="14.00">list</text>
</g>
<!-- n2_port_0 -->
<g id="node20" class="node">
<title>n2_port_0</title>
<polygon fill="white" stroke="black" points="1786.65,-325.33 1752.48,-348.43 1718.3,-325.33 1718.34,-287.96 1786.62,-287.96 1786.65,-325.33"/>
<text text-anchor="middle" x="1752.48" y="-318.8" font-family="Times,serif" font-size="14.00">a</text>
<text text-anchor="middle" x="1752.48" y="-303.8" font-family="Times,serif" font-size="14.00">list</text>
</g>
<!-- n0_place_6&#45;&gt;n2_port_0 -->
<g id="edge5" class="edge">
<title>n0_place_6&#45;&gt;n2_port_0</title>
<path fill="none" stroke="black" d="M1554.07,-273.57C1594.03,-281.96 1663.32,-296.5 1708.27,-305.93"/>
<polygon fill="black" stroke="black" points="1707.81,-309.41 1718.31,-308.04 1709.24,-302.56 1707.81,-309.41"/>
</g>
<!-- n2_port_1 -->
<g id="node21" class="node">
<title>n2_port_1</title>
<polygon fill="white" stroke="black" points="1786.65,-409.33 1752.48,-432.43 1718.3,-409.33 1718.34,-371.96 1786.62,-371.96 1786.65,-409.33"/>
<text text-anchor="middle" x="1752.48" y="-402.8" font-family="Times,serif" font-size="14.00">G</text>
<text text-anchor="middle" x="1752.48" y="-387.8" font-family="Times,serif" font-size="14.00">list</text>
</g>
<!-- n0_place_7&#45;&gt;n2_port_1 -->
<g id="edge6" class="edge">
<title>n0_place_7&#45;&gt;n2_port_1</title>
<path fill="none" stroke="black" stroke-dasharray="5,2" d="M1042.39,-478.31C1059.97,-482.14 1081.18,-486.11 1100.51,-488 1259.75,-503.56 1303.09,-516.59 1460.51,-488 1517.72,-477.61 1527.51,-459.44 1582.98,-442 1625,-428.79 1673.86,-416.67 1708.11,-408.69"/>
<polygon fill="black" stroke="black" points="1709.29,-412.01 1718.25,-406.35 1707.71,-405.19 1709.29,-412.01"/>
</g>
<!-- n3_port_1 -->
<g id="node26" class="node">
<title>n3_port_1</title>
<polygon fill="white" stroke="black" points="1314.69,-397.33 1280.51,-420.43 1246.34,-397.33 1246.37,-359.96 1314.65,-359.96 1314.69,-397.33"/>
<text text-anchor="middle" x="1280.51" y="-390.8" font-family="Times,serif" font-size="14.00">G</text>
<text text-anchor="middle" x="1280.51" y="-375.8" font-family="Times,serif" font-size="14.00">list</text>
</g>
<!-- n0_place_7&#45;&gt;n3_port_1 -->
<g id="edge9" class="edge">
<title>n0_place_7&#45;&gt;n3_port_1</title>
<path fill="none" stroke="black" stroke-dasharray="5,2" d="M1038.08,-453.84C1056.33,-446.04 1079.39,-436.77 1100.51,-430 1146.13,-415.37 1199.7,-403.13 1236.27,-395.5"/>
<polygon fill="black" stroke="black" points="1237.02,-398.92 1246.11,-393.47 1235.61,-392.06 1237.02,-398.92"/>
</g>
<!-- n1_condition -->
<g id="node14" class="node">
<title>n1_condition</title>
<polygon fill="white" stroke="black" points="2219.2,-439 2219.2,-475 2288.2,-475 2288.2,-439 2219.2,-439"/>
<text text-anchor="middle" x="2253.7" y="-453.3" font-family="Times,serif" font-size="14.00">Reduce</text>
</g>
<!-- n1_port_2 -->
<g id="node17" class="node">
<title>n1_port_2</title>
<polygon fill="white" stroke="black" points="2151.68,-208.67 2253.7,-185.57 2355.73,-208.67 2355.63,-246.04 2151.78,-246.04 2151.68,-208.67"/>
<text text-anchor="middle" x="2253.7" y="-222.8" font-family="Times,serif" font-size="14.00">sum</text>
<text text-anchor="middle" x="2253.7" y="-207.8" font-family="Times,serif" font-size="14.00">unsigned long</text>
</g>
<!-- n1_port_2&#45;&gt;n0_place_3 -->
<g id="edge1" class="edge">
<title>n1_port_2&#45;&gt;n0_place_3</title>
<path fill="none" stroke="black" d="M2151.7,-219C2143,-219 2134.23,-219 2125.61,-219"/>
<polygon fill="black" stroke="black" points="2125.57,-215.5 2115.57,-219 2125.57,-222.5 2125.57,-215.5"/>
</g>
<!-- n1_modcall -->
<g id="node18" class="node">
<title>n1_modcall</title>
<polygon fill="white" stroke="black" points="2339.7,-168 2167.7,-168 2167.7,-132 2339.7,-132 2339.7,-168"/>
<text text-anchor="middle" x="2253.7" y="-146.3" font-family="Times,serif" font-size="14.00">feynman_module.plus</text>
</g>
<!-- n2_condition -->
<g id="node19" class="node">
<title>n2_condition</title>
<polygon fill="white" stroke="black" points="1685.48,-451 1685.48,-487 1819.48,-487 1819.48,-451 1685.48,-451"/>
<text text-anchor="middle" x="1752.48" y="-465.3" font-family="Times,serif" font-size="14.00">feynman_degree</text>
</g>
<!-- n2_port_2 -->
<g id="node22" class="node">
<title>n2_port_2</title>
<polygon fill="white" stroke="black" points="1650.46,-220.67 1752.48,-197.57 1854.5,-220.67 1854.41,-258.04 1650.55,-258.04 1650.46,-220.67"/>
<text text-anchor="middle" x="1752.48" y="-234.8" font-family="Times,serif" font-size="14.00">s</text>
<text text-anchor="middle" x="1752.48" y="-219.8" font-family="Times,serif" font-size="14.00">unsigned long</text>
</g>
<!-- n2_port_2&#45;&gt;n0_place_4 -->
<g id="edge4" class="edge">
<title>n2_port_2&#45;&gt;n0_place_4</title>
<path fill="none" stroke="black" d="M1854.62,-250.45C1877.26,-256.38 1900.82,-263.82 1921.98,-273 1946.39,-283.59 1971.46,-299.37 1991.46,-313.37"/>
<polygon fill="black" stroke="black" points="1989.53,-316.29 1999.71,-319.24 1993.59,-310.59 1989.53,-316.29"/>
</g>
<!-- n2_modcall -->
<g id="node23" class="node">
<title>n2_modcall</title>
<polygon fill="white" stroke="black" points="1913.98,-180 1590.98,-180 1590.98,-144 1913.98,-144 1913.98,-180"/>
<text text-anchor="middle" x="1752.48" y="-158.3" font-family="Times,serif" font-size="14.00">feynman_module.feynman_integral_degree</text>
</g>
<!-- n3_condition -->
<g id="node24" class="node">
<title>n3_condition</title>
<polygon fill="white" stroke="black" points="1238.01,-439 1238.01,-475 1323.01,-475 1323.01,-439 1238.01,-439"/>
<text text-anchor="middle" x="1280.51" y="-453.3" font-family="Times,serif" font-size="14.00">signature</text>
</g>
<!-- n3_port_2 -->
<g id="node27" class="node">
<title>n3_port_2</title>
<polygon fill="white" stroke="black" points="1246.34,-208.67 1280.51,-185.57 1314.69,-208.67 1314.65,-246.04 1246.37,-246.04 1246.34,-208.67"/>
<text text-anchor="middle" x="1280.51" y="-222.8" font-family="Times,serif" font-size="14.00">s</text>
<text text-anchor="middle" x="1280.51" y="-207.8" font-family="Times,serif" font-size="14.00">list</text>
</g>
<!-- n3_port_2&#45;&gt;n0_place_6 -->
<g id="edge7" class="edge">
<title>n3_port_2&#45;&gt;n0_place_6</title>
<path fill="none" stroke="black" d="M1315.17,-223.71C1358.14,-232.33 1432.94,-247.34 1479.6,-256.7"/>
<path fill="none" stroke="transparent" d="M1314.78,-225.67C1357.75,-234.3 1432.55,-249.3 1479.21,-258.67"/>
<path fill="none" stroke="black" d="M1314.38,-227.64C1357.35,-236.26 1432.16,-251.27 1478.81,-260.63"/>
<polygon fill="black" stroke="black" points="1478.79,-262.15 1489.29,-260.69 1480.17,-255.29 1478.79,-262.15"/>
</g>
<!-- n3_modcall -->
<g id="node28" class="node">
<title>n3_modcall</title>
<polygon fill="white" stroke="black" points="1452.51,-168 1108.51,-168 1108.51,-132 1452.51,-132 1452.51,-168"/>
<text text-anchor="middle" x="1280.51" y="-146.3" font-family="Times,serif" font-size="14.00">feynman_module.signature_and_multiplicities</text>
</g>
<!-- n4_condition -->
<g id="node29" class="node">
<title>n4_condition</title>
<polygon fill="white" stroke="black" points="742.42,-397 742.42,-433 849.42,-433 849.42,-397 742.42,-397"/>
<text text-anchor="middle" x="795.92" y="-411.3" font-family="Times,serif" font-size="14.00">Combination</text>
</g>
<!-- n4_port_1 -->
<g id="node31" class="node">
<title>n4_port_1</title>
<polygon fill="white" stroke="black" points="760.25,-250.67 795.92,-227.57 831.59,-250.67 831.56,-288.04 760.28,-288.04 760.25,-250.67"/>
<text text-anchor="middle" x="795.92" y="-264.8" font-family="Times,serif" font-size="14.00">vec</text>
<text text-anchor="middle" x="795.92" y="-249.8" font-family="Times,serif" font-size="14.00">list</text>
</g>
<!-- n4_port_1&#45;&gt;n0_place_2 -->
<g id="edge10" class="edge">
<title>n4_port_1&#45;&gt;n0_place_2</title>
<path fill="none" stroke="black" d="M831.95,-262.57C857.65,-265.2 893.62,-268.88 925.9,-272.18"/>
<path fill="none" stroke="transparent" d="M831.74,-264.56C857.45,-267.19 893.42,-270.87 925.7,-274.17"/>
<path fill="none" stroke="black" d="M831.54,-266.55C857.24,-269.18 893.22,-272.86 925.5,-276.16"/>
<polygon fill="black" stroke="black" points="925.73,-277.69 936.03,-275.23 926.44,-270.73 925.73,-277.69"/>
</g>
<!-- n4_modcall -->
<g id="node32" class="node">
<title>n4_modcall</title>
<polygon fill="white" stroke="black" points="897.92,-210 693.92,-210 693.92,-174 897.92,-174 897.92,-210"/>
<text text-anchor="middle" x="795.92" y="-188.3" font-family="Times,serif" font-size="14.00">feynman_module.partition</text>
</g>
<!-- n5_condition -->
<g id="node33" class="node">
<title>n5_condition</title>
<polygon fill="white" stroke="black" points="359.71,-451 359.71,-487 438.71,-487 438.71,-451 359.71,-451"/>
<text text-anchor="middle" x="399.21" y="-465.3" font-family="Times,serif" font-size="14.00">partition</text>
</g>
<!-- n5_port_2 -->
<g id="node36" class="node">
<title>n5_port_2</title>
<polygon fill="white" stroke="black" points="365.04,-220.67 399.21,-197.57 433.39,-220.67 433.35,-258.04 365.07,-258.04 365.04,-220.67"/>
<text text-anchor="middle" x="399.21" y="-234.8" font-family="Times,serif" font-size="14.00">v</text>
<text text-anchor="middle" x="399.21" y="-219.8" font-family="Times,serif" font-size="14.00">list</text>
</g>
<!-- n5_port_2&#45;&gt;n0_place_5 -->
<g id="edge12" class="edge">
<title>n5_port_2&#45;&gt;n0_place_5</title>
<path fill="none" stroke="black" d="M434.12,-238.75C462.44,-246.96 503.77,-258.94 537.76,-268.8"/>
<path fill="none" stroke="transparent" d="M433.56,-240.67C461.88,-248.88 503.21,-260.86 537.2,-270.72"/>
<path fill="none" stroke="black" d="M433,-242.59C461.32,-250.8 502.66,-262.78 536.65,-272.64"/>
<polygon fill="black" stroke="black" points="536.46,-274.15 547.04,-273.57 538.41,-267.42 536.46,-274.15"/>
</g>
<!-- n5_modcall -->
<g id="node37" class="node">
<title>n5_modcall</title>
<polygon fill="white" stroke="black" points="501.71,-180 296.71,-180 296.71,-144 501.71,-144 501.71,-180"/>
<text text-anchor="middle" x="399.21" y="-158.3" font-family="Times,serif" font-size="14.00">feynman_module.sum_deg</text>
</g>
</g>
</svg>
