<?xml version="1.0" encoding="UTF-8" standalone="no"?>
<!DOCTYPE svg PUBLIC "-//W3C//DTD SVG 1.1//EN"
 "http://www.w3.org/Graphics/SVG/1.1/DTD/svg11.dtd">
<!-- Generated by graphviz version 2.43.0 (0)
 -->
<!-- Title: feynman_deg Pages: 1 -->
<svg width="1073pt" height="932pt"
 viewBox="0.00 0.00 1073.40 932.00" xmlns="http://www.w3.org/2000/svg" xmlns:xlink="http://www.w3.org/1999/xlink">
<g id="graph0" class="graph" transform="scale(1 1) rotate(0) translate(4 928)">
<title>feynman_deg</title>
<polygon fill="white" stroke="transparent" points="-4,4 -4,-928 1069.4,-928 1069.4,4 -4,4"/>
<g id="clust1" class="cluster">
<title>cluster_0</title>
<polygon fill="dimgray" stroke="black" points="8,-8 8,-916 1057.4,-916 1057.4,-8 8,-8"/>
</g>
<g id="clust2" class="cluster">
<title>cluster_net_0</title>
<polygon fill="white" stroke="black" points="159.37,-90 159.37,-834 1049.4,-834 1049.4,-90 159.37,-90"/>
</g>
<g id="clust3" class="cluster">
<title>cluster_1</title>
<polygon fill="yellow" stroke="black" points="702.82,-98 702.82,-458 915.82,-458 915.82,-98 702.82,-98"/>
</g>
<g id="clust4" class="cluster">
<title>cluster_2</title>
<polygon fill="yellow" stroke="black" points="710.32,-466 710.32,-826 908.32,-826 908.32,-466 710.32,-466"/>
</g>
<g id="clust5" class="cluster">
<title>cluster_3</title>
<polygon fill="yellow" stroke="black" points="288.71,-466 288.71,-826 516.71,-826 516.71,-466 288.71,-466"/>
</g>
<!-- n0_condition -->
<g id="node1" class="node">
<title>n0_condition</title>
<polygon fill="white" stroke="black" points="18.19,-826 18.19,-862 129.19,-862 129.19,-826 18.19,-826"/>
<text text-anchor="middle" x="73.69" y="-840.3" font-family="Times,serif" font-size="14.00">feynman_deg</text>
</g>
<!-- n0_port_0 -->
<g id="node2" class="node">
<title>n0_port_0</title>
<polygon fill="white" stroke="black" points="131.56,-739.33 73.69,-762.43 15.81,-739.33 15.87,-701.96 131.5,-701.96 131.56,-739.33"/>
<text text-anchor="middle" x="73.69" y="-732.8" font-family="Times,serif" font-size="14.00">degree</text>
<text text-anchor="middle" x="73.69" y="-717.8" font-family="Times,serif" font-size="14.00">int</text>
</g>
<!-- n0_place_0 -->
<g id="node6" class="node">
<title>n0_place_0</title>
<ellipse fill="white" stroke="black" cx="214.04" cy="-729" rx="46.84" ry="26.74"/>
<text text-anchor="middle" x="214.04" y="-732.8" font-family="Times,serif" font-size="14.00">degree</text>
<text text-anchor="middle" x="214.04" y="-717.8" font-family="Times,serif" font-size="14.00">int</text>
</g>
<!-- n0_port_0&#45;&gt;n0_place_0 -->
<g id="edge10" class="edge">
<title>n0_port_0&#45;&gt;n0_place_0</title>
<path fill="none" stroke="black" stroke-dasharray="1,5" d="M131.76,-729C143.52,-729 155.76,-729 167.07,-729"/>
</g>
<!-- n0_port_1 -->
<g id="node3" class="node">
<title>n0_port_1</title>
<polygon fill="white" stroke="black" points="105.12,-655.33 73.69,-678.43 42.26,-655.33 42.29,-617.96 105.09,-617.96 105.12,-655.33"/>
<text text-anchor="middle" x="73.69" y="-648.8" font-family="Times,serif" font-size="14.00">N</text>
<text text-anchor="middle" x="73.69" y="-633.8" font-family="Times,serif" font-size="14.00">int</text>
</g>
<!-- n0_place_1 -->
<g id="node7" class="node">
<title>n0_place_1</title>
<ellipse fill="white" stroke="black" cx="214.04" cy="-645" rx="27" ry="26.74"/>
<text text-anchor="middle" x="214.04" y="-648.8" font-family="Times,serif" font-size="14.00">N</text>
<text text-anchor="middle" x="214.04" y="-633.8" font-family="Times,serif" font-size="14.00">int</text>
</g>
<!-- n0_port_1&#45;&gt;n0_place_1 -->
<g id="edge11" class="edge">
<title>n0_port_1&#45;&gt;n0_place_1</title>
<path fill="none" stroke="black" stroke-dasharray="1,5" d="M105.39,-645C129.75,-645 163.45,-645 186.62,-645"/>
</g>
<!-- n0_port_2 -->
<g id="node4" class="node">
<title>n0_port_2</title>
<polygon fill="white" stroke="black" points="749.2,-864.67 809.32,-841.57 869.44,-864.67 869.38,-902.04 749.26,-902.04 749.2,-864.67"/>
<text text-anchor="middle" x="809.32" y="-878.8" font-family="Times,serif" font-size="14.00">vectors</text>
<text text-anchor="middle" x="809.32" y="-863.8" font-family="Times,serif" font-size="14.00">string</text>
</g>
<!-- n0_place_3 -->
<g id="node9" class="node">
<title>n0_place_3</title>
<ellipse fill="white" stroke="black" cx="992.61" cy="-645" rx="48.58" ry="26.74"/>
<text text-anchor="middle" x="992.61" y="-648.8" font-family="Times,serif" font-size="14.00">vectors</text>
<text text-anchor="middle" x="992.61" y="-633.8" font-family="Times,serif" font-size="14.00">string</text>
</g>
<!-- n0_port_2&#45;&gt;n0_place_3 -->
<g id="edge12" class="edge">
<title>n0_port_2&#45;&gt;n0_place_3</title>
<path fill="none" stroke="black" stroke-dasharray="1,5" d="M862.35,-861.84C881.14,-854.94 901.28,-844.75 915.82,-830 959.92,-785.26 979.55,-711.3 987.26,-671.81"/>
</g>
<!-- n0_port_3 -->
<g id="node5" class="node">
<title>n0_port_3</title>
<polygon fill="white" stroke="black" points="757.68,-38.67 809.32,-15.57 860.95,-38.67 860.91,-76.04 757.73,-76.04 757.68,-38.67"/>
<text text-anchor="middle" x="809.32" y="-52.8" font-family="Times,serif" font-size="14.00">state</text>
<text text-anchor="middle" x="809.32" y="-37.8" font-family="Times,serif" font-size="14.00">string</text>
</g>
<!-- n0_place_4 -->
<g id="node10" class="node">
<title>n0_place_4</title>
<ellipse fill="white" stroke="black" cx="992.61" cy="-235" rx="41.94" ry="26.74"/>
<text text-anchor="middle" x="992.61" y="-238.8" font-family="Times,serif" font-size="14.00">state</text>
<text text-anchor="middle" x="992.61" y="-223.8" font-family="Times,serif" font-size="14.00">string</text>
</g>
<!-- n0_port_3&#45;&gt;n0_place_4 -->
<g id="edge13" class="edge">
<title>n0_port_3&#45;&gt;n0_place_4</title>
<path fill="none" stroke="black" stroke-dasharray="1,5" d="M861.02,-62.78C879.86,-69.79 900.38,-79.9 915.82,-94 950.7,-125.87 972.67,-177.59 983.5,-208.74"/>
</g>
<!-- n3_port_0 -->
<g id="node22" class="node">
<title>n3_port_0</title>
<polygon fill="white" stroke="black" points="434.14,-739.33 402.71,-762.43 371.28,-739.33 371.31,-701.96 434.11,-701.96 434.14,-739.33"/>
<text text-anchor="middle" x="402.71" y="-732.8" font-family="Times,serif" font-size="14.00">d</text>
<text text-anchor="middle" x="402.71" y="-717.8" font-family="Times,serif" font-size="14.00">int</text>
</g>
<!-- n0_place_0&#45;&gt;n3_port_0 -->
<g id="edge8" class="edge">
<title>n0_place_0&#45;&gt;n3_port_0</title>
<path fill="none" stroke="black" d="M261.18,-729C291.76,-729 331.51,-729 360.93,-729"/>
<polygon fill="black" stroke="black" points="361.26,-732.5 371.26,-729 361.26,-725.5 361.26,-732.5"/>
</g>
<!-- n3_port_1 -->
<g id="node23" class="node">
<title>n3_port_1</title>
<polygon fill="white" stroke="black" points="434.14,-655.33 402.71,-678.43 371.28,-655.33 371.31,-617.96 434.11,-617.96 434.14,-655.33"/>
<text text-anchor="middle" x="402.71" y="-648.8" font-family="Times,serif" font-size="14.00">n</text>
<text text-anchor="middle" x="402.71" y="-633.8" font-family="Times,serif" font-size="14.00">int</text>
</g>
<!-- n0_place_1&#45;&gt;n3_port_1 -->
<g id="edge9" class="edge">
<title>n0_place_1&#45;&gt;n3_port_1</title>
<path fill="none" stroke="black" d="M241.39,-645C272.49,-645 324.56,-645 360.89,-645"/>
<polygon fill="black" stroke="black" points="361.16,-648.5 371.16,-645 361.16,-641.5 361.16,-648.5"/>
</g>
<!-- n0_place_2 -->
<g id="node8" class="node">
<title>n0_place_2</title>
<ellipse fill="white" stroke="black" cx="609.76" cy="-645" rx="65.11" ry="26.74"/>
<text text-anchor="middle" x="609.76" y="-648.8" font-family="Times,serif" font-size="14.00">init_vector</text>
<text text-anchor="middle" x="609.76" y="-633.8" font-family="Times,serif" font-size="14.00">list</text>
</g>
<!-- n2_port_0 -->
<g id="node17" class="node">
<title>n2_port_0</title>
<polygon fill="white" stroke="black" points="843.49,-739.33 809.32,-762.43 775.14,-739.33 775.18,-701.96 843.46,-701.96 843.49,-739.33"/>
<text text-anchor="middle" x="809.32" y="-732.8" font-family="Times,serif" font-size="14.00">v</text>
<text text-anchor="middle" x="809.32" y="-717.8" font-family="Times,serif" font-size="14.00">list</text>
</g>
<!-- n0_place_2&#45;&gt;n2_port_0 -->
<g id="edge6" class="edge">
<title>n0_place_2&#45;&gt;n2_port_0</title>
<path fill="none" stroke="black" d="M653.65,-665.1C669.08,-672.19 686.66,-680.1 702.82,-687 723.29,-695.74 746.23,-704.94 765.48,-712.5"/>
<polygon fill="black" stroke="black" points="764.3,-715.79 774.89,-716.17 766.85,-709.27 764.3,-715.79"/>
</g>
<!-- n1_port_0 -->
<g id="node12" class="node">
<title>n1_port_0</title>
<polygon fill="white" stroke="black" points="860.95,-287.33 809.32,-310.43 757.68,-287.33 757.73,-249.96 860.91,-249.96 860.95,-287.33"/>
<text text-anchor="middle" x="809.32" y="-280.8" font-family="Times,serif" font-size="14.00">v</text>
<text text-anchor="middle" x="809.32" y="-265.8" font-family="Times,serif" font-size="14.00">string</text>
</g>
<!-- n0_place_4&#45;&gt;n1_port_0 -->
<g id="edge3" class="edge">
<title>n0_place_4&#45;&gt;n1_port_0</title>
<path fill="none" stroke="black" d="M953.08,-243.93C929.25,-249.45 898.16,-256.65 871.08,-262.92"/>
<polygon fill="black" stroke="black" points="870.25,-259.52 861.3,-265.19 871.83,-266.34 870.25,-259.52"/>
</g>
<!-- n1_condition -->
<g id="node11" class="node">
<title>n1_condition</title>
<polygon fill="white" stroke="black" points="746.82,-413 746.82,-449 871.82,-449 871.82,-413 746.82,-413"/>
<text text-anchor="middle" x="809.32" y="-427.3" font-family="Times,serif" font-size="14.00">next_partitions</text>
</g>
<!-- n1_port_1 -->
<g id="node13" class="node">
<title>n1_port_1</title>
<polygon fill="white" stroke="black" points="773.65,-350.67 809.32,-327.57 844.99,-350.67 844.96,-388.04 773.68,-388.04 773.65,-350.67"/>
<text text-anchor="middle" x="809.32" y="-364.8" font-family="Times,serif" font-size="14.00">vec</text>
<text text-anchor="middle" x="809.32" y="-349.8" font-family="Times,serif" font-size="14.00">list</text>
</g>
<!-- n1_port_1&#45;&gt;n0_place_3 -->
<g id="edge2" class="edge">
<title>n1_port_1&#45;&gt;n0_place_3</title>
<path fill="none" stroke="black" d="M845.6,-365.25C868.82,-371.12 898.03,-382.05 917.29,-402.65 970.74,-461.17 986.7,-555.41 991.53,-607.52"/>
<path fill="none" stroke="transparent" d="M845.11,-367.19C868.12,-372.99 897.33,-383.92 915.82,-404 968.77,-461.5 984.73,-555.74 989.53,-607.7"/>
<path fill="none" stroke="black" d="M844.62,-369.13C867.42,-374.87 896.63,-385.79 914.35,-405.35 966.8,-461.84 982.75,-556.08 987.54,-607.89"/>
<polygon fill="black" stroke="black" points="986.06,-608.14 990.38,-617.81 993.03,-607.56 986.06,-608.14"/>
</g>
<!-- n1_port_2 -->
<g id="node14" class="node">
<title>n1_port_2</title>
<polygon fill="white" stroke="black" points="739.47,-182.67 809.32,-159.57 879.16,-182.67 879.1,-220.04 739.54,-220.04 739.47,-182.67"/>
<text text-anchor="middle" x="809.32" y="-196.8" font-family="Times,serif" font-size="14.00">vec_copy</text>
<text text-anchor="middle" x="809.32" y="-181.8" font-family="Times,serif" font-size="14.00">string</text>
</g>
<!-- n1_port_2&#45;&gt;n0_place_4 -->
<g id="edge1" class="edge">
<title>n1_port_2&#45;&gt;n0_place_4</title>
<path fill="none" stroke="black" d="M879.37,-209C900.68,-213.93 923.67,-219.26 943.26,-223.8"/>
<polygon fill="black" stroke="black" points="942.64,-227.25 953.17,-226.09 944.22,-220.43 942.64,-227.25"/>
</g>
<!-- n1_modcall -->
<g id="node15" class="node">
<title>n1_modcall</title>
<polygon fill="white" stroke="black" points="907.82,-142 710.82,-142 710.82,-106 907.82,-106 907.82,-142"/>
<text text-anchor="middle" x="809.32" y="-120.3" font-family="Times,serif" font-size="14.00">feynman_module.iterator</text>
</g>
<!-- n2_condition -->
<g id="node16" class="node">
<title>n2_condition</title>
<polygon fill="white" stroke="black" points="732.82,-781 732.82,-817 885.82,-817 885.82,-781 732.82,-781"/>
<text text-anchor="middle" x="809.32" y="-795.3" font-family="Times,serif" font-size="14.00">first_next_partition</text>
</g>
<!-- n2_port_1 -->
<g id="node18" class="node">
<title>n2_port_1</title>
<polygon fill="white" stroke="black" points="773.65,-634.67 809.32,-611.57 844.99,-634.67 844.96,-672.04 773.68,-672.04 773.65,-634.67"/>
<text text-anchor="middle" x="809.32" y="-648.8" font-family="Times,serif" font-size="14.00">vec</text>
<text text-anchor="middle" x="809.32" y="-633.8" font-family="Times,serif" font-size="14.00">list</text>
</g>
<!-- n2_port_1&#45;&gt;n0_place_3 -->
<g id="edge5" class="edge">
<title>n2_port_1&#45;&gt;n0_place_3</title>
<path fill="none" stroke="black" d="M845.27,-643C870.31,-643 904.6,-643 933.69,-643"/>
<path fill="none" stroke="transparent" d="M845.27,-645C870.31,-645 904.6,-645 933.69,-645"/>
<path fill="none" stroke="black" d="M845.27,-647C870.31,-647 904.6,-647 933.69,-647"/>
<polygon fill="black" stroke="black" points="933.74,-648.5 943.74,-645 933.74,-641.5 933.74,-648.5"/>
</g>
<!-- n2_port_2 -->
<g id="node19" class="node">
<title>n2_port_2</title>
<polygon fill="white" stroke="black" points="739.47,-550.67 809.32,-527.57 879.16,-550.67 879.1,-588.04 739.54,-588.04 739.47,-550.67"/>
<text text-anchor="middle" x="809.32" y="-564.8" font-family="Times,serif" font-size="14.00">vec_copy</text>
<text text-anchor="middle" x="809.32" y="-549.8" font-family="Times,serif" font-size="14.00">string</text>
</g>
<!-- n2_port_2&#45;&gt;n0_place_4 -->
<g id="edge4" class="edge">
<title>n2_port_2&#45;&gt;n0_place_4</title>
<path fill="none" stroke="black" d="M870.73,-547.76C887.31,-541.49 903.97,-532.34 915.82,-519 978.48,-448.46 990.16,-331.67 991.82,-272.23"/>
<polygon fill="black" stroke="black" points="995.32,-272.23 992.02,-262.17 988.32,-272.1 995.32,-272.23"/>
</g>
<!-- n2_modcall -->
<g id="node20" class="node">
<title>n2_modcall</title>
<polygon fill="white" stroke="black" points="900.32,-510 718.32,-510 718.32,-474 900.32,-474 900.32,-510"/>
<text text-anchor="middle" x="809.32" y="-488.3" font-family="Times,serif" font-size="14.00">feynman_module.iterat</text>
</g>
<!-- n3_condition -->
<g id="node21" class="node">
<title>n3_condition</title>
<polygon fill="white" stroke="black" points="373.71,-781 373.71,-817 431.71,-817 431.71,-781 373.71,-781"/>
<text text-anchor="middle" x="402.71" y="-795.3" font-family="Times,serif" font-size="14.00">initial</text>
</g>
<!-- n3_port_2 -->
<g id="node24" class="node">
<title>n3_port_2</title>
<polygon fill="white" stroke="black" points="368.54,-550.67 402.71,-527.57 436.89,-550.67 436.85,-588.04 368.57,-588.04 368.54,-550.67"/>
<text text-anchor="middle" x="402.71" y="-564.8" font-family="Times,serif" font-size="14.00">v</text>
<text text-anchor="middle" x="402.71" y="-549.8" font-family="Times,serif" font-size="14.00">list</text>
</g>
<!-- n3_port_2&#45;&gt;n0_place_2 -->
<g id="edge7" class="edge">
<title>n3_port_2&#45;&gt;n0_place_2</title>
<path fill="none" stroke="black" d="M437.76,-570.81C460.41,-578.91 490.9,-590.17 517.47,-601.15 530.71,-606.62 544.81,-612.85 557.92,-618.81"/>
<path fill="none" stroke="transparent" d="M437.08,-572.69C459.71,-580.79 490.21,-592.05 516.71,-603 529.9,-608.45 544,-614.68 557.09,-620.63"/>
<path fill="none" stroke="black" d="M436.41,-574.57C459.02,-582.66 489.52,-593.92 515.95,-604.85 529.1,-610.28 543.19,-616.51 556.26,-622.45"/>
<polygon fill="black" stroke="black" points="555.87,-623.92 566.42,-624.91 558.79,-617.56 555.87,-623.92"/>
</g>
<!-- n3_modcall -->
<g id="node25" class="node">
<title>n3_modcall</title>
<polygon fill="white" stroke="black" points="508.71,-510 296.71,-510 296.71,-474 508.71,-474 508.71,-510"/>
<text text-anchor="middle" x="402.71" y="-488.3" font-family="Times,serif" font-size="14.00">feynman_module.gen_block</text>
</g>
</g>
</svg>
