<?xml version="1.0" encoding="UTF-8" standalone="no"?>
<!DOCTYPE svg PUBLIC "-//W3C//DTD SVG 1.1//EN"
 "http://www.w3.org/Graphics/SVG/1.1/DTD/svg11.dtd">
<!-- Generated by graphviz version 2.43.0 (0)
 -->
<!-- Title: feynman_deg Pages: 1 -->
<svg width="1927pt" height="602pt"
 viewBox="0.00 0.00 1927.50 602.00" xmlns="http://www.w3.org/2000/svg" xmlns:xlink="http://www.w3.org/1999/xlink">
<g id="graph0" class="graph" transform="scale(1 1) rotate(0) translate(4 598)">
<title>feynman_deg</title>
<polygon fill="white" stroke="transparent" points="-4,4 -4,-598 1923.5,-598 1923.5,4 -4,4"/>
<g id="clust1" class="cluster">
<title>cluster_0</title>
<polygon fill="dimgray" stroke="black" points="8,-8 8,-586 1911.5,-586 1911.5,-8 8,-8"/>
</g>
<g id="clust2" class="cluster">
<title>cluster_net_0</title>
<polygon fill="white" stroke="black" points="159.37,-116 159.37,-504 1903.5,-504 1903.5,-116 159.37,-116"/>
</g>
<g id="clust3" class="cluster">
<title>cluster_1</title>
<polygon fill="yellow" stroke="black" points="1674.97,-124 1674.97,-484 1895.5,-484 1895.5,-124 1674.97,-124"/>
</g>
<g id="clust4" class="cluster">
<title>cluster_2</title>
<polygon fill="yellow" stroke="black" points="1114.51,-136 1114.51,-496 1453.51,-496 1453.51,-136 1114.51,-136"/>
</g>
<g id="clust5" class="cluster">
<title>cluster_3</title>
<polygon fill="yellow" stroke="black" points="699.92,-124 699.92,-484 919.92,-484 919.92,-124 699.92,-124"/>
</g>
<g id="clust6" class="cluster">
<title>cluster_4</title>
<polygon fill="yellow" stroke="black" points="288.71,-136 288.71,-496 523.71,-496 523.71,-136 288.71,-136"/>
</g>
<!-- n0_condition -->
<g id="node1" class="node">
<title>n0_condition</title>
<polygon fill="white" stroke="black" points="18.19,-496 18.19,-532 129.19,-532 129.19,-496 18.19,-496"/>
<text text-anchor="middle" x="73.69" y="-510.3" font-family="Times,serif" font-size="14.00">feynman_deg</text>
</g>
<!-- n0_port_0 -->
<g id="node2" class="node">
<title>n0_port_0</title>
<polygon fill="white" stroke="black" points="131.56,-409.33 73.69,-432.43 15.81,-409.33 15.87,-371.96 131.5,-371.96 131.56,-409.33"/>
<text text-anchor="middle" x="73.69" y="-402.8" font-family="Times,serif" font-size="14.00">degree</text>
<text text-anchor="middle" x="73.69" y="-387.8" font-family="Times,serif" font-size="14.00">int</text>
</g>
<!-- n0_place_0 -->
<g id="node6" class="node">
<title>n0_place_0</title>
<ellipse fill="white" stroke="black" cx="214.04" cy="-399" rx="46.84" ry="26.74"/>
<text text-anchor="middle" x="214.04" y="-402.8" font-family="Times,serif" font-size="14.00">degree</text>
<text text-anchor="middle" x="214.04" y="-387.8" font-family="Times,serif" font-size="14.00">int</text>
</g>
<!-- n0_port_0&#45;&gt;n0_place_0 -->
<g id="edge13" class="edge">
<title>n0_port_0&#45;&gt;n0_place_0</title>
<path fill="none" stroke="black" stroke-dasharray="1,5" d="M131.76,-399C143.52,-399 155.76,-399 167.07,-399"/>
</g>
<!-- n0_port_1 -->
<g id="node3" class="node">
<title>n0_port_1</title>
<polygon fill="white" stroke="black" points="105.12,-325.33 73.69,-348.43 42.26,-325.33 42.29,-287.96 105.09,-287.96 105.12,-325.33"/>
<text text-anchor="middle" x="73.69" y="-318.8" font-family="Times,serif" font-size="14.00">N</text>
<text text-anchor="middle" x="73.69" y="-303.8" font-family="Times,serif" font-size="14.00">int</text>
</g>
<!-- n0_place_1 -->
<g id="node7" class="node">
<title>n0_place_1</title>
<ellipse fill="white" stroke="black" cx="214.04" cy="-315" rx="27" ry="26.74"/>
<text text-anchor="middle" x="214.04" y="-318.8" font-family="Times,serif" font-size="14.00">N</text>
<text text-anchor="middle" x="214.04" y="-303.8" font-family="Times,serif" font-size="14.00">int</text>
</g>
<!-- n0_port_1&#45;&gt;n0_place_1 -->
<g id="edge14" class="edge">
<title>n0_port_1&#45;&gt;n0_place_1</title>
<path fill="none" stroke="black" stroke-dasharray="1,5" d="M105.39,-315C129.75,-315 163.45,-315 186.62,-315"/>
</g>
<!-- n0_port_2 -->
<g id="node4" class="node">
<title>n0_port_2</title>
<polygon fill="white" stroke="black" points="457.85,-555.33 406.21,-578.43 354.57,-555.33 354.62,-517.96 457.8,-517.96 457.85,-555.33"/>
<text text-anchor="middle" x="406.21" y="-548.8" font-family="Times,serif" font-size="14.00">graph</text>
<text text-anchor="middle" x="406.21" y="-533.8" font-family="Times,serif" font-size="14.00">list</text>
</g>
<!-- n0_place_6 -->
<g id="node12" class="node">
<title>n0_place_6</title>
<ellipse fill="white" stroke="black" cx="611.81" cy="-469" rx="41.94" ry="26.74"/>
<text text-anchor="middle" x="611.81" y="-472.8" font-family="Times,serif" font-size="14.00">graph</text>
<text text-anchor="middle" x="611.81" y="-457.8" font-family="Times,serif" font-size="14.00">list</text>
</g>
<!-- n0_port_2&#45;&gt;n0_place_6 -->
<g id="edge15" class="edge">
<title>n0_port_2&#45;&gt;n0_place_6</title>
<path fill="none" stroke="black" stroke-dasharray="1,5" d="M457.8,-526.12C494.31,-512.49 542.7,-494.42 575.2,-482.29"/>
</g>
<!-- n0_port_3 -->
<g id="node5" class="node">
<title>n0_port_3</title>
<polygon fill="white" stroke="black" points="1181.99,-47.74 1284.01,-15.85 1386.04,-47.74 1385.94,-99.33 1182.08,-99.33 1181.99,-47.74"/>
<text text-anchor="middle" x="1284.01" y="-73.3" font-family="Times,serif" font-size="14.00">sum</text>
<text text-anchor="middle" x="1284.01" y="-58.3" font-family="Times,serif" font-size="14.00">unsigned long</text>
<text text-anchor="middle" x="1284.01" y="-43.3" font-family="Times,serif" font-size="14.00">0UL</text>
</g>
<!-- n0_place_3 -->
<g id="node9" class="node">
<title>n0_place_3</title>
<ellipse fill="white" stroke="black" cx="1564.24" cy="-219" rx="82.96" ry="37.45"/>
<text text-anchor="middle" x="1564.24" y="-230.3" font-family="Times,serif" font-size="14.00">sum</text>
<text text-anchor="middle" x="1564.24" y="-215.3" font-family="Times,serif" font-size="14.00">unsigned long</text>
<text text-anchor="middle" x="1564.24" y="-200.3" font-family="Times,serif" font-size="14.00">0UL</text>
</g>
<!-- n0_port_3&#45;&gt;n0_place_3 -->
<g id="edge16" class="edge">
<title>n0_port_3&#45;&gt;n0_place_3</title>
<path fill="none" stroke="black" stroke-dasharray="1,5" d="M1386.12,-98.66C1408.87,-108.36 1432.49,-119.63 1453.51,-132 1479.28,-147.17 1505.62,-167.85 1526.03,-185.24"/>
</g>
<!-- n4_port_0 -->
<g id="node29" class="node">
<title>n4_port_0</title>
<polygon fill="white" stroke="black" points="437.64,-409.33 406.21,-432.43 374.78,-409.33 374.81,-371.96 437.61,-371.96 437.64,-409.33"/>
<text text-anchor="middle" x="406.21" y="-402.8" font-family="Times,serif" font-size="14.00">d</text>
<text text-anchor="middle" x="406.21" y="-387.8" font-family="Times,serif" font-size="14.00">int</text>
</g>
<!-- n0_place_0&#45;&gt;n4_port_0 -->
<g id="edge11" class="edge">
<title>n0_place_0&#45;&gt;n4_port_0</title>
<path fill="none" stroke="black" d="M261.08,-399C292.64,-399 334.13,-399 364.49,-399"/>
<polygon fill="black" stroke="black" points="364.73,-402.5 374.73,-399 364.73,-395.5 364.73,-402.5"/>
</g>
<!-- n4_port_1 -->
<g id="node30" class="node">
<title>n4_port_1</title>
<polygon fill="white" stroke="black" points="437.64,-325.33 406.21,-348.43 374.78,-325.33 374.81,-287.96 437.61,-287.96 437.64,-325.33"/>
<text text-anchor="middle" x="406.21" y="-318.8" font-family="Times,serif" font-size="14.00">n</text>
<text text-anchor="middle" x="406.21" y="-303.8" font-family="Times,serif" font-size="14.00">int</text>
</g>
<!-- n0_place_1&#45;&gt;n4_port_1 -->
<g id="edge12" class="edge">
<title>n0_place_1&#45;&gt;n4_port_1</title>
<path fill="none" stroke="black" d="M241.08,-315C272.98,-315 327.35,-315 364.72,-315"/>
<polygon fill="black" stroke="black" points="364.77,-318.5 374.77,-315 364.77,-311.5 364.77,-318.5"/>
</g>
<!-- n0_place_2 -->
<g id="node8" class="node">
<title>n0_place_2</title>
<ellipse fill="white" stroke="black" cx="1017.21" cy="-267" rx="69.09" ry="26.74"/>
<text text-anchor="middle" x="1017.21" y="-270.8" font-family="Times,serif" font-size="14.00">branchtype</text>
<text text-anchor="middle" x="1017.21" y="-255.8" font-family="Times,serif" font-size="14.00">list</text>
</g>
<!-- n2_port_0 -->
<g id="node19" class="node">
<title>n2_port_0</title>
<polygon fill="white" stroke="black" points="1318.19,-325.33 1284.01,-348.43 1249.84,-325.33 1249.87,-287.96 1318.15,-287.96 1318.19,-325.33"/>
<text text-anchor="middle" x="1284.01" y="-318.8" font-family="Times,serif" font-size="14.00">a</text>
<text text-anchor="middle" x="1284.01" y="-303.8" font-family="Times,serif" font-size="14.00">list</text>
</g>
<!-- n0_place_2&#45;&gt;n2_port_0 -->
<g id="edge5" class="edge">
<title>n0_place_2&#45;&gt;n2_port_0</title>
<path fill="none" stroke="black" d="M1080.3,-278.25C1129.26,-287.13 1196.3,-299.28 1239.64,-307.14"/>
<polygon fill="black" stroke="black" points="1239.12,-310.6 1249.58,-308.94 1240.37,-303.71 1239.12,-310.6"/>
</g>
<!-- n1_port_1 -->
<g id="node15" class="node">
<title>n1_port_1</title>
<polygon fill="white" stroke="black" points="1887.26,-313.33 1785.24,-336.43 1683.21,-313.33 1683.31,-275.96 1887.16,-275.96 1887.26,-313.33"/>
<text text-anchor="middle" x="1785.24" y="-306.8" font-family="Times,serif" font-size="14.00">sum</text>
<text text-anchor="middle" x="1785.24" y="-291.8" font-family="Times,serif" font-size="14.00">unsigned long</text>
</g>
<!-- n0_place_3&#45;&gt;n1_port_1 -->
<g id="edge2" class="edge">
<title>n0_place_3&#45;&gt;n1_port_1</title>
<path fill="none" stroke="black" d="M1628,-243.07C1651.64,-252.14 1678.87,-262.59 1703.91,-272.19"/>
<polygon fill="black" stroke="black" points="1702.79,-275.51 1713.38,-275.82 1705.3,-268.97 1702.79,-275.51"/>
</g>
<!-- n0_place_4 -->
<g id="node10" class="node">
<title>n0_place_4</title>
<ellipse fill="white" stroke="black" cx="1564.24" cy="-344" rx="82.96" ry="26.74"/>
<text text-anchor="middle" x="1564.24" y="-347.8" font-family="Times,serif" font-size="14.00">fey_out</text>
<text text-anchor="middle" x="1564.24" y="-332.8" font-family="Times,serif" font-size="14.00">unsigned long</text>
</g>
<!-- n1_port_0 -->
<g id="node14" class="node">
<title>n1_port_0</title>
<polygon fill="white" stroke="black" points="1887.26,-397.33 1785.24,-420.43 1683.21,-397.33 1683.31,-359.96 1887.16,-359.96 1887.26,-397.33"/>
<text text-anchor="middle" x="1785.24" y="-390.8" font-family="Times,serif" font-size="14.00">s</text>
<text text-anchor="middle" x="1785.24" y="-375.8" font-family="Times,serif" font-size="14.00">unsigned long</text>
</g>
<!-- n0_place_4&#45;&gt;n1_port_0 -->
<g id="edge3" class="edge">
<title>n0_place_4&#45;&gt;n1_port_0</title>
<path fill="none" stroke="black" d="M1635.44,-357.78C1647.38,-360.13 1660.05,-362.61 1672.75,-365.11"/>
<polygon fill="black" stroke="black" points="1672.44,-368.62 1682.93,-367.11 1673.79,-361.75 1672.44,-368.62"/>
</g>
<!-- n0_place_5 -->
<g id="node11" class="node">
<title>n0_place_5</title>
<ellipse fill="white" stroke="black" cx="611.81" cy="-267" rx="60.21" ry="26.74"/>
<text text-anchor="middle" x="611.81" y="-270.8" font-family="Times,serif" font-size="14.00">d_vectors</text>
<text text-anchor="middle" x="611.81" y="-255.8" font-family="Times,serif" font-size="14.00">list</text>
</g>
<!-- n3_port_0 -->
<g id="node24" class="node">
<title>n3_port_0</title>
<polygon fill="white" stroke="black" points="844.09,-313.33 809.92,-336.43 775.74,-313.33 775.78,-275.96 844.06,-275.96 844.09,-313.33"/>
<text text-anchor="middle" x="809.92" y="-306.8" font-family="Times,serif" font-size="14.00">v</text>
<text text-anchor="middle" x="809.92" y="-291.8" font-family="Times,serif" font-size="14.00">list</text>
</g>
<!-- n0_place_5&#45;&gt;n3_port_0 -->
<g id="edge9" class="edge">
<title>n0_place_5&#45;&gt;n3_port_0</title>
<path fill="none" stroke="black" d="M667.7,-277.08C698.58,-282.74 736.6,-289.72 765.41,-295.01"/>
<polygon fill="black" stroke="black" points="765.1,-298.52 775.57,-296.88 766.37,-291.63 765.1,-298.52"/>
</g>
<!-- n2_port_1 -->
<g id="node20" class="node">
<title>n2_port_1</title>
<polygon fill="white" stroke="black" points="1318.19,-409.33 1284.01,-432.43 1249.84,-409.33 1249.87,-371.96 1318.15,-371.96 1318.19,-409.33"/>
<text text-anchor="middle" x="1284.01" y="-402.8" font-family="Times,serif" font-size="14.00">G</text>
<text text-anchor="middle" x="1284.01" y="-387.8" font-family="Times,serif" font-size="14.00">list</text>
</g>
<!-- n0_place_6&#45;&gt;n2_port_1 -->
<g id="edge6" class="edge">
<title>n0_place_6&#45;&gt;n2_port_1</title>
<path fill="none" stroke="black" stroke-dasharray="5,2" d="M650.68,-479.11C665.87,-482.68 683.61,-486.24 699.92,-488 797.13,-498.48 822.85,-499.72 919.92,-488 935.97,-486.06 1147.05,-433.21 1239.8,-409.89"/>
<polygon fill="black" stroke="black" points="1240.87,-413.23 1249.72,-407.39 1239.16,-406.44 1240.87,-413.23"/>
</g>
<!-- n3_port_1 -->
<g id="node25" class="node">
<title>n3_port_1</title>
<polygon fill="white" stroke="black" points="844.09,-397.33 809.92,-420.43 775.74,-397.33 775.78,-359.96 844.06,-359.96 844.09,-397.33"/>
<text text-anchor="middle" x="809.92" y="-390.8" font-family="Times,serif" font-size="14.00">G</text>
<text text-anchor="middle" x="809.92" y="-375.8" font-family="Times,serif" font-size="14.00">list</text>
</g>
<!-- n0_place_6&#45;&gt;n3_port_1 -->
<g id="edge8" class="edge">
<title>n0_place_6&#45;&gt;n3_port_1</title>
<path fill="none" stroke="black" stroke-dasharray="5,2" d="M646.16,-453.64C662.32,-446.31 682.05,-437.52 699.92,-430 722.42,-420.53 747.77,-410.49 768.36,-402.5"/>
<polygon fill="black" stroke="black" points="769.69,-405.73 777.76,-398.86 767.17,-399.21 769.69,-405.73"/>
</g>
<!-- n1_condition -->
<g id="node13" class="node">
<title>n1_condition</title>
<polygon fill="white" stroke="black" points="1750.74,-439 1750.74,-475 1819.74,-475 1819.74,-439 1750.74,-439"/>
<text text-anchor="middle" x="1785.24" y="-453.3" font-family="Times,serif" font-size="14.00">Reduce</text>
</g>
<!-- n1_port_2 -->
<g id="node16" class="node">
<title>n1_port_2</title>
<polygon fill="white" stroke="black" points="1683.21,-208.67 1785.24,-185.57 1887.26,-208.67 1887.16,-246.04 1683.31,-246.04 1683.21,-208.67"/>
<text text-anchor="middle" x="1785.24" y="-222.8" font-family="Times,serif" font-size="14.00">sum</text>
<text text-anchor="middle" x="1785.24" y="-207.8" font-family="Times,serif" font-size="14.00">unsigned long</text>
</g>
<!-- n1_port_2&#45;&gt;n0_place_3 -->
<g id="edge1" class="edge">
<title>n1_port_2&#45;&gt;n0_place_3</title>
<path fill="none" stroke="black" d="M1683.23,-219C1674.53,-219 1665.76,-219 1657.14,-219"/>
<polygon fill="black" stroke="black" points="1657.1,-215.5 1647.1,-219 1657.1,-222.5 1657.1,-215.5"/>
</g>
<!-- n1_modcall -->
<g id="node17" class="node">
<title>n1_modcall</title>
<polygon fill="white" stroke="black" points="1871.24,-168 1699.24,-168 1699.24,-132 1871.24,-132 1871.24,-168"/>
<text text-anchor="middle" x="1785.24" y="-146.3" font-family="Times,serif" font-size="14.00">feynman_module.plus</text>
</g>
<!-- n2_condition -->
<g id="node18" class="node">
<title>n2_condition</title>
<polygon fill="white" stroke="black" points="1217.01,-451 1217.01,-487 1351.01,-487 1351.01,-451 1217.01,-451"/>
<text text-anchor="middle" x="1284.01" y="-465.3" font-family="Times,serif" font-size="14.00">feynman_degree</text>
</g>
<!-- n2_port_2 -->
<g id="node21" class="node">
<title>n2_port_2</title>
<polygon fill="white" stroke="black" points="1181.99,-220.67 1284.01,-197.57 1386.04,-220.67 1385.94,-258.04 1182.08,-258.04 1181.99,-220.67"/>
<text text-anchor="middle" x="1284.01" y="-234.8" font-family="Times,serif" font-size="14.00">s</text>
<text text-anchor="middle" x="1284.01" y="-219.8" font-family="Times,serif" font-size="14.00">unsigned long</text>
</g>
<!-- n2_port_2&#45;&gt;n0_place_4 -->
<g id="edge4" class="edge">
<title>n2_port_2&#45;&gt;n0_place_4</title>
<path fill="none" stroke="black" d="M1386.16,-250.45C1408.79,-256.38 1432.35,-263.82 1453.51,-273 1477.92,-283.59 1502.99,-299.37 1522.99,-313.37"/>
<polygon fill="black" stroke="black" points="1521.06,-316.29 1531.24,-319.24 1525.12,-310.59 1521.06,-316.29"/>
</g>
<!-- n2_modcall -->
<g id="node22" class="node">
<title>n2_modcall</title>
<polygon fill="white" stroke="black" points="1445.51,-180 1122.51,-180 1122.51,-144 1445.51,-144 1445.51,-180"/>
<text text-anchor="middle" x="1284.01" y="-158.3" font-family="Times,serif" font-size="14.00">feynman_module.feynman_integral_degree</text>
</g>
<!-- n3_condition -->
<g id="node23" class="node">
<title>n3_condition</title>
<polygon fill="white" stroke="black" points="756.42,-439 756.42,-475 863.42,-475 863.42,-439 756.42,-439"/>
<text text-anchor="middle" x="809.92" y="-453.3" font-family="Times,serif" font-size="14.00">Combination</text>
</g>
<!-- n3_port_2 -->
<g id="node26" class="node">
<title>n3_port_2</title>
<polygon fill="white" stroke="black" points="774.25,-208.67 809.92,-185.57 845.59,-208.67 845.56,-246.04 774.28,-246.04 774.25,-208.67"/>
<text text-anchor="middle" x="809.92" y="-222.8" font-family="Times,serif" font-size="14.00">vec</text>
<text text-anchor="middle" x="809.92" y="-207.8" font-family="Times,serif" font-size="14.00">list</text>
</g>
<!-- n3_port_2&#45;&gt;n0_place_2 -->
<g id="edge7" class="edge">
<title>n3_port_2&#45;&gt;n0_place_2</title>
<path fill="none" stroke="black" d="M846.2,-225.2C874,-231.69 913.81,-241 947.97,-248.99"/>
<path fill="none" stroke="transparent" d="M845.74,-227.14C873.54,-233.64 913.36,-242.95 947.52,-250.94"/>
<path fill="none" stroke="black" d="M845.29,-229.09C873.09,-235.59 912.9,-244.9 947.06,-252.89"/>
<polygon fill="black" stroke="black" points="946.92,-254.39 957.45,-253.26 948.51,-247.58 946.92,-254.39"/>
</g>
<!-- n3_modcall -->
<g id="node27" class="node">
<title>n3_modcall</title>
<polygon fill="white" stroke="black" points="911.92,-168 707.92,-168 707.92,-132 911.92,-132 911.92,-168"/>
<text text-anchor="middle" x="809.92" y="-146.3" font-family="Times,serif" font-size="14.00">feynman_module.partition</text>
</g>
<!-- n4_condition -->
<g id="node28" class="node">
<title>n4_condition</title>
<polygon fill="white" stroke="black" points="366.71,-451 366.71,-487 445.71,-487 445.71,-451 366.71,-451"/>
<text text-anchor="middle" x="406.21" y="-465.3" font-family="Times,serif" font-size="14.00">partition</text>
</g>
<!-- n4_port_2 -->
<g id="node31" class="node">
<title>n4_port_2</title>
<polygon fill="white" stroke="black" points="372.04,-220.67 406.21,-197.57 440.39,-220.67 440.35,-258.04 372.07,-258.04 372.04,-220.67"/>
<text text-anchor="middle" x="406.21" y="-234.8" font-family="Times,serif" font-size="14.00">v</text>
<text text-anchor="middle" x="406.21" y="-219.8" font-family="Times,serif" font-size="14.00">list</text>
</g>
<!-- n4_port_2&#45;&gt;n0_place_5 -->
<g id="edge10" class="edge">
<title>n4_port_2&#45;&gt;n0_place_5</title>
<path fill="none" stroke="black" d="M440.72,-234.89C469.13,-239.92 510.89,-247.3 545.96,-253.5"/>
<path fill="none" stroke="transparent" d="M440.38,-236.86C468.78,-241.89 510.54,-249.27 545.61,-255.47"/>
<path fill="none" stroke="black" d="M440.03,-238.83C468.44,-243.86 510.19,-251.24 545.26,-257.44"/>
<polygon fill="black" stroke="black" points="545.33,-258.98 555.78,-257.27 546.55,-252.08 545.33,-258.98"/>
</g>
<!-- n4_modcall -->
<g id="node32" class="node">
<title>n4_modcall</title>
<polygon fill="white" stroke="black" points="515.71,-180 296.71,-180 296.71,-144 515.71,-144 515.71,-180"/>
<text text-anchor="middle" x="406.21" y="-158.3" font-family="Times,serif" font-size="14.00">feynman_module.gen_block_</text>
</g>
</g>
</svg>
