<?xml version="1.0" encoding="UTF-8" standalone="no"?>
<!DOCTYPE svg PUBLIC "-//W3C//DTD SVG 1.1//EN"
 "http://www.w3.org/Graphics/SVG/1.1/DTD/svg11.dtd">
<!-- Generated by graphviz version 2.43.0 (0)
 -->
<!-- Title: feynman_deg Pages: 1 -->
<svg width="3043pt" height="1112pt"
 viewBox="0.00 0.00 3043.36 1112.00" xmlns="http://www.w3.org/2000/svg" xmlns:xlink="http://www.w3.org/1999/xlink">
<g id="graph0" class="graph" transform="scale(1 1) rotate(0) translate(4 1108)">
<title>feynman_deg</title>
<polygon fill="white" stroke="transparent" points="-4,4 -4,-1108 3039.36,-1108 3039.36,4 -4,4"/>
<g id="clust1" class="cluster">
<title>cluster_0</title>
<polygon fill="dimgray" stroke="black" points="8,-8 8,-1096 3027.36,-1096 3027.36,-8 8,-8"/>
</g>
<g id="clust2" class="cluster">
<title>cluster_net_0</title>
<polygon fill="white" stroke="black" points="159.37,-90 159.37,-1014 3019.36,-1014 3019.36,-90 159.37,-90"/>
</g>
<g id="clust3" class="cluster">
<title>cluster_1</title>
<polygon fill="yellow" stroke="black" points="2918.36,-550 2918.36,-910 3011.36,-910 3011.36,-550 2918.36,-550"/>
</g>
<g id="clust4" class="cluster">
<title>cluster_2</title>
<polygon fill="yellow" stroke="black" points="2675.24,-550 2675.24,-994 2808.36,-994 2808.36,-550 2675.24,-550"/>
</g>
<g id="clust5" class="cluster">
<title>cluster_3</title>
<polygon fill="yellow" stroke="black" points="2005.14,-646 2005.14,-1006 2501.86,-1006 2501.86,-646 2005.14,-646"/>
</g>
<g id="clust6" class="cluster">
<title>cluster_4</title>
<polygon fill="yellow" stroke="black" points="1063.51,-573 1063.51,-933 1560.23,-933 1560.23,-573 1063.51,-573"/>
</g>
<g id="clust7" class="cluster">
<title>cluster_5</title>
<polygon fill="yellow" stroke="black" points="650.92,-607 650.92,-883 868.92,-883 868.92,-607 650.92,-607"/>
</g>
<g id="clust8" class="cluster">
<title>cluster_6</title>
<polygon fill="yellow" stroke="black" points="2675.24,-98 2675.24,-542 2808.36,-542 2808.36,-98 2675.24,-98"/>
</g>
<g id="clust9" class="cluster">
<title>cluster_7</title>
<polygon fill="yellow" stroke="black" points="288.71,-646 288.71,-1006 474.71,-1006 474.71,-646 288.71,-646"/>
</g>
<!-- n0_condition -->
<g id="node1" class="node">
<title>n0_condition</title>
<polygon fill="white" stroke="black" points="18.19,-1006 18.19,-1042 129.19,-1042 129.19,-1006 18.19,-1006"/>
<text text-anchor="middle" x="73.69" y="-1020.3" font-family="Times,serif" font-size="14.00">feynman_deg</text>
</g>
<!-- n0_port_0 -->
<g id="node2" class="node">
<title>n0_port_0</title>
<polygon fill="white" stroke="black" points="131.56,-919.33 73.69,-942.43 15.81,-919.33 15.87,-881.96 131.5,-881.96 131.56,-919.33"/>
<text text-anchor="middle" x="73.69" y="-912.8" font-family="Times,serif" font-size="14.00">degree</text>
<text text-anchor="middle" x="73.69" y="-897.8" font-family="Times,serif" font-size="14.00">int</text>
</g>
<!-- n0_place_0 -->
<g id="node6" class="node">
<title>n0_place_0</title>
<ellipse fill="white" stroke="black" cx="214.04" cy="-909" rx="46.84" ry="26.74"/>
<text text-anchor="middle" x="214.04" y="-912.8" font-family="Times,serif" font-size="14.00">degree</text>
<text text-anchor="middle" x="214.04" y="-897.8" font-family="Times,serif" font-size="14.00">int</text>
</g>
<!-- n0_port_0&#45;&gt;n0_place_0 -->
<g id="edge23" class="edge">
<title>n0_port_0&#45;&gt;n0_place_0</title>
<path fill="none" stroke="black" stroke-dasharray="1,5" d="M131.76,-909C143.52,-909 155.76,-909 167.07,-909"/>
</g>
<!-- n0_port_1 -->
<g id="node3" class="node">
<title>n0_port_1</title>
<polygon fill="white" stroke="black" points="105.12,-835.33 73.69,-858.43 42.26,-835.33 42.29,-797.96 105.09,-797.96 105.12,-835.33"/>
<text text-anchor="middle" x="73.69" y="-828.8" font-family="Times,serif" font-size="14.00">N</text>
<text text-anchor="middle" x="73.69" y="-813.8" font-family="Times,serif" font-size="14.00">int</text>
</g>
<!-- n0_place_1 -->
<g id="node7" class="node">
<title>n0_place_1</title>
<ellipse fill="white" stroke="black" cx="214.04" cy="-825" rx="27" ry="26.74"/>
<text text-anchor="middle" x="214.04" y="-828.8" font-family="Times,serif" font-size="14.00">N</text>
<text text-anchor="middle" x="214.04" y="-813.8" font-family="Times,serif" font-size="14.00">int</text>
</g>
<!-- n0_port_1&#45;&gt;n0_place_1 -->
<g id="edge24" class="edge">
<title>n0_port_1&#45;&gt;n0_place_1</title>
<path fill="none" stroke="black" stroke-dasharray="1,5" d="M105.39,-825C129.75,-825 163.45,-825 186.62,-825"/>
</g>
<!-- n0_port_2 -->
<g id="node4" class="node">
<title>n0_port_2</title>
<polygon fill="white" stroke="black" points="811.55,-1065.33 759.92,-1088.43 708.28,-1065.33 708.33,-1027.96 811.51,-1027.96 811.55,-1065.33"/>
<text text-anchor="middle" x="759.92" y="-1058.8" font-family="Times,serif" font-size="14.00">graph</text>
<text text-anchor="middle" x="759.92" y="-1043.8" font-family="Times,serif" font-size="14.00">string</text>
</g>
<!-- n0_place_7 -->
<g id="node13" class="node">
<title>n0_place_7</title>
<ellipse fill="white" stroke="black" cx="966.21" cy="-944" rx="41.94" ry="26.74"/>
<text text-anchor="middle" x="966.21" y="-947.8" font-family="Times,serif" font-size="14.00">graph</text>
<text text-anchor="middle" x="966.21" y="-932.8" font-family="Times,serif" font-size="14.00">string</text>
</g>
<!-- n0_port_2&#45;&gt;n0_place_7 -->
<g id="edge25" class="edge">
<title>n0_port_2&#45;&gt;n0_place_7</title>
<path fill="none" stroke="black" stroke-dasharray="1,5" d="M810.9,-1027.85C849.29,-1006.99 901.12,-978.83 933.86,-961.04"/>
</g>
<!-- n0_port_3 -->
<g id="node5" class="node">
<title>n0_port_3</title>
<polygon fill="white" stroke="black" points="2710.36,-38.67 2741.8,-15.57 2773.23,-38.67 2773.2,-76.04 2710.39,-76.04 2710.36,-38.67"/>
<text text-anchor="middle" x="2741.8" y="-52.8" font-family="Times,serif" font-size="14.00">L</text>
<text text-anchor="middle" x="2741.8" y="-37.8" font-family="Times,serif" font-size="14.00">int</text>
</g>
<!-- n0_place_6 -->
<g id="node12" class="node">
<title>n0_place_6</title>
<ellipse fill="white" stroke="black" cx="2863.36" cy="-277" rx="27" ry="26.74"/>
<text text-anchor="middle" x="2863.36" y="-280.8" font-family="Times,serif" font-size="14.00">L</text>
<text text-anchor="middle" x="2863.36" y="-265.8" font-family="Times,serif" font-size="14.00">int</text>
</g>
<!-- n0_port_3&#45;&gt;n0_place_6 -->
<g id="edge26" class="edge">
<title>n0_port_3&#45;&gt;n0_place_6</title>
<path fill="none" stroke="black" stroke-dasharray="1,5" d="M2773.4,-64.02C2785.83,-71.49 2799.35,-81.6 2808.36,-94 2843.2,-141.98 2855.72,-212.33 2860.09,-250.31"/>
</g>
<!-- n7_port_0 -->
<g id="node49" class="node">
<title>n7_port_0</title>
<polygon fill="white" stroke="black" points="413.14,-919.33 381.71,-942.43 350.28,-919.33 350.31,-881.96 413.11,-881.96 413.14,-919.33"/>
<text text-anchor="middle" x="381.71" y="-912.8" font-family="Times,serif" font-size="14.00">d</text>
<text text-anchor="middle" x="381.71" y="-897.8" font-family="Times,serif" font-size="14.00">int</text>
</g>
<!-- n0_place_0&#45;&gt;n7_port_0 -->
<g id="edge21" class="edge">
<title>n0_place_0&#45;&gt;n7_port_0</title>
<path fill="none" stroke="black" d="M260.75,-909C285.53,-909 315.9,-909 339.88,-909"/>
<polygon fill="black" stroke="black" points="340.06,-912.5 350.06,-909 340.06,-905.5 340.06,-912.5"/>
</g>
<!-- n7_port_1 -->
<g id="node50" class="node">
<title>n7_port_1</title>
<polygon fill="white" stroke="black" points="413.14,-835.33 381.71,-858.43 350.28,-835.33 350.31,-797.96 413.11,-797.96 413.14,-835.33"/>
<text text-anchor="middle" x="381.71" y="-828.8" font-family="Times,serif" font-size="14.00">n</text>
<text text-anchor="middle" x="381.71" y="-813.8" font-family="Times,serif" font-size="14.00">int</text>
</g>
<!-- n0_place_1&#45;&gt;n7_port_1 -->
<g id="edge22" class="edge">
<title>n0_place_1&#45;&gt;n7_port_1</title>
<path fill="none" stroke="black" d="M241.29,-825C267.85,-825 309.28,-825 340.08,-825"/>
<polygon fill="black" stroke="black" points="340.08,-828.5 350.08,-825 340.08,-821.5 340.08,-828.5"/>
</g>
<!-- n0_place_2 -->
<g id="node8" class="node">
<title>n0_place_2</title>
<ellipse fill="white" stroke="black" cx="966.21" cy="-709" rx="69.09" ry="26.74"/>
<text text-anchor="middle" x="966.21" y="-712.8" font-family="Times,serif" font-size="14.00">branchtype</text>
<text text-anchor="middle" x="966.21" y="-697.8" font-family="Times,serif" font-size="14.00">list</text>
</g>
<!-- n4_port_0 -->
<g id="node34" class="node">
<title>n4_port_0</title>
<polygon fill="white" stroke="black" points="1346.04,-762.33 1311.87,-785.43 1277.7,-762.33 1277.73,-724.96 1346.01,-724.96 1346.04,-762.33"/>
<text text-anchor="middle" x="1311.87" y="-755.8" font-family="Times,serif" font-size="14.00">a</text>
<text text-anchor="middle" x="1311.87" y="-740.8" font-family="Times,serif" font-size="14.00">list</text>
</g>
<!-- n0_place_2&#45;&gt;n4_port_0 -->
<g id="edge12" class="edge">
<title>n0_place_2&#45;&gt;n4_port_0</title>
<path fill="none" stroke="black" d="M1032.26,-717.14C1101.1,-725.75 1207.82,-739.11 1267.21,-746.54"/>
<polygon fill="black" stroke="black" points="1267.02,-750.04 1277.37,-747.81 1267.89,-743.09 1267.02,-750.04"/>
</g>
<!-- n0_place_3 -->
<g id="node9" class="node">
<title>n0_place_3</title>
<ellipse fill="white" stroke="black" cx="2588.55" cy="-819" rx="48.17" ry="26.74"/>
<text text-anchor="middle" x="2588.55" y="-822.8" font-family="Times,serif" font-size="14.00">fey_out</text>
<text text-anchor="middle" x="2588.55" y="-807.8" font-family="Times,serif" font-size="14.00">int</text>
</g>
<!-- n2_port_0 -->
<g id="node23" class="node">
<title>n2_port_0</title>
<polygon fill="white" stroke="black" points="2773.23,-907.33 2741.8,-930.43 2710.36,-907.33 2710.39,-869.96 2773.2,-869.96 2773.23,-907.33"/>
<text text-anchor="middle" x="2741.8" y="-900.8" font-family="Times,serif" font-size="14.00">a</text>
<text text-anchor="middle" x="2741.8" y="-885.8" font-family="Times,serif" font-size="14.00">int</text>
</g>
<!-- n0_place_3&#45;&gt;n2_port_0 -->
<g id="edge7" class="edge">
<title>n0_place_3&#45;&gt;n2_port_0</title>
<path fill="none" stroke="black" d="M2624.63,-837.09C2647.43,-848.85 2677.22,-864.21 2700.92,-876.44"/>
<polygon fill="black" stroke="black" points="2699.51,-879.65 2710.01,-881.12 2702.72,-873.43 2699.51,-879.65"/>
</g>
<!-- n6_port_0 -->
<g id="node43" class="node">
<title>n6_port_0</title>
<polygon fill="white" stroke="black" points="2773.23,-455.33 2741.8,-478.43 2710.36,-455.33 2710.39,-417.96 2773.2,-417.96 2773.23,-455.33"/>
<text text-anchor="middle" x="2741.8" y="-448.8" font-family="Times,serif" font-size="14.00">a</text>
<text text-anchor="middle" x="2741.8" y="-433.8" font-family="Times,serif" font-size="14.00">int</text>
</g>
<!-- n0_place_3&#45;&gt;n6_port_0 -->
<g id="edge18" class="edge">
<title>n0_place_3&#45;&gt;n6_port_0</title>
<path fill="none" stroke="black" d="M2596.43,-792.27C2616.69,-713.67 2674.66,-488.8 2675.24,-488 2682.67,-477.63 2693.45,-469.09 2704.13,-462.42"/>
<polygon fill="black" stroke="black" points="2706.11,-465.32 2713,-457.27 2702.6,-459.27 2706.11,-465.32"/>
</g>
<!-- n0_place_4 -->
<g id="node10" class="node">
<title>n0_place_4</title>
<ellipse fill="white" stroke="black" cx="562.81" cy="-756" rx="60.21" ry="26.74"/>
<text text-anchor="middle" x="562.81" y="-759.8" font-family="Times,serif" font-size="14.00">d_vectors</text>
<text text-anchor="middle" x="562.81" y="-744.8" font-family="Times,serif" font-size="14.00">list</text>
</g>
<!-- n5_port_0 -->
<g id="node39" class="node">
<title>n5_port_0</title>
<polygon fill="white" stroke="black" points="794.09,-796.33 759.92,-819.43 725.74,-796.33 725.78,-758.96 794.06,-758.96 794.09,-796.33"/>
<text text-anchor="middle" x="759.92" y="-789.8" font-family="Times,serif" font-size="14.00">v</text>
<text text-anchor="middle" x="759.92" y="-774.8" font-family="Times,serif" font-size="14.00">list</text>
</g>
<!-- n0_place_4&#45;&gt;n5_port_0 -->
<g id="edge15" class="edge">
<title>n0_place_4&#45;&gt;n5_port_0</title>
<path fill="none" stroke="black" d="M619.98,-764.64C650.46,-769.32 687.56,-775.03 715.75,-779.36"/>
<polygon fill="black" stroke="black" points="715.29,-782.83 725.7,-780.89 716.35,-775.91 715.29,-782.83"/>
</g>
<!-- n0_place_5 -->
<g id="node11" class="node">
<title>n0_place_5</title>
<ellipse fill="white" stroke="black" cx="1782.68" cy="-764" rx="194.41" ry="26.74"/>
<text text-anchor="middle" x="1782.68" y="-767.8" font-family="Times,serif" font-size="14.00">sign</text>
<text text-anchor="middle" x="1782.68" y="-752.8" font-family="Times,serif" font-size="14.00">myvector :: [fact :: int, branch :: list]</text>
</g>
<!-- n3_port_0 -->
<g id="node29" class="node">
<title>n3_port_0</title>
<polygon fill="white" stroke="black" points="2493.71,-835.33 2253.5,-858.43 2013.28,-835.33 2013.5,-797.96 2493.49,-797.96 2493.71,-835.33"/>
<text text-anchor="middle" x="2253.5" y="-828.8" font-family="Times,serif" font-size="14.00">a</text>
<text text-anchor="middle" x="2253.5" y="-813.8" font-family="Times,serif" font-size="14.00">myvector :: [fact :: int, branch :: list]</text>
</g>
<!-- n0_place_5&#45;&gt;n3_port_0 -->
<g id="edge9" class="edge">
<title>n0_place_5&#45;&gt;n3_port_0</title>
<path fill="none" stroke="black" d="M1924.98,-782.38C1959.5,-786.88 1997.25,-791.79 2034.44,-796.63"/>
<polygon fill="black" stroke="black" points="2034.02,-800.1 2044.39,-797.92 2034.93,-793.16 2034.02,-800.1"/>
</g>
<!-- n1_port_1 -->
<g id="node18" class="node">
<title>n1_port_1</title>
<polygon fill="white" stroke="black" points="2996.29,-655.33 2964.86,-678.43 2933.43,-655.33 2933.45,-617.96 2996.26,-617.96 2996.29,-655.33"/>
<text text-anchor="middle" x="2964.86" y="-648.8" font-family="Times,serif" font-size="14.00">l</text>
<text text-anchor="middle" x="2964.86" y="-633.8" font-family="Times,serif" font-size="14.00">int</text>
</g>
<!-- n0_place_6&#45;&gt;n1_port_1 -->
<g id="edge3" class="edge">
<title>n0_place_6&#45;&gt;n1_port_1</title>
<path fill="none" stroke="black" d="M2866.54,-303.75C2872.47,-372.03 2890.33,-551.06 2918.36,-603 2920.54,-607.05 2923.26,-610.92 2926.29,-614.55"/>
<polygon fill="black" stroke="black" points="2923.93,-617.15 2933.29,-622.12 2929.07,-612.4 2923.93,-617.15"/>
</g>
<!-- n3_port_1 -->
<g id="node30" class="node">
<title>n3_port_1</title>
<polygon fill="white" stroke="black" points="2305.13,-919.33 2253.5,-942.43 2201.86,-919.33 2201.91,-881.96 2305.08,-881.96 2305.13,-919.33"/>
<text text-anchor="middle" x="2253.5" y="-912.8" font-family="Times,serif" font-size="14.00">G</text>
<text text-anchor="middle" x="2253.5" y="-897.8" font-family="Times,serif" font-size="14.00">string</text>
</g>
<!-- n0_place_7&#45;&gt;n3_port_1 -->
<g id="edge10" class="edge">
<title>n0_place_7&#45;&gt;n3_port_1</title>
<path fill="none" stroke="black" stroke-dasharray="5,2" d="M1008.2,-943.92C1104.53,-943.64 1352.83,-942.42 1560.23,-937 1793.61,-930.9 2071.04,-917.96 2191.57,-912.05"/>
<polygon fill="black" stroke="black" points="2191.89,-915.54 2201.7,-911.55 2191.55,-908.55 2191.89,-915.54"/>
</g>
<!-- n4_port_1 -->
<g id="node35" class="node">
<title>n4_port_1</title>
<polygon fill="white" stroke="black" points="1363.51,-846.33 1311.87,-869.43 1260.23,-846.33 1260.28,-808.96 1363.46,-808.96 1363.51,-846.33"/>
<text text-anchor="middle" x="1311.87" y="-839.8" font-family="Times,serif" font-size="14.00">G</text>
<text text-anchor="middle" x="1311.87" y="-824.8" font-family="Times,serif" font-size="14.00">string</text>
</g>
<!-- n0_place_7&#45;&gt;n4_port_1 -->
<g id="edge13" class="edge">
<title>n0_place_7&#45;&gt;n4_port_1</title>
<path fill="none" stroke="black" stroke-dasharray="5,2" d="M992.08,-922.87C1010.6,-908.27 1037.13,-889.63 1063.51,-879 1124.03,-854.62 1198.35,-844.05 1249.64,-839.47"/>
<polygon fill="black" stroke="black" points="1250.22,-842.94 1259.9,-838.61 1249.64,-835.96 1250.22,-842.94"/>
</g>
<!-- n0_place_8 -->
<g id="node14" class="node">
<title>n0_place_8</title>
<ellipse fill="white" stroke="black" cx="2588.55" cy="-549" rx="50.41" ry="37.45"/>
<text text-anchor="middle" x="2588.55" y="-560.3" font-family="Times,serif" font-size="14.00">left_init</text>
<text text-anchor="middle" x="2588.55" y="-545.3" font-family="Times,serif" font-size="14.00">control</text>
<text text-anchor="middle" x="2588.55" y="-530.3" font-family="Times,serif" font-size="14.00">[]</text>
</g>
<!-- n6_port_1 -->
<g id="node44" class="node">
<title>n6_port_1</title>
<polygon fill="white" stroke="black" points="2800.42,-371.33 2741.8,-394.43 2683.17,-371.33 2683.23,-333.96 2800.36,-333.96 2800.42,-371.33"/>
<text text-anchor="middle" x="2741.8" y="-364.8" font-family="Times,serif" font-size="14.00">s</text>
<text text-anchor="middle" x="2741.8" y="-349.8" font-family="Times,serif" font-size="14.00">control</text>
</g>
<!-- n0_place_8&#45;&gt;n6_port_1 -->
<g id="edge19" class="edge">
<title>n0_place_8&#45;&gt;n6_port_1</title>
<path fill="none" stroke="black" d="M2604.57,-513.47C2619.22,-481.83 2643.86,-435.62 2675.24,-403 2681.3,-396.7 2688.48,-390.9 2695.83,-385.75"/>
<polygon fill="black" stroke="black" points="2698.08,-388.46 2704.48,-380.02 2694.22,-382.62 2698.08,-388.46"/>
</g>
<!-- n0_place_9 -->
<g id="node15" class="node">
<title>n0_place_9</title>
<ellipse fill="white" stroke="black" cx="2588.55" cy="-330" rx="58.88" ry="26.74"/>
<text text-anchor="middle" x="2588.55" y="-333.8" font-family="Times,serif" font-size="14.00">right_init</text>
<text text-anchor="middle" x="2588.55" y="-318.8" font-family="Times,serif" font-size="14.00">control</text>
</g>
<!-- n2_port_1 -->
<g id="node24" class="node">
<title>n2_port_1</title>
<polygon fill="white" stroke="black" points="2800.42,-655.33 2741.8,-678.43 2683.17,-655.33 2683.23,-617.96 2800.36,-617.96 2800.42,-655.33"/>
<text text-anchor="middle" x="2741.8" y="-648.8" font-family="Times,serif" font-size="14.00">s</text>
<text text-anchor="middle" x="2741.8" y="-633.8" font-family="Times,serif" font-size="14.00">control</text>
</g>
<!-- n0_place_9&#45;&gt;n2_port_1 -->
<g id="edge6" class="edge">
<title>n0_place_9&#45;&gt;n2_port_1</title>
<path fill="none" stroke="black" d="M2598.85,-356.54C2610.6,-390.39 2631.23,-450.78 2647.24,-503 2660.76,-547.13 2647.78,-565.9 2675.24,-603 2677.25,-605.72 2679.49,-608.3 2681.9,-610.76"/>
<polygon fill="black" stroke="black" points="2679.82,-613.6 2689.57,-617.73 2684.53,-608.42 2679.82,-613.6"/>
</g>
<!-- n0_place_10 -->
<g id="node16" class="node">
<title>n0_place_10</title>
<ellipse fill="white" stroke="black" cx="2863.36" cy="-729" rx="27" ry="26.74"/>
<text text-anchor="middle" x="2863.36" y="-732.8" font-family="Times,serif" font-size="14.00">R</text>
<text text-anchor="middle" x="2863.36" y="-717.8" font-family="Times,serif" font-size="14.00">int</text>
</g>
<!-- n1_port_2 -->
<g id="node19" class="node">
<title>n1_port_2</title>
<polygon fill="white" stroke="black" points="2996.29,-739.33 2964.86,-762.43 2933.43,-739.33 2933.45,-701.96 2996.26,-701.96 2996.29,-739.33"/>
<text text-anchor="middle" x="2964.86" y="-732.8" font-family="Times,serif" font-size="14.00">r</text>
<text text-anchor="middle" x="2964.86" y="-717.8" font-family="Times,serif" font-size="14.00">int</text>
</g>
<!-- n0_place_10&#45;&gt;n1_port_2 -->
<g id="edge2" class="edge">
<title>n0_place_10&#45;&gt;n1_port_2</title>
<path fill="none" stroke="black" d="M2890.5,-729C2900.45,-729 2912.03,-729 2923.02,-729"/>
<polygon fill="black" stroke="black" points="2923.3,-732.5 2933.3,-729 2923.3,-725.5 2923.3,-732.5"/>
</g>
<!-- n1_condition -->
<g id="node17" class="node">
<title>n1_condition</title>
<polygon fill="white" stroke="black" points="2930.36,-865 2930.36,-901 2999.36,-901 2999.36,-865 2930.36,-865"/>
<text text-anchor="middle" x="2964.86" y="-879.3" font-family="Times,serif" font-size="14.00">Reduce</text>
</g>
<!-- n1_port_0 -->
<g id="node20" class="node">
<title>n1_port_0</title>
<polygon fill="white" stroke="black" points="2933.43,-802.67 2964.86,-779.57 2996.29,-802.67 2996.26,-840.04 2933.45,-840.04 2933.43,-802.67"/>
<text text-anchor="middle" x="2964.86" y="-816.8" font-family="Times,serif" font-size="14.00">s</text>
<text text-anchor="middle" x="2964.86" y="-801.8" font-family="Times,serif" font-size="14.00">int</text>
</g>
<!-- n1_port_0&#45;&gt;n0_place_3 -->
<g id="edge1" class="edge">
<title>n1_port_0&#45;&gt;n0_place_3</title>
<path fill="none" stroke="black" d="M2933.83,-840.12C2928.53,-845.25 2923.17,-850.69 2918.36,-856 2864.74,-915.15 2880.04,-962.86 2808.36,-998 2755.23,-1024.05 2725.29,-1029.54 2675.24,-998 2625.82,-966.87 2604.27,-898.47 2595.36,-855.82"/>
<polygon fill="black" stroke="black" points="2598.76,-854.97 2593.4,-845.83 2591.89,-856.32 2598.76,-854.97"/>
</g>
<!-- n1_modcall -->
<g id="node21" class="node">
<title>n1_modcall</title>
<polygon fill="white" stroke="black" points="3003.36,-594 2926.36,-594 2926.36,-558 3003.36,-558 3003.36,-594"/>
<text text-anchor="middle" x="2964.86" y="-572.3" font-family="Times,serif" font-size="14.00">sum.add</text>
</g>
<!-- n2_condition -->
<g id="node22" class="node">
<title>n2_condition</title>
<polygon fill="white" stroke="black" points="2714.8,-949 2714.8,-985 2768.8,-985 2768.8,-949 2714.8,-949"/>
<text text-anchor="middle" x="2741.8" y="-963.3" font-family="Times,serif" font-size="14.00">RHS</text>
</g>
<!-- n2_port_2 -->
<g id="node25" class="node">
<title>n2_port_2</title>
<polygon fill="white" stroke="black" points="2710.36,-718.67 2741.8,-695.57 2773.23,-718.67 2773.2,-756.04 2710.39,-756.04 2710.36,-718.67"/>
<text text-anchor="middle" x="2741.8" y="-732.8" font-family="Times,serif" font-size="14.00">a</text>
<text text-anchor="middle" x="2741.8" y="-717.8" font-family="Times,serif" font-size="14.00">int</text>
</g>
<!-- n2_port_2&#45;&gt;n0_place_10 -->
<g id="edge4" class="edge">
<title>n2_port_2&#45;&gt;n0_place_10</title>
<path fill="none" stroke="black" d="M2773.27,-729C2789.32,-729 2809.1,-729 2825.94,-729"/>
<polygon fill="black" stroke="black" points="2825.99,-732.5 2835.99,-729 2825.99,-725.5 2825.99,-732.5"/>
</g>
<!-- n2_port_3 -->
<g id="node26" class="node">
<title>n2_port_3</title>
<polygon fill="white" stroke="black" points="2683.17,-802.67 2741.8,-779.57 2800.42,-802.67 2800.36,-840.04 2683.23,-840.04 2683.17,-802.67"/>
<text text-anchor="middle" x="2741.8" y="-816.8" font-family="Times,serif" font-size="14.00">s</text>
<text text-anchor="middle" x="2741.8" y="-801.8" font-family="Times,serif" font-size="14.00">control</text>
</g>
<!-- n2_port_3&#45;&gt;n0_place_8 -->
<g id="edge5" class="edge">
<title>n2_port_3&#45;&gt;n0_place_8</title>
<path fill="none" stroke="black" d="M2703.21,-794.6C2693.09,-788.23 2682.84,-780.32 2675.24,-771 2633.04,-719.31 2609.98,-644.48 2598.7,-596.28"/>
<polygon fill="black" stroke="black" points="2602.09,-595.4 2596.47,-586.42 2595.26,-596.94 2602.09,-595.4"/>
</g>
<!-- n2_modcall -->
<g id="node27" class="node">
<title>n2_modcall</title>
<polygon fill="white" stroke="black" points="2787.3,-594 2696.3,-594 2696.3,-558 2787.3,-558 2787.3,-594"/>
<text text-anchor="middle" x="2741.8" y="-572.3" font-family="Times,serif" font-size="14.00">token.plus</text>
</g>
<!-- n3_condition -->
<g id="node28" class="node">
<title>n3_condition</title>
<polygon fill="white" stroke="black" points="2186.5,-961 2186.5,-997 2320.5,-997 2320.5,-961 2186.5,-961"/>
<text text-anchor="middle" x="2253.5" y="-975.3" font-family="Times,serif" font-size="14.00">feynman_degree</text>
</g>
<!-- n3_port_2 -->
<g id="node31" class="node">
<title>n3_port_2</title>
<polygon fill="white" stroke="black" points="2222.07,-730.67 2253.5,-707.57 2284.93,-730.67 2284.9,-768.04 2222.1,-768.04 2222.07,-730.67"/>
<text text-anchor="middle" x="2253.5" y="-744.8" font-family="Times,serif" font-size="14.00">s</text>
<text text-anchor="middle" x="2253.5" y="-729.8" font-family="Times,serif" font-size="14.00">int</text>
</g>
<!-- n3_port_2&#45;&gt;n0_place_3 -->
<g id="edge8" class="edge">
<title>n3_port_2&#45;&gt;n0_place_3</title>
<path fill="none" stroke="black" d="M2285.08,-743.91C2332.31,-748.91 2425.52,-760.81 2501.86,-783 2515.19,-786.88 2529.24,-792.22 2542.03,-797.6"/>
<polygon fill="black" stroke="black" points="2540.95,-800.94 2551.52,-801.69 2543.73,-794.52 2540.95,-800.94"/>
</g>
<!-- n3_modcall -->
<g id="node32" class="node">
<title>n3_modcall</title>
<polygon fill="white" stroke="black" points="2385,-690 2122,-690 2122,-654 2385,-654 2385,-690"/>
<text text-anchor="middle" x="2253.5" y="-668.3" font-family="Times,serif" font-size="14.00">feynman.feynman_integral_degree</text>
</g>
<!-- n4_condition -->
<g id="node33" class="node">
<title>n4_condition</title>
<polygon fill="white" stroke="black" points="1269.37,-888 1269.37,-924 1354.37,-924 1354.37,-888 1269.37,-888"/>
<text text-anchor="middle" x="1311.87" y="-902.3" font-family="Times,serif" font-size="14.00">signature</text>
</g>
<!-- n4_port_2 -->
<g id="node36" class="node">
<title>n4_port_2</title>
<polygon fill="white" stroke="black" points="1071.65,-657.67 1311.87,-634.57 1552.09,-657.67 1551.86,-695.04 1071.88,-695.04 1071.65,-657.67"/>
<text text-anchor="middle" x="1311.87" y="-671.8" font-family="Times,serif" font-size="14.00">s</text>
<text text-anchor="middle" x="1311.87" y="-656.8" font-family="Times,serif" font-size="14.00">myvector :: [fact :: int, branch :: list]</text>
</g>
<!-- n4_port_2&#45;&gt;n0_place_5 -->
<g id="edge11" class="edge">
<title>n4_port_2&#45;&gt;n0_place_5</title>
<path fill="none" stroke="black" d="M1482.51,-693.13C1508.72,-697.8 1535.43,-702.84 1560.63,-708.04 1600.27,-716.23 1643.51,-726.47 1681.22,-735.84"/>
<path fill="none" stroke="transparent" d="M1482.16,-695.1C1508.35,-699.77 1535.06,-704.8 1560.23,-710 1599.81,-718.17 1643.05,-728.42 1680.74,-737.78"/>
<path fill="none" stroke="black" d="M1481.81,-697.07C1507.98,-701.73 1534.69,-706.77 1559.82,-711.96 1599.35,-720.12 1642.59,-730.37 1680.25,-739.73"/>
<polygon fill="black" stroke="black" points="1680.15,-741.25 1690.7,-740.27 1681.84,-734.45 1680.15,-741.25"/>
</g>
<!-- n4_modcall -->
<g id="node37" class="node">
<title>n4_modcall</title>
<polygon fill="white" stroke="black" points="1453.87,-617 1169.87,-617 1169.87,-581 1453.87,-581 1453.87,-617"/>
<text text-anchor="middle" x="1311.87" y="-595.3" font-family="Times,serif" font-size="14.00">signature.signature_and_multiplicitie</text>
</g>
<!-- n5_condition -->
<g id="node38" class="node">
<title>n5_condition</title>
<polygon fill="white" stroke="black" points="706.42,-838 706.42,-874 813.42,-874 813.42,-838 706.42,-838"/>
<text text-anchor="middle" x="759.92" y="-852.3" font-family="Times,serif" font-size="14.00">Combination</text>
</g>
<!-- n5_port_1 -->
<g id="node40" class="node">
<title>n5_port_1</title>
<polygon fill="white" stroke="black" points="724.25,-691.67 759.92,-668.57 795.59,-691.67 795.56,-729.04 724.28,-729.04 724.25,-691.67"/>
<text text-anchor="middle" x="759.92" y="-705.8" font-family="Times,serif" font-size="14.00">vec</text>
<text text-anchor="middle" x="759.92" y="-690.8" font-family="Times,serif" font-size="14.00">list</text>
</g>
<!-- n5_port_1&#45;&gt;n0_place_2 -->
<g id="edge14" class="edge">
<title>n5_port_1&#45;&gt;n0_place_2</title>
<path fill="none" stroke="black" d="M796.11,-701.2C821.12,-702.06 855.74,-703.25 887.15,-704.32"/>
<path fill="none" stroke="transparent" d="M796.04,-703.2C821.05,-704.06 855.67,-705.25 887.08,-706.32"/>
<path fill="none" stroke="black" d="M795.97,-705.2C820.99,-706.06 855.6,-707.25 887.01,-708.32"/>
<polygon fill="black" stroke="black" points="887.03,-709.82 897.15,-706.67 887.27,-702.83 887.03,-709.82"/>
</g>
<!-- n5_modcall -->
<g id="node41" class="node">
<title>n5_modcall</title>
<polygon fill="white" stroke="black" points="860.92,-651 658.92,-651 658.92,-615 860.92,-615 860.92,-651"/>
<text text-anchor="middle" x="759.92" y="-629.3" font-family="Times,serif" font-size="14.00">combination_vec.partition</text>
</g>
<!-- n6_condition -->
<g id="node42" class="node">
<title>n6_condition</title>
<polygon fill="white" stroke="black" points="2714.8,-497 2714.8,-533 2768.8,-533 2768.8,-497 2714.8,-497"/>
<text text-anchor="middle" x="2741.8" y="-511.3" font-family="Times,serif" font-size="14.00">LHS</text>
</g>
<!-- n6_port_2 -->
<g id="node45" class="node">
<title>n6_port_2</title>
<polygon fill="white" stroke="black" points="2710.36,-266.67 2741.8,-243.57 2773.23,-266.67 2773.2,-304.04 2710.39,-304.04 2710.36,-266.67"/>
<text text-anchor="middle" x="2741.8" y="-280.8" font-family="Times,serif" font-size="14.00">a</text>
<text text-anchor="middle" x="2741.8" y="-265.8" font-family="Times,serif" font-size="14.00">int</text>
</g>
<!-- n6_port_2&#45;&gt;n0_place_6 -->
<g id="edge16" class="edge">
<title>n6_port_2&#45;&gt;n0_place_6</title>
<path fill="none" stroke="black" d="M2773.27,-277C2789.32,-277 2809.1,-277 2825.94,-277"/>
<polygon fill="black" stroke="black" points="2825.99,-280.5 2835.99,-277 2825.99,-273.5 2825.99,-280.5"/>
</g>
<!-- n6_port_3 -->
<g id="node46" class="node">
<title>n6_port_3</title>
<polygon fill="white" stroke="black" points="2683.17,-182.67 2741.8,-159.57 2800.42,-182.67 2800.36,-220.04 2683.23,-220.04 2683.17,-182.67"/>
<text text-anchor="middle" x="2741.8" y="-196.8" font-family="Times,serif" font-size="14.00">s</text>
<text text-anchor="middle" x="2741.8" y="-181.8" font-family="Times,serif" font-size="14.00">control</text>
</g>
<!-- n6_port_3&#45;&gt;n0_place_9 -->
<g id="edge17" class="edge">
<title>n6_port_3&#45;&gt;n0_place_9</title>
<path fill="none" stroke="black" d="M2694.88,-220.17C2688.08,-224.83 2681.32,-229.84 2675.24,-235 2653.45,-253.48 2631.92,-277.37 2615.89,-296.57"/>
<polygon fill="black" stroke="black" points="2613.03,-294.54 2609.38,-304.48 2618.44,-298.99 2613.03,-294.54"/>
</g>
<!-- n6_modcall -->
<g id="node47" class="node">
<title>n6_modcall</title>
<polygon fill="white" stroke="black" points="2792.3,-142 2691.3,-142 2691.3,-106 2792.3,-106 2792.3,-142"/>
<text text-anchor="middle" x="2741.8" y="-120.3" font-family="Times,serif" font-size="14.00">token.count</text>
</g>
<!-- n7_condition -->
<g id="node48" class="node">
<title>n7_condition</title>
<polygon fill="white" stroke="black" points="342.21,-961 342.21,-997 421.21,-997 421.21,-961 342.21,-961"/>
<text text-anchor="middle" x="381.71" y="-975.3" font-family="Times,serif" font-size="14.00">partition</text>
</g>
<!-- n7_port_2 -->
<g id="node51" class="node">
<title>n7_port_2</title>
<polygon fill="white" stroke="black" points="347.54,-730.67 381.71,-707.57 415.89,-730.67 415.85,-768.04 347.57,-768.04 347.54,-730.67"/>
<text text-anchor="middle" x="381.71" y="-744.8" font-family="Times,serif" font-size="14.00">v</text>
<text text-anchor="middle" x="381.71" y="-729.8" font-family="Times,serif" font-size="14.00">list</text>
</g>
<!-- n7_port_2&#45;&gt;n0_place_4 -->
<g id="edge20" class="edge">
<title>n7_port_2&#45;&gt;n0_place_4</title>
<path fill="none" stroke="black" d="M416.15,-741.79C437.94,-743.62 467.22,-746.07 493.83,-748.3"/>
<path fill="none" stroke="transparent" d="M415.98,-743.79C437.78,-745.61 467.06,-748.06 493.66,-750.29"/>
<path fill="none" stroke="black" d="M415.81,-745.78C437.61,-747.6 466.89,-750.06 493.49,-752.29"/>
<polygon fill="black" stroke="black" points="493.45,-753.79 503.7,-751.13 494.03,-746.81 493.45,-753.79"/>
</g>
<!-- n7_modcall -->
<g id="node52" class="node">
<title>n7_modcall</title>
<polygon fill="white" stroke="black" points="466.71,-690 296.71,-690 296.71,-654 466.71,-654 466.71,-690"/>
<text text-anchor="middle" x="381.71" y="-668.3" font-family="Times,serif" font-size="14.00">sum_degree.sum_deg</text>
</g>
</g>
</svg>
