<?xml version="1.0" encoding="UTF-8" standalone="no"?>
<!DOCTYPE svg PUBLIC "-//W3C//DTD SVG 1.1//EN"
 "http://www.w3.org/Graphics/SVG/1.1/DTD/svg11.dtd">
<!-- Generated by graphviz version 2.43.0 (0)
 -->
<!-- Title: feynman_deg Pages: 1 -->
<svg width="1913pt" height="590pt"
 viewBox="0.00 0.00 1913.50 590.00" xmlns="http://www.w3.org/2000/svg" xmlns:xlink="http://www.w3.org/1999/xlink">
<g id="graph0" class="graph" transform="scale(1 1) rotate(0) translate(4 586)">
<title>feynman_deg</title>
<polygon fill="white" stroke="transparent" points="-4,4 -4,-586 1909.5,-586 1909.5,4 -4,4"/>
<g id="clust1" class="cluster">
<title>cluster_0</title>
<polygon fill="dimgray" stroke="black" points="8,-8 8,-574 1897.5,-574 1897.5,-8 8,-8"/>
</g>
<g id="clust2" class="cluster">
<title>cluster_net_0</title>
<polygon fill="white" stroke="black" points="159.37,-116 159.37,-492 1889.5,-492 1889.5,-116 159.37,-116"/>
</g>
<g id="clust3" class="cluster">
<title>cluster_1</title>
<polygon fill="yellow" stroke="black" points="1660.97,-124 1660.97,-484 1881.5,-484 1881.5,-124 1660.97,-124"/>
</g>
<g id="clust4" class="cluster">
<title>cluster_2</title>
<polygon fill="yellow" stroke="black" points="1100.51,-124 1100.51,-484 1439.51,-484 1439.51,-124 1100.51,-124"/>
</g>
<g id="clust5" class="cluster">
<title>cluster_3</title>
<polygon fill="yellow" stroke="black" points="685.92,-166 685.92,-442 905.92,-442 905.92,-166 685.92,-166"/>
</g>
<g id="clust6" class="cluster">
<title>cluster_4</title>
<polygon fill="yellow" stroke="black" points="288.71,-124 288.71,-484 509.71,-484 509.71,-124 288.71,-124"/>
</g>
<!-- n0_condition -->
<g id="node1" class="node">
<title>n0_condition</title>
<polygon fill="white" stroke="black" points="18.19,-484 18.19,-520 129.19,-520 129.19,-484 18.19,-484"/>
<text text-anchor="middle" x="73.69" y="-498.3" font-family="Times,serif" font-size="14.00">feynman_deg</text>
</g>
<!-- n0_port_0 -->
<g id="node2" class="node">
<title>n0_port_0</title>
<polygon fill="white" stroke="black" points="131.56,-397.33 73.69,-420.43 15.81,-397.33 15.87,-359.96 131.5,-359.96 131.56,-397.33"/>
<text text-anchor="middle" x="73.69" y="-390.8" font-family="Times,serif" font-size="14.00">degree</text>
<text text-anchor="middle" x="73.69" y="-375.8" font-family="Times,serif" font-size="14.00">int</text>
</g>
<!-- n0_place_0 -->
<g id="node6" class="node">
<title>n0_place_0</title>
<ellipse fill="white" stroke="black" cx="214.04" cy="-387" rx="46.84" ry="26.74"/>
<text text-anchor="middle" x="214.04" y="-390.8" font-family="Times,serif" font-size="14.00">degree</text>
<text text-anchor="middle" x="214.04" y="-375.8" font-family="Times,serif" font-size="14.00">int</text>
</g>
<!-- n0_port_0&#45;&gt;n0_place_0 -->
<g id="edge12" class="edge">
<title>n0_port_0&#45;&gt;n0_place_0</title>
<path fill="none" stroke="black" stroke-dasharray="1,5" d="M131.76,-387C143.52,-387 155.76,-387 167.07,-387"/>
</g>
<!-- n0_port_1 -->
<g id="node3" class="node">
<title>n0_port_1</title>
<polygon fill="white" stroke="black" points="105.12,-313.33 73.69,-336.43 42.26,-313.33 42.29,-275.96 105.09,-275.96 105.12,-313.33"/>
<text text-anchor="middle" x="73.69" y="-306.8" font-family="Times,serif" font-size="14.00">N</text>
<text text-anchor="middle" x="73.69" y="-291.8" font-family="Times,serif" font-size="14.00">int</text>
</g>
<!-- n0_place_1 -->
<g id="node7" class="node">
<title>n0_place_1</title>
<ellipse fill="white" stroke="black" cx="214.04" cy="-303" rx="27" ry="26.74"/>
<text text-anchor="middle" x="214.04" y="-306.8" font-family="Times,serif" font-size="14.00">N</text>
<text text-anchor="middle" x="214.04" y="-291.8" font-family="Times,serif" font-size="14.00">int</text>
</g>
<!-- n0_port_1&#45;&gt;n0_place_1 -->
<g id="edge13" class="edge">
<title>n0_port_1&#45;&gt;n0_place_1</title>
<path fill="none" stroke="black" stroke-dasharray="1,5" d="M105.39,-303C129.75,-303 163.45,-303 186.62,-303"/>
</g>
<!-- n0_port_2 -->
<g id="node4" class="node">
<title>n0_port_2</title>
<polygon fill="white" stroke="black" points="847.55,-543.33 795.92,-566.43 744.28,-543.33 744.33,-505.96 847.51,-505.96 847.55,-543.33"/>
<text text-anchor="middle" x="795.92" y="-536.8" font-family="Times,serif" font-size="14.00">graph</text>
<text text-anchor="middle" x="795.92" y="-521.8" font-family="Times,serif" font-size="14.00">string</text>
</g>
<!-- n0_place_6 -->
<g id="node12" class="node">
<title>n0_place_6</title>
<ellipse fill="white" stroke="black" cx="1003.21" cy="-422" rx="41.94" ry="26.74"/>
<text text-anchor="middle" x="1003.21" y="-425.8" font-family="Times,serif" font-size="14.00">graph</text>
<text text-anchor="middle" x="1003.21" y="-410.8" font-family="Times,serif" font-size="14.00">string</text>
</g>
<!-- n0_port_2&#45;&gt;n0_place_6 -->
<g id="edge14" class="edge">
<title>n0_port_2&#45;&gt;n0_place_6</title>
<path fill="none" stroke="black" stroke-dasharray="1,5" d="M847.14,-505.85C885.72,-484.99 937.8,-456.83 970.71,-439.04"/>
</g>
<!-- n0_port_3 -->
<g id="node5" class="node">
<title>n0_port_3</title>
<polygon fill="white" stroke="black" points="1167.99,-47.74 1270.01,-15.85 1372.04,-47.74 1371.94,-99.33 1168.08,-99.33 1167.99,-47.74"/>
<text text-anchor="middle" x="1270.01" y="-73.3" font-family="Times,serif" font-size="14.00">sum</text>
<text text-anchor="middle" x="1270.01" y="-58.3" font-family="Times,serif" font-size="14.00">unsigned long</text>
<text text-anchor="middle" x="1270.01" y="-43.3" font-family="Times,serif" font-size="14.00">0UL</text>
</g>
<!-- n0_place_3 -->
<g id="node9" class="node">
<title>n0_place_3</title>
<ellipse fill="white" stroke="black" cx="1550.24" cy="-219" rx="82.96" ry="37.45"/>
<text text-anchor="middle" x="1550.24" y="-230.3" font-family="Times,serif" font-size="14.00">sum</text>
<text text-anchor="middle" x="1550.24" y="-215.3" font-family="Times,serif" font-size="14.00">unsigned long</text>
<text text-anchor="middle" x="1550.24" y="-200.3" font-family="Times,serif" font-size="14.00">0UL</text>
</g>
<!-- n0_port_3&#45;&gt;n0_place_3 -->
<g id="edge15" class="edge">
<title>n0_port_3&#45;&gt;n0_place_3</title>
<path fill="none" stroke="black" stroke-dasharray="1,5" d="M1371.97,-89.35C1394.96,-97.57 1418.72,-107.74 1439.51,-120 1468.91,-137.33 1497.38,-163.38 1517.95,-184.4"/>
</g>
<!-- n4_port_0 -->
<g id="node28" class="node">
<title>n4_port_0</title>
<polygon fill="white" stroke="black" points="430.64,-397.33 399.21,-420.43 367.78,-397.33 367.81,-359.96 430.61,-359.96 430.64,-397.33"/>
<text text-anchor="middle" x="399.21" y="-390.8" font-family="Times,serif" font-size="14.00">d</text>
<text text-anchor="middle" x="399.21" y="-375.8" font-family="Times,serif" font-size="14.00">int</text>
</g>
<!-- n0_place_0&#45;&gt;n4_port_0 -->
<g id="edge10" class="edge">
<title>n0_place_0&#45;&gt;n4_port_0</title>
<path fill="none" stroke="black" d="M260.79,-387C290.52,-387 328.93,-387 357.58,-387"/>
<polygon fill="black" stroke="black" points="357.66,-390.5 367.66,-387 357.66,-383.5 357.66,-390.5"/>
</g>
<!-- n4_port_1 -->
<g id="node29" class="node">
<title>n4_port_1</title>
<polygon fill="white" stroke="black" points="430.64,-313.33 399.21,-336.43 367.78,-313.33 367.81,-275.96 430.61,-275.96 430.64,-313.33"/>
<text text-anchor="middle" x="399.21" y="-306.8" font-family="Times,serif" font-size="14.00">n</text>
<text text-anchor="middle" x="399.21" y="-291.8" font-family="Times,serif" font-size="14.00">int</text>
</g>
<!-- n0_place_1&#45;&gt;n4_port_1 -->
<g id="edge11" class="edge">
<title>n0_place_1&#45;&gt;n4_port_1</title>
<path fill="none" stroke="black" d="M241.28,-303C271.72,-303 322.23,-303 357.71,-303"/>
<polygon fill="black" stroke="black" points="357.74,-306.5 367.74,-303 357.74,-299.5 357.74,-306.5"/>
</g>
<!-- n0_place_2 -->
<g id="node8" class="node">
<title>n0_place_2</title>
<ellipse fill="white" stroke="black" cx="1003.21" cy="-282" rx="69.09" ry="26.74"/>
<text text-anchor="middle" x="1003.21" y="-285.8" font-family="Times,serif" font-size="14.00">branchtype</text>
<text text-anchor="middle" x="1003.21" y="-270.8" font-family="Times,serif" font-size="14.00">list</text>
</g>
<!-- n2_port_0 -->
<g id="node19" class="node">
<title>n2_port_0</title>
<polygon fill="white" stroke="black" points="1304.19,-313.33 1270.01,-336.43 1235.84,-313.33 1235.87,-275.96 1304.15,-275.96 1304.19,-313.33"/>
<text text-anchor="middle" x="1270.01" y="-306.8" font-family="Times,serif" font-size="14.00">a</text>
<text text-anchor="middle" x="1270.01" y="-291.8" font-family="Times,serif" font-size="14.00">list</text>
</g>
<!-- n0_place_2&#45;&gt;n2_port_0 -->
<g id="edge5" class="edge">
<title>n0_place_2&#45;&gt;n2_port_0</title>
<path fill="none" stroke="black" d="M1071.38,-287.33C1119.83,-291.17 1183.81,-296.24 1225.67,-299.56"/>
<polygon fill="black" stroke="black" points="1225.56,-303.06 1235.81,-300.37 1226.11,-296.09 1225.56,-303.06"/>
</g>
<!-- n1_port_1 -->
<g id="node15" class="node">
<title>n1_port_1</title>
<polygon fill="white" stroke="black" points="1873.26,-313.33 1771.24,-336.43 1669.21,-313.33 1669.31,-275.96 1873.16,-275.96 1873.26,-313.33"/>
<text text-anchor="middle" x="1771.24" y="-306.8" font-family="Times,serif" font-size="14.00">sum</text>
<text text-anchor="middle" x="1771.24" y="-291.8" font-family="Times,serif" font-size="14.00">unsigned long</text>
</g>
<!-- n0_place_3&#45;&gt;n1_port_1 -->
<g id="edge2" class="edge">
<title>n0_place_3&#45;&gt;n1_port_1</title>
<path fill="none" stroke="black" d="M1614,-243.07C1637.64,-252.14 1664.87,-262.59 1689.91,-272.19"/>
<polygon fill="black" stroke="black" points="1688.79,-275.51 1699.38,-275.82 1691.3,-268.97 1688.79,-275.51"/>
</g>
<!-- n0_place_4 -->
<g id="node10" class="node">
<title>n0_place_4</title>
<ellipse fill="white" stroke="black" cx="1550.24" cy="-344" rx="82.96" ry="26.74"/>
<text text-anchor="middle" x="1550.24" y="-347.8" font-family="Times,serif" font-size="14.00">fey_out</text>
<text text-anchor="middle" x="1550.24" y="-332.8" font-family="Times,serif" font-size="14.00">unsigned long</text>
</g>
<!-- n1_port_0 -->
<g id="node14" class="node">
<title>n1_port_0</title>
<polygon fill="white" stroke="black" points="1873.26,-397.33 1771.24,-420.43 1669.21,-397.33 1669.31,-359.96 1873.16,-359.96 1873.26,-397.33"/>
<text text-anchor="middle" x="1771.24" y="-390.8" font-family="Times,serif" font-size="14.00">s</text>
<text text-anchor="middle" x="1771.24" y="-375.8" font-family="Times,serif" font-size="14.00">unsigned long</text>
</g>
<!-- n0_place_4&#45;&gt;n1_port_0 -->
<g id="edge3" class="edge">
<title>n0_place_4&#45;&gt;n1_port_0</title>
<path fill="none" stroke="black" d="M1621.44,-357.78C1633.38,-360.13 1646.05,-362.61 1658.75,-365.11"/>
<polygon fill="black" stroke="black" points="1658.44,-368.62 1668.93,-367.11 1659.79,-361.75 1658.44,-368.62"/>
</g>
<!-- n0_place_5 -->
<g id="node11" class="node">
<title>n0_place_5</title>
<ellipse fill="white" stroke="black" cx="597.81" cy="-282" rx="60.21" ry="26.74"/>
<text text-anchor="middle" x="597.81" y="-285.8" font-family="Times,serif" font-size="14.00">d_vectors</text>
<text text-anchor="middle" x="597.81" y="-270.8" font-family="Times,serif" font-size="14.00">list</text>
</g>
<!-- n3_port_0 -->
<g id="node24" class="node">
<title>n3_port_0</title>
<polygon fill="white" stroke="black" points="830.09,-355.33 795.92,-378.43 761.74,-355.33 761.78,-317.96 830.06,-317.96 830.09,-355.33"/>
<text text-anchor="middle" x="795.92" y="-348.8" font-family="Times,serif" font-size="14.00">v</text>
<text text-anchor="middle" x="795.92" y="-333.8" font-family="Times,serif" font-size="14.00">list</text>
</g>
<!-- n0_place_5&#45;&gt;n3_port_0 -->
<g id="edge8" class="edge">
<title>n0_place_5&#45;&gt;n3_port_0</title>
<path fill="none" stroke="black" d="M647.04,-297.49C679.17,-307.82 721.03,-321.26 752,-331.21"/>
<polygon fill="black" stroke="black" points="751.06,-334.59 761.65,-334.31 753.2,-327.92 751.06,-334.59"/>
</g>
<!-- n2_port_1 -->
<g id="node20" class="node">
<title>n2_port_1</title>
<polygon fill="white" stroke="black" points="1321.65,-397.33 1270.01,-420.43 1218.38,-397.33 1218.42,-359.96 1321.6,-359.96 1321.65,-397.33"/>
<text text-anchor="middle" x="1270.01" y="-390.8" font-family="Times,serif" font-size="14.00">G</text>
<text text-anchor="middle" x="1270.01" y="-375.8" font-family="Times,serif" font-size="14.00">string</text>
</g>
<!-- n0_place_6&#45;&gt;n2_port_1 -->
<g id="edge6" class="edge">
<title>n0_place_6&#45;&gt;n2_port_1</title>
<path fill="none" stroke="black" stroke-dasharray="5,2" d="M1044.14,-416.72C1087.67,-410.97 1157.82,-401.7 1208.2,-395.04"/>
<polygon fill="black" stroke="black" points="1208.86,-398.48 1218.31,-393.7 1207.94,-391.54 1208.86,-398.48"/>
</g>
<!-- n1_condition -->
<g id="node13" class="node">
<title>n1_condition</title>
<polygon fill="white" stroke="black" points="1736.74,-439 1736.74,-475 1805.74,-475 1805.74,-439 1736.74,-439"/>
<text text-anchor="middle" x="1771.24" y="-453.3" font-family="Times,serif" font-size="14.00">Reduce</text>
</g>
<!-- n1_port_2 -->
<g id="node16" class="node">
<title>n1_port_2</title>
<polygon fill="white" stroke="black" points="1669.21,-208.67 1771.24,-185.57 1873.26,-208.67 1873.16,-246.04 1669.31,-246.04 1669.21,-208.67"/>
<text text-anchor="middle" x="1771.24" y="-222.8" font-family="Times,serif" font-size="14.00">sum</text>
<text text-anchor="middle" x="1771.24" y="-207.8" font-family="Times,serif" font-size="14.00">unsigned long</text>
</g>
<!-- n1_port_2&#45;&gt;n0_place_3 -->
<g id="edge1" class="edge">
<title>n1_port_2&#45;&gt;n0_place_3</title>
<path fill="none" stroke="black" d="M1669.23,-219C1660.53,-219 1651.76,-219 1643.14,-219"/>
<polygon fill="black" stroke="black" points="1643.1,-215.5 1633.1,-219 1643.1,-222.5 1643.1,-215.5"/>
</g>
<!-- n1_modcall -->
<g id="node17" class="node">
<title>n1_modcall</title>
<polygon fill="white" stroke="black" points="1857.24,-168 1685.24,-168 1685.24,-132 1857.24,-132 1857.24,-168"/>
<text text-anchor="middle" x="1771.24" y="-146.3" font-family="Times,serif" font-size="14.00">feynman_module.plus</text>
</g>
<!-- n2_condition -->
<g id="node18" class="node">
<title>n2_condition</title>
<polygon fill="white" stroke="black" points="1203.01,-439 1203.01,-475 1337.01,-475 1337.01,-439 1203.01,-439"/>
<text text-anchor="middle" x="1270.01" y="-453.3" font-family="Times,serif" font-size="14.00">feynman_degree</text>
</g>
<!-- n2_port_2 -->
<g id="node21" class="node">
<title>n2_port_2</title>
<polygon fill="white" stroke="black" points="1167.99,-208.67 1270.01,-185.57 1372.04,-208.67 1371.94,-246.04 1168.08,-246.04 1167.99,-208.67"/>
<text text-anchor="middle" x="1270.01" y="-222.8" font-family="Times,serif" font-size="14.00">s</text>
<text text-anchor="middle" x="1270.01" y="-207.8" font-family="Times,serif" font-size="14.00">unsigned long</text>
</g>
<!-- n2_port_2&#45;&gt;n0_place_4 -->
<g id="edge4" class="edge">
<title>n2_port_2&#45;&gt;n0_place_4</title>
<path fill="none" stroke="black" d="M1372.23,-237.2C1394.98,-243.2 1418.57,-250.99 1439.51,-261 1466.72,-274.01 1493.78,-294.37 1514.22,-311.67"/>
<polygon fill="black" stroke="black" points="1512.13,-314.49 1521.99,-318.37 1516.7,-309.19 1512.13,-314.49"/>
</g>
<!-- n2_modcall -->
<g id="node22" class="node">
<title>n2_modcall</title>
<polygon fill="white" stroke="black" points="1431.51,-168 1108.51,-168 1108.51,-132 1431.51,-132 1431.51,-168"/>
<text text-anchor="middle" x="1270.01" y="-146.3" font-family="Times,serif" font-size="14.00">feynman_module.feynman_integral_degree</text>
</g>
<!-- n3_condition -->
<g id="node23" class="node">
<title>n3_condition</title>
<polygon fill="white" stroke="black" points="742.42,-397 742.42,-433 849.42,-433 849.42,-397 742.42,-397"/>
<text text-anchor="middle" x="795.92" y="-411.3" font-family="Times,serif" font-size="14.00">Combination</text>
</g>
<!-- n3_port_1 -->
<g id="node25" class="node">
<title>n3_port_1</title>
<polygon fill="white" stroke="black" points="760.25,-250.67 795.92,-227.57 831.59,-250.67 831.56,-288.04 760.28,-288.04 760.25,-250.67"/>
<text text-anchor="middle" x="795.92" y="-264.8" font-family="Times,serif" font-size="14.00">vec</text>
<text text-anchor="middle" x="795.92" y="-249.8" font-family="Times,serif" font-size="14.00">list</text>
</g>
<!-- n3_port_1&#45;&gt;n0_place_2 -->
<g id="edge7" class="edge">
<title>n3_port_1&#45;&gt;n0_place_2</title>
<path fill="none" stroke="black" d="M831.95,-262.57C857.65,-265.2 893.62,-268.88 925.9,-272.18"/>
<path fill="none" stroke="transparent" d="M831.74,-264.56C857.45,-267.19 893.42,-270.87 925.7,-274.17"/>
<path fill="none" stroke="black" d="M831.54,-266.55C857.24,-269.18 893.22,-272.86 925.5,-276.16"/>
<polygon fill="black" stroke="black" points="925.73,-277.69 936.03,-275.23 926.44,-270.73 925.73,-277.69"/>
</g>
<!-- n3_modcall -->
<g id="node26" class="node">
<title>n3_modcall</title>
<polygon fill="white" stroke="black" points="897.92,-210 693.92,-210 693.92,-174 897.92,-174 897.92,-210"/>
<text text-anchor="middle" x="795.92" y="-188.3" font-family="Times,serif" font-size="14.00">feynman_module.partition</text>
</g>
<!-- n4_condition -->
<g id="node27" class="node">
<title>n4_condition</title>
<polygon fill="white" stroke="black" points="359.71,-439 359.71,-475 438.71,-475 438.71,-439 359.71,-439"/>
<text text-anchor="middle" x="399.21" y="-453.3" font-family="Times,serif" font-size="14.00">partition</text>
</g>
<!-- n4_port_2 -->
<g id="node30" class="node">
<title>n4_port_2</title>
<polygon fill="white" stroke="black" points="365.04,-208.67 399.21,-185.57 433.39,-208.67 433.35,-246.04 365.07,-246.04 365.04,-208.67"/>
<text text-anchor="middle" x="399.21" y="-222.8" font-family="Times,serif" font-size="14.00">v</text>
<text text-anchor="middle" x="399.21" y="-207.8" font-family="Times,serif" font-size="14.00">list</text>
</g>
<!-- n4_port_2&#45;&gt;n0_place_5 -->
<g id="edge9" class="edge">
<title>n4_port_2&#45;&gt;n0_place_5</title>
<path fill="none" stroke="black" d="M434.17,-227.78C462.89,-236.98 504.99,-250.48 539.25,-261.45"/>
<path fill="none" stroke="transparent" d="M433.56,-229.69C462.28,-238.89 504.38,-252.38 538.64,-263.36"/>
<path fill="none" stroke="black" d="M432.95,-231.59C461.67,-240.79 503.77,-254.29 538.03,-265.26"/>
<polygon fill="black" stroke="black" points="537.94,-266.81 548.53,-266.53 540.08,-260.14 537.94,-266.81"/>
</g>
<!-- n4_modcall -->
<g id="node31" class="node">
<title>n4_modcall</title>
<polygon fill="white" stroke="black" points="501.71,-168 296.71,-168 296.71,-132 501.71,-132 501.71,-168"/>
<text text-anchor="middle" x="399.21" y="-146.3" font-family="Times,serif" font-size="14.00">feynman_module.sum_deg</text>
</g>
</g>
</svg>
