<?xml version="1.0" encoding="UTF-8" standalone="no"?>
<!DOCTYPE svg PUBLIC "-//W3C//DTD SVG 1.1//EN"
 "http://www.w3.org/Graphics/SVG/1.1/DTD/svg11.dtd">
<!-- Generated by graphviz version 2.43.0 (0)
 -->
<!-- Title: feynman_deg Pages: 1 -->
<svg width="1955pt" height="1038pt"
 viewBox="0.00 0.00 1955.42 1038.00" xmlns="http://www.w3.org/2000/svg" xmlns:xlink="http://www.w3.org/1999/xlink">
<g id="graph0" class="graph" transform="scale(1 1) rotate(0) translate(4 1034)">
<title>feynman_deg</title>
<polygon fill="white" stroke="transparent" points="-4,4 -4,-1034 1951.42,-1034 1951.42,4 -4,4"/>
<g id="clust1" class="cluster">
<title>cluster_0</title>
<polygon fill="dimgray" stroke="black" points="8,-8 8,-1022 1939.42,-1022 1939.42,-8 8,-8"/>
</g>
<g id="clust2" class="cluster">
<title>cluster_net_0</title>
<polygon fill="white" stroke="black" points="159.37,-90 159.37,-1014 1931.42,-1014 1931.42,-90 159.37,-90"/>
</g>
<g id="clust3" class="cluster">
<title>cluster_1</title>
<polygon fill="yellow" stroke="black" points="1830.42,-634 1830.42,-994 1923.42,-994 1923.42,-634 1830.42,-634"/>
</g>
<g id="clust4" class="cluster">
<title>cluster_2</title>
<polygon fill="yellow" stroke="black" points="1540.89,-98 1540.89,-542 1674.01,-542 1674.01,-98 1540.89,-98"/>
</g>
<g id="clust5" class="cluster">
<title>cluster_3</title>
<polygon fill="yellow" stroke="black" points="1088.51,-176 1088.51,-536 1367.51,-536 1367.51,-176 1088.51,-176"/>
</g>
<g id="clust6" class="cluster">
<title>cluster_4</title>
<polygon fill="yellow" stroke="black" points="653.92,-344 653.92,-620 893.92,-620 893.92,-344 653.92,-344"/>
</g>
<g id="clust7" class="cluster">
<title>cluster_5</title>
<polygon fill="yellow" stroke="black" points="1540.89,-550 1540.89,-994 1674.01,-994 1674.01,-550 1540.89,-550"/>
</g>
<g id="clust8" class="cluster">
<title>cluster_6</title>
<polygon fill="yellow" stroke="black" points="288.71,-428 288.71,-788 477.71,-788 477.71,-428 288.71,-428"/>
</g>
<!-- n0_condition -->
<g id="node1" class="node">
<title>n0_condition</title>
<polygon fill="white" stroke="black" points="18.19,-899 18.19,-935 129.19,-935 129.19,-899 18.19,-899"/>
<text text-anchor="middle" x="73.69" y="-913.3" font-family="Times,serif" font-size="14.00">feynman_deg</text>
</g>
<!-- n0_port_0 -->
<g id="node2" class="node">
<title>n0_port_0</title>
<polygon fill="white" stroke="black" points="131.56,-701.33 73.69,-724.43 15.81,-701.33 15.87,-663.96 131.5,-663.96 131.56,-701.33"/>
<text text-anchor="middle" x="73.69" y="-694.8" font-family="Times,serif" font-size="14.00">degree</text>
<text text-anchor="middle" x="73.69" y="-679.8" font-family="Times,serif" font-size="14.00">int</text>
</g>
<!-- n0_place_0 -->
<g id="node5" class="node">
<title>n0_place_0</title>
<ellipse fill="white" stroke="black" cx="214.04" cy="-691" rx="46.84" ry="26.74"/>
<text text-anchor="middle" x="214.04" y="-694.8" font-family="Times,serif" font-size="14.00">degree</text>
<text text-anchor="middle" x="214.04" y="-679.8" font-family="Times,serif" font-size="14.00">int</text>
</g>
<!-- n0_port_0&#45;&gt;n0_place_0 -->
<g id="edge20" class="edge">
<title>n0_port_0&#45;&gt;n0_place_0</title>
<path fill="none" stroke="black" stroke-dasharray="1,5" d="M131.76,-691C143.52,-691 155.76,-691 167.07,-691"/>
</g>
<!-- n0_port_1 -->
<g id="node3" class="node">
<title>n0_port_1</title>
<polygon fill="white" stroke="black" points="105.12,-617.33 73.69,-640.43 42.26,-617.33 42.29,-579.96 105.09,-579.96 105.12,-617.33"/>
<text text-anchor="middle" x="73.69" y="-610.8" font-family="Times,serif" font-size="14.00">N</text>
<text text-anchor="middle" x="73.69" y="-595.8" font-family="Times,serif" font-size="14.00">int</text>
</g>
<!-- n0_place_1 -->
<g id="node6" class="node">
<title>n0_place_1</title>
<ellipse fill="white" stroke="black" cx="214.04" cy="-607" rx="27" ry="26.74"/>
<text text-anchor="middle" x="214.04" y="-610.8" font-family="Times,serif" font-size="14.00">N</text>
<text text-anchor="middle" x="214.04" y="-595.8" font-family="Times,serif" font-size="14.00">int</text>
</g>
<!-- n0_port_1&#45;&gt;n0_place_1 -->
<g id="edge21" class="edge">
<title>n0_port_1&#45;&gt;n0_place_1</title>
<path fill="none" stroke="black" stroke-dasharray="1,5" d="M105.39,-607C129.75,-607 163.45,-607 186.62,-607"/>
</g>
<!-- n0_port_2 -->
<g id="node4" class="node">
<title>n0_port_2</title>
<polygon fill="white" stroke="black" points="825.55,-59.33 773.92,-82.43 722.28,-59.33 722.33,-21.96 825.51,-21.96 825.55,-59.33"/>
<text text-anchor="middle" x="773.92" y="-52.8" font-family="Times,serif" font-size="14.00">graph</text>
<text text-anchor="middle" x="773.92" y="-37.8" font-family="Times,serif" font-size="14.00">string</text>
</g>
<!-- n0_place_4 -->
<g id="node9" class="node">
<title>n0_place_4</title>
<ellipse fill="white" stroke="black" cx="991.21" cy="-279" rx="41.94" ry="26.74"/>
<text text-anchor="middle" x="991.21" y="-282.8" font-family="Times,serif" font-size="14.00">graph</text>
<text text-anchor="middle" x="991.21" y="-267.8" font-family="Times,serif" font-size="14.00">string</text>
</g>
<!-- n0_port_2&#45;&gt;n0_place_4 -->
<g id="edge22" class="edge">
<title>n0_port_2&#45;&gt;n0_place_4</title>
<path fill="none" stroke="black" stroke-dasharray="1,5" d="M796.75,-72.32C838.12,-116.52 927.48,-211.98 968.65,-255.96"/>
</g>
<!-- n6_port_0 -->
<g id="node42" class="node">
<title>n6_port_0</title>
<polygon fill="white" stroke="black" points="414.64,-701.33 383.21,-724.43 351.78,-701.33 351.81,-663.96 414.61,-663.96 414.64,-701.33"/>
<text text-anchor="middle" x="383.21" y="-694.8" font-family="Times,serif" font-size="14.00">d</text>
<text text-anchor="middle" x="383.21" y="-679.8" font-family="Times,serif" font-size="14.00">int</text>
</g>
<!-- n0_place_0&#45;&gt;n6_port_0 -->
<g id="edge18" class="edge">
<title>n0_place_0&#45;&gt;n6_port_0</title>
<path fill="none" stroke="black" d="M260.72,-691C286.01,-691 317.18,-691 341.61,-691"/>
<polygon fill="black" stroke="black" points="341.63,-694.5 351.63,-691 341.63,-687.5 341.63,-694.5"/>
</g>
<!-- n6_port_1 -->
<g id="node43" class="node">
<title>n6_port_1</title>
<polygon fill="white" stroke="black" points="414.64,-617.33 383.21,-640.43 351.78,-617.33 351.81,-579.96 414.61,-579.96 414.64,-617.33"/>
<text text-anchor="middle" x="383.21" y="-610.8" font-family="Times,serif" font-size="14.00">n</text>
<text text-anchor="middle" x="383.21" y="-595.8" font-family="Times,serif" font-size="14.00">int</text>
</g>
<!-- n0_place_1&#45;&gt;n6_port_1 -->
<g id="edge19" class="edge">
<title>n0_place_1&#45;&gt;n6_port_1</title>
<path fill="none" stroke="black" d="M241.16,-607C268.06,-607 310.34,-607 341.6,-607"/>
<polygon fill="black" stroke="black" points="341.74,-610.5 351.74,-607 341.74,-603.5 341.74,-610.5"/>
</g>
<!-- n0_place_2 -->
<g id="node7" class="node">
<title>n0_place_2</title>
<ellipse fill="white" stroke="black" cx="991.21" cy="-439" rx="69.09" ry="26.74"/>
<text text-anchor="middle" x="991.21" y="-442.8" font-family="Times,serif" font-size="14.00">branchtype</text>
<text text-anchor="middle" x="991.21" y="-427.8" font-family="Times,serif" font-size="14.00">string</text>
</g>
<!-- n3_port_0 -->
<g id="node27" class="node">
<title>n3_port_0</title>
<polygon fill="white" stroke="black" points="1279.65,-449.33 1228.01,-472.43 1176.38,-449.33 1176.42,-411.96 1279.6,-411.96 1279.65,-449.33"/>
<text text-anchor="middle" x="1228.01" y="-442.8" font-family="Times,serif" font-size="14.00">a</text>
<text text-anchor="middle" x="1228.01" y="-427.8" font-family="Times,serif" font-size="14.00">string</text>
</g>
<!-- n0_place_2&#45;&gt;n3_port_0 -->
<g id="edge9" class="edge">
<title>n0_place_2&#45;&gt;n3_port_0</title>
<path fill="none" stroke="black" d="M1060.76,-439C1094.1,-439 1133.85,-439 1166.11,-439"/>
<polygon fill="black" stroke="black" points="1166.31,-442.5 1176.31,-439 1166.31,-435.5 1166.31,-442.5"/>
</g>
<!-- n0_place_3 -->
<g id="node8" class="node">
<title>n0_place_3</title>
<ellipse fill="white" stroke="black" cx="565.81" cy="-523" rx="60.21" ry="26.74"/>
<text text-anchor="middle" x="565.81" y="-526.8" font-family="Times,serif" font-size="14.00">d_vectors</text>
<text text-anchor="middle" x="565.81" y="-511.8" font-family="Times,serif" font-size="14.00">string</text>
</g>
<!-- n4_port_0 -->
<g id="node32" class="node">
<title>n4_port_0</title>
<polygon fill="white" stroke="black" points="825.55,-533.33 773.92,-556.43 722.28,-533.33 722.33,-495.96 825.51,-495.96 825.55,-533.33"/>
<text text-anchor="middle" x="773.92" y="-526.8" font-family="Times,serif" font-size="14.00">v</text>
<text text-anchor="middle" x="773.92" y="-511.8" font-family="Times,serif" font-size="14.00">string</text>
</g>
<!-- n0_place_3&#45;&gt;n4_port_0 -->
<g id="edge12" class="edge">
<title>n0_place_3&#45;&gt;n4_port_0</title>
<path fill="none" stroke="black" d="M626.15,-523C653.04,-523 684.81,-523 711.89,-523"/>
<polygon fill="black" stroke="black" points="712.03,-526.5 722.03,-523 712.03,-519.5 712.03,-526.5"/>
</g>
<!-- n3_port_1 -->
<g id="node28" class="node">
<title>n3_port_1</title>
<polygon fill="white" stroke="black" points="1279.65,-365.33 1228.01,-388.43 1176.38,-365.33 1176.42,-327.96 1279.6,-327.96 1279.65,-365.33"/>
<text text-anchor="middle" x="1228.01" y="-358.8" font-family="Times,serif" font-size="14.00">G</text>
<text text-anchor="middle" x="1228.01" y="-343.8" font-family="Times,serif" font-size="14.00">string</text>
</g>
<!-- n0_place_4&#45;&gt;n3_port_1 -->
<g id="edge10" class="edge">
<title>n0_place_4&#45;&gt;n3_port_1</title>
<path fill="none" stroke="black" d="M1027.75,-291.98C1045.87,-298.48 1068.3,-306.37 1088.51,-313 1113.9,-321.33 1142.1,-329.98 1166.39,-337.26"/>
<polygon fill="black" stroke="black" points="1165.6,-340.68 1176.19,-340.18 1167.61,-333.97 1165.6,-340.68"/>
</g>
<!-- n0_place_5 -->
<g id="node10" class="node">
<title>n0_place_5</title>
<ellipse fill="white" stroke="black" cx="1752.22" cy="-503" rx="50.41" ry="26.74"/>
<text text-anchor="middle" x="1752.22" y="-506.8" font-family="Times,serif" font-size="14.00">left_init</text>
<text text-anchor="middle" x="1752.22" y="-491.8" font-family="Times,serif" font-size="14.00">control</text>
</g>
<!-- n5_port_1 -->
<g id="node37" class="node">
<title>n5_port_1</title>
<polygon fill="white" stroke="black" points="1666.07,-739.33 1607.45,-762.43 1548.83,-739.33 1548.89,-701.96 1666.02,-701.96 1666.07,-739.33"/>
<text text-anchor="middle" x="1607.45" y="-732.8" font-family="Times,serif" font-size="14.00">s</text>
<text text-anchor="middle" x="1607.45" y="-717.8" font-family="Times,serif" font-size="14.00">control</text>
</g>
<!-- n0_place_5&#45;&gt;n5_port_1 -->
<g id="edge16" class="edge">
<title>n0_place_5&#45;&gt;n5_port_1</title>
<path fill="none" stroke="black" d="M1745.37,-529.72C1735.89,-568.09 1714.03,-639.41 1674.01,-687 1671.61,-689.86 1668.96,-692.59 1666.15,-695.19"/>
<polygon fill="black" stroke="black" points="1663.76,-692.62 1658.38,-701.74 1668.28,-697.97 1663.76,-692.62"/>
</g>
<!-- n0_place_6 -->
<g id="node11" class="node">
<title>n0_place_6</title>
<ellipse fill="white" stroke="black" cx="1454.2" cy="-671" rx="27" ry="26.74"/>
<text text-anchor="middle" x="1454.2" y="-674.8" font-family="Times,serif" font-size="14.00">fey</text>
<text text-anchor="middle" x="1454.2" y="-659.8" font-family="Times,serif" font-size="14.00">int</text>
</g>
<!-- n2_port_0 -->
<g id="node21" class="node">
<title>n2_port_0</title>
<polygon fill="white" stroke="black" points="1638.88,-455.33 1607.45,-478.43 1576.02,-455.33 1576.05,-417.96 1638.85,-417.96 1638.88,-455.33"/>
<text text-anchor="middle" x="1607.45" y="-448.8" font-family="Times,serif" font-size="14.00">a</text>
<text text-anchor="middle" x="1607.45" y="-433.8" font-family="Times,serif" font-size="14.00">int</text>
</g>
<!-- n0_place_6&#45;&gt;n2_port_0 -->
<g id="edge7" class="edge">
<title>n0_place_6&#45;&gt;n2_port_0</title>
<path fill="none" stroke="black" d="M1462.34,-645.12C1473.83,-607.2 1499.42,-535.85 1540.89,-488 1549.25,-478.36 1560.28,-470.01 1570.9,-463.3"/>
<polygon fill="black" stroke="black" points="1572.88,-466.2 1579.66,-458.06 1569.28,-460.19 1572.88,-466.2"/>
</g>
<!-- n5_port_0 -->
<g id="node36" class="node">
<title>n5_port_0</title>
<polygon fill="white" stroke="black" points="1638.88,-907.33 1607.45,-930.43 1576.02,-907.33 1576.05,-869.96 1638.85,-869.96 1638.88,-907.33"/>
<text text-anchor="middle" x="1607.45" y="-900.8" font-family="Times,serif" font-size="14.00">a</text>
<text text-anchor="middle" x="1607.45" y="-885.8" font-family="Times,serif" font-size="14.00">int</text>
</g>
<!-- n0_place_6&#45;&gt;n5_port_0 -->
<g id="edge15" class="edge">
<title>n0_place_6&#45;&gt;n5_port_0</title>
<path fill="none" stroke="black" d="M1462.15,-696.76C1473.46,-734.88 1498.91,-806.98 1540.89,-855 1548.32,-863.49 1557.87,-870.91 1567.37,-877.05"/>
<polygon fill="black" stroke="black" points="1565.66,-880.11 1576.02,-882.33 1569.3,-874.14 1565.66,-880.11"/>
</g>
<!-- n0_place_7 -->
<g id="node12" class="node">
<title>n0_place_7</title>
<ellipse fill="white" stroke="black" cx="1454.2" cy="-475" rx="58.88" ry="37.45"/>
<text text-anchor="middle" x="1454.2" y="-486.3" font-family="Times,serif" font-size="14.00">right_init</text>
<text text-anchor="middle" x="1454.2" y="-471.3" font-family="Times,serif" font-size="14.00">control</text>
<text text-anchor="middle" x="1454.2" y="-456.3" font-family="Times,serif" font-size="14.00">[]</text>
</g>
<!-- n2_port_1 -->
<g id="node22" class="node">
<title>n2_port_1</title>
<polygon fill="white" stroke="black" points="1666.07,-371.33 1607.45,-394.43 1548.83,-371.33 1548.89,-333.96 1666.02,-333.96 1666.07,-371.33"/>
<text text-anchor="middle" x="1607.45" y="-364.8" font-family="Times,serif" font-size="14.00">s</text>
<text text-anchor="middle" x="1607.45" y="-349.8" font-family="Times,serif" font-size="14.00">control</text>
</g>
<!-- n0_place_7&#45;&gt;n2_port_1 -->
<g id="edge6" class="edge">
<title>n0_place_7&#45;&gt;n2_port_1</title>
<path fill="none" stroke="black" d="M1489.4,-444.53C1504.77,-431.29 1523.36,-415.9 1540.89,-403 1548.41,-397.47 1556.64,-391.87 1564.65,-386.64"/>
<polygon fill="black" stroke="black" points="1566.7,-389.48 1573.21,-381.12 1562.91,-383.59 1566.7,-389.48"/>
</g>
<!-- n0_place_8 -->
<g id="node13" class="node">
<title>n0_place_8</title>
<ellipse fill="white" stroke="black" cx="1752.22" cy="-813" rx="27" ry="26.74"/>
<text text-anchor="middle" x="1752.22" y="-816.8" font-family="Times,serif" font-size="14.00">L</text>
<text text-anchor="middle" x="1752.22" y="-801.8" font-family="Times,serif" font-size="14.00">int</text>
</g>
<!-- n1_port_1 -->
<g id="node16" class="node">
<title>n1_port_1</title>
<polygon fill="white" stroke="black" points="1908.35,-823.33 1876.92,-846.43 1845.49,-823.33 1845.52,-785.96 1908.32,-785.96 1908.35,-823.33"/>
<text text-anchor="middle" x="1876.92" y="-816.8" font-family="Times,serif" font-size="14.00">l</text>
<text text-anchor="middle" x="1876.92" y="-801.8" font-family="Times,serif" font-size="14.00">int</text>
</g>
<!-- n0_place_8&#45;&gt;n1_port_1 -->
<g id="edge3" class="edge">
<title>n0_place_8&#45;&gt;n1_port_1</title>
<path fill="none" stroke="black" d="M1779.24,-813C1795.43,-813 1816.59,-813 1834.99,-813"/>
<polygon fill="black" stroke="black" points="1835.16,-816.5 1845.16,-813 1835.16,-809.5 1835.16,-816.5"/>
</g>
<!-- n0_place_9 -->
<g id="node14" class="node">
<title>n0_place_9</title>
<ellipse fill="white" stroke="black" cx="1752.22" cy="-199" rx="27" ry="26.74"/>
<text text-anchor="middle" x="1752.22" y="-202.8" font-family="Times,serif" font-size="14.00">R</text>
<text text-anchor="middle" x="1752.22" y="-187.8" font-family="Times,serif" font-size="14.00">int</text>
</g>
<!-- n1_port_2 -->
<g id="node17" class="node">
<title>n1_port_2</title>
<polygon fill="white" stroke="black" points="1908.35,-739.33 1876.92,-762.43 1845.49,-739.33 1845.52,-701.96 1908.32,-701.96 1908.35,-739.33"/>
<text text-anchor="middle" x="1876.92" y="-732.8" font-family="Times,serif" font-size="14.00">r</text>
<text text-anchor="middle" x="1876.92" y="-717.8" font-family="Times,serif" font-size="14.00">int</text>
</g>
<!-- n0_place_9&#45;&gt;n1_port_2 -->
<g id="edge2" class="edge">
<title>n0_place_9&#45;&gt;n1_port_2</title>
<path fill="none" stroke="black" d="M1758.51,-225.17C1768.1,-273.03 1788.59,-377.95 1802.42,-467 1817.55,-564.4 1785.26,-599.39 1830.42,-687 1832.53,-691.09 1835.2,-694.98 1838.19,-698.63"/>
<polygon fill="black" stroke="black" points="1835.82,-701.22 1845.16,-706.22 1840.97,-696.49 1835.82,-701.22"/>
</g>
<!-- n1_condition -->
<g id="node15" class="node">
<title>n1_condition</title>
<polygon fill="white" stroke="black" points="1842.42,-949 1842.42,-985 1911.42,-985 1911.42,-949 1842.42,-949"/>
<text text-anchor="middle" x="1876.92" y="-963.3" font-family="Times,serif" font-size="14.00">Reduce</text>
</g>
<!-- n1_port_0 -->
<g id="node18" class="node">
<title>n1_port_0</title>
<polygon fill="white" stroke="black" points="1845.49,-886.67 1876.92,-863.57 1908.35,-886.67 1908.32,-924.04 1845.52,-924.04 1845.49,-886.67"/>
<text text-anchor="middle" x="1876.92" y="-900.8" font-family="Times,serif" font-size="14.00">s</text>
<text text-anchor="middle" x="1876.92" y="-885.8" font-family="Times,serif" font-size="14.00">int</text>
</g>
<!-- n1_port_0&#45;&gt;n0_place_6 -->
<g id="edge1" class="edge">
<title>n1_port_0&#45;&gt;n0_place_6</title>
<path fill="none" stroke="black" d="M1845.35,-922.65C1782.21,-972.39 1635.4,-1070.93 1540.89,-998 1494.85,-962.47 1468.74,-785.98 1459.3,-708.07"/>
<polygon fill="black" stroke="black" points="1462.73,-707.28 1458.07,-697.76 1455.77,-708.1 1462.73,-707.28"/>
</g>
<!-- n1_modcall -->
<g id="node19" class="node">
<title>n1_modcall</title>
<polygon fill="white" stroke="black" points="1915.42,-678 1838.42,-678 1838.42,-642 1915.42,-642 1915.42,-678"/>
<text text-anchor="middle" x="1876.92" y="-656.3" font-family="Times,serif" font-size="14.00">sum.add</text>
</g>
<!-- n2_condition -->
<g id="node20" class="node">
<title>n2_condition</title>
<polygon fill="white" stroke="black" points="1580.45,-497 1580.45,-533 1634.45,-533 1634.45,-497 1580.45,-497"/>
<text text-anchor="middle" x="1607.45" y="-511.3" font-family="Times,serif" font-size="14.00">RHS</text>
</g>
<!-- n2_port_2 -->
<g id="node23" class="node">
<title>n2_port_2</title>
<polygon fill="white" stroke="black" points="1576.02,-182.67 1607.45,-159.57 1638.88,-182.67 1638.85,-220.04 1576.05,-220.04 1576.02,-182.67"/>
<text text-anchor="middle" x="1607.45" y="-196.8" font-family="Times,serif" font-size="14.00">a</text>
<text text-anchor="middle" x="1607.45" y="-181.8" font-family="Times,serif" font-size="14.00">int</text>
</g>
<!-- n2_port_2&#45;&gt;n0_place_9 -->
<g id="edge4" class="edge">
<title>n2_port_2&#45;&gt;n0_place_9</title>
<path fill="none" stroke="black" d="M1639.08,-194.29C1661.25,-195.22 1691.3,-196.48 1714.71,-197.47"/>
<polygon fill="black" stroke="black" points="1714.81,-200.97 1724.95,-197.9 1715.11,-193.98 1714.81,-200.97"/>
</g>
<!-- n2_port_3 -->
<g id="node24" class="node">
<title>n2_port_3</title>
<polygon fill="white" stroke="black" points="1548.83,-266.67 1607.45,-243.57 1666.07,-266.67 1666.02,-304.04 1548.89,-304.04 1548.83,-266.67"/>
<text text-anchor="middle" x="1607.45" y="-280.8" font-family="Times,serif" font-size="14.00">s</text>
<text text-anchor="middle" x="1607.45" y="-265.8" font-family="Times,serif" font-size="14.00">control</text>
</g>
<!-- n2_port_3&#45;&gt;n0_place_5 -->
<g id="edge5" class="edge">
<title>n2_port_3&#45;&gt;n0_place_5</title>
<path fill="none" stroke="black" d="M1658.38,-304.26C1664.1,-308.69 1669.49,-313.62 1674.01,-319 1710.83,-362.78 1732.27,-426.64 1742.85,-466.46"/>
<polygon fill="black" stroke="black" points="1739.5,-467.46 1745.37,-476.28 1746.28,-465.72 1739.5,-467.46"/>
</g>
<!-- n2_modcall -->
<g id="node25" class="node">
<title>n2_modcall</title>
<polygon fill="white" stroke="black" points="1652.95,-142 1561.95,-142 1561.95,-106 1652.95,-106 1652.95,-142"/>
<text text-anchor="middle" x="1607.45" y="-120.3" font-family="Times,serif" font-size="14.00">token.plus</text>
</g>
<!-- n3_condition -->
<g id="node26" class="node">
<title>n3_condition</title>
<polygon fill="white" stroke="black" points="1161.01,-491 1161.01,-527 1295.01,-527 1295.01,-491 1161.01,-491"/>
<text text-anchor="middle" x="1228.01" y="-505.3" font-family="Times,serif" font-size="14.00">feynman_degree</text>
</g>
<!-- n3_port_2 -->
<g id="node29" class="node">
<title>n3_port_2</title>
<polygon fill="white" stroke="black" points="1196.58,-260.67 1228.01,-237.57 1259.44,-260.67 1259.41,-298.04 1196.61,-298.04 1196.58,-260.67"/>
<text text-anchor="middle" x="1228.01" y="-274.8" font-family="Times,serif" font-size="14.00">s</text>
<text text-anchor="middle" x="1228.01" y="-259.8" font-family="Times,serif" font-size="14.00">int</text>
</g>
<!-- n3_port_2&#45;&gt;n0_place_6 -->
<g id="edge8" class="edge">
<title>n3_port_2&#45;&gt;n0_place_6</title>
<path fill="none" stroke="black" d="M1259.47,-271.22C1291.48,-273.21 1340.8,-281.62 1367.51,-313 1397.74,-348.52 1383.95,-475.82 1395.51,-521 1406.09,-562.34 1424.62,-607.83 1437.82,-637.75"/>
<polygon fill="black" stroke="black" points="1434.63,-639.19 1441.91,-646.89 1441.03,-636.33 1434.63,-639.19"/>
</g>
<!-- n3_modcall -->
<g id="node30" class="node">
<title>n3_modcall</title>
<polygon fill="white" stroke="black" points="1359.51,-220 1096.51,-220 1096.51,-184 1359.51,-184 1359.51,-220"/>
<text text-anchor="middle" x="1228.01" y="-198.3" font-family="Times,serif" font-size="14.00">feynman.feynman_integral_degree</text>
</g>
<!-- n4_condition -->
<g id="node31" class="node">
<title>n4_condition</title>
<polygon fill="white" stroke="black" points="720.42,-575 720.42,-611 827.42,-611 827.42,-575 720.42,-575"/>
<text text-anchor="middle" x="773.92" y="-589.3" font-family="Times,serif" font-size="14.00">Combination</text>
</g>
<!-- n4_port_1 -->
<g id="node33" class="node">
<title>n4_port_1</title>
<polygon fill="white" stroke="black" points="722.28,-428.67 773.92,-405.57 825.55,-428.67 825.51,-466.04 722.33,-466.04 722.28,-428.67"/>
<text text-anchor="middle" x="773.92" y="-442.8" font-family="Times,serif" font-size="14.00">vec</text>
<text text-anchor="middle" x="773.92" y="-427.8" font-family="Times,serif" font-size="14.00">string</text>
</g>
<!-- n4_port_1&#45;&gt;n0_place_2 -->
<g id="edge11" class="edge">
<title>n4_port_1&#45;&gt;n0_place_2</title>
<path fill="none" stroke="black" d="M825.67,-439C851.36,-439 883.11,-439 911.85,-439"/>
<polygon fill="black" stroke="black" points="911.88,-442.5 921.88,-439 911.88,-435.5 911.88,-442.5"/>
</g>
<!-- n4_modcall -->
<g id="node34" class="node">
<title>n4_modcall</title>
<polygon fill="white" stroke="black" points="885.92,-388 661.92,-388 661.92,-352 885.92,-352 885.92,-388"/>
<text text-anchor="middle" x="773.92" y="-366.3" font-family="Times,serif" font-size="14.00">Combination_vector.partition</text>
</g>
<!-- n5_condition -->
<g id="node35" class="node">
<title>n5_condition</title>
<polygon fill="white" stroke="black" points="1580.45,-949 1580.45,-985 1634.45,-985 1634.45,-949 1580.45,-949"/>
<text text-anchor="middle" x="1607.45" y="-963.3" font-family="Times,serif" font-size="14.00">LHS</text>
</g>
<!-- n5_port_2 -->
<g id="node38" class="node">
<title>n5_port_2</title>
<polygon fill="white" stroke="black" points="1576.02,-802.67 1607.45,-779.57 1638.88,-802.67 1638.85,-840.04 1576.05,-840.04 1576.02,-802.67"/>
<text text-anchor="middle" x="1607.45" y="-816.8" font-family="Times,serif" font-size="14.00">a</text>
<text text-anchor="middle" x="1607.45" y="-801.8" font-family="Times,serif" font-size="14.00">int</text>
</g>
<!-- n5_port_2&#45;&gt;n0_place_8 -->
<g id="edge13" class="edge">
<title>n5_port_2&#45;&gt;n0_place_8</title>
<path fill="none" stroke="black" d="M1639.08,-813C1661.25,-813 1691.3,-813 1714.71,-813"/>
<polygon fill="black" stroke="black" points="1714.95,-816.5 1724.95,-813 1714.95,-809.5 1714.95,-816.5"/>
</g>
<!-- n5_port_3 -->
<g id="node39" class="node">
<title>n5_port_3</title>
<polygon fill="white" stroke="black" points="1548.83,-634.67 1607.45,-611.57 1666.07,-634.67 1666.02,-672.04 1548.89,-672.04 1548.83,-634.67"/>
<text text-anchor="middle" x="1607.45" y="-648.8" font-family="Times,serif" font-size="14.00">s</text>
<text text-anchor="middle" x="1607.45" y="-633.8" font-family="Times,serif" font-size="14.00">control</text>
</g>
<!-- n5_port_3&#45;&gt;n0_place_7 -->
<g id="edge14" class="edge">
<title>n5_port_3&#45;&gt;n0_place_7</title>
<path fill="none" stroke="black" d="M1570.8,-625.88C1560.5,-619.41 1549.68,-611.61 1540.89,-603 1515.95,-578.55 1494.15,-545.74 1478.78,-519.45"/>
<polygon fill="black" stroke="black" points="1481.63,-517.39 1473.62,-510.45 1475.56,-520.87 1481.63,-517.39"/>
</g>
<!-- n5_modcall -->
<g id="node40" class="node">
<title>n5_modcall</title>
<polygon fill="white" stroke="black" points="1657.95,-594 1556.95,-594 1556.95,-558 1657.95,-558 1657.95,-594"/>
<text text-anchor="middle" x="1607.45" y="-572.3" font-family="Times,serif" font-size="14.00">token.count</text>
</g>
<!-- n6_condition -->
<g id="node41" class="node">
<title>n6_condition</title>
<polygon fill="white" stroke="black" points="343.71,-743 343.71,-779 422.71,-779 422.71,-743 343.71,-743"/>
<text text-anchor="middle" x="383.21" y="-757.3" font-family="Times,serif" font-size="14.00">partition</text>
</g>
<!-- n6_port_2 -->
<g id="node44" class="node">
<title>n6_port_2</title>
<polygon fill="white" stroke="black" points="331.57,-512.67 383.21,-489.57 434.85,-512.67 434.8,-550.04 331.62,-550.04 331.57,-512.67"/>
<text text-anchor="middle" x="383.21" y="-526.8" font-family="Times,serif" font-size="14.00">v</text>
<text text-anchor="middle" x="383.21" y="-511.8" font-family="Times,serif" font-size="14.00">string</text>
</g>
<!-- n6_port_2&#45;&gt;n0_place_3 -->
<g id="edge17" class="edge">
<title>n6_port_2&#45;&gt;n0_place_3</title>
<path fill="none" stroke="black" d="M435,-523C453.74,-523 475.31,-523 495.42,-523"/>
<polygon fill="black" stroke="black" points="495.47,-526.5 505.47,-523 495.47,-519.5 495.47,-526.5"/>
</g>
<!-- n6_modcall -->
<g id="node45" class="node">
<title>n6_modcall</title>
<polygon fill="white" stroke="black" points="469.71,-472 296.71,-472 296.71,-436 469.71,-436 469.71,-472"/>
<text text-anchor="middle" x="383.21" y="-450.3" font-family="Times,serif" font-size="14.00">Sum_degree.sum_deg</text>
</g>
</g>
</svg>
