<?xml version="1.0" encoding="UTF-8" standalone="no"?>
<!DOCTYPE svg PUBLIC "-//W3C//DTD SVG 1.1//EN"
 "http://www.w3.org/Graphics/SVG/1.1/DTD/svg11.dtd">
<!-- Generated by graphviz version 2.43.0 (0)
 -->
<!-- Title: feynman_deg Pages: 1 -->
<svg width="1930pt" height="1112pt"
 viewBox="0.00 0.00 1930.42 1112.00" xmlns="http://www.w3.org/2000/svg" xmlns:xlink="http://www.w3.org/1999/xlink">
<g id="graph0" class="graph" transform="scale(1 1) rotate(0) translate(4 1108)">
<title>feynman_deg</title>
<polygon fill="white" stroke="transparent" points="-4,4 -4,-1108 1926.42,-1108 1926.42,4 -4,4"/>
<g id="clust1" class="cluster">
<title>cluster_0</title>
<polygon fill="dimgray" stroke="black" points="8,-8 8,-1096 1914.42,-1096 1914.42,-8 8,-8"/>
</g>
<g id="clust2" class="cluster">
<title>cluster_net_0</title>
<polygon fill="white" stroke="black" points="159.37,-90 159.37,-1014 1906.42,-1014 1906.42,-90 159.37,-90"/>
</g>
<g id="clust3" class="cluster">
<title>cluster_1</title>
<polygon fill="yellow" stroke="black" points="1805.42,-550 1805.42,-910 1898.42,-910 1898.42,-550 1805.42,-550"/>
</g>
<g id="clust4" class="cluster">
<title>cluster_2</title>
<polygon fill="yellow" stroke="black" points="1515.89,-550 1515.89,-994 1649.01,-994 1649.01,-550 1515.89,-550"/>
</g>
<g id="clust5" class="cluster">
<title>cluster_3</title>
<polygon fill="yellow" stroke="black" points="1063.51,-646 1063.51,-1006 1342.51,-1006 1342.51,-646 1063.51,-646"/>
</g>
<g id="clust6" class="cluster">
<title>cluster_4</title>
<polygon fill="yellow" stroke="black" points="650.92,-688 650.92,-964 868.92,-964 868.92,-688 650.92,-688"/>
</g>
<g id="clust7" class="cluster">
<title>cluster_5</title>
<polygon fill="yellow" stroke="black" points="1515.89,-98 1515.89,-542 1649.01,-542 1649.01,-98 1515.89,-98"/>
</g>
<g id="clust8" class="cluster">
<title>cluster_6</title>
<polygon fill="yellow" stroke="black" points="288.71,-646 288.71,-1006 474.71,-1006 474.71,-646 288.71,-646"/>
</g>
<!-- n0_condition -->
<g id="node1" class="node">
<title>n0_condition</title>
<polygon fill="white" stroke="black" points="18.19,-1006 18.19,-1042 129.19,-1042 129.19,-1006 18.19,-1006"/>
<text text-anchor="middle" x="73.69" y="-1020.3" font-family="Times,serif" font-size="14.00">feynman_deg</text>
</g>
<!-- n0_port_0 -->
<g id="node2" class="node">
<title>n0_port_0</title>
<polygon fill="white" stroke="black" points="131.56,-919.33 73.69,-942.43 15.81,-919.33 15.87,-881.96 131.5,-881.96 131.56,-919.33"/>
<text text-anchor="middle" x="73.69" y="-912.8" font-family="Times,serif" font-size="14.00">degree</text>
<text text-anchor="middle" x="73.69" y="-897.8" font-family="Times,serif" font-size="14.00">int</text>
</g>
<!-- n0_place_0 -->
<g id="node6" class="node">
<title>n0_place_0</title>
<ellipse fill="white" stroke="black" cx="214.04" cy="-909" rx="46.84" ry="26.74"/>
<text text-anchor="middle" x="214.04" y="-912.8" font-family="Times,serif" font-size="14.00">degree</text>
<text text-anchor="middle" x="214.04" y="-897.8" font-family="Times,serif" font-size="14.00">int</text>
</g>
<!-- n0_port_0&#45;&gt;n0_place_0 -->
<g id="edge20" class="edge">
<title>n0_port_0&#45;&gt;n0_place_0</title>
<path fill="none" stroke="black" stroke-dasharray="1,5" d="M131.76,-909C143.52,-909 155.76,-909 167.07,-909"/>
</g>
<!-- n0_port_1 -->
<g id="node3" class="node">
<title>n0_port_1</title>
<polygon fill="white" stroke="black" points="105.12,-835.33 73.69,-858.43 42.26,-835.33 42.29,-797.96 105.09,-797.96 105.12,-835.33"/>
<text text-anchor="middle" x="73.69" y="-828.8" font-family="Times,serif" font-size="14.00">N</text>
<text text-anchor="middle" x="73.69" y="-813.8" font-family="Times,serif" font-size="14.00">int</text>
</g>
<!-- n0_place_1 -->
<g id="node7" class="node">
<title>n0_place_1</title>
<ellipse fill="white" stroke="black" cx="214.04" cy="-825" rx="27" ry="26.74"/>
<text text-anchor="middle" x="214.04" y="-828.8" font-family="Times,serif" font-size="14.00">N</text>
<text text-anchor="middle" x="214.04" y="-813.8" font-family="Times,serif" font-size="14.00">int</text>
</g>
<!-- n0_port_1&#45;&gt;n0_place_1 -->
<g id="edge21" class="edge">
<title>n0_port_1&#45;&gt;n0_place_1</title>
<path fill="none" stroke="black" stroke-dasharray="1,5" d="M105.39,-825C129.75,-825 163.45,-825 186.62,-825"/>
</g>
<!-- n0_port_2 -->
<g id="node4" class="node">
<title>n0_port_2</title>
<polygon fill="white" stroke="black" points="811.55,-1065.33 759.92,-1088.43 708.28,-1065.33 708.33,-1027.96 811.51,-1027.96 811.55,-1065.33"/>
<text text-anchor="middle" x="759.92" y="-1058.8" font-family="Times,serif" font-size="14.00">graph</text>
<text text-anchor="middle" x="759.92" y="-1043.8" font-family="Times,serif" font-size="14.00">string</text>
</g>
<!-- n0_place_5 -->
<g id="node11" class="node">
<title>n0_place_5</title>
<ellipse fill="white" stroke="black" cx="966.21" cy="-944" rx="41.94" ry="26.74"/>
<text text-anchor="middle" x="966.21" y="-947.8" font-family="Times,serif" font-size="14.00">graph</text>
<text text-anchor="middle" x="966.21" y="-932.8" font-family="Times,serif" font-size="14.00">string</text>
</g>
<!-- n0_port_2&#45;&gt;n0_place_5 -->
<g id="edge22" class="edge">
<title>n0_port_2&#45;&gt;n0_place_5</title>
<path fill="none" stroke="black" stroke-dasharray="1,5" d="M810.9,-1027.85C849.29,-1006.99 901.12,-978.83 933.86,-961.04"/>
</g>
<!-- n0_port_3 -->
<g id="node5" class="node">
<title>n0_port_3</title>
<polygon fill="white" stroke="black" points="1551.02,-38.67 1582.45,-15.57 1613.88,-38.67 1613.85,-76.04 1551.05,-76.04 1551.02,-38.67"/>
<text text-anchor="middle" x="1582.45" y="-52.8" font-family="Times,serif" font-size="14.00">L</text>
<text text-anchor="middle" x="1582.45" y="-37.8" font-family="Times,serif" font-size="14.00">int</text>
</g>
<!-- n0_place_8 -->
<g id="node14" class="node">
<title>n0_place_8</title>
<ellipse fill="white" stroke="black" cx="1727.22" cy="-277" rx="27" ry="26.74"/>
<text text-anchor="middle" x="1727.22" y="-280.8" font-family="Times,serif" font-size="14.00">L</text>
<text text-anchor="middle" x="1727.22" y="-265.8" font-family="Times,serif" font-size="14.00">int</text>
</g>
<!-- n0_port_3&#45;&gt;n0_place_8 -->
<g id="edge23" class="edge">
<title>n0_port_3&#45;&gt;n0_place_8</title>
<path fill="none" stroke="black" stroke-dasharray="1,5" d="M1614.07,-64.94C1626.2,-72.45 1639.5,-82.34 1649.01,-94 1688.24,-142.1 1710.47,-213.03 1720.22,-250.91"/>
</g>
<!-- n6_port_0 -->
<g id="node43" class="node">
<title>n6_port_0</title>
<polygon fill="white" stroke="black" points="413.14,-919.33 381.71,-942.43 350.28,-919.33 350.31,-881.96 413.11,-881.96 413.14,-919.33"/>
<text text-anchor="middle" x="381.71" y="-912.8" font-family="Times,serif" font-size="14.00">d</text>
<text text-anchor="middle" x="381.71" y="-897.8" font-family="Times,serif" font-size="14.00">int</text>
</g>
<!-- n0_place_0&#45;&gt;n6_port_0 -->
<g id="edge18" class="edge">
<title>n0_place_0&#45;&gt;n6_port_0</title>
<path fill="none" stroke="black" d="M260.75,-909C285.53,-909 315.9,-909 339.88,-909"/>
<polygon fill="black" stroke="black" points="340.06,-912.5 350.06,-909 340.06,-905.5 340.06,-912.5"/>
</g>
<!-- n6_port_1 -->
<g id="node44" class="node">
<title>n6_port_1</title>
<polygon fill="white" stroke="black" points="413.14,-835.33 381.71,-858.43 350.28,-835.33 350.31,-797.96 413.11,-797.96 413.14,-835.33"/>
<text text-anchor="middle" x="381.71" y="-828.8" font-family="Times,serif" font-size="14.00">n</text>
<text text-anchor="middle" x="381.71" y="-813.8" font-family="Times,serif" font-size="14.00">int</text>
</g>
<!-- n0_place_1&#45;&gt;n6_port_1 -->
<g id="edge19" class="edge">
<title>n0_place_1&#45;&gt;n6_port_1</title>
<path fill="none" stroke="black" d="M241.29,-825C267.85,-825 309.28,-825 340.08,-825"/>
<polygon fill="black" stroke="black" points="340.08,-828.5 350.08,-825 340.08,-821.5 340.08,-828.5"/>
</g>
<!-- n0_place_2 -->
<g id="node8" class="node">
<title>n0_place_2</title>
<ellipse fill="white" stroke="black" cx="966.21" cy="-804" rx="69.09" ry="26.74"/>
<text text-anchor="middle" x="966.21" y="-807.8" font-family="Times,serif" font-size="14.00">branchtype</text>
<text text-anchor="middle" x="966.21" y="-792.8" font-family="Times,serif" font-size="14.00">list</text>
</g>
<!-- n3_port_0 -->
<g id="node28" class="node">
<title>n3_port_0</title>
<polygon fill="white" stroke="black" points="1237.19,-835.33 1203.01,-858.43 1168.84,-835.33 1168.87,-797.96 1237.15,-797.96 1237.19,-835.33"/>
<text text-anchor="middle" x="1203.01" y="-828.8" font-family="Times,serif" font-size="14.00">a</text>
<text text-anchor="middle" x="1203.01" y="-813.8" font-family="Times,serif" font-size="14.00">list</text>
</g>
<!-- n0_place_2&#45;&gt;n3_port_0 -->
<g id="edge9" class="edge">
<title>n0_place_2&#45;&gt;n3_port_0</title>
<path fill="none" stroke="black" d="M1033.87,-809.96C1073.8,-813.53 1123.43,-817.97 1158.39,-821.1"/>
<polygon fill="black" stroke="black" points="1158.47,-824.62 1168.74,-822.02 1159.09,-817.65 1158.47,-824.62"/>
</g>
<!-- n0_place_3 -->
<g id="node9" class="node">
<title>n0_place_3</title>
<ellipse fill="white" stroke="black" cx="1429.2" cy="-819" rx="48.17" ry="26.74"/>
<text text-anchor="middle" x="1429.2" y="-822.8" font-family="Times,serif" font-size="14.00">fey_out</text>
<text text-anchor="middle" x="1429.2" y="-807.8" font-family="Times,serif" font-size="14.00">int</text>
</g>
<!-- n2_port_0 -->
<g id="node22" class="node">
<title>n2_port_0</title>
<polygon fill="white" stroke="black" points="1613.88,-907.33 1582.45,-930.43 1551.02,-907.33 1551.05,-869.96 1613.85,-869.96 1613.88,-907.33"/>
<text text-anchor="middle" x="1582.45" y="-900.8" font-family="Times,serif" font-size="14.00">a</text>
<text text-anchor="middle" x="1582.45" y="-885.8" font-family="Times,serif" font-size="14.00">int</text>
</g>
<!-- n0_place_3&#45;&gt;n2_port_0 -->
<g id="edge7" class="edge">
<title>n0_place_3&#45;&gt;n2_port_0</title>
<path fill="none" stroke="black" d="M1465.28,-837.09C1488.09,-848.85 1517.87,-864.21 1541.57,-876.44"/>
<polygon fill="black" stroke="black" points="1540.17,-879.65 1550.66,-881.12 1543.38,-873.43 1540.17,-879.65"/>
</g>
<!-- n5_port_0 -->
<g id="node37" class="node">
<title>n5_port_0</title>
<polygon fill="white" stroke="black" points="1613.88,-455.33 1582.45,-478.43 1551.02,-455.33 1551.05,-417.96 1613.85,-417.96 1613.88,-455.33"/>
<text text-anchor="middle" x="1582.45" y="-448.8" font-family="Times,serif" font-size="14.00">a</text>
<text text-anchor="middle" x="1582.45" y="-433.8" font-family="Times,serif" font-size="14.00">int</text>
</g>
<!-- n0_place_3&#45;&gt;n5_port_0 -->
<g id="edge15" class="edge">
<title>n0_place_3&#45;&gt;n5_port_0</title>
<path fill="none" stroke="black" d="M1430.8,-791.81C1433.4,-731.51 1446.91,-584.26 1515.89,-488 1523.32,-477.63 1534.11,-469.09 1544.79,-462.42"/>
<polygon fill="black" stroke="black" points="1546.77,-465.32 1553.66,-457.27 1543.25,-459.27 1546.77,-465.32"/>
</g>
<!-- n0_place_4 -->
<g id="node10" class="node">
<title>n0_place_4</title>
<ellipse fill="white" stroke="black" cx="562.81" cy="-783" rx="60.21" ry="26.74"/>
<text text-anchor="middle" x="562.81" y="-786.8" font-family="Times,serif" font-size="14.00">d_vectors</text>
<text text-anchor="middle" x="562.81" y="-771.8" font-family="Times,serif" font-size="14.00">list</text>
</g>
<!-- n4_port_0 -->
<g id="node33" class="node">
<title>n4_port_0</title>
<polygon fill="white" stroke="black" points="794.09,-877.33 759.92,-900.43 725.74,-877.33 725.78,-839.96 794.06,-839.96 794.09,-877.33"/>
<text text-anchor="middle" x="759.92" y="-870.8" font-family="Times,serif" font-size="14.00">v</text>
<text text-anchor="middle" x="759.92" y="-855.8" font-family="Times,serif" font-size="14.00">list</text>
</g>
<!-- n0_place_4&#45;&gt;n4_port_0 -->
<g id="edge12" class="edge">
<title>n0_place_4&#45;&gt;n4_port_0</title>
<path fill="none" stroke="black" d="M603.4,-802.9C618.2,-810.12 635.21,-818.17 650.92,-825 672.16,-834.24 696.15,-843.66 716.11,-851.24"/>
<polygon fill="black" stroke="black" points="714.97,-854.55 725.56,-854.8 717.43,-848 714.97,-854.55"/>
</g>
<!-- n3_port_1 -->
<g id="node29" class="node">
<title>n3_port_1</title>
<polygon fill="white" stroke="black" points="1254.65,-919.33 1203.01,-942.43 1151.38,-919.33 1151.42,-881.96 1254.6,-881.96 1254.65,-919.33"/>
<text text-anchor="middle" x="1203.01" y="-912.8" font-family="Times,serif" font-size="14.00">G</text>
<text text-anchor="middle" x="1203.01" y="-897.8" font-family="Times,serif" font-size="14.00">string</text>
</g>
<!-- n0_place_5&#45;&gt;n3_port_1 -->
<g id="edge10" class="edge">
<title>n0_place_5&#45;&gt;n3_port_1</title>
<path fill="none" stroke="black" stroke-dasharray="5,2" d="M1007.04,-938.06C1043.87,-932.57 1099.12,-924.34 1141.41,-918.03"/>
<polygon fill="black" stroke="black" points="1141.94,-921.49 1151.32,-916.56 1140.91,-914.57 1141.94,-921.49"/>
</g>
<!-- n0_place_6 -->
<g id="node12" class="node">
<title>n0_place_6</title>
<ellipse fill="white" stroke="black" cx="1727.22" cy="-503" rx="50.41" ry="26.74"/>
<text text-anchor="middle" x="1727.22" y="-506.8" font-family="Times,serif" font-size="14.00">left_init</text>
<text text-anchor="middle" x="1727.22" y="-491.8" font-family="Times,serif" font-size="14.00">control</text>
</g>
<!-- n5_port_1 -->
<g id="node38" class="node">
<title>n5_port_1</title>
<polygon fill="white" stroke="black" points="1641.07,-371.33 1582.45,-394.43 1523.83,-371.33 1523.89,-333.96 1641.02,-333.96 1641.07,-371.33"/>
<text text-anchor="middle" x="1582.45" y="-364.8" font-family="Times,serif" font-size="14.00">s</text>
<text text-anchor="middle" x="1582.45" y="-349.8" font-family="Times,serif" font-size="14.00">control</text>
</g>
<!-- n0_place_6&#45;&gt;n5_port_1 -->
<g id="edge16" class="edge">
<title>n0_place_6&#45;&gt;n5_port_1</title>
<path fill="none" stroke="black" d="M1710.23,-477.62C1695.91,-456.14 1673.43,-425.37 1649.01,-403 1642.42,-396.96 1634.86,-391.24 1627.27,-386.08"/>
<polygon fill="black" stroke="black" points="1628.69,-382.82 1618.41,-380.28 1624.86,-388.68 1628.69,-382.82"/>
</g>
<!-- n0_place_7 -->
<g id="node13" class="node">
<title>n0_place_7</title>
<ellipse fill="white" stroke="black" cx="1429.2" cy="-465" rx="58.88" ry="37.45"/>
<text text-anchor="middle" x="1429.2" y="-476.3" font-family="Times,serif" font-size="14.00">right_init</text>
<text text-anchor="middle" x="1429.2" y="-461.3" font-family="Times,serif" font-size="14.00">control</text>
<text text-anchor="middle" x="1429.2" y="-446.3" font-family="Times,serif" font-size="14.00">[]</text>
</g>
<!-- n2_port_1 -->
<g id="node23" class="node">
<title>n2_port_1</title>
<polygon fill="white" stroke="black" points="1641.07,-823.33 1582.45,-846.43 1523.83,-823.33 1523.89,-785.96 1641.02,-785.96 1641.07,-823.33"/>
<text text-anchor="middle" x="1582.45" y="-816.8" font-family="Times,serif" font-size="14.00">s</text>
<text text-anchor="middle" x="1582.45" y="-801.8" font-family="Times,serif" font-size="14.00">control</text>
</g>
<!-- n0_place_7&#45;&gt;n2_port_1 -->
<g id="edge6" class="edge">
<title>n0_place_7&#45;&gt;n2_port_1</title>
<path fill="none" stroke="black" d="M1432.23,-502.62C1437.28,-564.35 1454.85,-688.51 1515.89,-771 1517.9,-773.72 1520.14,-776.3 1522.55,-778.76"/>
<polygon fill="black" stroke="black" points="1520.47,-781.6 1530.23,-785.73 1525.18,-776.42 1520.47,-781.6"/>
</g>
<!-- n1_port_1 -->
<g id="node17" class="node">
<title>n1_port_1</title>
<polygon fill="white" stroke="black" points="1883.35,-655.33 1851.92,-678.43 1820.49,-655.33 1820.52,-617.96 1883.32,-617.96 1883.35,-655.33"/>
<text text-anchor="middle" x="1851.92" y="-648.8" font-family="Times,serif" font-size="14.00">l</text>
<text text-anchor="middle" x="1851.92" y="-633.8" font-family="Times,serif" font-size="14.00">int</text>
</g>
<!-- n0_place_8&#45;&gt;n1_port_1 -->
<g id="edge3" class="edge">
<title>n0_place_8&#45;&gt;n1_port_1</title>
<path fill="none" stroke="black" d="M1735.31,-302.71C1745.27,-339.14 1763.7,-407.92 1777.42,-467 1791.38,-527.11 1775.07,-549.27 1805.42,-603 1807.62,-606.9 1810.31,-610.64 1813.27,-614.17"/>
<polygon fill="black" stroke="black" points="1810.73,-616.58 1820.09,-621.54 1815.87,-611.83 1810.73,-616.58"/>
</g>
<!-- n0_place_9 -->
<g id="node15" class="node">
<title>n0_place_9</title>
<ellipse fill="white" stroke="black" cx="1727.22" cy="-729" rx="27" ry="26.74"/>
<text text-anchor="middle" x="1727.22" y="-732.8" font-family="Times,serif" font-size="14.00">R</text>
<text text-anchor="middle" x="1727.22" y="-717.8" font-family="Times,serif" font-size="14.00">int</text>
</g>
<!-- n1_port_2 -->
<g id="node18" class="node">
<title>n1_port_2</title>
<polygon fill="white" stroke="black" points="1883.35,-739.33 1851.92,-762.43 1820.49,-739.33 1820.52,-701.96 1883.32,-701.96 1883.35,-739.33"/>
<text text-anchor="middle" x="1851.92" y="-732.8" font-family="Times,serif" font-size="14.00">r</text>
<text text-anchor="middle" x="1851.92" y="-717.8" font-family="Times,serif" font-size="14.00">int</text>
</g>
<!-- n0_place_9&#45;&gt;n1_port_2 -->
<g id="edge2" class="edge">
<title>n0_place_9&#45;&gt;n1_port_2</title>
<path fill="none" stroke="black" d="M1754.24,-729C1770.43,-729 1791.59,-729 1809.99,-729"/>
<polygon fill="black" stroke="black" points="1810.16,-732.5 1820.16,-729 1810.16,-725.5 1810.16,-732.5"/>
</g>
<!-- n1_condition -->
<g id="node16" class="node">
<title>n1_condition</title>
<polygon fill="white" stroke="black" points="1817.42,-865 1817.42,-901 1886.42,-901 1886.42,-865 1817.42,-865"/>
<text text-anchor="middle" x="1851.92" y="-879.3" font-family="Times,serif" font-size="14.00">Reduce</text>
</g>
<!-- n1_port_0 -->
<g id="node19" class="node">
<title>n1_port_0</title>
<polygon fill="white" stroke="black" points="1820.49,-802.67 1851.92,-779.57 1883.35,-802.67 1883.32,-840.04 1820.52,-840.04 1820.49,-802.67"/>
<text text-anchor="middle" x="1851.92" y="-816.8" font-family="Times,serif" font-size="14.00">s</text>
<text text-anchor="middle" x="1851.92" y="-801.8" font-family="Times,serif" font-size="14.00">int</text>
</g>
<!-- n1_port_0&#45;&gt;n0_place_3 -->
<g id="edge1" class="edge">
<title>n1_port_0&#45;&gt;n0_place_3</title>
<path fill="none" stroke="black" d="M1821.65,-840.32C1766.98,-891.29 1654.37,-995.92 1649.01,-998 1593.87,-1019.44 1565.95,-1029.54 1515.89,-998 1466.47,-966.87 1444.93,-898.47 1436.01,-855.82"/>
<polygon fill="black" stroke="black" points="1439.41,-854.97 1434.06,-845.83 1432.54,-856.32 1439.41,-854.97"/>
</g>
<!-- n1_modcall -->
<g id="node20" class="node">
<title>n1_modcall</title>
<polygon fill="white" stroke="black" points="1890.42,-594 1813.42,-594 1813.42,-558 1890.42,-558 1890.42,-594"/>
<text text-anchor="middle" x="1851.92" y="-572.3" font-family="Times,serif" font-size="14.00">sum.add</text>
</g>
<!-- n2_condition -->
<g id="node21" class="node">
<title>n2_condition</title>
<polygon fill="white" stroke="black" points="1555.45,-949 1555.45,-985 1609.45,-985 1609.45,-949 1555.45,-949"/>
<text text-anchor="middle" x="1582.45" y="-963.3" font-family="Times,serif" font-size="14.00">RHS</text>
</g>
<!-- n2_port_2 -->
<g id="node24" class="node">
<title>n2_port_2</title>
<polygon fill="white" stroke="black" points="1551.02,-718.67 1582.45,-695.57 1613.88,-718.67 1613.85,-756.04 1551.05,-756.04 1551.02,-718.67"/>
<text text-anchor="middle" x="1582.45" y="-732.8" font-family="Times,serif" font-size="14.00">a</text>
<text text-anchor="middle" x="1582.45" y="-717.8" font-family="Times,serif" font-size="14.00">int</text>
</g>
<!-- n2_port_2&#45;&gt;n0_place_9 -->
<g id="edge4" class="edge">
<title>n2_port_2&#45;&gt;n0_place_9</title>
<path fill="none" stroke="black" d="M1614.08,-729C1636.25,-729 1666.3,-729 1689.71,-729"/>
<polygon fill="black" stroke="black" points="1689.95,-732.5 1699.95,-729 1689.95,-725.5 1689.95,-732.5"/>
</g>
<!-- n2_port_3 -->
<g id="node25" class="node">
<title>n2_port_3</title>
<polygon fill="white" stroke="black" points="1523.83,-634.67 1582.45,-611.57 1641.07,-634.67 1641.02,-672.04 1523.89,-672.04 1523.83,-634.67"/>
<text text-anchor="middle" x="1582.45" y="-648.8" font-family="Times,serif" font-size="14.00">s</text>
<text text-anchor="middle" x="1582.45" y="-633.8" font-family="Times,serif" font-size="14.00">control</text>
</g>
<!-- n2_port_3&#45;&gt;n0_place_6 -->
<g id="edge5" class="edge">
<title>n2_port_3&#45;&gt;n0_place_6</title>
<path fill="none" stroke="black" d="M1618.41,-625.72C1628.79,-619.19 1639.84,-611.4 1649.01,-603 1670.38,-583.43 1690.26,-557.42 1704.49,-536.83"/>
<polygon fill="black" stroke="black" points="1707.51,-538.62 1710.23,-528.38 1701.72,-534.69 1707.51,-538.62"/>
</g>
<!-- n2_modcall -->
<g id="node26" class="node">
<title>n2_modcall</title>
<polygon fill="white" stroke="black" points="1627.95,-594 1536.95,-594 1536.95,-558 1627.95,-558 1627.95,-594"/>
<text text-anchor="middle" x="1582.45" y="-572.3" font-family="Times,serif" font-size="14.00">token.plus</text>
</g>
<!-- n3_condition -->
<g id="node27" class="node">
<title>n3_condition</title>
<polygon fill="white" stroke="black" points="1136.01,-961 1136.01,-997 1270.01,-997 1270.01,-961 1136.01,-961"/>
<text text-anchor="middle" x="1203.01" y="-975.3" font-family="Times,serif" font-size="14.00">feynman_degree</text>
</g>
<!-- n3_port_2 -->
<g id="node30" class="node">
<title>n3_port_2</title>
<polygon fill="white" stroke="black" points="1171.58,-730.67 1203.01,-707.57 1234.44,-730.67 1234.41,-768.04 1171.61,-768.04 1171.58,-730.67"/>
<text text-anchor="middle" x="1203.01" y="-744.8" font-family="Times,serif" font-size="14.00">s</text>
<text text-anchor="middle" x="1203.01" y="-729.8" font-family="Times,serif" font-size="14.00">int</text>
</g>
<!-- n3_port_2&#45;&gt;n0_place_3 -->
<g id="edge8" class="edge">
<title>n3_port_2&#45;&gt;n0_place_3</title>
<path fill="none" stroke="black" d="M1234.57,-749.28C1262.83,-757.18 1305.87,-769.79 1342.51,-783 1355.33,-787.62 1369.02,-793.12 1381.61,-798.4"/>
<polygon fill="black" stroke="black" points="1380.42,-801.69 1390.99,-802.38 1383.15,-795.25 1380.42,-801.69"/>
</g>
<!-- n3_modcall -->
<g id="node31" class="node">
<title>n3_modcall</title>
<polygon fill="white" stroke="black" points="1334.51,-690 1071.51,-690 1071.51,-654 1334.51,-654 1334.51,-690"/>
<text text-anchor="middle" x="1203.01" y="-668.3" font-family="Times,serif" font-size="14.00">feynman.feynman_integral_degree</text>
</g>
<!-- n4_condition -->
<g id="node32" class="node">
<title>n4_condition</title>
<polygon fill="white" stroke="black" points="706.42,-919 706.42,-955 813.42,-955 813.42,-919 706.42,-919"/>
<text text-anchor="middle" x="759.92" y="-933.3" font-family="Times,serif" font-size="14.00">Combination</text>
</g>
<!-- n4_port_1 -->
<g id="node34" class="node">
<title>n4_port_1</title>
<polygon fill="white" stroke="black" points="724.25,-772.67 759.92,-749.57 795.59,-772.67 795.56,-810.04 724.28,-810.04 724.25,-772.67"/>
<text text-anchor="middle" x="759.92" y="-786.8" font-family="Times,serif" font-size="14.00">vec</text>
<text text-anchor="middle" x="759.92" y="-771.8" font-family="Times,serif" font-size="14.00">list</text>
</g>
<!-- n4_port_1&#45;&gt;n0_place_2 -->
<g id="edge11" class="edge">
<title>n4_port_1&#45;&gt;n0_place_2</title>
<path fill="none" stroke="black" d="M796.24,-784.62C821.67,-787.23 857.02,-790.87 888.83,-794.14"/>
<path fill="none" stroke="transparent" d="M796.04,-786.61C821.47,-789.22 856.81,-792.86 888.63,-796.13"/>
<path fill="none" stroke="black" d="M795.83,-788.6C821.26,-791.21 856.61,-794.85 888.42,-798.12"/>
<polygon fill="black" stroke="black" points="888.51,-799.63 898.81,-797.17 889.22,-792.67 888.51,-799.63"/>
</g>
<!-- n4_modcall -->
<g id="node35" class="node">
<title>n4_modcall</title>
<polygon fill="white" stroke="black" points="860.92,-732 658.92,-732 658.92,-696 860.92,-696 860.92,-732"/>
<text text-anchor="middle" x="759.92" y="-710.3" font-family="Times,serif" font-size="14.00">combination_vec.partition</text>
</g>
<!-- n5_condition -->
<g id="node36" class="node">
<title>n5_condition</title>
<polygon fill="white" stroke="black" points="1555.45,-497 1555.45,-533 1609.45,-533 1609.45,-497 1555.45,-497"/>
<text text-anchor="middle" x="1582.45" y="-511.3" font-family="Times,serif" font-size="14.00">LHS</text>
</g>
<!-- n5_port_2 -->
<g id="node39" class="node">
<title>n5_port_2</title>
<polygon fill="white" stroke="black" points="1551.02,-266.67 1582.45,-243.57 1613.88,-266.67 1613.85,-304.04 1551.05,-304.04 1551.02,-266.67"/>
<text text-anchor="middle" x="1582.45" y="-280.8" font-family="Times,serif" font-size="14.00">a</text>
<text text-anchor="middle" x="1582.45" y="-265.8" font-family="Times,serif" font-size="14.00">int</text>
</g>
<!-- n5_port_2&#45;&gt;n0_place_8 -->
<g id="edge13" class="edge">
<title>n5_port_2&#45;&gt;n0_place_8</title>
<path fill="none" stroke="black" d="M1614.08,-277C1636.25,-277 1666.3,-277 1689.71,-277"/>
<polygon fill="black" stroke="black" points="1689.95,-280.5 1699.95,-277 1689.95,-273.5 1689.95,-280.5"/>
</g>
<!-- n5_port_3 -->
<g id="node40" class="node">
<title>n5_port_3</title>
<polygon fill="white" stroke="black" points="1523.83,-182.67 1582.45,-159.57 1641.07,-182.67 1641.02,-220.04 1523.89,-220.04 1523.83,-182.67"/>
<text text-anchor="middle" x="1582.45" y="-196.8" font-family="Times,serif" font-size="14.00">s</text>
<text text-anchor="middle" x="1582.45" y="-181.8" font-family="Times,serif" font-size="14.00">control</text>
</g>
<!-- n5_port_3&#45;&gt;n0_place_7 -->
<g id="edge14" class="edge">
<title>n5_port_3&#45;&gt;n0_place_7</title>
<path fill="none" stroke="black" d="M1531.31,-220.08C1525.63,-224.55 1520.3,-229.53 1515.89,-235 1472.21,-289.14 1449.39,-367.77 1438.59,-417.63"/>
<polygon fill="black" stroke="black" points="1435.15,-417 1436.53,-427.51 1442,-418.43 1435.15,-417"/>
</g>
<!-- n5_modcall -->
<g id="node41" class="node">
<title>n5_modcall</title>
<polygon fill="white" stroke="black" points="1632.95,-142 1531.95,-142 1531.95,-106 1632.95,-106 1632.95,-142"/>
<text text-anchor="middle" x="1582.45" y="-120.3" font-family="Times,serif" font-size="14.00">token.count</text>
</g>
<!-- n6_condition -->
<g id="node42" class="node">
<title>n6_condition</title>
<polygon fill="white" stroke="black" points="342.21,-961 342.21,-997 421.21,-997 421.21,-961 342.21,-961"/>
<text text-anchor="middle" x="381.71" y="-975.3" font-family="Times,serif" font-size="14.00">partition</text>
</g>
<!-- n6_port_2 -->
<g id="node45" class="node">
<title>n6_port_2</title>
<polygon fill="white" stroke="black" points="347.54,-730.67 381.71,-707.57 415.89,-730.67 415.85,-768.04 347.57,-768.04 347.54,-730.67"/>
<text text-anchor="middle" x="381.71" y="-744.8" font-family="Times,serif" font-size="14.00">v</text>
<text text-anchor="middle" x="381.71" y="-729.8" font-family="Times,serif" font-size="14.00">list</text>
</g>
<!-- n6_port_2&#45;&gt;n0_place_4 -->
<g id="edge17" class="edge">
<title>n6_port_2&#45;&gt;n0_place_4</title>
<path fill="none" stroke="black" d="M416.44,-746.85C439.87,-752.35 471.96,-759.88 500.07,-766.47"/>
<path fill="none" stroke="transparent" d="M415.98,-748.8C439.42,-754.3 471.5,-761.82 499.61,-768.41"/>
<path fill="none" stroke="black" d="M415.52,-750.75C438.96,-756.24 471.05,-763.77 499.16,-770.36"/>
<polygon fill="black" stroke="black" points="498.84,-771.83 509.37,-770.7 500.43,-765.01 498.84,-771.83"/>
</g>
<!-- n6_modcall -->
<g id="node46" class="node">
<title>n6_modcall</title>
<polygon fill="white" stroke="black" points="466.71,-690 296.71,-690 296.71,-654 466.71,-654 466.71,-690"/>
<text text-anchor="middle" x="381.71" y="-668.3" font-family="Times,serif" font-size="14.00">sum_degree.sum_deg</text>
</g>
</g>
</svg>
