<?xml version="1.0" encoding="UTF-8" standalone="no"?>
<!DOCTYPE svg PUBLIC "-//W3C//DTD SVG 1.1//EN"
 "http://www.w3.org/Graphics/SVG/1.1/DTD/svg11.dtd">
<!-- Generated by graphviz version 2.43.0 (0)
 -->
<!-- Title: feynman_deg Pages: 1 -->
<svg width="1418pt" height="564pt"
 viewBox="0.00 0.00 1417.68 564.00" xmlns="http://www.w3.org/2000/svg" xmlns:xlink="http://www.w3.org/1999/xlink">
<g id="graph0" class="graph" transform="scale(1 1) rotate(0) translate(4 560)">
<title>feynman_deg</title>
<polygon fill="white" stroke="transparent" points="-4,4 -4,-560 1413.68,-560 1413.68,4 -4,4"/>
<g id="clust1" class="cluster">
<title>cluster_0</title>
<polygon fill="dimgray" stroke="black" points="8,-8 8,-548 1401.68,-548 1401.68,-8 8,-8"/>
</g>
<g id="clust2" class="cluster">
<title>cluster_net_0</title>
<polygon fill="white" stroke="black" points="159.37,-90 159.37,-466 1393.68,-466 1393.68,-90 159.37,-90"/>
</g>
<g id="clust3" class="cluster">
<title>cluster_1</title>
<polygon fill="yellow" stroke="black" points="982.51,-98 982.51,-458 1261.51,-458 1261.51,-98 982.51,-98"/>
</g>
<g id="clust4" class="cluster">
<title>cluster_2</title>
<polygon fill="yellow" stroke="black" points="626.92,-140 626.92,-416 787.92,-416 787.92,-140 626.92,-140"/>
</g>
<g id="clust5" class="cluster">
<title>cluster_3</title>
<polygon fill="yellow" stroke="black" points="288.71,-98 288.71,-458 450.71,-458 450.71,-98 288.71,-98"/>
</g>
<!-- n0_condition -->
<g id="node1" class="node">
<title>n0_condition</title>
<polygon fill="white" stroke="black" points="18.19,-458 18.19,-494 129.19,-494 129.19,-458 18.19,-458"/>
<text text-anchor="middle" x="73.69" y="-472.3" font-family="Times,serif" font-size="14.00">feynman_deg</text>
</g>
<!-- n0_port_0 -->
<g id="node2" class="node">
<title>n0_port_0</title>
<polygon fill="white" stroke="black" points="131.56,-371.33 73.69,-394.43 15.81,-371.33 15.87,-333.96 131.5,-333.96 131.56,-371.33"/>
<text text-anchor="middle" x="73.69" y="-364.8" font-family="Times,serif" font-size="14.00">degree</text>
<text text-anchor="middle" x="73.69" y="-349.8" font-family="Times,serif" font-size="14.00">int</text>
</g>
<!-- n0_place_0 -->
<g id="node6" class="node">
<title>n0_place_0</title>
<ellipse fill="white" stroke="black" cx="214.04" cy="-361" rx="46.84" ry="26.74"/>
<text text-anchor="middle" x="214.04" y="-364.8" font-family="Times,serif" font-size="14.00">degree</text>
<text text-anchor="middle" x="214.04" y="-349.8" font-family="Times,serif" font-size="14.00">int</text>
</g>
<!-- n0_port_0&#45;&gt;n0_place_0 -->
<g id="edge9" class="edge">
<title>n0_port_0&#45;&gt;n0_place_0</title>
<path fill="none" stroke="black" stroke-dasharray="1,5" d="M131.76,-361C143.52,-361 155.76,-361 167.07,-361"/>
</g>
<!-- n0_port_1 -->
<g id="node3" class="node">
<title>n0_port_1</title>
<polygon fill="white" stroke="black" points="105.12,-287.33 73.69,-310.43 42.26,-287.33 42.29,-249.96 105.09,-249.96 105.12,-287.33"/>
<text text-anchor="middle" x="73.69" y="-280.8" font-family="Times,serif" font-size="14.00">N</text>
<text text-anchor="middle" x="73.69" y="-265.8" font-family="Times,serif" font-size="14.00">int</text>
</g>
<!-- n0_place_1 -->
<g id="node7" class="node">
<title>n0_place_1</title>
<ellipse fill="white" stroke="black" cx="214.04" cy="-277" rx="27" ry="26.74"/>
<text text-anchor="middle" x="214.04" y="-280.8" font-family="Times,serif" font-size="14.00">N</text>
<text text-anchor="middle" x="214.04" y="-265.8" font-family="Times,serif" font-size="14.00">int</text>
</g>
<!-- n0_port_1&#45;&gt;n0_place_1 -->
<g id="edge10" class="edge">
<title>n0_port_1&#45;&gt;n0_place_1</title>
<path fill="none" stroke="black" stroke-dasharray="1,5" d="M105.39,-277C129.75,-277 163.45,-277 186.62,-277"/>
</g>
<!-- n0_port_2 -->
<g id="node4" class="node">
<title>n0_port_2</title>
<polygon fill="white" stroke="black" points="759.05,-517.33 707.42,-540.43 655.78,-517.33 655.83,-479.96 759.01,-479.96 759.05,-517.33"/>
<text text-anchor="middle" x="707.42" y="-510.8" font-family="Times,serif" font-size="14.00">graph</text>
<text text-anchor="middle" x="707.42" y="-495.8" font-family="Times,serif" font-size="14.00">string</text>
</g>
<!-- n0_place_5 -->
<g id="node11" class="node">
<title>n0_place_5</title>
<ellipse fill="white" stroke="black" cx="885.21" cy="-396" rx="41.94" ry="26.74"/>
<text text-anchor="middle" x="885.21" y="-399.8" font-family="Times,serif" font-size="14.00">graph</text>
<text text-anchor="middle" x="885.21" y="-384.8" font-family="Times,serif" font-size="14.00">string</text>
</g>
<!-- n0_port_2&#45;&gt;n0_place_5 -->
<g id="edge11" class="edge">
<title>n0_port_2&#45;&gt;n0_place_5</title>
<path fill="none" stroke="black" stroke-dasharray="1,5" d="M751.42,-479.85C783.54,-459.56 826.6,-432.38 854.86,-414.54"/>
</g>
<!-- n0_port_3 -->
<g id="node5" class="node">
<title>n0_port_3</title>
<polygon fill="white" stroke="black" points="1062.64,-38.67 1122.01,-15.57 1181.38,-38.67 1181.32,-76.04 1062.7,-76.04 1062.64,-38.67"/>
<text text-anchor="middle" x="1122.01" y="-52.8" font-family="Times,serif" font-size="14.00">fey_out</text>
<text text-anchor="middle" x="1122.01" y="-37.8" font-family="Times,serif" font-size="14.00">int</text>
</g>
<!-- n0_place_3 -->
<g id="node9" class="node">
<title>n0_place_3</title>
<ellipse fill="white" stroke="black" cx="1337.59" cy="-159" rx="48.17" ry="26.74"/>
<text text-anchor="middle" x="1337.59" y="-162.8" font-family="Times,serif" font-size="14.00">fey_out</text>
<text text-anchor="middle" x="1337.59" y="-147.8" font-family="Times,serif" font-size="14.00">int</text>
</g>
<!-- n0_port_3&#45;&gt;n0_place_3 -->
<g id="edge12" class="edge">
<title>n0_port_3&#45;&gt;n0_place_3</title>
<path fill="none" stroke="black" stroke-dasharray="1,5" d="M1181.43,-62.39C1207,-69.64 1236.74,-80.02 1261.51,-94 1281.03,-105.02 1300.09,-121.61 1314.12,-135.27"/>
</g>
<!-- n3_port_0 -->
<g id="node22" class="node">
<title>n3_port_0</title>
<polygon fill="white" stroke="black" points="401.14,-371.33 369.71,-394.43 338.28,-371.33 338.31,-333.96 401.11,-333.96 401.14,-371.33"/>
<text text-anchor="middle" x="369.71" y="-364.8" font-family="Times,serif" font-size="14.00">d</text>
<text text-anchor="middle" x="369.71" y="-349.8" font-family="Times,serif" font-size="14.00">int</text>
</g>
<!-- n0_place_0&#45;&gt;n3_port_0 -->
<g id="edge7" class="edge">
<title>n0_place_0&#45;&gt;n3_port_0</title>
<path fill="none" stroke="black" d="M260.73,-361C282.07,-361 307.28,-361 327.96,-361"/>
<polygon fill="black" stroke="black" points="328.02,-364.5 338.02,-361 328.02,-357.5 328.02,-364.5"/>
</g>
<!-- n3_port_1 -->
<g id="node23" class="node">
<title>n3_port_1</title>
<polygon fill="white" stroke="black" points="401.14,-287.33 369.71,-310.43 338.28,-287.33 338.31,-249.96 401.11,-249.96 401.14,-287.33"/>
<text text-anchor="middle" x="369.71" y="-280.8" font-family="Times,serif" font-size="14.00">n</text>
<text text-anchor="middle" x="369.71" y="-265.8" font-family="Times,serif" font-size="14.00">int</text>
</g>
<!-- n0_place_1&#45;&gt;n3_port_1 -->
<g id="edge8" class="edge">
<title>n0_place_1&#45;&gt;n3_port_1</title>
<path fill="none" stroke="black" d="M241.11,-277C264.95,-277 300.6,-277 328.16,-277"/>
<polygon fill="black" stroke="black" points="328.28,-280.5 338.28,-277 328.28,-273.5 328.28,-280.5"/>
</g>
<!-- n0_place_2 -->
<g id="node8" class="node">
<title>n0_place_2</title>
<ellipse fill="white" stroke="black" cx="885.21" cy="-256" rx="69.09" ry="26.74"/>
<text text-anchor="middle" x="885.21" y="-259.8" font-family="Times,serif" font-size="14.00">branchtype</text>
<text text-anchor="middle" x="885.21" y="-244.8" font-family="Times,serif" font-size="14.00">list</text>
</g>
<!-- n1_port_0 -->
<g id="node13" class="node">
<title>n1_port_0</title>
<polygon fill="white" stroke="black" points="1156.19,-287.33 1122.01,-310.43 1087.84,-287.33 1087.87,-249.96 1156.15,-249.96 1156.19,-287.33"/>
<text text-anchor="middle" x="1122.01" y="-280.8" font-family="Times,serif" font-size="14.00">a</text>
<text text-anchor="middle" x="1122.01" y="-265.8" font-family="Times,serif" font-size="14.00">list</text>
</g>
<!-- n0_place_2&#45;&gt;n1_port_0 -->
<g id="edge2" class="edge">
<title>n0_place_2&#45;&gt;n1_port_0</title>
<path fill="none" stroke="black" d="M952.87,-261.96C992.8,-265.53 1042.43,-269.97 1077.39,-273.1"/>
<polygon fill="black" stroke="black" points="1077.47,-276.62 1087.74,-274.02 1078.09,-269.65 1077.47,-276.62"/>
</g>
<!-- n0_place_4 -->
<g id="node10" class="node">
<title>n0_place_4</title>
<ellipse fill="white" stroke="black" cx="538.81" cy="-256" rx="60.21" ry="26.74"/>
<text text-anchor="middle" x="538.81" y="-259.8" font-family="Times,serif" font-size="14.00">d_vectors</text>
<text text-anchor="middle" x="538.81" y="-244.8" font-family="Times,serif" font-size="14.00">list</text>
</g>
<!-- n2_port_0 -->
<g id="node18" class="node">
<title>n2_port_0</title>
<polygon fill="white" stroke="black" points="741.59,-329.33 707.42,-352.43 673.24,-329.33 673.28,-291.96 741.56,-291.96 741.59,-329.33"/>
<text text-anchor="middle" x="707.42" y="-322.8" font-family="Times,serif" font-size="14.00">v</text>
<text text-anchor="middle" x="707.42" y="-307.8" font-family="Times,serif" font-size="14.00">list</text>
</g>
<!-- n0_place_4&#45;&gt;n2_port_0 -->
<g id="edge5" class="edge">
<title>n0_place_4&#45;&gt;n2_port_0</title>
<path fill="none" stroke="black" d="M585.34,-273.22C609.73,-282.44 639.59,-293.73 663.56,-302.79"/>
<polygon fill="black" stroke="black" points="662.51,-306.14 673.1,-306.4 664.99,-299.59 662.51,-306.14"/>
</g>
<!-- n1_port_1 -->
<g id="node14" class="node">
<title>n1_port_1</title>
<polygon fill="white" stroke="black" points="1173.65,-371.33 1122.01,-394.43 1070.38,-371.33 1070.42,-333.96 1173.6,-333.96 1173.65,-371.33"/>
<text text-anchor="middle" x="1122.01" y="-364.8" font-family="Times,serif" font-size="14.00">G</text>
<text text-anchor="middle" x="1122.01" y="-349.8" font-family="Times,serif" font-size="14.00">string</text>
</g>
<!-- n0_place_5&#45;&gt;n1_port_1 -->
<g id="edge3" class="edge">
<title>n0_place_5&#45;&gt;n1_port_1</title>
<path fill="none" stroke="black" d="M926.04,-390.06C962.87,-384.57 1018.12,-376.34 1060.41,-370.03"/>
<polygon fill="black" stroke="black" points="1060.94,-373.49 1070.32,-368.56 1059.91,-366.57 1060.94,-373.49"/>
</g>
<!-- n1_condition -->
<g id="node12" class="node">
<title>n1_condition</title>
<polygon fill="white" stroke="black" points="1055.01,-413 1055.01,-449 1189.01,-449 1189.01,-413 1055.01,-413"/>
<text text-anchor="middle" x="1122.01" y="-427.3" font-family="Times,serif" font-size="14.00">feynman_degree</text>
</g>
<!-- n1_port_2 -->
<g id="node15" class="node">
<title>n1_port_2</title>
<polygon fill="white" stroke="black" points="1090.58,-182.67 1122.01,-159.57 1153.44,-182.67 1153.41,-220.04 1090.61,-220.04 1090.58,-182.67"/>
<text text-anchor="middle" x="1122.01" y="-196.8" font-family="Times,serif" font-size="14.00">s</text>
<text text-anchor="middle" x="1122.01" y="-181.8" font-family="Times,serif" font-size="14.00">int</text>
</g>
<!-- n1_port_2&#45;&gt;n0_place_3 -->
<g id="edge1" class="edge">
<title>n1_port_2&#45;&gt;n0_place_3</title>
<path fill="none" stroke="black" d="M1153.61,-188.13C1186.79,-182.85 1240.44,-174.31 1281.09,-167.84"/>
<polygon fill="black" stroke="black" points="1281.79,-171.27 1291.12,-166.24 1280.69,-164.35 1281.79,-171.27"/>
</g>
<!-- n1_modcall -->
<g id="node16" class="node">
<title>n1_modcall</title>
<polygon fill="white" stroke="black" points="1253.51,-142 990.51,-142 990.51,-106 1253.51,-106 1253.51,-142"/>
<text text-anchor="middle" x="1122.01" y="-120.3" font-family="Times,serif" font-size="14.00">feynman.feynman_integral_degree</text>
</g>
<!-- n2_condition -->
<g id="node17" class="node">
<title>n2_condition</title>
<polygon fill="white" stroke="black" points="653.92,-371 653.92,-407 760.92,-407 760.92,-371 653.92,-371"/>
<text text-anchor="middle" x="707.42" y="-385.3" font-family="Times,serif" font-size="14.00">Combination</text>
</g>
<!-- n2_port_1 -->
<g id="node19" class="node">
<title>n2_port_1</title>
<polygon fill="white" stroke="black" points="671.75,-224.67 707.42,-201.57 743.09,-224.67 743.06,-262.04 671.78,-262.04 671.75,-224.67"/>
<text text-anchor="middle" x="707.42" y="-238.8" font-family="Times,serif" font-size="14.00">vec</text>
<text text-anchor="middle" x="707.42" y="-223.8" font-family="Times,serif" font-size="14.00">list</text>
</g>
<!-- n2_port_1&#45;&gt;n0_place_2 -->
<g id="edge4" class="edge">
<title>n2_port_1&#45;&gt;n0_place_2</title>
<path fill="none" stroke="black" d="M743.39,-237.16C762.13,-239.4 786.03,-242.26 808.82,-244.98"/>
<path fill="none" stroke="transparent" d="M743.15,-239.15C761.89,-241.39 785.8,-244.24 808.58,-246.96"/>
<path fill="none" stroke="black" d="M742.91,-241.13C761.65,-243.37 785.56,-246.23 808.34,-248.95"/>
<polygon fill="black" stroke="black" points="808.26,-250.45 818.6,-248.16 809.09,-243.5 808.26,-250.45"/>
</g>
<!-- n2_modcall -->
<g id="node20" class="node">
<title>n2_modcall</title>
<polygon fill="white" stroke="black" points="779.92,-184 634.92,-184 634.92,-148 779.92,-148 779.92,-184"/>
<text text-anchor="middle" x="707.42" y="-162.3" font-family="Times,serif" font-size="14.00">feynman.partition</text>
</g>
<!-- n3_condition -->
<g id="node21" class="node">
<title>n3_condition</title>
<polygon fill="white" stroke="black" points="330.21,-413 330.21,-449 409.21,-449 409.21,-413 330.21,-413"/>
<text text-anchor="middle" x="369.71" y="-427.3" font-family="Times,serif" font-size="14.00">partition</text>
</g>
<!-- n3_port_2 -->
<g id="node24" class="node">
<title>n3_port_2</title>
<polygon fill="white" stroke="black" points="335.54,-182.67 369.71,-159.57 403.89,-182.67 403.85,-220.04 335.57,-220.04 335.54,-182.67"/>
<text text-anchor="middle" x="369.71" y="-196.8" font-family="Times,serif" font-size="14.00">v</text>
<text text-anchor="middle" x="369.71" y="-181.8" font-family="Times,serif" font-size="14.00">list</text>
</g>
<!-- n3_port_2&#45;&gt;n0_place_4 -->
<g id="edge6" class="edge">
<title>n3_port_2&#45;&gt;n0_place_4</title>
<path fill="none" stroke="black" d="M404.83,-203.73C427.39,-212.23 457.7,-223.66 483.75,-233.48"/>
<path fill="none" stroke="transparent" d="M404.12,-205.6C426.69,-214.1 456.99,-225.53 483.05,-235.35"/>
<path fill="none" stroke="black" d="M403.42,-207.47C425.98,-215.98 456.29,-227.4 482.34,-237.22"/>
<polygon fill="black" stroke="black" points="481.84,-238.64 492.43,-238.89 484.31,-232.09 481.84,-238.64"/>
</g>
<!-- n3_modcall -->
<g id="node25" class="node">
<title>n3_modcall</title>
<polygon fill="white" stroke="black" points="442.71,-142 296.71,-142 296.71,-106 442.71,-106 442.71,-142"/>
<text text-anchor="middle" x="369.71" y="-120.3" font-family="Times,serif" font-size="14.00">feynman.sum_deg</text>
</g>
</g>
</svg>
