<?xml version="1.0" encoding="UTF-8" standalone="no"?>
<!DOCTYPE svg PUBLIC "-//W3C//DTD SVG 1.1//EN"
 "http://www.w3.org/Graphics/SVG/1.1/DTD/svg11.dtd">
<!-- Generated by graphviz version 2.43.0 (0)
 -->
<!-- Title: feynman_deg Pages: 1 -->
<svg width="1780pt" height="834pt"
 viewBox="0.00 0.00 1779.68 834.00" xmlns="http://www.w3.org/2000/svg" xmlns:xlink="http://www.w3.org/1999/xlink">
<g id="graph0" class="graph" transform="scale(1 1) rotate(0) translate(4 830)">
<title>feynman_deg</title>
<polygon fill="white" stroke="transparent" points="-4,4 -4,-830 1775.68,-830 1775.68,4 -4,4"/>
<g id="clust1" class="cluster">
<title>cluster_0</title>
<polygon fill="dimgray" stroke="black" points="8,-8 8,-818 1763.68,-818 1763.68,-8 8,-8"/>
</g>
<g id="clust2" class="cluster">
<title>cluster_net_0</title>
<polygon fill="white" stroke="black" points="159.37,-90 159.37,-736 1755.68,-736 1755.68,-90 159.37,-90"/>
</g>
<g id="clust3" class="cluster">
<title>cluster_1</title>
<polygon fill="white" stroke="black" points="1477.51,-98 1477.51,-316 1598.51,-316 1598.51,-98 1477.51,-98"/>
</g>
<g id="clust4" class="cluster">
<title>cluster_2</title>
<polygon fill="white" stroke="black" points="1452.51,-324 1452.51,-728 1623.51,-728 1623.51,-324 1452.51,-324"/>
</g>
<g id="clust5" class="cluster">
<title>cluster_3</title>
<polygon fill="yellow" stroke="black" points="1063.51,-368 1063.51,-728 1342.51,-728 1342.51,-368 1063.51,-368"/>
</g>
<g id="clust6" class="cluster">
<title>cluster_4</title>
<polygon fill="yellow" stroke="black" points="650.92,-410 650.92,-686 868.92,-686 868.92,-410 650.92,-410"/>
</g>
<g id="clust7" class="cluster">
<title>cluster_5</title>
<polygon fill="yellow" stroke="black" points="288.71,-368 288.71,-728 474.71,-728 474.71,-368 288.71,-368"/>
</g>
<!-- n0_condition -->
<g id="node1" class="node">
<title>n0_condition</title>
<polygon fill="white" stroke="black" points="18.19,-728 18.19,-764 129.19,-764 129.19,-728 18.19,-728"/>
<text text-anchor="middle" x="73.69" y="-742.3" font-family="Times,serif" font-size="14.00">feynman_deg</text>
</g>
<!-- n0_port_0 -->
<g id="node2" class="node">
<title>n0_port_0</title>
<polygon fill="white" stroke="black" points="131.56,-641.33 73.69,-664.43 15.81,-641.33 15.87,-603.96 131.5,-603.96 131.56,-641.33"/>
<text text-anchor="middle" x="73.69" y="-634.8" font-family="Times,serif" font-size="14.00">degree</text>
<text text-anchor="middle" x="73.69" y="-619.8" font-family="Times,serif" font-size="14.00">int</text>
</g>
<!-- n0_place_0 -->
<g id="node6" class="node">
<title>n0_place_0</title>
<ellipse fill="white" stroke="black" cx="214.04" cy="-631" rx="46.84" ry="26.74"/>
<text text-anchor="middle" x="214.04" y="-634.8" font-family="Times,serif" font-size="14.00">degree</text>
<text text-anchor="middle" x="214.04" y="-619.8" font-family="Times,serif" font-size="14.00">int</text>
</g>
<!-- n0_port_0&#45;&gt;n0_place_0 -->
<g id="edge13" class="edge">
<title>n0_port_0&#45;&gt;n0_place_0</title>
<path fill="none" stroke="black" stroke-dasharray="1,5" d="M131.76,-631C143.52,-631 155.76,-631 167.07,-631"/>
</g>
<!-- n0_port_1 -->
<g id="node3" class="node">
<title>n0_port_1</title>
<polygon fill="white" stroke="black" points="105.12,-557.33 73.69,-580.43 42.26,-557.33 42.29,-519.96 105.09,-519.96 105.12,-557.33"/>
<text text-anchor="middle" x="73.69" y="-550.8" font-family="Times,serif" font-size="14.00">N</text>
<text text-anchor="middle" x="73.69" y="-535.8" font-family="Times,serif" font-size="14.00">int</text>
</g>
<!-- n0_place_1 -->
<g id="node7" class="node">
<title>n0_place_1</title>
<ellipse fill="white" stroke="black" cx="214.04" cy="-547" rx="27" ry="26.74"/>
<text text-anchor="middle" x="214.04" y="-550.8" font-family="Times,serif" font-size="14.00">N</text>
<text text-anchor="middle" x="214.04" y="-535.8" font-family="Times,serif" font-size="14.00">int</text>
</g>
<!-- n0_port_1&#45;&gt;n0_place_1 -->
<g id="edge14" class="edge">
<title>n0_port_1&#45;&gt;n0_place_1</title>
<path fill="none" stroke="black" stroke-dasharray="1,5" d="M105.39,-547C129.75,-547 163.45,-547 186.62,-547"/>
</g>
<!-- n0_port_2 -->
<g id="node4" class="node">
<title>n0_port_2</title>
<polygon fill="white" stroke="black" points="811.55,-787.33 759.92,-810.43 708.28,-787.33 708.33,-749.96 811.51,-749.96 811.55,-787.33"/>
<text text-anchor="middle" x="759.92" y="-780.8" font-family="Times,serif" font-size="14.00">graph</text>
<text text-anchor="middle" x="759.92" y="-765.8" font-family="Times,serif" font-size="14.00">string</text>
</g>
<!-- n0_place_6 -->
<g id="node12" class="node">
<title>n0_place_6</title>
<ellipse fill="white" stroke="black" cx="966.21" cy="-666" rx="41.94" ry="26.74"/>
<text text-anchor="middle" x="966.21" y="-669.8" font-family="Times,serif" font-size="14.00">graph</text>
<text text-anchor="middle" x="966.21" y="-654.8" font-family="Times,serif" font-size="14.00">string</text>
</g>
<!-- n0_port_2&#45;&gt;n0_place_6 -->
<g id="edge15" class="edge">
<title>n0_port_2&#45;&gt;n0_place_6</title>
<path fill="none" stroke="black" stroke-dasharray="1,5" d="M810.9,-749.85C849.29,-728.99 901.12,-700.83 933.86,-683.04"/>
</g>
<!-- n0_port_3 -->
<g id="node5" class="node">
<title>n0_port_3</title>
<polygon fill="white" stroke="black" points="1478.64,-38.67 1538.01,-15.57 1597.38,-38.67 1597.32,-76.04 1478.7,-76.04 1478.64,-38.67"/>
<text text-anchor="middle" x="1538.01" y="-52.8" font-family="Times,serif" font-size="14.00">fey_out</text>
<text text-anchor="middle" x="1538.01" y="-37.8" font-family="Times,serif" font-size="14.00">int</text>
</g>
<!-- n0_place_3 -->
<g id="node9" class="node">
<title>n0_place_3</title>
<ellipse fill="white" stroke="black" cx="1699.59" cy="-281" rx="48.17" ry="26.74"/>
<text text-anchor="middle" x="1699.59" y="-284.8" font-family="Times,serif" font-size="14.00">fey_out</text>
<text text-anchor="middle" x="1699.59" y="-269.8" font-family="Times,serif" font-size="14.00">int</text>
</g>
<!-- n0_port_3&#45;&gt;n0_place_3 -->
<g id="edge16" class="edge">
<title>n0_port_3&#45;&gt;n0_place_3</title>
<path fill="none" stroke="black" stroke-dasharray="1,5" d="M1597.45,-73.08C1607.02,-78.89 1616.18,-85.84 1623.51,-94 1665.7,-140.99 1685.72,-214.68 1693.86,-254.06"/>
</g>
<!-- n5_port_0 -->
<g id="node31" class="node">
<title>n5_port_0</title>
<polygon fill="white" stroke="black" points="413.14,-641.33 381.71,-664.43 350.28,-641.33 350.31,-603.96 413.11,-603.96 413.14,-641.33"/>
<text text-anchor="middle" x="381.71" y="-634.8" font-family="Times,serif" font-size="14.00">d</text>
<text text-anchor="middle" x="381.71" y="-619.8" font-family="Times,serif" font-size="14.00">int</text>
</g>
<!-- n0_place_0&#45;&gt;n5_port_0 -->
<g id="edge11" class="edge">
<title>n0_place_0&#45;&gt;n5_port_0</title>
<path fill="none" stroke="black" d="M260.75,-631C285.53,-631 315.9,-631 339.88,-631"/>
<polygon fill="black" stroke="black" points="340.06,-634.5 350.06,-631 340.06,-627.5 340.06,-634.5"/>
</g>
<!-- n5_port_1 -->
<g id="node32" class="node">
<title>n5_port_1</title>
<polygon fill="white" stroke="black" points="413.14,-557.33 381.71,-580.43 350.28,-557.33 350.31,-519.96 413.11,-519.96 413.14,-557.33"/>
<text text-anchor="middle" x="381.71" y="-550.8" font-family="Times,serif" font-size="14.00">n</text>
<text text-anchor="middle" x="381.71" y="-535.8" font-family="Times,serif" font-size="14.00">int</text>
</g>
<!-- n0_place_1&#45;&gt;n5_port_1 -->
<g id="edge12" class="edge">
<title>n0_place_1&#45;&gt;n5_port_1</title>
<path fill="none" stroke="black" d="M241.29,-547C267.85,-547 309.28,-547 340.08,-547"/>
<polygon fill="black" stroke="black" points="340.08,-550.5 350.08,-547 340.08,-543.5 340.08,-550.5"/>
</g>
<!-- n0_place_2 -->
<g id="node8" class="node">
<title>n0_place_2</title>
<ellipse fill="white" stroke="black" cx="966.21" cy="-526" rx="69.09" ry="26.74"/>
<text text-anchor="middle" x="966.21" y="-529.8" font-family="Times,serif" font-size="14.00">branchtype</text>
<text text-anchor="middle" x="966.21" y="-514.8" font-family="Times,serif" font-size="14.00">list</text>
</g>
<!-- n3_port_0 -->
<g id="node22" class="node">
<title>n3_port_0</title>
<polygon fill="white" stroke="black" points="1237.19,-557.33 1203.01,-580.43 1168.84,-557.33 1168.87,-519.96 1237.15,-519.96 1237.19,-557.33"/>
<text text-anchor="middle" x="1203.01" y="-550.8" font-family="Times,serif" font-size="14.00">a</text>
<text text-anchor="middle" x="1203.01" y="-535.8" font-family="Times,serif" font-size="14.00">list</text>
</g>
<!-- n0_place_2&#45;&gt;n3_port_0 -->
<g id="edge6" class="edge">
<title>n0_place_2&#45;&gt;n3_port_0</title>
<path fill="none" stroke="black" d="M1033.87,-531.96C1073.8,-535.53 1123.43,-539.97 1158.39,-543.1"/>
<polygon fill="black" stroke="black" points="1158.47,-546.62 1168.74,-544.02 1159.09,-539.65 1158.47,-546.62"/>
</g>
<!-- n0_place_4 -->
<g id="node10" class="node">
<title>n0_place_4</title>
<ellipse fill="white" stroke="black" cx="562.81" cy="-505" rx="60.21" ry="26.74"/>
<text text-anchor="middle" x="562.81" y="-508.8" font-family="Times,serif" font-size="14.00">d_vectors</text>
<text text-anchor="middle" x="562.81" y="-493.8" font-family="Times,serif" font-size="14.00">list</text>
</g>
<!-- n4_port_0 -->
<g id="node27" class="node">
<title>n4_port_0</title>
<polygon fill="white" stroke="black" points="794.09,-599.33 759.92,-622.43 725.74,-599.33 725.78,-561.96 794.06,-561.96 794.09,-599.33"/>
<text text-anchor="middle" x="759.92" y="-592.8" font-family="Times,serif" font-size="14.00">v</text>
<text text-anchor="middle" x="759.92" y="-577.8" font-family="Times,serif" font-size="14.00">list</text>
</g>
<!-- n0_place_4&#45;&gt;n4_port_0 -->
<g id="edge9" class="edge">
<title>n0_place_4&#45;&gt;n4_port_0</title>
<path fill="none" stroke="black" d="M603.4,-524.9C618.2,-532.12 635.21,-540.17 650.92,-547 672.16,-556.24 696.15,-565.66 716.11,-573.24"/>
<polygon fill="black" stroke="black" points="714.97,-576.55 725.56,-576.8 717.43,-570 714.97,-576.55"/>
</g>
<!-- n0_place_5 -->
<g id="node11" class="node">
<title>n0_place_5</title>
<ellipse fill="white" stroke="black" cx="1397.51" cy="-492" rx="27" ry="26.74"/>
<text text-anchor="middle" x="1397.51" y="-495.8" font-family="Times,serif" font-size="14.00">n</text>
<text text-anchor="middle" x="1397.51" y="-480.8" font-family="Times,serif" font-size="14.00">int</text>
</g>
<!-- n1_port_0 -->
<g id="node14" class="node">
<title>n1_port_0</title>
<polygon fill="white" stroke="black" points="1569.44,-203.33 1538.01,-226.43 1506.58,-203.33 1506.61,-165.96 1569.41,-165.96 1569.44,-203.33"/>
<text text-anchor="middle" x="1538.01" y="-196.8" font-family="Times,serif" font-size="14.00">n</text>
<text text-anchor="middle" x="1538.01" y="-181.8" font-family="Times,serif" font-size="14.00">int</text>
</g>
<!-- n0_place_5&#45;&gt;n1_port_0 -->
<g id="edge1" class="edge">
<title>n0_place_5&#45;&gt;n1_port_0</title>
<path fill="none" stroke="black" d="M1401.21,-465.35C1407.55,-407.34 1424.95,-271.96 1452.51,-236 1463.54,-221.61 1480.72,-211.64 1496.72,-204.96"/>
<polygon fill="black" stroke="black" points="1498.38,-208.07 1506.46,-201.21 1495.87,-201.53 1498.38,-208.07"/>
</g>
<!-- n2_port_0 -->
<g id="node17" class="node">
<title>n2_port_0</title>
<polygon fill="white" stroke="black" points="1569.44,-615.33 1538.01,-638.43 1506.58,-615.33 1506.61,-577.96 1569.41,-577.96 1569.44,-615.33"/>
<text text-anchor="middle" x="1538.01" y="-608.8" font-family="Times,serif" font-size="14.00">n</text>
<text text-anchor="middle" x="1538.01" y="-593.8" font-family="Times,serif" font-size="14.00">int</text>
</g>
<!-- n0_place_5&#45;&gt;n2_port_0 -->
<g id="edge4" class="edge">
<title>n0_place_5&#45;&gt;n2_port_0</title>
<path fill="none" stroke="black" d="M1412.07,-515C1421.85,-530.1 1436.16,-549.48 1452.51,-563 1465.66,-573.88 1482.11,-582.86 1496.98,-589.68"/>
<polygon fill="black" stroke="black" points="1495.92,-593.04 1506.48,-593.85 1498.73,-586.63 1495.92,-593.04"/>
</g>
<!-- n3_port_1 -->
<g id="node23" class="node">
<title>n3_port_1</title>
<polygon fill="white" stroke="black" points="1254.65,-641.33 1203.01,-664.43 1151.38,-641.33 1151.42,-603.96 1254.6,-603.96 1254.65,-641.33"/>
<text text-anchor="middle" x="1203.01" y="-634.8" font-family="Times,serif" font-size="14.00">G</text>
<text text-anchor="middle" x="1203.01" y="-619.8" font-family="Times,serif" font-size="14.00">string</text>
</g>
<!-- n0_place_6&#45;&gt;n3_port_1 -->
<g id="edge7" class="edge">
<title>n0_place_6&#45;&gt;n3_port_1</title>
<path fill="none" stroke="black" d="M1007.04,-660.06C1043.87,-654.57 1099.12,-646.34 1141.41,-640.03"/>
<polygon fill="black" stroke="black" points="1141.94,-643.49 1151.32,-638.56 1140.91,-636.57 1141.94,-643.49"/>
</g>
<!-- n1_condition -->
<g id="node13" class="node">
<title>n1_condition</title>
<polygon fill="white" stroke="black" points="1485.51,-245 1485.51,-307 1590.51,-307 1590.51,-245 1485.51,-245"/>
<text text-anchor="middle" x="1538.01" y="-291.8" font-family="Times,serif" font-size="14.00">break</text>
<polyline fill="none" stroke="black" points="1485.51,-284 1590.51,-284 "/>
<text text-anchor="middle" x="1538.01" y="-268.8" font-family="Times,serif" font-size="14.00">(${n} &lt;= 0)</text>
</g>
<!-- n1_expression -->
<g id="node15" class="node">
<title>n1_expression</title>
<polygon fill="white" stroke="transparent" points="1565.01,-142 1511.01,-142 1511.01,-106 1565.01,-106 1565.01,-142"/>
</g>
<!-- n2_condition -->
<g id="node16" class="node">
<title>n2_condition</title>
<polygon fill="white" stroke="black" points="1491.51,-657 1491.51,-719 1584.51,-719 1584.51,-657 1491.51,-657"/>
<text text-anchor="middle" x="1538.01" y="-703.8" font-family="Times,serif" font-size="14.00">step</text>
<polyline fill="none" stroke="black" points="1491.51,-696 1584.51,-696 "/>
<text text-anchor="middle" x="1538.01" y="-680.8" font-family="Times,serif" font-size="14.00">(${n} &gt; 0)</text>
</g>
<!-- n2_port_1 -->
<g id="node18" class="node">
<title>n2_port_1</title>
<polygon fill="white" stroke="black" points="1506.58,-510.67 1538.01,-487.57 1569.44,-510.67 1569.41,-548.04 1506.61,-548.04 1506.58,-510.67"/>
<text text-anchor="middle" x="1538.01" y="-524.8" font-family="Times,serif" font-size="14.00">n</text>
<text text-anchor="middle" x="1538.01" y="-509.8" font-family="Times,serif" font-size="14.00">int</text>
</g>
<!-- n2_port_1&#45;&gt;n0_place_5 -->
<g id="edge3" class="edge">
<title>n2_port_1&#45;&gt;n0_place_5</title>
<path fill="none" stroke="black" d="M1506.1,-514.53C1484.83,-510.07 1456.53,-504.15 1434.3,-499.49"/>
<polygon fill="black" stroke="black" points="1434.74,-496.01 1424.24,-497.39 1433.31,-502.86 1434.74,-496.01"/>
</g>
<!-- n2_port_2 -->
<g id="node19" class="node">
<title>n2_port_2</title>
<polygon fill="white" stroke="black" points="1506.58,-426.67 1538.01,-403.57 1569.44,-426.67 1569.41,-464.04 1506.61,-464.04 1506.58,-426.67"/>
<text text-anchor="middle" x="1538.01" y="-440.8" font-family="Times,serif" font-size="14.00">i</text>
<text text-anchor="middle" x="1538.01" y="-425.8" font-family="Times,serif" font-size="14.00">int</text>
</g>
<!-- n2_port_2&#45;&gt;n0_place_3 -->
<g id="edge2" class="edge">
<title>n2_port_2&#45;&gt;n0_place_3</title>
<path fill="none" stroke="black" d="M1569.49,-426.43C1586.69,-419.4 1607.81,-408.9 1623.51,-395 1648.52,-372.85 1668.76,-340.52 1681.89,-315.94"/>
<polygon fill="black" stroke="black" points="1685.07,-317.42 1686.57,-306.94 1678.86,-314.2 1685.07,-317.42"/>
</g>
<!-- n2_expression -->
<g id="node20" class="node">
<title>n2_expression</title>
<polygon fill="white" stroke="transparent" points="1615.51,-386 1460.51,-386 1460.51,-332 1615.51,-332 1615.51,-386"/>
<text text-anchor="middle" x="1538.01" y="-370.8" font-family="Times,serif" font-size="14.00">${n} := ${n} &#45; 1</text>
<text text-anchor="middle" x="1538.01" y="-339.8" font-family="Times,serif" font-size="14.00"> &#160;&#160;&#160;&#160;&#160;&#160;&#160;&#160;&#160;${i} := ${n}</text>
</g>
<!-- n3_condition -->
<g id="node21" class="node">
<title>n3_condition</title>
<polygon fill="white" stroke="black" points="1136.01,-683 1136.01,-719 1270.01,-719 1270.01,-683 1136.01,-683"/>
<text text-anchor="middle" x="1203.01" y="-697.3" font-family="Times,serif" font-size="14.00">feynman_degree</text>
</g>
<!-- n3_port_2 -->
<g id="node24" class="node">
<title>n3_port_2</title>
<polygon fill="white" stroke="black" points="1171.58,-452.67 1203.01,-429.57 1234.44,-452.67 1234.41,-490.04 1171.61,-490.04 1171.58,-452.67"/>
<text text-anchor="middle" x="1203.01" y="-466.8" font-family="Times,serif" font-size="14.00">s</text>
<text text-anchor="middle" x="1203.01" y="-451.8" font-family="Times,serif" font-size="14.00">int</text>
</g>
<!-- n3_port_2&#45;&gt;n0_place_5 -->
<g id="edge5" class="edge">
<title>n3_port_2&#45;&gt;n0_place_5</title>
<path fill="none" stroke="black" d="M1234.51,-467.6C1268.77,-472.76 1324.3,-481.12 1360.62,-486.59"/>
<polygon fill="black" stroke="black" points="1360.36,-490.09 1370.77,-488.12 1361.41,-483.17 1360.36,-490.09"/>
</g>
<!-- n3_modcall -->
<g id="node25" class="node">
<title>n3_modcall</title>
<polygon fill="white" stroke="black" points="1334.51,-412 1071.51,-412 1071.51,-376 1334.51,-376 1334.51,-412"/>
<text text-anchor="middle" x="1203.01" y="-390.3" font-family="Times,serif" font-size="14.00">feynman.feynman_integral_degree</text>
</g>
<!-- n4_condition -->
<g id="node26" class="node">
<title>n4_condition</title>
<polygon fill="white" stroke="black" points="706.42,-641 706.42,-677 813.42,-677 813.42,-641 706.42,-641"/>
<text text-anchor="middle" x="759.92" y="-655.3" font-family="Times,serif" font-size="14.00">Combination</text>
</g>
<!-- n4_port_1 -->
<g id="node28" class="node">
<title>n4_port_1</title>
<polygon fill="white" stroke="black" points="724.25,-494.67 759.92,-471.57 795.59,-494.67 795.56,-532.04 724.28,-532.04 724.25,-494.67"/>
<text text-anchor="middle" x="759.92" y="-508.8" font-family="Times,serif" font-size="14.00">vec</text>
<text text-anchor="middle" x="759.92" y="-493.8" font-family="Times,serif" font-size="14.00">list</text>
</g>
<!-- n4_port_1&#45;&gt;n0_place_2 -->
<g id="edge8" class="edge">
<title>n4_port_1&#45;&gt;n0_place_2</title>
<path fill="none" stroke="black" d="M796.24,-506.62C821.67,-509.23 857.02,-512.87 888.83,-516.14"/>
<path fill="none" stroke="transparent" d="M796.04,-508.61C821.47,-511.22 856.81,-514.86 888.63,-518.13"/>
<path fill="none" stroke="black" d="M795.83,-510.6C821.26,-513.21 856.61,-516.85 888.42,-520.12"/>
<polygon fill="black" stroke="black" points="888.51,-521.63 898.81,-519.17 889.22,-514.67 888.51,-521.63"/>
</g>
<!-- n4_modcall -->
<g id="node29" class="node">
<title>n4_modcall</title>
<polygon fill="white" stroke="black" points="860.92,-454 658.92,-454 658.92,-418 860.92,-418 860.92,-454"/>
<text text-anchor="middle" x="759.92" y="-432.3" font-family="Times,serif" font-size="14.00">combination_vec.partition</text>
</g>
<!-- n5_condition -->
<g id="node30" class="node">
<title>n5_condition</title>
<polygon fill="white" stroke="black" points="342.21,-683 342.21,-719 421.21,-719 421.21,-683 342.21,-683"/>
<text text-anchor="middle" x="381.71" y="-697.3" font-family="Times,serif" font-size="14.00">partition</text>
</g>
<!-- n5_port_2 -->
<g id="node33" class="node">
<title>n5_port_2</title>
<polygon fill="white" stroke="black" points="347.54,-452.67 381.71,-429.57 415.89,-452.67 415.85,-490.04 347.57,-490.04 347.54,-452.67"/>
<text text-anchor="middle" x="381.71" y="-466.8" font-family="Times,serif" font-size="14.00">v</text>
<text text-anchor="middle" x="381.71" y="-451.8" font-family="Times,serif" font-size="14.00">list</text>
</g>
<!-- n5_port_2&#45;&gt;n0_place_4 -->
<g id="edge10" class="edge">
<title>n5_port_2&#45;&gt;n0_place_4</title>
<path fill="none" stroke="black" d="M416.44,-468.85C439.87,-474.35 471.96,-481.88 500.07,-488.47"/>
<path fill="none" stroke="transparent" d="M415.98,-470.8C439.42,-476.3 471.5,-483.82 499.61,-490.41"/>
<path fill="none" stroke="black" d="M415.52,-472.75C438.96,-478.24 471.05,-485.77 499.16,-492.36"/>
<polygon fill="black" stroke="black" points="498.84,-493.83 509.37,-492.7 500.43,-487.01 498.84,-493.83"/>
</g>
<!-- n5_modcall -->
<g id="node34" class="node">
<title>n5_modcall</title>
<polygon fill="white" stroke="black" points="466.71,-412 296.71,-412 296.71,-376 466.71,-376 466.71,-412"/>
<text text-anchor="middle" x="381.71" y="-390.3" font-family="Times,serif" font-size="14.00">sum_degree.sum_deg</text>
</g>
</g>
</svg>
