<?xml version="1.0" encoding="UTF-8" standalone="no"?>
<!DOCTYPE svg PUBLIC "-//W3C//DTD SVG 1.1//EN"
 "http://www.w3.org/Graphics/SVG/1.1/DTD/svg11.dtd">
<!-- Generated by graphviz version 2.43.0 (0)
 -->
<!-- Title: feynman_deg Pages: 1 -->
<svg width="1780pt" height="1002pt"
 viewBox="0.00 0.00 1779.68 1002.00" xmlns="http://www.w3.org/2000/svg" xmlns:xlink="http://www.w3.org/1999/xlink">
<g id="graph0" class="graph" transform="scale(1 1) rotate(0) translate(4 998)">
<title>feynman_deg</title>
<polygon fill="white" stroke="transparent" points="-4,4 -4,-998 1775.68,-998 1775.68,4 -4,4"/>
<g id="clust1" class="cluster">
<title>cluster_0</title>
<polygon fill="dimgray" stroke="black" points="8,-8 8,-986 1763.68,-986 1763.68,-8 8,-8"/>
</g>
<g id="clust2" class="cluster">
<title>cluster_net_0</title>
<polygon fill="white" stroke="black" points="159.37,-90 159.37,-904 1755.68,-904 1755.68,-90 159.37,-90"/>
</g>
<g id="clust3" class="cluster">
<title>cluster_1</title>
<polygon fill="white" stroke="black" points="1477.51,-98 1477.51,-316 1598.51,-316 1598.51,-98 1477.51,-98"/>
</g>
<g id="clust4" class="cluster">
<title>cluster_2</title>
<polygon fill="white" stroke="black" points="1452.51,-324 1452.51,-896 1623.51,-896 1623.51,-324 1452.51,-324"/>
</g>
<g id="clust5" class="cluster">
<title>cluster_3</title>
<polygon fill="yellow" stroke="black" points="1063.51,-536 1063.51,-896 1342.51,-896 1342.51,-536 1063.51,-536"/>
</g>
<g id="clust6" class="cluster">
<title>cluster_4</title>
<polygon fill="yellow" stroke="black" points="650.92,-430 650.92,-790 868.92,-790 868.92,-430 650.92,-430"/>
</g>
<g id="clust7" class="cluster">
<title>cluster_5</title>
<polygon fill="yellow" stroke="black" points="288.71,-536 288.71,-896 474.71,-896 474.71,-536 288.71,-536"/>
</g>
<!-- n0_condition -->
<g id="node1" class="node">
<title>n0_condition</title>
<polygon fill="white" stroke="black" points="18.19,-896 18.19,-932 129.19,-932 129.19,-896 18.19,-896"/>
<text text-anchor="middle" x="73.69" y="-910.3" font-family="Times,serif" font-size="14.00">feynman_deg</text>
</g>
<!-- n0_port_0 -->
<g id="node2" class="node">
<title>n0_port_0</title>
<polygon fill="white" stroke="black" points="131.56,-809.33 73.69,-832.43 15.81,-809.33 15.87,-771.96 131.5,-771.96 131.56,-809.33"/>
<text text-anchor="middle" x="73.69" y="-802.8" font-family="Times,serif" font-size="14.00">degree</text>
<text text-anchor="middle" x="73.69" y="-787.8" font-family="Times,serif" font-size="14.00">int</text>
</g>
<!-- n0_place_0 -->
<g id="node6" class="node">
<title>n0_place_0</title>
<ellipse fill="white" stroke="black" cx="214.04" cy="-799" rx="46.84" ry="26.74"/>
<text text-anchor="middle" x="214.04" y="-802.8" font-family="Times,serif" font-size="14.00">degree</text>
<text text-anchor="middle" x="214.04" y="-787.8" font-family="Times,serif" font-size="14.00">int</text>
</g>
<!-- n0_port_0&#45;&gt;n0_place_0 -->
<g id="edge15" class="edge">
<title>n0_port_0&#45;&gt;n0_place_0</title>
<path fill="none" stroke="black" stroke-dasharray="1,5" d="M131.76,-799C143.52,-799 155.76,-799 167.07,-799"/>
</g>
<!-- n0_port_1 -->
<g id="node3" class="node">
<title>n0_port_1</title>
<polygon fill="white" stroke="black" points="105.12,-725.33 73.69,-748.43 42.26,-725.33 42.29,-687.96 105.09,-687.96 105.12,-725.33"/>
<text text-anchor="middle" x="73.69" y="-718.8" font-family="Times,serif" font-size="14.00">N</text>
<text text-anchor="middle" x="73.69" y="-703.8" font-family="Times,serif" font-size="14.00">int</text>
</g>
<!-- n0_place_1 -->
<g id="node7" class="node">
<title>n0_place_1</title>
<ellipse fill="white" stroke="black" cx="214.04" cy="-715" rx="27" ry="26.74"/>
<text text-anchor="middle" x="214.04" y="-718.8" font-family="Times,serif" font-size="14.00">N</text>
<text text-anchor="middle" x="214.04" y="-703.8" font-family="Times,serif" font-size="14.00">int</text>
</g>
<!-- n0_port_1&#45;&gt;n0_place_1 -->
<g id="edge16" class="edge">
<title>n0_port_1&#45;&gt;n0_place_1</title>
<path fill="none" stroke="black" stroke-dasharray="1,5" d="M105.39,-715C129.75,-715 163.45,-715 186.62,-715"/>
</g>
<!-- n0_port_2 -->
<g id="node4" class="node">
<title>n0_port_2</title>
<polygon fill="white" stroke="black" points="811.55,-955.33 759.92,-978.43 708.28,-955.33 708.33,-917.96 811.51,-917.96 811.55,-955.33"/>
<text text-anchor="middle" x="759.92" y="-948.8" font-family="Times,serif" font-size="14.00">graph</text>
<text text-anchor="middle" x="759.92" y="-933.8" font-family="Times,serif" font-size="14.00">string</text>
</g>
<!-- n0_place_6 -->
<g id="node12" class="node">
<title>n0_place_6</title>
<ellipse fill="white" stroke="black" cx="966.21" cy="-834" rx="41.94" ry="26.74"/>
<text text-anchor="middle" x="966.21" y="-837.8" font-family="Times,serif" font-size="14.00">graph</text>
<text text-anchor="middle" x="966.21" y="-822.8" font-family="Times,serif" font-size="14.00">string</text>
</g>
<!-- n0_port_2&#45;&gt;n0_place_6 -->
<g id="edge17" class="edge">
<title>n0_port_2&#45;&gt;n0_place_6</title>
<path fill="none" stroke="black" stroke-dasharray="1,5" d="M810.9,-917.85C849.29,-896.99 901.12,-868.83 933.86,-851.04"/>
</g>
<!-- n0_port_3 -->
<g id="node5" class="node">
<title>n0_port_3</title>
<polygon fill="white" stroke="black" points="1478.64,-38.67 1538.01,-15.57 1597.38,-38.67 1597.32,-76.04 1478.7,-76.04 1478.64,-38.67"/>
<text text-anchor="middle" x="1538.01" y="-52.8" font-family="Times,serif" font-size="14.00">fey_out</text>
<text text-anchor="middle" x="1538.01" y="-37.8" font-family="Times,serif" font-size="14.00">int</text>
</g>
<!-- n0_place_3 -->
<g id="node9" class="node">
<title>n0_place_3</title>
<ellipse fill="white" stroke="black" cx="1699.59" cy="-281" rx="48.17" ry="26.74"/>
<text text-anchor="middle" x="1699.59" y="-284.8" font-family="Times,serif" font-size="14.00">fey_out</text>
<text text-anchor="middle" x="1699.59" y="-269.8" font-family="Times,serif" font-size="14.00">int</text>
</g>
<!-- n0_port_3&#45;&gt;n0_place_3 -->
<g id="edge18" class="edge">
<title>n0_port_3&#45;&gt;n0_place_3</title>
<path fill="none" stroke="black" stroke-dasharray="1,5" d="M1597.45,-73.08C1607.02,-78.89 1616.18,-85.84 1623.51,-94 1665.7,-140.99 1685.72,-214.68 1693.86,-254.06"/>
</g>
<!-- n5_port_0 -->
<g id="node35" class="node">
<title>n5_port_0</title>
<polygon fill="white" stroke="black" points="413.14,-809.33 381.71,-832.43 350.28,-809.33 350.31,-771.96 413.11,-771.96 413.14,-809.33"/>
<text text-anchor="middle" x="381.71" y="-802.8" font-family="Times,serif" font-size="14.00">d</text>
<text text-anchor="middle" x="381.71" y="-787.8" font-family="Times,serif" font-size="14.00">int</text>
</g>
<!-- n0_place_0&#45;&gt;n5_port_0 -->
<g id="edge13" class="edge">
<title>n0_place_0&#45;&gt;n5_port_0</title>
<path fill="none" stroke="black" d="M260.75,-799C285.53,-799 315.9,-799 339.88,-799"/>
<polygon fill="black" stroke="black" points="340.06,-802.5 350.06,-799 340.06,-795.5 340.06,-802.5"/>
</g>
<!-- n5_port_1 -->
<g id="node36" class="node">
<title>n5_port_1</title>
<polygon fill="white" stroke="black" points="413.14,-725.33 381.71,-748.43 350.28,-725.33 350.31,-687.96 413.11,-687.96 413.14,-725.33"/>
<text text-anchor="middle" x="381.71" y="-718.8" font-family="Times,serif" font-size="14.00">n</text>
<text text-anchor="middle" x="381.71" y="-703.8" font-family="Times,serif" font-size="14.00">int</text>
</g>
<!-- n0_place_1&#45;&gt;n5_port_1 -->
<g id="edge14" class="edge">
<title>n0_place_1&#45;&gt;n5_port_1</title>
<path fill="none" stroke="black" d="M241.29,-715C267.85,-715 309.28,-715 340.08,-715"/>
<polygon fill="black" stroke="black" points="340.08,-718.5 350.08,-715 340.08,-711.5 340.08,-718.5"/>
</g>
<!-- n0_place_2 -->
<g id="node8" class="node">
<title>n0_place_2</title>
<ellipse fill="white" stroke="black" cx="966.21" cy="-662" rx="69.09" ry="26.74"/>
<text text-anchor="middle" x="966.21" y="-665.8" font-family="Times,serif" font-size="14.00">branchtype</text>
<text text-anchor="middle" x="966.21" y="-650.8" font-family="Times,serif" font-size="14.00">list</text>
</g>
<!-- n3_port_0 -->
<g id="node25" class="node">
<title>n3_port_0</title>
<polygon fill="white" stroke="black" points="1237.19,-725.33 1203.01,-748.43 1168.84,-725.33 1168.87,-687.96 1237.15,-687.96 1237.19,-725.33"/>
<text text-anchor="middle" x="1203.01" y="-718.8" font-family="Times,serif" font-size="14.00">a</text>
<text text-anchor="middle" x="1203.01" y="-703.8" font-family="Times,serif" font-size="14.00">list</text>
</g>
<!-- n0_place_2&#45;&gt;n3_port_0 -->
<g id="edge7" class="edge">
<title>n0_place_2&#45;&gt;n3_port_0</title>
<path fill="none" stroke="black" d="M1026.46,-675.37C1067.69,-684.68 1121.72,-696.88 1158.89,-705.27"/>
<polygon fill="black" stroke="black" points="1158.37,-708.74 1168.9,-707.53 1159.92,-701.91 1158.37,-708.74"/>
</g>
<!-- n0_place_4 -->
<g id="node10" class="node">
<title>n0_place_4</title>
<ellipse fill="white" stroke="black" cx="562.81" cy="-662" rx="60.21" ry="26.74"/>
<text text-anchor="middle" x="562.81" y="-665.8" font-family="Times,serif" font-size="14.00">d_vectors</text>
<text text-anchor="middle" x="562.81" y="-650.8" font-family="Times,serif" font-size="14.00">list</text>
</g>
<!-- n4_port_0 -->
<g id="node30" class="node">
<title>n4_port_0</title>
<polygon fill="white" stroke="black" points="794.09,-703.33 759.92,-726.43 725.74,-703.33 725.78,-665.96 794.06,-665.96 794.09,-703.33"/>
<text text-anchor="middle" x="759.92" y="-696.8" font-family="Times,serif" font-size="14.00">v</text>
<text text-anchor="middle" x="759.92" y="-681.8" font-family="Times,serif" font-size="14.00">list</text>
</g>
<!-- n0_place_4&#45;&gt;n4_port_0 -->
<g id="edge11" class="edge">
<title>n0_place_4&#45;&gt;n4_port_0</title>
<path fill="none" stroke="black" d="M619.72,-670.88C650.21,-675.73 687.38,-681.63 715.64,-686.12"/>
<polygon fill="black" stroke="black" points="715.19,-689.6 725.61,-687.71 716.29,-682.68 715.19,-689.6"/>
</g>
<!-- n0_place_5 -->
<g id="node11" class="node">
<title>n0_place_5</title>
<ellipse fill="white" stroke="black" cx="1397.51" cy="-542" rx="27" ry="26.74"/>
<text text-anchor="middle" x="1397.51" y="-545.8" font-family="Times,serif" font-size="14.00">n</text>
<text text-anchor="middle" x="1397.51" y="-530.8" font-family="Times,serif" font-size="14.00">int</text>
</g>
<!-- n1_port_0 -->
<g id="node15" class="node">
<title>n1_port_0</title>
<polygon fill="white" stroke="black" points="1569.44,-203.33 1538.01,-226.43 1506.58,-203.33 1506.61,-165.96 1569.41,-165.96 1569.44,-203.33"/>
<text text-anchor="middle" x="1538.01" y="-196.8" font-family="Times,serif" font-size="14.00">n</text>
<text text-anchor="middle" x="1538.01" y="-181.8" font-family="Times,serif" font-size="14.00">int</text>
</g>
<!-- n0_place_5&#45;&gt;n1_port_0 -->
<g id="edge1" class="edge">
<title>n0_place_5&#45;&gt;n1_port_0</title>
<path fill="none" stroke="black" d="M1400.2,-515.21C1404.85,-449.1 1419.69,-280.33 1452.51,-236 1463.3,-221.43 1480.45,-211.44 1496.48,-204.78"/>
<polygon fill="black" stroke="black" points="1498.16,-207.89 1506.26,-201.06 1495.67,-201.35 1498.16,-207.89"/>
</g>
<!-- n2_port_0 -->
<g id="node18" class="node">
<title>n2_port_0</title>
<polygon fill="white" stroke="black" points="1569.44,-699.33 1538.01,-722.43 1506.58,-699.33 1506.61,-661.96 1569.41,-661.96 1569.44,-699.33"/>
<text text-anchor="middle" x="1538.01" y="-692.8" font-family="Times,serif" font-size="14.00">n</text>
<text text-anchor="middle" x="1538.01" y="-677.8" font-family="Times,serif" font-size="14.00">int</text>
</g>
<!-- n0_place_5&#45;&gt;n2_port_0 -->
<g id="edge5" class="edge">
<title>n0_place_5&#45;&gt;n2_port_0</title>
<path fill="none" stroke="black" d="M1406.53,-567.72C1414.87,-590.9 1429.89,-624.69 1452.51,-647 1464.97,-659.29 1481.75,-668.64 1497.07,-675.36"/>
<polygon fill="black" stroke="black" points="1495.79,-678.61 1506.37,-679.2 1498.46,-672.15 1495.79,-678.61"/>
</g>
<!-- n3_port_1 -->
<g id="node26" class="node">
<title>n3_port_1</title>
<polygon fill="white" stroke="black" points="1254.65,-809.33 1203.01,-832.43 1151.38,-809.33 1151.42,-771.96 1254.6,-771.96 1254.65,-809.33"/>
<text text-anchor="middle" x="1203.01" y="-802.8" font-family="Times,serif" font-size="14.00">G</text>
<text text-anchor="middle" x="1203.01" y="-787.8" font-family="Times,serif" font-size="14.00">string</text>
</g>
<!-- n0_place_6&#45;&gt;n3_port_1 -->
<g id="edge8" class="edge">
<title>n0_place_6&#45;&gt;n3_port_1</title>
<path fill="none" stroke="black" d="M1007.04,-828.06C1043.87,-822.57 1099.12,-814.34 1141.41,-808.03"/>
<polygon fill="black" stroke="black" points="1141.94,-811.49 1151.32,-806.56 1140.91,-804.57 1141.94,-811.49"/>
</g>
<!-- n0_place_7 -->
<g id="node13" class="node">
<title>n0_place_7</title>
<ellipse fill="white" stroke="black" cx="1397.51" cy="-702" rx="27" ry="26.74"/>
<text text-anchor="middle" x="1397.51" y="-705.8" font-family="Times,serif" font-size="14.00">fey</text>
<text text-anchor="middle" x="1397.51" y="-690.8" font-family="Times,serif" font-size="14.00">int</text>
</g>
<!-- n2_port_2 -->
<g id="node19" class="node">
<title>n2_port_2</title>
<polygon fill="white" stroke="black" points="1603.62,-783.33 1538.01,-806.43 1472.41,-783.33 1472.47,-745.96 1603.56,-745.96 1603.62,-783.33"/>
<text text-anchor="middle" x="1538.01" y="-776.8" font-family="Times,serif" font-size="14.00">fey_sum</text>
<text text-anchor="middle" x="1538.01" y="-761.8" font-family="Times,serif" font-size="14.00">int</text>
</g>
<!-- n0_place_7&#45;&gt;n2_port_2 -->
<g id="edge4" class="edge">
<title>n0_place_7&#45;&gt;n2_port_2</title>
<path fill="none" stroke="black" d="M1421.55,-714.58C1431.1,-719.74 1442.3,-725.72 1452.51,-731 1459.01,-734.36 1465.82,-737.83 1472.63,-741.26"/>
<polygon fill="black" stroke="black" points="1471.38,-744.55 1481.89,-745.91 1474.52,-738.3 1471.38,-744.55"/>
</g>
<!-- n1_condition -->
<g id="node14" class="node">
<title>n1_condition</title>
<polygon fill="white" stroke="black" points="1485.51,-245 1485.51,-307 1590.51,-307 1590.51,-245 1485.51,-245"/>
<text text-anchor="middle" x="1538.01" y="-291.8" font-family="Times,serif" font-size="14.00">break</text>
<polyline fill="none" stroke="black" points="1485.51,-284 1590.51,-284 "/>
<text text-anchor="middle" x="1538.01" y="-268.8" font-family="Times,serif" font-size="14.00">(${n} &lt;= 0)</text>
</g>
<!-- n1_expression -->
<g id="node16" class="node">
<title>n1_expression</title>
<polygon fill="white" stroke="transparent" points="1565.01,-142 1511.01,-142 1511.01,-106 1565.01,-106 1565.01,-142"/>
</g>
<!-- n2_condition -->
<g id="node17" class="node">
<title>n2_condition</title>
<polygon fill="white" stroke="black" points="1491.51,-825 1491.51,-887 1584.51,-887 1584.51,-825 1491.51,-825"/>
<text text-anchor="middle" x="1538.01" y="-871.8" font-family="Times,serif" font-size="14.00">step</text>
<polyline fill="none" stroke="black" points="1491.51,-864 1584.51,-864 "/>
<text text-anchor="middle" x="1538.01" y="-848.8" font-family="Times,serif" font-size="14.00">(${n} &gt; 0)</text>
</g>
<!-- n2_port_1 -->
<g id="node20" class="node">
<title>n2_port_1</title>
<polygon fill="white" stroke="black" points="1506.58,-594.67 1538.01,-571.57 1569.44,-594.67 1569.41,-632.04 1506.61,-632.04 1506.58,-594.67"/>
<text text-anchor="middle" x="1538.01" y="-608.8" font-family="Times,serif" font-size="14.00">n</text>
<text text-anchor="middle" x="1538.01" y="-593.8" font-family="Times,serif" font-size="14.00">int</text>
</g>
<!-- n2_port_1&#45;&gt;n0_place_5 -->
<g id="edge3" class="edge">
<title>n2_port_1&#45;&gt;n0_place_5</title>
<path fill="none" stroke="black" d="M1509.23,-592.36C1486.85,-582.18 1455.31,-567.84 1431.62,-557.06"/>
<polygon fill="black" stroke="black" points="1432.87,-553.78 1422.32,-552.83 1429.97,-560.16 1432.87,-553.78"/>
</g>
<!-- n2_port_3 -->
<g id="node21" class="node">
<title>n2_port_3</title>
<polygon fill="white" stroke="black" points="1506.58,-510.67 1538.01,-487.57 1569.44,-510.67 1569.41,-548.04 1506.61,-548.04 1506.58,-510.67"/>
<text text-anchor="middle" x="1538.01" y="-524.8" font-family="Times,serif" font-size="14.00">i</text>
<text text-anchor="middle" x="1538.01" y="-509.8" font-family="Times,serif" font-size="14.00">int</text>
</g>
<!-- n2_port_4 -->
<g id="node22" class="node">
<title>n2_port_4</title>
<polygon fill="white" stroke="black" points="1472.41,-426.67 1538.01,-403.57 1603.62,-426.67 1603.56,-464.04 1472.47,-464.04 1472.41,-426.67"/>
<text text-anchor="middle" x="1538.01" y="-440.8" font-family="Times,serif" font-size="14.00">fey_sum</text>
<text text-anchor="middle" x="1538.01" y="-425.8" font-family="Times,serif" font-size="14.00">int</text>
</g>
<!-- n2_port_4&#45;&gt;n0_place_3 -->
<g id="edge2" class="edge">
<title>n2_port_4&#45;&gt;n0_place_3</title>
<path fill="none" stroke="black" d="M1584.72,-419.68C1598.14,-413.23 1612.23,-404.99 1623.51,-395 1648.52,-372.85 1668.76,-340.52 1681.89,-315.94"/>
<polygon fill="black" stroke="black" points="1685.07,-317.42 1686.57,-306.94 1678.86,-314.2 1685.07,-317.42"/>
</g>
<!-- n2_expression -->
<g id="node23" class="node">
<title>n2_expression</title>
<polygon fill="white" stroke="transparent" points="1615.51,-386 1460.51,-386 1460.51,-332 1615.51,-332 1615.51,-386"/>
<text text-anchor="middle" x="1538.01" y="-370.8" font-family="Times,serif" font-size="14.00">${n} := ${n} &#45; 1</text>
<text text-anchor="middle" x="1538.01" y="-339.8" font-family="Times,serif" font-size="14.00"> &#160;&#160;&#160;&#160;&#160;&#160;&#160;&#160;&#160;${i} := ${n}</text>
</g>
<!-- n3_condition -->
<g id="node24" class="node">
<title>n3_condition</title>
<polygon fill="white" stroke="black" points="1136.01,-851 1136.01,-887 1270.01,-887 1270.01,-851 1136.01,-851"/>
<text text-anchor="middle" x="1203.01" y="-865.3" font-family="Times,serif" font-size="14.00">feynman_degree</text>
</g>
<!-- n3_port_2 -->
<g id="node27" class="node">
<title>n3_port_2</title>
<polygon fill="white" stroke="black" points="1150.63,-620.67 1203.01,-597.57 1255.4,-620.67 1255.35,-658.04 1150.68,-658.04 1150.63,-620.67"/>
<text text-anchor="middle" x="1203.01" y="-634.8" font-family="Times,serif" font-size="14.00">myfey</text>
<text text-anchor="middle" x="1203.01" y="-619.8" font-family="Times,serif" font-size="14.00">int</text>
</g>
<!-- n3_port_2&#45;&gt;n0_place_7 -->
<g id="edge6" class="edge">
<title>n3_port_2&#45;&gt;n0_place_7</title>
<path fill="none" stroke="black" d="M1255.51,-643.99C1281.96,-651.32 1314.43,-661.34 1342.51,-673 1349.97,-676.1 1357.76,-679.91 1365.02,-683.74"/>
<polygon fill="black" stroke="black" points="1363.42,-686.85 1373.88,-688.55 1366.76,-680.7 1363.42,-686.85"/>
</g>
<!-- n3_modcall -->
<g id="node28" class="node">
<title>n3_modcall</title>
<polygon fill="white" stroke="black" points="1334.51,-580 1071.51,-580 1071.51,-544 1334.51,-544 1334.51,-580"/>
<text text-anchor="middle" x="1203.01" y="-558.3" font-family="Times,serif" font-size="14.00">feynman.feynman_integral_degree</text>
</g>
<!-- n4_condition -->
<g id="node29" class="node">
<title>n4_condition</title>
<polygon fill="white" stroke="black" points="706.42,-745 706.42,-781 813.42,-781 813.42,-745 706.42,-745"/>
<text text-anchor="middle" x="759.92" y="-759.3" font-family="Times,serif" font-size="14.00">Combination</text>
</g>
<!-- n4_port_1 -->
<g id="node31" class="node">
<title>n4_port_1</title>
<polygon fill="white" stroke="black" points="724.25,-598.67 759.92,-575.57 795.59,-598.67 795.56,-636.04 724.28,-636.04 724.25,-598.67"/>
<text text-anchor="middle" x="759.92" y="-612.8" font-family="Times,serif" font-size="14.00">vec</text>
<text text-anchor="middle" x="759.92" y="-597.8" font-family="Times,serif" font-size="14.00">list</text>
</g>
<!-- n4_port_1&#45;&gt;n0_place_2 -->
<g id="edge10" class="edge">
<title>n4_port_1&#45;&gt;n0_place_2</title>
<path fill="none" stroke="black" d="M796.08,-616.05C824.05,-623.31 864.25,-633.74 898.5,-642.63"/>
<path fill="none" stroke="transparent" d="M795.57,-617.99C823.55,-625.25 863.75,-635.68 898,-644.56"/>
<path fill="none" stroke="black" d="M795.07,-619.93C823.05,-627.18 863.25,-637.61 897.49,-646.5"/>
<polygon fill="black" stroke="black" points="897.39,-648.02 907.95,-647.14 899.15,-641.24 897.39,-648.02"/>
</g>
<!-- n4_port_2 -->
<g id="node32" class="node">
<title>n4_port_2</title>
<polygon fill="white" stroke="black" points="728.49,-514.67 759.92,-491.57 791.35,-514.67 791.32,-552.04 728.52,-552.04 728.49,-514.67"/>
<text text-anchor="middle" x="759.92" y="-528.8" font-family="Times,serif" font-size="14.00">nb</text>
<text text-anchor="middle" x="759.92" y="-513.8" font-family="Times,serif" font-size="14.00">int</text>
</g>
<!-- n4_port_2&#45;&gt;n0_place_5 -->
<g id="edge9" class="edge">
<title>n4_port_2&#45;&gt;n0_place_5</title>
<path fill="none" stroke="black" d="M791.6,-523.53C878.35,-519.77 1132.72,-511.46 1342.51,-532 1348.53,-532.59 1354.88,-533.5 1361.03,-534.54"/>
<polygon fill="black" stroke="black" points="1360.63,-538.02 1371.09,-536.37 1361.88,-531.13 1360.63,-538.02"/>
</g>
<!-- n4_modcall -->
<g id="node33" class="node">
<title>n4_modcall</title>
<polygon fill="white" stroke="black" points="860.92,-474 658.92,-474 658.92,-438 860.92,-438 860.92,-474"/>
<text text-anchor="middle" x="759.92" y="-452.3" font-family="Times,serif" font-size="14.00">combination_vec.partition</text>
</g>
<!-- n5_condition -->
<g id="node34" class="node">
<title>n5_condition</title>
<polygon fill="white" stroke="black" points="342.21,-851 342.21,-887 421.21,-887 421.21,-851 342.21,-851"/>
<text text-anchor="middle" x="381.71" y="-865.3" font-family="Times,serif" font-size="14.00">partition</text>
</g>
<!-- n5_port_2 -->
<g id="node37" class="node">
<title>n5_port_2</title>
<polygon fill="white" stroke="black" points="347.54,-620.67 381.71,-597.57 415.89,-620.67 415.85,-658.04 347.57,-658.04 347.54,-620.67"/>
<text text-anchor="middle" x="381.71" y="-634.8" font-family="Times,serif" font-size="14.00">v</text>
<text text-anchor="middle" x="381.71" y="-619.8" font-family="Times,serif" font-size="14.00">list</text>
</g>
<!-- n5_port_2&#45;&gt;n0_place_4 -->
<g id="edge12" class="edge">
<title>n5_port_2&#45;&gt;n0_place_4</title>
<path fill="none" stroke="black" d="M416.32,-634.79C438.93,-638.7 469.6,-644.01 496.98,-648.75"/>
<path fill="none" stroke="transparent" d="M415.98,-636.76C438.59,-640.67 469.26,-645.98 496.64,-650.72"/>
<path fill="none" stroke="black" d="M415.64,-638.73C438.25,-642.64 468.92,-647.95 496.3,-652.69"/>
<polygon fill="black" stroke="black" points="496.11,-654.18 506.56,-652.44 497.3,-647.28 496.11,-654.18"/>
</g>
<!-- n5_modcall -->
<g id="node38" class="node">
<title>n5_modcall</title>
<polygon fill="white" stroke="black" points="466.71,-580 296.71,-580 296.71,-544 466.71,-544 466.71,-580"/>
<text text-anchor="middle" x="381.71" y="-558.3" font-family="Times,serif" font-size="14.00">sum_degree.sum_deg</text>
</g>
</g>
</svg>
