<?xml version="1.0" encoding="UTF-8" standalone="no"?>
<!DOCTYPE svg PUBLIC "-//W3C//DTD SVG 1.1//EN"
 "http://www.w3.org/Graphics/SVG/1.1/DTD/svg11.dtd">
<!-- Generated by graphviz version 2.43.0 (0)
 -->
<!-- Title: feynman_deg Pages: 1 -->
<svg width="1677pt" height="1856pt"
 viewBox="0.00 0.00 1676.74 1856.00" xmlns="http://www.w3.org/2000/svg" xmlns:xlink="http://www.w3.org/1999/xlink">
<g id="graph0" class="graph" transform="scale(1 1) rotate(0) translate(4 1852)">
<title>feynman_deg</title>
<polygon fill="white" stroke="transparent" points="-4,4 -4,-1852 1672.74,-1852 1672.74,4 -4,4"/>
<g id="clust1" class="cluster">
<title>cluster_0</title>
<polygon fill="dimgray" stroke="black" points="8,-8 8,-1840 1660.74,-1840 1660.74,-8 8,-8"/>
</g>
<g id="clust2" class="cluster">
<title>cluster_net_0</title>
<polygon fill="white" stroke="black" points="159.37,-116 159.37,-1758 1652.74,-1758 1652.74,-116 159.37,-116"/>
</g>
<g id="clust3" class="cluster">
<title>cluster_1</title>
<polygon fill="yellow" stroke="black" points="738.17,-124 738.17,-820 958.7,-820 958.7,-124 738.17,-124"/>
</g>
<g id="clust4" class="cluster">
<title>cluster_2</title>
<polygon fill="yellow" stroke="black" points="1112.28,-1193 1112.28,-1553 1451.28,-1553 1451.28,-1193 1112.28,-1193"/>
</g>
<g id="clust5" class="cluster">
<title>cluster_3</title>
<polygon fill="yellow" stroke="black" points="741.94,-828 741.94,-1382 954.94,-1382 954.94,-828 741.94,-828"/>
</g>
<g id="clust6" class="cluster">
<title>cluster_4</title>
<polygon fill="yellow" stroke="black" points="749.44,-1390 749.44,-1750 947.44,-1750 947.44,-1390 749.44,-1390"/>
</g>
<g id="clust7" class="cluster">
<title>cluster_5</title>
<polygon fill="yellow" stroke="black" points="288.71,-1390 288.71,-1750 516.71,-1750 516.71,-1390 288.71,-1390"/>
</g>
<!-- n0_condition -->
<g id="node1" class="node">
<title>n0_condition</title>
<polygon fill="white" stroke="black" points="18.19,-1750 18.19,-1786 129.19,-1786 129.19,-1750 18.19,-1750"/>
<text text-anchor="middle" x="73.69" y="-1764.3" font-family="Times,serif" font-size="14.00">feynman_deg</text>
</g>
<!-- n0_port_0 -->
<g id="node2" class="node">
<title>n0_port_0</title>
<polygon fill="white" stroke="black" points="131.56,-1663.33 73.69,-1686.43 15.81,-1663.33 15.87,-1625.96 131.5,-1625.96 131.56,-1663.33"/>
<text text-anchor="middle" x="73.69" y="-1656.8" font-family="Times,serif" font-size="14.00">degree</text>
<text text-anchor="middle" x="73.69" y="-1641.8" font-family="Times,serif" font-size="14.00">int</text>
</g>
<!-- n0_place_0 -->
<g id="node7" class="node">
<title>n0_place_0</title>
<ellipse fill="white" stroke="black" cx="214.04" cy="-1653" rx="46.84" ry="26.74"/>
<text text-anchor="middle" x="214.04" y="-1656.8" font-family="Times,serif" font-size="14.00">degree</text>
<text text-anchor="middle" x="214.04" y="-1641.8" font-family="Times,serif" font-size="14.00">int</text>
</g>
<!-- n0_port_0&#45;&gt;n0_place_0 -->
<g id="edge22" class="edge">
<title>n0_port_0&#45;&gt;n0_place_0</title>
<path fill="none" stroke="black" stroke-dasharray="1,5" d="M131.76,-1653C143.52,-1653 155.76,-1653 167.07,-1653"/>
</g>
<!-- n0_port_1 -->
<g id="node3" class="node">
<title>n0_port_1</title>
<polygon fill="white" stroke="black" points="105.12,-1579.33 73.69,-1602.43 42.26,-1579.33 42.29,-1541.96 105.09,-1541.96 105.12,-1579.33"/>
<text text-anchor="middle" x="73.69" y="-1572.8" font-family="Times,serif" font-size="14.00">N</text>
<text text-anchor="middle" x="73.69" y="-1557.8" font-family="Times,serif" font-size="14.00">int</text>
</g>
<!-- n0_place_1 -->
<g id="node8" class="node">
<title>n0_place_1</title>
<ellipse fill="white" stroke="black" cx="214.04" cy="-1569" rx="27" ry="26.74"/>
<text text-anchor="middle" x="214.04" y="-1572.8" font-family="Times,serif" font-size="14.00">N</text>
<text text-anchor="middle" x="214.04" y="-1557.8" font-family="Times,serif" font-size="14.00">int</text>
</g>
<!-- n0_port_1&#45;&gt;n0_place_1 -->
<g id="edge23" class="edge">
<title>n0_port_1&#45;&gt;n0_place_1</title>
<path fill="none" stroke="black" stroke-dasharray="1,5" d="M105.39,-1569C129.75,-1569 163.45,-1569 186.62,-1569"/>
</g>
<!-- n0_port_2 -->
<g id="node4" class="node">
<title>n0_port_2</title>
<polygon fill="white" stroke="black" points="434.14,-1809.33 402.71,-1832.43 371.28,-1809.33 371.31,-1771.96 434.11,-1771.96 434.14,-1809.33"/>
<text text-anchor="middle" x="402.71" y="-1802.8" font-family="Times,serif" font-size="14.00">m</text>
<text text-anchor="middle" x="402.71" y="-1787.8" font-family="Times,serif" font-size="14.00">int</text>
</g>
<!-- n0_place_3 -->
<g id="node10" class="node">
<title>n0_place_3</title>
<ellipse fill="white" stroke="black" cx="627.44" cy="-1259" rx="27" ry="26.74"/>
<text text-anchor="middle" x="627.44" y="-1262.8" font-family="Times,serif" font-size="14.00">m</text>
<text text-anchor="middle" x="627.44" y="-1247.8" font-family="Times,serif" font-size="14.00">int</text>
</g>
<!-- n0_port_2&#45;&gt;n0_place_3 -->
<g id="edge24" class="edge">
<title>n0_port_2&#45;&gt;n0_place_3</title>
<path fill="none" stroke="black" stroke-dasharray="1,5" d="M434.26,-1795.41C460.43,-1790.63 496.93,-1779.54 516.71,-1754 547.02,-1714.86 534.49,-1581.44 544.71,-1533 564.39,-1439.74 600.52,-1332.25 617.36,-1284.33"/>
</g>
<!-- n0_port_3 -->
<g id="node5" class="node">
<title>n0_port_3</title>
<polygon fill="white" stroke="black" points="900.07,-1809.33 848.44,-1832.43 796.8,-1809.33 796.85,-1771.96 900.02,-1771.96 900.07,-1809.33"/>
<text text-anchor="middle" x="848.44" y="-1802.8" font-family="Times,serif" font-size="14.00">graph</text>
<text text-anchor="middle" x="848.44" y="-1787.8" font-family="Times,serif" font-size="14.00">list</text>
</g>
<!-- n0_place_8 -->
<g id="node15" class="node">
<title>n0_place_8</title>
<ellipse fill="white" stroke="black" cx="1035.49" cy="-1589" rx="41.94" ry="26.74"/>
<text text-anchor="middle" x="1035.49" y="-1592.8" font-family="Times,serif" font-size="14.00">graph</text>
<text text-anchor="middle" x="1035.49" y="-1577.8" font-family="Times,serif" font-size="14.00">list</text>
</g>
<!-- n0_port_3&#45;&gt;n0_place_8 -->
<g id="edge25" class="edge">
<title>n0_port_3&#45;&gt;n0_place_8</title>
<path fill="none" stroke="black" stroke-dasharray="1,5" d="M900.19,-1786.85C920.37,-1779.95 942.57,-1769.49 958.7,-1754 998.82,-1715.45 1019.64,-1651.63 1028.71,-1615.7"/>
</g>
<!-- n0_port_4 -->
<g id="node6" class="node">
<title>n0_port_4</title>
<polygon fill="white" stroke="black" points="300.69,-47.74 402.71,-15.85 504.73,-47.74 504.64,-99.33 300.78,-99.33 300.69,-47.74"/>
<text text-anchor="middle" x="402.71" y="-73.3" font-family="Times,serif" font-size="14.00">sum</text>
<text text-anchor="middle" x="402.71" y="-58.3" font-family="Times,serif" font-size="14.00">unsigned long</text>
<text text-anchor="middle" x="402.71" y="-43.3" font-family="Times,serif" font-size="14.00">0UL</text>
</g>
<!-- n0_place_2 -->
<g id="node9" class="node">
<title>n0_place_2</title>
<ellipse fill="white" stroke="black" cx="627.44" cy="-387" rx="82.96" ry="37.45"/>
<text text-anchor="middle" x="627.44" y="-398.3" font-family="Times,serif" font-size="14.00">sum</text>
<text text-anchor="middle" x="627.44" y="-383.3" font-family="Times,serif" font-size="14.00">unsigned long</text>
<text text-anchor="middle" x="627.44" y="-368.3" font-family="Times,serif" font-size="14.00">0UL</text>
</g>
<!-- n0_port_4&#45;&gt;n0_place_2 -->
<g id="edge26" class="edge">
<title>n0_port_4&#45;&gt;n0_place_2</title>
<path fill="none" stroke="black" stroke-dasharray="1,5" d="M422.21,-99.47C447.04,-148.19 493.92,-234.98 544.71,-302 558.31,-319.95 575.31,-338.17 590.28,-353.11"/>
</g>
<!-- n5_port_0 -->
<g id="node45" class="node">
<title>n5_port_0</title>
<polygon fill="white" stroke="black" points="434.14,-1663.33 402.71,-1686.43 371.28,-1663.33 371.31,-1625.96 434.11,-1625.96 434.14,-1663.33"/>
<text text-anchor="middle" x="402.71" y="-1656.8" font-family="Times,serif" font-size="14.00">d</text>
<text text-anchor="middle" x="402.71" y="-1641.8" font-family="Times,serif" font-size="14.00">int</text>
</g>
<!-- n0_place_0&#45;&gt;n5_port_0 -->
<g id="edge20" class="edge">
<title>n0_place_0&#45;&gt;n5_port_0</title>
<path fill="none" stroke="black" d="M261.18,-1653C291.76,-1653 331.51,-1653 360.93,-1653"/>
<polygon fill="black" stroke="black" points="361.26,-1656.5 371.26,-1653 361.26,-1649.5 361.26,-1656.5"/>
</g>
<!-- n5_port_1 -->
<g id="node46" class="node">
<title>n5_port_1</title>
<polygon fill="white" stroke="black" points="434.14,-1579.33 402.71,-1602.43 371.28,-1579.33 371.31,-1541.96 434.11,-1541.96 434.14,-1579.33"/>
<text text-anchor="middle" x="402.71" y="-1572.8" font-family="Times,serif" font-size="14.00">n</text>
<text text-anchor="middle" x="402.71" y="-1557.8" font-family="Times,serif" font-size="14.00">int</text>
</g>
<!-- n0_place_1&#45;&gt;n5_port_1 -->
<g id="edge21" class="edge">
<title>n0_place_1&#45;&gt;n5_port_1</title>
<path fill="none" stroke="black" d="M241.39,-1569C272.49,-1569 324.56,-1569 360.89,-1569"/>
<polygon fill="black" stroke="black" points="361.16,-1572.5 371.16,-1569 361.16,-1565.5 361.16,-1572.5"/>
</g>
<!-- n1_port_2 -->
<g id="node20" class="node">
<title>n1_port_2</title>
<polygon fill="white" stroke="black" points="950.46,-397.33 848.44,-420.43 746.41,-397.33 746.51,-359.96 950.36,-359.96 950.46,-397.33"/>
<text text-anchor="middle" x="848.44" y="-390.8" font-family="Times,serif" font-size="14.00">sum</text>
<text text-anchor="middle" x="848.44" y="-375.8" font-family="Times,serif" font-size="14.00">unsigned long</text>
</g>
<!-- n0_place_2&#45;&gt;n1_port_2 -->
<g id="edge5" class="edge">
<title>n0_place_2&#45;&gt;n1_port_2</title>
<path fill="none" stroke="black" d="M710.3,-387C718.77,-387 727.47,-387 736.2,-387"/>
<polygon fill="black" stroke="black" points="736.43,-390.5 746.43,-387 736.43,-383.5 736.43,-390.5"/>
</g>
<!-- n1_port_6 -->
<g id="node22" class="node">
<title>n1_port_6</title>
<polygon fill="white" stroke="black" points="879.87,-649.33 848.44,-672.43 817,-649.33 817.03,-611.96 879.84,-611.96 879.87,-649.33"/>
<text text-anchor="middle" x="848.44" y="-642.8" font-family="Times,serif" font-size="14.00">m</text>
<text text-anchor="middle" x="848.44" y="-627.8" font-family="Times,serif" font-size="14.00">int</text>
</g>
<!-- n0_place_3&#45;&gt;n1_port_6 -->
<g id="edge7" class="edge">
<title>n0_place_3&#45;&gt;n1_port_6</title>
<path fill="none" stroke="black" stroke-dasharray="5,2" d="M634.53,-1232.62C648.89,-1169.85 685.54,-1006.55 710.17,-869 717.62,-827.42 711.75,-713.95 738.17,-681 754.84,-660.21 783.09,-649.7 806.69,-644.39"/>
<polygon fill="black" stroke="black" points="807.69,-647.76 816.81,-642.36 806.32,-640.9 807.69,-647.76"/>
</g>
<!-- n3_port_0 -->
<g id="node33" class="node">
<title>n3_port_0</title>
<polygon fill="white" stroke="black" points="879.87,-1269.33 848.44,-1292.43 817,-1269.33 817.03,-1231.96 879.84,-1231.96 879.87,-1269.33"/>
<text text-anchor="middle" x="848.44" y="-1262.8" font-family="Times,serif" font-size="14.00">m</text>
<text text-anchor="middle" x="848.44" y="-1247.8" font-family="Times,serif" font-size="14.00">int</text>
</g>
<!-- n0_place_3&#45;&gt;n3_port_0 -->
<g id="edge15" class="edge">
<title>n0_place_3&#45;&gt;n3_port_0</title>
<path fill="none" stroke="black" stroke-dasharray="5,2" d="M654.86,-1259C692.56,-1259 762.15,-1259 806.54,-1259"/>
<polygon fill="black" stroke="black" points="806.7,-1262.5 816.7,-1259 806.7,-1255.5 806.7,-1262.5"/>
</g>
<!-- n0_place_4 -->
<g id="node11" class="node">
<title>n0_place_4</title>
<ellipse fill="white" stroke="black" cx="627.44" cy="-1569" rx="65.11" ry="26.74"/>
<text text-anchor="middle" x="627.44" y="-1572.8" font-family="Times,serif" font-size="14.00">init_vector</text>
<text text-anchor="middle" x="627.44" y="-1557.8" font-family="Times,serif" font-size="14.00">list</text>
</g>
<!-- n4_port_0 -->
<g id="node40" class="node">
<title>n4_port_0</title>
<polygon fill="white" stroke="black" points="882.61,-1663.33 848.44,-1686.43 814.26,-1663.33 814.29,-1625.96 882.58,-1625.96 882.61,-1663.33"/>
<text text-anchor="middle" x="848.44" y="-1656.8" font-family="Times,serif" font-size="14.00">v</text>
<text text-anchor="middle" x="848.44" y="-1641.8" font-family="Times,serif" font-size="14.00">list</text>
</g>
<!-- n0_place_4&#45;&gt;n4_port_0 -->
<g id="edge18" class="edge">
<title>n0_place_4&#45;&gt;n4_port_0</title>
<path fill="none" stroke="black" d="M675.69,-1587.12C714.01,-1601.82 767.56,-1622.36 804.64,-1636.58"/>
<polygon fill="black" stroke="black" points="803.57,-1639.92 814.16,-1640.24 806.07,-1633.39 803.57,-1639.92"/>
</g>
<!-- n0_place_5 -->
<g id="node12" class="node">
<title>n0_place_5</title>
<ellipse fill="white" stroke="black" cx="1035.49" cy="-1372" rx="48.58" ry="26.74"/>
<text text-anchor="middle" x="1035.49" y="-1375.8" font-family="Times,serif" font-size="14.00">vectors</text>
<text text-anchor="middle" x="1035.49" y="-1360.8" font-family="Times,serif" font-size="14.00">list</text>
</g>
<!-- n2_port_0 -->
<g id="node28" class="node">
<title>n2_port_0</title>
<polygon fill="white" stroke="black" points="1346.63,-1382.33 1281.78,-1405.43 1216.92,-1382.33 1216.98,-1344.96 1346.57,-1344.96 1346.63,-1382.33"/>
<text text-anchor="middle" x="1281.78" y="-1375.8" font-family="Times,serif" font-size="14.00">branchs</text>
<text text-anchor="middle" x="1281.78" y="-1360.8" font-family="Times,serif" font-size="14.00">list</text>
</g>
<!-- n0_place_5&#45;&gt;n2_port_0 -->
<g id="edge9" class="edge">
<title>n0_place_5&#45;&gt;n2_port_0</title>
<path fill="none" stroke="black" d="M1084.46,-1372C1119.23,-1372 1166.9,-1372 1206.56,-1372"/>
<polygon fill="black" stroke="black" points="1206.72,-1375.5 1216.72,-1372 1206.72,-1368.5 1206.72,-1375.5"/>
</g>
<!-- n0_place_6 -->
<g id="node13" class="node">
<title>n0_place_6</title>
<ellipse fill="white" stroke="black" cx="627.44" cy="-256" rx="35.21" ry="37.45"/>
<text text-anchor="middle" x="627.44" y="-267.3" font-family="Times,serif" font-size="14.00">limit</text>
<text text-anchor="middle" x="627.44" y="-252.3" font-family="Times,serif" font-size="14.00">int</text>
<text text-anchor="middle" x="627.44" y="-237.3" font-family="Times,serif" font-size="14.00">0</text>
</g>
<!-- n1_port_4 -->
<g id="node21" class="node">
<title>n1_port_4</title>
<polygon fill="white" stroke="black" points="892.34,-313.33 848.44,-336.43 804.53,-313.33 804.57,-275.96 892.3,-275.96 892.34,-313.33"/>
<text text-anchor="middle" x="848.44" y="-306.8" font-family="Times,serif" font-size="14.00">limit</text>
<text text-anchor="middle" x="848.44" y="-291.8" font-family="Times,serif" font-size="14.00">int</text>
</g>
<!-- n0_place_6&#45;&gt;n1_port_4 -->
<g id="edge4" class="edge">
<title>n0_place_6&#45;&gt;n1_port_4</title>
<path fill="none" stroke="black" d="M662.18,-263.24C697.54,-270.83 753.57,-282.85 794.76,-291.69"/>
<polygon fill="black" stroke="black" points="794.11,-295.14 804.62,-293.81 795.58,-288.29 794.11,-295.14"/>
</g>
<!-- n0_place_7 -->
<g id="node14" class="node">
<title>n0_place_7</title>
<ellipse fill="white" stroke="black" cx="1035.49" cy="-1007" rx="37.45" ry="26.74"/>
<text text-anchor="middle" x="1035.49" y="-1010.8" font-family="Times,serif" font-size="14.00">state</text>
<text text-anchor="middle" x="1035.49" y="-995.8" font-family="Times,serif" font-size="14.00">list</text>
</g>
<!-- n3_port_1 -->
<g id="node34" class="node">
<title>n3_port_1</title>
<polygon fill="white" stroke="black" points="882.61,-1017.33 848.44,-1040.43 814.26,-1017.33 814.29,-979.96 882.58,-979.96 882.61,-1017.33"/>
<text text-anchor="middle" x="848.44" y="-1010.8" font-family="Times,serif" font-size="14.00">v</text>
<text text-anchor="middle" x="848.44" y="-995.8" font-family="Times,serif" font-size="14.00">list</text>
</g>
<!-- n0_place_7&#45;&gt;n3_port_1 -->
<g id="edge13" class="edge">
<title>n0_place_7&#45;&gt;n3_port_1</title>
<path fill="none" stroke="black" d="M997.74,-1007C967.69,-1007 925.12,-1007 893.29,-1007"/>
<polygon fill="black" stroke="black" points="892.95,-1003.5 882.95,-1007 892.95,-1010.5 892.95,-1003.5"/>
</g>
<!-- n2_port_1 -->
<g id="node29" class="node">
<title>n2_port_1</title>
<polygon fill="white" stroke="black" points="1315.95,-1466.33 1281.78,-1489.43 1247.6,-1466.33 1247.63,-1428.96 1315.92,-1428.96 1315.95,-1466.33"/>
<text text-anchor="middle" x="1281.78" y="-1459.8" font-family="Times,serif" font-size="14.00">G</text>
<text text-anchor="middle" x="1281.78" y="-1444.8" font-family="Times,serif" font-size="14.00">list</text>
</g>
<!-- n0_place_8&#45;&gt;n2_port_1 -->
<g id="edge10" class="edge">
<title>n0_place_8&#45;&gt;n2_port_1</title>
<path fill="none" stroke="black" stroke-dasharray="5,2" d="M1051.36,-1563.86C1064.76,-1543.39 1086.32,-1515.29 1112.28,-1499 1150.45,-1475.05 1201.39,-1464.41 1237.24,-1459.7"/>
<polygon fill="black" stroke="black" points="1237.88,-1463.15 1247.38,-1458.47 1237.04,-1456.2 1237.88,-1463.15"/>
</g>
<!-- n0_place_9 -->
<g id="node16" class="node">
<title>n0_place_9</title>
<ellipse fill="white" stroke="black" cx="1562.01" cy="-1026" rx="82.96" ry="26.74"/>
<text text-anchor="middle" x="1562.01" y="-1029.8" font-family="Times,serif" font-size="14.00">fey_out</text>
<text text-anchor="middle" x="1562.01" y="-1014.8" font-family="Times,serif" font-size="14.00">unsigned long</text>
</g>
<!-- n1_port_0 -->
<g id="node19" class="node">
<title>n1_port_0</title>
<polygon fill="white" stroke="black" points="950.46,-733.33 848.44,-756.43 746.41,-733.33 746.51,-695.96 950.36,-695.96 950.46,-733.33"/>
<text text-anchor="middle" x="848.44" y="-726.8" font-family="Times,serif" font-size="14.00">s</text>
<text text-anchor="middle" x="848.44" y="-711.8" font-family="Times,serif" font-size="14.00">unsigned long</text>
</g>
<!-- n0_place_9&#45;&gt;n1_port_0 -->
<g id="edge6" class="edge">
<title>n0_place_9&#45;&gt;n1_port_0</title>
<path fill="none" stroke="black" d="M1512.44,-1004.4C1410.36,-959.13 1165.85,-851.45 958.7,-766 944.09,-759.97 928.31,-753.65 913.41,-747.77"/>
<polygon fill="black" stroke="black" points="914.35,-744.38 903.76,-743.98 911.78,-750.9 914.35,-744.38"/>
</g>
<!-- n0_place_10 -->
<g id="node17" class="node">
<title>n0_place_10</title>
<ellipse fill="white" stroke="black" cx="627.44" cy="-823" rx="50.41" ry="37.45"/>
<text text-anchor="middle" x="627.44" y="-834.3" font-family="Times,serif" font-size="14.00">counter</text>
<text text-anchor="middle" x="627.44" y="-819.3" font-family="Times,serif" font-size="14.00">int</text>
<text text-anchor="middle" x="627.44" y="-804.3" font-family="Times,serif" font-size="14.00">3</text>
</g>
<!-- n3_port_4 -->
<g id="node35" class="node">
<title>n3_port_4</title>
<polygon fill="white" stroke="black" points="910.55,-1101.33 848.44,-1124.43 786.32,-1101.33 786.38,-1063.96 910.49,-1063.96 910.55,-1101.33"/>
<text text-anchor="middle" x="848.44" y="-1094.8" font-family="Times,serif" font-size="14.00">counter</text>
<text text-anchor="middle" x="848.44" y="-1079.8" font-family="Times,serif" font-size="14.00">int</text>
</g>
<!-- n0_place_10&#45;&gt;n3_port_4 -->
<g id="edge14" class="edge">
<title>n0_place_10&#45;&gt;n3_port_4</title>
<path fill="none" stroke="black" d="M637.21,-859.78C650.8,-909.23 681.47,-996.93 738.17,-1049 749.12,-1059.05 762.73,-1066.79 776.58,-1072.71"/>
<polygon fill="black" stroke="black" points="775.6,-1076.09 786.18,-1076.53 778.18,-1069.58 775.6,-1076.09"/>
</g>
<!-- n1_condition -->
<g id="node18" class="node">
<title>n1_condition</title>
<polygon fill="white" stroke="black" points="800.94,-775 800.94,-811 895.94,-811 895.94,-775 800.94,-775"/>
<text text-anchor="middle" x="848.44" y="-789.3" font-family="Times,serif" font-size="14.00">transition5</text>
</g>
<!-- n1_port_1 -->
<g id="node23" class="node">
<title>n1_port_1</title>
<polygon fill="white" stroke="black" points="786.32,-544.67 848.44,-521.57 910.55,-544.67 910.49,-582.04 786.38,-582.04 786.32,-544.67"/>
<text text-anchor="middle" x="848.44" y="-558.8" font-family="Times,serif" font-size="14.00">counter</text>
<text text-anchor="middle" x="848.44" y="-543.8" font-family="Times,serif" font-size="14.00">int</text>
</g>
<!-- n1_port_1&#45;&gt;n0_place_10 -->
<g id="edge3" class="edge">
<title>n1_port_1&#45;&gt;n0_place_10</title>
<path fill="none" stroke="black" d="M786.18,-569.47C769.15,-575.76 751.64,-584.63 738.17,-597 685.02,-645.82 654.73,-725.95 639.96,-776.52"/>
<polygon fill="black" stroke="black" points="636.57,-775.64 637.21,-786.22 643.31,-777.55 636.57,-775.64"/>
</g>
<!-- n1_port_3 -->
<g id="node24" class="node">
<title>n1_port_3</title>
<polygon fill="white" stroke="black" points="746.41,-460.67 848.44,-437.57 950.46,-460.67 950.36,-498.04 746.51,-498.04 746.41,-460.67"/>
<text text-anchor="middle" x="848.44" y="-474.8" font-family="Times,serif" font-size="14.00">sum</text>
<text text-anchor="middle" x="848.44" y="-459.8" font-family="Times,serif" font-size="14.00">unsigned long</text>
</g>
<!-- n1_port_3&#45;&gt;n0_place_2 -->
<g id="edge2" class="edge">
<title>n1_port_3&#45;&gt;n0_place_2</title>
<path fill="none" stroke="black" d="M792.86,-450.06C765.02,-439.39 730.78,-426.26 700.78,-414.75"/>
<polygon fill="black" stroke="black" points="701.79,-411.38 691.2,-411.07 699.28,-417.92 701.79,-411.38"/>
</g>
<!-- n1_port_5 -->
<g id="node25" class="node">
<title>n1_port_5</title>
<polygon fill="white" stroke="black" points="804.53,-208.67 848.44,-185.57 892.34,-208.67 892.3,-246.04 804.57,-246.04 804.53,-208.67"/>
<text text-anchor="middle" x="848.44" y="-222.8" font-family="Times,serif" font-size="14.00">limit</text>
<text text-anchor="middle" x="848.44" y="-207.8" font-family="Times,serif" font-size="14.00">int</text>
</g>
<!-- n1_port_5&#45;&gt;n0_place_6 -->
<g id="edge1" class="edge">
<title>n1_port_5&#45;&gt;n0_place_6</title>
<path fill="none" stroke="black" d="M804.43,-226.27C766.33,-232.7 710.95,-242.06 672.53,-248.55"/>
<polygon fill="black" stroke="black" points="671.94,-245.1 662.66,-250.22 673.1,-252 671.94,-245.1"/>
</g>
<!-- n1_modcall -->
<g id="node26" class="node">
<title>n1_modcall</title>
<polygon fill="white" stroke="black" points="934.44,-168 762.44,-168 762.44,-132 934.44,-132 934.44,-168"/>
<text text-anchor="middle" x="848.44" y="-146.3" font-family="Times,serif" font-size="14.00">feynman_module.plus</text>
</g>
<!-- n2_condition -->
<g id="node27" class="node">
<title>n2_condition</title>
<polygon fill="white" stroke="black" points="1234.28,-1508 1234.28,-1544 1329.28,-1544 1329.28,-1508 1234.28,-1508"/>
<text text-anchor="middle" x="1281.78" y="-1522.3" font-family="Times,serif" font-size="14.00">transition4</text>
</g>
<!-- n2_port_2 -->
<g id="node30" class="node">
<title>n2_port_2</title>
<polygon fill="white" stroke="black" points="1179.75,-1277.67 1281.78,-1254.57 1383.8,-1277.67 1383.71,-1315.04 1179.85,-1315.04 1179.75,-1277.67"/>
<text text-anchor="middle" x="1281.78" y="-1291.8" font-family="Times,serif" font-size="14.00">s</text>
<text text-anchor="middle" x="1281.78" y="-1276.8" font-family="Times,serif" font-size="14.00">unsigned long</text>
</g>
<!-- n2_port_2&#45;&gt;n0_place_9 -->
<g id="edge8" class="edge">
<title>n2_port_2&#45;&gt;n0_place_9</title>
<path fill="none" stroke="black" d="M1383.77,-1277.61C1407.78,-1271.34 1432,-1261.47 1451.28,-1246 1510.02,-1198.87 1539.91,-1112.19 1552.82,-1062.87"/>
<polygon fill="black" stroke="black" points="1556.27,-1063.5 1555.32,-1052.95 1549.49,-1061.79 1556.27,-1063.5"/>
</g>
<!-- n2_modcall -->
<g id="node31" class="node">
<title>n2_modcall</title>
<polygon fill="white" stroke="black" points="1443.28,-1237 1120.28,-1237 1120.28,-1201 1443.28,-1201 1443.28,-1237"/>
<text text-anchor="middle" x="1281.78" y="-1215.3" font-family="Times,serif" font-size="14.00">feynman_module.feynman_integral_degree</text>
</g>
<!-- n3_condition -->
<g id="node32" class="node">
<title>n3_condition</title>
<polygon fill="white" stroke="black" points="778.94,-1311 778.94,-1373 917.94,-1373 917.94,-1311 778.94,-1311"/>
<text text-anchor="middle" x="848.44" y="-1357.8" font-family="Times,serif" font-size="14.00">transition3</text>
<polyline fill="none" stroke="black" points="778.94,-1350 917.94,-1350 "/>
<text text-anchor="middle" x="848.44" y="-1334.8" font-family="Times,serif" font-size="14.00">(${counter} &gt; 0)</text>
</g>
<!-- n3_port_2 -->
<g id="node36" class="node">
<title>n3_port_2</title>
<polygon fill="white" stroke="black" points="812.76,-1164.67 848.44,-1141.57 884.11,-1164.67 884.07,-1202.04 812.8,-1202.04 812.76,-1164.67"/>
<text text-anchor="middle" x="848.44" y="-1178.8" font-family="Times,serif" font-size="14.00">vec</text>
<text text-anchor="middle" x="848.44" y="-1163.8" font-family="Times,serif" font-size="14.00">list</text>
</g>
<!-- n3_port_2&#45;&gt;n0_place_5 -->
<g id="edge12" class="edge">
<title>n3_port_2&#45;&gt;n0_place_5</title>
<path fill="none" stroke="black" d="M884.73,-1179.47C908.33,-1185.37 938.61,-1196.11 960.05,-1215.53 995.54,-1248.3 1016.24,-1300.01 1027,-1334.95"/>
<path fill="none" stroke="transparent" d="M884.24,-1181.41C907.66,-1187.26 937.94,-1197.99 958.7,-1217 993.68,-1249.04 1014.39,-1300.76 1025.09,-1335.54"/>
<path fill="none" stroke="black" d="M883.76,-1183.35C906.99,-1189.14 937.27,-1199.88 957.35,-1218.47 991.82,-1249.78 1012.53,-1301.5 1023.18,-1336.13"/>
<polygon fill="black" stroke="black" points="1021.79,-1336.71 1027.97,-1345.31 1028.5,-1334.73 1021.79,-1336.71"/>
</g>
<!-- n3_port_3 -->
<g id="node37" class="node">
<title>n3_port_3</title>
<polygon fill="white" stroke="black" points="778.59,-912.67 848.44,-889.57 918.28,-912.67 918.22,-950.04 778.66,-950.04 778.59,-912.67"/>
<text text-anchor="middle" x="848.44" y="-926.8" font-family="Times,serif" font-size="14.00">vec_copy</text>
<text text-anchor="middle" x="848.44" y="-911.8" font-family="Times,serif" font-size="14.00">list</text>
</g>
<!-- n3_port_3&#45;&gt;n0_place_7 -->
<g id="edge11" class="edge">
<title>n3_port_3&#45;&gt;n0_place_7</title>
<path fill="none" stroke="black" d="M918.97,-945.91C932.57,-951.28 946.58,-957.14 959.54,-963.19 972.46,-969.21 986.08,-976.47 998.23,-983.27"/>
<path fill="none" stroke="transparent" d="M918.24,-947.77C931.79,-953.12 945.81,-958.99 958.7,-965 971.52,-970.98 985.14,-978.23 997.26,-985.02"/>
<path fill="none" stroke="black" d="M917.51,-949.63C931.02,-954.97 945.03,-960.83 957.85,-966.81 970.58,-972.75 984.2,-980 996.28,-986.76"/>
<polygon fill="black" stroke="black" points="995.76,-988.19 1006.18,-990.09 999.22,-982.11 995.76,-988.19"/>
</g>
<!-- n3_modcall -->
<g id="node38" class="node">
<title>n3_modcall</title>
<polygon fill="white" stroke="black" points="946.94,-872 749.94,-872 749.94,-836 946.94,-836 946.94,-872"/>
<text text-anchor="middle" x="848.44" y="-850.3" font-family="Times,serif" font-size="14.00">feynman_module.iterator</text>
</g>
<!-- n4_condition -->
<g id="node39" class="node">
<title>n4_condition</title>
<polygon fill="white" stroke="black" points="800.94,-1705 800.94,-1741 895.94,-1741 895.94,-1705 800.94,-1705"/>
<text text-anchor="middle" x="848.44" y="-1719.3" font-family="Times,serif" font-size="14.00">transition2</text>
</g>
<!-- n4_port_1 -->
<g id="node41" class="node">
<title>n4_port_1</title>
<polygon fill="white" stroke="black" points="812.76,-1558.67 848.44,-1535.57 884.11,-1558.67 884.07,-1596.04 812.8,-1596.04 812.76,-1558.67"/>
<text text-anchor="middle" x="848.44" y="-1572.8" font-family="Times,serif" font-size="14.00">vec</text>
<text text-anchor="middle" x="848.44" y="-1557.8" font-family="Times,serif" font-size="14.00">list</text>
</g>
<!-- n4_port_1&#45;&gt;n0_place_5 -->
<g id="edge17" class="edge">
<title>n4_port_1&#45;&gt;n0_place_5</title>
<path fill="none" stroke="black" d="M883.76,-1560.65C906.99,-1554.86 937.27,-1544.12 957.35,-1525.53 991.82,-1494.22 1012.53,-1442.5 1023.18,-1407.87"/>
<path fill="none" stroke="transparent" d="M884.24,-1562.59C907.66,-1556.74 937.94,-1546.01 958.7,-1527 993.68,-1494.96 1014.39,-1443.24 1025.09,-1408.46"/>
<path fill="none" stroke="black" d="M884.73,-1564.53C908.33,-1558.63 938.61,-1547.89 960.05,-1528.47 995.54,-1495.7 1016.24,-1443.99 1027,-1409.05"/>
<polygon fill="black" stroke="black" points="1028.5,-1409.27 1027.97,-1398.69 1021.79,-1407.29 1028.5,-1409.27"/>
</g>
<!-- n4_port_2 -->
<g id="node42" class="node">
<title>n4_port_2</title>
<polygon fill="white" stroke="black" points="778.59,-1474.67 848.44,-1451.57 918.28,-1474.67 918.22,-1512.04 778.66,-1512.04 778.59,-1474.67"/>
<text text-anchor="middle" x="848.44" y="-1488.8" font-family="Times,serif" font-size="14.00">vec_copy</text>
<text text-anchor="middle" x="848.44" y="-1473.8" font-family="Times,serif" font-size="14.00">list</text>
</g>
<!-- n4_port_2&#45;&gt;n0_place_7 -->
<g id="edge16" class="edge">
<title>n4_port_2&#45;&gt;n0_place_7</title>
<path fill="none" stroke="black" d="M912.34,-1470.87C929.16,-1464.77 946.11,-1455.38 957.15,-1441.73 969.47,-1427.19 1011.96,-1146.14 1027.09,-1043.68"/>
<path fill="none" stroke="transparent" d="M913.03,-1472.75C930.13,-1466.52 947.08,-1457.13 958.7,-1443 971.45,-1427.49 1013.93,-1146.43 1029.07,-1043.98"/>
<path fill="none" stroke="black" d="M913.71,-1474.63C931.1,-1468.27 948.05,-1458.88 960.24,-1444.27 973.43,-1427.79 1015.91,-1146.73 1031.05,-1044.27"/>
<polygon fill="black" stroke="black" points="1032.58,-1044.19 1030.57,-1033.79 1025.65,-1043.17 1032.58,-1044.19"/>
</g>
<!-- n4_modcall -->
<g id="node43" class="node">
<title>n4_modcall</title>
<polygon fill="white" stroke="black" points="939.44,-1434 757.44,-1434 757.44,-1398 939.44,-1398 939.44,-1434"/>
<text text-anchor="middle" x="848.44" y="-1412.3" font-family="Times,serif" font-size="14.00">feynman_module.iterat</text>
</g>
<!-- n5_condition -->
<g id="node44" class="node">
<title>n5_condition</title>
<polygon fill="white" stroke="black" points="355.21,-1705 355.21,-1741 450.21,-1741 450.21,-1705 355.21,-1705"/>
<text text-anchor="middle" x="402.71" y="-1719.3" font-family="Times,serif" font-size="14.00">transition1</text>
</g>
<!-- n5_port_2 -->
<g id="node47" class="node">
<title>n5_port_2</title>
<polygon fill="white" stroke="black" points="368.54,-1474.67 402.71,-1451.57 436.89,-1474.67 436.85,-1512.04 368.57,-1512.04 368.54,-1474.67"/>
<text text-anchor="middle" x="402.71" y="-1488.8" font-family="Times,serif" font-size="14.00">v</text>
<text text-anchor="middle" x="402.71" y="-1473.8" font-family="Times,serif" font-size="14.00">list</text>
</g>
<!-- n5_port_2&#45;&gt;n0_place_4 -->
<g id="edge19" class="edge">
<title>n5_port_2&#45;&gt;n0_place_4</title>
<path fill="none" stroke="black" d="M437.56,-1495.35C460.1,-1503.69 490.58,-1515.01 517.42,-1525.13 534.57,-1531.6 553.21,-1538.7 570.17,-1545.2"/>
<path fill="none" stroke="transparent" d="M436.87,-1497.23C459.41,-1505.56 489.88,-1516.88 516.71,-1527 533.86,-1533.47 552.49,-1540.57 569.45,-1547.07"/>
<path fill="none" stroke="black" d="M436.18,-1499.1C458.71,-1507.44 489.19,-1518.76 516,-1528.87 533.15,-1535.34 551.78,-1542.44 568.74,-1548.93"/>
<polygon fill="black" stroke="black" points="568.63,-1550.5 579.22,-1550.81 571.13,-1543.96 568.63,-1550.5"/>
</g>
<!-- n5_modcall -->
<g id="node48" class="node">
<title>n5_modcall</title>
<polygon fill="white" stroke="black" points="508.71,-1434 296.71,-1434 296.71,-1398 508.71,-1398 508.71,-1434"/>
<text text-anchor="middle" x="402.71" y="-1412.3" font-family="Times,serif" font-size="14.00">feynman_module.gen_block</text>
</g>
</g>
</svg>
