<?xml version="1.0" encoding="UTF-8" standalone="no"?>
<!DOCTYPE svg PUBLIC "-//W3C//DTD SVG 1.1//EN"
 "http://www.w3.org/Graphics/SVG/1.1/DTD/svg11.dtd">
<!-- Generated by graphviz version 2.43.0 (0)
 -->
<!-- Title: feynman_deg Pages: 1 -->
<svg width="2259pt" height="2036pt"
 viewBox="0.00 0.00 2258.73 2036.00" xmlns="http://www.w3.org/2000/svg" xmlns:xlink="http://www.w3.org/1999/xlink">
<g id="graph0" class="graph" transform="scale(1 1) rotate(0) translate(4 2032)">
<title>feynman_deg</title>
<polygon fill="white" stroke="transparent" points="-4,4 -4,-2032 2254.73,-2032 2254.73,4 -4,4"/>
<g id="clust1" class="cluster">
<title>cluster_0</title>
<polygon fill="dimgray" stroke="black" points="8,-8 8,-2020 2242.73,-2020 2242.73,-8 8,-8"/>
</g>
<g id="clust2" class="cluster">
<title>cluster_net_0</title>
<polygon fill="white" stroke="black" points="159.37,-116 159.37,-1854 2234.73,-1854 2234.73,-116 159.37,-116"/>
</g>
<g id="clust3" class="cluster">
<title>cluster_1</title>
<polygon fill="yellow" stroke="black" points="1311.52,-1318 1311.52,-1846 1532.05,-1846 1532.05,-1318 1311.52,-1318"/>
</g>
<g id="clust4" class="cluster">
<title>cluster_2</title>
<polygon fill="yellow" stroke="black" points="1812.75,-1466 1812.75,-1768 2033.27,-1768 2033.27,-1466 1812.75,-1466"/>
</g>
<g id="clust5" class="cluster">
<title>cluster_3</title>
<polygon fill="yellow" stroke="black" points="810.3,-136 810.3,-916 1030.82,-916 1030.82,-136 810.3,-136"/>
</g>
<g id="clust6" class="cluster">
<title>cluster_4</title>
<polygon fill="yellow" stroke="black" points="1252.28,-895 1252.28,-1255 1591.28,-1255 1591.28,-895 1252.28,-895"/>
</g>
<g id="clust7" class="cluster">
<title>cluster_5</title>
<polygon fill="yellow" stroke="black" points="814.06,-1292 814.06,-1846 1027.06,-1846 1027.06,-1292 814.06,-1292"/>
</g>
<g id="clust8" class="cluster">
<title>cluster_6</title>
<polygon fill="yellow" stroke="black" points="821.56,-924 821.56,-1284 1019.56,-1284 1019.56,-924 821.56,-924"/>
</g>
<g id="clust9" class="cluster">
<title>cluster_7</title>
<polygon fill="yellow" stroke="black" points="360.84,-1092 360.84,-1452 588.84,-1452 588.84,-1092 360.84,-1092"/>
</g>
<!-- n0_condition -->
<g id="node1" class="node">
<title>n0_condition</title>
<polygon fill="white" stroke="black" points="18.19,-1691 18.19,-1727 129.19,-1727 129.19,-1691 18.19,-1691"/>
<text text-anchor="middle" x="73.69" y="-1705.3" font-family="Times,serif" font-size="14.00">feynman_deg</text>
</g>
<!-- n0_port_0 -->
<g id="node2" class="node">
<title>n0_port_0</title>
<polygon fill="white" stroke="black" points="131.56,-1365.33 73.69,-1388.43 15.81,-1365.33 15.87,-1327.96 131.5,-1327.96 131.56,-1365.33"/>
<text text-anchor="middle" x="73.69" y="-1358.8" font-family="Times,serif" font-size="14.00">degree</text>
<text text-anchor="middle" x="73.69" y="-1343.8" font-family="Times,serif" font-size="14.00">int</text>
</g>
<!-- n0_place_9 -->
<g id="node12" class="node">
<title>n0_place_9</title>
<ellipse fill="white" stroke="black" cx="250.1" cy="-1355" rx="46.84" ry="26.74"/>
<text text-anchor="middle" x="250.1" y="-1358.8" font-family="Times,serif" font-size="14.00">degree</text>
<text text-anchor="middle" x="250.1" y="-1343.8" font-family="Times,serif" font-size="14.00">int</text>
</g>
<!-- n0_port_0&#45;&gt;n0_place_9 -->
<g id="edge30" class="edge">
<title>n0_port_0&#45;&gt;n0_place_9</title>
<path fill="none" stroke="black" stroke-dasharray="1,5" d="M131.8,-1355C154.95,-1355 181.32,-1355 203.19,-1355"/>
</g>
<!-- n0_port_1 -->
<g id="node3" class="node">
<title>n0_port_1</title>
<polygon fill="white" stroke="black" points="1022.58,-1989.33 920.56,-2012.43 818.54,-1989.33 818.63,-1951.96 1022.49,-1951.96 1022.58,-1989.33"/>
<text text-anchor="middle" x="920.56" y="-1982.8" font-family="Times,serif" font-size="14.00">total</text>
<text text-anchor="middle" x="920.56" y="-1967.8" font-family="Times,serif" font-size="14.00">unsigned long</text>
</g>
<!-- n0_place_13 -->
<g id="node22" class="node">
<title>n0_place_13</title>
<ellipse fill="white" stroke="black" cx="1141.55" cy="-1784" rx="82.96" ry="26.74"/>
<text text-anchor="middle" x="1141.55" y="-1787.8" font-family="Times,serif" font-size="14.00">total</text>
<text text-anchor="middle" x="1141.55" y="-1772.8" font-family="Times,serif" font-size="14.00">unsigned long</text>
</g>
<!-- n0_port_1&#45;&gt;n0_place_13 -->
<g id="edge31" class="edge">
<title>n0_port_1&#45;&gt;n0_place_13</title>
<path fill="none" stroke="black" stroke-dasharray="1,5" d="M1007.13,-1951.83C1015.52,-1947.51 1023.58,-1942.59 1030.82,-1937 1075.7,-1902.33 1110.15,-1844.38 1127.69,-1810.62"/>
</g>
<!-- n0_port_2 -->
<g id="node4" class="node">
<title>n0_port_2</title>
<polygon fill="white" stroke="black" points="105.12,-1281.33 73.69,-1304.43 42.26,-1281.33 42.29,-1243.96 105.09,-1243.96 105.12,-1281.33"/>
<text text-anchor="middle" x="73.69" y="-1274.8" font-family="Times,serif" font-size="14.00">N</text>
<text text-anchor="middle" x="73.69" y="-1259.8" font-family="Times,serif" font-size="14.00">int</text>
</g>
<!-- n0_place_11 -->
<g id="node10" class="node">
<title>n0_place_11</title>
<ellipse fill="white" stroke="black" cx="250.1" cy="-1271" rx="27" ry="26.74"/>
<text text-anchor="middle" x="250.1" y="-1274.8" font-family="Times,serif" font-size="14.00">N</text>
<text text-anchor="middle" x="250.1" y="-1259.8" font-family="Times,serif" font-size="14.00">int</text>
</g>
<!-- n0_port_2&#45;&gt;n0_place_11 -->
<g id="edge32" class="edge">
<title>n0_port_2&#45;&gt;n0_place_11</title>
<path fill="none" stroke="black" stroke-dasharray="1,5" d="M105.47,-1271C138.82,-1271 191.46,-1271 222.9,-1271"/>
</g>
<!-- n0_port_4 -->
<g id="node5" class="node">
<title>n0_port_4</title>
<polygon fill="white" stroke="black" points="506.27,-1905.33 474.84,-1928.43 443.4,-1905.33 443.43,-1867.96 506.24,-1867.96 506.27,-1905.33"/>
<text text-anchor="middle" x="474.84" y="-1898.8" font-family="Times,serif" font-size="14.00">m</text>
<text text-anchor="middle" x="474.84" y="-1883.8" font-family="Times,serif" font-size="14.00">int</text>
</g>
<!-- n0_place_7 -->
<g id="node14" class="node">
<title>n0_place_7</title>
<ellipse fill="white" stroke="black" cx="699.57" cy="-1555" rx="27" ry="26.74"/>
<text text-anchor="middle" x="699.57" y="-1558.8" font-family="Times,serif" font-size="14.00">m</text>
<text text-anchor="middle" x="699.57" y="-1543.8" font-family="Times,serif" font-size="14.00">int</text>
</g>
<!-- n0_port_4&#45;&gt;n0_place_7 -->
<g id="edge33" class="edge">
<title>n0_port_4&#45;&gt;n0_place_7</title>
<path fill="none" stroke="black" stroke-dasharray="1,5" d="M487.16,-1867.84C508.42,-1818.53 557.55,-1712.17 616.84,-1634 634.96,-1610.1 660.38,-1586.73 678.03,-1571.69"/>
</g>
<!-- n0_port_5 -->
<g id="node6" class="node">
<title>n0_port_5</title>
<polygon fill="white" stroke="black" points="972.2,-1905.33 920.56,-1928.43 868.92,-1905.33 868.97,-1867.96 972.15,-1867.96 972.2,-1905.33"/>
<text text-anchor="middle" x="920.56" y="-1898.8" font-family="Times,serif" font-size="14.00">graph</text>
<text text-anchor="middle" x="920.56" y="-1883.8" font-family="Times,serif" font-size="14.00">list</text>
</g>
<!-- n0_place_2 -->
<g id="node19" class="node">
<title>n0_place_2</title>
<ellipse fill="white" stroke="black" cx="1141.55" cy="-1553" rx="41.94" ry="26.74"/>
<text text-anchor="middle" x="1141.55" y="-1556.8" font-family="Times,serif" font-size="14.00">graph</text>
<text text-anchor="middle" x="1141.55" y="-1541.8" font-family="Times,serif" font-size="14.00">list</text>
</g>
<!-- n0_port_5&#45;&gt;n0_place_2 -->
<g id="edge34" class="edge">
<title>n0_port_5&#45;&gt;n0_place_2</title>
<path fill="none" stroke="black" stroke-dasharray="1,5" d="M972.37,-1885.95C993.7,-1879.51 1016.77,-1868.57 1030.82,-1850 1095.9,-1764.02 1003.12,-1701.33 1058.82,-1609 1069.84,-1590.74 1089.36,-1577.03 1106.56,-1567.75"/>
</g>
<!-- n0_port_3 -->
<g id="node7" class="node">
<title>n0_port_3</title>
<polygon fill="white" stroke="black" points="1820.99,-1884.67 1923.01,-1861.57 2025.03,-1884.67 2024.94,-1922.04 1821.08,-1922.04 1820.99,-1884.67"/>
<text text-anchor="middle" x="1923.01" y="-1898.8" font-family="Times,serif" font-size="14.00">sum2</text>
<text text-anchor="middle" x="1923.01" y="-1883.8" font-family="Times,serif" font-size="14.00">unsigned long</text>
</g>
<!-- n0_place_4 -->
<g id="node17" class="node">
<title>n0_place_4</title>
<ellipse fill="white" stroke="black" cx="2144" cy="-1728" rx="82.96" ry="26.74"/>
<text text-anchor="middle" x="2144" y="-1731.8" font-family="Times,serif" font-size="14.00">sum2</text>
<text text-anchor="middle" x="2144" y="-1716.8" font-family="Times,serif" font-size="14.00">unsigned long</text>
</g>
<!-- n0_port_3&#45;&gt;n0_place_4 -->
<g id="edge35" class="edge">
<title>n0_port_3&#45;&gt;n0_place_4</title>
<path fill="none" stroke="black" stroke-dasharray="1,5" d="M1957.75,-1869.27C1999.38,-1837.52 2069.67,-1783.92 2110.66,-1752.67"/>
</g>
<!-- n0_port_6 -->
<g id="node8" class="node">
<title>n0_port_6</title>
<polygon fill="white" stroke="black" points="372.81,-47.74 474.84,-15.85 576.86,-47.74 576.76,-99.33 372.91,-99.33 372.81,-47.74"/>
<text text-anchor="middle" x="474.84" y="-73.3" font-family="Times,serif" font-size="14.00">sum</text>
<text text-anchor="middle" x="474.84" y="-58.3" font-family="Times,serif" font-size="14.00">unsigned long</text>
<text text-anchor="middle" x="474.84" y="-43.3" font-family="Times,serif" font-size="14.00">0UL</text>
</g>
<!-- n0_place_15 -->
<g id="node24" class="node">
<title>n0_place_15</title>
<ellipse fill="white" stroke="black" cx="699.57" cy="-399" rx="82.96" ry="37.45"/>
<text text-anchor="middle" x="699.57" y="-410.3" font-family="Times,serif" font-size="14.00">sum</text>
<text text-anchor="middle" x="699.57" y="-395.3" font-family="Times,serif" font-size="14.00">unsigned long</text>
<text text-anchor="middle" x="699.57" y="-380.3" font-family="Times,serif" font-size="14.00">0UL</text>
</g>
<!-- n0_port_6&#45;&gt;n0_place_15 -->
<g id="edge36" class="edge">
<title>n0_port_6&#45;&gt;n0_place_15</title>
<path fill="none" stroke="black" stroke-dasharray="1,5" d="M500.52,-99.35C543.68,-164.64 632.27,-298.69 674.78,-363.01"/>
</g>
<!-- n0_place_12 -->
<g id="node9" class="node">
<title>n0_place_12</title>
<ellipse fill="white" stroke="black" cx="699.57" cy="-233" rx="82.96" ry="26.74"/>
<text text-anchor="middle" x="699.57" y="-236.8" font-family="Times,serif" font-size="14.00">fey_out</text>
<text text-anchor="middle" x="699.57" y="-221.8" font-family="Times,serif" font-size="14.00">unsigned long</text>
</g>
<!-- n3_port_0 -->
<g id="node38" class="node">
<title>n3_port_0</title>
<polygon fill="white" stroke="black" points="1022.58,-325.33 920.56,-348.43 818.54,-325.33 818.63,-287.96 1022.49,-287.96 1022.58,-325.33"/>
<text text-anchor="middle" x="920.56" y="-318.8" font-family="Times,serif" font-size="14.00">s</text>
<text text-anchor="middle" x="920.56" y="-303.8" font-family="Times,serif" font-size="14.00">unsigned long</text>
</g>
<!-- n0_place_12&#45;&gt;n3_port_0 -->
<g id="edge14" class="edge">
<title>n0_place_12&#45;&gt;n3_port_0</title>
<path fill="none" stroke="black" d="M754.42,-253.16C779.46,-262.54 809.78,-273.89 837.57,-284.3"/>
<polygon fill="black" stroke="black" points="836.69,-287.71 847.29,-287.94 839.15,-281.15 836.69,-287.71"/>
</g>
<!-- n7_port_1 -->
<g id="node66" class="node">
<title>n7_port_1</title>
<polygon fill="white" stroke="black" points="506.27,-1281.33 474.84,-1304.43 443.4,-1281.33 443.43,-1243.96 506.24,-1243.96 506.27,-1281.33"/>
<text text-anchor="middle" x="474.84" y="-1274.8" font-family="Times,serif" font-size="14.00">n</text>
<text text-anchor="middle" x="474.84" y="-1259.8" font-family="Times,serif" font-size="14.00">int</text>
</g>
<!-- n0_place_11&#45;&gt;n7_port_1 -->
<g id="edge29" class="edge">
<title>n0_place_11&#45;&gt;n7_port_1</title>
<path fill="none" stroke="black" d="M277.53,-1271C316.01,-1271 387.82,-1271 433.1,-1271"/>
<polygon fill="black" stroke="black" points="433.17,-1274.5 443.17,-1271 433.17,-1267.5 433.17,-1274.5"/>
</g>
<!-- n0_place_10 -->
<g id="node11" class="node">
<title>n0_place_10</title>
<ellipse fill="white" stroke="black" cx="699.57" cy="-1187" rx="65.11" ry="26.74"/>
<text text-anchor="middle" x="699.57" y="-1190.8" font-family="Times,serif" font-size="14.00">init_vector</text>
<text text-anchor="middle" x="699.57" y="-1175.8" font-family="Times,serif" font-size="14.00">list</text>
</g>
<!-- n6_port_0 -->
<g id="node60" class="node">
<title>n6_port_0</title>
<polygon fill="white" stroke="black" points="954.73,-1197.33 920.56,-1220.43 886.39,-1197.33 886.42,-1159.96 954.7,-1159.96 954.73,-1197.33"/>
<text text-anchor="middle" x="920.56" y="-1190.8" font-family="Times,serif" font-size="14.00">v</text>
<text text-anchor="middle" x="920.56" y="-1175.8" font-family="Times,serif" font-size="14.00">list</text>
</g>
<!-- n0_place_10&#45;&gt;n6_port_0 -->
<g id="edge26" class="edge">
<title>n0_place_10&#45;&gt;n6_port_0</title>
<path fill="none" stroke="black" d="M764.79,-1187C800.62,-1187 844.3,-1187 876.11,-1187"/>
<polygon fill="black" stroke="black" points="876.42,-1190.5 886.42,-1187 876.42,-1183.5 876.42,-1190.5"/>
</g>
<!-- n7_port_0 -->
<g id="node65" class="node">
<title>n7_port_0</title>
<polygon fill="white" stroke="black" points="506.27,-1365.33 474.84,-1388.43 443.4,-1365.33 443.43,-1327.96 506.24,-1327.96 506.27,-1365.33"/>
<text text-anchor="middle" x="474.84" y="-1358.8" font-family="Times,serif" font-size="14.00">d</text>
<text text-anchor="middle" x="474.84" y="-1343.8" font-family="Times,serif" font-size="14.00">int</text>
</g>
<!-- n0_place_9&#45;&gt;n7_port_0 -->
<g id="edge28" class="edge">
<title>n0_place_9&#45;&gt;n7_port_0</title>
<path fill="none" stroke="black" d="M296.98,-1355C337.03,-1355 394.59,-1355 433.05,-1355"/>
<polygon fill="black" stroke="black" points="433.36,-1358.5 443.36,-1355 433.36,-1351.5 433.36,-1358.5"/>
</g>
<!-- n0_place_8 -->
<g id="node13" class="node">
<title>n0_place_8</title>
<ellipse fill="white" stroke="black" cx="250.1" cy="-675" rx="82.96" ry="26.74"/>
<text text-anchor="middle" x="250.1" y="-678.8" font-family="Times,serif" font-size="14.00">stop</text>
<text text-anchor="middle" x="250.1" y="-663.8" font-family="Times,serif" font-size="14.00">unsigned long</text>
</g>
<!-- n3_port_6 -->
<g id="node41" class="node">
<title>n3_port_6</title>
<polygon fill="white" stroke="black" points="951.99,-745.33 920.56,-768.43 889.13,-745.33 889.16,-707.96 951.96,-707.96 951.99,-745.33"/>
<text text-anchor="middle" x="920.56" y="-738.8" font-family="Times,serif" font-size="14.00">m</text>
<text text-anchor="middle" x="920.56" y="-723.8" font-family="Times,serif" font-size="14.00">int</text>
</g>
<!-- n0_place_7&#45;&gt;n3_port_6 -->
<g id="edge15" class="edge">
<title>n0_place_7&#45;&gt;n3_port_6</title>
<path fill="none" stroke="black" stroke-dasharray="5,2" d="M708.51,-1529.49C725.34,-1474.25 764.5,-1339.18 782.3,-1223 789.82,-1173.92 780.91,-817.03 810.3,-777 826.24,-755.28 854.97,-744.8 878.97,-739.73"/>
<polygon fill="black" stroke="black" points="879.72,-743.15 888.91,-737.88 878.44,-736.27 879.72,-743.15"/>
</g>
<!-- n5_port_0 -->
<g id="node53" class="node">
<title>n5_port_0</title>
<polygon fill="white" stroke="black" points="951.99,-1565.33 920.56,-1588.43 889.13,-1565.33 889.16,-1527.96 951.96,-1527.96 951.99,-1565.33"/>
<text text-anchor="middle" x="920.56" y="-1558.8" font-family="Times,serif" font-size="14.00">m</text>
<text text-anchor="middle" x="920.56" y="-1543.8" font-family="Times,serif" font-size="14.00">int</text>
</g>
<!-- n0_place_7&#45;&gt;n5_port_0 -->
<g id="edge23" class="edge">
<title>n0_place_7&#45;&gt;n5_port_0</title>
<path fill="none" stroke="black" stroke-dasharray="5,2" d="M726.98,-1555C764.69,-1555 834.27,-1555 878.67,-1555"/>
<polygon fill="black" stroke="black" points="878.83,-1558.5 888.83,-1555 878.83,-1551.5 878.83,-1558.5"/>
</g>
<!-- n0_place_6 -->
<g id="node15" class="node">
<title>n0_place_6</title>
<ellipse fill="white" stroke="black" cx="1141.55" cy="-616" rx="82.96" ry="26.74"/>
<text text-anchor="middle" x="1141.55" y="-619.8" font-family="Times,serif" font-size="14.00">sum1_copy</text>
<text text-anchor="middle" x="1141.55" y="-604.8" font-family="Times,serif" font-size="14.00">unsigned long</text>
</g>
<!-- n1_port_0 -->
<g id="node27" class="node">
<title>n1_port_0</title>
<polygon fill="white" stroke="black" points="1523.81,-1507.33 1421.78,-1530.43 1319.76,-1507.33 1319.86,-1469.96 1523.71,-1469.96 1523.81,-1507.33"/>
<text text-anchor="middle" x="1421.78" y="-1500.8" font-family="Times,serif" font-size="14.00">sum2_copy</text>
<text text-anchor="middle" x="1421.78" y="-1485.8" font-family="Times,serif" font-size="14.00">unsigned long</text>
</g>
<!-- n0_place_6&#45;&gt;n1_port_0 -->
<g id="edge4" class="edge">
<title>n0_place_6&#45;&gt;n1_port_0</title>
<path fill="none" stroke="black" d="M1148.99,-642.96C1164.61,-709.57 1204.72,-887.4 1224.28,-1038 1230.27,-1084.05 1222.48,-1419.39 1252.28,-1455 1266.95,-1472.52 1287.7,-1483.35 1309.64,-1489.91"/>
<polygon fill="black" stroke="black" points="1308.88,-1493.33 1319.45,-1492.55 1310.7,-1486.57 1308.88,-1493.33"/>
</g>
<!-- n0_place_5 -->
<g id="node16" class="node">
<title>n0_place_5</title>
<ellipse fill="white" stroke="black" cx="1702.02" cy="-1490" rx="82.96" ry="26.74"/>
<text text-anchor="middle" x="1702.02" y="-1493.8" font-family="Times,serif" font-size="14.00">sum1</text>
<text text-anchor="middle" x="1702.02" y="-1478.8" font-family="Times,serif" font-size="14.00">unsigned long</text>
</g>
<!-- n2_port_0 -->
<g id="node34" class="node">
<title>n2_port_0</title>
<polygon fill="white" stroke="black" points="2025.03,-1655.33 1923.01,-1678.43 1820.99,-1655.33 1821.08,-1617.96 2024.94,-1617.96 2025.03,-1655.33"/>
<text text-anchor="middle" x="1923.01" y="-1648.8" font-family="Times,serif" font-size="14.00">sum_out</text>
<text text-anchor="middle" x="1923.01" y="-1633.8" font-family="Times,serif" font-size="14.00">unsigned long</text>
</g>
<!-- n0_place_5&#45;&gt;n2_port_0 -->
<g id="edge7" class="edge">
<title>n0_place_5&#45;&gt;n2_port_0</title>
<path fill="none" stroke="black" d="M1722.71,-1516.06C1742.92,-1541.26 1776.46,-1579.04 1812.75,-1603 1818.39,-1606.72 1824.41,-1610.19 1830.61,-1613.4"/>
<polygon fill="black" stroke="black" points="1829.29,-1616.65 1839.81,-1617.92 1832.38,-1610.37 1829.29,-1616.65"/>
</g>
<!-- n0_place_3 -->
<g id="node18" class="node">
<title>n0_place_3</title>
<ellipse fill="white" stroke="black" cx="1141.55" cy="-1471" rx="37.45" ry="26.74"/>
<text text-anchor="middle" x="1141.55" y="-1474.8" font-family="Times,serif" font-size="14.00">state</text>
<text text-anchor="middle" x="1141.55" y="-1459.8" font-family="Times,serif" font-size="14.00">list</text>
</g>
<!-- n5_port_1 -->
<g id="node54" class="node">
<title>n5_port_1</title>
<polygon fill="white" stroke="black" points="954.73,-1481.33 920.56,-1504.43 886.39,-1481.33 886.42,-1443.96 954.7,-1443.96 954.73,-1481.33"/>
<text text-anchor="middle" x="920.56" y="-1474.8" font-family="Times,serif" font-size="14.00">v</text>
<text text-anchor="middle" x="920.56" y="-1459.8" font-family="Times,serif" font-size="14.00">list</text>
</g>
<!-- n0_place_3&#45;&gt;n5_port_1 -->
<g id="edge21" class="edge">
<title>n0_place_3&#45;&gt;n5_port_1</title>
<path fill="none" stroke="black" d="M1104.05,-1471C1065.78,-1471 1005.66,-1471 964.98,-1471"/>
<polygon fill="black" stroke="black" points="964.82,-1467.5 954.82,-1471 964.82,-1474.5 964.82,-1467.5"/>
</g>
<!-- n4_port_1 -->
<g id="node49" class="node">
<title>n4_port_1</title>
<polygon fill="white" stroke="black" points="1455.96,-1168.33 1421.78,-1191.43 1387.61,-1168.33 1387.64,-1130.96 1455.93,-1130.96 1455.96,-1168.33"/>
<text text-anchor="middle" x="1421.78" y="-1161.8" font-family="Times,serif" font-size="14.00">G</text>
<text text-anchor="middle" x="1421.78" y="-1146.8" font-family="Times,serif" font-size="14.00">list</text>
</g>
<!-- n0_place_2&#45;&gt;n4_port_1 -->
<g id="edge18" class="edge">
<title>n0_place_2&#45;&gt;n4_port_1</title>
<path fill="none" stroke="black" stroke-dasharray="5,2" d="M1179.51,-1541.18C1195.97,-1533.97 1213.93,-1522.99 1224.28,-1507 1261.4,-1449.69 1207.98,-1252.96 1252.28,-1201 1282.77,-1165.26 1338.44,-1157.08 1377.42,-1156.16"/>
<polygon fill="black" stroke="black" points="1377.48,-1159.66 1387.45,-1156.07 1377.42,-1152.66 1377.48,-1159.66"/>
</g>
<!-- n0_place_1 -->
<g id="node20" class="node">
<title>n0_place_1</title>
<ellipse fill="white" stroke="black" cx="1141.55" cy="-1655" rx="82.96" ry="37.45"/>
<text text-anchor="middle" x="1141.55" y="-1666.3" font-family="Times,serif" font-size="14.00">stop1</text>
<text text-anchor="middle" x="1141.55" y="-1651.3" font-family="Times,serif" font-size="14.00">unsigned long</text>
<text text-anchor="middle" x="1141.55" y="-1636.3" font-family="Times,serif" font-size="14.00">0UL</text>
</g>
<!-- n1_port_1 -->
<g id="node28" class="node">
<title>n1_port_1</title>
<polygon fill="white" stroke="black" points="1523.81,-1675.33 1421.78,-1698.43 1319.76,-1675.33 1319.86,-1637.96 1523.71,-1637.96 1523.81,-1675.33"/>
<text text-anchor="middle" x="1421.78" y="-1668.8" font-family="Times,serif" font-size="14.00">stop1</text>
<text text-anchor="middle" x="1421.78" y="-1653.8" font-family="Times,serif" font-size="14.00">unsigned long</text>
</g>
<!-- n0_place_1&#45;&gt;n1_port_1 -->
<g id="edge3" class="edge">
<title>n0_place_1&#45;&gt;n1_port_1</title>
<path fill="none" stroke="black" d="M1224.15,-1657.93C1250.9,-1658.89 1281.1,-1659.98 1309.65,-1661.01"/>
<polygon fill="black" stroke="black" points="1309.56,-1664.5 1319.67,-1661.37 1309.81,-1657.51 1309.56,-1664.5"/>
</g>
<!-- n0_place_0 -->
<g id="node21" class="node">
<title>n0_place_0</title>
<ellipse fill="white" stroke="black" cx="699.57" cy="-1680" rx="50.41" ry="37.45"/>
<text text-anchor="middle" x="699.57" y="-1691.3" font-family="Times,serif" font-size="14.00">counter</text>
<text text-anchor="middle" x="699.57" y="-1676.3" font-family="Times,serif" font-size="14.00">int</text>
<text text-anchor="middle" x="699.57" y="-1661.3" font-family="Times,serif" font-size="14.00">3</text>
</g>
<!-- n5_port_4 -->
<g id="node55" class="node">
<title>n5_port_4</title>
<polygon fill="white" stroke="black" points="982.67,-1733.33 920.56,-1756.43 858.45,-1733.33 858.51,-1695.96 982.61,-1695.96 982.67,-1733.33"/>
<text text-anchor="middle" x="920.56" y="-1726.8" font-family="Times,serif" font-size="14.00">counter</text>
<text text-anchor="middle" x="920.56" y="-1711.8" font-family="Times,serif" font-size="14.00">int</text>
</g>
<!-- n0_place_0&#45;&gt;n5_port_4 -->
<g id="edge22" class="edge">
<title>n0_place_0&#45;&gt;n5_port_4</title>
<path fill="none" stroke="black" d="M748.36,-1689.38C777.55,-1695.12 815.44,-1702.56 848.15,-1708.98"/>
<polygon fill="black" stroke="black" points="847.63,-1712.44 858.12,-1710.94 848.98,-1705.58 847.63,-1712.44"/>
</g>
<!-- n1_port_3 -->
<g id="node29" class="node">
<title>n1_port_3</title>
<polygon fill="white" stroke="black" points="1523.81,-1759.33 1421.78,-1782.43 1319.76,-1759.33 1319.86,-1721.96 1523.71,-1721.96 1523.81,-1759.33"/>
<text text-anchor="middle" x="1421.78" y="-1752.8" font-family="Times,serif" font-size="14.00">total</text>
<text text-anchor="middle" x="1421.78" y="-1737.8" font-family="Times,serif" font-size="14.00">unsigned long</text>
</g>
<!-- n0_place_13&#45;&gt;n1_port_3 -->
<g id="edge5" class="edge">
<title>n0_place_13&#45;&gt;n1_port_3</title>
<path fill="none" stroke="black" stroke-dasharray="5,2" d="M1218.95,-1774.39C1249.06,-1770.6 1284.12,-1766.19 1316.49,-1762.12"/>
<polygon fill="black" stroke="black" points="1316.96,-1765.59 1326.44,-1760.87 1316.09,-1758.64 1316.96,-1765.59"/>
</g>
<!-- n0_place_14 -->
<g id="node23" class="node">
<title>n0_place_14</title>
<ellipse fill="white" stroke="black" cx="1141.55" cy="-1074" rx="48.58" ry="26.74"/>
<text text-anchor="middle" x="1141.55" y="-1077.8" font-family="Times,serif" font-size="14.00">vectors</text>
<text text-anchor="middle" x="1141.55" y="-1062.8" font-family="Times,serif" font-size="14.00">list</text>
</g>
<!-- n4_port_0 -->
<g id="node48" class="node">
<title>n4_port_0</title>
<polygon fill="white" stroke="black" points="1486.64,-1084.33 1421.78,-1107.43 1356.93,-1084.33 1356.99,-1046.96 1486.58,-1046.96 1486.64,-1084.33"/>
<text text-anchor="middle" x="1421.78" y="-1077.8" font-family="Times,serif" font-size="14.00">branchs</text>
<text text-anchor="middle" x="1421.78" y="-1062.8" font-family="Times,serif" font-size="14.00">list</text>
</g>
<!-- n0_place_14&#45;&gt;n4_port_0 -->
<g id="edge17" class="edge">
<title>n0_place_14&#45;&gt;n4_port_0</title>
<path fill="none" stroke="black" d="M1190.38,-1074C1233.41,-1074 1297.29,-1074 1346.89,-1074"/>
<polygon fill="black" stroke="black" points="1346.92,-1077.5 1356.92,-1074 1346.92,-1070.5 1346.92,-1077.5"/>
</g>
<!-- n3_port_2 -->
<g id="node39" class="node">
<title>n3_port_2</title>
<polygon fill="white" stroke="black" points="1022.58,-493.33 920.56,-516.43 818.54,-493.33 818.63,-455.96 1022.49,-455.96 1022.58,-493.33"/>
<text text-anchor="middle" x="920.56" y="-486.8" font-family="Times,serif" font-size="14.00">sum</text>
<text text-anchor="middle" x="920.56" y="-471.8" font-family="Times,serif" font-size="14.00">unsigned long</text>
</g>
<!-- n0_place_15&#45;&gt;n3_port_2 -->
<g id="edge13" class="edge">
<title>n0_place_15&#45;&gt;n3_port_2</title>
<path fill="none" stroke="black" d="M763.32,-423.07C786.97,-432.14 814.2,-442.59 839.23,-452.19"/>
<polygon fill="black" stroke="black" points="838.12,-455.51 848.71,-455.82 840.62,-448.97 838.12,-455.51"/>
</g>
<!-- n0_place_16 -->
<g id="node25" class="node">
<title>n0_place_16</title>
<ellipse fill="white" stroke="black" cx="699.57" cy="-609" rx="35.21" ry="37.45"/>
<text text-anchor="middle" x="699.57" y="-620.3" font-family="Times,serif" font-size="14.00">limit</text>
<text text-anchor="middle" x="699.57" y="-605.3" font-family="Times,serif" font-size="14.00">int</text>
<text text-anchor="middle" x="699.57" y="-590.3" font-family="Times,serif" font-size="14.00">0</text>
</g>
<!-- n3_port_4 -->
<g id="node40" class="node">
<title>n3_port_4</title>
<polygon fill="white" stroke="black" points="964.46,-661.33 920.56,-684.43 876.66,-661.33 876.7,-623.96 964.42,-623.96 964.46,-661.33"/>
<text text-anchor="middle" x="920.56" y="-654.8" font-family="Times,serif" font-size="14.00">limit</text>
<text text-anchor="middle" x="920.56" y="-639.8" font-family="Times,serif" font-size="14.00">int</text>
</g>
<!-- n0_place_16&#45;&gt;n3_port_4 -->
<g id="edge12" class="edge">
<title>n0_place_16&#45;&gt;n3_port_4</title>
<path fill="none" stroke="black" d="M734.78,-615.56C770.12,-622.34 825.74,-633.01 866.73,-640.87"/>
<polygon fill="black" stroke="black" points="866.07,-644.31 876.56,-642.75 867.39,-637.43 866.07,-644.31"/>
</g>
<!-- n1_condition -->
<g id="node26" class="node">
<title>n1_condition</title>
<polygon fill="white" stroke="black" points="1374.28,-1801 1374.28,-1837 1469.28,-1837 1469.28,-1801 1374.28,-1801"/>
<text text-anchor="middle" x="1421.78" y="-1815.3" font-family="Times,serif" font-size="14.00">transition6</text>
</g>
<!-- n1_port_2 -->
<g id="node30" class="node">
<title>n1_port_2</title>
<polygon fill="white" stroke="black" points="1319.76,-1570.67 1421.78,-1547.57 1523.81,-1570.67 1523.71,-1608.04 1319.86,-1608.04 1319.76,-1570.67"/>
<text text-anchor="middle" x="1421.78" y="-1584.8" font-family="Times,serif" font-size="14.00">stop1</text>
<text text-anchor="middle" x="1421.78" y="-1569.8" font-family="Times,serif" font-size="14.00">unsigned long</text>
</g>
<!-- n1_port_2&#45;&gt;n0_place_1 -->
<g id="edge1" class="edge">
<title>n1_port_2&#45;&gt;n0_place_1</title>
<path fill="none" stroke="black" d="M1319.49,-1605.56C1297.3,-1611.13 1273.97,-1617.14 1252.28,-1623 1242.09,-1625.76 1231.39,-1628.75 1220.84,-1631.76"/>
<polygon fill="black" stroke="black" points="1219.86,-1628.4 1211.21,-1634.53 1221.79,-1635.13 1219.86,-1628.4"/>
</g>
<!-- n1_port_4 -->
<g id="node31" class="node">
<title>n1_port_4</title>
<polygon fill="white" stroke="black" points="1319.76,-1402.67 1421.78,-1379.57 1523.81,-1402.67 1523.71,-1440.04 1319.86,-1440.04 1319.76,-1402.67"/>
<text text-anchor="middle" x="1421.78" y="-1416.8" font-family="Times,serif" font-size="14.00">sum_out</text>
<text text-anchor="middle" x="1421.78" y="-1401.8" font-family="Times,serif" font-size="14.00">unsigned long</text>
</g>
<!-- n1_port_4&#45;&gt;n0_place_5 -->
<g id="edge2" class="edge">
<title>n1_port_4&#45;&gt;n0_place_5</title>
<path fill="none" stroke="black" d="M1523.75,-1437.04C1546.06,-1442.67 1569.53,-1448.83 1591.28,-1455 1605.12,-1458.93 1619.84,-1463.41 1633.85,-1467.82"/>
<polygon fill="black" stroke="black" points="1632.83,-1471.17 1643.42,-1470.86 1634.95,-1464.5 1632.83,-1471.17"/>
</g>
<!-- n1_modcall -->
<g id="node32" class="node">
<title>n1_modcall</title>
<polygon fill="white" stroke="black" points="1512.28,-1362 1331.28,-1362 1331.28,-1326 1512.28,-1326 1512.28,-1362"/>
<text text-anchor="middle" x="1421.78" y="-1340.3" font-family="Times,serif" font-size="14.00">feynman_module.finish</text>
</g>
<!-- n2_condition -->
<g id="node33" class="node">
<title>n2_condition</title>
<polygon fill="white" stroke="black" points="1837.51,-1697 1837.51,-1759 2008.51,-1759 2008.51,-1697 1837.51,-1697"/>
<text text-anchor="middle" x="1923.01" y="-1743.8" font-family="Times,serif" font-size="14.00">transition7</text>
<polyline fill="none" stroke="black" points="1837.51,-1736 2008.51,-1736 "/>
<text text-anchor="middle" x="1923.01" y="-1720.8" font-family="Times,serif" font-size="14.00">(${sum_out} != 0UL)</text>
</g>
<!-- n2_port_1 -->
<g id="node35" class="node">
<title>n2_port_1</title>
<polygon fill="white" stroke="black" points="1820.99,-1550.67 1923.01,-1527.57 2025.03,-1550.67 2024.94,-1588.04 1821.08,-1588.04 1820.99,-1550.67"/>
<text text-anchor="middle" x="1923.01" y="-1564.8" font-family="Times,serif" font-size="14.00">sum_out</text>
<text text-anchor="middle" x="1923.01" y="-1549.8" font-family="Times,serif" font-size="14.00">unsigned long</text>
</g>
<!-- n2_port_1&#45;&gt;n0_place_4 -->
<g id="edge6" class="edge">
<title>n2_port_1&#45;&gt;n0_place_4</title>
<path fill="none" stroke="black" d="M2007.34,-1588.08C2016.43,-1592.46 2025.27,-1597.42 2033.27,-1603 2068.48,-1627.54 2099.79,-1665.72 2119.87,-1693.43"/>
<polygon fill="black" stroke="black" points="2117.08,-1695.54 2125.73,-1701.66 2122.78,-1691.49 2117.08,-1695.54"/>
</g>
<!-- n2_modcall -->
<g id="node36" class="node">
<title>n2_modcall</title>
<polygon fill="white" stroke="black" points="2017.51,-1510 1828.51,-1510 1828.51,-1474 2017.51,-1474 2017.51,-1510"/>
<text text-anchor="middle" x="1923.01" y="-1488.3" font-family="Times,serif" font-size="14.00">feynman_module.output</text>
</g>
<!-- n3_condition -->
<g id="node37" class="node">
<title>n3_condition</title>
<polygon fill="white" stroke="black" points="873.06,-871 873.06,-907 968.06,-907 968.06,-871 873.06,-871"/>
<text text-anchor="middle" x="920.56" y="-885.3" font-family="Times,serif" font-size="14.00">transition5</text>
</g>
<!-- n3_port_1 -->
<g id="node42" class="node">
<title>n3_port_1</title>
<polygon fill="white" stroke="black" points="858.45,-808.67 920.56,-785.57 982.67,-808.67 982.61,-846.04 858.51,-846.04 858.45,-808.67"/>
<text text-anchor="middle" x="920.56" y="-822.8" font-family="Times,serif" font-size="14.00">counter</text>
<text text-anchor="middle" x="920.56" y="-807.8" font-family="Times,serif" font-size="14.00">int</text>
</g>
<!-- n3_port_1&#45;&gt;n0_place_0 -->
<g id="edge10" class="edge">
<title>n3_port_1&#45;&gt;n0_place_0</title>
<path fill="none" stroke="black" d="M858.43,-829.59C840.01,-835.9 821.68,-845.96 810.3,-862 763.39,-928.11 813.16,-1516.05 782.3,-1591 773.72,-1611.84 757.95,-1630.86 742.53,-1645.92"/>
<polygon fill="black" stroke="black" points="739.91,-1643.58 735.03,-1652.98 744.71,-1648.68 739.91,-1643.58"/>
</g>
<!-- n3_port_3 -->
<g id="node43" class="node">
<title>n3_port_3</title>
<polygon fill="white" stroke="black" points="818.54,-388.67 920.56,-365.57 1022.58,-388.67 1022.49,-426.04 818.63,-426.04 818.54,-388.67"/>
<text text-anchor="middle" x="920.56" y="-402.8" font-family="Times,serif" font-size="14.00">sum</text>
<text text-anchor="middle" x="920.56" y="-387.8" font-family="Times,serif" font-size="14.00">unsigned long</text>
</g>
<!-- n3_port_3&#45;&gt;n0_place_15 -->
<g id="edge9" class="edge">
<title>n3_port_3&#45;&gt;n0_place_15</title>
<path fill="none" stroke="black" d="M818.55,-399C809.85,-399 801.08,-399 792.46,-399"/>
<polygon fill="black" stroke="black" points="792.42,-395.5 782.42,-399 792.42,-402.5 792.42,-395.5"/>
</g>
<!-- n3_port_5 -->
<g id="node44" class="node">
<title>n3_port_5</title>
<polygon fill="white" stroke="black" points="876.66,-556.67 920.56,-533.57 964.46,-556.67 964.42,-594.04 876.7,-594.04 876.66,-556.67"/>
<text text-anchor="middle" x="920.56" y="-570.8" font-family="Times,serif" font-size="14.00">limit</text>
<text text-anchor="middle" x="920.56" y="-555.8" font-family="Times,serif" font-size="14.00">int</text>
</g>
<!-- n3_port_5&#45;&gt;n0_place_16 -->
<g id="edge8" class="edge">
<title>n3_port_5&#45;&gt;n0_place_16</title>
<path fill="none" stroke="black" d="M876.56,-575.25C838.46,-582.55 783.07,-593.18 744.65,-600.54"/>
<polygon fill="black" stroke="black" points="743.95,-597.12 734.78,-602.44 745.26,-603.99 743.95,-597.12"/>
</g>
<!-- n3_port_7 -->
<g id="node45" class="node">
<title>n3_port_7</title>
<polygon fill="white" stroke="black" points="818.54,-220.67 920.56,-197.57 1022.58,-220.67 1022.49,-258.04 818.63,-258.04 818.54,-220.67"/>
<text text-anchor="middle" x="920.56" y="-234.8" font-family="Times,serif" font-size="14.00">sum_copy</text>
<text text-anchor="middle" x="920.56" y="-219.8" font-family="Times,serif" font-size="14.00">unsigned long</text>
</g>
<!-- n3_port_7&#45;&gt;n0_place_6 -->
<g id="edge11" class="edge">
<title>n3_port_7&#45;&gt;n0_place_6</title>
<path fill="none" stroke="black" d="M1012.52,-258.12C1019.22,-262.38 1025.45,-267.31 1030.82,-273 1113.29,-360.34 1133.78,-509.79 1138.87,-578.92"/>
<polygon fill="black" stroke="black" points="1135.38,-579.17 1139.54,-588.91 1142.36,-578.7 1135.38,-579.17"/>
</g>
<!-- n3_modcall -->
<g id="node46" class="node">
<title>n3_modcall</title>
<polygon fill="white" stroke="black" points="1006.56,-180 834.56,-180 834.56,-144 1006.56,-144 1006.56,-180"/>
<text text-anchor="middle" x="920.56" y="-158.3" font-family="Times,serif" font-size="14.00">feynman_module.plus</text>
</g>
<!-- n4_condition -->
<g id="node47" class="node">
<title>n4_condition</title>
<polygon fill="white" stroke="black" points="1374.28,-1210 1374.28,-1246 1469.28,-1246 1469.28,-1210 1374.28,-1210"/>
<text text-anchor="middle" x="1421.78" y="-1224.3" font-family="Times,serif" font-size="14.00">transition4</text>
</g>
<!-- n4_port_2 -->
<g id="node50" class="node">
<title>n4_port_2</title>
<polygon fill="white" stroke="black" points="1319.76,-979.67 1421.78,-956.57 1523.81,-979.67 1523.71,-1017.04 1319.86,-1017.04 1319.76,-979.67"/>
<text text-anchor="middle" x="1421.78" y="-993.8" font-family="Times,serif" font-size="14.00">s</text>
<text text-anchor="middle" x="1421.78" y="-978.8" font-family="Times,serif" font-size="14.00">unsigned long</text>
</g>
<!-- n4_port_2&#45;&gt;n0_place_12 -->
<g id="edge16" class="edge">
<title>n4_port_2&#45;&gt;n0_place_12</title>
<path fill="none" stroke="black" d="M1319.56,-985.46C1294.09,-979.31 1269.21,-968.04 1252.28,-948 1199.37,-885.34 1243.92,-659.63 1224.28,-580 1172.35,-369.43 1212.05,-251.14 1030.82,-132 948.92,-78.16 901.61,-96.38 810.3,-132 776.06,-145.36 746.05,-174.96 726.11,-198.68"/>
<polygon fill="black" stroke="black" points="723.36,-196.51 719.74,-206.47 728.78,-200.94 723.36,-196.51"/>
</g>
<!-- n4_modcall -->
<g id="node51" class="node">
<title>n4_modcall</title>
<polygon fill="white" stroke="black" points="1583.28,-939 1260.28,-939 1260.28,-903 1583.28,-903 1583.28,-939"/>
<text text-anchor="middle" x="1421.78" y="-917.3" font-family="Times,serif" font-size="14.00">feynman_module.feynman_integral_degree</text>
</g>
<!-- n5_condition -->
<g id="node52" class="node">
<title>n5_condition</title>
<polygon fill="white" stroke="black" points="851.06,-1775 851.06,-1837 990.06,-1837 990.06,-1775 851.06,-1775"/>
<text text-anchor="middle" x="920.56" y="-1821.8" font-family="Times,serif" font-size="14.00">transition3</text>
<polyline fill="none" stroke="black" points="851.06,-1814 990.06,-1814 "/>
<text text-anchor="middle" x="920.56" y="-1798.8" font-family="Times,serif" font-size="14.00">(${counter} &gt; 0)</text>
</g>
<!-- n5_port_2 -->
<g id="node56" class="node">
<title>n5_port_2</title>
<polygon fill="white" stroke="black" points="884.89,-1376.67 920.56,-1353.57 956.23,-1376.67 956.2,-1414.04 884.92,-1414.04 884.89,-1376.67"/>
<text text-anchor="middle" x="920.56" y="-1390.8" font-family="Times,serif" font-size="14.00">vec</text>
<text text-anchor="middle" x="920.56" y="-1375.8" font-family="Times,serif" font-size="14.00">list</text>
</g>
<!-- n5_port_2&#45;&gt;n0_place_14 -->
<g id="edge20" class="edge">
<title>n5_port_2&#45;&gt;n0_place_14</title>
<path fill="none" stroke="black" d="M955.82,-1379.22C979.31,-1373.67 1009.94,-1362.98 1029.42,-1343.57 1095.35,-1279.22 1122.92,-1168.22 1133.17,-1110.77"/>
<path fill="none" stroke="transparent" d="M956.28,-1381.17C979.97,-1375.55 1010.6,-1364.87 1030.82,-1345 1097.29,-1279.7 1124.86,-1168.7 1135.14,-1111.12"/>
<path fill="none" stroke="black" d="M956.74,-1383.11C980.63,-1377.44 1011.26,-1366.76 1032.22,-1346.43 1099.23,-1280.18 1126.8,-1169.18 1137.1,-1111.47"/>
<polygon fill="black" stroke="black" points="1138.63,-1111.46 1136.86,-1101.01 1131.73,-1110.28 1138.63,-1111.46"/>
</g>
<!-- n5_port_3 -->
<g id="node57" class="node">
<title>n5_port_3</title>
<polygon fill="white" stroke="black" points="850.71,-1628.67 920.56,-1605.57 990.41,-1628.67 990.34,-1666.04 850.78,-1666.04 850.71,-1628.67"/>
<text text-anchor="middle" x="920.56" y="-1642.8" font-family="Times,serif" font-size="14.00">vec_copy</text>
<text text-anchor="middle" x="920.56" y="-1627.8" font-family="Times,serif" font-size="14.00">list</text>
</g>
<!-- n5_port_3&#45;&gt;n0_place_3 -->
<g id="edge19" class="edge">
<title>n5_port_3&#45;&gt;n0_place_3</title>
<path fill="none" stroke="black" d="M981.92,-1624.01C999.11,-1617.84 1016.88,-1608.64 1029.39,-1595.61 1055.59,-1571.33 1033.16,-1547.24 1057.29,-1515.72 1068.27,-1502.74 1083.2,-1492.92 1097.61,-1485.55"/>
<path fill="none" stroke="transparent" d="M982.6,-1625.9C1000.03,-1619.62 1017.8,-1610.42 1030.82,-1597 1057.05,-1569.96 1034.63,-1545.87 1058.82,-1517 1069.37,-1504.41 1084.3,-1494.6 1098.52,-1487.33"/>
<path fill="none" stroke="black" d="M983.28,-1627.78C1000.95,-1621.39 1018.72,-1612.2 1032.26,-1598.39 1058.52,-1568.6 1036.09,-1544.51 1060.35,-1518.28 1070.47,-1506.08 1085.4,-1496.27 1099.43,-1489.11"/>
<polygon fill="black" stroke="black" points="1100.21,-1490.4 1107.71,-1482.92 1097.18,-1484.09 1100.21,-1490.4"/>
</g>
<!-- n5_modcall -->
<g id="node58" class="node">
<title>n5_modcall</title>
<polygon fill="white" stroke="black" points="1019.06,-1336 822.06,-1336 822.06,-1300 1019.06,-1300 1019.06,-1336"/>
<text text-anchor="middle" x="920.56" y="-1314.3" font-family="Times,serif" font-size="14.00">feynman_module.iterator</text>
</g>
<!-- n6_condition -->
<g id="node59" class="node">
<title>n6_condition</title>
<polygon fill="white" stroke="black" points="873.06,-1239 873.06,-1275 968.06,-1275 968.06,-1239 873.06,-1239"/>
<text text-anchor="middle" x="920.56" y="-1253.3" font-family="Times,serif" font-size="14.00">transition2</text>
</g>
<!-- n6_port_1 -->
<g id="node61" class="node">
<title>n6_port_1</title>
<polygon fill="white" stroke="black" points="884.89,-1008.67 920.56,-985.57 956.23,-1008.67 956.2,-1046.04 884.92,-1046.04 884.89,-1008.67"/>
<text text-anchor="middle" x="920.56" y="-1022.8" font-family="Times,serif" font-size="14.00">vec</text>
<text text-anchor="middle" x="920.56" y="-1007.8" font-family="Times,serif" font-size="14.00">list</text>
</g>
<!-- n6_port_1&#45;&gt;n0_place_14 -->
<g id="edge25" class="edge">
<title>n6_port_1&#45;&gt;n0_place_14</title>
<path fill="none" stroke="black" d="M956.75,-1025.78C991.96,-1034.62 1046.93,-1048.42 1087.68,-1058.66"/>
<path fill="none" stroke="transparent" d="M956.26,-1027.71C991.47,-1036.56 1046.44,-1050.36 1087.19,-1060.6"/>
<path fill="none" stroke="black" d="M955.77,-1029.65C990.98,-1038.5 1045.95,-1052.3 1086.71,-1062.54"/>
<polygon fill="black" stroke="black" points="1086.41,-1064.01 1096.96,-1063.05 1088.12,-1057.22 1086.41,-1064.01"/>
</g>
<!-- n6_port_2 -->
<g id="node62" class="node">
<title>n6_port_2</title>
<polygon fill="white" stroke="black" points="850.71,-1092.67 920.56,-1069.57 990.41,-1092.67 990.34,-1130.04 850.78,-1130.04 850.71,-1092.67"/>
<text text-anchor="middle" x="920.56" y="-1106.8" font-family="Times,serif" font-size="14.00">vec_copy</text>
<text text-anchor="middle" x="920.56" y="-1091.8" font-family="Times,serif" font-size="14.00">list</text>
</g>
<!-- n6_port_2&#45;&gt;n0_place_3 -->
<g id="edge24" class="edge">
<title>n6_port_2&#45;&gt;n0_place_3</title>
<path fill="none" stroke="black" d="M991.14,-1117.12C1006.24,-1123.35 1020.78,-1131.75 1032.27,-1143.62 1111.44,-1226.73 1133.8,-1366.96 1140.11,-1433.65"/>
<path fill="none" stroke="transparent" d="M990.38,-1118.96C1005.24,-1125.08 1019.78,-1133.48 1030.82,-1145 1109.47,-1227.05 1131.83,-1367.28 1138.12,-1433.84"/>
<path fill="none" stroke="black" d="M989.62,-1120.81C1004.24,-1126.81 1018.78,-1135.22 1029.38,-1146.38 1107.49,-1227.36 1129.85,-1367.59 1136.13,-1434.02"/>
<polygon fill="black" stroke="black" points="1134.64,-1434.21 1139,-1443.86 1141.61,-1433.6 1134.64,-1434.21"/>
</g>
<!-- n6_modcall -->
<g id="node63" class="node">
<title>n6_modcall</title>
<polygon fill="white" stroke="black" points="1011.56,-968 829.56,-968 829.56,-932 1011.56,-932 1011.56,-968"/>
<text text-anchor="middle" x="920.56" y="-946.3" font-family="Times,serif" font-size="14.00">feynman_module.iterat</text>
</g>
<!-- n7_condition -->
<g id="node64" class="node">
<title>n7_condition</title>
<polygon fill="white" stroke="black" points="427.34,-1407 427.34,-1443 522.34,-1443 522.34,-1407 427.34,-1407"/>
<text text-anchor="middle" x="474.84" y="-1421.3" font-family="Times,serif" font-size="14.00">transition1</text>
</g>
<!-- n7_port_2 -->
<g id="node67" class="node">
<title>n7_port_2</title>
<polygon fill="white" stroke="black" points="440.66,-1176.67 474.84,-1153.57 509.01,-1176.67 508.98,-1214.04 440.69,-1214.04 440.66,-1176.67"/>
<text text-anchor="middle" x="474.84" y="-1190.8" font-family="Times,serif" font-size="14.00">v</text>
<text text-anchor="middle" x="474.84" y="-1175.8" font-family="Times,serif" font-size="14.00">list</text>
</g>
<!-- n7_port_2&#45;&gt;n0_place_10 -->
<g id="edge27" class="edge">
<title>n7_port_2&#45;&gt;n0_place_10</title>
<path fill="none" stroke="black" d="M509.18,-1185C539.48,-1185 585.27,-1185 624.23,-1185"/>
<path fill="none" stroke="transparent" d="M509.18,-1187C539.48,-1187 585.27,-1187 624.23,-1187"/>
<path fill="none" stroke="black" d="M509.18,-1189C539.48,-1189 585.27,-1189 624.23,-1189"/>
<polygon fill="black" stroke="black" points="624.5,-1190.5 634.5,-1187 624.5,-1183.5 624.5,-1190.5"/>
</g>
<!-- n7_modcall -->
<g id="node68" class="node">
<title>n7_modcall</title>
<polygon fill="white" stroke="black" points="580.84,-1136 368.84,-1136 368.84,-1100 580.84,-1100 580.84,-1136"/>
<text text-anchor="middle" x="474.84" y="-1114.3" font-family="Times,serif" font-size="14.00">feynman_module.gen_block</text>
</g>
</g>
</svg>
