<?xml version="1.0" encoding="UTF-8" standalone="no"?>
<!DOCTYPE svg PUBLIC "-//W3C//DTD SVG 1.1//EN"
 "http://www.w3.org/Graphics/SVG/1.1/DTD/svg11.dtd">
<!-- Generated by graphviz version 2.43.0 (0)
 -->
<!-- Title: template Pages: 1 -->
<svg width="1453pt" height="648pt"
 viewBox="0.00 0.00 1452.91 648.00" xmlns="http://www.w3.org/2000/svg" xmlns:xlink="http://www.w3.org/1999/xlink">
<g id="graph0" class="graph" transform="scale(1 1) rotate(0) translate(4 644)">
<title>template</title>
<polygon fill="white" stroke="transparent" points="-4,4 -4,-644 1448.91,-644 1448.91,4 -4,4"/>
<g id="clust1" class="cluster">
<title>cluster_0</title>
<polygon fill="dimgray" stroke="black" points="8,-8 8,-632 1436.91,-632 1436.91,-8 8,-8"/>
</g>
<g id="clust2" class="cluster">
<title>cluster_net_0</title>
<polygon fill="white" stroke="black" points="236.29,-90 236.29,-550 1428.91,-550 1428.91,-90 236.29,-90"/>
</g>
<g id="clust3" class="cluster">
<title>cluster_1</title>
<polygon fill="yellow" stroke="black" points="1003.18,-98 1003.18,-542 1240.18,-542 1240.18,-98 1003.18,-98"/>
</g>
<g id="clust4" class="cluster">
<title>cluster_2</title>
<polygon fill="yellow" stroke="black" points="491.49,-98 491.49,-458 719.49,-458 719.49,-98 491.49,-98"/>
</g>
<!-- n0_condition -->
<g id="node1" class="node">
<title>n0_condition</title>
<polygon fill="white" stroke="black" points="72.14,-527 72.14,-563 152.14,-563 152.14,-527 72.14,-527"/>
<text text-anchor="middle" x="112.14" y="-541.3" font-family="Times,serif" font-size="14.00">template</text>
</g>
<!-- n0_port_0 -->
<g id="node2" class="node">
<title>n0_port_0</title>
<polygon fill="white" stroke="black" points="707.51,-601.33 605.49,-624.43 503.47,-601.33 503.56,-563.96 707.42,-563.96 707.51,-601.33"/>
<text text-anchor="middle" x="605.49" y="-594.8" font-family="Times,serif" font-size="14.00">base_filename</text>
<text text-anchor="middle" x="605.49" y="-579.8" font-family="Times,serif" font-size="14.00">string</text>
</g>
<!-- n0_place_1 -->
<g id="node8" class="node">
<title>n0_place_1</title>
<ellipse fill="white" stroke="black" cx="861.33" cy="-515" rx="113.69" ry="26.74"/>
<text text-anchor="middle" x="861.33" y="-518.8" font-family="Times,serif" font-size="14.00">place_base_filename</text>
<text text-anchor="middle" x="861.33" y="-503.8" font-family="Times,serif" font-size="14.00">string</text>
</g>
<!-- n0_port_0&#45;&gt;n0_place_1 -->
<g id="edge8" class="edge">
<title>n0_port_0&#45;&gt;n0_place_1</title>
<path fill="none" stroke="black" stroke-dasharray="1,5" d="M697.06,-563.88C727.67,-554.72 761.37,-544.63 790.15,-536.01"/>
</g>
<!-- n0_port_1 -->
<g id="node3" class="node">
<title>n0_port_1</title>
<polygon fill="white" stroke="black" points="208.43,-425.33 112.14,-448.43 15.86,-425.33 15.95,-387.96 208.34,-387.96 208.43,-425.33"/>
<text text-anchor="middle" x="112.14" y="-418.8" font-family="Times,serif" font-size="14.00">library_name</text>
<text text-anchor="middle" x="112.14" y="-403.8" font-family="Times,serif" font-size="14.00">string</text>
</g>
<!-- n0_place_3 -->
<g id="node10" class="node">
<title>n0_place_3</title>
<ellipse fill="white" stroke="black" cx="353.89" cy="-415" rx="109.7" ry="26.74"/>
<text text-anchor="middle" x="353.89" y="-418.8" font-family="Times,serif" font-size="14.00">place_library_name</text>
<text text-anchor="middle" x="353.89" y="-403.8" font-family="Times,serif" font-size="14.00">string</text>
</g>
<!-- n0_port_1&#45;&gt;n0_place_3 -->
<g id="edge9" class="edge">
<title>n0_port_1&#45;&gt;n0_place_3</title>
<path fill="none" stroke="black" stroke-dasharray="1,5" d="M208.59,-415C220.21,-415 232.15,-415 243.95,-415"/>
</g>
<!-- n0_port_2 -->
<g id="node4" class="node">
<title>n0_port_2</title>
<polygon fill="white" stroke="black" points="163.78,-287.33 112.14,-310.43 60.51,-287.33 60.56,-249.96 163.73,-249.96 163.78,-287.33"/>
<text text-anchor="middle" x="112.14" y="-280.8" font-family="Times,serif" font-size="14.00">input</text>
<text text-anchor="middle" x="112.14" y="-265.8" font-family="Times,serif" font-size="14.00">string</text>
</g>
<!-- n0_place_0 -->
<g id="node7" class="node">
<title>n0_place_0</title>
<ellipse fill="white" stroke="black" cx="353.89" cy="-277" rx="69.09" ry="26.74"/>
<text text-anchor="middle" x="353.89" y="-280.8" font-family="Times,serif" font-size="14.00">place_input</text>
<text text-anchor="middle" x="353.89" y="-265.8" font-family="Times,serif" font-size="14.00">string</text>
</g>
<!-- n0_port_2&#45;&gt;n0_place_0 -->
<g id="edge10" class="edge">
<title>n0_port_2&#45;&gt;n0_place_0</title>
<path fill="none" stroke="black" stroke-dasharray="1,5" d="M163.99,-277C199.04,-277 246.03,-277 284.38,-277"/>
</g>
<!-- n0_port_3 -->
<g id="node5" class="node">
<title>n0_port_3</title>
<polygon fill="white" stroke="black" points="1065.8,-580.67 1121.68,-557.57 1177.55,-580.67 1177.5,-618.04 1065.85,-618.04 1065.8,-580.67"/>
<text text-anchor="middle" x="1121.68" y="-594.8" font-family="Times,serif" font-size="14.00">output</text>
<text text-anchor="middle" x="1121.68" y="-579.8" font-family="Times,serif" font-size="14.00">string</text>
</g>
<!-- n0_place_2 -->
<g id="node9" class="node">
<title>n0_place_2</title>
<ellipse fill="white" stroke="black" cx="1344.55" cy="-354" rx="76.24" ry="26.74"/>
<text text-anchor="middle" x="1344.55" y="-357.8" font-family="Times,serif" font-size="14.00">place_output</text>
<text text-anchor="middle" x="1344.55" y="-342.8" font-family="Times,serif" font-size="14.00">string</text>
</g>
<!-- n0_port_3&#45;&gt;n0_place_2 -->
<g id="edge11" class="edge">
<title>n0_port_3&#45;&gt;n0_place_2</title>
<path fill="none" stroke="black" stroke-dasharray="1,5" d="M1175.24,-579.55C1197.24,-572.69 1221.89,-562.08 1240.18,-546 1292.2,-500.25 1322.67,-421.8 1335.81,-380.77"/>
</g>
<!-- n0_port_4 -->
<g id="node6" class="node">
<title>n0_port_4</title>
<polygon fill="white" stroke="black" points="553.85,-38.67 605.49,-15.57 657.13,-38.67 657.08,-76.04 553.9,-76.04 553.85,-38.67"/>
<text text-anchor="middle" x="605.49" y="-52.8" font-family="Times,serif" font-size="14.00">graph</text>
<text text-anchor="middle" x="605.49" y="-37.8" font-family="Times,serif" font-size="14.00">string</text>
</g>
<!-- n0_place_4 -->
<g id="node11" class="node">
<title>n0_place_4</title>
<ellipse fill="white" stroke="black" cx="861.33" cy="-193" rx="41.94" ry="26.74"/>
<text text-anchor="middle" x="861.33" y="-196.8" font-family="Times,serif" font-size="14.00">graph</text>
<text text-anchor="middle" x="861.33" y="-181.8" font-family="Times,serif" font-size="14.00">string</text>
</g>
<!-- n0_port_4&#45;&gt;n0_place_4 -->
<g id="edge12" class="edge">
<title>n0_port_4&#45;&gt;n0_place_4</title>
<path fill="none" stroke="black" stroke-dasharray="1,5" d="M657.14,-66.28C677.04,-73.81 699.8,-83.35 719.49,-94 762.08,-117.04 807.17,-150.56 834.54,-172.08"/>
</g>
<!-- n2_port_1 -->
<g id="node20" class="node">
<title>n2_port_1</title>
<polygon fill="white" stroke="black" points="657.13,-287.33 605.49,-310.43 553.85,-287.33 553.9,-249.96 657.08,-249.96 657.13,-287.33"/>
<text text-anchor="middle" x="605.49" y="-280.8" font-family="Times,serif" font-size="14.00">input</text>
<text text-anchor="middle" x="605.49" y="-265.8" font-family="Times,serif" font-size="14.00">string</text>
</g>
<!-- n0_place_0&#45;&gt;n2_port_1 -->
<g id="edge6" class="edge">
<title>n0_place_0&#45;&gt;n2_port_1</title>
<path fill="none" stroke="black" d="M423.42,-277C460.86,-277 506.84,-277 543.09,-277"/>
<polygon fill="black" stroke="black" points="543.53,-280.5 553.53,-277 543.53,-273.5 543.53,-280.5"/>
</g>
<!-- n1_port_1 -->
<g id="node14" class="node">
<title>n1_port_1</title>
<polygon fill="white" stroke="black" points="1223.7,-455.33 1121.68,-478.43 1019.65,-455.33 1019.75,-417.96 1223.61,-417.96 1223.7,-455.33"/>
<text text-anchor="middle" x="1121.68" y="-448.8" font-family="Times,serif" font-size="14.00">base_filename</text>
<text text-anchor="middle" x="1121.68" y="-433.8" font-family="Times,serif" font-size="14.00">string</text>
</g>
<!-- n0_place_1&#45;&gt;n1_port_1 -->
<g id="edge3" class="edge">
<title>n0_place_1&#45;&gt;n1_port_1</title>
<path fill="none" stroke="black" stroke-dasharray="5,2" d="M936.71,-494.85C970.36,-485.73 1010.09,-474.96 1044.01,-465.77"/>
<polygon fill="black" stroke="black" points="1045.13,-469.1 1053.87,-463.1 1043.3,-462.34 1045.13,-469.1"/>
</g>
<!-- n1_port_0 -->
<g id="node13" class="node">
<title>n1_port_0</title>
<polygon fill="white" stroke="black" points="1217.97,-371.33 1121.68,-394.43 1025.39,-371.33 1025.48,-333.96 1217.88,-333.96 1217.97,-371.33"/>
<text text-anchor="middle" x="1121.68" y="-364.8" font-family="Times,serif" font-size="14.00">library_name</text>
<text text-anchor="middle" x="1121.68" y="-349.8" font-family="Times,serif" font-size="14.00">string</text>
</g>
<!-- n0_place_3&#45;&gt;n1_port_0 -->
<g id="edge4" class="edge">
<title>n0_place_3&#45;&gt;n1_port_0</title>
<path fill="none" stroke="black" stroke-dasharray="5,2" d="M408.97,-438.24C433.65,-447.62 463.54,-457.33 491.49,-462 698.51,-496.62 944.25,-424.45 1057.62,-384.77"/>
<polygon fill="black" stroke="black" points="1058.93,-388.02 1067.19,-381.38 1056.6,-381.42 1058.93,-388.02"/>
</g>
<!-- n2_port_0 -->
<g id="node19" class="node">
<title>n2_port_0</title>
<polygon fill="white" stroke="black" points="701.78,-371.33 605.49,-394.43 509.2,-371.33 509.29,-333.96 701.69,-333.96 701.78,-371.33"/>
<text text-anchor="middle" x="605.49" y="-364.8" font-family="Times,serif" font-size="14.00">library_name</text>
<text text-anchor="middle" x="605.49" y="-349.8" font-family="Times,serif" font-size="14.00">string</text>
</g>
<!-- n0_place_3&#45;&gt;n2_port_0 -->
<g id="edge7" class="edge">
<title>n0_place_3&#45;&gt;n2_port_0</title>
<path fill="none" stroke="black" stroke-dasharray="5,2" d="M436.62,-397.32C463.84,-391.43 494.18,-384.86 521.5,-378.95"/>
<polygon fill="black" stroke="black" points="522.39,-382.34 531.42,-376.81 520.91,-375.5 522.39,-382.34"/>
</g>
<!-- n1_port_2 -->
<g id="node15" class="node">
<title>n1_port_2</title>
<polygon fill="white" stroke="black" points="1173.31,-287.33 1121.68,-310.43 1070.04,-287.33 1070.09,-249.96 1173.27,-249.96 1173.31,-287.33"/>
<text text-anchor="middle" x="1121.68" y="-280.8" font-family="Times,serif" font-size="14.00">input</text>
<text text-anchor="middle" x="1121.68" y="-265.8" font-family="Times,serif" font-size="14.00">string</text>
</g>
<!-- n0_place_4&#45;&gt;n1_port_2 -->
<g id="edge2" class="edge">
<title>n0_place_4&#45;&gt;n1_port_2</title>
<path fill="none" stroke="black" d="M898.8,-204.86C940.66,-218.47 1009.96,-241 1059.99,-257.27"/>
<polygon fill="black" stroke="black" points="1059.13,-260.67 1069.72,-260.43 1061.3,-254.01 1059.13,-260.67"/>
</g>
<!-- n1_condition -->
<g id="node12" class="node">
<title>n1_condition</title>
<polygon fill="white" stroke="black" points="1078.18,-497 1078.18,-533 1165.18,-533 1165.18,-497 1078.18,-497"/>
<text text-anchor="middle" x="1121.68" y="-511.3" font-family="Times,serif" font-size="14.00">compute1</text>
</g>
<!-- n1_port_3 -->
<g id="node16" class="node">
<title>n1_port_3</title>
<polygon fill="white" stroke="black" points="1065.8,-182.67 1121.68,-159.57 1177.55,-182.67 1177.5,-220.04 1065.85,-220.04 1065.8,-182.67"/>
<text text-anchor="middle" x="1121.68" y="-196.8" font-family="Times,serif" font-size="14.00">output</text>
<text text-anchor="middle" x="1121.68" y="-181.8" font-family="Times,serif" font-size="14.00">string</text>
</g>
<!-- n1_port_3&#45;&gt;n0_place_2 -->
<g id="edge1" class="edge">
<title>n1_port_3&#45;&gt;n0_place_2</title>
<path fill="none" stroke="black" d="M1177.79,-206.3C1198.48,-212.88 1221.49,-222.23 1240.18,-235 1273.21,-257.57 1302.22,-293.16 1321.03,-319.55"/>
<polygon fill="black" stroke="black" points="1318.18,-321.57 1326.78,-327.77 1323.92,-317.56 1318.18,-321.57"/>
</g>
<!-- n1_modcall -->
<g id="node17" class="node">
<title>n1_modcall</title>
<polygon fill="white" stroke="black" points="1232.18,-142 1011.18,-142 1011.18,-106 1232.18,-106 1232.18,-142"/>
<text text-anchor="middle" x="1121.68" y="-120.3" font-family="Times,serif" font-size="14.00">singular_template.compute1</text>
</g>
<!-- n2_condition -->
<g id="node18" class="node">
<title>n2_condition</title>
<polygon fill="white" stroke="black" points="566.49,-413 566.49,-449 644.49,-449 644.49,-413 566.49,-413"/>
<text text-anchor="middle" x="605.49" y="-427.3" font-family="Times,serif" font-size="14.00">compute</text>
</g>
<!-- n2_port_2 -->
<g id="node21" class="node">
<title>n2_port_2</title>
<polygon fill="white" stroke="black" points="549.61,-182.67 605.49,-159.57 661.37,-182.67 661.31,-220.04 549.67,-220.04 549.61,-182.67"/>
<text text-anchor="middle" x="605.49" y="-196.8" font-family="Times,serif" font-size="14.00">output</text>
<text text-anchor="middle" x="605.49" y="-181.8" font-family="Times,serif" font-size="14.00">string</text>
</g>
<!-- n2_port_2&#45;&gt;n0_place_4 -->
<g id="edge5" class="edge">
<title>n2_port_2&#45;&gt;n0_place_4</title>
<path fill="none" stroke="black" d="M661.57,-193C705.49,-193 766.51,-193 809.32,-193"/>
<polygon fill="black" stroke="black" points="809.52,-196.5 819.52,-193 809.52,-189.5 809.52,-196.5"/>
</g>
<!-- n2_modcall -->
<g id="node22" class="node">
<title>n2_modcall</title>
<polygon fill="white" stroke="black" points="711.49,-142 499.49,-142 499.49,-106 711.49,-106 711.49,-142"/>
<text text-anchor="middle" x="605.49" y="-120.3" font-family="Times,serif" font-size="14.00">singular_template.compute</text>
</g>
</g>
</svg>
