<?xml version="1.0" encoding="UTF-8" standalone="no"?>
<!DOCTYPE svg PUBLIC "-//W3C//DTD SVG 1.1//EN"
 "http://www.w3.org/Graphics/SVG/1.1/DTD/svg11.dtd">
<!-- Generated by graphviz version 2.43.0 (0)
 -->
<!-- Title: template Pages: 1 -->
<svg width="1329pt" height="680pt"
 viewBox="0.00 0.00 1329.39 680.00" xmlns="http://www.w3.org/2000/svg" xmlns:xlink="http://www.w3.org/1999/xlink">
<g id="graph0" class="graph" transform="scale(1 1) rotate(0) translate(4 676)">
<title>template</title>
<polygon fill="white" stroke="transparent" points="-4,4 -4,-676 1325.39,-676 1325.39,4 -4,4"/>
<g id="clust1" class="cluster">
<title>cluster_0</title>
<polygon fill="dimgray" stroke="black" points="8,-8 8,-664 1313.39,-664 1313.39,-8 8,-8"/>
</g>
<g id="clust2" class="cluster">
<title>cluster_net_0</title>
<polygon fill="white" stroke="black" points="248.52,-90 248.52,-582 1305.39,-582 1305.39,-90 248.52,-90"/>
</g>
<g id="clust3" class="cluster">
<title>cluster_1</title>
<polygon fill="yellow" stroke="black" points="879.65,-130 879.65,-574 1116.65,-574 1116.65,-130 879.65,-130"/>
</g>
<g id="clust4" class="cluster">
<title>cluster_2</title>
<polygon fill="yellow" stroke="black" points="512.21,-98 512.21,-542 740.21,-542 740.21,-98 512.21,-98"/>
</g>
<!-- n0_condition -->
<g id="node1" class="node">
<title>n0_condition</title>
<polygon fill="white" stroke="black" points="78.26,-601 78.26,-637 158.26,-637 158.26,-601 78.26,-601"/>
<text text-anchor="middle" x="118.26" y="-615.3" font-family="Times,serif" font-size="14.00">template</text>
</g>
<!-- n0_port_0 -->
<g id="node2" class="node">
<title>n0_port_0</title>
<polygon fill="white" stroke="black" points="220.29,-524.33 118.26,-547.43 16.24,-524.33 16.33,-486.96 220.19,-486.96 220.29,-524.33"/>
<text text-anchor="middle" x="118.26" y="-517.8" font-family="Times,serif" font-size="14.00">base_filename</text>
<text text-anchor="middle" x="118.26" y="-502.8" font-family="Times,serif" font-size="14.00">string</text>
</g>
<!-- n0_place_1 -->
<g id="node8" class="node">
<title>n0_place_1</title>
<ellipse fill="white" stroke="black" cx="370.37" cy="-514" rx="113.69" ry="26.74"/>
<text text-anchor="middle" x="370.37" y="-517.8" font-family="Times,serif" font-size="14.00">place_base_filename</text>
<text text-anchor="middle" x="370.37" y="-502.8" font-family="Times,serif" font-size="14.00">string</text>
</g>
<!-- n0_port_0&#45;&gt;n0_place_1 -->
<g id="edge9" class="edge">
<title>n0_port_0&#45;&gt;n0_place_1</title>
<path fill="none" stroke="black" stroke-dasharray="1,5" d="M220.27,-514C232.2,-514 244.43,-514 256.51,-514"/>
</g>
<!-- n0_port_1 -->
<g id="node3" class="node">
<title>n0_port_1</title>
<polygon fill="white" stroke="black" points="214.55,-389.33 118.26,-412.43 21.97,-389.33 22.06,-351.96 214.46,-351.96 214.55,-389.33"/>
<text text-anchor="middle" x="118.26" y="-382.8" font-family="Times,serif" font-size="14.00">library_name</text>
<text text-anchor="middle" x="118.26" y="-367.8" font-family="Times,serif" font-size="14.00">string</text>
</g>
<!-- n0_place_3 -->
<g id="node10" class="node">
<title>n0_place_3</title>
<ellipse fill="white" stroke="black" cx="370.37" cy="-379" rx="109.7" ry="26.74"/>
<text text-anchor="middle" x="370.37" y="-382.8" font-family="Times,serif" font-size="14.00">place_library_name</text>
<text text-anchor="middle" x="370.37" y="-367.8" font-family="Times,serif" font-size="14.00">string</text>
</g>
<!-- n0_port_1&#45;&gt;n0_place_3 -->
<g id="edge10" class="edge">
<title>n0_port_1&#45;&gt;n0_place_3</title>
<path fill="none" stroke="black" stroke-dasharray="1,5" d="M214.53,-379C229.58,-379 245.23,-379 260.56,-379"/>
</g>
<!-- n0_port_2 -->
<g id="node4" class="node">
<title>n0_port_2</title>
<polygon fill="white" stroke="black" points="169.9,-287.33 118.26,-310.43 66.63,-287.33 66.67,-249.96 169.85,-249.96 169.9,-287.33"/>
<text text-anchor="middle" x="118.26" y="-280.8" font-family="Times,serif" font-size="14.00">input</text>
<text text-anchor="middle" x="118.26" y="-265.8" font-family="Times,serif" font-size="14.00">string</text>
</g>
<!-- n0_place_0 -->
<g id="node7" class="node">
<title>n0_place_0</title>
<ellipse fill="white" stroke="black" cx="370.37" cy="-277" rx="69.09" ry="26.74"/>
<text text-anchor="middle" x="370.37" y="-280.8" font-family="Times,serif" font-size="14.00">place_input</text>
<text text-anchor="middle" x="370.37" y="-265.8" font-family="Times,serif" font-size="14.00">string</text>
</g>
<!-- n0_port_2&#45;&gt;n0_place_0 -->
<g id="edge11" class="edge">
<title>n0_port_2&#45;&gt;n0_place_0</title>
<path fill="none" stroke="black" stroke-dasharray="1,5" d="M169.87,-277C207.56,-277 259.42,-277 300.82,-277"/>
</g>
<!-- n0_port_3 -->
<g id="node5" class="node">
<title>n0_port_3</title>
<polygon fill="white" stroke="black" points="942.27,-612.67 998.15,-589.57 1054.03,-612.67 1053.97,-650.04 942.33,-650.04 942.27,-612.67"/>
<text text-anchor="middle" x="998.15" y="-626.8" font-family="Times,serif" font-size="14.00">output</text>
<text text-anchor="middle" x="998.15" y="-611.8" font-family="Times,serif" font-size="14.00">string</text>
</g>
<!-- n0_place_2 -->
<g id="node9" class="node">
<title>n0_place_2</title>
<ellipse fill="white" stroke="black" cx="1221.02" cy="-386" rx="76.24" ry="26.74"/>
<text text-anchor="middle" x="1221.02" y="-389.8" font-family="Times,serif" font-size="14.00">place_output</text>
<text text-anchor="middle" x="1221.02" y="-374.8" font-family="Times,serif" font-size="14.00">string</text>
</g>
<!-- n0_port_3&#45;&gt;n0_place_2 -->
<g id="edge12" class="edge">
<title>n0_port_3&#45;&gt;n0_place_2</title>
<path fill="none" stroke="black" stroke-dasharray="1,5" d="M1051.72,-611.55C1073.71,-604.69 1098.36,-594.08 1116.65,-578 1168.67,-532.25 1199.14,-453.8 1212.29,-412.77"/>
</g>
<!-- n0_port_4 -->
<g id="node6" class="node">
<title>n0_port_4</title>
<polygon fill="white" stroke="black" points="574.58,-38.67 626.21,-15.57 677.85,-38.67 677.8,-76.04 574.62,-76.04 574.58,-38.67"/>
<text text-anchor="middle" x="626.21" y="-52.8" font-family="Times,serif" font-size="14.00">graph</text>
<text text-anchor="middle" x="626.21" y="-37.8" font-family="Times,serif" font-size="14.00">string</text>
</g>
<!-- n0_place_4 -->
<g id="node11" class="node">
<title>n0_place_4</title>
<ellipse fill="white" stroke="black" cx="809.93" cy="-193" rx="41.94" ry="26.74"/>
<text text-anchor="middle" x="809.93" y="-196.8" font-family="Times,serif" font-size="14.00">graph</text>
<text text-anchor="middle" x="809.93" y="-181.8" font-family="Times,serif" font-size="14.00">string</text>
</g>
<!-- n0_port_4&#45;&gt;n0_place_4 -->
<g id="edge13" class="edge">
<title>n0_port_4&#45;&gt;n0_place_4</title>
<path fill="none" stroke="black" stroke-dasharray="1,5" d="M677.81,-62.11C698.61,-69.21 722.03,-79.55 740.21,-94 765.27,-113.92 784.92,-145.39 796.68,-167.49"/>
</g>
<!-- n2_port_2 -->
<g id="node21" class="node">
<title>n2_port_2</title>
<polygon fill="white" stroke="black" points="677.85,-287.33 626.21,-310.43 574.58,-287.33 574.62,-249.96 677.8,-249.96 677.85,-287.33"/>
<text text-anchor="middle" x="626.21" y="-280.8" font-family="Times,serif" font-size="14.00">input</text>
<text text-anchor="middle" x="626.21" y="-265.8" font-family="Times,serif" font-size="14.00">string</text>
</g>
<!-- n0_place_0&#45;&gt;n2_port_2 -->
<g id="edge6" class="edge">
<title>n0_place_0&#45;&gt;n2_port_2</title>
<path fill="none" stroke="black" d="M439.73,-277C478.52,-277 526.66,-277 564.17,-277"/>
<polygon fill="black" stroke="black" points="564.45,-280.5 574.45,-277 564.45,-273.5 564.45,-280.5"/>
</g>
<!-- n1_port_1 -->
<g id="node14" class="node">
<title>n1_port_1</title>
<polygon fill="white" stroke="black" points="1100.17,-487.33 998.15,-510.43 896.13,-487.33 896.22,-449.96 1100.08,-449.96 1100.17,-487.33"/>
<text text-anchor="middle" x="998.15" y="-480.8" font-family="Times,serif" font-size="14.00">base_filename</text>
<text text-anchor="middle" x="998.15" y="-465.8" font-family="Times,serif" font-size="14.00">string</text>
</g>
<!-- n0_place_1&#45;&gt;n1_port_1 -->
<g id="edge3" class="edge">
<title>n0_place_1&#45;&gt;n1_port_1</title>
<path fill="none" stroke="black" stroke-dasharray="5,2" d="M429.66,-537.09C454.66,-545.81 484.44,-554.67 512.21,-559 612.34,-574.61 640.08,-574.59 740.21,-559 777.07,-553.26 867.57,-522.91 930.66,-500.8"/>
<polygon fill="black" stroke="black" points="931.88,-504.08 940.15,-497.46 929.56,-497.47 931.88,-504.08"/>
</g>
<!-- n2_port_1 -->
<g id="node20" class="node">
<title>n2_port_1</title>
<polygon fill="white" stroke="black" points="728.24,-455.33 626.21,-478.43 524.19,-455.33 524.28,-417.96 728.14,-417.96 728.24,-455.33"/>
<text text-anchor="middle" x="626.21" y="-448.8" font-family="Times,serif" font-size="14.00">base_filename</text>
<text text-anchor="middle" x="626.21" y="-433.8" font-family="Times,serif" font-size="14.00">string</text>
</g>
<!-- n0_place_1&#45;&gt;n2_port_1 -->
<g id="edge7" class="edge">
<title>n0_place_1&#45;&gt;n2_port_1</title>
<path fill="none" stroke="black" stroke-dasharray="5,2" d="M445.81,-493.76C478.16,-484.97 516.03,-474.68 548.62,-465.82"/>
<polygon fill="black" stroke="black" points="549.82,-469.12 558.55,-463.12 547.98,-462.37 549.82,-469.12"/>
</g>
<!-- n1_port_0 -->
<g id="node13" class="node">
<title>n1_port_0</title>
<polygon fill="white" stroke="black" points="1094.44,-403.33 998.15,-426.43 901.86,-403.33 901.95,-365.96 1094.35,-365.96 1094.44,-403.33"/>
<text text-anchor="middle" x="998.15" y="-396.8" font-family="Times,serif" font-size="14.00">library_name</text>
<text text-anchor="middle" x="998.15" y="-381.8" font-family="Times,serif" font-size="14.00">string</text>
</g>
<!-- n0_place_3&#45;&gt;n1_port_0 -->
<g id="edge4" class="edge">
<title>n0_place_3&#45;&gt;n1_port_0</title>
<path fill="none" stroke="black" stroke-dasharray="5,2" d="M408.12,-404.26C432.36,-422.45 463.37,-448.85 484.21,-478 503.22,-504.59 485.06,-527.81 512.21,-546 554.31,-574.19 692.38,-562.71 740.21,-546 814.99,-519.87 810.43,-473.52 879.65,-435 893.68,-427.19 909.44,-420.39 924.74,-414.65"/>
<polygon fill="black" stroke="black" points="925.99,-417.93 934.19,-411.22 923.6,-411.34 925.99,-417.93"/>
</g>
<!-- n2_port_0 -->
<g id="node19" class="node">
<title>n2_port_0</title>
<polygon fill="white" stroke="black" points="722.5,-371.33 626.21,-394.43 529.92,-371.33 530.01,-333.96 722.41,-333.96 722.5,-371.33"/>
<text text-anchor="middle" x="626.21" y="-364.8" font-family="Times,serif" font-size="14.00">library_name</text>
<text text-anchor="middle" x="626.21" y="-349.8" font-family="Times,serif" font-size="14.00">string</text>
</g>
<!-- n0_place_3&#45;&gt;n2_port_0 -->
<g id="edge8" class="edge">
<title>n0_place_3&#45;&gt;n2_port_0</title>
<path fill="none" stroke="black" stroke-dasharray="5,2" d="M476.08,-371.57C490.37,-370.56 505.04,-369.52 519.35,-368.51"/>
<polygon fill="black" stroke="black" points="519.96,-371.97 529.69,-367.77 519.47,-364.99 519.96,-371.97"/>
</g>
<!-- n1_port_2 -->
<g id="node15" class="node">
<title>n1_port_2</title>
<polygon fill="white" stroke="black" points="1049.79,-319.33 998.15,-342.43 946.51,-319.33 946.56,-281.96 1049.74,-281.96 1049.79,-319.33"/>
<text text-anchor="middle" x="998.15" y="-312.8" font-family="Times,serif" font-size="14.00">input</text>
<text text-anchor="middle" x="998.15" y="-297.8" font-family="Times,serif" font-size="14.00">string</text>
</g>
<!-- n0_place_4&#45;&gt;n1_port_2 -->
<g id="edge2" class="edge">
<title>n0_place_4&#45;&gt;n1_port_2</title>
<path fill="none" stroke="black" d="M828.4,-217.18C841.06,-233.22 859.45,-253.68 879.65,-267 896.9,-278.37 917.61,-287.1 936.8,-293.58"/>
<polygon fill="black" stroke="black" points="935.79,-296.93 946.38,-296.67 937.94,-290.27 935.79,-296.93"/>
</g>
<!-- n1_condition -->
<g id="node12" class="node">
<title>n1_condition</title>
<polygon fill="white" stroke="black" points="954.65,-529 954.65,-565 1041.65,-565 1041.65,-529 954.65,-529"/>
<text text-anchor="middle" x="998.15" y="-543.3" font-family="Times,serif" font-size="14.00">compute1</text>
</g>
<!-- n1_port_3 -->
<g id="node16" class="node">
<title>n1_port_3</title>
<polygon fill="white" stroke="black" points="942.27,-214.67 998.15,-191.57 1054.03,-214.67 1053.97,-252.04 942.33,-252.04 942.27,-214.67"/>
<text text-anchor="middle" x="998.15" y="-228.8" font-family="Times,serif" font-size="14.00">output</text>
<text text-anchor="middle" x="998.15" y="-213.8" font-family="Times,serif" font-size="14.00">string</text>
</g>
<!-- n1_port_3&#45;&gt;n0_place_2 -->
<g id="edge1" class="edge">
<title>n1_port_3&#45;&gt;n0_place_2</title>
<path fill="none" stroke="black" d="M1054.26,-238.3C1074.95,-244.88 1097.96,-254.23 1116.65,-267 1149.68,-289.57 1178.69,-325.16 1197.51,-351.55"/>
<polygon fill="black" stroke="black" points="1194.65,-353.57 1203.25,-359.77 1200.39,-349.56 1194.65,-353.57"/>
</g>
<!-- n1_modcall -->
<g id="node17" class="node">
<title>n1_modcall</title>
<polygon fill="white" stroke="black" points="1108.65,-174 887.65,-174 887.65,-138 1108.65,-138 1108.65,-174"/>
<text text-anchor="middle" x="998.15" y="-152.3" font-family="Times,serif" font-size="14.00">singular_template.compute1</text>
</g>
<!-- n2_condition -->
<g id="node18" class="node">
<title>n2_condition</title>
<polygon fill="white" stroke="black" points="587.21,-497 587.21,-533 665.21,-533 665.21,-497 587.21,-497"/>
<text text-anchor="middle" x="626.21" y="-511.3" font-family="Times,serif" font-size="14.00">compute</text>
</g>
<!-- n2_port_3 -->
<g id="node22" class="node">
<title>n2_port_3</title>
<polygon fill="white" stroke="black" points="570.34,-182.67 626.21,-159.57 682.09,-182.67 682.04,-220.04 570.39,-220.04 570.34,-182.67"/>
<text text-anchor="middle" x="626.21" y="-196.8" font-family="Times,serif" font-size="14.00">output</text>
<text text-anchor="middle" x="626.21" y="-181.8" font-family="Times,serif" font-size="14.00">string</text>
</g>
<!-- n2_port_3&#45;&gt;n0_place_4 -->
<g id="edge5" class="edge">
<title>n2_port_3&#45;&gt;n0_place_4</title>
<path fill="none" stroke="black" d="M682.23,-193C706.25,-193 734.25,-193 757.82,-193"/>
<polygon fill="black" stroke="black" points="757.96,-196.5 767.96,-193 757.96,-189.5 757.96,-196.5"/>
</g>
<!-- n2_modcall -->
<g id="node23" class="node">
<title>n2_modcall</title>
<polygon fill="white" stroke="black" points="732.21,-142 520.21,-142 520.21,-106 732.21,-106 732.21,-142"/>
<text text-anchor="middle" x="626.21" y="-120.3" font-family="Times,serif" font-size="14.00">singular_template.compute</text>
</g>
</g>
</svg>
