<?xml version="1.0" encoding="UTF-8" standalone="no"?>
<!DOCTYPE svg PUBLIC "-//W3C//DTD SVG 1.1//EN"
 "http://www.w3.org/Graphics/SVG/1.1/DTD/svg11.dtd">
<!-- Generated by graphviz version 2.43.0 (0)
 -->
<!-- Title: template Pages: 1 -->
<svg width="1329pt" height="648pt"
 viewBox="0.00 0.00 1329.39 648.00" xmlns="http://www.w3.org/2000/svg" xmlns:xlink="http://www.w3.org/1999/xlink">
<g id="graph0" class="graph" transform="scale(1 1) rotate(0) translate(4 644)">
<title>template</title>
<polygon fill="white" stroke="transparent" points="-4,4 -4,-644 1325.39,-644 1325.39,4 -4,4"/>
<g id="clust1" class="cluster">
<title>cluster_0</title>
<polygon fill="dimgray" stroke="black" points="8,-8 8,-632 1313.39,-632 1313.39,-8 8,-8"/>
</g>
<g id="clust2" class="cluster">
<title>cluster_net_0</title>
<polygon fill="white" stroke="black" points="248.52,-90 248.52,-550 1305.39,-550 1305.39,-90 248.52,-90"/>
</g>
<g id="clust3" class="cluster">
<title>cluster_1</title>
<polygon fill="yellow" stroke="black" points="879.65,-98 879.65,-542 1116.65,-542 1116.65,-98 879.65,-98"/>
</g>
<g id="clust4" class="cluster">
<title>cluster_2</title>
<polygon fill="yellow" stroke="black" points="512.21,-107 512.21,-383 740.21,-383 740.21,-107 512.21,-107"/>
</g>
<!-- n0_condition -->
<g id="node1" class="node">
<title>n0_condition</title>
<polygon fill="white" stroke="black" points="78.26,-577 78.26,-613 158.26,-613 158.26,-577 78.26,-577"/>
<text text-anchor="middle" x="118.26" y="-591.3" font-family="Times,serif" font-size="14.00">template</text>
</g>
<!-- n0_port_0 -->
<g id="node2" class="node">
<title>n0_port_0</title>
<polygon fill="white" stroke="black" points="220.29,-516.33 118.26,-539.43 16.24,-516.33 16.33,-478.96 220.19,-478.96 220.29,-516.33"/>
<text text-anchor="middle" x="118.26" y="-509.8" font-family="Times,serif" font-size="14.00">base_filename</text>
<text text-anchor="middle" x="118.26" y="-494.8" font-family="Times,serif" font-size="14.00">string</text>
</g>
<!-- n0_place_1 -->
<g id="node8" class="node">
<title>n0_place_1</title>
<ellipse fill="white" stroke="black" cx="370.37" cy="-506" rx="113.69" ry="26.74"/>
<text text-anchor="middle" x="370.37" y="-509.8" font-family="Times,serif" font-size="14.00">place_base_filename</text>
<text text-anchor="middle" x="370.37" y="-494.8" font-family="Times,serif" font-size="14.00">string</text>
</g>
<!-- n0_port_0&#45;&gt;n0_place_1 -->
<g id="edge5" class="edge">
<title>n0_port_0&#45;&gt;n0_place_1</title>
<path fill="none" stroke="black" stroke-dasharray="1,5" d="M220.27,-506C232.2,-506 244.43,-506 256.51,-506"/>
</g>
<!-- n0_port_1 -->
<g id="node3" class="node">
<title>n0_port_1</title>
<polygon fill="white" stroke="black" points="214.55,-415.33 118.26,-438.43 21.97,-415.33 22.06,-377.96 214.46,-377.96 214.55,-415.33"/>
<text text-anchor="middle" x="118.26" y="-408.8" font-family="Times,serif" font-size="14.00">library_name</text>
<text text-anchor="middle" x="118.26" y="-393.8" font-family="Times,serif" font-size="14.00">string</text>
</g>
<!-- n0_place_3 -->
<g id="node10" class="node">
<title>n0_place_3</title>
<ellipse fill="white" stroke="black" cx="370.37" cy="-405" rx="109.7" ry="26.74"/>
<text text-anchor="middle" x="370.37" y="-408.8" font-family="Times,serif" font-size="14.00">place_library_name</text>
<text text-anchor="middle" x="370.37" y="-393.8" font-family="Times,serif" font-size="14.00">string</text>
</g>
<!-- n0_port_1&#45;&gt;n0_place_3 -->
<g id="edge6" class="edge">
<title>n0_port_1&#45;&gt;n0_place_3</title>
<path fill="none" stroke="black" stroke-dasharray="1,5" d="M214.53,-405C229.58,-405 245.23,-405 260.56,-405"/>
</g>
<!-- n0_port_2 -->
<g id="node4" class="node">
<title>n0_port_2</title>
<polygon fill="white" stroke="black" points="169.9,-296.33 118.26,-319.43 66.63,-296.33 66.67,-258.96 169.85,-258.96 169.9,-296.33"/>
<text text-anchor="middle" x="118.26" y="-289.8" font-family="Times,serif" font-size="14.00">input</text>
<text text-anchor="middle" x="118.26" y="-274.8" font-family="Times,serif" font-size="14.00">string</text>
</g>
<!-- n0_place_0 -->
<g id="node7" class="node">
<title>n0_place_0</title>
<ellipse fill="white" stroke="black" cx="370.37" cy="-286" rx="69.09" ry="26.74"/>
<text text-anchor="middle" x="370.37" y="-289.8" font-family="Times,serif" font-size="14.00">place_input</text>
<text text-anchor="middle" x="370.37" y="-274.8" font-family="Times,serif" font-size="14.00">string</text>
</g>
<!-- n0_port_2&#45;&gt;n0_place_0 -->
<g id="edge7" class="edge">
<title>n0_port_2&#45;&gt;n0_place_0</title>
<path fill="none" stroke="black" stroke-dasharray="1,5" d="M169.87,-286C207.56,-286 259.42,-286 300.82,-286"/>
</g>
<!-- n0_port_3 -->
<g id="node5" class="node">
<title>n0_port_3</title>
<polygon fill="white" stroke="black" points="942.27,-580.67 998.15,-557.57 1054.03,-580.67 1053.97,-618.04 942.33,-618.04 942.27,-580.67"/>
<text text-anchor="middle" x="998.15" y="-594.8" font-family="Times,serif" font-size="14.00">output</text>
<text text-anchor="middle" x="998.15" y="-579.8" font-family="Times,serif" font-size="14.00">string</text>
</g>
<!-- n0_place_2 -->
<g id="node9" class="node">
<title>n0_place_2</title>
<ellipse fill="white" stroke="black" cx="1221.02" cy="-354" rx="76.24" ry="26.74"/>
<text text-anchor="middle" x="1221.02" y="-357.8" font-family="Times,serif" font-size="14.00">place_output</text>
<text text-anchor="middle" x="1221.02" y="-342.8" font-family="Times,serif" font-size="14.00">string</text>
</g>
<!-- n0_port_3&#45;&gt;n0_place_2 -->
<g id="edge8" class="edge">
<title>n0_port_3&#45;&gt;n0_place_2</title>
<path fill="none" stroke="black" stroke-dasharray="1,5" d="M1051.72,-579.55C1073.71,-572.69 1098.36,-562.08 1116.65,-546 1168.67,-500.25 1199.14,-421.8 1212.29,-380.77"/>
</g>
<!-- n0_port_4 -->
<g id="node6" class="node">
<title>n0_port_4</title>
<polygon fill="white" stroke="black" points="574.58,-38.67 626.21,-15.57 677.85,-38.67 677.8,-76.04 574.62,-76.04 574.58,-38.67"/>
<text text-anchor="middle" x="626.21" y="-52.8" font-family="Times,serif" font-size="14.00">graph</text>
<text text-anchor="middle" x="626.21" y="-37.8" font-family="Times,serif" font-size="14.00">string</text>
</g>
<!-- n0_place_4 -->
<g id="node11" class="node">
<title>n0_place_4</title>
<ellipse fill="white" stroke="black" cx="809.93" cy="-202" rx="41.94" ry="26.74"/>
<text text-anchor="middle" x="809.93" y="-205.8" font-family="Times,serif" font-size="14.00">graph</text>
<text text-anchor="middle" x="809.93" y="-190.8" font-family="Times,serif" font-size="14.00">string</text>
</g>
<!-- n0_port_4&#45;&gt;n0_place_4 -->
<g id="edge9" class="edge">
<title>n0_port_4&#45;&gt;n0_place_4</title>
<path fill="none" stroke="black" stroke-dasharray="1,5" d="M678.06,-66.66C698.78,-75.46 722.08,-87.57 740.21,-103 764.43,-123.61 784.12,-154.64 796.12,-176.46"/>
</g>
<!-- n2_port_0 -->
<g id="node19" class="node">
<title>n2_port_0</title>
<polygon fill="white" stroke="black" points="677.85,-296.33 626.21,-319.43 574.58,-296.33 574.62,-258.96 677.8,-258.96 677.85,-296.33"/>
<text text-anchor="middle" x="626.21" y="-289.8" font-family="Times,serif" font-size="14.00">input</text>
<text text-anchor="middle" x="626.21" y="-274.8" font-family="Times,serif" font-size="14.00">string</text>
</g>
<!-- n0_place_0&#45;&gt;n2_port_0 -->
<g id="edge4" class="edge">
<title>n0_place_0&#45;&gt;n2_port_0</title>
<path fill="none" stroke="black" d="M439.73,-286C478.52,-286 526.66,-286 564.17,-286"/>
<polygon fill="black" stroke="black" points="564.45,-289.5 574.45,-286 564.45,-282.5 564.45,-289.5"/>
</g>
<!-- n1_port_2 -->
<g id="node15" class="node">
<title>n1_port_2</title>
<polygon fill="white" stroke="black" points="1049.79,-287.33 998.15,-310.43 946.51,-287.33 946.56,-249.96 1049.74,-249.96 1049.79,-287.33"/>
<text text-anchor="middle" x="998.15" y="-280.8" font-family="Times,serif" font-size="14.00">input</text>
<text text-anchor="middle" x="998.15" y="-265.8" font-family="Times,serif" font-size="14.00">string</text>
</g>
<!-- n0_place_4&#45;&gt;n1_port_2 -->
<g id="edge2" class="edge">
<title>n0_place_4&#45;&gt;n1_port_2</title>
<path fill="none" stroke="black" d="M843.13,-218.32C854.54,-223.87 867.56,-229.95 879.65,-235 898.04,-242.68 918.38,-250.26 936.89,-256.82"/>
<polygon fill="black" stroke="black" points="935.8,-260.15 946.39,-260.16 938.12,-253.54 935.8,-260.15"/>
</g>
<!-- n1_condition -->
<g id="node12" class="node">
<title>n1_condition</title>
<polygon fill="white" stroke="black" points="954.65,-497 954.65,-533 1041.65,-533 1041.65,-497 954.65,-497"/>
<text text-anchor="middle" x="998.15" y="-511.3" font-family="Times,serif" font-size="14.00">compute1</text>
</g>
<!-- n1_port_0 -->
<g id="node13" class="node">
<title>n1_port_0</title>
<polygon fill="white" stroke="black" points="1094.44,-455.33 998.15,-478.43 901.86,-455.33 901.95,-417.96 1094.35,-417.96 1094.44,-455.33"/>
<text text-anchor="middle" x="998.15" y="-448.8" font-family="Times,serif" font-size="14.00">library_name</text>
<text text-anchor="middle" x="998.15" y="-433.8" font-family="Times,serif" font-size="14.00">string</text>
</g>
<!-- n1_port_1 -->
<g id="node14" class="node">
<title>n1_port_1</title>
<polygon fill="white" stroke="black" points="1100.17,-371.33 998.15,-394.43 896.13,-371.33 896.22,-333.96 1100.08,-333.96 1100.17,-371.33"/>
<text text-anchor="middle" x="998.15" y="-364.8" font-family="Times,serif" font-size="14.00">base_filename</text>
<text text-anchor="middle" x="998.15" y="-349.8" font-family="Times,serif" font-size="14.00">string</text>
</g>
<!-- n1_port_3 -->
<g id="node16" class="node">
<title>n1_port_3</title>
<polygon fill="white" stroke="black" points="942.27,-182.67 998.15,-159.57 1054.03,-182.67 1053.97,-220.04 942.33,-220.04 942.27,-182.67"/>
<text text-anchor="middle" x="998.15" y="-196.8" font-family="Times,serif" font-size="14.00">output</text>
<text text-anchor="middle" x="998.15" y="-181.8" font-family="Times,serif" font-size="14.00">string</text>
</g>
<!-- n1_port_3&#45;&gt;n0_place_2 -->
<g id="edge1" class="edge">
<title>n1_port_3&#45;&gt;n0_place_2</title>
<path fill="none" stroke="black" d="M1054.26,-206.3C1074.95,-212.88 1097.96,-222.23 1116.65,-235 1149.68,-257.57 1178.69,-293.16 1197.51,-319.55"/>
<polygon fill="black" stroke="black" points="1194.65,-321.57 1203.25,-327.77 1200.39,-317.56 1194.65,-321.57"/>
</g>
<!-- n1_modcall -->
<g id="node17" class="node">
<title>n1_modcall</title>
<polygon fill="white" stroke="black" points="1108.65,-142 887.65,-142 887.65,-106 1108.65,-106 1108.65,-142"/>
<text text-anchor="middle" x="998.15" y="-120.3" font-family="Times,serif" font-size="14.00">singular_template.compute1</text>
</g>
<!-- n2_condition -->
<g id="node18" class="node">
<title>n2_condition</title>
<polygon fill="white" stroke="black" points="587.21,-338 587.21,-374 665.21,-374 665.21,-338 587.21,-338"/>
<text text-anchor="middle" x="626.21" y="-352.3" font-family="Times,serif" font-size="14.00">compute</text>
</g>
<!-- n2_port_1 -->
<g id="node20" class="node">
<title>n2_port_1</title>
<polygon fill="white" stroke="black" points="570.34,-191.67 626.21,-168.57 682.09,-191.67 682.04,-229.04 570.39,-229.04 570.34,-191.67"/>
<text text-anchor="middle" x="626.21" y="-205.8" font-family="Times,serif" font-size="14.00">output</text>
<text text-anchor="middle" x="626.21" y="-190.8" font-family="Times,serif" font-size="14.00">string</text>
</g>
<!-- n2_port_1&#45;&gt;n0_place_4 -->
<g id="edge3" class="edge">
<title>n2_port_1&#45;&gt;n0_place_4</title>
<path fill="none" stroke="black" d="M682.23,-202C706.25,-202 734.25,-202 757.82,-202"/>
<polygon fill="black" stroke="black" points="757.96,-205.5 767.96,-202 757.96,-198.5 757.96,-205.5"/>
</g>
<!-- n2_modcall -->
<g id="node21" class="node">
<title>n2_modcall</title>
<polygon fill="white" stroke="black" points="732.21,-151 520.21,-151 520.21,-115 732.21,-115 732.21,-151"/>
<text text-anchor="middle" x="626.21" y="-129.3" font-family="Times,serif" font-size="14.00">singular_template.compute</text>
</g>
</g>
</svg>
