<?xml version="1.0" encoding="UTF-8" standalone="no"?>
<!DOCTYPE svg PUBLIC "-//W3C//DTD SVG 1.1//EN"
 "http://www.w3.org/Graphics/SVG/1.1/DTD/svg11.dtd">
<!-- Generated by graphviz version 2.43.0 (0)
 -->
<!-- Title: feynman_deg Pages: 1 -->
<svg width="2306pt" height="1112pt"
 viewBox="0.00 0.00 2306.48 1112.00" xmlns="http://www.w3.org/2000/svg" xmlns:xlink="http://www.w3.org/1999/xlink">
<g id="graph0" class="graph" transform="scale(1 1) rotate(0) translate(4 1108)">
<title>feynman_deg</title>
<polygon fill="white" stroke="transparent" points="-4,4 -4,-1108 2302.48,-1108 2302.48,4 -4,4"/>
<g id="clust1" class="cluster">
<title>cluster_0</title>
<polygon fill="dimgray" stroke="black" points="8,-8 8,-1096 2290.48,-1096 2290.48,-8 8,-8"/>
</g>
<g id="clust2" class="cluster">
<title>cluster_net_0</title>
<polygon fill="white" stroke="black" points="159.37,-90 159.37,-1014 2282.48,-1014 2282.48,-90 159.37,-90"/>
</g>
<g id="clust3" class="cluster">
<title>cluster_1</title>
<polygon fill="yellow" stroke="black" points="2181.48,-550 2181.48,-910 2274.48,-910 2274.48,-550 2181.48,-550"/>
</g>
<g id="clust4" class="cluster">
<title>cluster_2</title>
<polygon fill="yellow" stroke="black" points="1938.36,-550 1938.36,-994 2071.48,-994 2071.48,-550 1938.36,-550"/>
</g>
<g id="clust5" class="cluster">
<title>cluster_3</title>
<polygon fill="yellow" stroke="black" points="1485.98,-646 1485.98,-1006 1764.98,-1006 1764.98,-646 1485.98,-646"/>
</g>
<g id="clust6" class="cluster">
<title>cluster_4</title>
<polygon fill="yellow" stroke="black" points="1063.51,-573 1063.51,-933 1363.51,-933 1363.51,-573 1063.51,-573"/>
</g>
<g id="clust7" class="cluster">
<title>cluster_5</title>
<polygon fill="yellow" stroke="black" points="650.92,-607 650.92,-883 868.92,-883 868.92,-607 650.92,-607"/>
</g>
<g id="clust8" class="cluster">
<title>cluster_6</title>
<polygon fill="yellow" stroke="black" points="1938.36,-98 1938.36,-542 2071.48,-542 2071.48,-98 1938.36,-98"/>
</g>
<g id="clust9" class="cluster">
<title>cluster_7</title>
<polygon fill="yellow" stroke="black" points="288.71,-646 288.71,-1006 474.71,-1006 474.71,-646 288.71,-646"/>
</g>
<!-- n0_condition -->
<g id="node1" class="node">
<title>n0_condition</title>
<polygon fill="white" stroke="black" points="18.19,-1006 18.19,-1042 129.19,-1042 129.19,-1006 18.19,-1006"/>
<text text-anchor="middle" x="73.69" y="-1020.3" font-family="Times,serif" font-size="14.00">feynman_deg</text>
</g>
<!-- n0_port_0 -->
<g id="node2" class="node">
<title>n0_port_0</title>
<polygon fill="white" stroke="black" points="131.56,-919.33 73.69,-942.43 15.81,-919.33 15.87,-881.96 131.5,-881.96 131.56,-919.33"/>
<text text-anchor="middle" x="73.69" y="-912.8" font-family="Times,serif" font-size="14.00">degree</text>
<text text-anchor="middle" x="73.69" y="-897.8" font-family="Times,serif" font-size="14.00">int</text>
</g>
<!-- n0_place_0 -->
<g id="node6" class="node">
<title>n0_place_0</title>
<ellipse fill="white" stroke="black" cx="214.04" cy="-909" rx="46.84" ry="26.74"/>
<text text-anchor="middle" x="214.04" y="-912.8" font-family="Times,serif" font-size="14.00">degree</text>
<text text-anchor="middle" x="214.04" y="-897.8" font-family="Times,serif" font-size="14.00">int</text>
</g>
<!-- n0_port_0&#45;&gt;n0_place_0 -->
<g id="edge23" class="edge">
<title>n0_port_0&#45;&gt;n0_place_0</title>
<path fill="none" stroke="black" stroke-dasharray="1,5" d="M131.76,-909C143.52,-909 155.76,-909 167.07,-909"/>
</g>
<!-- n0_port_1 -->
<g id="node3" class="node">
<title>n0_port_1</title>
<polygon fill="white" stroke="black" points="105.12,-835.33 73.69,-858.43 42.26,-835.33 42.29,-797.96 105.09,-797.96 105.12,-835.33"/>
<text text-anchor="middle" x="73.69" y="-828.8" font-family="Times,serif" font-size="14.00">N</text>
<text text-anchor="middle" x="73.69" y="-813.8" font-family="Times,serif" font-size="14.00">int</text>
</g>
<!-- n0_place_1 -->
<g id="node7" class="node">
<title>n0_place_1</title>
<ellipse fill="white" stroke="black" cx="214.04" cy="-825" rx="27" ry="26.74"/>
<text text-anchor="middle" x="214.04" y="-828.8" font-family="Times,serif" font-size="14.00">N</text>
<text text-anchor="middle" x="214.04" y="-813.8" font-family="Times,serif" font-size="14.00">int</text>
</g>
<!-- n0_port_1&#45;&gt;n0_place_1 -->
<g id="edge24" class="edge">
<title>n0_port_1&#45;&gt;n0_place_1</title>
<path fill="none" stroke="black" stroke-dasharray="1,5" d="M105.39,-825C129.75,-825 163.45,-825 186.62,-825"/>
</g>
<!-- n0_port_2 -->
<g id="node4" class="node">
<title>n0_port_2</title>
<polygon fill="white" stroke="black" points="811.55,-1065.33 759.92,-1088.43 708.28,-1065.33 708.33,-1027.96 811.51,-1027.96 811.55,-1065.33"/>
<text text-anchor="middle" x="759.92" y="-1058.8" font-family="Times,serif" font-size="14.00">graph</text>
<text text-anchor="middle" x="759.92" y="-1043.8" font-family="Times,serif" font-size="14.00">string</text>
</g>
<!-- n0_place_7 -->
<g id="node13" class="node">
<title>n0_place_7</title>
<ellipse fill="white" stroke="black" cx="966.21" cy="-944" rx="41.94" ry="26.74"/>
<text text-anchor="middle" x="966.21" y="-947.8" font-family="Times,serif" font-size="14.00">graph</text>
<text text-anchor="middle" x="966.21" y="-932.8" font-family="Times,serif" font-size="14.00">string</text>
</g>
<!-- n0_port_2&#45;&gt;n0_place_7 -->
<g id="edge25" class="edge">
<title>n0_port_2&#45;&gt;n0_place_7</title>
<path fill="none" stroke="black" stroke-dasharray="1,5" d="M810.9,-1027.85C849.29,-1006.99 901.12,-978.83 933.86,-961.04"/>
</g>
<!-- n0_port_3 -->
<g id="node5" class="node">
<title>n0_port_3</title>
<polygon fill="white" stroke="black" points="1973.49,-38.67 2004.92,-15.57 2036.35,-38.67 2036.32,-76.04 1973.52,-76.04 1973.49,-38.67"/>
<text text-anchor="middle" x="2004.92" y="-52.8" font-family="Times,serif" font-size="14.00">L</text>
<text text-anchor="middle" x="2004.92" y="-37.8" font-family="Times,serif" font-size="14.00">int</text>
</g>
<!-- n0_place_6 -->
<g id="node12" class="node">
<title>n0_place_6</title>
<ellipse fill="white" stroke="black" cx="2126.48" cy="-277" rx="27" ry="26.74"/>
<text text-anchor="middle" x="2126.48" y="-280.8" font-family="Times,serif" font-size="14.00">L</text>
<text text-anchor="middle" x="2126.48" y="-265.8" font-family="Times,serif" font-size="14.00">int</text>
</g>
<!-- n0_port_3&#45;&gt;n0_place_6 -->
<g id="edge26" class="edge">
<title>n0_port_3&#45;&gt;n0_place_6</title>
<path fill="none" stroke="black" stroke-dasharray="1,5" d="M2036.53,-64.02C2048.95,-71.49 2062.48,-81.6 2071.48,-94 2106.32,-141.98 2118.84,-212.33 2123.22,-250.31"/>
</g>
<!-- n7_port_0 -->
<g id="node49" class="node">
<title>n7_port_0</title>
<polygon fill="white" stroke="black" points="413.14,-919.33 381.71,-942.43 350.28,-919.33 350.31,-881.96 413.11,-881.96 413.14,-919.33"/>
<text text-anchor="middle" x="381.71" y="-912.8" font-family="Times,serif" font-size="14.00">d</text>
<text text-anchor="middle" x="381.71" y="-897.8" font-family="Times,serif" font-size="14.00">int</text>
</g>
<!-- n0_place_0&#45;&gt;n7_port_0 -->
<g id="edge21" class="edge">
<title>n0_place_0&#45;&gt;n7_port_0</title>
<path fill="none" stroke="black" d="M260.75,-909C285.53,-909 315.9,-909 339.88,-909"/>
<polygon fill="black" stroke="black" points="340.06,-912.5 350.06,-909 340.06,-905.5 340.06,-912.5"/>
</g>
<!-- n7_port_1 -->
<g id="node50" class="node">
<title>n7_port_1</title>
<polygon fill="white" stroke="black" points="413.14,-835.33 381.71,-858.43 350.28,-835.33 350.31,-797.96 413.11,-797.96 413.14,-835.33"/>
<text text-anchor="middle" x="381.71" y="-828.8" font-family="Times,serif" font-size="14.00">n</text>
<text text-anchor="middle" x="381.71" y="-813.8" font-family="Times,serif" font-size="14.00">int</text>
</g>
<!-- n0_place_1&#45;&gt;n7_port_1 -->
<g id="edge22" class="edge">
<title>n0_place_1&#45;&gt;n7_port_1</title>
<path fill="none" stroke="black" d="M241.29,-825C267.85,-825 309.28,-825 340.08,-825"/>
<polygon fill="black" stroke="black" points="340.08,-828.5 350.08,-825 340.08,-821.5 340.08,-828.5"/>
</g>
<!-- n0_place_2 -->
<g id="node8" class="node">
<title>n0_place_2</title>
<ellipse fill="white" stroke="black" cx="966.21" cy="-709" rx="69.09" ry="26.74"/>
<text text-anchor="middle" x="966.21" y="-712.8" font-family="Times,serif" font-size="14.00">branchtype</text>
<text text-anchor="middle" x="966.21" y="-697.8" font-family="Times,serif" font-size="14.00">list</text>
</g>
<!-- n4_port_0 -->
<g id="node34" class="node">
<title>n4_port_0</title>
<polygon fill="white" stroke="black" points="1247.69,-762.33 1213.51,-785.43 1179.34,-762.33 1179.37,-724.96 1247.65,-724.96 1247.69,-762.33"/>
<text text-anchor="middle" x="1213.51" y="-755.8" font-family="Times,serif" font-size="14.00">a</text>
<text text-anchor="middle" x="1213.51" y="-740.8" font-family="Times,serif" font-size="14.00">list</text>
</g>
<!-- n0_place_2&#45;&gt;n4_port_0 -->
<g id="edge12" class="edge">
<title>n0_place_2&#45;&gt;n4_port_0</title>
<path fill="none" stroke="black" d="M1029.75,-719.96C1073.4,-727.61 1130.55,-737.63 1169.23,-744.41"/>
<polygon fill="black" stroke="black" points="1168.68,-747.87 1179.14,-746.15 1169.89,-740.98 1168.68,-747.87"/>
</g>
<!-- n0_place_3 -->
<g id="node9" class="node">
<title>n0_place_3</title>
<ellipse fill="white" stroke="black" cx="1851.67" cy="-819" rx="48.17" ry="26.74"/>
<text text-anchor="middle" x="1851.67" y="-822.8" font-family="Times,serif" font-size="14.00">fey_out</text>
<text text-anchor="middle" x="1851.67" y="-807.8" font-family="Times,serif" font-size="14.00">int</text>
</g>
<!-- n2_port_0 -->
<g id="node23" class="node">
<title>n2_port_0</title>
<polygon fill="white" stroke="black" points="2036.35,-907.33 2004.92,-930.43 1973.49,-907.33 1973.52,-869.96 2036.32,-869.96 2036.35,-907.33"/>
<text text-anchor="middle" x="2004.92" y="-900.8" font-family="Times,serif" font-size="14.00">a</text>
<text text-anchor="middle" x="2004.92" y="-885.8" font-family="Times,serif" font-size="14.00">int</text>
</g>
<!-- n0_place_3&#45;&gt;n2_port_0 -->
<g id="edge7" class="edge">
<title>n0_place_3&#45;&gt;n2_port_0</title>
<path fill="none" stroke="black" d="M1887.75,-837.09C1910.55,-848.85 1940.34,-864.21 1964.04,-876.44"/>
<polygon fill="black" stroke="black" points="1962.64,-879.65 1973.13,-881.12 1965.85,-873.43 1962.64,-879.65"/>
</g>
<!-- n6_port_0 -->
<g id="node43" class="node">
<title>n6_port_0</title>
<polygon fill="white" stroke="black" points="2036.35,-455.33 2004.92,-478.43 1973.49,-455.33 1973.52,-417.96 2036.32,-417.96 2036.35,-455.33"/>
<text text-anchor="middle" x="2004.92" y="-448.8" font-family="Times,serif" font-size="14.00">a</text>
<text text-anchor="middle" x="2004.92" y="-433.8" font-family="Times,serif" font-size="14.00">int</text>
</g>
<!-- n0_place_3&#45;&gt;n6_port_0 -->
<g id="edge18" class="edge">
<title>n0_place_3&#45;&gt;n6_port_0</title>
<path fill="none" stroke="black" d="M1859.56,-792.27C1879.81,-713.67 1937.79,-488.8 1938.36,-488 1945.79,-477.63 1956.57,-469.09 1967.25,-462.42"/>
<polygon fill="black" stroke="black" points="1969.24,-465.32 1976.13,-457.27 1965.72,-459.27 1969.24,-465.32"/>
</g>
<!-- n0_place_4 -->
<g id="node10" class="node">
<title>n0_place_4</title>
<ellipse fill="white" stroke="black" cx="562.81" cy="-756" rx="60.21" ry="26.74"/>
<text text-anchor="middle" x="562.81" y="-759.8" font-family="Times,serif" font-size="14.00">d_vectors</text>
<text text-anchor="middle" x="562.81" y="-744.8" font-family="Times,serif" font-size="14.00">list</text>
</g>
<!-- n5_port_0 -->
<g id="node39" class="node">
<title>n5_port_0</title>
<polygon fill="white" stroke="black" points="794.09,-796.33 759.92,-819.43 725.74,-796.33 725.78,-758.96 794.06,-758.96 794.09,-796.33"/>
<text text-anchor="middle" x="759.92" y="-789.8" font-family="Times,serif" font-size="14.00">v</text>
<text text-anchor="middle" x="759.92" y="-774.8" font-family="Times,serif" font-size="14.00">list</text>
</g>
<!-- n0_place_4&#45;&gt;n5_port_0 -->
<g id="edge15" class="edge">
<title>n0_place_4&#45;&gt;n5_port_0</title>
<path fill="none" stroke="black" d="M619.98,-764.64C650.46,-769.32 687.56,-775.03 715.75,-779.36"/>
<polygon fill="black" stroke="black" points="715.29,-782.83 725.7,-780.89 716.35,-775.91 715.29,-782.83"/>
</g>
<!-- n0_place_5 -->
<g id="node11" class="node">
<title>n0_place_5</title>
<ellipse fill="white" stroke="black" cx="1424.75" cy="-764" rx="33.47" ry="26.74"/>
<text text-anchor="middle" x="1424.75" y="-767.8" font-family="Times,serif" font-size="14.00">sign</text>
<text text-anchor="middle" x="1424.75" y="-752.8" font-family="Times,serif" font-size="14.00">list</text>
</g>
<!-- n3_port_0 -->
<g id="node29" class="node">
<title>n3_port_0</title>
<polygon fill="white" stroke="black" points="1659.65,-835.33 1625.48,-858.43 1591.3,-835.33 1591.34,-797.96 1659.62,-797.96 1659.65,-835.33"/>
<text text-anchor="middle" x="1625.48" y="-828.8" font-family="Times,serif" font-size="14.00">a</text>
<text text-anchor="middle" x="1625.48" y="-813.8" font-family="Times,serif" font-size="14.00">list</text>
</g>
<!-- n0_place_5&#45;&gt;n3_port_0 -->
<g id="edge9" class="edge">
<title>n0_place_5&#45;&gt;n3_port_0</title>
<path fill="none" stroke="black" d="M1456.06,-773.63C1465.62,-776.65 1476.24,-779.99 1485.98,-783 1517.94,-792.89 1554.12,-803.85 1581.49,-812.1"/>
<polygon fill="black" stroke="black" points="1580.56,-815.47 1591.15,-815 1582.58,-808.77 1580.56,-815.47"/>
</g>
<!-- n1_port_1 -->
<g id="node18" class="node">
<title>n1_port_1</title>
<polygon fill="white" stroke="black" points="2259.41,-655.33 2227.98,-678.43 2196.55,-655.33 2196.58,-617.96 2259.38,-617.96 2259.41,-655.33"/>
<text text-anchor="middle" x="2227.98" y="-648.8" font-family="Times,serif" font-size="14.00">l</text>
<text text-anchor="middle" x="2227.98" y="-633.8" font-family="Times,serif" font-size="14.00">int</text>
</g>
<!-- n0_place_6&#45;&gt;n1_port_1 -->
<g id="edge3" class="edge">
<title>n0_place_6&#45;&gt;n1_port_1</title>
<path fill="none" stroke="black" d="M2129.67,-303.75C2135.6,-372.03 2153.46,-551.06 2181.48,-603 2183.66,-607.05 2186.39,-610.92 2189.41,-614.55"/>
<polygon fill="black" stroke="black" points="2187.05,-617.15 2196.41,-622.12 2192.19,-612.4 2187.05,-617.15"/>
</g>
<!-- n3_port_1 -->
<g id="node30" class="node">
<title>n3_port_1</title>
<polygon fill="white" stroke="black" points="1677.12,-919.33 1625.48,-942.43 1573.84,-919.33 1573.89,-881.96 1677.07,-881.96 1677.12,-919.33"/>
<text text-anchor="middle" x="1625.48" y="-912.8" font-family="Times,serif" font-size="14.00">G</text>
<text text-anchor="middle" x="1625.48" y="-897.8" font-family="Times,serif" font-size="14.00">string</text>
</g>
<!-- n0_place_7&#45;&gt;n3_port_1 -->
<g id="edge10" class="edge">
<title>n0_place_7&#45;&gt;n3_port_1</title>
<path fill="none" stroke="black" stroke-dasharray="5,2" d="M1008.05,-944.48C1079.97,-945.05 1233.88,-945.08 1363.51,-937 1432.16,-932.72 1510.57,-923.75 1563.38,-917.11"/>
<polygon fill="black" stroke="black" points="1564.11,-920.55 1573.59,-915.82 1563.23,-913.61 1564.11,-920.55"/>
</g>
<!-- n4_port_1 -->
<g id="node35" class="node">
<title>n4_port_1</title>
<polygon fill="white" stroke="black" points="1265.15,-846.33 1213.51,-869.43 1161.88,-846.33 1161.92,-808.96 1265.1,-808.96 1265.15,-846.33"/>
<text text-anchor="middle" x="1213.51" y="-839.8" font-family="Times,serif" font-size="14.00">G</text>
<text text-anchor="middle" x="1213.51" y="-824.8" font-family="Times,serif" font-size="14.00">string</text>
</g>
<!-- n0_place_7&#45;&gt;n4_port_1 -->
<g id="edge13" class="edge">
<title>n0_place_7&#45;&gt;n4_port_1</title>
<path fill="none" stroke="black" stroke-dasharray="5,2" d="M993.26,-923.12C1011.91,-909.02 1038.11,-890.87 1063.51,-879 1091.42,-865.95 1124.16,-855.97 1151.82,-848.93"/>
<polygon fill="black" stroke="black" points="1152.9,-852.27 1161.77,-846.47 1151.22,-845.48 1152.9,-852.27"/>
</g>
<!-- n0_place_8 -->
<g id="node14" class="node">
<title>n0_place_8</title>
<ellipse fill="white" stroke="black" cx="1851.67" cy="-549" rx="50.41" ry="37.45"/>
<text text-anchor="middle" x="1851.67" y="-560.3" font-family="Times,serif" font-size="14.00">left_init</text>
<text text-anchor="middle" x="1851.67" y="-545.3" font-family="Times,serif" font-size="14.00">control</text>
<text text-anchor="middle" x="1851.67" y="-530.3" font-family="Times,serif" font-size="14.00">[]</text>
</g>
<!-- n6_port_1 -->
<g id="node44" class="node">
<title>n6_port_1</title>
<polygon fill="white" stroke="black" points="2063.54,-371.33 2004.92,-394.43 1946.3,-371.33 1946.35,-333.96 2063.48,-333.96 2063.54,-371.33"/>
<text text-anchor="middle" x="2004.92" y="-364.8" font-family="Times,serif" font-size="14.00">s</text>
<text text-anchor="middle" x="2004.92" y="-349.8" font-family="Times,serif" font-size="14.00">control</text>
</g>
<!-- n0_place_8&#45;&gt;n6_port_1 -->
<g id="edge19" class="edge">
<title>n0_place_8&#45;&gt;n6_port_1</title>
<path fill="none" stroke="black" d="M1867.7,-513.47C1882.35,-481.83 1906.99,-435.62 1938.36,-403 1944.42,-396.7 1951.6,-390.9 1958.96,-385.75"/>
<polygon fill="black" stroke="black" points="1961.21,-388.46 1967.61,-380.02 1957.34,-382.62 1961.21,-388.46"/>
</g>
<!-- n0_place_9 -->
<g id="node15" class="node">
<title>n0_place_9</title>
<ellipse fill="white" stroke="black" cx="1851.67" cy="-330" rx="58.88" ry="26.74"/>
<text text-anchor="middle" x="1851.67" y="-333.8" font-family="Times,serif" font-size="14.00">right_init</text>
<text text-anchor="middle" x="1851.67" y="-318.8" font-family="Times,serif" font-size="14.00">control</text>
</g>
<!-- n2_port_1 -->
<g id="node24" class="node">
<title>n2_port_1</title>
<polygon fill="white" stroke="black" points="2063.54,-655.33 2004.92,-678.43 1946.3,-655.33 1946.35,-617.96 2063.48,-617.96 2063.54,-655.33"/>
<text text-anchor="middle" x="2004.92" y="-648.8" font-family="Times,serif" font-size="14.00">s</text>
<text text-anchor="middle" x="2004.92" y="-633.8" font-family="Times,serif" font-size="14.00">control</text>
</g>
<!-- n0_place_9&#45;&gt;n2_port_1 -->
<g id="edge6" class="edge">
<title>n0_place_9&#45;&gt;n2_port_1</title>
<path fill="none" stroke="black" d="M1861.97,-356.54C1873.72,-390.39 1894.35,-450.78 1910.36,-503 1923.89,-547.13 1910.91,-565.9 1938.36,-603 1940.37,-605.72 1942.61,-608.3 1945.02,-610.76"/>
<polygon fill="black" stroke="black" points="1942.94,-613.6 1952.69,-617.73 1947.65,-608.42 1942.94,-613.6"/>
</g>
<!-- n0_place_10 -->
<g id="node16" class="node">
<title>n0_place_10</title>
<ellipse fill="white" stroke="black" cx="2126.48" cy="-729" rx="27" ry="26.74"/>
<text text-anchor="middle" x="2126.48" y="-732.8" font-family="Times,serif" font-size="14.00">R</text>
<text text-anchor="middle" x="2126.48" y="-717.8" font-family="Times,serif" font-size="14.00">int</text>
</g>
<!-- n1_port_2 -->
<g id="node19" class="node">
<title>n1_port_2</title>
<polygon fill="white" stroke="black" points="2259.41,-739.33 2227.98,-762.43 2196.55,-739.33 2196.58,-701.96 2259.38,-701.96 2259.41,-739.33"/>
<text text-anchor="middle" x="2227.98" y="-732.8" font-family="Times,serif" font-size="14.00">r</text>
<text text-anchor="middle" x="2227.98" y="-717.8" font-family="Times,serif" font-size="14.00">int</text>
</g>
<!-- n0_place_10&#45;&gt;n1_port_2 -->
<g id="edge2" class="edge">
<title>n0_place_10&#45;&gt;n1_port_2</title>
<path fill="none" stroke="black" d="M2153.62,-729C2163.57,-729 2175.16,-729 2186.15,-729"/>
<polygon fill="black" stroke="black" points="2186.42,-732.5 2196.42,-729 2186.42,-725.5 2186.42,-732.5"/>
</g>
<!-- n1_condition -->
<g id="node17" class="node">
<title>n1_condition</title>
<polygon fill="white" stroke="black" points="2193.48,-865 2193.48,-901 2262.48,-901 2262.48,-865 2193.48,-865"/>
<text text-anchor="middle" x="2227.98" y="-879.3" font-family="Times,serif" font-size="14.00">Reduce</text>
</g>
<!-- n1_port_0 -->
<g id="node20" class="node">
<title>n1_port_0</title>
<polygon fill="white" stroke="black" points="2196.55,-802.67 2227.98,-779.57 2259.41,-802.67 2259.38,-840.04 2196.58,-840.04 2196.55,-802.67"/>
<text text-anchor="middle" x="2227.98" y="-816.8" font-family="Times,serif" font-size="14.00">s</text>
<text text-anchor="middle" x="2227.98" y="-801.8" font-family="Times,serif" font-size="14.00">int</text>
</g>
<!-- n1_port_0&#45;&gt;n0_place_3 -->
<g id="edge1" class="edge">
<title>n1_port_0&#45;&gt;n0_place_3</title>
<path fill="none" stroke="black" d="M2196.95,-840.12C2191.65,-845.25 2186.3,-850.69 2181.48,-856 2127.86,-915.15 2143.16,-962.86 2071.48,-998 2018.36,-1024.05 1988.42,-1029.54 1938.36,-998 1888.94,-966.87 1867.4,-898.47 1858.48,-855.82"/>
<polygon fill="black" stroke="black" points="1861.88,-854.97 1856.52,-845.83 1855.01,-856.32 1861.88,-854.97"/>
</g>
<!-- n1_modcall -->
<g id="node21" class="node">
<title>n1_modcall</title>
<polygon fill="white" stroke="black" points="2266.48,-594 2189.48,-594 2189.48,-558 2266.48,-558 2266.48,-594"/>
<text text-anchor="middle" x="2227.98" y="-572.3" font-family="Times,serif" font-size="14.00">sum.add</text>
</g>
<!-- n2_condition -->
<g id="node22" class="node">
<title>n2_condition</title>
<polygon fill="white" stroke="black" points="1977.92,-949 1977.92,-985 2031.92,-985 2031.92,-949 1977.92,-949"/>
<text text-anchor="middle" x="2004.92" y="-963.3" font-family="Times,serif" font-size="14.00">RHS</text>
</g>
<!-- n2_port_2 -->
<g id="node25" class="node">
<title>n2_port_2</title>
<polygon fill="white" stroke="black" points="1973.49,-718.67 2004.92,-695.57 2036.35,-718.67 2036.32,-756.04 1973.52,-756.04 1973.49,-718.67"/>
<text text-anchor="middle" x="2004.92" y="-732.8" font-family="Times,serif" font-size="14.00">a</text>
<text text-anchor="middle" x="2004.92" y="-717.8" font-family="Times,serif" font-size="14.00">int</text>
</g>
<!-- n2_port_2&#45;&gt;n0_place_10 -->
<g id="edge4" class="edge">
<title>n2_port_2&#45;&gt;n0_place_10</title>
<path fill="none" stroke="black" d="M2036.4,-729C2052.44,-729 2072.22,-729 2089.07,-729"/>
<polygon fill="black" stroke="black" points="2089.12,-732.5 2099.12,-729 2089.12,-725.5 2089.12,-732.5"/>
</g>
<!-- n2_port_3 -->
<g id="node26" class="node">
<title>n2_port_3</title>
<polygon fill="white" stroke="black" points="1946.3,-802.67 2004.92,-779.57 2063.54,-802.67 2063.48,-840.04 1946.35,-840.04 1946.3,-802.67"/>
<text text-anchor="middle" x="2004.92" y="-816.8" font-family="Times,serif" font-size="14.00">s</text>
<text text-anchor="middle" x="2004.92" y="-801.8" font-family="Times,serif" font-size="14.00">control</text>
</g>
<!-- n2_port_3&#45;&gt;n0_place_8 -->
<g id="edge5" class="edge">
<title>n2_port_3&#45;&gt;n0_place_8</title>
<path fill="none" stroke="black" d="M1966.33,-794.6C1956.21,-788.23 1945.97,-780.32 1938.36,-771 1896.16,-719.31 1873.1,-644.48 1861.83,-596.28"/>
<polygon fill="black" stroke="black" points="1865.22,-595.4 1859.6,-586.42 1858.39,-596.94 1865.22,-595.4"/>
</g>
<!-- n2_modcall -->
<g id="node27" class="node">
<title>n2_modcall</title>
<polygon fill="white" stroke="black" points="2050.42,-594 1959.42,-594 1959.42,-558 2050.42,-558 2050.42,-594"/>
<text text-anchor="middle" x="2004.92" y="-572.3" font-family="Times,serif" font-size="14.00">token.plus</text>
</g>
<!-- n3_condition -->
<g id="node28" class="node">
<title>n3_condition</title>
<polygon fill="white" stroke="black" points="1558.48,-961 1558.48,-997 1692.48,-997 1692.48,-961 1558.48,-961"/>
<text text-anchor="middle" x="1625.48" y="-975.3" font-family="Times,serif" font-size="14.00">feynman_degree</text>
</g>
<!-- n3_port_2 -->
<g id="node31" class="node">
<title>n3_port_2</title>
<polygon fill="white" stroke="black" points="1594.05,-730.67 1625.48,-707.57 1656.91,-730.67 1656.88,-768.04 1594.08,-768.04 1594.05,-730.67"/>
<text text-anchor="middle" x="1625.48" y="-744.8" font-family="Times,serif" font-size="14.00">s</text>
<text text-anchor="middle" x="1625.48" y="-729.8" font-family="Times,serif" font-size="14.00">int</text>
</g>
<!-- n3_port_2&#45;&gt;n0_place_3 -->
<g id="edge8" class="edge">
<title>n3_port_2&#45;&gt;n0_place_3</title>
<path fill="none" stroke="black" d="M1657.04,-749.28C1685.3,-757.18 1728.34,-769.79 1764.98,-783 1777.8,-787.62 1791.49,-793.12 1804.08,-798.4"/>
<polygon fill="black" stroke="black" points="1802.89,-801.69 1813.46,-802.38 1805.62,-795.25 1802.89,-801.69"/>
</g>
<!-- n3_modcall -->
<g id="node32" class="node">
<title>n3_modcall</title>
<polygon fill="white" stroke="black" points="1756.98,-690 1493.98,-690 1493.98,-654 1756.98,-654 1756.98,-690"/>
<text text-anchor="middle" x="1625.48" y="-668.3" font-family="Times,serif" font-size="14.00">feynman.feynman_integral_degree</text>
</g>
<!-- n4_condition -->
<g id="node33" class="node">
<title>n4_condition</title>
<polygon fill="white" stroke="black" points="1171.01,-888 1171.01,-924 1256.01,-924 1256.01,-888 1171.01,-888"/>
<text text-anchor="middle" x="1213.51" y="-902.3" font-family="Times,serif" font-size="14.00">signature</text>
</g>
<!-- n4_port_2 -->
<g id="node36" class="node">
<title>n4_port_2</title>
<polygon fill="white" stroke="black" points="1179.34,-657.67 1213.51,-634.57 1247.69,-657.67 1247.65,-695.04 1179.37,-695.04 1179.34,-657.67"/>
<text text-anchor="middle" x="1213.51" y="-671.8" font-family="Times,serif" font-size="14.00">s</text>
<text text-anchor="middle" x="1213.51" y="-656.8" font-family="Times,serif" font-size="14.00">list</text>
</g>
<!-- n4_port_2&#45;&gt;n0_place_5 -->
<g id="edge11" class="edge">
<title>n4_port_2&#45;&gt;n0_place_5</title>
<path fill="none" stroke="black" d="M1248.19,-670.95C1279.64,-676.6 1327.11,-687.78 1364.48,-708.25 1376.81,-715.07 1388.45,-724.52 1398.34,-733.76"/>
<path fill="none" stroke="transparent" d="M1247.84,-672.92C1279.18,-678.55 1326.66,-689.73 1363.51,-710 1375.55,-716.62 1387.19,-726.07 1396.97,-735.22"/>
<path fill="none" stroke="black" d="M1247.48,-674.88C1278.72,-680.49 1326.2,-691.68 1362.55,-711.75 1374.29,-718.17 1385.93,-727.62 1395.6,-736.68"/>
<polygon fill="black" stroke="black" points="1394.78,-737.97 1404.39,-742.43 1399.66,-732.95 1394.78,-737.97"/>
</g>
<!-- n4_modcall -->
<g id="node37" class="node">
<title>n4_modcall</title>
<polygon fill="white" stroke="black" points="1355.51,-617 1071.51,-617 1071.51,-581 1355.51,-581 1355.51,-617"/>
<text text-anchor="middle" x="1213.51" y="-595.3" font-family="Times,serif" font-size="14.00">signature.signature_and_multiplicitie</text>
</g>
<!-- n5_condition -->
<g id="node38" class="node">
<title>n5_condition</title>
<polygon fill="white" stroke="black" points="706.42,-838 706.42,-874 813.42,-874 813.42,-838 706.42,-838"/>
<text text-anchor="middle" x="759.92" y="-852.3" font-family="Times,serif" font-size="14.00">Combination</text>
</g>
<!-- n5_port_1 -->
<g id="node40" class="node">
<title>n5_port_1</title>
<polygon fill="white" stroke="black" points="724.25,-691.67 759.92,-668.57 795.59,-691.67 795.56,-729.04 724.28,-729.04 724.25,-691.67"/>
<text text-anchor="middle" x="759.92" y="-705.8" font-family="Times,serif" font-size="14.00">vec</text>
<text text-anchor="middle" x="759.92" y="-690.8" font-family="Times,serif" font-size="14.00">list</text>
</g>
<!-- n5_port_1&#45;&gt;n0_place_2 -->
<g id="edge14" class="edge">
<title>n5_port_1&#45;&gt;n0_place_2</title>
<path fill="none" stroke="black" d="M796.11,-701.2C821.12,-702.06 855.74,-703.25 887.15,-704.32"/>
<path fill="none" stroke="transparent" d="M796.04,-703.2C821.05,-704.06 855.67,-705.25 887.08,-706.32"/>
<path fill="none" stroke="black" d="M795.97,-705.2C820.99,-706.06 855.6,-707.25 887.01,-708.32"/>
<polygon fill="black" stroke="black" points="887.03,-709.82 897.15,-706.67 887.27,-702.83 887.03,-709.82"/>
</g>
<!-- n5_modcall -->
<g id="node41" class="node">
<title>n5_modcall</title>
<polygon fill="white" stroke="black" points="860.92,-651 658.92,-651 658.92,-615 860.92,-615 860.92,-651"/>
<text text-anchor="middle" x="759.92" y="-629.3" font-family="Times,serif" font-size="14.00">combination_vec.partition</text>
</g>
<!-- n6_condition -->
<g id="node42" class="node">
<title>n6_condition</title>
<polygon fill="white" stroke="black" points="1977.92,-497 1977.92,-533 2031.92,-533 2031.92,-497 1977.92,-497"/>
<text text-anchor="middle" x="2004.92" y="-511.3" font-family="Times,serif" font-size="14.00">LHS</text>
</g>
<!-- n6_port_2 -->
<g id="node45" class="node">
<title>n6_port_2</title>
<polygon fill="white" stroke="black" points="1973.49,-266.67 2004.92,-243.57 2036.35,-266.67 2036.32,-304.04 1973.52,-304.04 1973.49,-266.67"/>
<text text-anchor="middle" x="2004.92" y="-280.8" font-family="Times,serif" font-size="14.00">a</text>
<text text-anchor="middle" x="2004.92" y="-265.8" font-family="Times,serif" font-size="14.00">int</text>
</g>
<!-- n6_port_2&#45;&gt;n0_place_6 -->
<g id="edge16" class="edge">
<title>n6_port_2&#45;&gt;n0_place_6</title>
<path fill="none" stroke="black" d="M2036.4,-277C2052.44,-277 2072.22,-277 2089.07,-277"/>
<polygon fill="black" stroke="black" points="2089.12,-280.5 2099.12,-277 2089.12,-273.5 2089.12,-280.5"/>
</g>
<!-- n6_port_3 -->
<g id="node46" class="node">
<title>n6_port_3</title>
<polygon fill="white" stroke="black" points="1946.3,-182.67 2004.92,-159.57 2063.54,-182.67 2063.48,-220.04 1946.35,-220.04 1946.3,-182.67"/>
<text text-anchor="middle" x="2004.92" y="-196.8" font-family="Times,serif" font-size="14.00">s</text>
<text text-anchor="middle" x="2004.92" y="-181.8" font-family="Times,serif" font-size="14.00">control</text>
</g>
<!-- n6_port_3&#45;&gt;n0_place_9 -->
<g id="edge17" class="edge">
<title>n6_port_3&#45;&gt;n0_place_9</title>
<path fill="none" stroke="black" d="M1958.01,-220.17C1951.2,-224.83 1944.44,-229.84 1938.36,-235 1916.57,-253.48 1895.04,-277.37 1879.02,-296.57"/>
<polygon fill="black" stroke="black" points="1876.16,-294.54 1872.5,-304.48 1881.56,-298.99 1876.16,-294.54"/>
</g>
<!-- n6_modcall -->
<g id="node47" class="node">
<title>n6_modcall</title>
<polygon fill="white" stroke="black" points="2055.42,-142 1954.42,-142 1954.42,-106 2055.42,-106 2055.42,-142"/>
<text text-anchor="middle" x="2004.92" y="-120.3" font-family="Times,serif" font-size="14.00">token.count</text>
</g>
<!-- n7_condition -->
<g id="node48" class="node">
<title>n7_condition</title>
<polygon fill="white" stroke="black" points="342.21,-961 342.21,-997 421.21,-997 421.21,-961 342.21,-961"/>
<text text-anchor="middle" x="381.71" y="-975.3" font-family="Times,serif" font-size="14.00">partition</text>
</g>
<!-- n7_port_2 -->
<g id="node51" class="node">
<title>n7_port_2</title>
<polygon fill="white" stroke="black" points="347.54,-730.67 381.71,-707.57 415.89,-730.67 415.85,-768.04 347.57,-768.04 347.54,-730.67"/>
<text text-anchor="middle" x="381.71" y="-744.8" font-family="Times,serif" font-size="14.00">v</text>
<text text-anchor="middle" x="381.71" y="-729.8" font-family="Times,serif" font-size="14.00">list</text>
</g>
<!-- n7_port_2&#45;&gt;n0_place_4 -->
<g id="edge20" class="edge">
<title>n7_port_2&#45;&gt;n0_place_4</title>
<path fill="none" stroke="black" d="M416.15,-741.79C437.94,-743.62 467.22,-746.07 493.83,-748.3"/>
<path fill="none" stroke="transparent" d="M415.98,-743.79C437.78,-745.61 467.06,-748.06 493.66,-750.29"/>
<path fill="none" stroke="black" d="M415.81,-745.78C437.61,-747.6 466.89,-750.06 493.49,-752.29"/>
<polygon fill="black" stroke="black" points="493.45,-753.79 503.7,-751.13 494.03,-746.81 493.45,-753.79"/>
</g>
<!-- n7_modcall -->
<g id="node52" class="node">
<title>n7_modcall</title>
<polygon fill="white" stroke="black" points="466.71,-690 296.71,-690 296.71,-654 466.71,-654 466.71,-690"/>
<text text-anchor="middle" x="381.71" y="-668.3" font-family="Times,serif" font-size="14.00">sum_degree.sum_deg</text>
</g>
</g>
</svg>
